<?xml version="1.0" standalone="no"?>
<!DOCTYPE svg PUBLIC "-//W3C//DTD SVG 1.1//EN" "http://www.w3.org/Graphics/SVG/1.1/DTD/svg11.dtd" >
<svg xmlns="http://www.w3.org/2000/svg">
<metadata>
Created by FontPrep 20130207 at Sat Feb 25 08:02:03 2017
 By Solano
Copyright (c) 2015, Cadson Demak (info@cadsondemak.com)
</metadata>
<defs>
<font id="4b1221af6b5d195812d62cf5da34f409" horiz-adv-x='1024' >
  <font-face 
    font-family="Pridi-Regular"
    font-weight="400"
    font-stretch="normal"
    units-per-em="2048"
    panose-1="0 0 5 0 0 0 0 0 0 0"
    ascent="1536"
    descent="-512"
    x-height="983"
    cap-height="1325"
    bbox="-1245 -842 2445 2148"
    underline-thickness="102"
    underline-position="-102"
    unicode-range="U+000D-FB02"
  />
<missing-glyph horiz-adv-x="1228" 
d="M930 104v1254h-633v-1254h633zM193 1462h841v-1462h-841v1462z" />
    <glyph glyph-name="fi" unicode="fi" horiz-adv-x="1163" 
d="M981 227q0 -75 76 -75h59v-152h-354v834h-338v-607q0 -41 16.5 -58t57.5 -17h49v-152h-469v152h51q41 0 59.5 17t18.5 58v607h-160v149h160v64q0 160 105.5 249.5t293.5 89.5q127 0 212 -28.5t155 -89.5v-160h-205v86q-61 45 -162 45q-182 0 -182 -172v-84h557v-756z" />
    <glyph glyph-name="fl" unicode="fl" horiz-adv-x="1163" 
d="M764 983v221q-56 35 -156 35t-142 -42t-42 -130v-84h340zM981 227q0 -75 76 -75h59v-152h-354v834h-338v-607q0 -41 16.5 -58t57.5 -17h49v-152h-469v152h51q41 0 59.5 17t18.5 58v607h-160v149h160v64q0 160 102.5 249.5t288.5 89.5q243 0 383 -118v-1041z" />
    <glyph glyph-name="ru_lakkhangyaothai" unicode="&#xe24;&#xe45;" horiz-adv-x="1777" 
d="M420 165q0 48 -18.5 65.5t-68.5 17.5t-69.5 -18.5t-19.5 -65.5t18.5 -64.5t69.5 -17.5t69.5 17.5t18.5 65.5zM379 350q164 0 164 -189q0 -97 -48.5 -144.5t-168.5 -47.5t-167.5 46t-47.5 161v268q0 86 26.5 144.5t91.5 95.5l-161 96v146q201 188 497 188q236 0 365 -106
q135 106 347 106t302 -101.5t90 -289.5v-1135h-221v1137q0 125 -43 180.5t-165 55.5t-216 -82q27 -74 27 -148v-1143h-222v1149q0 224 -264 224q-172 0 -291 -93v-26l166 -105v-96q-63 -25 -85.5 -67t-22.5 -125v-101q18 2 47 2z" />
    <glyph glyph-name="lu_lakkhangyaothai" unicode="&#xe26;&#xe45;" horiz-adv-x="1869" 
d="M367 162q0 47 -19.5 65.5t-69.5 18.5t-69 -17.5t-19 -65.5t18.5 -65.5t70 -17.5t70 17.5t18.5 64.5zM659 1114q238 0 363 -106q135 106 347 106t302 -101.5t90 -289.5v-1135h-221v1137q0 125 -43 180.5t-165 55.5t-216 -82q27 -74 27 -148v-1143h-221v1149
q0 224 -265 224q-178 0 -295 -93v-26l201 -121v-96q-41 -27 -52 -58.5t-11 -113.5v-279q0 -115 -47 -161t-168 -46t-169 46.5t-48 144.5q0 190 163 190q29 0 48 -2v109q0 76 13 119.5t58 89.5l-194 116v146q201 188 503 188z" />
    <glyph glyph-name=".notdef" horiz-adv-x="1228" 
d="M930 104v1254h-633v-1254h633zM193 1462h841v-1462h-841v1462z" />
    <glyph glyph-name=".null" 
 />
    <glyph glyph-name="nonmarkingreturn" unicode="&#xd;" horiz-adv-x="716" 
 />
    <glyph glyph-name="space" unicode=" " horiz-adv-x="716" 
 />
    <glyph glyph-name="exclam" unicode="!" horiz-adv-x="415" 
d="M88 186h240v-186h-240v186zM92 1325h234l-15 -956h-207z" />
    <glyph glyph-name="quotedbl" unicode="&#x22;" horiz-adv-x="706" 
d="M410 1477h208l-24 -402h-158zM88 1477h209l-25 -402h-159z" />
    <glyph glyph-name="numbersign" unicode="#" horiz-adv-x="1531" 
d="M926 508l75 344h-383l-75 -344h383zM88 356v152h262l78 344h-281v152h314l69 321h193l-70 -321h383l70 321h192l-71 -321h217v-152h-250l-78 -344h268v-152h-301l-77 -356h-191l76 356h-383l-76 -356h-192l77 356h-229z" />
    <glyph glyph-name="dollar" unicode="$" horiz-adv-x="1134" 
d="M88 319h217v-131q110 -67 257 -67t210.5 52.5t63.5 134.5t-34 126.5t-95.5 77.5t-191.5 84t-272.5 134t-142.5 274q0 147 98.5 234t262.5 108v225h201v-221q209 -20 360 -136v-188h-217v125q-90 53 -240 53q-254 0 -254 -194q0 -70 43 -117t98.5 -74t191.5 -81
t269.5 -129t133.5 -279q0 -143 -100.5 -240.5t-284.5 -114.5v-221h-201v223q-216 29 -373 144v198z" />
    <glyph glyph-name="percent" unicode="%" horiz-adv-x="1579" 
d="M1341 284.5q0 69.5 -48 118t-117.5 48.5t-117.5 -48.5t-48 -118t48 -117.5t117.5 -48t117.5 48t48 117.5zM860 285q0 86 42 158.5t115 114.5t159 42t158.5 -42t114.5 -114.5t42 -158.5t-42 -159t-114.5 -115t-158.5 -42t-159 42t-115 115t-42 159zM569 1040.5
q0 69.5 -48 117.5t-117.5 48t-117.5 -48t-48 -117.5t48 -118t117.5 -48.5t117.5 48.5t48 118zM1071 1325h217l-772 -1325h-217zM88 1040q0 86 42 159t114.5 115t158.5 42t159 -42t115 -115t42 -159t-42 -158.5t-115 -114.5t-159 -42t-158.5 42t-114.5 114.5t-42 158.5z" />
    <glyph glyph-name="ampersand" unicode="&#x26;" horiz-adv-x="1396" 
d="M301 328q0 -100 78.5 -154.5t180.5 -54.5t169.5 20.5t128.5 73.5l-371 395q-100 -53 -143 -116.5t-43 -163.5zM539 1206q-144 0 -144 -142q0 -70 30 -114.5t107 -126.5l418 -442q37 86 37 217v164h322v-148h-70q-35 0 -48 -13t-13 -50q0 -209 -78 -336l207 -215h-246
l-92 96q-86 -72 -179.5 -99.5t-226.5 -27.5q-215 0 -345 95.5t-130 251.5t65.5 247.5t211.5 173.5q-80 78 -129.5 153t-49.5 161q0 152 95.5 228.5t262.5 76.5t257 -87t90 -225v-65h-215v84q0 143 -137 143z" />
    <glyph glyph-name="quotesingle" unicode="'" horiz-adv-x="401" 
d="M88 1477h225l-24 -402h-176z" />
    <glyph glyph-name="parenleft" unicode="(" horiz-adv-x="718" 
d="M299 644q0 -521 332 -798h-252q-291 289 -291 801t291 801h252q-332 -283 -332 -804z" />
    <glyph glyph-name="parenright" unicode=")" horiz-adv-x="718" 
d="M420 651q0 520 -332 797h252q291 -289 291 -801t-291 -801h-252q332 285 332 805z" />
    <glyph glyph-name="asterisk" unicode="*" horiz-adv-x="854" 
d="M158 934l147 186l-217 58l57 168l193 -82l-8 213h196l-12 -213l195 82l57 -168l-219 -58l149 -186l-151 -100l-119 188l-119 -188z" />
    <glyph glyph-name="plus" unicode="+" horiz-adv-x="843" 
d="M330 553h-242v149h242v218h180v-218h246v-149h-246v-217h-180v217z" />
    <glyph glyph-name="comma" unicode="," horiz-adv-x="462" 
d="M154 180h221l-129 -422h-158z" />
    <glyph glyph-name="hyphen" unicode="-" horiz-adv-x="768" 
d="M88 694h592v-149h-592v149z" />
    <glyph glyph-name="period" unicode="." horiz-adv-x="366" 
d="M88 180h191v-180h-191v180z" />
    <glyph glyph-name="slash" unicode="/" horiz-adv-x="907" 
d="M602 1384h217l-512 -1384h-219z" />
    <glyph glyph-name="zero" unicode="0" horiz-adv-x="1271" 
d="M991 663.5q0 286.5 -92 412.5t-264 126t-263 -126t-91 -412.5t91 -414.5t263 -128t264 128t92 414.5zM68 662q0 348 139 520t429 172t429 -172t139 -519t-140 -520.5t-429 -173.5t-428 172.5t-139 520.5z" />
    <glyph glyph-name="one" unicode="1" horiz-adv-x="831" 
d="M147 150h121q45 0 62.5 18t17.5 59v889l-198 -121l-82 135l309 195h186v-1098q0 -41 18.5 -59t63.5 -18h119v-150h-617v150z" />
    <glyph glyph-name="two" unicode="2" horiz-adv-x="1097" 
d="M797 999q0 205 -254 205q-137 0 -236 -49v-121h-213v193q86 57 205 93t242 36q213 0 341 -89t128 -268q0 -109 -40 -188.5t-127 -146t-237 -139.5t-224.5 -161t-74.5 -214h688v-150h-907v109q0 186 112.5 319t327.5 238q152 74 210.5 142.5t58.5 190.5z" />
    <glyph glyph-name="three" unicode="3" horiz-adv-x="1132" 
d="M819 1001q0 203 -260 203q-125 0 -229 -47v-123h-215v191q82 59 202.5 95t245.5 36q209 0 339 -87t130 -261q0 -207 -178 -314q190 -88 190 -304t-119.5 -318.5t-389.5 -102.5t-447 152v192h215v-123q111 -70 256.5 -69.5t210 62t64.5 208.5q0 225 -252 225h-164v152h170
q231 0 231 233z" />
    <glyph glyph-name="four" unicode="4" horiz-adv-x="1134" 
d="M664 502v549l-402 -549h402zM467 150h104q45 0 62.5 18t17.5 59v123h-604v139l612 836h203v-823h225v-152h-225v-123q0 -41 18.5 -59t63.5 -18h103v-150h-580v150z" />
    <glyph glyph-name="five" unicode="5" horiz-adv-x="1138" 
d="M546 -31q-266 0 -458 152v192h215v-125q99 -67 254 -67t219 82.5t64 240.5t-74 221.5t-236 63.5h-395v113l41 483h832v-151h-637l-25 -291h213q231 0 361.5 -102.5t130.5 -334.5t-119.5 -354.5t-385.5 -122.5z" />
    <glyph glyph-name="six" unicode="6" horiz-adv-x="1155" 
d="M897 459q0 176 -71.5 252.5t-211.5 76.5t-226.5 -77.5t-86.5 -218.5q0 -371 291 -371q162 0 233.5 81t71.5 257zM88 571q0 422 162 603.5t403 181.5q119 0 201 -26.5t162 -84.5l-82 -131q-61 41 -119.5 58.5t-144.5 17.5q-160 0 -249 -101.5t-126 -304.5q72 80 150.5 115
t195.5 35q225 0 346 -119t121 -355t-130 -363.5t-376 -127.5t-380 145.5t-134 456.5z" />
    <glyph glyph-name="seven" unicode="7" horiz-adv-x="1046" 
d="M264 1174v-144h-217v295h952v-104l-491 -1221h-217l473 1174h-500z" />
    <glyph glyph-name="eight" unicode="8" horiz-adv-x="1189" 
d="M299 371q0 -250 295 -250t295 250t-277 250h-34q-279 0 -279 -250zM868 993q0 211 -273 211t-273 -211q0 -121 62 -176t191 -55h39q131 0 192.5 55t61.5 176zM1102 373q0 -404 -507 -404t-507 404q0 222 193 317q-172 101 -172 290t133 282.5t353 93.5t353 -93.5
t133 -269.5q0 -100 -40 -174t-132 -129q193 -97 193 -317z" />
    <glyph glyph-name="nine" unicode="9" horiz-adv-x="1196" 
d="M895 838q0 195 -73.5 280.5t-223.5 85.5t-224.5 -82t-74.5 -257t72.5 -251.5t212.5 -76.5t225.5 78.5t85.5 222.5zM538 133q155 0 240.5 97.5t122.5 301.5q-68 -76 -148.5 -108.5t-195.5 -32.5q-225 0 -347 120.5t-122 356.5t134 362t378 126t376 -145.5t132 -456.5
q0 -424 -155.5 -604.5t-386.5 -180.5t-380 103l86 139q111 -78 266 -78z" />
    <glyph glyph-name="colon" unicode=":" horiz-adv-x="370" 
d="M88 203h195v-203h-195v203zM88 1012h195v-201h-195v201z" />
    <glyph glyph-name="semicolon" unicode=";" horiz-adv-x="454" 
d="M152 180h215l-129 -422h-150zM147 1012h211v-201h-211v201z" />
    <glyph glyph-name="less" unicode="&#x3c;" horiz-adv-x="1277" 
d="M88 602v125l1102 485v-186l-854 -360l854 -363v-186z" />
    <glyph glyph-name="equal" unicode="=" horiz-adv-x="839" 
d="M88 539h664v-152h-664v152zM88 852h664v-150h-664v150z" />
    <glyph glyph-name="greater" unicode="&#x3e;" horiz-adv-x="1277" 
d="M88 303l854 363l-854 360v186l1102 -485v-125l-1102 -485v186z" />
    <glyph glyph-name="question" unicode="?" horiz-adv-x="1095" 
d="M340 195h248v-195h-248v195zM285 1024h-197v197q82 61 202 98t251 37q219 0 343 -86t124 -258q0 -92 -29 -153.5t-89.5 -111t-160.5 -102.5t-128 -110.5t-28 -161.5v-54h-217v62q0 133 56.5 224t189.5 161q106 51 150.5 102.5t44.5 143.5q0 193 -260 192q-141 0 -252 -61
v-119z" />
    <glyph glyph-name="at" unicode="@" horiz-adv-x="1761" 
d="M1047 426v59l-211 -14q-68 -4 -99.5 -29.5t-31.5 -81.5t32.5 -79t112.5 -23t138.5 42t58.5 126zM88 569q0 231 97.5 404.5t278.5 267.5t425 94q399 0 591.5 -192.5t192.5 -544.5q0 -469 -330 -469q-74 0 -132 40t-74 97q-99 -143 -326 -143q-141 0 -216 60.5t-75 172.5
t69.5 174t201.5 72l256 16v64q0 76 -31.5 107.5t-107.5 31.5t-142 -28v-58h-188v129q135 92 319 92t265 -71.5t81 -214.5v-279q0 -111 88 -110q150 0 150 321q0 190 -57.5 313t-186.5 184.5t-348 61.5q-295 0 -451.5 -151.5t-156.5 -454.5t156.5 -457.5t436.5 -154.5t482 77
v-165q-228 -80 -467 -80q-402 0 -601.5 214t-199.5 580z" />
    <glyph glyph-name="A" unicode="A" horiz-adv-x="1472" 
d="M909 541l-170 499l-174 -499h344zM68 150h63q47 0 72.5 16t40.5 57l391 1102h207l387 -1102q14 -41 40.5 -57t73.5 -16h62v-150h-467v150h102l-90 262h-426l-90 -262h103v-150h-469v150z" />
    <glyph glyph-name="B" unicode="B" horiz-adv-x="1210" 
d="M729 150q94 0 147.5 56t53.5 169t-57.5 164t-176.5 51h-276v-440h309zM684 743q104 0 163.5 57.5t59.5 164.5t-50 159t-163 52h-274v-433h264zM1143 367q0 -160 -94.5 -263.5t-260.5 -103.5h-720v150h59q41 0 58.5 18t17.5 59v873q0 39 -17.5 56.5t-58.5 17.5h-59v151
h688q176 0 270 -92t94 -260q0 -100 -47 -179t-137 -120q207 -71 207 -307z" />
    <glyph glyph-name="C" unicode="C" horiz-adv-x="1226" 
d="M738 121q208 0 337 82l80 -127q-90 -59 -185.5 -83t-226.5 -24q-215 0 -367.5 87t-230 241.5t-77.5 358.5t71.5 362t217 248t362.5 90q284 0 440 -115v-209h-215v131q-92 41 -225 41q-209 0 -324.5 -145.5t-115.5 -400.5t125.5 -396t333.5 -141z" />
    <glyph glyph-name="D" unicode="D" horiz-adv-x="1286" 
d="M629 147q201 0 289 127t88 386t-88.5 388.5t-288.5 129.5h-221v-1031h221zM68 147h47q41 0 58 18.5t17 59.5v877q0 39 -17 56.5t-58 17.5h-47v149h589q285 0 423.5 -173.5t138.5 -483.5t-142.5 -489t-419.5 -179h-589v147z" />
    <glyph glyph-name="E" unicode="E" horiz-adv-x="1116" 
d="M68 150h59q41 0 58.5 18t17.5 59v873q0 39 -17.5 56.5t-58.5 17.5h-59v151h981v-264h-197v41q0 39 -18.5 56.5t-59.5 17.5h-354v-437h354v-151h-354v-438h354q41 0 59.5 17t18.5 58v41h197v-266h-981v150z" />
    <glyph glyph-name="F" unicode="F" horiz-adv-x="1116" 
d="M68 150h59q41 0 58.5 18t17.5 59v873q0 39 -17.5 56.5t-58.5 17.5h-59v151h981v-264h-197v41q0 39 -18.5 56.5t-59.5 17.5h-354v-437h354v-151h-354v-363q0 -41 17.5 -58t56.5 -17h61v-150h-487v150z" />
    <glyph glyph-name="G" unicode="G" horiz-adv-x="1265" 
d="M68 656q0 204 69.5 362t214 248t359.5 90q284 0 444 -115v-209h-217v127q-88 45 -227 45q-205 0 -317.5 -145.5t-112.5 -400.5t118.5 -396t331.5 -141q143 0 252 43v383h-285v151h500v-600q-190 -129 -475 -129q-211 0 -358.5 87t-222 241.5t-74.5 358.5z" />
    <glyph glyph-name="H" unicode="H" horiz-adv-x="1396" 
d="M68 150h59q41 0 58.5 18t17.5 59v873q0 39 -17.5 56.5t-58.5 17.5h-59v151h477v-151h-51q-39 0 -56.5 -17.5t-17.5 -56.5v-361h557v359q0 41 -16.5 58.5t-57.5 17.5h-53v151h479v-151h-59q-41 0 -58.5 -17.5t-17.5 -56.5v-873q0 -41 17.5 -59t58.5 -18h59v-150h-479v150
h53q39 0 56.5 18t17.5 59v363h-557v-363q0 -41 17.5 -59t56.5 -18h51v-150h-477v150z" />
    <glyph glyph-name="I" unicode="I" horiz-adv-x="620" 
d="M68 150h59q41 0 58.5 18t17.5 59v873q0 39 -17.5 56.5t-58.5 17.5h-59v151h485v-151h-59q-39 0 -56.5 -17.5t-17.5 -56.5v-875q0 -41 17.5 -58t56.5 -17h59v-150h-485v150z" />
    <glyph glyph-name="J" unicode="J" horiz-adv-x="1015" 
d="M889 1174q-76 0 -76 -74v-729q0 -190 -104.5 -296t-300.5 -106q-263 0 -402 156v164h197v-99q68 -70 182 -70t163.5 54.5t49.5 165.5v760q0 74 -76 74h-61v151h487v-151h-59z" />
    <glyph glyph-name="K" unicode="K" horiz-adv-x="1327" 
d="M68 152h59q41 0 58.5 17t17.5 56v877q0 39 -17.5 56.5t-58.5 17.5h-47v149h444v-149h-37q-37 0 -52 -18.5t-15 -55.5v-434l473 508h-105v149h451v-158h-76q-39 0 -61.5 -12t-50.5 -43l-332 -350l362 -549q23 -33 47.5 -47t63.5 -14h68v-152h-472v152h115l-313 475
l-170 -183v-219q0 -37 15.5 -55t56.5 -18h45v-152h-469v152z" />
    <glyph glyph-name="L" unicode="L" horiz-adv-x="1042" 
d="M68 147h43q45 0 62 18.5t17 59.5v877q0 39 -17 56.5t-58 17.5h-47v149h462v-149h-49q-39 0 -56 -17.5t-17 -56.5v-955h354q41 0 59.5 17.5t18.5 58.5v66h196v-289h-968v147z" />
    <glyph glyph-name="M" unicode="M" horiz-adv-x="1587" 
d="M416 225q0 -75 76 -75h61v-150h-485v150h59q41 0 58.5 18t17.5 59v871q0 41 -17.5 59.5t-58.5 18.5h-59v149h366l361 -833l358 833h367v-149h-62q-39 0 -56.5 -18.5t-17.5 -59.5v-871q0 -41 17.5 -59t56.5 -18h62v-150h-486v150h62q39 0 56 17t17 58v742l-292 -682h-166
l-295 682v-742z" />
    <glyph glyph-name="N" unicode="N" horiz-adv-x="1415" 
d="M997 1100q0 74 -75 74h-62v151h488v-151h-62q-39 0 -56.5 -17.5t-17.5 -56.5v-1100h-170l-624 967v-742q0 -39 18.5 -56t57.5 -17h59v-152h-485v152h59q41 0 58.5 17t17.5 56v875q0 39 -17.5 56.5t-58.5 17.5h-59v151h305l624 -969v744z" />
    <glyph glyph-name="O" unicode="O" horiz-adv-x="1349" 
d="M1069 660q0 290 -95 417t-299 127t-299 -127t-95 -417t96 -414.5t298 -124.5t298 124.5t96 414.5zM68 659q0 348 146 522.5t460 174.5t461 -174t147 -522t-149.5 -519.5t-457.5 -171.5t-457.5 171t-149.5 519z" />
    <glyph glyph-name="P" unicode="P" horiz-adv-x="1273" 
d="M739 645q129 0 191.5 66.5t62.5 206.5t-59.5 198t-194.5 58h-319v-529h319zM68 150h55q45 0 62.5 18t17.5 57v875q0 39 -17.5 56.5t-62.5 17.5h-55v151h702q205 0 320.5 -105.5t115.5 -302t-117.5 -310t-320.5 -113.5h-348v-269q0 -39 17.5 -57t62.5 -18h53v-150h-485
v150z" />
    <glyph glyph-name="Q" unicode="Q" horiz-adv-x="1349" 
d="M1069 661q0 541 -394 541t-394 -541t395 -540q393 -1 393 540zM935 -145q81 0 126 41v55h168v-121q-92 -127 -307 -127q-148 0 -231 76t-101 194q-260 23 -391 202t-131 495t148.5 500t458.5 184t458.5 -183t148.5 -499t-130 -495t-388 -204q10 -66 50 -92t121 -26z" />
    <glyph glyph-name="R" unicode="R" horiz-adv-x="1273" 
d="M705 682q258 0 258 256q0 125 -61.5 180.5t-196.5 55.5h-285v-492h285zM68 150h55q45 0 62.5 18t17.5 57v875q0 39 -17.5 56.5t-62.5 17.5h-55v151h669q207 0 322 -101.5t115 -271.5t-84 -271t-238 -130l180 -336q35 -65 119 -65h55v-150h-448v150h98l-205 380h-231v-309
q0 -39 15.5 -55t56.5 -16h47v-150h-471v150z" />
    <glyph glyph-name="S" unicode="S" horiz-adv-x="1093" 
d="M545 1204q-254 0 -254 -194q0 -70 43 -117t98.5 -74t191.5 -81t269 -128.5t133 -279.5q0 -104 -54 -185.5t-158 -128.5t-250 -47t-275 41t-221 111v201h219v-134q110 -67 256 -67q272 0 272 201q0 121 -95.5 172t-225.5 102t-272 133.5t-142 265.5t133 272t342 89
q266 0 446 -142v-190h-219v127q-90 53 -237 53z" />
    <glyph glyph-name="T" unicode="T" horiz-adv-x="1165" 
d="M340 152h55q45 0 62.5 17t17.5 56v946h-188q-41 0 -59.5 -17t-18.5 -56v-66h-162v291h1071v-291h-162v66q0 41 -17 57t-60 16h-187v-946q0 -39 17.5 -56t62.5 -17h55v-152h-487v152z" />
    <glyph glyph-name="U" unicode="U" horiz-adv-x="1353" 
d="M1257 1178q-75 0 -75 -74v-731q0 -186 -127 -295t-379 -109t-379 108.5t-127 295.5v731q0 39 -17.5 56.5t-58.5 17.5h-47v147h453v-147h-39q-39 0 -56.5 -18.5t-17.5 -59.5v-740q0 -241 289 -241t289 241v740q0 41 -17.5 59.5t-58.5 18.5h-39v147h457v-147h-50z" />
    <glyph glyph-name="V" unicode="V" horiz-adv-x="1447" 
d="M111 1178h-43v147h315l342 -1040l338 1040h317v-147h-43q-57 0 -81.5 -16.5t-43.5 -67.5l-383 -1094h-206l-387 1094q-18 51 -43 67.5t-82 16.5z" />
    <glyph glyph-name="W" unicode="W" horiz-adv-x="1783" 
d="M111 1174h-43v151h315l201 -950l221 727h172l223 -727l203 950h313v-151h-45q-59 0 -83.5 -17.5t-35.5 -66.5l-243 -1090h-179l-239 754l-236 -754h-180l-246 1090q-10 49 -34.5 66.5t-83.5 17.5z" />
    <glyph glyph-name="X" unicode="X" horiz-adv-x="1382" 
d="M68 152h63q55 0 86 15t59 56l302 443l-295 436q-29 43 -59.5 57.5t-86.5 14.5h-55v151h463v-151h-94l239 -373l242 373h-96v151h462v-151h-55q-55 0 -85 -14.5t-58 -57.5l-297 -436l303 -443q29 -41 58.5 -56t84.5 -15h66v-152h-473v150h96l-248 380l-246 -380h95v-150
h-471v152z" />
    <glyph glyph-name="Y" unicode="Y" horiz-adv-x="1363" 
d="M791 223q0 -76 75 -76h47v-147h-460v147h47q41 0 58 18.5t17 57.5v262l-331 611q-27 47 -53.5 64.5t-75.5 17.5h-47v147h446v-147h-29q-45 0 -45 -27q0 -18 17 -47l227 -440l225 440q14 27 15 47q0 27 -43 27h-31v147h446v-147h-47q-49 0 -75.5 -17.5t-53.5 -64.5
l-329 -611v-262z" />
    <glyph glyph-name="Z" unicode="Z" horiz-adv-x="1150" 
d="M367 1178q-43 0 -60.5 -17.5t-17.5 -56.5v-41h-197v262h961v-127l-731 -1051h487q41 0 59.5 17.5t18.5 58.5v39h196v-262h-1015v127l741 1051h-442z" />
    <glyph glyph-name="bracketleft" unicode="[" horiz-adv-x="608" 
d="M109 1536h411v-152h-194v-1404h194v-150h-411v1706z" />
    <glyph glyph-name="backslash" unicode="\" horiz-adv-x="905" 
d="M88 1384h217l512 -1384h-217z" />
    <glyph glyph-name="bracketright" unicode="]" horiz-adv-x="608" 
d="M88 -20h195v1404h-195v152h412v-1706h-412v150z" />
    <glyph glyph-name="asciicircum" unicode="^" horiz-adv-x="1220" 
d="M520 1473h180l433 -728h-226l-297 521l-297 -521h-225z" />
    <glyph glyph-name="underscore" unicode="_" horiz-adv-x="956" 
d="M88 0h780v-152h-780v152z" />
    <glyph glyph-name="grave" unicode="`" horiz-adv-x="608" 
d="M88 1460h256l176 -385h-186z" />
    <glyph glyph-name="a" unicode="a" horiz-adv-x="1071" 
d="M248 254q0 -137 182 -137q123 0 194.5 53t71.5 162v98l-270 -20q-100 -6 -139 -42t-39 -114zM503 866q-111 0 -179 -47v-74h-191v162q172 106 387 107q393 0 393 -348v-449q0 -41 15.5 -59.5t50.5 -18.5h45v-139h-236l-26 129q-66 -84 -153 -122t-239 -38t-237.5 72
t-85.5 211t93 207.5t270 81.5l286 18v125q0 96 -41 139t-152 43z" />
    <glyph glyph-name="b" unicode="b" horiz-adv-x="1204" 
d="M924 497q0 196 -63 277.5t-195 81.5t-208.5 -80t-76.5 -225v-119q0 -133 79 -218t210 -85t192.5 86t61.5 282zM1137 492q0 -246 -120 -384.5t-325 -138.5q-242 0 -344 170l-16 -139h-168v1116q0 47 -15.5 68.5t-62.5 21.5h-39v150h328v-492q105 150 326 150
q436 0 436 -522z" />
    <glyph glyph-name="c" unicode="c" horiz-adv-x="1056" 
d="M640 129q165 0 273 72l76 -125q-86 -59 -174.5 -83t-228.5 -24t-259.5 59.5t-189 176.5t-69.5 278q0 258 138 394.5t382 136.5q133 0 223 -29t174 -92v-197h-190v113q-47 27 -90 37t-117 10q-137 0 -222 -91t-85 -277t97 -272.5t262 -86.5z" />
    <glyph glyph-name="d" unicode="d" horiz-adv-x="1196" 
d="M825 442v105q0 150 -70.5 229.5t-207.5 79.5t-201.5 -90t-64.5 -284t60.5 -273.5t198.5 -79.5t211.5 85t73.5 228zM68 481q0 250 112.5 391.5t325.5 141.5q125 0 199.5 -31t123.5 -102v235q0 49 -16 69.5t-63 20.5h-35v150h325v-1137q0 -45 14.5 -62.5t53.5 -17.5h41
v-139h-275l-18 143q-61 -92 -145 -133t-213 -41q-203 0 -316.5 131t-113.5 381z" />
    <glyph glyph-name="e" unicode="e" horiz-adv-x="1103" 
d="M825 567q0 299 -260 299q-137 0 -208.5 -79.5t-71.5 -219.5h540zM68 487q0 258 130 392.5t365 134.5t354 -131t119 -355v-94h-751q0 -166 80.5 -244.5t223.5 -78.5t222 49v73h190v-143q-171 -121 -412 -121t-381 130t-140 388z" />
    <glyph glyph-name="f" unicode="f" horiz-adv-x="856" 
d="M586 1239q-162 0 -162 -182v-74h295v-149h-295v-607q0 -41 16.5 -58t57.5 -17h49v-152h-469v152h51q41 0 59.5 17t18.5 58v607h-160v149h160v53q0 164 93.5 257t287.5 93t319 -108v-158h-180v78q-51 41 -141 41z" />
    <glyph glyph-name="g" unicode="g" horiz-adv-x="1196" 
d="M823 446v95q0 145 -69.5 230t-206.5 85t-201.5 -83t-64.5 -273t63.5 -273.5t202.5 -83.5q276 0 276 303zM68 499q0 249 119.5 382t324.5 133q119 0 201 -42t143 -134l18 147h275v-141h-43q-37 0 -51.5 -19.5t-14.5 -64.5v-762q0 -184 -111.5 -296t-297.5 -112
q-243 1 -393 144v141h188v-74q69 -51 190 -51q213 0 213 215v164q-105 -145 -319 -145q-215 0 -328.5 133t-113.5 382z" />
    <glyph glyph-name="h" unicode="h" horiz-adv-x="1236" 
d="M68 152h51q41 0 58.5 17t17.5 58v901q0 39 -17.5 57.5t-58.5 18.5h-41v152h315v-475q74 74 151 103.5t193 29.5q160 0 241 -88t81 -252v-447q0 -41 17.5 -58t56.5 -17h57v-152h-354v672q0 102 -45.5 149t-143.5 47t-165.5 -60t-67.5 -167v-414q0 -41 15 -58t52 -17h56
v-152h-469v152z" />
    <glyph glyph-name="i" unicode="i" horiz-adv-x="583" 
d="M401 227q0 -75 76 -75h60v-152h-490v152h59q41 0 58.5 18t17.5 59v527q0 39 -17.5 56t-58.5 17h-59v154h354v-756zM176 1327h232v-188h-232v188z" />
    <glyph glyph-name="j" unicode="j" horiz-adv-x="763" 
d="M655 0q0 -354 -381 -354q-195 0 -329 118v170h184v-90q58 -51 144 -51t124.5 42t38.5 140v781q0 39 -17.5 56t-58.5 17h-59v154h354v-983zM430 1327h232v-188h-232v188z" />
    <glyph glyph-name="k" unicode="k" horiz-adv-x="1185" 
d="M68 145h55q41 0 56.5 15.5t15.5 54.5v930q0 39 -14.5 54t-53.5 15h-47v142h440v-142h-57q-37 0 -51.5 -15t-14.5 -54v-602l332 297h-100v143h467v-143h-95q-33 0 -49 -8.5t-45 -32.5l-202 -178l247 -420q20 -33 40 -44.5t61 -11.5h86v-145h-275l-303 502l-164 -146v-141
q0 -39 15.5 -54.5t56.5 -15.5h63v-145h-464v145z" />
    <glyph glyph-name="l" unicode="l" horiz-adv-x="604" 
d="M422 227q0 -75 76 -75h59v-152h-489v152h59q41 0 58.5 18t17.5 59v899q0 39 -17.5 56.5t-58.5 17.5h-59v154h354v-1129z" />
    <glyph glyph-name="m" unicode="m" horiz-adv-x="1753" 
d="M1573 227q0 -75 76 -75h57v-152h-348v678q0 102 -39 145t-132 43t-147.5 -53t-54.5 -156v-430q0 -41 15.5 -58t54.5 -17h55v-152h-328v672q0 100 -38.5 147t-131.5 47t-148.5 -57t-55.5 -168v-414q0 -41 15 -58t54 -17h55v-152h-464v152h51q41 0 58.5 17t17.5 58v529
q0 39 -17.5 56t-58.5 17h-41v154h256l14 -139q109 170 340 170q185 0 254 -158q51 82 126 120t187 38q168 0 243 -84t75 -252v-451z" />
    <glyph glyph-name="n" unicode="n" horiz-adv-x="1234" 
d="M68 152h51q41 0 58.5 17t17.5 58v527q0 41 -16.5 58t-57.5 17h-43v154h262l12 -137q70 88 159 128t216 40q328 0 328 -340v-447q0 -41 17.5 -58t57.5 -17h58v-152h-352v672q0 102 -43 148t-143 46t-168 -59t-68 -166v-414q0 -41 15 -58t54 -17h54v-152h-469v152z" />
    <glyph glyph-name="o" unicode="o" horiz-adv-x="1142" 
d="M862 490q0 187 -71.5 278.5t-219 91.5t-218 -91t-70.5 -279t70.5 -277.5t218 -89.5t219 90t71.5 277zM68 490q0 246 125.5 385t377.5 139t378 -138.5t126 -385.5t-127 -384t-376.5 -137t-376.5 137.5t-127 383.5z" />
    <glyph glyph-name="p" unicode="p" horiz-adv-x="1204" 
d="M924 496q0 194 -62 277t-198 83t-209.5 -85t-73.5 -226v-115q0 -145 73.5 -223t207.5 -78t198 86.5t64 280.5zM164 758q0 80 -74 80h-43v145h283l20 -147q123 178 339 178t332 -133t116 -383t-113 -389.5t-322 -139.5q-111 0 -185.5 33t-141.5 113v-301q0 -49 17.5 -71
t64.5 -22h35v-147h-445v147h35q47 0 64.5 21.5t17.5 71.5v944z" />
    <glyph glyph-name="q" unicode="q" horiz-adv-x="1204" 
d="M823 430v115q0 141 -73.5 226t-207.5 85t-197.5 -94t-63.5 -256t27.5 -236.5t87.5 -107.5t170 -33t183.5 78t73.5 223zM1114 838q-74 0 -74 -80v-944q0 -49 17.5 -71t64.5 -22h35v-147h-328v541q-68 -80 -142.5 -113t-184.5 -33q-211 0 -322.5 129t-111.5 379
q0 164 54 285t154.5 186.5t227.5 65.5t207 -43t143 -135l20 147h283v-145h-43z" />
    <glyph glyph-name="r" unicode="r" horiz-adv-x="790" 
d="M743 983v-152h-114q-117 0 -166 -52t-49 -161v-391q0 -41 16 -58t55 -17h52v-152h-469v152h51q41 0 58.5 17t17.5 58v529q0 39 -16.5 57t-55.5 18h-43v152h282l29 -113q74 113 258 113h94z" />
    <glyph glyph-name="s" unicode="s" horiz-adv-x="946" 
d="M458 117q198 -1 199 111q0 54 -23.5 82t-64.5 47.5t-161.5 68.5t-225 107.5t-104.5 200.5t104.5 211t284.5 69q234 0 389 -115v-154h-197v76q-74 45 -171 45t-143 -29t-46 -93t49 -98t115 -56q171 -58 293.5 -125.5t122.5 -224.5q0 -131 -99.5 -201t-323.5 -70t-388 119
v160h200v-82q84 -49 190 -49z" />
    <glyph glyph-name="t" unicode="t" horiz-adv-x="890" 
d="M207 299v537h-160v147h160v221l217 70v-291h295v-147h-295v-551q0 -90 34 -129t114 -39t126 39v88h187v-156q-142 -119 -324 -119q-354 0 -354 330z" />
    <glyph glyph-name="u" unicode="u" horiz-adv-x="1204" 
d="M180 756q0 75 -74 75h-59v152h352v-672q0 -199 193 -198q104 0 167.5 61.5t63.5 175.5v406q0 39 -15 57t-52 18h-58v152h342v-756q0 -39 18.5 -56t57.5 -17h41v-154h-260l-12 133q-66 -86 -153 -125t-212 -39q-168 0 -254 88t-86 252v447z" />
    <glyph glyph-name="v" unicode="v" horiz-adv-x="1171" 
d="M90 842h-43v141h285l254 -768l254 768h284v-141h-45q-49 0 -68.5 -11.5t-31.5 -44.5l-281 -786h-225l-283 786q-10 33 -29.5 44.5t-70.5 11.5z" />
    <glyph glyph-name="w" unicode="w" horiz-adv-x="1570" 
d="M98 842h-51v141h285l172 -737l201 649h159l201 -649l176 737h283v-141h-51q-43 0 -62.5 -12.5t-28.5 -45.5l-188 -784h-213l-195 625l-196 -625h-213l-189 784q-8 33 -27.5 45.5t-62.5 12.5z" />
    <glyph glyph-name="x" unicode="x" horiz-adv-x="1163" 
d="M47 127h59q47 0 73 13.5t54 49.5l232 306l-225 297q-27 37 -52.5 50t-72.5 13h-54v127h424v-127h-86l183 -248l182 248h-86v127h424v-127h-53q-47 0 -73 -13.5t-52 -49.5l-228 -297l234 -306q29 -37 54.5 -50t72.5 -13h59v-127h-430v125h86l-190 256l-191 -256h86v-125
h-430v127z" />
    <glyph glyph-name="y" unicode="y" horiz-adv-x="1159" 
d="M182 756q0 75 -76 75h-59v152h352v-631q0 -201 199 -200q106 0 169.5 60t63.5 175v369q0 41 -15 58t-54 17h-53v152h342v-965q0 -195 -112 -311.5t-302 -116.5q-250 1 -397 142v147h190v-74q68 -74 199 -73q215 0 215 241v146q-109 -109 -287 -109t-276.5 91.5
t-98.5 256.5v398z" />
    <glyph glyph-name="z" unicode="z" horiz-adv-x="1015" 
d="M315 834q-41 0 -59 -17.5t-18 -56.5v-41h-148v264h838v-119l-598 -714h393q43 0 60.5 17t17.5 56v41h147v-264h-880v117l600 717h-353z" />
    <glyph glyph-name="braceleft" unicode="{" horiz-adv-x="700" 
d="M209 197v270q0 82 -41 112.5t-121 30.5v152q80 0 121 30.5t41 110.5v262q0 193 67.5 282t249.5 89h86v-152h-53q-74 0 -104.5 -35.5t-30.5 -113.5v-342q0 -68 -34 -124t-91 -85q59 -29 92 -83t33 -124v-350q0 -78 30.5 -114t104.5 -36h53v-151h-86q-182 0 -249.5 89
t-67.5 282z" />
    <glyph glyph-name="bar" unicode="|" horiz-adv-x="393" 
d="M88 1571h217v-1817h-217v1817z" />
    <glyph glyph-name="braceright" unicode="}" horiz-adv-x="700" 
d="M88 -23h53q74 0 104.5 36t30.5 114v350q0 70 33 124t92 83q-57 29 -91 85t-34 124v342q0 78 -30.5 113.5t-104.5 35.5h-53v152h86q182 0 250 -89t68 -282v-262q0 -80 40.5 -110.5t120.5 -30.5v-152q-80 0 -120.5 -30.5t-40.5 -112.5v-270q0 -193 -68 -282t-250 -89h-86
v151z" />
    <glyph glyph-name="asciitilde" unicode="~" horiz-adv-x="1153" 
d="M88 481q0 305 266 305q63 0 113.5 -18t112.5 -52t101 -49.5t99 -15.5q112 0 113 135h172q0 -305 -262 -305q-70 0 -124.5 20.5t-118.5 54.5t-98 47t-90 13q-112 0 -112 -135h-172z" />
    <glyph glyph-name="uni00A0" unicode="&#xa0;" horiz-adv-x="716" 
 />
    <glyph glyph-name="exclamdown" unicode="&#xa1;" horiz-adv-x="415" 
d="M104 645h207l15 -956h-234zM88 1014h240v-187h-240v187z" />
    <glyph glyph-name="cent" unicode="&#xa2;" horiz-adv-x="1064" 
d="M682 -184h-201v166q-186 29 -299.5 158.5t-113.5 348.5t109.5 352.5t303.5 162.5v163h201v-159q184 -15 315 -115v-197h-190v113q-85 47 -217 47q-133 0 -221 -91t-88 -277t97 -272.5t262 -86.5t273 72l76 -125q-136 -90 -307 -103v-157z" />
    <glyph glyph-name="sterling" unicode="&#xa3;" horiz-adv-x="1030" 
d="M467 313q0 -112 -53 -161h569v-152h-891v152h51q106 0 107 151v412h-162v149h162v152q0 160 101 250t295 90t325 -111v-160h-183v78q-51 45 -137 45t-135 -46t-49 -132v-166h334v-149h-334v-402z" />
    <glyph glyph-name="currency" unicode="&#xa4;" horiz-adv-x="1271" 
d="M909 676q0 117 -77.5 197.5t-194.5 80.5t-194.5 -80.5t-77.5 -197.5q0 -76 35.5 -139.5t98 -101.5t138.5 -38t138.5 38t98 101.5t35.5 139.5zM1090 668q0 -148 -97 -267l172 -155l-125 -129l-182 166q-96 -59 -220 -59t-224 61l-183 -168l-122 129l170 155
q-95 121 -95 267t76 258l-172 157l125 129l172 -161q117 79 250 79t252 -77l172 159l125 -129l-172 -157q78 -110 78 -258z" />
    <glyph glyph-name="yen" unicode="&#xa5;" horiz-adv-x="1363" 
d="M791 223q0 -76 75 -76h47v-147h-460v147h47q41 0 58 18.5t17 57.5v47h-299v150h299v63h-299v150h220l-252 463q-27 47 -53.5 64.5t-75.5 17.5h-47v147h446v-147h-29q-43 0 -43 -27q0 -20 15 -47l227 -451l225 451q14 27 15 47q0 27 -43 27h-31v147h446v-147h-47
q-49 0 -75.5 -17.5t-53.5 -64.5l-250 -463h220v-150h-299v-63h299v-150h-299v-47z" />
    <glyph glyph-name="brokenbar" unicode="&#xa6;" horiz-adv-x="391" 
d="M88 467h215v-713h-215v713zM88 1571h215v-715h-215v715z" />
    <glyph glyph-name="section" unicode="&#xa7;" horiz-adv-x="1052" 
d="M811 447q0 54 -39 96.5t-98.5 71t-181.5 77.5t-201 96q-33 -28 -33 -82t40 -98.5t101.5 -76t171.5 -78.5q131 -51 220 -101q20 41 20 95zM270 1112q0 -122 95 -168.5t235 -101.5t223.5 -102.5t133 -120t49.5 -186.5t-62 -193q62 -76 62 -190t-54.5 -194.5t-159 -127.5
t-250.5 -47t-274.5 40.5t-220.5 110.5v199h217v-131q112 -68 256 -68q277 0 277 203q0 118 -76 161.5t-168 79.5l-57 23q-156 66 -296.5 147t-140.5 269q0 117 66 194q-66 78 -66 197q0 174 133.5 263t342.5 89q262 0 446 -141v-189h-217v125q-90 53 -240 54
q-254 0 -254 -195z" />
    <glyph glyph-name="dieresis" unicode="&#xa8;" horiz-adv-x="815" 
d="M541 1343h186v-196h-186v196zM88 1343h184v-196h-184v196z" />
    <glyph glyph-name="copyright" unicode="&#xa9;" horiz-adv-x="1644" 
d="M819 197q-133 0 -242.5 59t-173 172t-63.5 262q0 238 129 372t348 134q125 0 207 -26.5t160 -86.5v-176h-166v103q-81 47 -204 47q-124 0 -207 -91.5t-83 -270.5t90.5 -269t234.5 -90t261 84l68 -109q-144 -114 -359 -114zM1403 702.5q0 165.5 -74 302t-207 215
t-301 78.5t-300 -78.5t-205.5 -214t-73.5 -303t73.5 -303t205.5 -213t300 -77.5t301 77.5t207 214t74 302zM88 704q0 200 98.5 367.5t267 266t368.5 98.5t369 -98.5t267 -266.5t98 -368t-98 -367.5t-267 -266t-369.5 -98.5t-368.5 98.5t-266.5 266.5t-98.5 368z" />
    <glyph glyph-name="ordfeminine" unicode="&#xaa;" horiz-adv-x="808" 
d="M494 926v51l-152 -12q-53 -4 -75.5 -25.5t-22.5 -65.5q0 -76 100 -75q150 0 150 127zM385 1241q-64 0 -113 -29v-49h-131v123q111 70 246 70t199.5 -60.5t64.5 -162.5v-273q0 -29 9.5 -40t31.5 -11h29v-102h-158l-22 77q-43 -51 -99.5 -74.5t-151.5 -23.5t-148.5 46
t-53.5 132q0 180 234 197l172 12v72q0 55 -22.5 75.5t-86.5 20.5z" />
    <glyph glyph-name="guillemotleft" unicode="&#xab;" horiz-adv-x="1226" 
d="M553 610v109l586 495v-219l-381 -331l381 -330v-219zM88 610v109l586 495v-219l-379 -331l379 -330v-219z" />
    <glyph glyph-name="logicalnot" unicode="&#xac;" horiz-adv-x="1034" 
d="M764 551h-676v151h858v-423h-182v272z" />
    <glyph glyph-name="uni00AD" unicode="&#xad;" horiz-adv-x="768" 
d="M88 694h592v-149h-592v149z" />
    <glyph glyph-name="registered" unicode="&#xae;" horiz-adv-x="1644" 
d="M868 750q152 0 152 141q0 70 -37 98.5t-115 28.5h-172v-268h172zM449 393h28q31 0 42 13.5t11 44.5v512q0 31 -11 43t-42 12h-28v121h434q141 0 220 -65.5t79 -171.5t-55.5 -173t-157.5 -82l94 -180q39 -74 100 -74h49v-112h-389v112h109l-119 242h-133v-184
q0 -33 10 -45.5t41 -12.5h31v-112h-313v112zM1403 702.5q0 165.5 -74 302t-207 215t-301 78.5t-300 -78.5t-205.5 -214t-73.5 -303t73.5 -303t205.5 -213t300 -77.5t301 77.5t207 214t74 302zM88 704q0 200 98.5 367.5t267 266t368.5 98.5t369 -98.5t267 -266.5t98 -368
t-98 -367.5t-267 -266t-369.5 -98.5t-368.5 98.5t-266.5 266.5t-98.5 368z" />
    <glyph glyph-name="macron" unicode="&#xaf;" horiz-adv-x="876" 
d="M88 1300h700v-141h-700v141z" />
    <glyph glyph-name="degree" unicode="&#xb0;" horiz-adv-x="708" 
d="M481 1104q0 55 -35.5 92t-91.5 37t-92.5 -37t-36.5 -92t36.5 -92t92.5 -37t91.5 37t35.5 92zM88 1103q0 73 36 134t96.5 97t132 36t134 -36t98.5 -97t36 -134t-36 -133.5t-98.5 -96t-134 -35.5t-132 35.5t-96.5 96t-36 133.5z" />
    <glyph glyph-name="plusminus" unicode="&#xb1;" horiz-adv-x="843" 
d="M88 209h668v-150h-668v150zM330 569h-242v150h242v217h180v-217h246v-150h-246v-217h-180v217z" />
    <glyph glyph-name="uni00B2" unicode="&#xb2;" horiz-adv-x="677" 
d="M434 1169q0 82 -106 82q-61 0 -103 -22v-58h-137v115q43 31 113.5 50.5t134.5 19.5q117 0 183.5 -48t66.5 -128t-38 -122t-132 -100t-124 -82t-30 -57h328v-112h-502v65q0 80 49 132t145 108t124 83t28 74z" />
    <glyph glyph-name="uni00B3" unicode="&#xb3;" horiz-adv-x="700" 
d="M338 686q-164 0 -250 86v109h135v-60q41 -31 109 -31t100.5 23t32.5 75t-26.5 71.5t-90.5 19.5h-76v102h78q57 0 81 21.5t24 73.5q0 76 -109 75q-61 0 -110 -26v-58h-136v115q39 31 104.5 52.5t133.5 21.5q129 0 195.5 -46t66.5 -130q0 -111 -84 -150q96 -35 96 -139
q0 -205 -274 -205z" />
    <glyph glyph-name="acute" unicode="&#xb4;" horiz-adv-x="608" 
d="M264 1460h256l-246 -385h-186z" />
    <glyph glyph-name="paragraph" unicode="&#xb6;" horiz-adv-x="1347" 
d="M340 -168h55q45 0 62.5 18.5t17.5 57.5v719q-184 0 -285.5 92t-101.5 242q0 365 434 364h725v-145h-43q-45 0 -62.5 -18.5t-17.5 -59.5v-1194q0 -39 17.5 -57.5t62.5 -18.5h56v-151h-351v1499h-219v-1499h-350v151z" />
    <glyph glyph-name="periodcentered" unicode="&#xb7;" horiz-adv-x="366" 
d="M88 719h191v-180h-191v180z" />
    <glyph glyph-name="cedilla" unicode="&#xb8;" horiz-adv-x="608" 
d="M221 -340q117 0 117 74q0 53 -38 75.5t-148 22.5l24 168h195l-15 -94q88 -14 126 -59t38 -129t-70 -134.5t-180 -50.5t-182 27v127q63 -27 133 -27z" />
    <glyph glyph-name="uni00B9" unicode="&#xb9;" horiz-adv-x="573" 
d="M117 817h67q37 0 47.5 11.5t10.5 41.5v334l-113 -74l-61 97l186 119h129v-476q0 -33 10 -43t45 -10h68v-110h-389v110z" />
    <glyph glyph-name="ordmasculine" unicode="&#xba;" horiz-adv-x="823" 
d="M412 805q166 0 166 215q0 113 -41 165t-126 52t-125 -52t-40 -164t40 -164t126 -52zM88 1020q0 158 83 247t240.5 89t240.5 -89t83 -247t-84.5 -246t-240.5 -88t-239 88t-83 246z" />
    <glyph glyph-name="guillemotright" unicode="&#xbb;" horiz-adv-x="1226" 
d="M553 334l379 330l-379 331v219l586 -495v-109l-586 -495v219zM88 334l379 330l-379 331v219l586 -495v-109l-586 -495v219z" />
    <glyph glyph-name="onequarter" unicode="&#xbc;" horiz-adv-x="1294" 
d="M973 276v220l-170 -220h170zM872 96h48q23 0 30.5 8.5t7.5 28.5v41h-299v96l287 369h152v-363h108v-102h-108v-41q0 -20 8 -28.5t33 -8.5h47v-96h-314v96zM989 1325h201l-813 -1325h-203zM137 817h68q37 0 47 11.5t10 41.5v334l-112 -74l-62 97l186 119h129v-476
q0 -33 10.5 -43t45.5 -10h67v-110h-389v110z" />
    <glyph glyph-name="onehalf" unicode="&#xbd;" horiz-adv-x="1386" 
d="M797 66q0 80 49 132t143 107t123 83t29 73t-25.5 64.5t-83.5 19.5t-98 -23v-57h-137v115q43 31 113.5 50t133.5 19q117 0 183.5 -48t66.5 -127t-38 -122t-132 -100t-123.5 -82t-29.5 -57h327v-113h-501v66zM989 1325h201l-813 -1325h-203zM137 817h68q37 0 47 11.5
t10 41.5v334l-112 -74l-62 97l186 119h129v-476q0 -33 10.5 -43t45.5 -10h67v-110h-389v110z" />
    <glyph glyph-name="threequarters" unicode="&#xbe;" horiz-adv-x="1314" 
d="M991 276v220l-170 -220h170zM940 96q39 0 39 37v41h-301v96l289 369h151v-363h109v-102h-109v-41q0 -20 8.5 -28.5t30.5 -8.5h47v-96h-313v96h49zM1008 1325h202l-815 -1325h-200zM338 686q-164 0 -250 86v109h135v-60q41 -31 109 -31t100.5 23t32.5 75t-26.5 71.5
t-90.5 19.5h-76v102h78q57 0 81 21.5t24 73.5q0 76 -109 75q-61 0 -110 -26v-58h-136v115q39 31 104.5 52.5t133.5 21.5q129 0 195.5 -46t66.5 -130q0 -111 -84 -150q96 -35 96 -139q0 -205 -274 -205z" />
    <glyph glyph-name="questiondown" unicode="&#xbf;" horiz-adv-x="1095" 
d="M811 -10h197v-197q-82 -61 -201 -98t-250 -37q-219 0 -344 86t-125 258q0 92 28.5 153.5t90 110t161.5 102.5t128 112.5t28 160.5v53h215v-61q0 -133 -56 -224.5t-189 -160.5q-106 -51 -150.5 -102.5t-44.5 -143.5q0 -193 262 -192q139 0 250 61v119zM508 1014h248v-195
h-248v195z" />
    <glyph glyph-name="Agrave" unicode="&#xc0;" horiz-adv-x="1472" 
d="M909 541l-170 499l-174 -499h344zM68 150h63q47 0 72.5 16t40.5 57l391 1102h207l387 -1102q14 -41 40.5 -57t73.5 -16h62v-150h-467v150h102l-90 262h-426l-90 -262h103v-150h-469v150zM401 1802h258l164 -366h-188z" />
    <glyph glyph-name="Aacute" unicode="&#xc1;" horiz-adv-x="1472" 
d="M909 541l-170 499l-174 -499h344zM68 150h63q47 0 72.5 16t40.5 57l391 1102h207l387 -1102q14 -41 40.5 -57t73.5 -16h62v-150h-467v150h102l-90 262h-426l-90 -262h103v-150h-469v150zM784 1802h256l-233 -366h-186z" />
    <glyph glyph-name="Acircumflex" unicode="&#xc2;" horiz-adv-x="1472" 
d="M909 541l-170 499l-174 -499h344zM68 150h63q47 0 72.5 16t40.5 57l391 1102h207l387 -1102q14 -41 40.5 -57t73.5 -16h62v-150h-467v150h102l-90 262h-426l-90 -262h103v-150h-469v150zM635 1821h211l256 -385h-205l-158 258l-157 -258h-203z" />
    <glyph glyph-name="Atilde" unicode="&#xc3;" horiz-adv-x="1472" 
d="M909 541l-170 499l-174 -499h344zM68 150h63q47 0 72.5 16t40.5 57l391 1102h207l387 -1102q14 -41 40.5 -57t73.5 -16h62v-150h-467v150h102l-90 262h-426l-90 -262h103v-150h-469v150zM340 1436q0 280 210 280q101 0 197 -55t142 -55q47 0 68.5 24.5t21.5 85.5h160
q0 -147 -53.5 -213.5t-151.5 -66.5t-195 54q-98 54 -146 54t-70.5 -24.5t-22.5 -83.5h-160z" />
    <glyph glyph-name="Adieresis" unicode="&#xc4;" horiz-adv-x="1472" 
d="M909 541l-170 499l-174 -499h344zM68 150h63q47 0 72.5 16t40.5 57l391 1102h207l387 -1102q14 -41 40.5 -57t73.5 -16h62v-150h-467v150h102l-90 262h-426l-90 -262h103v-150h-469v150zM862 1671h191v-196h-191v196zM426 1671h188v-196h-188v196z" />
    <glyph glyph-name="Aring" unicode="&#xc5;" horiz-adv-x="1472" 
d="M909 541l-170 499l-174 -499h344zM631 1463q0 -46 31.5 -77.5t77.5 -31.5t77 31.5t31 77.5t-32 78t-77 32t-76.5 -32t-31.5 -78zM1405 150v-150h-467v150h102l-90 262h-426l-90 -262h103v-150h-469v150h63q47 0 72.5 16t40.5 57l370 1045q-49 31 -77.5 83t-28.5 111
q0 96 67.5 165t164 69t165 -68.5t68.5 -165.5q0 -61 -30 -113.5t-81 -82.5l367 -1043q14 -41 40.5 -57t73.5 -16h62z" />
    <glyph glyph-name="AE" unicode="&#xc6;" horiz-adv-x="1716" 
d="M823 561v613h-14l-231 -613h245zM68 150h63q47 0 72.5 16t40.5 57l418 1102h987v-264h-197v39q0 41 -18.5 58.5t-59.5 17.5h-342v-437h342v-151h-342v-438h342q41 0 59.5 17t18.5 58v41h197v-266h-961v150h60q41 0 58 18t17 59v185h-293l-96 -262h103v-150h-469v150z" />
    <glyph glyph-name="Ccedilla" unicode="&#xc7;" horiz-adv-x="1226" 
d="M719 1356q284 0 440 -115v-209h-215v131q-92 41 -225 41q-209 0 -324.5 -145.5t-115.5 -400.5t125.5 -396t333.5 -141t337 82l80 -127q-147 -97 -346 -105l-12 -65q88 -14 127 -59t39 -129t-70.5 -134.5t-182.5 -50.5t-180 27v127q59 -27 134 -27q117 0 116 74
q0 53 -37.5 75.5t-150.5 22.5l22 145q-262 37 -404 220.5t-142 457.5q0 205 71.5 363t217 248t362.5 90z" />
    <glyph glyph-name="Egrave" unicode="&#xc8;" horiz-adv-x="1116" 
d="M68 150h59q41 0 58.5 18t17.5 59v873q0 39 -17.5 56.5t-58.5 17.5h-59v151h981v-264h-197v41q0 39 -18.5 56.5t-59.5 17.5h-354v-437h354v-151h-354v-438h354q41 0 59.5 17t18.5 58v41h197v-266h-981v150zM246 1802h258l164 -366h-189z" />
    <glyph glyph-name="Eacute" unicode="&#xc9;" horiz-adv-x="1116" 
d="M68 150h59q41 0 58.5 18t17.5 59v873q0 39 -17.5 56.5t-58.5 17.5h-59v151h981v-264h-197v41q0 39 -18.5 56.5t-59.5 17.5h-354v-437h354v-151h-354v-438h354q41 0 59.5 17t18.5 58v41h197v-266h-981v150zM584 1802h256l-234 -366h-186z" />
    <glyph glyph-name="Ecircumflex" unicode="&#xca;" horiz-adv-x="1116" 
d="M68 150h59q41 0 58.5 18t17.5 59v873q0 39 -17.5 56.5t-58.5 17.5h-59v151h981v-264h-197v41q0 39 -18.5 56.5t-59.5 17.5h-354v-437h354v-151h-354v-438h354q41 0 59.5 17t18.5 58v41h197v-266h-981v150zM424 1821h211l256 -385h-205l-158 258l-157 -258h-203z" />
    <glyph glyph-name="Edieresis" unicode="&#xcb;" horiz-adv-x="1116" 
d="M68 150h59q41 0 58.5 18t17.5 59v873q0 39 -17.5 56.5t-58.5 17.5h-59v151h981v-264h-197v41q0 39 -18.5 56.5t-59.5 17.5h-354v-437h354v-151h-354v-438h354q41 0 59.5 17t18.5 58v41h197v-266h-981v150zM655 1671h191v-196h-191v196zM219 1671h189v-196h-189v196z" />
    <glyph glyph-name="Igrave" unicode="&#xcc;" horiz-adv-x="620" 
d="M68 150h59q41 0 58.5 18t17.5 59v873q0 39 -17.5 56.5t-58.5 17.5h-59v151h485v-151h-59q-39 0 -56.5 -17.5t-17.5 -56.5v-875q0 -41 17.5 -58t56.5 -17h59v-150h-485v150zM-2 1802h258l164 -366h-189z" />
    <glyph glyph-name="Iacute" unicode="&#xcd;" horiz-adv-x="620" 
d="M68 150h59q41 0 58.5 18t17.5 59v873q0 39 -17.5 56.5t-58.5 17.5h-59v151h485v-151h-59q-39 0 -56.5 -17.5t-17.5 -56.5v-875q0 -41 17.5 -58t56.5 -17h59v-150h-485v150zM379 1802h256l-234 -366h-186z" />
    <glyph glyph-name="Icircumflex" unicode="&#xce;" horiz-adv-x="620" 
d="M68 150h59q41 0 58.5 18t17.5 59v873q0 39 -17.5 56.5t-58.5 17.5h-59v151h485v-151h-59q-39 0 -56.5 -17.5t-17.5 -56.5v-875q0 -41 17.5 -58t56.5 -17h59v-150h-485v150zM205 1821h211l256 -385h-205l-158 258l-157 -258h-203z" />
    <glyph glyph-name="Idieresis" unicode="&#xcf;" horiz-adv-x="620" 
d="M68 150h59q41 0 58.5 18t17.5 59v873q0 39 -17.5 56.5t-58.5 17.5h-59v151h485v-151h-59q-39 0 -56.5 -17.5t-17.5 -56.5v-875q0 -41 17.5 -58t56.5 -17h59v-150h-485v150zM432 1692h191v-197h-191v197zM-4 1692h188v-197h-188v197z" />
    <glyph glyph-name="Eth" unicode="&#xd0;" horiz-adv-x="1286" 
d="M629 147q201 0 289 127t88 386t-88.5 388.5t-288.5 129.5h-221v-441h280v-151h-280v-439h221zM68 147h47q41 0 58 18.5t17 59.5v361h-122v151h122v365q0 39 -17 56.5t-58 17.5h-47v149h589q285 0 423.5 -173.5t138.5 -483.5t-142.5 -489t-419.5 -179h-589v147z" />
    <glyph glyph-name="Ntilde" unicode="&#xd1;" horiz-adv-x="1415" 
d="M997 1100q0 74 -75 74h-62v151h488v-151h-62q-39 0 -56.5 -17.5t-17.5 -56.5v-1100h-170l-624 967v-742q0 -39 18.5 -56t57.5 -17h59v-152h-485v152h59q41 0 58.5 17t17.5 56v875q0 39 -17.5 56.5t-58.5 17.5h-59v151h305l624 -969v744zM313 1436q0 280 210 280
q101 0 197 -55t142 -55q47 0 68.5 24.5t21.5 85.5h160q0 -147 -53 -213.5t-150 -66.5t-196 54t-147 54t-70.5 -24.5t-22.5 -83.5h-160z" />
    <glyph glyph-name="Ograve" unicode="&#xd2;" horiz-adv-x="1349" 
d="M1069 660q0 290 -95 417t-299 127t-299 -127t-95 -417t96 -414.5t298 -124.5t298 124.5t96 414.5zM68 659q0 348 146 522.5t460 174.5t461 -174t147 -522t-149.5 -519.5t-457.5 -171.5t-457.5 171t-149.5 519zM336 1802h258l164 -366h-189z" />
    <glyph glyph-name="Oacute" unicode="&#xd3;" horiz-adv-x="1349" 
d="M1069 660q0 290 -95 417t-299 127t-299 -127t-95 -417t96 -414.5t298 -124.5t298 124.5t96 414.5zM68 659q0 348 146 522.5t460 174.5t461 -174t147 -522t-149.5 -519.5t-457.5 -171.5t-457.5 171t-149.5 519zM696 1802h256l-233 -366h-187z" />
    <glyph glyph-name="Ocircumflex" unicode="&#xd4;" horiz-adv-x="1349" 
d="M1069 660q0 290 -95 417t-299 127t-299 -127t-95 -417t96 -414.5t298 -124.5t298 124.5t96 414.5zM68 659q0 348 146 522.5t460 174.5t461 -174t147 -522t-149.5 -519.5t-457.5 -171.5t-457.5 171t-149.5 519zM567 1821h211l256 -385h-205l-157 258l-158 -258h-203z" />
    <glyph glyph-name="Otilde" unicode="&#xd5;" horiz-adv-x="1349" 
d="M1069 660q0 290 -95 417t-299 127t-299 -127t-95 -417t96 -414.5t298 -124.5t298 124.5t96 414.5zM68 659q0 348 146 522.5t460 174.5t461 -174t147 -522t-149.5 -519.5t-457.5 -171.5t-457.5 171t-149.5 519zM272 1436q0 280 210 280q101 0 197 -55t142 -55
q47 0 68.5 24.5t21.5 85.5h160q0 -147 -53 -213.5t-151 -66.5t-195 54q-98 54 -146 54q-49 0 -71.5 -24.5t-22.5 -83.5h-160z" />
    <glyph glyph-name="Odieresis" unicode="&#xd6;" horiz-adv-x="1349" 
d="M1069 660q0 290 -95 417t-299 127t-299 -127t-95 -417t96 -414.5t298 -124.5t298 124.5t96 414.5zM68 659q0 348 146 522.5t460 174.5t461 -174t147 -522t-149.5 -519.5t-457.5 -171.5t-457.5 171t-149.5 519zM797 1671h190v-196h-190v196zM360 1671h189v-196h-189v196z
" />
    <glyph glyph-name="multiply" unicode="&#xd7;" horiz-adv-x="751" 
d="M90 463l164 164l-166 168l123 118l164 -165l168 165l121 -118l-166 -168l166 -164l-123 -121l-164 164l-166 -166z" />
    <glyph glyph-name="Oslash" unicode="&#xd8;" horiz-adv-x="1349" 
d="M1069 657q0 383 -174 492l-373 -1006q61 -23 154 -22q201 0 297 125t96 411zM676 1204q-205 0 -300 -127t-95 -420q0 -344 149 -460l369 993q-66 14 -123 14zM68 657q0 350 146 524.5t462 174.5q96 0 176 -19l29 74h112l-39 -102q168 -68 248 -229.5t80 -422.5
q0 -346 -149.5 -517t-456.5 -171q-117 0 -209 25l-29 -82h-112l43 117q-301 137 -301 628z" />
    <glyph glyph-name="Ugrave" unicode="&#xd9;" horiz-adv-x="1353" 
d="M1257 1178q-75 0 -75 -74v-731q0 -186 -127 -295t-379 -109t-379 108.5t-127 295.5v731q0 39 -17.5 56.5t-58.5 17.5h-47v147h453v-147h-39q-39 0 -56.5 -18.5t-17.5 -59.5v-740q0 -241 289 -241t289 241v740q0 41 -17.5 59.5t-58.5 18.5h-39v147h457v-147h-50zM326 1802
h258l164 -366h-189z" />
    <glyph glyph-name="Uacute" unicode="&#xda;" horiz-adv-x="1353" 
d="M1257 1178q-75 0 -75 -74v-731q0 -186 -127 -295t-379 -109t-379 108.5t-127 295.5v731q0 39 -17.5 56.5t-58.5 17.5h-47v147h453v-147h-39q-39 0 -56.5 -18.5t-17.5 -59.5v-740q0 -241 289 -241t289 241v740q0 41 -17.5 59.5t-58.5 18.5h-39v147h457v-147h-50zM694 1802
h256l-233 -366h-187z" />
    <glyph glyph-name="Ucircumflex" unicode="&#xdb;" horiz-adv-x="1353" 
d="M1257 1178q-75 0 -75 -74v-731q0 -186 -127 -295t-379 -109t-379 108.5t-127 295.5v731q0 39 -17.5 56.5t-58.5 17.5h-47v147h453v-147h-39q-39 0 -56.5 -18.5t-17.5 -59.5v-740q0 -241 289 -241t289 241v740q0 41 -17.5 59.5t-58.5 18.5h-39v147h457v-147h-50zM571 1821
h211l256 -385h-204l-158 258l-158 -258h-203z" />
    <glyph glyph-name="Udieresis" unicode="&#xdc;" horiz-adv-x="1355" 
d="M1257 1178q-75 0 -75 -74v-731q0 -186 -127 -295t-379 -109t-379 108.5t-127 295.5v731q0 39 -17.5 56.5t-58.5 17.5h-47v147h453v-147h-39q-39 0 -56.5 -18.5t-17.5 -59.5v-740q0 -241 289 -241t289 241v740q0 41 -17.5 59.5t-58.5 18.5h-39v147h457v-147h-50zM801 1671
h190v-196h-190v196zM365 1671h188v-196h-188v196z" />
    <glyph glyph-name="Yacute" unicode="&#xdd;" horiz-adv-x="1363" 
d="M791 223q0 -76 75 -76h47v-147h-460v147h47q41 0 58 18.5t17 57.5v262l-331 611q-27 47 -53.5 64.5t-75.5 17.5h-47v147h446v-147h-29q-45 0 -45 -27q0 -18 17 -47l227 -440l225 440q14 27 15 47q0 27 -43 27h-31v147h446v-147h-47q-49 0 -75.5 -17.5t-53.5 -64.5
l-329 -611v-262zM729 1802h256l-233 -366h-187z" />
    <glyph glyph-name="Thorn" unicode="&#xde;" horiz-adv-x="1271" 
d="M739 432q129 0 191.5 65.5t62.5 205.5t-59.5 197.5t-194.5 57.5h-319v-526h319zM68 150h55q70 0 75 40.5t5 94.5v815q0 39 -17.5 57.5t-62.5 18.5h-55v149h352v-215h319q236 0 350.5 -99.5t114.5 -301.5t-113.5 -315t-322.5 -113h-348v-58q0 -39 17.5 -56t62.5 -17h53
v-150h-485v150z" />
    <glyph glyph-name="germandbls" unicode="&#xdf;" horiz-adv-x="1304" 
d="M805 117q219 0 219 268q0 133 -59.5 197.5t-198.5 64.5h-119v144h105q242 0 241 266q-1 250 -287 250t-286 -271v-1036h-352v150h59q41 0 58.5 18t17.5 59v795q0 201 124 318.5t373.5 117.5t377.5 -109.5t128 -291.5q0 -111 -46 -204t-136 -130q115 -41 164 -127t49 -213
q0 -190 -104.5 -302t-294.5 -112t-306 72l72 125q93 -49 201 -49z" />
    <glyph glyph-name="agrave" unicode="&#xe0;" horiz-adv-x="1071" 
d="M248 254q0 -137 182 -137q123 0 194.5 53t71.5 162v98l-270 -20q-100 -6 -139 -42t-39 -114zM503 866q-111 0 -179 -47v-74h-191v162q172 106 387 107q393 0 393 -348v-449q0 -41 15.5 -59.5t50.5 -18.5h45v-139h-236l-26 129q-66 -84 -153 -122t-239 -38t-237.5 72
t-85.5 211t93 207.5t270 81.5l286 18v125q0 96 -41 139t-152 43zM180 1444h258l164 -367h-188z" />
    <glyph glyph-name="aacute" unicode="&#xe1;" horiz-adv-x="1071" 
d="M248 254q0 -137 182 -137q123 0 194.5 53t71.5 162v98l-270 -20q-100 -6 -139 -42t-39 -114zM503 866q-111 0 -179 -47v-74h-191v162q172 106 387 107q393 0 393 -348v-449q0 -41 15.5 -59.5t50.5 -18.5h45v-139h-236l-26 129q-66 -84 -153 -122t-239 -38t-237.5 72
t-85.5 211t93 207.5t270 81.5l286 18v125q0 96 -41 139t-152 43zM539 1444h256l-234 -367h-186z" />
    <glyph glyph-name="acircumflex" unicode="&#xe2;" horiz-adv-x="1071" 
d="M248 254q0 -137 182 -137q123 0 194.5 53t71.5 162v98l-270 -20q-100 -6 -139 -42t-39 -114zM503 866q-111 0 -179 -47v-74h-191v162q172 106 387 107q393 0 393 -348v-449q0 -41 15.5 -59.5t50.5 -18.5h45v-139h-236l-26 129q-66 -84 -153 -122t-239 -38t-237.5 72
t-85.5 211t93 207.5t270 81.5l286 18v125q0 96 -41 139t-152 43zM377 1460h211l256 -385h-205l-158 258l-157 -258h-203z" />
    <glyph glyph-name="atilde" unicode="&#xe3;" horiz-adv-x="1071" 
d="M248 254q0 -137 182 -137q123 0 194.5 53t71.5 162v98l-270 -20q-100 -6 -139 -42t-39 -114zM503 866q-111 0 -179 -47v-74h-191v162q172 106 387 107q393 0 393 -348v-449q0 -41 15.5 -59.5t50.5 -18.5h45v-139h-236l-26 129q-66 -84 -153 -122t-239 -38t-237.5 72
t-85.5 211t93 207.5t270 81.5l286 18v125q0 96 -41 139t-152 43zM111 1077q0 281 210 281q102 0 207 -64q85 -47 131 -47q47 0 69 24.5t22 86.5h159q0 -147 -53 -214t-150 -67q-97 1 -195 55t-147 54t-71.5 -24.5t-22.5 -84.5h-159z" />
    <glyph glyph-name="adieresis" unicode="&#xe4;" horiz-adv-x="1071" 
d="M248 254q0 -137 182 -137q123 0 194.5 53t71.5 162v98l-270 -20q-100 -6 -139 -42t-39 -114zM503 866q-111 0 -179 -47v-74h-191v162q172 106 387 107q393 0 393 -348v-449q0 -41 15.5 -59.5t50.5 -18.5h45v-139h-236l-26 129q-66 -84 -153 -122t-239 -38t-237.5 72
t-85.5 211t93 207.5t270 81.5l286 18v125q0 96 -41 139t-152 43zM616 1313h191v-197h-191v197zM180 1313h189v-197h-189v197z" />
    <glyph glyph-name="aring" unicode="&#xe5;" horiz-adv-x="1071" 
d="M248 254q0 -137 182 -137q123 0 194.5 53t71.5 162v98l-270 -20q-100 -6 -139 -42t-39 -114zM503 866q-111 0 -179 -47v-74h-191v162q172 106 387 107q393 0 393 -348v-449q0 -41 15.5 -59.5t50.5 -18.5h45v-139h-236l-26 129q-66 -84 -153 -122t-239 -38t-237.5 72
t-85.5 211t93 207.5t270 81.5l286 18v125q0 96 -41 139t-152 43zM608 1308q0 46 -31.5 77.5t-76.5 31.5t-77 -31.5t-32 -77.5t32 -78t78 -32t76.5 32t30.5 78zM268 1306.5q0 96.5 67.5 165t164 68.5t165 -68.5t68.5 -165t-68.5 -164t-165 -67.5t-164 67.5t-67.5 164z" />
    <glyph glyph-name="ae" unicode="&#xe6;" horiz-adv-x="1732" 
d="M248 256q0 -139 182 -139q123 0 194.5 54t71.5 163v98l-270 -20q-100 -6 -139 -42t-39 -114zM1460 567q0 158 -63.5 228.5t-198.5 70.5t-206.5 -75.5t-71.5 -223.5h540zM47 252q0 139 93 207.5t270 81.5l286 18v125q0 96 -41 139t-147 43t-184 -47v-74h-191v162
q172 106 383 107q125 0 198.5 -39t119.5 -121q114 160 356 160t358.5 -128t116.5 -358v-94h-745q0 -160 86 -241.5t219 -81.5t221 49v76h184v-144q-156 -123 -422 -123t-383 199q-115 -199 -444 -199q-164 0 -249 72t-85 211z" />
    <glyph glyph-name="ccedilla" unicode="&#xe7;" horiz-adv-x="1056" 
d="M640 129q165 0 273 72l76 -125q-134 -90 -299 -103l-12 -67q88 -15 127 -59.5t39 -128.5t-69.5 -134.5t-182.5 -50.5t-180 27v127q59 -27 133 -27q117 0 117 74q0 53 -38 75.5t-151 22.5l23 143q-190 29 -309 161t-119 347q0 258 138 394.5t382 136.5q133 0 223 -29
t174 -92v-197h-190v113q-88 47 -216 47t-213 -91t-85 -277t97 -272.5t262 -86.5z" />
    <glyph glyph-name="egrave" unicode="&#xe8;" horiz-adv-x="1103" 
d="M825 567q0 299 -260 299q-137 0 -208.5 -79.5t-71.5 -219.5h540zM68 487q0 258 130 392.5t365 134.5t354 -131t119 -355v-94h-751q0 -166 80.5 -244.5t223.5 -78.5t222 49v73h190v-143q-171 -121 -412 -121t-381 130t-140 388zM262 1444h258l164 -367h-188z" />
    <glyph glyph-name="eacute" unicode="&#xe9;" horiz-adv-x="1103" 
d="M825 567q0 299 -260 299q-137 0 -208.5 -79.5t-71.5 -219.5h540zM68 487q0 258 130 392.5t365 134.5t354 -131t119 -355v-94h-751q0 -166 80.5 -244.5t223.5 -78.5t222 49v73h190v-143q-171 -121 -412 -121t-381 130t-140 388zM578 1444h256l-234 -367h-186z" />
    <glyph glyph-name="ecircumflex" unicode="&#xea;" horiz-adv-x="1103" 
d="M825 567q0 299 -260 299q-137 0 -208.5 -79.5t-71.5 -219.5h540zM68 487q0 258 130 392.5t365 134.5t354 -131t119 -355v-94h-751q0 -166 80.5 -244.5t223.5 -78.5t222 49v73h190v-143q-171 -121 -412 -121t-381 130t-140 388zM438 1460h211l256 -385h-205l-157 258
l-158 -258h-203z" />
    <glyph glyph-name="edieresis" unicode="&#xeb;" horiz-adv-x="1103" 
d="M825 567q0 299 -260 299q-137 0 -208.5 -79.5t-71.5 -219.5h540zM68 487q0 258 130 392.5t365 134.5t354 -131t119 -355v-94h-751q0 -166 80.5 -244.5t223.5 -78.5t222 49v73h190v-143q-171 -121 -412 -121t-381 130t-140 388zM666 1296h190v-196h-190v196zM229 1296h189
v-196h-189v196z" />
    <glyph glyph-name="igrave" unicode="&#xec;" horiz-adv-x="583" 
d="M401 227q0 -75 76 -75h60v-152h-490v152h59q41 0 58.5 18t17.5 59v527q0 39 -17.5 56t-58.5 17h-59v154h354v-756zM-33 1444h258l164 -367h-188z" />
    <glyph glyph-name="iacute" unicode="&#xed;" horiz-adv-x="583" 
d="M401 227q0 -75 76 -75h60v-152h-490v152h59q41 0 58.5 18t17.5 59v527q0 39 -17.5 56t-58.5 17h-59v154h354v-756zM322 1444h256l-234 -367h-186z" />
    <glyph glyph-name="icircumflex" unicode="&#xee;" horiz-adv-x="583" 
d="M401 227q0 -75 76 -75h60v-152h-490v152h59q41 0 58.5 18t17.5 59v527q0 39 -17.5 56t-58.5 17h-59v154h354v-756zM150 1462h210l256 -385h-204l-158 258l-158 -258h-202z" />
    <glyph glyph-name="idieresis" unicode="&#xef;" horiz-adv-x="583" 
d="M401 227q0 -75 76 -75h60v-152h-490v152h59q41 0 58.5 18t17.5 59v527q0 39 -17.5 56t-58.5 17h-59v154h354v-756zM362 1313h191v-197h-191v197zM-74 1313h189v-197h-189v197z" />
    <glyph glyph-name="eth" unicode="&#xf0;" horiz-adv-x="1183" 
d="M606 807q-137 0 -232 -91.5t-95 -322.5q0 -153 68.5 -212.5t205.5 -59.5t223 99t101 304q10 141 -62 212t-209 71zM625 961q176 0 276 -134q-10 213 -84 299l-199 -110l-14 96l129 72q-39 20 -115 20q-139 0 -274 -71l-65 135q150 88 376 88q156 0 256 -70l156 90l14 -98
l-96 -55q129 -150 129 -459q0 -389 -146.5 -592t-432.5 -203q-220 0 -343.5 107.5t-123.5 331.5q0 168 66.5 292.5t190.5 192.5t300 68z" />
    <glyph glyph-name="ntilde" unicode="&#xf1;" horiz-adv-x="1234" 
d="M68 152h51q41 0 58.5 17t17.5 58v527q0 41 -16.5 58t-57.5 17h-43v154h262l12 -137q70 88 159 128t216 40q328 0 328 -340v-447q0 -41 17.5 -58t57.5 -17h58v-152h-352v672q0 102 -43 148t-143 46t-168 -59t-68 -166v-414q0 -41 15 -58t54 -17h54v-152h-469v152z
M190 1077q0 281 211 281q102 0 207 -64q85 -47 131 -47q47 0 68.5 24.5t21.5 86.5h160q0 -147 -53 -214t-150 -67q-97 1 -195 55t-147 54t-71.5 -24.5t-22.5 -84.5h-160z" />
    <glyph glyph-name="ograve" unicode="&#xf2;" horiz-adv-x="1142" 
d="M862 490q0 187 -71.5 278.5t-219 91.5t-218 -91t-70.5 -279t70.5 -277.5t218 -89.5t219 90t71.5 277zM68 490q0 246 125.5 385t377.5 139t378 -138.5t126 -385.5t-127 -384t-376.5 -137t-376.5 137.5t-127 383.5zM258 1444h258l164 -367h-188z" />
    <glyph glyph-name="oacute" unicode="&#xf3;" horiz-adv-x="1142" 
d="M862 490q0 187 -71.5 278.5t-219 91.5t-218 -91t-70.5 -279t70.5 -277.5t218 -89.5t219 90t71.5 277zM68 490q0 246 125.5 385t377.5 139t378 -138.5t126 -385.5t-127 -384t-376.5 -137t-376.5 137.5t-127 383.5zM598 1444h256l-233 -367h-187z" />
    <glyph glyph-name="ocircumflex" unicode="&#xf4;" horiz-adv-x="1142" 
d="M862 490q0 187 -71.5 278.5t-219 91.5t-218 -91t-70.5 -279t70.5 -277.5t218 -89.5t219 90t71.5 277zM68 490q0 246 125.5 385t377.5 139t378 -138.5t126 -385.5t-127 -384t-376.5 -137t-376.5 137.5t-127 383.5zM442 1460h211l256 -385h-204l-158 258l-158 -258h-203z
" />
    <glyph glyph-name="otilde" unicode="&#xf5;" horiz-adv-x="1142" 
d="M862 490q0 187 -71.5 278.5t-219 91.5t-218 -91t-70.5 -279t70.5 -277.5t218 -89.5t219 90t71.5 277zM68 490q0 246 125.5 385t377.5 139t378 -138.5t126 -385.5t-127 -384t-376.5 -137t-376.5 137.5t-127 383.5zM150 1077q0 281 210 281q102 0 207 -64q85 -47 131 -47
q47 0 68.5 24.5t21.5 86.5h160q0 -147 -53 -214t-150 -67q-97 1 -195 55t-147 54t-71.5 -24.5t-22.5 -84.5h-159z" />
    <glyph glyph-name="odieresis" unicode="&#xf6;" horiz-adv-x="1142" 
d="M862 490q0 187 -71.5 278.5t-219 91.5t-218 -91t-70.5 -279t70.5 -277.5t218 -89.5t219 90t71.5 277zM68 490q0 246 125.5 385t377.5 139t378 -138.5t126 -385.5t-127 -384t-376.5 -137t-376.5 137.5t-127 383.5zM672 1313h190v-197h-190v197zM236 1313h188v-197h-188
v197z" />
    <glyph glyph-name="divide" unicode="&#xf7;" horiz-adv-x="843" 
d="M340 465h162v-156h-162v156zM88 702h668v-149h-668v149zM340 946h162v-155h-162v155z" />
    <glyph glyph-name="oslash" unicode="&#xf8;" horiz-adv-x="1142" 
d="M862 508q0 206 -119 295l-245 -674q35 -6 73 -6q148 0 219.5 89.5t71.5 295.5zM571 860q-147 0 -217.5 -91t-70.5 -280q0 -231 120 -315l248 678q-49 8 -80 8zM1075 489q0 -246 -127 -383t-377 -137q-59 0 -127 11l-30 -86h-113l43 112q-137 53 -206.5 177t-69.5 306
q0 248 125.5 386.5t377.5 138.5q51 0 134 -13l34 95h111l-45 -123q270 -110 270 -484z" />
    <glyph glyph-name="ugrave" unicode="&#xf9;" horiz-adv-x="1204" 
d="M180 756q0 75 -74 75h-59v152h352v-672q0 -199 193 -198q104 0 167.5 61.5t63.5 175.5v406q0 39 -15 57t-52 18h-58v152h342v-756q0 -39 18.5 -56t57.5 -17h41v-154h-260l-12 133q-66 -86 -153 -125t-212 -39q-168 0 -254 88t-86 252v447zM238 1444h258l163 -367h-188z
" />
    <glyph glyph-name="uacute" unicode="&#xfa;" horiz-adv-x="1204" 
d="M180 756q0 75 -74 75h-59v152h352v-672q0 -199 193 -198q104 0 167.5 61.5t63.5 175.5v406q0 39 -15 57t-52 18h-58v152h342v-756q0 -39 18.5 -56t57.5 -17h41v-154h-260l-12 133q-66 -86 -153 -125t-212 -39q-168 0 -254 88t-86 252v447zM602 1444h256l-233 -367h-187z
" />
    <glyph glyph-name="ucircumflex" unicode="&#xfb;" horiz-adv-x="1204" 
d="M180 756q0 75 -74 75h-59v152h352v-672q0 -199 193 -198q104 0 167.5 61.5t63.5 175.5v406q0 39 -15 57t-52 18h-58v152h342v-756q0 -39 18.5 -56t57.5 -17h41v-154h-260l-12 133q-66 -86 -153 -125t-212 -39q-168 0 -254 88t-86 252v447zM446 1460h211l256 -385h-204
l-158 258l-158 -258h-203z" />
    <glyph glyph-name="udieresis" unicode="&#xfc;" horiz-adv-x="1204" 
d="M180 756q0 75 -74 75h-59v152h352v-672q0 -199 193 -198q104 0 167.5 61.5t63.5 175.5v406q0 39 -15 57t-52 18h-58v152h342v-756q0 -39 18.5 -56t57.5 -17h41v-154h-260l-12 133q-66 -86 -153 -125t-212 -39q-168 0 -254 88t-86 252v447zM674 1313h190v-197h-190v197z
M238 1313h188v-197h-188v197z" />
    <glyph glyph-name="yacute" unicode="&#xfd;" horiz-adv-x="1159" 
d="M182 756q0 75 -76 75h-59v152h352v-631q0 -201 199 -200q106 0 169.5 60t63.5 175v369q0 41 -15 58t-54 17h-53v152h342v-965q0 -195 -112 -311.5t-302 -116.5q-250 1 -397 142v147h190v-74q68 -74 199 -73q215 0 215 241v146q-109 -109 -287 -109t-276.5 91.5
t-98.5 256.5v398zM592 1444h256l-234 -367h-186z" />
    <glyph glyph-name="thorn" unicode="&#xfe;" horiz-adv-x="1224" 
d="M944 496q0 194 -61.5 277t-197.5 83t-210 -85t-74 -226v-115q0 -145 74 -223t207 -78t197.5 86.5t64.5 280.5zM711 1014q215 0 330.5 -133t115.5 -383t-112.5 -389.5t-321.5 -139.5q-111 0 -185.5 33t-142.5 113v-301q0 -49 17.5 -71t64.5 -22h35v-147h-444v147h34
q47 0 64.5 21.5t17.5 71.5v1312q0 80 -73 80h-43v150h313v-506q115 164 330 164z" />
    <glyph glyph-name="ydieresis" unicode="&#xff;" horiz-adv-x="1159" 
d="M182 756q0 75 -76 75h-59v152h352v-631q0 -201 199 -200q106 0 169.5 60t63.5 175v369q0 41 -15 58t-54 17h-53v152h342v-965q0 -195 -112 -311.5t-302 -116.5q-250 1 -397 142v147h190v-74q68 -74 199 -73q215 0 215 241v146q-109 -109 -287 -109t-276.5 91.5
t-98.5 256.5v398zM680 1313h190v-197h-190v197zM244 1313h188v-197h-188v197z" />
    <glyph glyph-name="Amacron" unicode="&#x100;" horiz-adv-x="1472" 
d="M909 541l-170 499l-174 -499h344zM68 150h63q47 0 72.5 16t40.5 57l391 1102h207l387 -1102q14 -41 40.5 -57t73.5 -16h62v-150h-467v150h102l-90 262h-426l-90 -262h103v-150h-469v150zM444 1618h592v-141h-592v141z" />
    <glyph glyph-name="amacron" unicode="&#x101;" horiz-adv-x="1071" 
d="M248 254q0 -137 182 -137q123 0 194.5 53t71.5 162v98l-270 -20q-100 -6 -139 -42t-39 -114zM503 866q-111 0 -179 -47v-74h-191v162q172 106 387 107q393 0 393 -348v-449q0 -41 15.5 -59.5t50.5 -18.5h45v-139h-236l-26 129q-66 -84 -153 -122t-239 -38t-237.5 72
t-85.5 211t93 207.5t270 81.5l286 18v125q0 96 -41 139t-152 43zM203 1260h592v-142h-592v142z" />
    <glyph glyph-name="Abreve" unicode="&#x102;" horiz-adv-x="1472" 
d="M909 541l-170 499l-174 -499h344zM68 150h63q47 0 72.5 16t40.5 57l391 1102h207l387 -1102q14 -41 40.5 -57t73.5 -16h62v-150h-467v150h102l-90 262h-426l-90 -262h103v-150h-469v150zM414 1729h178q0 -74 39 -114t109 -40t108.5 40t38.5 114h178q0 -133 -88 -213
t-237.5 -80t-237.5 79.5t-88 213.5z" />
    <glyph glyph-name="abreve" unicode="&#x103;" horiz-adv-x="1071" 
d="M248 254q0 -137 182 -137q123 0 194.5 53t71.5 162v98l-270 -20q-100 -6 -139 -42t-39 -114zM503 866q-111 0 -179 -47v-74h-191v162q172 106 387 107q393 0 393 -348v-449q0 -41 15.5 -59.5t50.5 -18.5h45v-139h-236l-26 129q-66 -84 -153 -122t-239 -38t-237.5 72
t-85.5 211t93 207.5t270 81.5l286 18v125q0 96 -41 139t-152 43zM199 1370h178q0 -74 39.5 -113.5t109.5 -39.5t108 39.5t38 113.5h178q0 -133 -88 -213t-237.5 -80t-237.5 80t-88 213z" />
    <glyph glyph-name="Aogonek" unicode="&#x104;" horiz-adv-x="1472" 
d="M909 541l-170 499l-174 -499h344zM1139 -183q0 -97 75 -98q41 0 86 17v-127q-51 -37 -140 -37t-146.5 50t-57.5 151q0 135 105 227h-123v150h102l-90 262h-426l-90 -262h103v-150h-469v150h63q47 0 72.5 16t40.5 57l391 1102h207l387 -1102q14 -41 40.5 -57t73.5 -16h62
v-150h-164q-102 -86 -102 -183z" />
    <glyph glyph-name="aogonek" unicode="&#x105;" horiz-adv-x="1071" 
d="M248 254q0 -137 182 -137q123 0 194.5 53t71.5 162v98l-270 -20q-100 -6 -139 -42t-39 -114zM831 -183q0 -97 76 -98q41 0 86 17v-127q-51 -37 -140 -37t-146.5 50t-57.5 151q0 135 105 227h34l-26 129q-66 -84 -153 -122t-239 -38t-237.5 72t-85.5 211t93 207.5
t270 81.5l286 18v125q0 96 -41 139t-152 43t-179 -47v-74h-191v162q172 106 387 107q393 0 393 -348v-449q0 -41 15.5 -59.5t50.5 -18.5h45v-139h-90q-103 -86 -103 -183z" />
    <glyph glyph-name="Cacute" unicode="&#x106;" horiz-adv-x="1226" 
d="M738 121q208 0 337 82l80 -127q-90 -59 -185.5 -83t-226.5 -24q-215 0 -367.5 87t-230 241.5t-77.5 358.5t71.5 362t217 248t362.5 90q284 0 440 -115v-209h-215v131q-92 41 -225 41q-209 0 -324.5 -145.5t-115.5 -400.5t125.5 -396t333.5 -141zM748 1802h256l-234 -366
h-186z" />
    <glyph glyph-name="cacute" unicode="&#x107;" horiz-adv-x="1056" 
d="M640 129q165 0 273 72l76 -125q-86 -59 -174.5 -83t-228.5 -24t-259.5 59.5t-189 176.5t-69.5 278q0 258 138 394.5t382 136.5q133 0 223 -29t174 -92v-197h-190v113q-47 27 -90 37t-117 10q-137 0 -222 -91t-85 -277t97 -272.5t262 -86.5zM596 1444h256l-234 -367h-186z
" />
    <glyph glyph-name="Ccircumflex" unicode="&#x108;" horiz-adv-x="1226" 
d="M738 121q208 0 337 82l80 -127q-90 -59 -185.5 -83t-226.5 -24q-215 0 -367.5 87t-230 241.5t-77.5 358.5t71.5 362t217 248t362.5 90q284 0 440 -115v-209h-215v131q-92 41 -225 41q-209 0 -324.5 -145.5t-115.5 -400.5t125.5 -396t333.5 -141zM592 1821h211l256 -385
h-205l-158 258l-157 -258h-203z" />
    <glyph glyph-name="ccircumflex" unicode="&#x109;" horiz-adv-x="1056" 
d="M640 129q165 0 273 72l76 -125q-86 -59 -174.5 -83t-228.5 -24t-259.5 59.5t-189 176.5t-69.5 278q0 258 138 394.5t382 136.5q133 0 223 -29t174 -92v-197h-190v113q-47 27 -90 37t-117 10q-137 0 -222 -91t-85 -277t97 -272.5t262 -86.5zM451 1460h211l256 -385h-205
l-158 258l-158 -258h-202z" />
    <glyph glyph-name="Cdotaccent" unicode="&#x10a;" horiz-adv-x="1226" 
d="M738 121q208 0 337 82l80 -127q-90 -59 -185.5 -83t-226.5 -24q-215 0 -367.5 87t-230 241.5t-77.5 358.5t71.5 362t217 248t362.5 90q284 0 440 -115v-209h-215v131q-92 41 -225 41q-209 0 -324.5 -145.5t-115.5 -400.5t125.5 -396t333.5 -141zM614 1671h189v-196h-189
v196z" />
    <glyph glyph-name="cdotaccent" unicode="&#x10b;" horiz-adv-x="1056" 
d="M640 129q165 0 273 72l76 -125q-86 -59 -174.5 -83t-228.5 -24t-259.5 59.5t-189 176.5t-69.5 278q0 258 138 394.5t382 136.5q133 0 223 -29t174 -92v-197h-190v113q-47 27 -90 37t-117 10q-137 0 -222 -91t-85 -277t97 -272.5t262 -86.5zM477 1327h189v-197h-189v197z
" />
    <glyph glyph-name="Ccaron" unicode="&#x10c;" horiz-adv-x="1226" 
d="M738 121q208 0 337 82l80 -127q-90 -59 -185.5 -83t-226.5 -24q-215 0 -367.5 87t-230 241.5t-77.5 358.5t71.5 362t217 248t362.5 90q284 0 440 -115v-209h-215v131q-92 41 -225 41q-209 0 -324.5 -145.5t-115.5 -400.5t125.5 -396t333.5 -141zM332 1821h203l157 -258
l158 258h205l-256 -385h-211z" />
    <glyph glyph-name="ccaron" unicode="&#x10d;" horiz-adv-x="1056" 
d="M640 129q165 0 273 72l76 -125q-86 -59 -174.5 -83t-228.5 -24t-259.5 59.5t-189 176.5t-69.5 278q0 258 138 394.5t382 136.5q133 0 223 -29t174 -92v-197h-190v113q-47 27 -90 37t-117 10q-137 0 -222 -91t-85 -277t97 -272.5t262 -86.5zM211 1460h203l157 -258
l158 258h205l-256 -385h-211z" />
    <glyph glyph-name="Dcaron" unicode="&#x10e;" horiz-adv-x="1286" 
d="M629 147q201 0 289 127t88 386t-88.5 388.5t-288.5 129.5h-221v-1031h221zM68 147h47q41 0 58 18.5t17 59.5v877q0 39 -17 56.5t-58 17.5h-47v149h589q285 0 423.5 -173.5t138.5 -483.5t-142.5 -489t-419.5 -179h-589v147zM164 1821h203l157 -258l158 258h205l-256 -385
h-211z" />
    <glyph glyph-name="dcaron" unicode="&#x10f;" horiz-adv-x="1509" 
d="M825 442v105q0 150 -70.5 229.5t-207.5 79.5t-201.5 -90t-64.5 -284t60.5 -273.5t198.5 -79.5t211.5 85t73.5 228zM68 481q0 250 112.5 391.5t325.5 141.5q125 0 199.5 -31t123.5 -102v235q0 49 -16 69.5t-63 20.5h-35v150h325v-1137q0 -45 14.5 -62.5t53.5 -17.5h41
v-139h-275l-18 143q-61 -92 -145 -133t-213 -41q-203 0 -316.5 131t-113.5 381zM1231 1477h252l-164 -410h-184z" />
    <glyph glyph-name="Dcroat" unicode="&#x110;" horiz-adv-x="1286" 
d="M629 147q201 0 289 127t88 386t-88.5 388.5t-288.5 129.5h-221v-441h280v-151h-280v-439h221zM68 147h47q41 0 58 18.5t17 59.5v361h-122v151h122v365q0 39 -17 56.5t-58 17.5h-47v149h589q285 0 423.5 -173.5t138.5 -483.5t-142.5 -489t-419.5 -179h-589v147z" />
    <glyph glyph-name="dcroat" unicode="&#x111;" horiz-adv-x="1198" 
d="M825 442v105q0 150 -70.5 229.5t-207.5 79.5t-201.5 -90t-64.5 -284t60.5 -273.5t198.5 -79.5t211.5 85t73.5 228zM68 481q0 250 112.5 391.5t325.5 141.5q125 0 199.5 -31t123.5 -102v161h-278v119h272q-12 45 -73 45h-35v150h325v-195h111v-119h-111v-823
q0 -45 14.5 -62.5t53.5 -17.5h41v-139h-275l-18 143q-61 -92 -145 -133t-213 -41q-203 0 -316.5 131t-113.5 381z" />
    <glyph glyph-name="Emacron" unicode="&#x112;" horiz-adv-x="1116" 
d="M68 150h59q41 0 58.5 18t17.5 59v873q0 39 -17.5 56.5t-58.5 17.5h-59v151h981v-264h-197v41q0 39 -18.5 56.5t-59.5 17.5h-354v-437h354v-151h-354v-438h354q41 0 59.5 17t18.5 58v41h197v-266h-981v150zM262 1618h592v-141h-592v141z" />
    <glyph glyph-name="emacron" unicode="&#x113;" horiz-adv-x="1103" 
d="M825 567q0 299 -260 299q-137 0 -208.5 -79.5t-71.5 -219.5h540zM68 487q0 258 130 392.5t365 134.5t354 -131t119 -355v-94h-751q0 -166 80.5 -244.5t223.5 -78.5t222 49v73h190v-143q-171 -121 -412 -121t-381 130t-140 388zM258 1260h592v-142h-592v142z" />
    <glyph glyph-name="Ebreve" unicode="&#x114;" horiz-adv-x="1116" 
d="M68 150h59q41 0 58.5 18t17.5 59v873q0 39 -17.5 56.5t-58.5 17.5h-59v151h981v-264h-197v41q0 39 -18.5 56.5t-59.5 17.5h-354v-437h354v-151h-354v-438h354q41 0 59.5 17t18.5 58v41h197v-266h-981v150zM244 1729h178q0 -74 39 -114t109 -40t108.5 40t38.5 114h178
q0 -133 -88 -213t-237.5 -80t-237.5 79.5t-88 213.5z" />
    <glyph glyph-name="ebreve" unicode="&#x115;" horiz-adv-x="1103" 
d="M825 567q0 299 -260 299q-137 0 -208.5 -79.5t-71.5 -219.5h540zM68 487q0 258 130 392.5t365 134.5t354 -131t119 -355v-94h-751q0 -166 80.5 -244.5t223.5 -78.5t222 49v73h190v-143q-171 -121 -412 -121t-381 130t-140 388zM221 1370h178q0 -74 39 -113.5t110 -39.5
t108.5 39.5t37.5 113.5h178q0 -133 -88 -213t-237.5 -80t-237.5 80t-88 213z" />
    <glyph glyph-name="Edotaccent" unicode="&#x116;" horiz-adv-x="1116" 
d="M68 150h59q41 0 58.5 18t17.5 59v873q0 39 -17.5 56.5t-58.5 17.5h-59v151h981v-264h-197v41q0 39 -18.5 56.5t-59.5 17.5h-354v-437h354v-151h-354v-438h354q41 0 59.5 17t18.5 58v41h197v-266h-981v150zM455 1671h188v-196h-188v196z" />
    <glyph glyph-name="edotaccent" unicode="&#x117;" horiz-adv-x="1103" 
d="M825 567q0 299 -260 299q-137 0 -208.5 -79.5t-71.5 -219.5h540zM68 487q0 258 130 392.5t365 134.5t354 -131t119 -355v-94h-751q0 -166 80.5 -244.5t223.5 -78.5t222 49v73h190v-143q-171 -121 -412 -121t-381 130t-140 388zM457 1313h188v-197h-188v197z" />
    <glyph glyph-name="Eogonek" unicode="&#x118;" horiz-adv-x="1116" 
d="M676 -227q0 136 104 227h-712v150h59q41 0 58.5 18t17.5 59v873q0 39 -17.5 56.5t-58.5 17.5h-59v151h981v-264h-197v41q0 39 -18.5 56.5t-59.5 17.5h-354v-437h354v-151h-354v-438h354q41 0 59.5 17t18.5 58v41h197v-266h-88q-103 -87 -103 -183q0 -97 76 -98
q41 0 86 17v-127q-51 -37 -140 -37t-146.5 50t-57.5 151z" />
    <glyph glyph-name="eogonek" unicode="&#x119;" horiz-adv-x="1103" 
d="M825 567q0 299 -260 299q-137 0 -208.5 -79.5t-71.5 -219.5h540zM589 111q143 0 222 49v73h190v-143q-88 -61 -180 -90q-102 -86 -102 -183t76 -98q43 0 88 17v-127q-51 -31 -123 -37l-51 2q-78 8 -125 59t-47 151t75 185h-30q-233 0 -373.5 130t-140.5 388t130 392.5
t365 134.5t354 -131t119 -355v-94h-751q0 -166 80.5 -244.5t223.5 -78.5z" />
    <glyph glyph-name="Ecaron" unicode="&#x11a;" horiz-adv-x="1116" 
d="M68 150h59q41 0 58.5 18t17.5 59v873q0 39 -17.5 56.5t-58.5 17.5h-59v151h981v-264h-197v41q0 39 -18.5 56.5t-59.5 17.5h-354v-437h354v-151h-354v-438h354q41 0 59.5 17t18.5 58v41h197v-266h-981v150zM197 1821h202l158 -258l158 258h205l-256 -385h-211z" />
    <glyph glyph-name="ecaron" unicode="&#x11b;" horiz-adv-x="1103" 
d="M825 567q0 299 -260 299q-137 0 -208.5 -79.5t-71.5 -219.5h540zM68 487q0 258 130 392.5t365 134.5t354 -131t119 -355v-94h-751q0 -166 80.5 -244.5t223.5 -78.5t222 49v73h190v-143q-171 -121 -412 -121t-381 130t-140 388zM190 1460h203l158 -258l158 258h204
l-256 -385h-211z" />
    <glyph glyph-name="Gcircumflex" unicode="&#x11c;" horiz-adv-x="1265" 
d="M68 656q0 204 69.5 362t214 248t359.5 90q284 0 444 -115v-209h-217v127q-88 45 -227 45q-205 0 -317.5 -145.5t-112.5 -400.5t118.5 -396t331.5 -141q143 0 252 43v383h-285v151h500v-600q-190 -129 -475 -129q-211 0 -358.5 87t-222 241.5t-74.5 358.5zM571 1821h211
l256 -385h-204l-158 258l-158 -258h-203z" />
    <glyph glyph-name="gcircumflex" unicode="&#x11d;" horiz-adv-x="1196" 
d="M823 446v95q0 145 -69.5 230t-206.5 85t-201.5 -83t-64.5 -273t63.5 -273.5t202.5 -83.5q276 0 276 303zM68 499q0 249 119.5 382t324.5 133q119 0 201 -42t143 -134l18 147h275v-141h-43q-37 0 -51.5 -19.5t-14.5 -64.5v-762q0 -184 -111.5 -296t-297.5 -112
q-243 1 -393 144v141h188v-74q69 -51 190 -51q213 0 213 215v164q-105 -145 -319 -145q-215 0 -328.5 133t-113.5 382zM481 1460h211l256 -385h-205l-157 258l-158 -258h-203z" />
    <glyph glyph-name="Gbreve" unicode="&#x11e;" horiz-adv-x="1265" 
d="M68 656q0 204 69.5 362t214 248t359.5 90q284 0 444 -115v-209h-217v127q-88 45 -227 45q-205 0 -317.5 -145.5t-112.5 -400.5t118.5 -396t331.5 -141q143 0 252 43v383h-285v151h500v-600q-190 -129 -475 -129q-211 0 -358.5 87t-222 241.5t-74.5 358.5zM356 1729h179
q0 -74 38.5 -114t109.5 -40t108.5 40t37.5 114h179q0 -133 -88.5 -213t-238 -80t-237.5 79.5t-88 213.5z" />
    <glyph glyph-name="gbreve" unicode="&#x11f;" horiz-adv-x="1196" 
d="M823 446v95q0 145 -69.5 230t-206.5 85t-201.5 -83t-64.5 -273t63.5 -273.5t202.5 -83.5q276 0 276 303zM68 499q0 249 119.5 382t324.5 133q119 0 201 -42t143 -134l18 147h275v-141h-43q-37 0 -51.5 -19.5t-14.5 -64.5v-762q0 -184 -111.5 -296t-297.5 -112
q-243 1 -393 144v141h188v-74q69 -51 190 -51q213 0 213 215v164q-105 -145 -319 -145q-215 0 -328.5 133t-113.5 382zM262 1370h178q0 -74 39 -113.5t110 -39.5t108.5 39.5t37.5 113.5h178q0 -133 -88 -213t-237.5 -80t-237.5 80t-88 213z" />
    <glyph glyph-name="Gdotaccent" unicode="&#x120;" horiz-adv-x="1265" 
d="M68 656q0 204 69.5 362t214 248t359.5 90q284 0 444 -115v-209h-217v127q-88 45 -227 45q-205 0 -317.5 -145.5t-112.5 -400.5t118.5 -396t331.5 -141q143 0 252 43v383h-285v151h500v-600q-190 -129 -475 -129q-211 0 -358.5 87t-222 241.5t-74.5 358.5zM612 1647h189
v-197h-189v197z" />
    <glyph glyph-name="gdotaccent" unicode="&#x121;" horiz-adv-x="1196" 
d="M823 446v95q0 145 -69.5 230t-206.5 85t-201.5 -83t-64.5 -273t63.5 -273.5t202.5 -83.5q276 0 276 303zM68 499q0 249 119.5 382t324.5 133q119 0 201 -42t143 -134l18 147h275v-141h-43q-37 0 -51.5 -19.5t-14.5 -64.5v-762q0 -184 -111.5 -296t-297.5 -112
q-243 1 -393 144v141h188v-74q69 -51 190 -51q213 0 213 215v164q-105 -145 -319 -145q-215 0 -328.5 133t-113.5 382zM483 1296h189v-196h-189v196z" />
    <glyph glyph-name="Gcommaaccent" unicode="&#x122;" horiz-adv-x="1265" 
d="M645 -100h238l-127 -418h-174zM68 656q0 204 69.5 362t214 248t359.5 90q284 0 444 -115v-209h-217v127q-88 45 -227 45q-205 0 -317.5 -145.5t-112.5 -400.5t118.5 -396t331.5 -141q143 0 252 43v383h-285v151h500v-600q-190 -129 -475 -129q-211 0 -358.5 87
t-222 241.5t-74.5 358.5z" />
    <glyph glyph-name="gcommaaccent" unicode="&#x123;" horiz-adv-x="1196" 
d="M823 446v95q0 145 -69.5 230t-206.5 85t-201.5 -83t-64.5 -273t63.5 -273.5t202.5 -83.5q276 0 276 303zM68 499q0 249 119.5 382t324.5 133q119 0 201 -42t143 -134l18 147h275v-141h-43q-37 0 -51.5 -19.5t-14.5 -64.5v-762q0 -184 -111.5 -296t-297.5 -112
q-243 1 -393 144v141h188v-74q69 -51 190 -51q213 0 213 215v164q-105 -145 -319 -145q-215 0 -328.5 133t-113.5 382zM606 1559h174l-63 -418h-238z" />
    <glyph glyph-name="Hcircumflex" unicode="&#x124;" horiz-adv-x="1396" 
d="M68 150h59q41 0 58.5 18t17.5 59v873q0 39 -17.5 56.5t-58.5 17.5h-59v151h477v-151h-51q-39 0 -56.5 -17.5t-17.5 -56.5v-361h557v359q0 41 -16.5 58.5t-57.5 17.5h-53v151h479v-151h-59q-41 0 -58.5 -17.5t-17.5 -56.5v-873q0 -41 17.5 -59t58.5 -18h59v-150h-479v150
h53q39 0 56.5 18t17.5 59v363h-557v-363q0 -41 17.5 -59t56.5 -18h51v-150h-477v150zM594 1821h211l256 -385h-205l-158 258l-157 -258h-203z" />
    <glyph glyph-name="hcircumflex" unicode="&#x125;" horiz-adv-x="1236" 
d="M68 152h51q41 0 58.5 17t17.5 58v901q0 39 -17.5 57.5t-58.5 18.5h-41v152h315v-475q74 74 151 103.5t193 29.5q160 0 241 -88t81 -252v-447q0 -41 17.5 -58t56.5 -17h57v-152h-354v672q0 102 -45.5 149t-143.5 47t-165.5 -60t-67.5 -167v-414q0 -41 15 -58t52 -17h56
v-152h-469v152zM346 1821h211l256 -385h-205l-157 258l-158 -258h-203z" />
    <glyph glyph-name="Hbar" unicode="&#x126;" horiz-adv-x="1396" 
d="M977 860h-557v-121h557v121zM1194 1100v-90h135v-150h-135v-633q0 -41 17.5 -59t58.5 -18h59v-150h-479v150h53q39 0 56.5 18t17.5 59v363h-557v-363q0 -41 17.5 -59t56.5 -18h51v-150h-477v150h59q41 0 58.5 18t17.5 59v633h-133v150h133v90q0 39 -17.5 56.5t-58.5 17.5
h-59v151h477v-151h-51q-39 0 -56.5 -17.5t-17.5 -56.5v-90h557v88q0 41 -16.5 58.5t-57.5 17.5h-53v151h479v-151h-59q-41 0 -58.5 -17.5t-17.5 -56.5z" />
    <glyph glyph-name="hbar" unicode="&#x127;" horiz-adv-x="1236" 
d="M68 152h51q41 0 58.5 17t17.5 58v844h-127v150h127v135h198v-135h271v-150h-271v-190q74 74 151 103.5t193 29.5q160 0 241 -88t81 -252v-447q0 -41 17.5 -58t56.5 -17h57v-152h-354v672q0 102 -45.5 149t-143.5 47t-165.5 -60t-67.5 -167v-414q0 -41 15 -58t52 -17h56
v-152h-469v152z" />
    <glyph glyph-name="Itilde" unicode="&#x128;" horiz-adv-x="620" 
d="M68 150h59q41 0 58.5 18t17.5 59v873q0 39 -17.5 56.5t-58.5 17.5h-59v151h485v-151h-59q-39 0 -56.5 -17.5t-17.5 -56.5v-875q0 -41 17.5 -58t56.5 -17h59v-150h-485v150zM-90 1436q0 280 208 280q100 0 198 -55q97 -55 143 -55q47 0 68.5 24.5t21.5 85.5h160
q0 -147 -53.5 -213.5t-151.5 -66.5t-195 54q-98 54 -146 54t-70.5 -24.5t-22.5 -83.5h-160z" />
    <glyph glyph-name="itilde" unicode="&#x129;" horiz-adv-x="583" 
d="M401 227q0 -75 76 -75h60v-152h-490v152h59q41 0 58.5 18t17.5 59v527q0 39 -17.5 56t-58.5 17h-59v154h354v-756zM-150 1090q0 280 210 280q101 0 197 -55t142 -55q47 0 68.5 24.5t21.5 85.5h160q0 -147 -53 -213.5t-151 -66.5t-195 54q-98 54 -146 54
q-49 0 -71.5 -24.5t-22.5 -83.5h-160z" />
    <glyph glyph-name="Imacron" unicode="&#x12a;" horiz-adv-x="620" 
d="M68 150h59q41 0 58.5 18t17.5 59v873q0 39 -17.5 56.5t-58.5 17.5h-59v151h485v-151h-59q-39 0 -56.5 -17.5t-17.5 -56.5v-875q0 -41 17.5 -58t56.5 -17h59v-150h-485v150zM12 1618h594v-141h-594v141z" />
    <glyph glyph-name="imacron" unicode="&#x12b;" horiz-adv-x="583" 
d="M401 227q0 -75 76 -75h60v-152h-490v152h59q41 0 58.5 18t17.5 59v527q0 39 -17.5 56t-58.5 17h-59v154h354v-756zM-29 1260h594v-142h-594v142z" />
    <glyph glyph-name="Ibreve" unicode="&#x12c;" horiz-adv-x="620" 
d="M68 150h59q41 0 58.5 18t17.5 59v873q0 39 -17.5 56.5t-58.5 17.5h-59v151h485v-151h-59q-39 0 -56.5 -17.5t-17.5 -56.5v-875q0 -41 17.5 -58t56.5 -17h59v-150h-485v150zM-16 1729h178q0 -74 39 -114t109 -40t108.5 40t38.5 114h178q0 -133 -88 -213t-237.5 -80
t-237.5 79.5t-88 213.5z" />
    <glyph glyph-name="ibreve" unicode="&#x12d;" horiz-adv-x="583" 
d="M401 227q0 -75 76 -75h60v-152h-490v152h59q41 0 58.5 18t17.5 59v527q0 39 -17.5 56t-58.5 17h-59v154h354v-756zM-63 1370h178q0 -74 39.5 -113.5t109.5 -39.5t108 39.5t38 113.5h178q0 -133 -88 -213t-237.5 -80t-237.5 80t-88 213z" />
    <glyph glyph-name="Iogonek" unicode="&#x12e;" horiz-adv-x="620" 
d="M127 -227q0 136 104 227h-163v150h59q41 0 58.5 18t17.5 59v873q0 39 -17.5 56.5t-58.5 17.5h-59v151h485v-151h-59q-39 0 -56.5 -17.5t-17.5 -56.5v-875q0 -41 17.5 -58t56.5 -17h59v-150h-141q-103 -87 -103 -183q0 -97 76 -98q41 0 86 17v-127q-51 -37 -140 -37
t-146.5 50t-57.5 151z" />
    <glyph glyph-name="iogonek" unicode="&#x12f;" horiz-adv-x="583" 
d="M297 -183q0 -97 76 -98q41 0 86 17v-127q-51 -37 -140 -37t-146.5 50t-57.5 151q0 136 104 227h-172v152h59q41 0 58.5 18t17.5 59v527q0 39 -17.5 56t-58.5 17h-59v154h354v-756q0 -75 76 -75h60v-152h-138q-102 -86 -102 -183zM408 1139h-232v188h232v-188z" />
    <glyph glyph-name="Idotaccent" unicode="&#x130;" horiz-adv-x="620" 
d="M68 150h59q41 0 58.5 18t17.5 59v873q0 39 -17.5 56.5t-58.5 17.5h-59v151h485v-151h-59q-39 0 -56.5 -17.5t-17.5 -56.5v-875q0 -41 17.5 -58t56.5 -17h59v-150h-485v150zM215 1673h188v-196h-188v196z" />
    <glyph glyph-name="dotlessi" unicode="&#x131;" horiz-adv-x="583" 
d="M401 227q0 -75 76 -75h60v-152h-490v152h59q41 0 58.5 18t17.5 59v527q0 39 -17.5 56t-58.5 17h-59v154h354v-756z" />
    <glyph glyph-name="IJ" unicode="&#x132;" horiz-adv-x="1564" 
d="M1458 1174q-76 0 -76 -74v-729q0 -190 -104 -296t-301 -106q-263 0 -402 156v164h197v-99q68 -70 182 -70t163.5 54.5t49.5 165.5v760q0 74 -75 74h-62v151h488v-151h-60zM68 150h59q41 0 58.5 18t17.5 59v873q0 39 -17.5 56.5t-58.5 17.5h-59v151h485v-151h-59
q-39 0 -56.5 -17.5t-17.5 -56.5v-875q0 -41 17.5 -58t56.5 -17h59v-150h-485v150z" />
    <glyph glyph-name="ij" unicode="&#x133;" horiz-adv-x="1124" 
d="M1010 0q0 -354 -381 -354q-194 0 -330 118v170h184v-90q58 -51 144 -51t125 42t39 140v781q0 39 -17.5 56t-58.5 17h-60v154h355v-983zM401 227q0 -75 76 -75h60v-152h-490v152h59q41 0 58.5 18t17.5 59v527q0 39 -17.5 56t-58.5 17h-59v154h354v-756zM784 1327h232v-188
h-232v188zM176 1327h232v-188h-232v188z" />
    <glyph glyph-name="Jcircumflex" unicode="&#x134;" horiz-adv-x="1015" 
d="M889 1174q-76 0 -76 -74v-729q0 -190 -104.5 -296t-300.5 -106q-263 0 -402 156v164h197v-99q68 -70 182 -70t163.5 54.5t49.5 165.5v760q0 74 -76 74h-61v151h487v-151h-59zM569 1821h211l256 -385h-205l-157 258l-158 -258h-203z" />
    <glyph glyph-name="jcircumflex" unicode="&#x135;" horiz-adv-x="763" 
d="M655 0q0 -354 -381 -354q-195 0 -329 118v170h184v-90q58 -51 144 -51t124.5 42t38.5 140v781q0 39 -17.5 56t-58.5 17h-59v154h354v-983zM389 1477h211l256 -385h-205l-157 258l-158 -258h-203z" />
    <glyph glyph-name="Kcommaaccent" unicode="&#x136;" horiz-adv-x="1327" 
d="M553 -100h238l-127 -418h-175zM68 152h59q41 0 58.5 17t17.5 56v877q0 39 -17.5 56.5t-58.5 17.5h-47v149h444v-149h-37q-37 0 -52 -18.5t-15 -55.5v-434l473 508h-105v149h451v-158h-76q-39 0 -61.5 -12t-50.5 -43l-332 -350l362 -549q23 -33 47.5 -47t63.5 -14h68v-152
h-472v152h115l-313 475l-170 -183v-219q0 -37 15.5 -55t56.5 -18h45v-152h-469v152z" />
    <glyph glyph-name="kcommaaccent" unicode="&#x137;" horiz-adv-x="1185" 
d="M510 -100h238l-127 -418h-175zM68 145h55q41 0 56.5 15.5t15.5 54.5v930q0 39 -14.5 54t-53.5 15h-47v142h440v-142h-57q-37 0 -51.5 -15t-14.5 -54v-602l332 297h-100v143h467v-143h-95q-33 0 -49 -8.5t-45 -32.5l-202 -178l247 -420q20 -33 40 -44.5t61 -11.5h86v-145
h-275l-303 502l-164 -146v-141q0 -39 15.5 -54.5t56.5 -15.5h63v-145h-464v145z" />
    <glyph glyph-name="kgreenlandic" unicode="&#x138;" horiz-adv-x="1191" 
d="M68 145h55q61 0 66.5 33t5.5 82v512q0 39 -14.5 54.5t-53.5 15.5h-47v141h424v-141h-41q-45 0 -55.5 -21.5t-10.5 -87.5v-213l326 320h-86v143h455v-143h-91q-39 0 -64.5 -16.5t-72.5 -63.5l-174 -162l246 -395q20 -31 41.5 -44.5t60.5 -13.5h86v-145h-358l-25 55h78
l-264 424l-158 -147v-117q0 -39 15.5 -54.5t56.5 -15.5h63v-145h-464v145z" />
    <glyph glyph-name="Lacute" unicode="&#x139;" horiz-adv-x="1042" 
d="M68 147h43q45 0 62 18.5t17 59.5v877q0 39 -17 56.5t-58 17.5h-47v149h462v-149h-49q-39 0 -56 -17.5t-17 -56.5v-955h354q41 0 59.5 17.5t18.5 58.5v66h196v-289h-968v147zM313 1802h256l-233 -366h-186z" />
    <glyph glyph-name="lacute" unicode="&#x13a;" horiz-adv-x="604" 
d="M422 227q0 -75 76 -75h59v-152h-489v152h59q41 0 58.5 18t17.5 59v899q0 39 -17.5 56.5t-58.5 17.5h-59v154h354v-1129zM352 1802h256l-233 -366h-187z" />
    <glyph glyph-name="Lcommaaccent" unicode="&#x13b;" horiz-adv-x="1042" 
d="M487 -100h238l-127 -418h-174zM68 147h43q45 0 62 18.5t17 59.5v877q0 39 -17 56.5t-58 17.5h-47v149h462v-149h-49q-39 0 -56 -17.5t-17 -56.5v-955h354q41 0 59.5 17.5t18.5 58.5v66h196v-289h-968v147z" />
    <glyph glyph-name="lcommaaccent" unicode="&#x13c;" horiz-adv-x="604" 
d="M213 -100h238l-127 -418h-174zM422 227q0 -75 76 -75h59v-152h-489v152h59q41 0 58.5 18t17.5 59v899q0 39 -17.5 56.5t-58.5 17.5h-59v154h354v-1129z" />
    <glyph glyph-name="Lcaron" unicode="&#x13d;" horiz-adv-x="1042" 
d="M68 147h43q45 0 62 18.5t17 59.5v877q0 39 -17 56.5t-58 17.5h-47v149h462v-149h-49q-39 0 -56 -17.5t-17 -56.5v-955h354q41 0 59.5 17.5t18.5 58.5v66h196v-289h-968v147zM788 1462h238l-127 -418h-174z" />
    <glyph glyph-name="lcaron" unicode="&#x13e;" horiz-adv-x="827" 
d="M422 227q0 -75 76 -75h59v-152h-489v152h59q41 0 58.5 18t17.5 59v899q0 39 -17.5 56.5t-58.5 17.5h-59v154h354v-1129zM629 1556h237l-127 -417h-174z" />
    <glyph glyph-name="Ldot" unicode="&#x13f;" horiz-adv-x="1042" 
d="M625 784h190v-196h-190v196zM68 147h43q45 0 62 18.5t17 59.5v877q0 39 -17 56.5t-58 17.5h-47v149h462v-149h-49q-39 0 -56 -17.5t-17 -56.5v-955h354q41 0 59.5 17.5t18.5 58.5v66h196v-289h-968v147z" />
    <glyph glyph-name="ldot" unicode="&#x140;" horiz-adv-x="772" 
d="M596 778h190v-196h-190v196zM422 227q0 -75 76 -75h59v-152h-489v152h59q41 0 58.5 18t17.5 59v899q0 39 -17.5 56.5t-58.5 17.5h-59v154h354v-1129z" />
    <glyph glyph-name="Lslash" unicode="&#x141;" horiz-adv-x="1042" 
d="M1036 289v-289h-968v147h43q45 0 62 18.5t17 59.5v248l-120 -70v164l120 70v465q0 39 -17 56.5t-56 17.5h-49v149h462v-149h-47q-41 0 -58 -17.5t-17 -56.5v-340l221 127v-164l-221 -127v-451h354q43 0 60.5 17.5t17.5 58.5v66h196z" />
    <glyph glyph-name="lslash" unicode="&#x142;" horiz-adv-x="632" 
d="M430 227q0 -75 76 -75h59v-152h-489v152h59q41 0 58.5 18t17.5 59v316l-164 -94v163l164 95v419q0 39 -17.5 56.5t-58.5 17.5h-59v154h354v-520l176 102v-164l-176 -102v-445z" />
    <glyph glyph-name="Nacute" unicode="&#x143;" horiz-adv-x="1415" 
d="M997 1100q0 74 -75 74h-62v151h488v-151h-62q-39 0 -56.5 -17.5t-17.5 -56.5v-1100h-170l-624 967v-742q0 -39 18.5 -56t57.5 -17h59v-152h-485v152h59q41 0 58.5 17t17.5 56v875q0 39 -17.5 56.5t-58.5 17.5h-59v151h305l624 -969v744zM729 1802h256l-233 -366h-187z
" />
    <glyph glyph-name="nacute" unicode="&#x144;" horiz-adv-x="1234" 
d="M68 152h51q41 0 58.5 17t17.5 58v527q0 41 -16.5 58t-57.5 17h-43v154h262l12 -137q70 88 159 128t216 40q328 0 328 -340v-447q0 -41 17.5 -58t57.5 -17h58v-152h-352v672q0 102 -43 148t-143 46t-168 -59t-68 -166v-414q0 -41 15 -58t54 -17h54v-152h-469v152z
M610 1444h256l-233 -367h-187z" />
    <glyph glyph-name="Ncommaaccent" unicode="&#x145;" horiz-adv-x="1415" 
d="M670 -100h237l-127 -418h-174zM997 1100q0 74 -75 74h-62v151h488v-151h-62q-39 0 -56.5 -17.5t-17.5 -56.5v-1100h-170l-624 967v-742q0 -39 18.5 -56t57.5 -17h59v-152h-485v152h59q41 0 58.5 17t17.5 56v875q0 39 -17.5 56.5t-58.5 17.5h-59v151h305l624 -969v744z
" />
    <glyph glyph-name="ncommaaccent" unicode="&#x146;" horiz-adv-x="1234" 
d="M612 -100h238l-127 -418h-174zM68 152h51q41 0 58.5 17t17.5 58v527q0 41 -16.5 58t-57.5 17h-43v154h262l12 -137q70 88 159 128t216 40q328 0 328 -340v-447q0 -41 17.5 -58t57.5 -17h58v-152h-352v672q0 102 -43 148t-143 46t-168 -59t-68 -166v-414q0 -41 15 -58
t54 -17h54v-152h-469v152z" />
    <glyph glyph-name="Ncaron" unicode="&#x147;" horiz-adv-x="1415" 
d="M997 1100q0 74 -75 74h-62v151h488v-151h-62q-39 0 -56.5 -17.5t-17.5 -56.5v-1100h-170l-624 967v-742q0 -39 18.5 -56t57.5 -17h59v-152h-485v152h59q41 0 58.5 17t17.5 56v875q0 39 -17.5 56.5t-58.5 17.5h-59v151h305l624 -969v744zM324 1821h202l158 -258l158 258
h205l-256 -385h-211z" />
    <glyph glyph-name="ncaron" unicode="&#x148;" horiz-adv-x="1234" 
d="M68 152h51q41 0 58.5 17t17.5 58v527q0 41 -16.5 58t-57.5 17h-43v154h262l12 -137q70 88 159 128t216 40q328 0 328 -340v-447q0 -41 17.5 -58t57.5 -17h58v-152h-352v672q0 102 -43 148t-143 46t-168 -59t-68 -166v-414q0 -41 15 -58t54 -17h54v-152h-469v152z
M231 1460h203l158 -258l158 258h204l-256 -385h-211z" />
    <glyph glyph-name="napostrophe" unicode="&#x149;" horiz-adv-x="1490" 
d="M324 152h51q41 0 58.5 17t17.5 58v527q0 41 -16.5 58t-57.5 17h-43v154h262l12 -137q70 88 159 128t216 40q328 0 328 -340v-447q0 -41 17.5 -58t57.5 -17h58v-152h-352v672q0 102 -43 148t-143 46t-168 -59t-68 -166v-414q0 -41 15 -58t54 -17h54v-152h-469v152z
M156 1462h237l-127 -418h-174z" />
    <glyph glyph-name="Eng" unicode="&#x14a;" horiz-adv-x="1415" 
d="M997 1100q0 74 -75 74h-62v151h488v-151h-62q-39 0 -56.5 -17.5t-17.5 -56.5v-1307q0 -180 -102 -278.5t-320 -98.5t-364 129v172h186v-88q66 -66 185 -65q197 0 196 203v309l-575 891v-742q0 -39 18.5 -56t57.5 -17h59v-152h-485v152h59q41 0 58.5 17t17.5 56v875
q0 39 -17.5 56.5t-58.5 17.5h-59v151h305l624 -969v744z" />
    <glyph glyph-name="eng" unicode="&#x14b;" horiz-adv-x="1177" 
d="M1055 -178q0 -354 -381 -354q-194 0 -330 118v170h184v-94q35 -29 66.5 -38t97.5 -9q144 0 144 182v875q0 102 -43 148t-143 46t-168 -59t-68 -166v-414q0 -41 15 -58t54 -17h54v-152h-469v152h51q41 0 58.5 17t17.5 58v527q0 41 -16.5 58t-57.5 17h-43v154h262l12 -137
q70 88 159 128t216 40q328 0 328 -340v-852z" />
    <glyph glyph-name="Omacron" unicode="&#x14c;" horiz-adv-x="1349" 
d="M1069 660q0 290 -95 417t-299 127t-299 -127t-95 -417t96 -414.5t298 -124.5t298 124.5t96 414.5zM68 659q0 348 146 522.5t460 174.5t461 -174t147 -522t-149.5 -519.5t-457.5 -171.5t-457.5 171t-149.5 519zM377 1618h592v-141h-592v141z" />
    <glyph glyph-name="omacron" unicode="&#x14d;" horiz-adv-x="1142" 
d="M862 490q0 187 -71.5 278.5t-219 91.5t-218 -91t-70.5 -279t70.5 -277.5t218 -89.5t219 90t71.5 277zM68 490q0 246 125.5 385t377.5 139t378 -138.5t126 -385.5t-127 -384t-376.5 -137t-376.5 137.5t-127 383.5zM279 1260h591v-142h-591v142z" />
    <glyph glyph-name="Obreve" unicode="&#x14e;" horiz-adv-x="1349" 
d="M1069 660q0 290 -95 417t-299 127t-299 -127t-95 -417t96 -414.5t298 -124.5t298 124.5t96 414.5zM68 659q0 348 146 522.5t460 174.5t461 -174t147 -522t-149.5 -519.5t-457.5 -171.5t-457.5 171t-149.5 519zM348 1729h178q0 -74 39 -114t110 -40t108.5 40t37.5 114h178
q0 -133 -88 -213t-237.5 -80t-237.5 79.5t-88 213.5z" />
    <glyph glyph-name="obreve" unicode="&#x14f;" horiz-adv-x="1142" 
d="M862 490q0 187 -71.5 278.5t-219 91.5t-218 -91t-70.5 -279t70.5 -277.5t218 -89.5t219 90t71.5 277zM68 490q0 246 125.5 385t377.5 139t378 -138.5t126 -385.5t-127 -384t-376.5 -137t-376.5 137.5t-127 383.5zM250 1370h178q0 -74 39 -113.5t109 -39.5t108.5 39.5
t38.5 113.5h178q0 -133 -88 -213t-237.5 -80t-237.5 80t-88 213z" />
    <glyph glyph-name="Ohungarumlaut" unicode="&#x150;" horiz-adv-x="1349" 
d="M1069 660q0 290 -95 417t-299 127t-299 -127t-95 -417t96 -414.5t298 -124.5t298 124.5t96 414.5zM68 659q0 348 146 522.5t460 174.5t461 -174t147 -522t-149.5 -519.5t-457.5 -171.5t-457.5 171t-149.5 519zM907 1819h264l-247 -385h-193zM500 1819h262l-246 -385h-194
z" />
    <glyph glyph-name="ohungarumlaut" unicode="&#x151;" horiz-adv-x="1142" 
d="M862 490q0 187 -71.5 278.5t-219 91.5t-218 -91t-70.5 -279t70.5 -277.5t218 -89.5t219 90t71.5 277zM68 490q0 246 125.5 385t377.5 139t378 -138.5t126 -385.5t-127 -384t-376.5 -137t-376.5 137.5t-127 383.5zM791 1460h264l-248 -385h-193zM383 1460h262l-246 -385
h-194z" />
    <glyph glyph-name="OE" unicode="&#x152;" horiz-adv-x="1654" 
d="M657 1176q-376 0 -376 -514t376 -515h117v1029h-117zM68 659q0 342 157.5 504t483.5 162h878v-264h-196v41q0 39 -18.5 56.5t-59.5 17.5h-322v-437h320v-151h-320v-438h322q41 0 59.5 17t18.5 58v41h196v-266h-878q-318 0 -479.5 158.5t-161.5 500.5z" />
    <glyph glyph-name="oe" unicode="&#x153;" horiz-adv-x="1896" 
d="M862 580.5q0 279.5 -291 279.5q-147 0 -217.5 -91t-70.5 -279t70.5 -277.5t218 -89.5t219 89t71.5 368.5zM1618 567q0 156 -64.5 227.5t-197.5 71.5t-206 -76.5t-73 -222.5h541zM580 -31q-258 0 -385 137.5t-127 383.5t125.5 385t388.5 139t387 -197q125 197 391 197
q231 0 350 -129t119 -357v-94h-752q0 -160 84 -241.5t224 -81.5t219 49v73h190v-143q-171 -121 -429 -121q-259 0 -392 197q-135 -197 -393 -197z" />
    <glyph glyph-name="Racute" unicode="&#x154;" horiz-adv-x="1273" 
d="M705 682q258 0 258 256q0 125 -61.5 180.5t-196.5 55.5h-285v-492h285zM68 150h55q45 0 62.5 18t17.5 57v875q0 39 -17.5 56.5t-62.5 17.5h-55v151h669q207 0 322 -101.5t115 -271.5t-84 -271t-238 -130l180 -336q35 -65 119 -65h55v-150h-448v150h98l-205 380h-231v-309
q0 -39 15.5 -55t56.5 -16h47v-150h-471v150zM616 1802h256l-233 -366h-186z" />
    <glyph glyph-name="racute" unicode="&#x155;" horiz-adv-x="790" 
d="M743 983v-152h-114q-117 0 -166 -52t-49 -161v-391q0 -41 16 -58t55 -17h52v-152h-469v152h51q41 0 58.5 17t17.5 58v529q0 39 -16.5 57t-55.5 18h-43v152h282l29 -113q74 113 258 113h94zM401 1444h256l-233 -367h-186z" />
    <glyph glyph-name="Rcommaaccent" unicode="&#x156;" horiz-adv-x="1273" 
d="M584 -100h237l-127 -418h-174zM705 682q258 0 258 256q0 125 -61.5 180.5t-196.5 55.5h-285v-492h285zM68 150h55q45 0 62.5 18t17.5 57v875q0 39 -17.5 56.5t-62.5 17.5h-55v151h669q207 0 322 -101.5t115 -271.5t-84 -271t-238 -130l180 -336q35 -65 119 -65h55v-150
h-448v150h98l-205 380h-231v-309q0 -39 15.5 -55t56.5 -16h47v-150h-471v150z" />
    <glyph glyph-name="rcommaaccent" unicode="&#x157;" horiz-adv-x="790" 
d="M260 -100h238l-127 -418h-174zM743 983v-152h-114q-117 0 -166 -52t-49 -161v-391q0 -41 16 -58t55 -17h52v-152h-469v152h51q41 0 58.5 17t17.5 58v529q0 39 -16.5 57t-55.5 18h-43v152h282l29 -113q74 113 258 113h94z" />
    <glyph glyph-name="Rcaron" unicode="&#x158;" horiz-adv-x="1273" 
d="M705 682q258 0 258 256q0 125 -61.5 180.5t-196.5 55.5h-285v-492h285zM68 150h55q45 0 62.5 18t17.5 57v875q0 39 -17.5 56.5t-62.5 17.5h-55v151h669q207 0 322 -101.5t115 -271.5t-84 -271t-238 -130l180 -336q35 -65 119 -65h55v-150h-448v150h98l-205 380h-231v-309
q0 -39 15.5 -55t56.5 -16h47v-150h-471v150zM256 1821h203l157 -258l158 258h205l-256 -385h-211z" />
    <glyph glyph-name="rcaron" unicode="&#x159;" horiz-adv-x="790" 
d="M743 983v-152h-114q-117 0 -166 -52t-49 -161v-391q0 -41 16 -58t55 -17h52v-152h-469v152h51q41 0 58.5 17t17.5 58v529q0 39 -16.5 57t-55.5 18h-43v152h282l29 -113q74 113 258 113h94zM59 1460h203l158 -258l158 258h204l-256 -385h-211z" />
    <glyph glyph-name="Sacute" unicode="&#x15a;" horiz-adv-x="1093" 
d="M545 1204q-254 0 -254 -194q0 -70 43 -117t98.5 -74t191.5 -81t269 -128.5t133 -279.5q0 -104 -54 -185.5t-158 -128.5t-250 -47t-275 41t-221 111v201h219v-134q110 -67 256 -67q272 0 272 201q0 121 -95.5 172t-225.5 102t-272 133.5t-142 265.5t133 272t342 89
q266 0 446 -142v-190h-219v127q-90 53 -237 53zM580 1802h256l-234 -366h-186z" />
    <glyph glyph-name="sacute" unicode="&#x15b;" horiz-adv-x="946" 
d="M458 117q198 -1 199 111q0 54 -23.5 82t-64.5 47.5t-161.5 68.5t-225 107.5t-104.5 200.5t104.5 211t284.5 69q234 0 389 -115v-154h-197v76q-74 45 -171 45t-143 -29t-46 -93t49 -98t115 -56q171 -58 293.5 -125.5t122.5 -224.5q0 -131 -99.5 -201t-323.5 -70t-388 119
v160h200v-82q84 -49 190 -49zM492 1444h256l-234 -367h-186z" />
    <glyph glyph-name="Scircumflex" unicode="&#x15c;" horiz-adv-x="1093" 
d="M545 1204q-254 0 -254 -194q0 -70 43 -117t98.5 -74t191.5 -81t269 -128.5t133 -279.5q0 -104 -54 -185.5t-158 -128.5t-250 -47t-275 41t-221 111v201h219v-134q110 -67 256 -67q272 0 272 201q0 121 -95.5 172t-225.5 102t-272 133.5t-142 265.5t133 272t342 89
q266 0 446 -142v-190h-219v127q-90 53 -237 53zM449 1821h210l256 -385h-204l-158 258l-158 -258h-202z" />
    <glyph glyph-name="scircumflex" unicode="&#x15d;" horiz-adv-x="946" 
d="M458 117q198 -1 199 111q0 54 -23.5 82t-64.5 47.5t-161.5 68.5t-225 107.5t-104.5 200.5t104.5 211t284.5 69q234 0 389 -115v-154h-197v76q-74 45 -171 45t-143 -29t-46 -93t49 -98t115 -56q171 -58 293.5 -125.5t122.5 -224.5q0 -131 -99.5 -201t-323.5 -70t-388 119
v160h200v-82q84 -49 190 -49zM346 1460h211l256 -385h-205l-157 258l-158 -258h-203z" />
    <glyph glyph-name="Scedilla" unicode="&#x15e;" horiz-adv-x="1093" 
d="M545 1204q-254 0 -254 -194q0 -70 43 -117t98.5 -74t191.5 -81t269 -128.5t133 -279.5q0 -144 -100.5 -241t-284.5 -116l-10 -67q88 -14 126 -59t38 -129t-70.5 -134.5t-180.5 -50.5t-182 27v127q63 -27 136 -27q115 0 114 74q0 53 -37.5 75.5t-148.5 22.5l20 143
q-226 29 -378 146v201h219v-134q110 -67 256 -67q272 0 272 201q0 121 -95.5 172t-225.5 102t-272 133.5t-142 265.5t133 272t342 89q266 0 446 -142v-190h-219v127q-90 53 -237 53z" />
    <glyph glyph-name="scedilla" unicode="&#x15f;" horiz-adv-x="946" 
d="M458 117q198 -1 199 111q0 54 -23.5 82t-64.5 47.5t-161.5 68.5t-225 107.5t-104.5 200.5t104.5 211t284.5 69q234 0 389 -115v-154h-197v76q-74 45 -171 45t-143 -29t-46 -93t49 -98t115 -56q171 -58 293.5 -125.5t122.5 -224.5q0 -233 -299 -267l-11 -67
q88 -14 126 -59t38 -129t-69.5 -134.5t-179.5 -50.5t-183 27v127q63 -27 133 -27q117 0 117 74q0 53 -38 75.5t-148 22.5l20 141q-184 18 -317 115v160h200v-82q84 -49 190 -49z" />
    <glyph glyph-name="Scaron" unicode="&#x160;" horiz-adv-x="1093" 
d="M545 1204q-254 0 -254 -194q0 -70 43 -117t98.5 -74t191.5 -81t269 -128.5t133 -279.5q0 -104 -54 -185.5t-158 -128.5t-250 -47t-275 41t-221 111v201h219v-134q110 -67 256 -67q272 0 272 201q0 121 -95.5 172t-225.5 102t-272 133.5t-142 265.5t133 272t342 89
q266 0 446 -142v-190h-219v127q-90 53 -237 53zM199 1821h202l158 -258l158 258h205l-256 -385h-211z" />
    <glyph glyph-name="scaron" unicode="&#x161;" horiz-adv-x="946" 
d="M458 117q198 -1 199 111q0 54 -23.5 82t-64.5 47.5t-161.5 68.5t-225 107.5t-104.5 200.5t104.5 211t284.5 69q234 0 389 -115v-154h-197v76q-74 45 -171 45t-143 -29t-46 -93t49 -98t115 -56q171 -58 293.5 -125.5t122.5 -224.5q0 -131 -99.5 -201t-323.5 -70t-388 119
v160h200v-82q84 -49 190 -49zM84 1460h203l157 -258l158 258h205l-256 -385h-211z" />
    <glyph glyph-name="uni0162" unicode="&#x162;" horiz-adv-x="1165" 
d="M1118 1323v-291h-162v66q0 41 -17 57t-60 16h-187v-946q0 -39 17.5 -56t62.5 -17h55v-152h-184l-14 -94q88 -14 127 -59t39 -129t-69.5 -134.5t-181.5 -50.5t-184 27v127q63 -27 136 -27q117 0 116 74q0 53 -37.5 75.5t-150.5 22.5l25 168h-109v152h55q45 0 62.5 17
t17.5 56v946h-188q-41 0 -59.5 -17t-18.5 -56v-66h-162v291h1071z" />
    <glyph glyph-name="uni0163" unicode="&#x163;" horiz-adv-x="890" 
d="M207 299v537h-160v147h160v221l217 70v-291h295v-147h-295v-551q0 -90 34 -129t114 -39t126 39v88h187v-156q-113 -97 -260 -115l-11 -67q88 -14 127 -59t39 -129t-69 -134.5t-181 -50.5t-184 27v127q63 -27 135 -27q117 0 117 74q0 53 -38 75.5t-150 22.5l22 150
q-225 55 -225 317z" />
    <glyph glyph-name="Tcaron" unicode="&#x164;" horiz-adv-x="1165" 
d="M340 152h55q45 0 62.5 17t17.5 56v946h-188q-41 0 -59.5 -17t-18.5 -56v-66h-162v291h1071v-291h-162v66q0 41 -17 57t-60 16h-187v-946q0 -39 17.5 -56t62.5 -17h55v-152h-487v152zM221 1821h203l158 -258l157 258h205l-256 -385h-211z" />
    <glyph glyph-name="tcaron" unicode="&#x165;" horiz-adv-x="890" 
d="M207 299v537h-160v147h160v221l217 70v-291h295v-147h-295v-551q0 -90 34 -129t114 -39t126 39v88h187v-156q-142 -119 -324 -119q-354 0 -354 330zM666 1552h237l-127 -417h-174z" />
    <glyph glyph-name="Tbar" unicode="&#x166;" horiz-adv-x="1165" 
d="M1118 1323v-291h-162v66q0 41 -17 57t-60 16h-187v-430h258v-141h-258v-375q0 -39 17.5 -56t62.5 -17h55v-152h-487v152h55q45 0 62.5 17t17.5 56v375h-225v141h225v430h-188q-41 0 -59.5 -17t-18.5 -56v-66h-162v291h1071z" />
    <glyph glyph-name="tbar" unicode="&#x167;" horiz-adv-x="890" 
d="M207 299v162h-141v141h141v234h-160v147h160v221l217 70v-291h297v-147h-297v-234h342v-141h-342v-176q0 -90 34 -129t114 -39t126 39v88h187v-156q-142 -119 -324 -119q-354 0 -354 330z" />
    <glyph glyph-name="Utilde" unicode="&#x168;" horiz-adv-x="1353" 
d="M1257 1178q-75 0 -75 -74v-731q0 -186 -127 -295t-379 -109t-379 108.5t-127 295.5v731q0 39 -17.5 56.5t-58.5 17.5h-47v147h453v-147h-39q-39 0 -56.5 -18.5t-17.5 -59.5v-740q0 -241 289 -241t289 241v740q0 41 -17.5 59.5t-58.5 18.5h-39v147h457v-147h-50zM242 1436
q0 280 209 280q101 0 197 -55t143 -55t68.5 24.5t21.5 85.5h159q0 -147 -53 -213.5t-151 -66.5t-195 54q-98 54 -146 54t-71 -24.5t-23 -83.5h-159z" />
    <glyph glyph-name="utilde" unicode="&#x169;" horiz-adv-x="1204" 
d="M180 756q0 75 -74 75h-59v152h352v-672q0 -199 193 -198q104 0 167.5 61.5t63.5 175.5v406q0 39 -15 57t-52 18h-58v152h342v-756q0 -39 18.5 -56t57.5 -17h41v-154h-260l-12 133q-66 -86 -153 -125t-212 -39q-168 0 -254 88t-86 252v447zM170 1077q0 281 211 281
q102 0 207 -64q85 -47 131 -47q47 0 68.5 24.5t21.5 86.5h160q0 -147 -53.5 -214t-150.5 -67q-97 1 -195 55t-147 54q-48 0 -70.5 -24.5t-22.5 -84.5h-160z" />
    <glyph glyph-name="Umacron" unicode="&#x16a;" horiz-adv-x="1353" 
d="M1257 1178q-75 0 -75 -74v-731q0 -186 -127 -295t-379 -109t-379 108.5t-127 295.5v731q0 39 -17.5 56.5t-58.5 17.5h-47v147h453v-147h-39q-39 0 -56.5 -18.5t-17.5 -59.5v-740q0 -241 289 -241t289 241v740q0 41 -17.5 59.5t-58.5 18.5h-39v147h457v-147h-50zM340 1618
h592v-141h-592v141z" />
    <glyph glyph-name="umacron" unicode="&#x16b;" horiz-adv-x="1204" 
d="M180 756q0 75 -74 75h-59v152h352v-672q0 -199 193 -198q104 0 167.5 61.5t63.5 175.5v406q0 39 -15 57t-52 18h-58v152h342v-756q0 -39 18.5 -56t57.5 -17h41v-154h-260l-12 133q-66 -86 -153 -125t-212 -39q-168 0 -254 88t-86 252v447zM254 1260h592v-142h-592v142z
" />
    <glyph glyph-name="Ubreve" unicode="&#x16c;" horiz-adv-x="1353" 
d="M1257 1178q-75 0 -75 -74v-731q0 -186 -127 -295t-379 -109t-379 108.5t-127 295.5v731q0 39 -17.5 56.5t-58.5 17.5h-47v147h453v-147h-39q-39 0 -56.5 -18.5t-17.5 -59.5v-740q0 -241 289 -241t289 241v740q0 41 -17.5 59.5t-58.5 18.5h-39v147h457v-147h-50zM348 1729
h178q0 -74 39 -114t110 -40t108.5 40t37.5 114h178q0 -133 -88 -213t-237.5 -80t-237.5 79.5t-88 213.5z" />
    <glyph glyph-name="ubreve" unicode="&#x16d;" horiz-adv-x="1204" 
d="M180 756q0 75 -74 75h-59v152h352v-672q0 -199 193 -198q104 0 167.5 61.5t63.5 175.5v406q0 39 -15 57t-52 18h-58v152h342v-756q0 -39 18.5 -56t57.5 -17h41v-154h-260l-12 133q-66 -86 -153 -125t-212 -39q-168 0 -254 88t-86 252v447zM233 1386h179
q0 -74 38.5 -113.5t109.5 -39.5t109 40t38 113h178q0 -133 -88 -212.5t-237.5 -79.5t-238 79.5t-88.5 212.5z" />
    <glyph glyph-name="Uring" unicode="&#x16e;" horiz-adv-x="1353" 
d="M1257 1178q-75 0 -75 -74v-731q0 -186 -127 -295t-379 -109t-379 108.5t-127 295.5v731q0 39 -17.5 56.5t-58.5 17.5h-47v147h453v-147h-39q-39 0 -56.5 -18.5t-17.5 -59.5v-740q0 -241 289 -241t289 241v740q0 41 -17.5 59.5t-58.5 18.5h-39v147h457v-147h-50zM786 1666
q0 46 -31.5 78t-76.5 32t-77 -32t-32 -78t32 -78t78 -32t76.5 32t30.5 78zM446 1665q0 96 68 164.5t164 68.5t164.5 -68.5t68.5 -164.5t-68.5 -163.5t-164.5 -67.5t-164 67.5t-68 163.5z" />
    <glyph glyph-name="uring" unicode="&#x16f;" horiz-adv-x="1204" 
d="M180 756q0 75 -74 75h-59v152h352v-672q0 -199 193 -198q104 0 167.5 61.5t63.5 175.5v406q0 39 -15 57t-52 18h-58v152h342v-756q0 -39 18.5 -56t57.5 -17h41v-154h-260l-12 133q-66 -86 -153 -125t-212 -39q-168 0 -254 88t-86 252v447zM651 1308q0 46 -31.5 77.5
t-76.5 31.5t-77 -31.5t-32 -77.5t32 -78t78 -32t76.5 32t30.5 78zM311 1306.5q0 96.5 67.5 165t164 68.5t165 -68.5t68.5 -165t-68.5 -164t-165 -67.5t-164 67.5t-67.5 164z" />
    <glyph glyph-name="Uhungarumlaut" unicode="&#x170;" horiz-adv-x="1353" 
d="M1257 1178q-75 0 -75 -74v-731q0 -186 -127 -295t-379 -109t-379 108.5t-127 295.5v731q0 39 -17.5 56.5t-58.5 17.5h-47v147h453v-147h-39q-39 0 -56.5 -18.5t-17.5 -59.5v-740q0 -241 289 -241t289 241v740q0 41 -17.5 59.5t-58.5 18.5h-39v147h457v-147h-50zM907 1819
h264l-247 -385h-193zM500 1819h262l-246 -385h-194z" />
    <glyph glyph-name="uhungarumlaut" unicode="&#x171;" horiz-adv-x="1204" 
d="M180 756q0 75 -74 75h-59v152h352v-672q0 -199 193 -198q104 0 167.5 61.5t63.5 175.5v406q0 39 -15 57t-52 18h-58v152h342v-756q0 -39 18.5 -56t57.5 -17h41v-154h-260l-12 133q-66 -86 -153 -125t-212 -39q-168 0 -254 88t-86 252v447zM786 1460h265l-248 -385h-193z
M379 1460h262l-246 -385h-194z" />
    <glyph glyph-name="Uogonek" unicode="&#x172;" horiz-adv-x="1351" 
d="M387 360q0 -241 289 -241t289 241v740q0 41 -17.5 59.5t-58.5 18.5h-39v147h455v-147h-50q-75 0 -75 -74v-731q0 -166 -100.5 -271.5t-301.5 -126.5q-74 -75 -74 -165t76 -91q43 0 86 17v-127q-47 -31 -121 -37l-51 2q-78 8 -125 59t-47 153t78 185q-215 16 -322.5 123
t-107.5 279v731q0 39 -17.5 56.5t-58.5 17.5h-47v147h453v-147h-39q-39 0 -56.5 -18.5t-17.5 -59.5v-740z" />
    <glyph glyph-name="uogonek" unicode="&#x173;" horiz-adv-x="1204" 
d="M954 -183q0 -97 76 -98q41 0 86 17v-127q-51 -37 -140 -37t-146.5 50t-57.5 151q0 137 105 227h20l-12 133q-66 -86 -153 -125t-212 -39q-168 0 -254 88t-86 252v447q0 75 -74 75h-59v152h352v-672q0 -199 193 -198q104 0 167.5 61.5t63.5 175.5v406q0 39 -15 57t-52 18
h-58v152h342v-756q0 -39 18.5 -56t57.5 -17h41v-154h-100q-103 -86 -103 -183z" />
    <glyph glyph-name="Wcircumflex" unicode="&#x174;" horiz-adv-x="1783" 
d="M111 1174h-43v151h315l201 -950l221 727h172l223 -727l203 950h313v-151h-45q-59 0 -83.5 -17.5t-35.5 -66.5l-243 -1090h-179l-239 754l-236 -754h-180l-246 1090q-10 49 -34.5 66.5t-83.5 17.5zM786 1821h211l256 -385h-204l-158 258l-158 -258h-203z" />
    <glyph glyph-name="wcircumflex" unicode="&#x175;" horiz-adv-x="1570" 
d="M98 842h-51v141h285l172 -737l201 649h159l201 -649l176 737h283v-141h-51q-43 0 -62.5 -12.5t-28.5 -45.5l-188 -784h-213l-195 625l-196 -625h-213l-189 784q-8 33 -27.5 45.5t-62.5 12.5zM682 1460h211l256 -385h-205l-158 258l-157 -258h-203z" />
    <glyph glyph-name="Ycircumflex" unicode="&#x176;" horiz-adv-x="1363" 
d="M791 223q0 -76 75 -76h47v-147h-460v147h47q41 0 58 18.5t17 57.5v262l-331 611q-27 47 -53.5 64.5t-75.5 17.5h-47v147h446v-147h-29q-45 0 -45 -27q0 -18 17 -47l227 -440l225 440q14 27 15 47q0 27 -43 27h-31v147h446v-147h-47q-49 0 -75.5 -17.5t-53.5 -64.5
l-329 -611v-262zM582 1821h211l256 -385h-205l-158 258l-158 -258h-202z" />
    <glyph glyph-name="ycircumflex" unicode="&#x177;" horiz-adv-x="1159" 
d="M182 756q0 75 -76 75h-59v152h352v-631q0 -201 199 -200q106 0 169.5 60t63.5 175v369q0 41 -15 58t-54 17h-53v152h342v-965q0 -195 -112 -311.5t-302 -116.5q-250 1 -397 142v147h190v-74q68 -74 199 -73q215 0 215 241v146q-109 -109 -287 -109t-276.5 91.5
t-98.5 256.5v398zM461 1460h211l256 -385h-205l-158 258l-157 -258h-203z" />
    <glyph glyph-name="Ydieresis" unicode="&#x178;" horiz-adv-x="1363" 
d="M791 223q0 -76 75 -76h47v-147h-460v147h47q41 0 58 18.5t17 57.5v262l-331 611q-27 47 -53.5 64.5t-75.5 17.5h-47v147h446v-147h-29q-45 0 -45 -27q0 -18 17 -47l227 -440l225 440q14 27 15 47q0 27 -43 27h-31v147h446v-147h-47q-49 0 -75.5 -17.5t-53.5 -64.5
l-329 -611v-262zM805 1671h190v-196h-190v196zM369 1671h188v-196h-188v196z" />
    <glyph glyph-name="Zacute" unicode="&#x179;" horiz-adv-x="1150" 
d="M367 1178q-43 0 -60.5 -17.5t-17.5 -56.5v-41h-197v262h961v-127l-731 -1051h487q41 0 59.5 17.5t18.5 58.5v39h196v-262h-1015v127l741 1051h-442zM580 1802h256l-234 -366h-186z" />
    <glyph glyph-name="zacute" unicode="&#x17a;" horiz-adv-x="1015" 
d="M315 834q-41 0 -59 -17.5t-18 -56.5v-41h-148v264h838v-119l-598 -714h393q43 0 60.5 17t17.5 56v41h147v-264h-880v117l600 717h-353zM530 1444h256l-233 -367h-186z" />
    <glyph glyph-name="Zdotaccent" unicode="&#x17b;" horiz-adv-x="1150" 
d="M367 1178q-43 0 -60.5 -17.5t-17.5 -56.5v-41h-197v262h961v-127l-731 -1051h487q41 0 59.5 17.5t18.5 58.5v39h196v-262h-1015v127l741 1051h-442zM471 1655h188v-197h-188v197z" />
    <glyph glyph-name="zdotaccent" unicode="&#x17c;" horiz-adv-x="1015" 
d="M315 834q-41 0 -59 -17.5t-18 -56.5v-41h-148v264h838v-119l-598 -714h393q43 0 60.5 17t17.5 56v41h147v-264h-880v117l600 717h-353zM403 1313h189v-197h-189v197z" />
    <glyph glyph-name="Zcaron" unicode="&#x17d;" horiz-adv-x="1150" 
d="M367 1178q-43 0 -60.5 -17.5t-17.5 -56.5v-41h-197v262h961v-127l-731 -1051h487q41 0 59.5 17.5t18.5 58.5v39h196v-262h-1015v127l741 1051h-442zM201 1821h202l158 -258l158 258h205l-256 -385h-211z" />
    <glyph glyph-name="zcaron" unicode="&#x17e;" horiz-adv-x="1015" 
d="M315 834q-41 0 -59 -17.5t-18 -56.5v-41h-148v264h838v-119l-598 -714h393q43 0 60.5 17t17.5 56v41h147v-264h-880v117l600 717h-353zM139 1460h203l158 -258l157 258h205l-256 -385h-211z" />
    <glyph glyph-name="uni018F" unicode="&#x18f;" horiz-adv-x="1384" 
d="M291 592q0 -471 402 -471q206 0 308.5 131t102.5 340h-813zM672 1356q188 0 333.5 -73t228.5 -222.5t83 -374.5q0 -352 -161 -534.5t-469 -182.5t-463.5 176.5t-155.5 468.5v131h1036q0 223 -118 341t-328 118t-326 -63v-131h-219v188q210 158 559 158z" />
    <glyph glyph-name="florin" unicode="&#x192;" horiz-adv-x="1212" 
d="M-9 -178q75 0 118 41t61 131l178 840h-160l33 149h158l14 64q39 170 140 254.5t293 84.5t298 -110l-32 -158h-183l19 84q-37 37 -119 37q-162 0 -195 -172l-16 -84h297l-33 -149h-297l-174 -820q-37 -168 -131 -254t-290 -86t-300 109l35 160h180l-18 -86q49 -35 124 -35
z" />
    <glyph glyph-name="Ohorn" unicode="&#x1a0;" horiz-adv-x="1454" 
d="M1069 660q0 290 -95 417t-299 127t-299 -127t-95 -417t96 -414.5t298 -124.5t298 124.5t96 414.5zM68 659q0 348 146 522.5t458 174.5t458 -172q66 8 91.5 45t25.5 108v74h211v-76q0 -248 -241 -291q66 -150 65 -387q0 -346 -149.5 -517t-457.5 -171t-457.5 171
t-149.5 519z" />
    <glyph glyph-name="ohorn" unicode="&#x1a1;" horiz-adv-x="1267" 
d="M862 490q0 187 -71.5 278.5t-219 91.5t-218 -91t-70.5 -279t70.5 -277.5t218 -89.5t219 90t71.5 277zM68 490q0 246 125.5 385t373.5 139t379 -137q66 8 91.5 43.5t25.5 107.5v74h209v-76q0 -121 -56.5 -193.5t-181.5 -95.5q41 -102 41 -248q0 -246 -127 -383
t-376.5 -137t-376.5 137.5t-127 383.5z" />
    <glyph glyph-name="Uhorn" unicode="&#x1af;" horiz-adv-x="1501" 
d="M1505 1335q0 -288 -325 -303v-659q0 -186 -126 -295t-378 -109t-379 108.5t-127 295.5v731q0 39 -17.5 56.5t-58.5 17.5h-47v147h453v-147h-39q-39 0 -56.5 -18.5t-17.5 -59.5v-740q0 -241 289 -241t289 241v740q0 41 -17.5 59.5t-58.5 18.5h-39v147h330v-137q66 4 91 40
t25 109v74h209v-76z" />
    <glyph glyph-name="uhorn" unicode="&#x1b0;" horiz-adv-x="1355" 
d="M180 756q0 75 -74 75h-59v152h352v-672q0 -199 193 -198q104 0 167.5 61.5t63.5 175.5v406q0 39 -15 57t-52 18h-58v152h342v-104q63 6 87 41.5t24 107.5v74h209v-76q0 -137 -75 -215t-245 -88v-496q0 -39 18.5 -56t57.5 -17h41v-154h-260l-12 133q-72 -86 -156 -125
t-209 -39q-168 0 -254 88t-86 252v447z" />
    <glyph glyph-name="uni01CD" unicode="&#x1cd;" horiz-adv-x="1472" 
d="M909 541l-170 499l-174 -499h344zM68 150h63q47 0 72.5 16t40.5 57l391 1102h207l387 -1102q14 -41 40.5 -57t73.5 -16h62v-150h-467v150h102l-90 262h-426l-90 -262h103v-150h-469v150zM381 1819h203l157 -258l158 258h205l-256 -385h-211z" />
    <glyph glyph-name="uni01CE" unicode="&#x1ce;" horiz-adv-x="1071" 
d="M248 254q0 -137 182 -137q123 0 194.5 53t71.5 162v98l-270 -20q-100 -6 -139 -42t-39 -114zM503 866q-111 0 -179 -47v-74h-191v162q172 106 387 107q393 0 393 -348v-449q0 -41 15.5 -59.5t50.5 -18.5h45v-139h-236l-26 129q-66 -84 -153 -122t-239 -38t-237.5 72
t-85.5 211t93 207.5t270 81.5l286 18v125q0 96 -41 139t-152 43zM147 1460h203l158 -258l158 258h204l-256 -385h-211z" />
    <glyph glyph-name="uni01CF" unicode="&#x1cf;" horiz-adv-x="620" 
d="M68 150h59q41 0 58.5 18t17.5 59v873q0 39 -17.5 56.5t-58.5 17.5h-59v151h485v-151h-59q-39 0 -56.5 -17.5t-17.5 -56.5v-875q0 -41 17.5 -58t56.5 -17h59v-150h-485v150zM-51 1821h203l157 -258l158 258h205l-256 -385h-211z" />
    <glyph glyph-name="uni01D0" unicode="&#x1d0;" horiz-adv-x="583" 
d="M401 227q0 -75 76 -75h60v-152h-490v152h59q41 0 58.5 18t17.5 59v527q0 39 -17.5 56t-58.5 17h-59v154h354v-756zM-96 1460h202l158 -258l158 258h205l-256 -385h-211z" />
    <glyph glyph-name="uni01D1" unicode="&#x1d1;" horiz-adv-x="1349" 
d="M1069 660q0 290 -95 417t-299 127t-299 -127t-95 -417t96 -414.5t298 -124.5t298 124.5t96 414.5zM68 659q0 348 146 522.5t460 174.5t461 -174t147 -522t-149.5 -519.5t-457.5 -171.5t-457.5 171t-149.5 519zM311 1821h203l158 -258l157 258h205l-256 -385h-211z" />
    <glyph glyph-name="uni01D2" unicode="&#x1d2;" horiz-adv-x="1142" 
d="M862 490q0 187 -71.5 278.5t-219 91.5t-218 -91t-70.5 -279t70.5 -277.5t218 -89.5t219 90t71.5 277zM68 490q0 246 125.5 385t377.5 139t378 -138.5t126 -385.5t-127 -384t-376.5 -137t-376.5 137.5t-127 383.5zM211 1460h203l157 -258l158 258h205l-256 -385h-211z" />
    <glyph glyph-name="uni01D3" unicode="&#x1d3;" horiz-adv-x="1353" 
d="M1257 1178q-75 0 -75 -74v-731q0 -186 -127 -295t-379 -109t-379 108.5t-127 295.5v731q0 39 -17.5 56.5t-58.5 17.5h-47v147h453v-147h-39q-39 0 -56.5 -18.5t-17.5 -59.5v-740q0 -241 289 -241t289 241v740q0 41 -17.5 59.5t-58.5 18.5h-39v147h457v-147h-50zM315 1821
h203l158 -258l158 258h204l-256 -385h-211z" />
    <glyph glyph-name="uni01D4" unicode="&#x1d4;" horiz-adv-x="1204" 
d="M180 756q0 75 -74 75h-59v152h352v-672q0 -199 193 -198q104 0 167.5 61.5t63.5 175.5v406q0 39 -15 57t-52 18h-58v152h342v-756q0 -39 18.5 -56t57.5 -17h41v-154h-260l-12 133q-66 -86 -153 -125t-212 -39q-168 0 -254 88t-86 252v447zM207 1460h203l157 -258l158 258
h205l-256 -385h-211z" />
    <glyph glyph-name="uni01D5" unicode="&#x1d5;" horiz-adv-x="1353" 
d="M1257 1178q-75 0 -75 -74v-731q0 -186 -127 -295t-379 -109t-379 108.5t-127 295.5v731q0 39 -17.5 56.5t-58.5 17.5h-47v147h453v-147h-39q-39 0 -56.5 -18.5t-17.5 -59.5v-740q0 -241 289 -241t289 241v740q0 41 -17.5 59.5t-58.5 18.5h-39v147h457v-147h-50zM797 1655
h190v-197h-190v197zM360 1655h189v-197h-189v197zM379 1944h592v-142h-592v142z" />
    <glyph glyph-name="uni01D6" unicode="&#x1d6;" horiz-adv-x="1204" 
d="M180 756q0 75 -74 75h-59v152h352v-672q0 -199 193 -198q104 0 167.5 61.5t63.5 175.5v406q0 39 -15 57t-52 18h-58v152h342v-756q0 -39 18.5 -56t57.5 -17h41v-154h-260l-12 133q-66 -86 -153 -125t-212 -39q-168 0 -254 88t-86 252v447zM680 1294h190v-196h-190v196z
M244 1294h188v-196h-188v196zM262 1550h592v-141h-592v141z" />
    <glyph glyph-name="uni01D7" unicode="&#x1d7;" horiz-adv-x="1353" 
d="M1257 1178q-75 0 -75 -74v-731q0 -186 -127 -295t-379 -109t-379 108.5t-127 295.5v731q0 39 -17.5 56.5t-58.5 17.5h-47v147h453v-147h-39q-39 0 -56.5 -18.5t-17.5 -59.5v-740q0 -241 289 -241t289 241v740q0 41 -17.5 59.5t-58.5 18.5h-39v147h457v-147h-50zM803 1679
h190v-196h-190v196zM367 1679h188v-196h-188v196zM731 1982h232l-201 -260h-160z" />
    <glyph glyph-name="uni01D8" unicode="&#x1d8;" horiz-adv-x="1204" 
d="M180 756q0 75 -74 75h-59v152h352v-672q0 -199 193 -198q104 0 167.5 61.5t63.5 175.5v406q0 39 -15 57t-52 18h-58v152h342v-756q0 -39 18.5 -56t57.5 -17h41v-154h-260l-12 133q-66 -86 -153 -125t-212 -39q-168 0 -254 88t-86 252v447zM670 1321h190v-197h-190v197z
M233 1321h189v-197h-189v197zM598 1624h231l-200 -260h-160z" />
    <glyph glyph-name="uni01D9" unicode="&#x1d9;" horiz-adv-x="1353" 
d="M1257 1178q-75 0 -75 -74v-731q0 -186 -127 -295t-379 -109t-379 108.5t-127 295.5v731q0 39 -17.5 56.5t-58.5 17.5h-47v147h453v-147h-39q-39 0 -56.5 -18.5t-17.5 -59.5v-740q0 -241 289 -241t289 241v740q0 41 -17.5 59.5t-58.5 18.5h-39v147h457v-147h-50zM797 1679
h188v-196h-188v196zM358 1679h191v-196h-191v196zM352 1999h193l127 -174l131 174h192l-219 -277h-207z" />
    <glyph glyph-name="uni01DA" unicode="&#x1da;" horiz-adv-x="1204" 
d="M180 756q0 75 -74 75h-59v152h352v-672q0 -199 193 -198q104 0 167.5 61.5t63.5 175.5v406q0 39 -15 57t-52 18h-58v152h342v-756q0 -39 18.5 -56t57.5 -17h41v-154h-260l-12 133q-66 -86 -153 -125t-212 -39q-168 0 -254 88t-86 252v447zM680 1321h188v-197h-188v197z
M242 1321h190v-197h-190v197zM236 1640h192l127 -174l131 174h193l-220 -276h-206z" />
    <glyph glyph-name="uni01DB" unicode="&#x1db;" horiz-adv-x="1353" 
d="M1257 1178q-75 0 -75 -74v-731q0 -186 -127 -295t-379 -109t-379 108.5t-127 295.5v731q0 39 -17.5 56.5t-58.5 17.5h-47v147h453v-147h-39q-39 0 -56.5 -18.5t-17.5 -59.5v-740q0 -241 289 -241t289 241v740q0 41 -17.5 59.5t-58.5 18.5h-39v147h457v-147h-50zM797 1679
h188v-196h-188v196zM358 1679h191v-196h-191v196zM389 1982h232l129 -260h-160z" />
    <glyph glyph-name="uni01DC" unicode="&#x1dc;" horiz-adv-x="1204" 
d="M180 756q0 75 -74 75h-59v152h352v-672q0 -199 193 -198q104 0 167.5 61.5t63.5 175.5v406q0 39 -15 57t-52 18h-58v152h342v-756q0 -39 18.5 -56t57.5 -17h41v-154h-260l-12 133q-66 -86 -153 -125t-212 -39q-168 0 -254 88t-86 252v447zM672 1321h188v-197h-188v197z
M233 1321h191v-197h-191v197zM264 1624h232l129 -260h-160z" />
    <glyph glyph-name="Gcaron" unicode="&#x1e6;" horiz-adv-x="1265" 
d="M68 656q0 204 69.5 362t214 248t359.5 90q284 0 444 -115v-209h-217v127q-88 45 -227 45q-205 0 -317.5 -145.5t-112.5 -400.5t118.5 -396t331.5 -141q143 0 252 43v383h-285v151h500v-600q-190 -129 -475 -129q-211 0 -358.5 87t-222 241.5t-74.5 358.5zM356 1821h203
l158 -258l157 258h205l-256 -385h-211z" />
    <glyph glyph-name="gcaron" unicode="&#x1e7;" horiz-adv-x="1196" 
d="M823 446v95q0 145 -69.5 230t-206.5 85t-201.5 -83t-64.5 -273t63.5 -273.5t202.5 -83.5q276 0 276 303zM68 499q0 249 119.5 382t324.5 133q119 0 201 -42t143 -134l18 147h275v-141h-43q-37 0 -51.5 -19.5t-14.5 -64.5v-762q0 -184 -111.5 -296t-297.5 -112
q-243 1 -393 144v141h188v-74q69 -51 190 -51q213 0 213 215v164q-105 -145 -319 -145q-215 0 -328.5 133t-113.5 382zM256 1460h203l157 -258l158 258h205l-256 -385h-211z" />
    <glyph glyph-name="Aringacute" unicode="&#x1fa;" horiz-adv-x="1472" 
d="M909 541l-170 499l-174 -499h344zM631 1467q0 -46 31.5 -77.5t77.5 -31.5t77 31.5t31 77.5t-32 78t-77 32t-76.5 -32t-31.5 -78zM1405 150v-150h-467v150h102l-90 262h-426l-90 -262h103v-150h-469v150h63q47 0 72.5 16t40.5 57l370 1047q-49 31 -77.5 83t-28.5 113
q0 96 67.5 165t164 69t165 -68.5t68.5 -165.5q0 -61 -31 -113.5t-80 -82.5l367 -1047q14 -41 40.5 -57t73.5 -16h62zM807 1753h-186l163 367h256z" />
    <glyph glyph-name="aringacute" unicode="&#x1fb;" horiz-adv-x="1071" 
d="M248 254q0 -137 182 -137q123 0 194.5 53t71.5 162v98l-270 -20q-100 -6 -139 -42t-39 -114zM503 866q-111 0 -179 -47v-74h-191v162q172 106 387 107q393 0 393 -348v-449q0 -41 15.5 -59.5t50.5 -18.5h45v-139h-236l-26 129q-66 -84 -153 -122t-239 -38t-237.5 72
t-85.5 211t93 207.5t270 81.5l286 18v125q0 96 -41 139t-152 43zM621 1301q0 46 -32 78t-77 32t-77 -31.5t-32 -77.5t32 -78t78 -32t77 31.5t31 77.5zM281 1300.5q0 96.5 67.5 165t163.5 68.5t164.5 -68.5t68.5 -165t-68.5 -164t-164.5 -67.5t-163.5 67.5t-67.5 164z
M549 1882h256l-234 -293h-186z" />
    <glyph glyph-name="AEacute" unicode="&#x1fc;" horiz-adv-x="1716" 
d="M823 561v613h-14l-231 -613h245zM68 150h63q47 0 72.5 16t40.5 57l418 1102h987v-264h-197v39q0 41 -18.5 58.5t-59.5 17.5h-342v-437h342v-151h-342v-438h342q41 0 59.5 17t18.5 58v41h197v-266h-961v150h60q41 0 58 18t17 59v185h-293l-96 -262h103v-150h-469v150z
M1036 1802h256l-233 -366h-187z" />
    <glyph glyph-name="aeacute" unicode="&#x1fd;" horiz-adv-x="1732" 
d="M248 256q0 -139 182 -139q123 0 194.5 54t71.5 163v98l-270 -20q-100 -6 -139 -42t-39 -114zM1460 567q0 158 -63.5 228.5t-198.5 70.5t-206.5 -75.5t-71.5 -223.5h540zM47 252q0 139 93 207.5t270 81.5l286 18v125q0 96 -41 139t-147 43t-184 -47v-74h-191v162
q172 106 383 107q125 0 198.5 -39t119.5 -121q114 160 356 160t358.5 -128t116.5 -358v-94h-745q0 -160 86 -241.5t219 -81.5t221 49v76h184v-144q-156 -123 -422 -123t-383 199q-115 -199 -444 -199q-164 0 -249 72t-85 211zM879 1444h256l-234 -367h-186z" />
    <glyph glyph-name="Oslashacute" unicode="&#x1fe;" horiz-adv-x="1349" 
d="M1069 657q0 383 -174 492l-373 -1006q61 -23 154 -22q201 0 297 125t96 411zM676 1204q-205 0 -300 -127t-95 -420q0 -344 149 -460l369 993q-66 14 -123 14zM68 657q0 350 146 524.5t462 174.5q96 0 176 -19l29 74h112l-39 -102q168 -68 248 -229.5t80 -422.5
q0 -346 -149.5 -517t-456.5 -171q-117 0 -209 25l-29 -82h-112l43 117q-301 137 -301 628zM743 1802h258l-235 -366h-184z" />
    <glyph glyph-name="oslashacute" unicode="&#x1ff;" horiz-adv-x="1142" 
d="M862 508q0 206 -119 295l-245 -674q35 -6 73 -6q148 0 219.5 89.5t71.5 295.5zM571 860q-147 0 -217.5 -91t-70.5 -280q0 -231 120 -315l248 678q-49 8 -80 8zM1075 489q0 -246 -127 -383t-377 -137q-59 0 -127 11l-30 -86h-113l43 112q-137 53 -206.5 177t-69.5 306
q0 248 125.5 386.5t377.5 138.5q51 0 134 -13l34 95h111l-45 -123q270 -110 270 -484zM614 1436h258l-233 -367h-186z" />
    <glyph glyph-name="Scommaaccent" unicode="&#x218;" horiz-adv-x="1093" 
d="M434 -100h273l-195 -400h-203zM545 1204q-254 0 -254 -194q0 -70 43 -117t98.5 -74t191.5 -81t269 -128.5t133 -279.5q0 -104 -54 -185.5t-158 -128.5t-250 -47t-275 41t-221 111v201h219v-134q110 -67 256 -67q272 0 272 201q0 121 -95.5 172t-225.5 102t-272 133.5
t-142 265.5t133 272t342 89q266 0 446 -142v-190h-219v127q-90 53 -237 53z" />
    <glyph glyph-name="scommaaccent" unicode="&#x219;" horiz-adv-x="946" 
d="M354 -100h273l-195 -400h-203zM458 117q198 -1 199 111q0 54 -23.5 82t-64.5 47.5t-161.5 68.5t-225 107.5t-104.5 200.5t104.5 211t284.5 69q234 0 389 -115v-154h-197v76q-74 45 -171 45t-143 -29t-46 -93t49 -98t115 -56q171 -58 293.5 -125.5t122.5 -224.5
q0 -131 -99.5 -201t-323.5 -70t-388 119v160h200v-82q84 -49 190 -49z" />
    <glyph glyph-name="uni021A" unicode="&#x21a;" horiz-adv-x="1165" 
d="M496 -100h237l-127 -418h-174zM340 152h55q45 0 62.5 17t17.5 56v946h-188q-41 0 -59.5 -17t-18.5 -56v-66h-162v291h1071v-291h-162v66q0 41 -17 57t-60 16h-187v-946q0 -39 17.5 -56t62.5 -17h55v-152h-487v152z" />
    <glyph glyph-name="uni021B" unicode="&#x21b;" horiz-adv-x="890" 
d="M442 -100h238l-127 -418h-174zM207 299v537h-160v147h160v221l217 70v-291h295v-147h-295v-551q0 -90 34 -129t114 -39t126 39v88h187v-156q-142 -119 -324 -119q-354 0 -354 330z" />
    <glyph glyph-name="uni0237" unicode="&#x237;" horiz-adv-x="763" 
d="M655 0q0 -354 -381 -354q-195 0 -329 118v170h184v-90q58 -51 144 -51t124.5 42t38.5 140v781q0 39 -17.5 56t-58.5 17h-59v154h354v-983z" />
    <glyph glyph-name="uni0251" unicode="&#x251;" horiz-adv-x="1200" 
d="M842 442v105q0 152 -74 237.5t-203 85.5q-285 0 -284 -399q0 -188 66.5 -275t202.5 -87t214 94t78 239zM68 469q0 166 55 289t156.5 189.5t235.5 66.5t217 -38t142 -126l11 133h159v-764q0 -45 14.5 -62.5t53.5 -17.5h41v-139h-262l-19 141q-111 -170 -364 -170
q-205 0 -322.5 128t-117.5 370z" />
    <glyph glyph-name="uni0259" unicode="&#x259;" horiz-adv-x="1103" 
d="M817 414h-541q0 -299 263 -299q137 0 207.5 79.5t70.5 219.5zM519 872q-138 0 -226 -49v-75h-191v143q86 63 184.5 93t235.5 30q231 0 372.5 -130t141.5 -389t-130 -392.5t-366 -133.5t-354 130t-118 354v96h749q0 168 -80 245.5t-218 77.5z" />
    <glyph glyph-name="uni02BB" unicode="&#x2bb;" horiz-adv-x="593" 
d="M301 1337h205l-144 -450h-274z" />
    <glyph glyph-name="uni02BC" unicode="&#x2bc;" horiz-adv-x="593" 
d="M231 1337h275l-213 -450h-205z" />
    <glyph glyph-name="uni02BE" unicode="&#x2be;" 
d="M-186 1499q315 0 315 -261q0 -124 -77 -192.5t-238 -68.5v133q82 0 116.5 29.5t34.5 99.5t-34.5 98.5t-116.5 28.5v133z" />
    <glyph glyph-name="uni02BF" unicode="&#x2bf;" 
d="M-186 1238q0 261 315 261v-133q-82 0 -117 -28.5t-35 -98.5t35 -99.5t117 -29.5v-133q-162 0 -238.5 68.5t-76.5 192.5z" />
    <glyph glyph-name="circumflex" unicode="&#x2c6;" horiz-adv-x="937" 
d="M356 1493h226l268 -403h-238l-145 233l-145 -233h-234z" />
    <glyph glyph-name="caron" unicode="&#x2c7;" horiz-adv-x="899" 
d="M88 1468h203l158 -258l157 258h205l-256 -385h-211z" />
    <glyph glyph-name="uni02C8" unicode="&#x2c8;" 
d="M-113 1470h224v-368h-224v368z" />
    <glyph glyph-name="uni02C9" unicode="&#x2c9;" horiz-adv-x="1206" 
d="M307 1276h594v-141h-594v141z" />
    <glyph glyph-name="uni02CA" unicode="&#x2ca;" 
d="M37 1436h258l-234 -367h-186z" />
    <glyph glyph-name="uni02CB" unicode="&#x2cb;" 
d="M-190 1436h258l161 -367h-186z" />
    <glyph glyph-name="uni02CC" unicode="&#x2cc;" 
d="M-113 -80h224v-369h-224v369z" />
    <glyph glyph-name="breve" unicode="&#x2d8;" horiz-adv-x="827" 
d="M88 1419h178q0 -74 39 -113.5t110 -39.5t108.5 40t37.5 113h178q0 -133 -88 -213t-237.5 -80t-237.5 80t-88 213z" />
    <glyph glyph-name="dotaccent" unicode="&#x2d9;" horiz-adv-x="366" 
d="M88 1343h191v-196h-191v196z" />
    <glyph glyph-name="ring" unicode="&#x2da;" horiz-adv-x="641" 
d="M428 1285q0 46 -31.5 78t-77 32t-77 -32t-31.5 -78t31.5 -77.5t77.5 -31.5t77 31.5t31 77.5zM88 1284q0 96 67.5 165t164 69t165 -69t68.5 -165t-68.5 -163.5t-165 -67.5t-164 67.5t-67.5 163.5z" />
    <glyph glyph-name="ogonek" unicode="&#x2db;" horiz-adv-x="520" 
d="M270 -183q0 -97 76 -98q41 0 86 17v-127q-51 -37 -140 -37t-146.5 50t-57.5 151q0 137 105 227h180q-103 -86 -103 -183z" />
    <glyph glyph-name="tilde" unicode="&#x2dc;" horiz-adv-x="976" 
d="M88 1135q0 280 223 280q88 0 184 -55t142 -55q47 0 68.5 24.5t21.5 85.5h162q0 -147 -53.5 -213.5t-167.5 -66.5q-79 0 -176 54t-148 54t-73.5 -24.5t-22.5 -83.5h-160z" />
    <glyph glyph-name="hungarumlaut" unicode="&#x2dd;" horiz-adv-x="1024" 
d="M674 1477h262l-246 -385h-192zM266 1477h262l-247 -385h-193z" />
    <glyph glyph-name="gravecomb" unicode="&#x300;" 
d="M-881 1436h258l164 -367h-188z" />
    <glyph glyph-name="acutecomb" unicode="&#x301;" 
d="M-649 1436h256l-234 -367h-186z" />
    <glyph glyph-name="uni0302" unicode="&#x302;" 
d="M-104 1436h210l256 -385h-204l-158 258l-158 -258h-202z" />
    <glyph glyph-name="tildecomb" unicode="&#x303;" 
d="M-1034 1110q0 281 209 281q101 1 198 -55q96 -56 142 -56q47 0 68.5 24.5t21.5 86.5h159q0 -147 -53 -214t-149 -67t-196 54t-148 55q-47 0 -69.5 -25t-22.5 -84h-160z" />
    <glyph glyph-name="uni0304" unicode="&#x304;" 
d="M-293 1276h592v-141h-592v141z" />
    <glyph glyph-name="uni0306" unicode="&#x306;" 
d="M-326 1395h179q0 -74 38.5 -114t109.5 -40t108.5 40t37.5 114h179q0 -133 -88 -213t-238 -80t-238 80t-88 213z" />
    <glyph glyph-name="uni0307" unicode="&#x307;" 
d="M-94 1319h188v-197h-188v197z" />
    <glyph glyph-name="uni0308" unicode="&#x308;" 
d="M125 1335h190v-196h-190v196zM-311 1335h188v-196h-188v196z" />
    <glyph glyph-name="hookabovecomb" unicode="&#x309;" 
d="M-727 1180q127 0 127 88q0 39 -22.5 55t-76.5 16t-102 -18v121q59 23 148 22q236 0 235 -172q0 -127 -133 -164v-81h-176v133z" />
    <glyph glyph-name="uni030A" unicode="&#x30a;" 
d="M109 1277q0 46 -32 77.5t-77 31.5t-77 -31.5t-32 -77.5t31 -78t78 -32t78 32t31 78zM-231 1276q0 96 67.5 164.5t163.5 68.5t164.5 -68.5t68.5 -164.5t-68.5 -164t-164.5 -68t-163.5 68t-67.5 164z" />
    <glyph glyph-name="uni030B" unicode="&#x30b;" 
d="M100 1452h265l-248 -385h-193zM-307 1452h262l-246 -385h-194z" />
    <glyph glyph-name="uni030C" unicode="&#x30c;" 
d="M-360 1444h202l158 -258l158 258h204l-256 -385h-210z" />
    <glyph glyph-name="uni031B" unicode="&#x31b;" 
d="M-258 1149q94 0 130 39t36 125v73h217v-75q0 -147 -90 -225t-293 -78v141z" />
    <glyph glyph-name="dotbelowcomb" unicode="&#x323;" 
d="M-715 -127h189v-197h-189v197z" />
    <glyph glyph-name="uni0324" unicode="&#x324;" 
d="M125 -127h188v-197h-188v197zM-309 -127h188v-197h-188v197z" />
    <glyph glyph-name="uni0326" unicode="&#x326;" 
d="M-74 -100h273l-195 -400h-203z" />
    <glyph glyph-name="uni0327" unicode="&#x327;" 
d="M-96 -340q117 0 116 74q0 53 -37.5 75.5t-150.5 22.5l25 168h194l-14 -94q88 -14 127 -59t39 -129t-70 -134.5t-181 -50.5t-183 27v127q63 -27 135 -27z" />
    <glyph glyph-name="uni0328" unicode="&#x328;" 
d="M0 -183q0 -97 76 -98q41 0 86 17v-127q-50 -37 -140 -37t-147 50t-57 151q0 136 104 227h180q-102 -86 -102 -183z" />
    <glyph glyph-name="uni032E" unicode="&#x32e;" 
d="M-326 -98h179q0 -74 38.5 -114t109.5 -40t108.5 40t37.5 114h179q0 -133 -88 -214t-238 -81t-238 81t-88 214z" />
    <glyph glyph-name="uni0331" unicode="&#x331;" 
d="M-293 -129h592v-141h-592v141z" />
    <glyph glyph-name="uni0394" unicode="&#x394;" horiz-adv-x="1486" 
d="M1165 166l-422 954l-421 -954h843zM1399 0h-1311v162l555 1216h201l555 -1216v-162z" />
    <glyph glyph-name="uni03A9" unicode="&#x3a9;" horiz-adv-x="1628" 
d="M88 258h162v-39q0 -41 15.5 -55t58.5 -14h188q-160 119 -252 265t-92 337q0 301 159.5 486t485.5 185t486.5 -185t160.5 -486q0 -190 -92 -337t-252 -265h189q41 0 57 15t16 54v39h162v-258h-627v184q174 115 254 249t80 319q0 246 -106.5 383t-324.5 137t-326.5 -138.5
t-108.5 -381.5q0 -184 80 -318.5t254 -249.5v-184h-627v258z" />
    <glyph glyph-name="uni03BC" unicode="&#x3bc;" horiz-adv-x="1204" 
d="M558 -31q-101 0 -159 43v-438h-219v1182q0 75 -74 75h-59v152h352v-672q0 -199 193 -198q104 0 167.5 61.5t63.5 175.5v406q0 39 -15 57t-52 18h-58v152h342v-756q0 -39 18.5 -56t57.5 -17h41v-154h-260l-12 133q-68 -88 -147 -126t-180 -38z" />
    <glyph glyph-name="pi" unicode="&#x3c0;" horiz-adv-x="1429" 
d="M1096 -31q-312 0 -312 303v562h-333v-607q0 -41 18 -59t61 -18h54v-150h-486v150h58q43 0 61.5 18t18.5 59v607h-189v149h1153v-149h-196v-582q0 -76 20 -105.5t83 -29.5t89 43v86h186v-152q-61 -61 -127.5 -93t-158.5 -32z" />
    <glyph glyph-name="uni0E01" unicode="&#xe01;" horiz-adv-x="1159" 
d="M829 737q0 224 -264 224q-172 0 -291 -93v-26l166 -105v-96q-63 -25 -85.5 -67t-22.5 -125v-449h-221v444q0 86 26.5 144.5t91.5 95.5l-161 96v146q201 188 497 188q240 0 363 -103.5t123 -279.5v-731h-222v737z" />
    <glyph glyph-name="uni0E02" unicode="&#xe02;" horiz-adv-x="1081" 
d="M367 920q0 48 -18.5 64.5t-70 16.5t-70 -17t-18.5 -65t19 -65.5t69 -17.5t69.5 18t19.5 66zM109 451q0 164 127 280q-94 4 -131 47.5t-37 143.5t48 146t168 46t167 -43t47 -151v-68q0 -39 -17.5 -70.5t-59.5 -83.5t-66.5 -101.5t-24.5 -121.5v-113q0 -86 13 -134
t58 -76.5t139.5 -28.5t140.5 27.5t58.5 76.5t12.5 135v721h221v-704q0 -195 -94.5 -302.5t-340.5 -107.5t-337.5 107.5t-91.5 294.5v80z" />
    <glyph glyph-name="uni0E03" unicode="&#xe03;" horiz-adv-x="1140" 
d="M332 926q0 47 -18.5 64.5t-69.5 17.5t-69.5 -17.5t-18.5 -65.5t18.5 -65.5t68.5 -17.5t69.5 18.5t19.5 65.5zM168 332v39q0 88 50 160.5t124 146.5t99.5 106.5t25.5 61.5v59l-51 -31q0 -143 -183 -143q-102 0 -144 47.5t-42 147.5t39.5 144t137.5 44t133.5 -17.5
t54.5 -66.5l88 53h159v-229q0 -59 -33.5 -111.5t-102.5 -130.5t-101.5 -128t-32.5 -105v-55q0 -98 46.5 -149.5t152.5 -51.5t152 27.5t58.5 76.5t12.5 135v721h221v-704q0 -195 -94 -302.5t-338 -107.5q-323 0 -377.5 123t-54.5 240z" />
    <glyph glyph-name="uni0E04" unicode="&#xe04;" horiz-adv-x="1191" 
d="M694 488q0 48 -17.5 64.5t-68.5 16.5t-69.5 -16.5t-18.5 -64.5t19.5 -67.5t68.5 -19.5t67.5 19.5t18.5 67.5zM608 295q-162 0 -178 96l-100 -88v-303h-221v676q0 203 110.5 320.5t376.5 117.5t376.5 -117.5t110.5 -320.5v-676h-221v698q0 131 -57 197t-208 66t-209 -66
t-58 -197v-184l69 64q63 59 105 80.5t130 21.5t132.5 -43t44.5 -147t-49 -149.5t-154 -45.5z" />
    <glyph glyph-name="uni0E05" unicode="&#xe05;" horiz-adv-x="1191" 
d="M694 488q0 48 -17.5 64.5t-68.5 16.5t-69.5 -16.5t-18.5 -64.5t19.5 -67.5t68.5 -19.5t67.5 19.5t18.5 67.5zM608 295q-162 0 -178 96l-100 -88v-303h-221v811q0 150 71.5 226.5t198.5 76.5q178 0 217 -127q47 127 223 127q264 0 264 -303v-811h-221v795q0 100 -16.5 135
t-70.5 35t-75.5 -29t-21.5 -88v-23h-166v23q0 61 -17.5 89t-71.5 28t-73.5 -36t-19.5 -132v-283l69 64q63 59 105 80.5t130 21.5t132.5 -43t44.5 -147t-49 -149.5t-154 -45.5z" />
    <glyph glyph-name="uni0E06" unicode="&#xe06;" horiz-adv-x="1189" 
d="M391 164q0 47 -18.5 64.5t-68.5 17.5t-68.5 -17.5t-18.5 -65.5t19.5 -66.5t68.5 -18.5t67.5 19.5t18.5 66.5zM352 926q0 47 -18.5 64.5t-69.5 17.5t-69.5 -17.5t-18.5 -65.5t18.5 -65.5t68.5 -17.5t69.5 18.5t19.5 65.5zM86 162q0 188 197 188v78q0 76 32.5 137.5
t84.5 126.5t69.5 94t17.5 60v59l-51 -31q0 -143 -182 -143q-102 0 -144 47.5t-42 147.5t39 144t137 44t134 -17.5t54 -66.5l88 53h160v-245q0 -59 -22.5 -103.5t-66.5 -103.5t-65.5 -99t-21.5 -96v-108l356 -138v893h221v-1083h-161l-402 162q0 -96 -51 -144.5t-167 -48.5
t-165 46t-49 147z" />
    <glyph glyph-name="uni0E07" unicode="&#xe07;" horiz-adv-x="1026" 
d="M784 920q0 48 -18 64.5t-69.5 16.5t-70 -17t-18.5 -65t18.5 -65.5t68.5 -17.5t69.5 18t19.5 66zM649 733q-164 -1 -164 189q0 98 48.5 145t168.5 47t168 -46t48 -161v-561q0 -90 -17.5 -162.5t-84 -128t-202.5 -55.5h-317l-270 735h217l213 -581h114q63 0 94 25.5
t31 82.5v473q-18 -2 -47 -2z" />
    <glyph glyph-name="uni0E08" unicode="&#xe08;" horiz-adv-x="1071" 
d="M383 520q0 47 -18.5 64.5t-68.5 17.5t-68.5 -17.5t-18.5 -65.5t18.5 -65.5t68.5 -17.5t68.5 18.5t18.5 65.5zM270 338q-182 0 -182 184q0 100 47 146.5t145 46.5t139.5 -19.5t60 -60.5t34.5 -127l72 -354h41q59 0 86.5 26.5t27.5 83.5v459q0 123 -67.5 180.5t-210.5 57.5
q-184 0 -320 -117l-96 123q174 147 434 147t371 -100.5t111 -286.5v-399q0 -328 -316 -328h-229l-72 346q-31 -8 -76 -8z" />
    <glyph glyph-name="uni0E09" unicode="&#xe09;" horiz-adv-x="1165" 
d="M958 171q0 48 -19 66.5t-68.5 18.5t-69 -18.5t-19.5 -66.5t20 -65.5t70 -17.5t68 17.5t18 65.5zM367 489q0 47 -18.5 64.5t-70 17.5t-70 -17.5t-18.5 -65.5t19 -65t69 -17t69.5 18t19.5 65zM231 303q-163 0 -163 189q0 97 48 144.5t169 47.5t168 -46t47 -161v-268
l291 237q25 20 35 37t10 47v189q0 119 -79 180.5t-222 61.5q-212 0 -359 -117l-96 123q86 74 209 110.5t256 36.5q252 0 382 -103.5t130 -283.5v-170q0 -61 -29 -108.5t-98 -94.5q88 -8 125 -53t37 -143t-50.5 -143.5t-175.5 -45.5q-225 0 -217 174l-170 -143h-200v305
q-18 -2 -48 -2z" />
    <glyph glyph-name="uni0E0A" unicode="&#xe0a;" horiz-adv-x="1081" 
d="M367 920q0 48 -18.5 64.5t-70 16.5t-70 -17t-18.5 -65t19 -65.5t69 -17.5t69.5 18t19.5 66zM109 451q0 164 127 280q-94 4 -131 47.5t-37 143.5t48 146t168 46t167 -43t47 -151v-68q0 -39 -17.5 -70.5t-59.5 -83.5t-66.5 -101.5t-24.5 -121.5v-113q0 -86 13 -134
t58 -76.5t139.5 -28.5t140.5 27.5t58.5 76.5t12.5 135v166q0 80 -29 117t-98 37h-43v158h49q78 0 101.5 33.5t23.5 119.5v121h221v-115q0 -90 -27.5 -149t-95.5 -92q66 -35 92.5 -95.5t26.5 -148.5v-135q0 -195 -94.5 -302.5t-340.5 -107.5t-337.5 107.5t-91.5 294.5v80z
" />
    <glyph glyph-name="uni0E0B" unicode="&#xe0b;" horiz-adv-x="1140" 
d="M332 926q0 47 -18.5 64.5t-69.5 17.5t-69.5 -17.5t-18.5 -65.5t18.5 -65.5t68.5 -17.5t69.5 18.5t19.5 65.5zM168 332v39q0 88 48 158.5t120 146.5t97.5 108.5t25.5 61.5v59l-43 -31q0 -143 -183 -143q-102 0 -144 47.5t-42 147.5t39.5 144t137.5 44t133.5 -17.5
t54.5 -66.5l80 53h155v-229q0 -59 -32.5 -112.5t-98 -131.5t-96.5 -127t-31 -104v-55q0 -98 46.5 -149.5t152.5 -51.5t152 27.5t58.5 76.5t12.5 135v166q0 82 -22.5 118t-88.5 36h-16v158h23q68 0 88 29.5t20 113.5v131h221v-115q0 -90 -27.5 -149t-95.5 -92
q66 -35 92.5 -95.5t26.5 -148.5v-135q0 -195 -94 -302.5t-338 -107.5q-323 0 -377.5 123t-54.5 240z" />
    <glyph glyph-name="uni0E0C" unicode="&#xe0c;" horiz-adv-x="1675" 
d="M903 162q0 47 -18.5 64.5t-68.5 17.5t-68.5 -17.5t-18.5 -65.5t19.5 -66.5t68.5 -18.5t67.5 19.5t18.5 66.5zM418 165q0 48 -18.5 65.5t-68.5 17.5t-69.5 -18.5t-19.5 -65.5t18.5 -64.5t69.5 -17.5t69.5 17.5t18.5 65.5zM377 350q164 0 164 -189q0 -97 -48.5 -144.5
t-168.5 -47.5t-166.5 50.5t-46.5 164.5v211q0 113 21.5 180.5t96.5 108.5l-161 96v146q201 188 481 188q236 0 349.5 -102.5t113.5 -280.5v-385l336 -137v874h219v-1083h-168l-369 160q0 -96 -50 -143.5t-166 -47.5t-165 46t-49 147q0 188 197 188v387q0 115 -58.5 169.5
t-201.5 54.5t-263 -93v-26l166 -105v-96q-66 -25 -88 -62.5t-22 -115.5v-115q18 2 47 2z" />
    <glyph glyph-name="uni0E0D" unicode="&#xe0d;" horiz-adv-x="1794" 
d="M1083 -142q0 46 -18 63.5t-67.5 17.5t-68 -17.5t-18.5 -63.5t19.5 -64.5t67.5 -18.5t66.5 18.5t18.5 64.5zM793 -154q0 111 48 158t160.5 47t164 -43.5t51.5 -129.5t-50 -124q35 -20 119 -20q215 0 332 131l96 -123q-133 -172 -442 -172q-205 0 -342 69.5t-137 206.5z
M418 165q0 48 -18.5 65.5t-68.5 17.5t-69.5 -18.5t-19.5 -65.5t18.5 -64.5t69.5 -17.5t69.5 17.5t18.5 65.5zM377 350q164 0 164 -189q0 -97 -48.5 -144.5t-168.5 -47.5t-166.5 50.5t-46.5 164.5v211q0 113 21.5 180.5t96.5 108.5l-161 96v146q201 188 481 188
q236 0 349.5 -102.5t113.5 -280.5v-256q0 -129 48 -188.5t162 -59.5t163 31t64 90.5t15 161.5v573h222v-598q0 -414 -445 -413q-246 0 -345 107.5t-99 305.5v252q0 115 -58.5 169.5t-201.5 54.5t-263 -93v-26l166 -105v-96q-66 -25 -88 -62.5t-22 -115.5v-115q18 2 47 2z
" />
    <glyph glyph-name="uni0E0E" unicode="&#xe0e;" horiz-adv-x="1251" 
d="M367 162q0 47 -19.5 65.5t-69.5 18.5t-69 -17.5t-19 -65.5t18.5 -65.5t70 -17.5t70 17.5t18.5 64.5zM659 1114q238 0 361 -103.5t123 -279.5v-1184h-209q-29 57 -90.5 92t-147.5 35t-132 -26.5t-70 -100.5l-170 33q27 137 115.5 192.5t238.5 55.5t244 -72v981
q0 224 -265 224q-178 0 -295 -93v-26l201 -121v-96q-41 -27 -52 -58.5t-11 -113.5v-279q0 -115 -47 -161t-168 -46t-169 46.5t-48 144.5q0 190 163 190q29 0 48 -2v109q0 76 13 119.5t58 89.5l-194 116v146q201 188 503 188z" />
    <glyph glyph-name="uni0E0F" unicode="&#xe0f;" horiz-adv-x="1251" 
d="M367 162q0 47 -19.5 65.5t-69.5 18.5t-69 -17.5t-19 -65.5t18.5 -65.5t70 -17.5t70 17.5t18.5 64.5zM539 -303q84 0 143 113l240 -105v1032q0 224 -265 224q-178 0 -295 -93v-26l201 -121v-96q-41 -27 -52 -58.5t-11 -113.5v-279q0 -115 -47 -161t-168 -46t-169 46.5
t-48 144.5q0 190 163 190q29 0 48 -2v109q0 76 13 119.5t58 89.5l-194 116v146q201 188 503 188q238 0 361 -103.5t123 -279.5v-1184h-221l-207 91q-67 -97 -209 -97q-107 0 -176.5 62.5t-91.5 177.5l168 39q16 -66 46.5 -94.5t86.5 -28.5z" />
    <glyph glyph-name="uni0E10" unicode="&#xe10;" horiz-adv-x="1110" 
d="M879 -197q0 39 -17.5 55.5t-63.5 16.5t-64.5 -16.5t-18.5 -56.5t18.5 -55t63.5 -15t63.5 16t18.5 55zM436 -422q86 0 139 84l244 -76v70q-14 -4 -49 -4q-164 0 -164 153q0 86 45 124t149 38t144.5 -40t40.5 -134v-352h-166l-217 72q-74 -78 -191 -78q-230 0 -276 227
l168 39q16 -66 47 -94.5t86 -28.5zM393 520q0 47 -18.5 64.5t-68.5 17.5t-68.5 -17.5t-18.5 -65.5t18.5 -65.5t68.5 -17.5t68.5 18.5t18.5 65.5zM973 328q0 -328 -316 -328h-229l-72 346q-31 -8 -75 -8q-182 0 -183 184q0 100 47.5 146.5t145.5 46.5t139 -19.5t59.5 -60.5
t34.5 -127l72 -354h41q115 0 115 110v459q0 123 -68 180.5t-211 57.5q-184 0 -319 -117l-97 123q174 147 439 147q172 0 288 -53q54 34 66 117l178 -39q-4 -51 -34.5 -103.5t-84.5 -83.5q63 -86 64 -225v-399z" />
    <glyph glyph-name="uni0E11" unicode="&#xe11;" horiz-adv-x="1247" 
d="M332 926q0 47 -18.5 64.5t-69.5 17.5t-69.5 -17.5t-18.5 -65.5t18.5 -65.5t68.5 -17.5t69.5 18.5t19.5 65.5zM270 365q0 74 30 139t78 143t68.5 119t20.5 78v61l-51 -31q0 -143 -183 -143q-102 0 -144 47.5t-42 147.5t39.5 144t137.5 44t133.5 -17.5t54.5 -66.5l88 53
h159v-110q72 78 134.5 109.5t162.5 31.5t141.5 -58.5t41.5 -172.5v-883h-219v887q0 45 -48 45q-70 0 -198 -184l-25 -35q-88 -123 -124 -198t-36 -171v-344h-219v365z" />
    <glyph glyph-name="uni0E12" unicode="&#xe12;" horiz-adv-x="1751" 
d="M979 162q0 47 -18.5 64.5t-68.5 17.5t-68.5 -17.5t-18.5 -65.5t19.5 -66.5t68.5 -18.5t67.5 19.5t18.5 66.5zM657 508q0 47 -19.5 64.5t-69.5 17.5t-68.5 -17.5t-18.5 -65.5t19.5 -66.5t68.5 -18.5t68.5 19.5t19.5 66.5zM510 848q0 117 -100 117q-61 0 -86 -39t-25 -131
v-623l164 168q-55 16 -75.5 52t-20.5 125q0 177 198 177q119 0 164 -43t45 -125t-25.5 -125t-80.5 -98l-295 -303h-264v811q0 152 67.5 227.5t192.5 75.5q174 0 213 -127q47 127 223 127q133 0 207.5 -75.5t74.5 -227.5v-465l336 -137v874h219v-1083h-167l-369 160
q0 -96 -50 -143.5t-166 -47.5t-165 46t-49 147q0 188 196 188v447q0 96 -20.5 132t-85.5 36q-109 0 -109 -117v-23h-147v23z" />
    <glyph glyph-name="uni0E13" unicode="&#xe13;" horiz-adv-x="1720" 
d="M418 165q0 48 -18.5 65.5t-68.5 17.5t-69.5 -18.5t-19.5 -65.5t18.5 -64.5t69.5 -17.5t69.5 17.5t18.5 65.5zM1513 171q0 48 -19 66.5t-68.5 18.5t-69 -18.5t-19.5 -66.5t19.5 -65.5t69.5 -17.5t68.5 17.5t18.5 65.5zM377 350q164 0 164 -189q0 -97 -48.5 -144.5
t-168.5 -47.5t-166.5 50.5t-46.5 164.5v211q0 113 21.5 180.5t96.5 108.5l-161 96v146q201 188 481 188q236 0 349.5 -102.5t113.5 -280.5v-524l334 239q27 18 36 36t9 48v553h219v-551q0 -53 -27 -89.5t-98 -88.5q88 -8 125 -53t37 -143t-50.5 -143.5t-172.5 -45.5t-169 42
t-47 151l-215 -162h-196v737q0 115 -58.5 169.5t-201.5 54.5t-263 -93v-26l166 -105v-96q-66 -25 -88 -62.5t-22 -115.5v-115q18 2 47 2z" />
    <glyph glyph-name="uni0E14" unicode="&#xe14;" horiz-adv-x="1191" 
d="M688 508q0 47 -19.5 64.5t-69.5 17.5t-68.5 -17.5t-18.5 -65.5t19.5 -66.5t68.5 -18.5t68.5 19.5t19.5 66.5zM109 694q0 197 112.5 308.5t376.5 111.5t374.5 -110.5t110.5 -309.5v-694h-221v707q0 88 -33 171t-233 83t-233 -83t-33 -171v-535l164 168q-55 16 -76 52
t-21 125q0 177 199 177q119 0 164 -43t45 -125t-25.5 -125t-81.5 -98l-295 -303h-294v694z" />
    <glyph glyph-name="uni0E15" unicode="&#xe15;" horiz-adv-x="1191" 
d="M688 508q0 47 -19.5 64.5t-69.5 17.5t-68.5 -17.5t-18.5 -65.5t19.5 -66.5t68.5 -18.5t68.5 19.5t19.5 66.5zM109 811q0 150 71.5 226.5t198.5 76.5q178 0 217 -127q47 127 223 127q264 0 264 -303v-811h-221v795q0 100 -16.5 135t-70.5 35t-75.5 -29t-21.5 -88v-23h-166
v23q0 61 -17.5 89t-71.5 28t-73.5 -36t-19.5 -132v-625l164 168q-55 16 -76 52t-21 125q0 177 199 177q119 0 164 -43t45 -125t-25.5 -125t-81.5 -98l-295 -303h-294v811z" />
    <glyph glyph-name="uni0E16" unicode="&#xe16;" horiz-adv-x="1159" 
d="M420 165q0 48 -18.5 65.5t-68.5 17.5t-69.5 -18.5t-19.5 -65.5t18.5 -64.5t69.5 -17.5t69.5 17.5t18.5 65.5zM379 350q164 0 164 -189q0 -97 -48.5 -144.5t-168.5 -47.5t-167.5 46t-47.5 161v268q0 86 26.5 144.5t91.5 95.5l-161 96v146q201 188 497 188
q240 0 363 -103.5t123 -279.5v-731h-222v737q0 224 -264 224q-172 0 -291 -93v-26l166 -105v-96q-63 -25 -85.5 -67t-22.5 -125v-101q18 2 47 2z" />
    <glyph glyph-name="uni0E17" unicode="&#xe17;" horiz-adv-x="1232" 
d="M346 920q0 48 -18.5 64.5t-69.5 16.5t-69.5 -17t-18.5 -65t18.5 -65.5t68.5 -17.5t69.5 18t19.5 66zM211 733q-164 -1 -164 189q0 98 48 145t169 47t168 -46t47 -161v-321l197 360q51 96 103 132t148.5 36t146.5 -46t50 -134v-934h-221v899q0 18 -5.5 25.5t-23.5 7.5
t-31.5 -17.5t-49.5 -83.5l-314 -573v-258h-221v735q-18 -2 -47 -2z" />
    <glyph glyph-name="uni0E18" unicode="&#xe18;" horiz-adv-x="1044" 
d="M289 809v-49l436 -96q137 -33 194.5 -96.5t57.5 -176.5v-108q0 -150 -117 -232t-348 -82t-326.5 107.5t-95.5 290.5v106h221v-111q0 -86 25.5 -167.5t195.5 -81.5q109 0 166.5 38.5t57.5 131.5v106q0 66 -27 93.5t-102 43.5l-559 123v152q0 139 123.5 226t340.5 87
q268 0 420 -123l-92 -119q-118 89 -319 89q-119 0 -185.5 -40t-66.5 -112z" />
    <glyph glyph-name="uni0E19" unicode="&#xe19;" horiz-adv-x="1206" 
d="M999 171q0 48 -19 66.5t-68.5 18.5t-69 -18.5t-19.5 -66.5t19.5 -65.5t69.5 -17.5t68.5 17.5t18.5 65.5zM346 920q0 48 -18.5 64.5t-69.5 16.5t-69.5 -17t-18.5 -65t18.5 -65.5t68.5 -17.5t69.5 18t19.5 66zM211 733q-164 -1 -164 189q0 98 48 145t169 47t168 -46
t47 -161v-698l352 237q27 16 36.5 34t9.5 50v553h221v-551q0 -53 -28 -91t-99 -87q88 -8 125 -53t37 -143t-50.5 -143.5t-164.5 -45.5t-172 36t-58 124q0 23 2 35l-231 -164h-201v735q-18 -2 -47 -2z" />
    <glyph glyph-name="uni0E1A" unicode="&#xe1a;" horiz-adv-x="1294" 
d="M346 920q0 48 -18.5 64.5t-69.5 16.5t-69.5 -17t-18.5 -65t18.5 -65.5t68.5 -17.5t69.5 18t19.5 66zM211 733q-164 -1 -164 189q0 98 48 145t169 47t168 -46t47 -161v-536q0 -127 52.5 -187.5t174.5 -60.5t174 32.5t68.5 93t16.5 171.5v663h221v-704
q0 -199 -102.5 -304.5t-358.5 -105.5t-361.5 106.5t-105.5 303.5v356q-18 -2 -47 -2z" />
    <glyph glyph-name="uni0E1B" unicode="&#xe1b;" horiz-adv-x="1294" 
d="M346 919.5q0 47.5 -18.5 64.5t-69.5 17t-69.5 -17t-18.5 -65t18.5 -65.5t68.5 -17.5t69.5 18t19.5 65.5zM211 733q-164 -1 -164 189q0 98 48 145t169 47t168 -46t47 -161v-536q0 -127 52.5 -187.5t175 -60.5t174 32.5t68 93t16.5 171.5v1042h221v-1083
q0 -199 -102.5 -304.5t-358.5 -105.5t-361.5 106.5t-105.5 303.5v356q-18 -2 -47 -2z" />
    <glyph glyph-name="uni0E1C" unicode="&#xe1c;" horiz-adv-x="1187" 
d="M418 918q0 48 -18.5 65.5t-69.5 17.5t-69.5 -17t-18.5 -64t19.5 -65.5t69.5 -18.5t68.5 17t18.5 65zM109 907q0 115 47 161t168 46t169 -47t48 -144q0 -190 -164 -190q-29 0 -47 2v-487l211 284h104l213 -284v835h221v-1083h-233l-252 352l-250 -352h-235v907z" />
    <glyph glyph-name="uni0E1D" unicode="&#xe1d;" horiz-adv-x="1187" 
d="M418 918.5q0 48.5 -18.5 65.5t-69.5 17t-69.5 -17t-18.5 -64t19.5 -65.5t69.5 -18.5t68.5 17t18.5 65.5zM109 907q0 115 47 161t168 46t169 -47t48 -144q0 -190 -164 -190q-29 0 -47 2v-487l211 284h104l213 -284v1214h221v-1462h-233l-252 352l-250 -352h-235v907z" />
    <glyph glyph-name="uni0E1E" unicode="&#xe1e;" horiz-adv-x="1302" 
d="M346 920q0 48 -18.5 64.5t-69.5 16.5t-69.5 -17t-18.5 -65t18.5 -65.5t68.5 -17.5t69.5 18t19.5 66zM211 733q-164 -1 -164 189q0 98 48 145t169 47t168 -46t47 -161v-567l193 455h104l197 -455v743h221v-1083h-225l-244 559l-242 -559h-225v735q-18 -2 -47 -2z" />
    <glyph glyph-name="uni0E1F" unicode="&#xe1f;" horiz-adv-x="1302" 
d="M346 919.5q0 47.5 -18.5 64.5t-69.5 17t-69.5 -17t-18.5 -65t18.5 -65.5t68.5 -17.5t69.5 18t19.5 65.5zM211 733q-164 -1 -164 189q0 98 48 145t169 47t168 -46t47 -161v-567l193 455h104l197 -455v1122h221v-1462h-225l-244 559l-242 -559h-225v735q-18 -2 -47 -2z" />
    <glyph glyph-name="uni0E20" unicode="&#xe20;" horiz-adv-x="1251" 
d="M367 162q0 47 -19.5 65.5t-69.5 18.5t-69 -17.5t-19 -65.5t18.5 -65.5t70 -17.5t70 17.5t18.5 64.5zM657 961q-178 0 -295 -93v-26l201 -121v-96q-41 -27 -52 -58.5t-11 -113.5v-279q0 -115 -47 -161t-168 -46t-169 46.5t-48 144.5q0 190 163 190q29 0 48 -2v109
q0 76 13 119.5t58 89.5l-194 116v146q201 188 503 188q238 0 361 -103.5t123 -279.5v-731h-221v737q0 224 -265 224z" />
    <glyph glyph-name="uni0E21" unicode="&#xe21;" horiz-adv-x="1185" 
d="M387 164q0 47 -18.5 64.5t-68.5 17.5t-68.5 -17.5t-18.5 -65.5t19.5 -66.5t68.5 -18.5t67.5 19.5t18.5 66.5zM367 920q0 48 -18.5 64.5t-70 16.5t-70 -17t-18.5 -65t19 -65.5t69 -17.5t69.5 18t19.5 66zM231 733q-163 -1 -163 189q0 98 48 145t169 47t168 -46t47 -161
v-579l356 -138v893h221v-1083h-162l-401 162q0 -96 -51 -144.5t-167 -48.5t-165 46t-49 147q0 188 197 188v385q-18 -2 -48 -2z" />
    <glyph glyph-name="uni0E22" unicode="&#xe22;" horiz-adv-x="1105" 
d="M383 918q0 48 -17.5 65.5t-68.5 17.5t-69.5 -17t-18.5 -64t19.5 -65.5t68.5 -18.5t67.5 17t18.5 65zM535 -31q-467 0 -467 331q0 163 116 226q-115 82 -114 260v117q0 111 53 161t175 50t170 -46t48 -137t-44 -143.5t-102 -52.5t-79 4q0 -70 29.5 -101.5t103.5 -31.5h80
v-155h-76q-145 0 -145 -154q0 -88 69.5 -131t185.5 -43q238 0 238 227v733h221v-671q0 -223 -110.5 -333t-351.5 -110z" />
    <glyph glyph-name="uni0E23" unicode="&#xe23;" horiz-adv-x="956" 
d="M596 164q0 47 -19.5 65.5t-69.5 18.5t-68.5 -17.5t-18.5 -65.5t18.5 -65.5t69.5 -17.5t69.5 17.5t18.5 64.5zM297 160q0 190 164 190q29 0 47 -2v109q0 51 -9.5 72.5t-36 33.5t-102.5 33l-292 82v119q0 162 110.5 239.5t279 77.5t264 -28.5t167.5 -88.5l-90 -118
q-125 82 -289 82q-111 0 -166 -39t-55 -109v-37l299 -84q84 -23 112.5 -75t28.5 -154v-287q0 -115 -47 -161t-168 -46t-169 46.5t-48 144.5z" />
    <glyph glyph-name="uni0E24" unicode="&#xe24;" horiz-adv-x="1159" 
d="M420 165q0 48 -18.5 65.5t-68.5 17.5t-69.5 -18.5t-19.5 -65.5t18.5 -64.5t69.5 -17.5t69.5 17.5t18.5 65.5zM379 350q164 0 164 -189q0 -97 -48.5 -144.5t-168.5 -47.5t-167.5 46t-47.5 161v268q0 86 26.5 144.5t91.5 95.5l-161 96v146q201 188 497 188
q240 0 363 -103.5t123 -279.5v-1143h-222v1149q0 224 -264 224q-172 0 -291 -93v-26l166 -105v-96q-63 -25 -85.5 -67t-22.5 -125v-101q18 2 47 2z" />
    <glyph glyph-name="uni0E25" unicode="&#xe25;" horiz-adv-x="1089" 
d="M375 165q0 48 -18.5 65.5t-68.5 17.5t-69.5 -18.5t-19.5 -64.5t20.5 -65.5t69.5 -19.5t67.5 18.5t18.5 66.5zM315 354q183 0 183 -192q0 -100 -49.5 -146.5t-166 -46.5t-165.5 64.5t-49 197.5q0 434 399 435q98 0 176 -32t117 -95v184q0 119 -60.5 178.5t-195.5 59.5
q-197 0 -328 -121l-98 127q168 147 418 147t367.5 -103.5t117.5 -283.5v-727h-215q0 362 -93 437t-197 75t-149.5 -36t-56.5 -124q16 2 45 2z" />
    <glyph glyph-name="uni0E26" unicode="&#xe26;" horiz-adv-x="1251" 
d="M367 162q0 47 -19.5 65.5t-69.5 18.5t-69 -17.5t-19 -65.5t18.5 -65.5t70 -17.5t70 17.5t18.5 64.5zM659 1114q238 0 361 -103.5t123 -279.5v-1143h-221v1149q0 224 -265 224q-178 0 -295 -93v-26l201 -121v-96q-41 -27 -52 -58.5t-11 -113.5v-279q0 -115 -47 -161
t-168 -46t-169 46.5t-48 144.5q0 190 163 190q29 0 48 -2v109q0 76 13 119.5t58 89.5l-194 116v146q201 188 503 188z" />
    <glyph glyph-name="uni0E27" unicode="&#xe27;" horiz-adv-x="950" 
d="M709 164q0 47 -19.5 65.5t-69.5 18.5t-69 -17.5t-19 -65.5t18.5 -65.5t70 -17.5t70 17.5t18.5 64.5zM424 1114q225 0 321.5 -100.5t96.5 -288.5v-549q0 -115 -47 -161t-168 -46t-169 47q-48 46 -48 144q0 190 163 190q29 0 48 -2v389q0 117 -48.5 170.5t-183 53.5
t-266.5 -115l-96 123q172 145 397 145z" />
    <glyph glyph-name="uni0E28" unicode="&#xe28;" horiz-adv-x="1200" 
d="M694 488q0 48 -17.5 64.5t-68.5 16.5t-69.5 -16.5t-18.5 -64.5t19.5 -67.5t68.5 -19.5t67.5 19.5t18.5 67.5zM608 295q-162 0 -178 96l-100 -88v-303h-221v676q0 203 110.5 320.5t376.5 117.5q160 0 258 -49q57 39 70 113l178 -39q-4 -47 -32 -98.5t-71 -84.5
q84 -92 84 -280v-676h-221v698q0 131 -57 197t-208 66t-209 -66t-58 -197v-184l69 64q63 59 105 80.5t130 21.5t132.5 -43t44.5 -147t-49 -149.5t-154 -45.5z" />
    <glyph glyph-name="uni0E29" unicode="&#xe29;" horiz-adv-x="1294" 
d="M811 638q0 46 -18.5 63.5t-67.5 17.5t-67.5 -17.5t-18.5 -62.5t18.5 -63.5t67.5 -18.5t67.5 17.5t18.5 63.5zM346 920q0 48 -18.5 64.5t-69.5 16.5t-69.5 -17t-18.5 -65t18.5 -65.5t68.5 -17.5t69.5 18t19.5 66zM211 733q-164 -1 -164 189q0 98 48 145t169 47t168 -46
t47 -161v-536q0 -127 52.5 -187.5t174.5 -60.5t173 28.5t68.5 89t17.5 173.5q-45 -4 -99 -4q-168 0 -255 59t-87 163t49.5 146.5t149.5 42.5q195 0 195 -153q0 -75 -25 -117h16q33 0 56 6v526h221v-704q0 -199 -102.5 -304.5t-358.5 -105.5t-361.5 106.5t-105.5 303.5v356
q-18 -2 -47 -2z" />
    <glyph glyph-name="uni0E2A" unicode="&#xe2a;" horiz-adv-x="1089" 
d="M375 165q0 48 -18.5 65.5t-68.5 17.5t-69.5 -18.5t-19.5 -64.5t20.5 -65.5t69.5 -19.5t67.5 18.5t18.5 66.5zM315 354q183 0 183 -192q0 -100 -49.5 -146.5t-166 -46.5t-165.5 64.5t-49 197.5q0 434 399 435q98 0 176 -32t117 -95v184q0 123 -59.5 180.5t-196.5 57.5
q-197 0 -328 -121l-98 127q168 147 440 147q168 0 254 -53q48 30 64 117l180 -39q-4 -47 -33 -97.5t-76 -85.5q74 -74 74 -229v-727h-215q0 362 -93 437t-197 75t-149.5 -36t-56.5 -124q16 2 45 2z" />
    <glyph glyph-name="uni0E2B" unicode="&#xe2b;" horiz-adv-x="1191" 
d="M1001 920q0 48 -18 64.5t-69.5 16.5t-70 -17t-18.5 -65t18.5 -65.5t68.5 -17.5t69.5 18t19.5 66zM346 920q0 48 -18.5 64.5t-69.5 16.5t-69.5 -17t-18.5 -65t18.5 -65.5t68.5 -17.5t69.5 18t19.5 66zM211 733q-164 -1 -164 189q0 98 48 145t169 47t168 -46t47 -161v-606
l238 361q27 41 43 59t43 29q-107 35 -107 151t47 164.5t165 48.5t167 -48t49 -159q0 -55 -28.5 -100t-77.5 -59q67 -29 67 -138v-610h-221v537q0 37 -14 36q-20 0 -32.5 -23.5t-16.5 -27.5l-344 -522h-199v735q-18 -2 -47 -2z" />
    <glyph glyph-name="uni0E2C" unicode="&#xe2c;" horiz-adv-x="1302" 
d="M346 920q0 48 -18.5 64.5t-69.5 16.5t-69.5 -17t-18.5 -65t18.5 -65.5t68.5 -17.5t69.5 18t19.5 66zM211 733q-164 -1 -164 189q0 98 48 145t169 47t168 -46t47 -161v-567l193 455h104l197 -455v537q0 84 -29 121.5t-104 37.5h-45v154h41q86 0 113.5 37t27.5 129v106h217
v-112q0 -186 -115 -240q115 -60 115 -233v-877h-225l-244 559l-242 -559h-225v735q-18 -2 -47 -2z" />
    <glyph glyph-name="uni0E2D" unicode="&#xe2d;" horiz-adv-x="1093" 
d="M397 499q0 48 -17.5 65.5t-68.5 17.5t-69.5 -17.5t-18.5 -64.5t19.5 -65.5t68.5 -18.5t67.5 17.5t18.5 65.5zM503 1114q259 0 370.5 -100.5t111.5 -286.5v-428q0 -187 -146.5 -258.5t-314.5 -71.5q-250 0 -345 99.5t-95 261.5v153q0 111 53 161t175 50t170 -46t48 -137
t-44 -143.5t-101 -52.5t-80 4v-40q0 -156 166 -156t229.5 42t63.5 122v442q0 119 -66.5 175.5t-212.5 56.5q-192 0 -321 -117l-96 123q176 147 435 147z" />
    <glyph glyph-name="uni0E2E" unicode="&#xe2e;" horiz-adv-x="1120" 
d="M397 499q0 48 -17.5 65.5t-68.5 17.5t-69.5 -17.5t-18.5 -64.5t19.5 -65.5t68.5 -18.5t67.5 17.5t18.5 65.5zM985 727v-428q0 -187 -146.5 -258.5t-314.5 -71.5q-250 0 -345 99.5t-95 261.5v153q0 111 53 161t175 50t170 -46t48 -137t-44 -143.5t-101 -52.5t-80 4v-40
q0 -156 166 -156t229.5 42t63.5 122v442q0 119 -66.5 175.5t-212.5 56.5q-192 0 -321 -117l-96 123q176 147 442 147q166 0 272 -53q56 36 64 117l180 -39q-4 -49 -33.5 -101.5t-77.5 -79.5q70 -86 70 -231z" />
    <glyph glyph-name="uni0E2F" unicode="&#xe2f;" horiz-adv-x="1032" 
d="M375 918q0 48 -18.5 67t-67.5 19t-69.5 -19.5t-20.5 -65.5t19.5 -64.5t69.5 -18.5t68.5 17t18.5 65zM707 1083h217v-1083h-219v672q-47 -43 -104.5 -62.5t-151.5 -19.5q-164 0 -272.5 82t-108.5 229q0 113 49 163t165.5 50t166 -46t49.5 -133t-27 -125t-94 -54
q31 -12 80 -13q250 0 250 340z" />
    <glyph glyph-name="uni0E30" unicode="&#xe30;" horiz-adv-x="843" 
d="M369 300q0 46 -18.5 63.5t-68 17.5t-67.5 -17.5t-18 -63.5t19.5 -65.5t66.5 -19.5t66.5 19.5t19.5 65.5zM68 291q0 104 52 155.5t166.5 51.5t160 -44t45.5 -127t-41 -114q10 -2 30 -2q127 0 209 78l86 -115q-93 -121 -338 -121q-145 0 -257.5 51.5t-112.5 186.5zM369 867
q0 46 -18.5 63.5t-68 17.5t-67.5 -17.5t-18 -63.5t19.5 -65.5t66.5 -19.5t66.5 19.5t19.5 65.5zM438 621q-145 0 -257.5 51t-112.5 186q0 104 52 155.5t166.5 51.5t160 -44t45.5 -125t-41 -116q10 -2 30 -2q127 0 209 78l86 -115q-92 -120 -338 -120z" />
    <glyph glyph-name="uni0E31" unicode="&#xe31;" 
d="M-371 1477q0 47 -18.5 64.5t-69.5 17.5t-68.5 -17.5t-17.5 -65.5t18.5 -65.5t67.5 -17.5t68.5 18.5t19.5 65.5zM-456 1677q212 0 212 -167q0 -79 -37 -121q118 -19 214 18t145 86l90 -119q-151 -147 -428 -147q-191 0 -304.5 58t-113.5 188q0 104 54 154t168 50z" />
    <glyph glyph-name="uni0E32" unicode="&#xe32;" horiz-adv-x="899" 
d="M388 1114q222 0 312.5 -101.5t90.5 -289.5v-723h-222v725q0 125 -42.5 180.5t-172.5 55.5t-239 -109l-99 127q150 135 372 135z" />
    <glyph glyph-name="uni0E33" unicode="&#xe33;" horiz-adv-x="899" 
d="M388 1114q222 0 312.5 -101.5t90.5 -289.5v-723h-222v725q0 125 -42.5 180.5t-172.5 55.5t-239 -109l-99 127q150 135 372 135zM-303 1432q0 -76 85 -76t85 77t-84 76q-45 0 -65.5 -18t-20.5 -59zM-438 1431.5q0 102.5 59.5 153.5t161.5 51t160.5 -51t58.5 -153.5
t-58.5 -153.5t-160.5 -51t-161.5 51t-59.5 153.5z" />
    <glyph glyph-name="uni0E34" unicode="&#xe34;" 
d="M-583.5 1462q-100.5 0 -173 -30.5t-89.5 -85.5h524q-18 55 -89.5 85.5t-172 30.5zM-584.5 1591q197.5 0 330.5 -94t148 -270h-957q16 176 148.5 270t330 94z" />
    <glyph glyph-name="uni0E35" unicode="&#xe35;" 
d="M-592 1462q-98 0 -168.5 -29.5t-87.5 -86.5h529q-63 116 -273 116zM-592 1591q84 0 162 -23.5t125 -66.5v170h196v-444h-954q14 176 144.5 270t326.5 94z" />
    <glyph glyph-name="uni0E36" unicode="&#xe36;" 
d="M-586.5 1462q-97.5 0 -170 -30.5t-89.5 -85.5h524q-27 49 -97 82.5t-167.5 33.5zM-336 1527q0 -77 80 -77q39 0 55.5 17.5t16.5 57.5t-16.5 55t-59.5 15t-59.5 -15t-16.5 -53zM-74 1510q0 -102 -86 -134q45 -59 54 -149h-955q14 176 146.5 270t330.5 94q80 0 148 -22
q12 125 174 125q109 0 148.5 -41t39.5 -143z" />
    <glyph glyph-name="uni0E37" unicode="&#xe37;" 
d="M-317 1346q-68 117 -275 116q-98 0 -168.5 -29.5t-87.5 -86.5h531zM-594 1581q20 0 57 -4v94h175v-125q53 -23 79 -49v174h174v-444h-954q19 170 150 262t319 92z" />
    <glyph glyph-name="uni0E38" unicode="&#xe38;" 
d="M-242 -299q0 47 -18.5 64.5t-69.5 17.5t-69.5 -17.5t-18.5 -65.5t18.5 -65.5t68.5 -17.5t69.5 18.5t19.5 65.5zM-377 -485q-164 0 -164 189q0 97 48.5 144.5t169 47.5t167.5 -46.5t47 -160.5v-357h-221v185q-18 -2 -47 -2z" />
    <glyph glyph-name="uni0E39" unicode="&#xe39;" 
d="M-551 -280q0 44 -19.5 61.5t-64.5 17.5t-64.5 -17.5t-19.5 -61.5t20.5 -61t64.5 -17t63.5 17t19.5 61zM-610 -469v16q-25 -6 -60 -6q-174 0 -174 178q0 96 49.5 136.5t164 40.5t159.5 -43t45 -154v-127q0 -41 13.5 -55.5t52.5 -14.5t52 14.5t13 55.5v311h186v-297
q0 -115 -59 -171t-192 -56q-250 0 -250 172z" />
    <glyph glyph-name="uni0E3A" unicode="&#xe3a;" 
d="M-342 -246.5q0 68.5 25.5 93t97.5 24.5t98.5 -25.5t26.5 -91t-28 -92.5t-98.5 -27t-96 25t-25.5 93.5z" />
    <glyph glyph-name="uni0E3F" unicode="&#xe3f;" horiz-adv-x="1189" 
d="M709 150q94 0 147 56t53 169t-57 164t-176 51h-277v-440h310zM664 743q104 0 163.5 57.5t59.5 164.5t-50.5 159t-162.5 52h-275v-433h265zM1122 367q0 -160 -94 -263.5t-260 -103.5h-106v-246h-201v246h-414v150h59q41 0 58.5 18t17.5 59v873q0 39 -17.5 56.5t-58.5 17.5
h-59v151h414v246h201v-246h73q176 0 270.5 -92t94.5 -260q0 -100 -47 -179t-138 -120q207 -71 207 -307z" />
    <glyph glyph-name="uni0E40" unicode="&#xe40;" horiz-adv-x="557" 
d="M418 165q0 48 -18.5 65.5t-68.5 17.5t-69.5 -18.5t-19.5 -65.5t18.5 -64.5t69.5 -17.5t69.5 17.5t18.5 65.5zM377 350q164 0 164 -189q0 -97 -48.5 -144.5t-168.5 -47.5t-167.5 46t-47.5 161v907h219v-735q18 2 49 2z" />
    <glyph glyph-name="uni0E41" unicode="&#xe41;" horiz-adv-x="1085" 
d="M946 165q0 48 -18.5 65.5t-68.5 17.5t-69.5 -18.5t-19.5 -65.5t18.5 -64.5t69.5 -17.5t69.5 17.5t18.5 65.5zM418 165q0 48 -18.5 65.5t-68.5 17.5t-69.5 -18.5t-19.5 -65.5t18.5 -64.5t69.5 -17.5t69.5 17.5t18.5 65.5zM905 350q164 0 164 -189q0 -97 -48 -144.5
t-169 -47.5t-168 46t-47 161v907h219v-735q18 2 49 2zM377 350q164 0 164 -189q0 -97 -48.5 -144.5t-168.5 -47.5t-167.5 46t-47.5 161v907h219v-735q18 2 49 2z" />
    <glyph glyph-name="uni0E42" unicode="&#xe42;" horiz-adv-x="681" 
d="M489 165q0 48 -18.5 65.5t-68.5 17.5t-69.5 -18.5t-19.5 -65.5t18.5 -64.5t70 -17.5t69.5 17.5t18 65.5zM449 350q163 0 163 -189q0 -97 -48 -144.5t-169 -47.5t-168 46t-47 161v825q0 78 -11 107t-58 53l-187 99v170q70 57 180 94t218 37q220 0 354 -88l-82 -132
q-104 66 -275 66q-112 0 -184 -51v-27l144 -74q57 -29 81.5 -60.5t31.5 -75.5t7 -130v-641q18 2 50 2z" />
    <glyph glyph-name="uni0E43" unicode="&#xe43;" horiz-adv-x="706" 
d="M535 165q0 48 -18.5 65.5t-68.5 17.5t-70 -18.5t-20 -65.5t18.5 -64.5t70 -17.5t70 17.5t18.5 65.5zM494 350q163 0 163 -189q0 -97 -48 -144.5t-169 -47.5t-168 46t-47 161v590q0 68 35 125t102 135q63 78 93 125t30 100q0 131 -114.5 131t-160.5 -32.5t-46 -98.5v-71
h-219v65q0 137 111.5 214t287.5 77t266 -76t90 -207q0 -72 -34 -131t-98 -136t-94 -126t-30 -102v-410q18 2 50 2z" />
    <glyph glyph-name="uni0E44" unicode="&#xe44;" horiz-adv-x="620" 
d="M446 165q0 48 -18 65.5t-68 17.5t-70 -18.5t-20 -65.5t18.5 -64.5t70 -17.5t69.5 17.5t18 65.5zM406 350q163 0 163 -189q0 -97 -48 -144.5t-169 -47.5t-168 46t-47 161v834q0 195 94 288l101 99h-408v153h690v-116l-165 -164q-51 -49 -72 -106.5t-21 -149.5v-666
q18 2 50 2z" />
    <glyph glyph-name="uni0E45" unicode="&#xe45;" horiz-adv-x="899" 
d="M388 1114q222 0 312.5 -101.5t90.5 -289.5v-1135h-222v1137q0 125 -42.5 180.5t-172.5 55.5t-239 -109l-99 127q150 135 372 135z" />
    <glyph glyph-name="uni0E46" unicode="&#xe46;" horiz-adv-x="1077" 
d="M352 614.5q0 49.5 -17.5 66.5t-67.5 17t-69.5 -18t-19.5 -66t18.5 -65t69.5 -17t68.5 16.5t17.5 66zM750 831q0 70 -16.5 100t-63.5 30q-82 0 -82 -101v-20h-178v20q0 100 -76 101q-45 0 -64.5 -41t-19.5 -125q25 6 51 6q180 0 180 -189q0 -100 -51 -146t-171 -46
t-166 67.5t-46 198.5v133q0 141 69.5 218t190.5 77q82 0 128 -30.5t65 -96.5q39 127 211 127q125 0 191.5 -66.5t66.5 -216.5v-831h-219v831z" />
    <glyph glyph-name="uni0E47" unicode="&#xe47;" 
d="M-270 1377q0 40 -16.5 56.5t-58.5 16.5t-57.5 -16.5t-15.5 -56.5t15.5 -54t58.5 -14t58.5 14t15.5 54zM-172 1385q0 -175 -165 -175q-81 0 -126 15.5t-86 54.5l-55 55l-115 -108h-160v260q0 242 250 242h453v-132h-424q-63 0 -92 -26.5t-29 -91.5v-97l84 82h70l53 -57
q0 141 168 141q90 0 132 -37.5t42 -125.5z" />
    <glyph glyph-name="uni0E48" unicode="&#xe48;" 
d="M-330 1577h221v-350h-221v350z" />
    <glyph glyph-name="uni0E49" unicode="&#xe49;" 
d="M-424 1530q0 39 -16.5 53t-58.5 14t-57 -14t-15 -53t15 -54.5t58 -15.5t58.5 15.5t15.5 54.5zM-180 1593v33h170v-39q0 -98 -42 -180t-123 -131t-196 -49h-245v123q49 0 73.5 8t32.5 33l-25 -2l-22 2q-119 10 -119 137q0 84 42 118.5t137 34.5t135 -36.5t40 -132.5
t-51 -148q193 12 193 229z" />
    <glyph glyph-name="uni0E4A" unicode="&#xe4a;" 
d="M-553 1412q0 44 -16.5 59.5t-62.5 15.5t-63.5 -16.5t-17.5 -59.5t17.5 -60.5t62.5 -17.5t62.5 17.5t17.5 61.5zM-362 1415q0 49 -37 49q-18 0 -30.5 -12t-12.5 -37q0 -94 -45 -141t-145.5 -47t-145.5 43t-45 140t44 141t147.5 44t144.5 -61q45 61 129 61q133 0 133 -133
v-61h18q35 0 49.5 24.5t14.5 79.5v86h141v-98q0 -129 -59.5 -176t-163.5 -47h-137v145z" />
    <glyph glyph-name="uni0E4B" unicode="&#xe4b;" 
d="M-463 1325h-133v143h133v103h221v-103h133v-143h-133v-98h-221v98z" />
    <glyph glyph-name="uni0E4C" unicode="&#xe4c;" 
d="M-385 1419q0 45 -18.5 62.5t-65.5 17.5t-65.5 -17.5t-18.5 -62.5t18.5 -62.5t65.5 -17.5t65.5 17.5t18.5 62.5zM-674 1425q0 242 398 242h274v-143h-199q-63 0 -110 -6q41 -43 41 -109q0 -182 -195 -182q-110 0 -159.5 47t-49.5 151z" />
    <glyph glyph-name="uni0E4D" unicode="&#xe4d;" 
d="M-303 1430.5q0 -76.5 85 -76.5t85 77t-85 76.5t-85 -77zM-438 1429.5q0 102.5 59.5 153.5t161.5 51t160.5 -51t58.5 -153.5t-58.5 -153.5t-160.5 -51t-161.5 51t-59.5 153.5z" />
    <glyph glyph-name="uni0E4E" unicode="&#xe4e;" 
d="M-315 1206q-217 0 -217 163q0 81 73 122q-74 41 -73.5 118t48.5 116.5t124 39.5h170v-127h-117q-57 0 -57.5 -47t57.5 -47h76v-108h-76q-66 0 -66 -58q0 -53 74 -53q51 0 84 33l68 -82q-57 -70 -168 -70z" />
    <glyph glyph-name="uni0E4F" unicode="&#xe4f;" horiz-adv-x="1183" 
d="M748 490q0 78 -42 119.5t-114 41.5t-114 -41t-42 -120t42 -118.5t114 -39.5t114 40t42 118zM297 490q0 134 76 216t219 82t219 -82t76 -216t-76 -214.5t-219 -80.5t-219 80.5t-76 214.5zM963 490q0 187 -101.5 285.5t-269.5 98.5t-269.5 -98t-101.5 -286t101.5 -284.5
t269.5 -96.5t269.5 97t101.5 284zM68 489q0 154 60 273t178 185.5t286 66.5t285.5 -66.5t178 -185.5t60.5 -273q0 -236 -136 -378t-388 -142t-388 142.5t-136 377.5z" />
    <glyph glyph-name="uni0E50" unicode="&#xe50;" horiz-adv-x="1228" 
d="M946 489q0 188 -86 279.5t-245.5 91.5t-245.5 -91t-86 -279t86 -277.5t245 -89.5q332 -1 332 366zM68 489.5q0 239.5 139 382t408 142.5t407.5 -141.5t138.5 -382.5t-137.5 -381t-407.5 -140t-409 140.5t-139 380z" />
    <glyph glyph-name="uni0E51" unicode="&#xe51;" horiz-adv-x="1230" 
d="M694 509q0 46 -20.5 65.5t-69.5 19.5t-67.5 -18.5t-18.5 -66.5t18.5 -65.5t68.5 -17.5t69.5 18.5t19.5 64.5zM547 324q-152 17 -152 195q0 93 49.5 139.5t167.5 46.5t165.5 -57.5t47.5 -165.5t-46 -180.5t-134 -114.5t-207 -42q-168 0 -269 99.5t-101 267.5
q0 221 139 345t417 124t408.5 -143.5t130.5 -383.5t-170 -393t-520 -194l-35 162q264 33 390 136t126 306q0 356 -356 356q-162 0 -243 -81.5t-81 -206.5t48.5 -182.5t114.5 -57.5t110 25z" />
    <glyph glyph-name="uni0E52" unicode="&#xe52;" horiz-adv-x="1376" 
d="M688 470q0 46 -18.5 63.5t-66.5 17.5t-66.5 -18.5t-18.5 -63.5t17.5 -61.5t66.5 -16.5t67.5 16.5t18.5 62.5zM387 711q0 303 246 303q78 0 120 -30t62 -95q47 125 213 125q131 0 185.5 -70t54.5 -225v-234q0 -242 -128 -379t-466 -137q-260 0 -412.5 123t-152.5 375v647
h217v-682q0 -150 89 -229.5t271 -79.5t273.5 80t91.5 270v236q0 92 -15.5 121.5t-63.5 29.5t-65.5 -25.5t-17.5 -82.5v-37h-158v37q0 57 -15.5 82.5t-61.5 25.5t-62.5 -34.5t-16.5 -131.5v-49q37 4 51 4q94 0 133.5 -47t39.5 -138t-45 -134t-156 -43q-211 0 -211 225v199z
" />
    <glyph glyph-name="uni0E53" unicode="&#xe53;" horiz-adv-x="1257" 
d="M418 165q0 48 -18.5 65.5t-68.5 17.5t-69.5 -18.5t-19.5 -65.5t18.5 -64.5t69.5 -17.5t69.5 17.5t18.5 65.5zM377 350q164 0 164 -189q0 -97 -48.5 -144.5t-168.5 -47.5t-167.5 46t-47.5 161v535q0 150 78.5 226.5t209.5 76.5q86 0 147.5 -32t80.5 -95q25 63 89 95
t152 32q283 0 283 -303v-711h-213v709q0 86 -23 118.5t-81 32.5q-118 0 -117 -117v-249h-180v249q0 117 -111 117q-55 0 -83 -34.5t-28 -120.5v-359q37 4 64 4z" />
    <glyph glyph-name="uni0E54" unicode="&#xe54;" horiz-adv-x="1243" 
d="M862 488q0 48 -17.5 65.5t-68.5 17.5t-69.5 -17.5t-18.5 -65.5t19.5 -66.5t68.5 -18.5t67.5 18.5t18.5 66.5zM563 360v93q0 84 26 155.5t185 71.5q119 0 167 -44t48 -138t-40 -143.5t-103 -49.5t-88 6v-18q0 -63 40 -100t113 -37h193v-156h-670q-176 0 -271 95t-95 261
v191q0 197 119.5 316.5t353.5 119.5h254q104 0 168.5 22.5t134.5 104.5l119 -102q-55 -74 -117 -112t-144 -52.5t-217 -14.5h-174q-143 0 -213.5 -76.5t-70.5 -211.5v-181q0 -205 161 -204h181q-60 68 -60 204z" />
    <glyph glyph-name="uni0E55" unicode="&#xe55;" horiz-adv-x="1243" 
d="M862 488q0 48 -17.5 65.5t-68.5 17.5t-69.5 -17.5t-18.5 -65.5t19.5 -66.5t68.5 -18.5t67.5 18.5t18.5 66.5zM825 1029q0 48 -18.5 65.5t-69.5 17.5t-69.5 -17.5t-18.5 -64.5t19.5 -65.5t69.5 -18.5t68.5 17.5t18.5 65.5zM563 360v93q0 84 26 155.5t185 71.5
q119 0 167 -44t48 -138t-40 -143.5t-103 -49.5t-88 6v-18q0 -63 40 -100t113 -37h193v-156h-670q-176 0 -271 95t-95 261v191q0 197 119.5 315.5t353.5 120.5q-10 27 -11 61q0 92 45.5 136.5t151.5 44.5t153.5 -39t51.5 -125v-19q0 -18 -4 -47q89 19 170 115l119 -102
q-55 -74 -117 -112t-144 -52.5t-217 -14.5h-174q-143 0 -213.5 -76.5t-70.5 -211.5v-181q0 -205 161 -204h181q-60 68 -60 204z" />
    <glyph glyph-name="uni0E56" unicode="&#xe56;" horiz-adv-x="1212" 
d="M475 308q0 48 -18.5 66.5t-67.5 18.5t-69.5 -19.5t-20.5 -65.5t19.5 -64.5t69.5 -18.5t68.5 17.5t18.5 65.5zM952 481q0 172 -78.5 270.5t-228.5 98.5q-190 0 -280 -137h-177l-161 370l184 62l108 -256q55 57 145.5 91t197.5 34q252 0 377.5 -148t125.5 -384
t-135.5 -374.5t-377.5 -138.5t-363 78t-121 210t48 189.5t166 57.5t167 -46t49 -142t-28.5 -134.5t-96.5 -46.5q62 -12 164 -12q156 0 235.5 93t79.5 265z" />
    <glyph glyph-name="uni0E57" unicode="&#xe57;" horiz-adv-x="1603" 
d="M418 165q0 48 -18.5 65.5t-68.5 17.5t-69.5 -18.5t-19.5 -65.5t18.5 -64.5t69.5 -17.5t69.5 17.5t18.5 65.5zM377 350q164 0 164 -189q0 -97 -48.5 -144.5t-168.5 -47.5t-167.5 46t-47.5 161v535q0 150 74.5 226.5t199.5 76.5q178 0 217 -127q50 127 231 127
q264 0 265 -303v-557q80 0 122 22.5t57 71.5t15 137v729h205v-706q0 -199 -81 -303.5t-296 -104.5h-223v692q0 94 -21.5 131t-89.5 37t-89 -33.5t-21 -99.5v-233h-148v233q0 59 -27.5 96t-83.5 37t-83 -39t-27 -131v-344q37 4 72 4z" />
    <glyph glyph-name="uni0E58" unicode="&#xe58;" horiz-adv-x="1179" 
d="M991 502q0 47 -18.5 64.5t-69.5 17.5t-68.5 -17.5t-17.5 -65.5t18.5 -66.5t67.5 -18.5t68.5 19.5t19.5 66.5zM860 324q-164 0 -164 181q0 93 48 138t164 45t166 -49t50 -160v-207q0 -147 -86 -225t-219 -78q-88 0 -153.5 32t-83.5 95q-50 -127 -232 -127q-282 0 -282 303
v299q0 193 104 302.5t307 109.5h174q106 0 192 11.5t175 115.5l119 -102q-66 -94 -157 -136.5t-239 -42.5h-208q-141 0 -197.5 -76.5t-56.5 -244.5v-217q0 -90 21.5 -129t82.5 -39q107 0 107 125v65h196v-84q0 -57 24 -81.5t82 -24.5t87.5 33.5t29.5 113.5v58q-29 -4 -51 -4
z" />
    <glyph glyph-name="uni0E59" unicode="&#xe59;" horiz-adv-x="1327" 
d="M418 165q0 48 -18.5 65.5t-68.5 17.5t-69.5 -18.5t-19.5 -65.5t18.5 -64.5t69.5 -17.5t69.5 17.5t18.5 65.5zM623 905q65 109 234 109q89 0 145.5 -46t56.5 -126q51 0 69.5 40t18.5 132h153q0 -162 -62 -249t-206 -87h-106q0 10 1 64.5t-22.5 86t-69.5 31.5t-74 -27
t-28 -57t2 -39l144 -737h-195l-139 725q-14 70 -38.5 102.5t-86.5 32.5t-89.5 -37t-27.5 -129v-348q23 4 87 4t107.5 -46t43.5 -143t-48.5 -144.5t-168.5 -47.5t-167.5 46t-47.5 161v522q0 158 70.5 237t221.5 79q88 0 138.5 -28t83.5 -81z" />
    <glyph glyph-name="uni0E5A" unicode="&#xe5a;" horiz-adv-x="1519" 
d="M375 918q0 48 -18.5 67t-67.5 19t-69.5 -19.5t-20.5 -65.5t19.5 -64.5t69.5 -18.5t68.5 17t18.5 65zM707 1083h217v-340q270 10 270 340h217v-1083h-219v672q-100 -80 -268 -82v-590h-219v672q-47 -43 -104.5 -62.5t-151.5 -19.5q-164 0 -272.5 82t-108.5 229
q0 113 49 163t165.5 50t166 -46t49.5 -133t-27 -125t-94 -54q31 -12 80 -13q250 0 250 340z" />
    <glyph glyph-name="uni0E5B" unicode="&#xe5b;" horiz-adv-x="2301" 
d="M635 505q0 44 -17.5 60.5t-64.5 16.5t-65.5 -16.5t-18.5 -60.5t19.5 -62.5t65.5 -18.5t63.5 18.5t17.5 62.5zM68 479q0 233 117 373.5t365 140.5t360 -108.5t112 -289.5t-83 -275.5t-247 -94.5t-245.5 70.5t-81.5 182.5t43 160t140 48t145 -43t48 -139q0 -117 -112 -146
q39 -10 80 -10q76 0 111.5 52.5t35.5 162.5t-26.5 170t-89 85.5t-171.5 25.5q-182 0 -255.5 -93.5t-73.5 -267.5t108 -270t312 -96t326 113.5t122 316.5q0 164 54.5 232.5t183.5 68.5t178 -66.5t49 -177.5v-106q0 -80 10 -104.5t48 -24.5t51.5 23.5t13.5 76.5v92
q0 121 52 170t159 49q197 0 196 -202v-31h172v-150h-321v127q0 63 -8 86t-44 23t-45.5 -22.5t-9.5 -98.5v-47q0 -109 -51 -176.5t-167 -67.5t-168 62.5t-52 210.5v79q0 57 -13.5 82t-56.5 25t-57 -34t-14 -128q0 -156 -73 -280.5t-214 -196.5t-331 -72t-319.5 64.5
t-196 180.5t-66.5 265z" />
    <glyph glyph-name="uni1E0C" unicode="&#x1e0c;" horiz-adv-x="1286" 
d="M442 -127h189v-197h-189v197zM629 147q201 0 289 127t88 386t-88.5 388.5t-288.5 129.5h-221v-1031h221zM68 147h47q41 0 58 18.5t17 59.5v877q0 39 -17 56.5t-58 17.5h-47v149h589q285 0 423.5 -173.5t138.5 -483.5t-142.5 -489t-419.5 -179h-589v147z" />
    <glyph glyph-name="uni1E0D" unicode="&#x1e0d;" horiz-adv-x="1196" 
d="M471 -127h188v-197h-188v197zM825 442v105q0 150 -70.5 229.5t-207.5 79.5t-201.5 -90t-64.5 -284t60.5 -273.5t198.5 -79.5t211.5 85t73.5 228zM68 481q0 250 112.5 391.5t325.5 141.5q125 0 199.5 -31t123.5 -102v235q0 49 -16 69.5t-63 20.5h-35v150h325v-1137
q0 -45 14.5 -62.5t53.5 -17.5h41v-139h-275l-18 143q-61 -92 -145 -133t-213 -41q-203 0 -316.5 131t-113.5 381z" />
    <glyph glyph-name="uni1E0E" unicode="&#x1e0e;" horiz-adv-x="1286" 
d="M248 -129h592v-141h-592v141zM629 147q201 0 289 127t88 386t-88.5 388.5t-288.5 129.5h-221v-1031h221zM68 147h47q41 0 58 18.5t17 59.5v877q0 39 -17 56.5t-58 17.5h-47v149h589q285 0 423.5 -173.5t138.5 -483.5t-142.5 -489t-419.5 -179h-589v147z" />
    <glyph glyph-name="uni1E0F" unicode="&#x1e0f;" horiz-adv-x="1196" 
d="M324 -129h591v-141h-591v141zM825 442v105q0 150 -70.5 229.5t-207.5 79.5t-201.5 -90t-64.5 -284t60.5 -273.5t198.5 -79.5t211.5 85t73.5 228zM68 481q0 250 112.5 391.5t325.5 141.5q125 0 199.5 -31t123.5 -102v235q0 49 -16 69.5t-63 20.5h-35v150h325v-1137
q0 -45 14.5 -62.5t53.5 -17.5h41v-139h-275l-18 143q-61 -92 -145 -133t-213 -41q-203 0 -316.5 131t-113.5 381z" />
    <glyph glyph-name="uni1E20" unicode="&#x1e20;" horiz-adv-x="1265" 
d="M68 656q0 204 69.5 362t214 248t359.5 90q284 0 444 -115v-209h-217v127q-88 45 -227 45q-205 0 -317.5 -145.5t-112.5 -400.5t118.5 -396t331.5 -141q143 0 252 43v383h-285v151h500v-600q-190 -129 -475 -129q-211 0 -358.5 87t-222 241.5t-74.5 358.5zM391 1618h592
v-141h-592v141z" />
    <glyph glyph-name="uni1E21" unicode="&#x1e21;" horiz-adv-x="1196" 
d="M823 446v95q0 145 -69.5 230t-206.5 85t-201.5 -83t-64.5 -273t63.5 -273.5t202.5 -83.5q276 0 276 303zM68 499q0 249 119.5 382t324.5 133q119 0 201 -42t143 -134l18 147h275v-141h-43q-37 0 -51.5 -19.5t-14.5 -64.5v-762q0 -184 -111.5 -296t-297.5 -112
q-243 1 -393 144v141h188v-74q69 -51 190 -51q213 0 213 215v164q-105 -145 -319 -145q-215 0 -328.5 133t-113.5 382zM276 1260h592v-142h-592v142z" />
    <glyph glyph-name="uni1E24" unicode="&#x1e24;" horiz-adv-x="1396" 
d="M580 -127h188v-197h-188v197zM68 150h59q41 0 58.5 18t17.5 59v873q0 39 -17.5 56.5t-58.5 17.5h-59v151h477v-151h-51q-39 0 -56.5 -17.5t-17.5 -56.5v-361h557v359q0 41 -16.5 58.5t-57.5 17.5h-53v151h479v-151h-59q-41 0 -58.5 -17.5t-17.5 -56.5v-873
q0 -41 17.5 -59t58.5 -18h59v-150h-479v150h53q39 0 56.5 18t17.5 59v363h-557v-363q0 -41 17.5 -59t56.5 -18h51v-150h-477v150z" />
    <glyph glyph-name="uni1E25" unicode="&#x1e25;" horiz-adv-x="1236" 
d="M535 -127h188v-197h-188v197zM68 152h51q41 0 58.5 17t17.5 58v901q0 39 -17.5 57.5t-58.5 18.5h-41v152h315v-475q74 74 151 103.5t193 29.5q160 0 241 -88t81 -252v-447q0 -41 17.5 -58t56.5 -17h57v-152h-354v672q0 102 -45.5 149t-143.5 47t-165.5 -60t-67.5 -167
v-414q0 -41 15 -58t52 -17h56v-152h-469v152z" />
    <glyph glyph-name="uni1E2A" unicode="&#x1e2a;" horiz-adv-x="1396" 
d="M373 -98h178q0 -74 39.5 -114t109.5 -40t108 40t38 114h178q0 -133 -88 -214t-237.5 -81t-237.5 81t-88 214zM68 150h59q41 0 58.5 18t17.5 59v873q0 39 -17.5 56.5t-58.5 17.5h-59v151h477v-151h-51q-39 0 -56.5 -17.5t-17.5 -56.5v-361h557v359q0 41 -16.5 58.5
t-57.5 17.5h-53v151h479v-151h-59q-41 0 -58.5 -17.5t-17.5 -56.5v-873q0 -41 17.5 -59t58.5 -18h59v-150h-479v150h53q39 0 56.5 18t17.5 59v363h-557v-363q0 -41 17.5 -59t56.5 -18h51v-150h-477v150z" />
    <glyph glyph-name="uni1E2B" unicode="&#x1e2b;" horiz-adv-x="1236" 
d="M324 -98h178q0 -74 39 -114t109 -40t108.5 40t38.5 114h178q0 -133 -88 -214t-237.5 -81t-237.5 81t-88 214zM68 152h51q41 0 58.5 17t17.5 58v901q0 39 -17.5 57.5t-58.5 18.5h-41v152h315v-475q74 74 151 103.5t193 29.5q160 0 241 -88t81 -252v-447q0 -41 17.5 -58
t56.5 -17h57v-152h-354v672q0 102 -45.5 149t-143.5 47t-165.5 -60t-67.5 -167v-414q0 -41 15 -58t52 -17h56v-152h-469v152z" />
    <glyph glyph-name="uni1E36" unicode="&#x1e36;" horiz-adv-x="1042" 
d="M420 -127h188v-197h-188v197zM68 147h43q45 0 62 18.5t17 59.5v877q0 39 -17 56.5t-58 17.5h-47v149h462v-149h-49q-39 0 -56 -17.5t-17 -56.5v-955h354q41 0 59.5 17.5t18.5 58.5v66h196v-289h-968v147z" />
    <glyph glyph-name="uni1E37" unicode="&#x1e37;" horiz-adv-x="604" 
d="M217 -127h189v-197h-189v197zM422 227q0 -75 76 -75h59v-152h-489v152h59q41 0 58.5 18t17.5 59v899q0 39 -17.5 56.5t-58.5 17.5h-59v154h354v-1129z" />
    <glyph glyph-name="uni1E38" unicode="&#x1e38;" horiz-adv-x="1042" 
d="M424 -127h188v-197h-188v197zM68 147h43q45 0 62 18.5t17 59.5v877q0 39 -17 56.5t-58 17.5h-47v149h462v-149h-49q-39 0 -56 -17.5t-17 -56.5v-955h354q41 0 59.5 17.5t18.5 58.5v66h196v-289h-968v147zM16 1606h592v-142h-592v142z" />
    <glyph glyph-name="uni1E39" unicode="&#x1e39;" horiz-adv-x="604" 
d="M219 -127h189v-197h-189v197zM422 227q0 -75 76 -75h59v-152h-489v152h59q41 0 58.5 18t17.5 59v899q0 39 -17.5 56.5t-58.5 17.5h-59v154h354v-1129zM-39 1585h592v-141h-592v141z" />
    <glyph glyph-name="uni1E3A" unicode="&#x1e3a;" horiz-adv-x="1042" 
d="M229 -129h592v-141h-592v141zM68 147h43q45 0 62 18.5t17 59.5v877q0 39 -17 56.5t-58 17.5h-47v149h462v-149h-49q-39 0 -56 -17.5t-17 -56.5v-955h354q41 0 59.5 17.5t18.5 58.5v66h196v-289h-968v147z" />
    <glyph glyph-name="uni1E3B" unicode="&#x1e3b;" horiz-adv-x="604" 
d="M23 -129h591v-141h-591v141zM422 227q0 -75 76 -75h59v-152h-489v152h59q41 0 58.5 18t17.5 59v899q0 39 -17.5 56.5t-58.5 17.5h-59v154h354v-1129z" />
    <glyph glyph-name="uni1E42" unicode="&#x1e42;" horiz-adv-x="1587" 
d="M700 -127h189v-197h-189v197zM416 225q0 -75 76 -75h61v-150h-485v150h59q41 0 58.5 18t17.5 59v871q0 41 -17.5 59.5t-58.5 18.5h-59v149h366l361 -833l358 833h367v-149h-62q-39 0 -56.5 -18.5t-17.5 -59.5v-871q0 -41 17.5 -59t56.5 -18h62v-150h-486v150h62
q39 0 56 17t17 58v742l-292 -682h-166l-295 682v-742z" />
    <glyph glyph-name="uni1E43" unicode="&#x1e43;" horiz-adv-x="1753" 
d="M797 -127h188v-197h-188v197zM1573 227q0 -75 76 -75h57v-152h-348v678q0 102 -39 145t-132 43t-147.5 -53t-54.5 -156v-430q0 -41 15.5 -58t54.5 -17h55v-152h-328v672q0 100 -38.5 147t-131.5 47t-148.5 -57t-55.5 -168v-414q0 -41 15 -58t54 -17h55v-152h-464v152h51
q41 0 58.5 17t17.5 58v529q0 39 -17.5 56t-58.5 17h-41v154h256l14 -139q109 170 340 170q185 0 254 -158q51 82 126 120t187 38q168 0 243 -84t75 -252v-451z" />
    <glyph glyph-name="uni1E44" unicode="&#x1e44;" horiz-adv-x="1415" 
d="M997 1100q0 74 -75 74h-62v151h488v-151h-62q-39 0 -56.5 -17.5t-17.5 -56.5v-1100h-170l-624 967v-742q0 -39 18.5 -56t57.5 -17h59v-152h-485v152h59q41 0 58.5 17t17.5 56v875q0 39 -17.5 56.5t-58.5 17.5h-59v151h305l624 -969v744zM618 1671h189v-196h-189v196z" />
    <glyph glyph-name="uni1E45" unicode="&#x1e45;" horiz-adv-x="1234" 
d="M68 152h51q41 0 58.5 17t17.5 58v527q0 41 -16.5 58t-57.5 17h-43v154h262l12 -137q70 88 159 128t216 40q328 0 328 -340v-447q0 -41 17.5 -58t57.5 -17h58v-152h-352v672q0 102 -43 148t-143 46t-168 -59t-68 -166v-414q0 -41 15 -58t54 -17h54v-152h-469v152z
M514 1313h188v-197h-188v197z" />
    <glyph glyph-name="uni1E46" unicode="&#x1e46;" horiz-adv-x="1415" 
d="M635 -127h188v-197h-188v197zM997 1100q0 74 -75 74h-62v151h488v-151h-62q-39 0 -56.5 -17.5t-17.5 -56.5v-1100h-170l-624 967v-742q0 -39 18.5 -56t57.5 -17h59v-152h-485v152h59q41 0 58.5 17t17.5 56v875q0 39 -17.5 56.5t-58.5 17.5h-59v151h305l624 -969v744z" />
    <glyph glyph-name="uni1E47" unicode="&#x1e47;" horiz-adv-x="1234" 
d="M520 -127h189v-197h-189v197zM68 152h51q41 0 58.5 17t17.5 58v527q0 41 -16.5 58t-57.5 17h-43v154h262l12 -137q70 88 159 128t216 40q328 0 328 -340v-447q0 -41 17.5 -58t57.5 -17h58v-152h-352v672q0 102 -43 148t-143 46t-168 -59t-68 -166v-414q0 -41 15 -58
t54 -17h54v-152h-469v152z" />
    <glyph glyph-name="uni1E48" unicode="&#x1e48;" horiz-adv-x="1415" 
d="M410 -129h591v-141h-591v141zM997 1100q0 74 -75 74h-62v151h488v-151h-62q-39 0 -56.5 -17.5t-17.5 -56.5v-1100h-170l-624 967v-742q0 -39 18.5 -56t57.5 -17h59v-152h-485v152h59q41 0 58.5 17t17.5 56v875q0 39 -17.5 56.5t-58.5 17.5h-59v151h305l624 -969v744z" />
    <glyph glyph-name="uni1E49" unicode="&#x1e49;" horiz-adv-x="1234" 
d="M328 -129h592v-141h-592v141zM68 152h51q41 0 58.5 17t17.5 58v527q0 41 -16.5 58t-57.5 17h-43v154h262l12 -137q70 88 159 128t216 40q328 0 328 -340v-447q0 -41 17.5 -58t57.5 -17h58v-152h-352v672q0 102 -43 148t-143 46t-168 -59t-68 -166v-414q0 -41 15 -58
t54 -17h54v-152h-469v152z" />
    <glyph glyph-name="uni1E5A" unicode="&#x1e5a;" horiz-adv-x="1273" 
d="M530 -127h189v-197h-189v197zM705 682q258 0 258 256q0 125 -61.5 180.5t-196.5 55.5h-285v-492h285zM68 150h55q45 0 62.5 18t17.5 57v875q0 39 -17.5 56.5t-62.5 17.5h-55v151h669q207 0 322 -101.5t115 -271.5t-84 -271t-238 -130l180 -336q35 -65 119 -65h55v-150
h-448v150h98l-205 380h-231v-309q0 -39 15.5 -55t56.5 -16h47v-150h-471v150z" />
    <glyph glyph-name="uni1E5B" unicode="&#x1e5b;" horiz-adv-x="790" 
d="M211 -127h188v-197h-188v197zM743 983v-152h-114q-117 0 -166 -52t-49 -161v-391q0 -41 16 -58t55 -17h52v-152h-469v152h51q41 0 58.5 17t17.5 58v529q0 39 -16.5 57t-55.5 18h-43v152h282l29 -113q74 113 258 113h94z" />
    <glyph glyph-name="uni1E5C" unicode="&#x1e5c;" horiz-adv-x="1273" 
d="M530 -127h189v-197h-189v197zM705 682q258 0 258 256q0 125 -61.5 180.5t-196.5 55.5h-285v-492h285zM68 150h55q45 0 62.5 18t17.5 57v875q0 39 -17.5 56.5t-62.5 17.5h-55v151h669q207 0 322 -101.5t115 -271.5t-84 -271t-238 -130l180 -336q35 -65 119 -65h55v-150
h-448v150h98l-205 380h-231v-309q0 -39 15.5 -55t56.5 -16h47v-150h-471v150zM297 1618h592v-141h-592v141z" />
    <glyph glyph-name="uni1E5D" unicode="&#x1e5d;" horiz-adv-x="790" 
d="M193 -127h188v-197h-188v197zM743 983v-152h-114q-117 0 -166 -52t-49 -161v-391q0 -41 16 -58t55 -17h52v-152h-469v152h51q41 0 58.5 17t17.5 58v529q0 39 -16.5 57t-55.5 18h-43v152h282l29 -113q74 113 258 113h94zM72 1260h592v-142h-592v142z" />
    <glyph glyph-name="uni1E5E" unicode="&#x1e5e;" horiz-adv-x="1273" 
d="M319 -129h592v-141h-592v141zM705 682q258 0 258 256q0 125 -61.5 180.5t-196.5 55.5h-285v-492h285zM68 150h55q45 0 62.5 18t17.5 57v875q0 39 -17.5 56.5t-62.5 17.5h-55v151h669q207 0 322 -101.5t115 -271.5t-84 -271t-238 -130l180 -336q35 -65 119 -65h55v-150
h-448v150h98l-205 380h-231v-309q0 -39 15.5 -55t56.5 -16h47v-150h-471v150z" />
    <glyph glyph-name="uni1E5F" unicode="&#x1e5f;" horiz-adv-x="790" 
d="M27 -129h591v-141h-591v141zM743 983v-152h-114q-117 0 -166 -52t-49 -161v-391q0 -41 16 -58t55 -17h52v-152h-469v152h51q41 0 58.5 17t17.5 58v529q0 39 -16.5 57t-55.5 18h-43v152h282l29 -113q74 113 258 113h94z" />
    <glyph glyph-name="uni1E60" unicode="&#x1e60;" horiz-adv-x="1093" 
d="M545 1204q-254 0 -254 -194q0 -70 43 -117t98.5 -74t191.5 -81t269 -128.5t133 -279.5q0 -104 -54 -185.5t-158 -128.5t-250 -47t-275 41t-221 111v201h219v-134q110 -67 256 -67q272 0 272 201q0 121 -95.5 172t-225.5 102t-272 133.5t-142 265.5t133 272t342 89
q266 0 446 -142v-190h-219v127q-90 53 -237 53zM459 1671h188v-196h-188v196z" />
    <glyph glyph-name="uni1E61" unicode="&#x1e61;" horiz-adv-x="946" 
d="M458 117q198 -1 199 111q0 54 -23.5 82t-64.5 47.5t-161.5 68.5t-225 107.5t-104.5 200.5t104.5 211t284.5 69q234 0 389 -115v-154h-197v76q-74 45 -171 45t-143 -29t-46 -93t49 -98t115 -56q171 -58 293.5 -125.5t122.5 -224.5q0 -131 -99.5 -201t-323.5 -70t-388 119
v160h200v-82q84 -49 190 -49zM369 1313h188v-197h-188v197z" />
    <glyph glyph-name="uni1E62" unicode="&#x1e62;" horiz-adv-x="1093" 
d="M434 -127h189v-197h-189v197zM545 1204q-254 0 -254 -194q0 -70 43 -117t98.5 -74t191.5 -81t269 -128.5t133 -279.5q0 -104 -54 -185.5t-158 -128.5t-250 -47t-275 41t-221 111v201h219v-134q110 -67 256 -67q272 0 272 201q0 121 -95.5 172t-225.5 102t-272 133.5
t-142 265.5t133 272t342 89q266 0 446 -142v-190h-219v127q-90 53 -237 53z" />
    <glyph glyph-name="uni1E63" unicode="&#x1e63;" horiz-adv-x="946" 
d="M365 -127h188v-197h-188v197zM458 117q198 -1 199 111q0 54 -23.5 82t-64.5 47.5t-161.5 68.5t-225 107.5t-104.5 200.5t104.5 211t284.5 69q234 0 389 -115v-154h-197v76q-74 45 -171 45t-143 -29t-46 -93t49 -98t115 -56q171 -58 293.5 -125.5t122.5 -224.5
q0 -131 -99.5 -201t-323.5 -70t-388 119v160h200v-82q84 -49 190 -49z" />
    <glyph glyph-name="uni1E6C" unicode="&#x1e6c;" horiz-adv-x="1165" 
d="M465 -127h188v-197h-188v197zM340 152h55q45 0 62.5 17t17.5 56v946h-188q-41 0 -59.5 -17t-18.5 -56v-66h-162v291h1071v-291h-162v66q0 41 -17 57t-60 16h-187v-946q0 -39 17.5 -56t62.5 -17h55v-152h-487v152z" />
    <glyph glyph-name="uni1E6D" unicode="&#x1e6d;" horiz-adv-x="890" 
d="M422 -127h188v-197h-188v197zM207 299v537h-160v147h160v221l217 70v-291h295v-147h-295v-551q0 -90 34 -129t114 -39t126 39v88h187v-156q-142 -119 -324 -119q-354 0 -354 330z" />
    <glyph glyph-name="uni1E6E" unicode="&#x1e6e;" horiz-adv-x="1165" 
d="M268 -129h592v-141h-592v141zM340 152h55q45 0 62.5 17t17.5 56v946h-188q-41 0 -59.5 -17t-18.5 -56v-66h-162v291h1071v-291h-162v66q0 41 -17 57t-60 16h-187v-946q0 -39 17.5 -56t62.5 -17h55v-152h-487v152z" />
    <glyph glyph-name="uni1E6F" unicode="&#x1e6f;" horiz-adv-x="890" 
d="M227 -129h592v-141h-592v141zM207 299v537h-160v147h160v221l217 70v-291h295v-147h-295v-551q0 -90 34 -129t114 -39t126 39v88h187v-156q-142 -119 -324 -119q-354 0 -354 330z" />
    <glyph glyph-name="Wgrave" unicode="&#x1e80;" horiz-adv-x="1783" 
d="M111 1174h-43v151h315l201 -950l221 727h172l223 -727l203 950h313v-151h-45q-59 0 -83.5 -17.5t-35.5 -66.5l-243 -1090h-179l-239 754l-236 -754h-180l-246 1090q-10 49 -34.5 66.5t-83.5 17.5zM553 1802h258l164 -366h-189z" />
    <glyph glyph-name="wgrave" unicode="&#x1e81;" horiz-adv-x="1570" 
d="M98 842h-51v141h285l172 -737l201 649h159l201 -649l176 737h283v-141h-51q-43 0 -62.5 -12.5t-28.5 -45.5l-188 -784h-213l-195 625l-196 -625h-213l-189 784q-8 33 -27.5 45.5t-62.5 12.5zM459 1444h258l164 -367h-189z" />
    <glyph glyph-name="Wacute" unicode="&#x1e82;" horiz-adv-x="1783" 
d="M111 1174h-43v151h315l201 -950l221 727h172l223 -727l203 950h313v-151h-45q-59 0 -83.5 -17.5t-35.5 -66.5l-243 -1090h-179l-239 754l-236 -754h-180l-246 1090q-10 49 -34.5 66.5t-83.5 17.5zM981 1802h256l-233 -366h-187z" />
    <glyph glyph-name="wacute" unicode="&#x1e83;" horiz-adv-x="1570" 
d="M98 842h-51v141h285l172 -737l201 649h159l201 -649l176 737h283v-141h-51q-43 0 -62.5 -12.5t-28.5 -45.5l-188 -784h-213l-195 625l-196 -625h-213l-189 784q-8 33 -27.5 45.5t-62.5 12.5zM860 1444h256l-233 -367h-187z" />
    <glyph glyph-name="Wdieresis" unicode="&#x1e84;" horiz-adv-x="1783" 
d="M111 1174h-43v151h315l201 -950l221 727h172l223 -727l203 950h313v-151h-45q-59 0 -83.5 -17.5t-35.5 -66.5l-243 -1090h-179l-239 754l-236 -754h-180l-246 1090q-10 49 -34.5 66.5t-83.5 17.5zM1014 1665h190v-197h-190v197zM578 1665h188v-197h-188v197z" />
    <glyph glyph-name="wdieresis" unicode="&#x1e85;" horiz-adv-x="1570" 
d="M98 842h-51v141h285l172 -737l201 649h159l201 -649l176 737h283v-141h-51q-43 0 -62.5 -12.5t-28.5 -45.5l-188 -784h-213l-195 625l-196 -625h-213l-189 784q-8 33 -27.5 45.5t-62.5 12.5zM909 1313h191v-197h-191v197zM473 1313h189v-197h-189v197z" />
    <glyph glyph-name="uni1E8E" unicode="&#x1e8e;" horiz-adv-x="1363" 
d="M791 223q0 -76 75 -76h47v-147h-460v147h47q41 0 58 18.5t17 57.5v262l-331 611q-27 47 -53.5 64.5t-75.5 17.5h-47v147h446v-147h-29q-45 0 -45 -27q0 -18 17 -47l227 -440l225 440q14 27 15 47q0 27 -43 27h-31v147h446v-147h-47q-49 0 -75.5 -17.5t-53.5 -64.5
l-329 -611v-262zM590 1624h188v-197h-188v197z" />
    <glyph glyph-name="uni1E8F" unicode="&#x1e8f;" horiz-adv-x="1159" 
d="M182 756q0 75 -76 75h-59v152h352v-631q0 -201 199 -200q106 0 169.5 60t63.5 175v369q0 41 -15 58t-54 17h-53v152h342v-965q0 -195 -112 -311.5t-302 -116.5q-250 1 -397 142v147h190v-74q68 -74 199 -73q215 0 215 241v146q-109 -109 -287 -109t-276.5 91.5
t-98.5 256.5v398zM475 1313h189v-197h-189v197z" />
    <glyph glyph-name="uni1E92" unicode="&#x1e92;" horiz-adv-x="1150" 
d="M459 -127h188v-197h-188v197zM367 1178q-43 0 -60.5 -17.5t-17.5 -56.5v-41h-197v262h961v-127l-731 -1051h487q41 0 59.5 17.5t18.5 58.5v39h196v-262h-1015v127l741 1051h-442z" />
    <glyph glyph-name="uni1E93" unicode="&#x1e93;" horiz-adv-x="1015" 
d="M393 -127h189v-197h-189v197zM315 834q-41 0 -59 -17.5t-18 -56.5v-41h-148v264h838v-119l-598 -714h393q43 0 60.5 17t17.5 56v41h147v-264h-880v117l600 717h-353z" />
    <glyph glyph-name="uni1E97" unicode="&#x1e97;" horiz-adv-x="901" 
d="M217 299v537h-160v147h160v221l217 70v-291h295v-147h-295v-551q0 -90 34 -129t114 -39t127 39v88h186v-156q-142 -119 -324 -119q-354 0 -354 330zM483 1534h191v-197h-191v197zM47 1534h189v-197h-189v197z" />
    <glyph glyph-name="uni1E9E" unicode="&#x1e9e;" horiz-adv-x="1357" 
d="M1077 377q0 137 -56 193.5t-185 56.5h-189v112l301 371q0 59 -68.5 105.5t-185.5 46.5q-160 0 -232.5 -81t-72.5 -245v-936h-342v147h51q63 0 66.5 41t3.5 101v647q0 217 128 347t402 130q150 0 255.5 -47t159.5 -125t54 -168l-252 -301q199 -8 287 -104.5t88 -284.5
t-105 -301t-297 -113t-313 72l72 125q86 -49 213 -49q217 0 217 260z" />
    <glyph glyph-name="uni1EA0" unicode="&#x1ea0;" horiz-adv-x="1472" 
d="M623 -127h188v-197h-188v197zM909 541l-170 499l-174 -499h344zM68 150h63q47 0 72.5 16t40.5 57l391 1102h207l387 -1102q14 -41 40.5 -57t73.5 -16h62v-150h-467v150h102l-90 262h-426l-90 -262h103v-150h-469v150z" />
    <glyph glyph-name="uni1EA1" unicode="&#x1ea1;" horiz-adv-x="1071" 
d="M399 -127h189v-197h-189v197zM248 254q0 -137 182 -137q123 0 194.5 53t71.5 162v98l-270 -20q-100 -6 -139 -42t-39 -114zM503 866q-111 0 -179 -47v-74h-191v162q172 106 387 107q393 0 393 -348v-449q0 -41 15.5 -59.5t50.5 -18.5h45v-139h-236l-26 129
q-66 -84 -153 -122t-239 -38t-237.5 72t-85.5 211t93 207.5t270 81.5l286 18v125q0 96 -41 139t-152 43z" />
    <glyph glyph-name="uni1EA2" unicode="&#x1ea2;" horiz-adv-x="1472" 
d="M909 541l-170 499l-174 -499h344zM68 150h63q47 0 72.5 16t40.5 57l391 1102h207l387 -1102q14 -41 40.5 -57t73.5 -16h62v-150h-467v150h102l-90 262h-426l-90 -262h103v-150h-469v150zM643 1565q127 0 127 88q0 39 -22.5 55t-76.5 16t-102 -18v121q59 23 148 22
q236 0 235 -172q0 -127 -133 -164v-81h-176v133z" />
    <glyph glyph-name="uni1EA3" unicode="&#x1ea3;" horiz-adv-x="1071" 
d="M248 254q0 -137 182 -137q123 0 194.5 53t71.5 162v98l-270 -20q-100 -6 -139 -42t-39 -114zM503 866q-111 0 -179 -47v-74h-191v162q172 106 387 107q393 0 393 -348v-449q0 -41 15.5 -59.5t50.5 -18.5h45v-139h-236l-26 129q-66 -84 -153 -122t-239 -38t-237.5 72
t-85.5 211t93 207.5t270 81.5l286 18v125q0 96 -41 139t-152 43zM426 1208q127 0 127 88q0 39 -22.5 55.5t-76.5 16.5t-102 -18v120q59 23 148 23q236 0 235 -172q0 -127 -133 -164v-82h-176v133z" />
    <glyph glyph-name="uni1EA4" unicode="&#x1ea4;" horiz-adv-x="1472" 
d="M909 541l-170 499l-174 -499h344zM68 150h63q47 0 72.5 16t40.5 57l391 1102h207l387 -1102q14 -41 40.5 -57t73.5 -16h62v-150h-467v150h102l-90 262h-426l-90 -262h103v-150h-469v150zM639 1716h205l219 -276h-195l-127 174l-131 -174h-190zM1073 1923h232l-201 -260
h-160z" />
    <glyph glyph-name="uni1EA5" unicode="&#x1ea5;" horiz-adv-x="1071" 
d="M248 254q0 -137 182 -137q123 0 194.5 53t71.5 162v98l-270 -20q-100 -6 -139 -42t-39 -114zM503 866q-111 0 -179 -47v-74h-191v162q172 106 387 107q393 0 393 -348v-449q0 -41 15.5 -59.5t50.5 -18.5h45v-139h-236l-26 129q-66 -84 -153 -122t-239 -38t-237.5 72
t-85.5 211t93 207.5t270 81.5l286 18v125q0 96 -41 139t-152 43zM391 1354h205l219 -277h-194l-127 174l-132 -174h-190zM825 1561h232l-201 -261h-160z" />
    <glyph glyph-name="uni1EA6" unicode="&#x1ea6;" horiz-adv-x="1472" 
d="M909 541l-170 499l-174 -499h344zM68 150h63q47 0 72.5 16t40.5 57l391 1102h207l387 -1102q14 -41 40.5 -57t73.5 -16h62v-150h-467v150h102l-90 262h-426l-90 -262h103v-150h-469v150zM637 1716h205l219 -276h-191l-131 174l-127 -174h-194zM176 1923h232l129 -260
h-160z" />
    <glyph glyph-name="uni1EA7" unicode="&#x1ea7;" horiz-adv-x="1071" 
d="M248 254q0 -137 182 -137q123 0 194.5 53t71.5 162v98l-270 -20q-100 -6 -139 -42t-39 -114zM503 866q-111 0 -179 -47v-74h-191v162q172 106 387 107q393 0 393 -348v-449q0 -41 15.5 -59.5t50.5 -18.5h45v-139h-236l-26 129q-66 -84 -153 -122t-239 -38t-237.5 72
t-85.5 211t93 207.5t270 81.5l286 18v125q0 96 -41 139t-152 43zM428 1354h205l219 -277h-190l-132 174l-127 -174h-194zM-55 1561h231l129 -261h-160z" />
    <glyph glyph-name="uni1EA8" unicode="&#x1ea8;" horiz-adv-x="1472" 
d="M909 541l-170 499l-174 -499h344zM68 150h63q47 0 72.5 16t40.5 57l391 1102h207l387 -1102q14 -41 40.5 -57t73.5 -16h62v-150h-467v150h102l-90 262h-426l-90 -262h103v-150h-469v150zM635 1712h207l219 -276h-193l-131 174l-127 -174h-192zM1163 1872
q0 -108 -121 -131v-47h-145v94q68 0 92.5 15.5t24.5 51.5q0 54 -70 54q-39 0 -84 -17v105q51 18 125 18q178 0 178 -143z" />
    <glyph glyph-name="uni1EA9" unicode="&#x1ea9;" horiz-adv-x="1071" 
d="M248 254q0 -137 182 -137q123 0 194.5 53t71.5 162v98l-270 -20q-100 -6 -139 -42t-39 -114zM503 866q-111 0 -179 -47v-74h-191v162q172 106 387 107q393 0 393 -348v-449q0 -41 15.5 -59.5t50.5 -18.5h45v-139h-236l-26 129q-66 -84 -153 -122t-239 -38t-237.5 72
t-85.5 211t93 207.5t270 81.5l286 18v125q0 96 -41 139t-152 43zM418 1354h207l219 -277h-193l-131 174l-127 -174h-192zM797 1497q0 53 -70 53q-39 0 -84 -16v104q51 18 125 19q178 0 178 -144q0 -55 -28.5 -86.5t-92.5 -44.5v-47h-145v95q68 0 92.5 15t24.5 52z" />
    <glyph glyph-name="uni1EAA" unicode="&#x1eaa;" horiz-adv-x="1472" 
d="M909 541l-170 499l-174 -499h344zM68 150h63q47 0 72.5 16t40.5 57l391 1102h207l387 -1102q14 -41 40.5 -57t73.5 -16h62v-150h-467v150h102l-90 262h-426l-90 -262h103v-150h-469v150zM635 1712h207l219 -276h-193l-131 174l-127 -174h-192zM924 1950h120
q0 -106 -39.5 -153.5t-112.5 -47.5t-165 49q-77 37 -110 37q-62 0 -62 -82h-121q0 106 42 153.5t116 47.5t166 -49q6 -2 37.5 -19.5t64.5 -17.5q64 0 64 82z" />
    <glyph glyph-name="uni1EAB" unicode="&#x1eab;" horiz-adv-x="1071" 
d="M248 254q0 -137 182 -137q123 0 194.5 53t71.5 162v98l-270 -20q-100 -6 -139 -42t-39 -114zM503 866q-111 0 -179 -47v-74h-191v162q172 106 387 107q393 0 393 -348v-449q0 -41 15.5 -59.5t50.5 -18.5h45v-139h-236l-26 129q-66 -84 -153 -122t-239 -38t-237.5 72
t-85.5 211t93 207.5t270 81.5l286 18v125q0 96 -41 139t-152 43zM401 1354h207l219 -277h-192l-131 174l-127 -174h-193zM811 1591q0 -200 -152 -200q-72 0 -157 43q-84 43 -118 43q-62 0 -62 -82h-121q0 106 42 153t117 47t164 -49q6 -2 39 -19.5t66 -17.5q61 0 61 82h121z
" />
    <glyph glyph-name="uni1EAC" unicode="&#x1eac;" horiz-adv-x="1472" 
d="M645 -127h189v-197h-189v197zM909 541l-170 499l-174 -499h344zM68 150h63q47 0 72.5 16t40.5 57l391 1102h207l387 -1102q14 -41 40.5 -57t73.5 -16h62v-150h-467v150h102l-90 262h-426l-90 -262h103v-150h-469v150zM635 1821h211l256 -385h-205l-158 258l-157 -258
h-203z" />
    <glyph glyph-name="uni1EAD" unicode="&#x1ead;" horiz-adv-x="1071" 
d="M416 -127h188v-197h-188v197zM248 254q0 -137 182 -137q123 0 194.5 53t71.5 162v98l-270 -20q-100 -6 -139 -42t-39 -114zM503 866q-111 0 -179 -47v-74h-191v162q172 106 387 107q393 0 393 -348v-449q0 -41 15.5 -59.5t50.5 -18.5h45v-139h-236l-26 129
q-66 -84 -153 -122t-239 -38t-237.5 72t-85.5 211t93 207.5t270 81.5l286 18v125q0 96 -41 139t-152 43zM406 1460h210l256 -385h-204l-158 258l-158 -258h-202z" />
    <glyph glyph-name="uni1EAE" unicode="&#x1eae;" horiz-adv-x="1472" 
d="M909 541l-170 499l-174 -499h344zM68 150h63q47 0 72.5 16t40.5 57l391 1102h207l387 -1102q14 -41 40.5 -57t73.5 -16h62v-150h-467v150h102l-90 262h-426l-90 -262h103v-150h-469v150zM406 1741h153q0 -82 47 -127t135 -45t134.5 45t46.5 127h153q0 -141 -95.5 -223
t-239.5 -82t-239 81.5t-95 223.5zM776 2030h225l-208 -295h-152z" />
    <glyph glyph-name="uni1EAF" unicode="&#x1eaf;" horiz-adv-x="1071" 
d="M248 254q0 -137 182 -137q123 0 194.5 53t71.5 162v98l-270 -20q-100 -6 -139 -42t-39 -114zM503 866q-111 0 -179 -47v-74h-191v162q172 106 387 107q393 0 393 -348v-449q0 -41 15.5 -59.5t50.5 -18.5h45v-139h-236l-26 129q-66 -84 -153 -122t-239 -38t-237.5 72
t-85.5 211t93 207.5t270 81.5l286 18v125q0 96 -41 139t-152 43zM190 1382h154q0 -82 47 -127t135 -45t134.5 45t46.5 127h153q0 -141 -95 -223t-239 -82t-240 82t-96 223zM561 1671h225l-208 -295h-152z" />
    <glyph glyph-name="uni1EB0" unicode="&#x1eb0;" horiz-adv-x="1472" 
d="M909 541l-170 499l-174 -499h344zM68 150h63q47 0 72.5 16t40.5 57l391 1102h207l387 -1102q14 -41 40.5 -57t73.5 -16h62v-150h-467v150h102l-90 262h-426l-90 -262h103v-150h-469v150zM408 1741h153q0 -82 46 -127t134 -45t135.5 45t47.5 127h153q0 -141 -95.5 -223
t-239.5 -82t-239 81.5t-95 223.5zM481 2030h226l135 -295h-152z" />
    <glyph glyph-name="uni1EB1" unicode="&#x1eb1;" horiz-adv-x="1071" 
d="M248 254q0 -137 182 -137q123 0 194.5 53t71.5 162v98l-270 -20q-100 -6 -139 -42t-39 -114zM503 866q-111 0 -179 -47v-74h-191v162q172 106 387 107q393 0 393 -348v-449q0 -41 15.5 -59.5t50.5 -18.5h45v-139h-236l-26 129q-66 -84 -153 -122t-239 -38t-237.5 72
t-85.5 211t93 207.5t270 81.5l286 18v125q0 96 -41 139t-152 43zM164 1382h153q0 -82 46.5 -127t134.5 -45t135 45t47 127h154q0 -141 -96 -223t-240 -82t-239 82t-95 223zM238 1671h225l135 -295h-152z" />
    <glyph glyph-name="uni1EB2" unicode="&#x1eb2;" horiz-adv-x="1472" 
d="M909 541l-170 499l-174 -499h344zM68 150h63q47 0 72.5 16t40.5 57l391 1102h207l387 -1102q14 -41 40.5 -57t73.5 -16h62v-150h-467v150h102l-90 262h-426l-90 -262h103v-150h-469v150zM406 1741h153q0 -82 47 -127t135 -45t134.5 45t46.5 127h153q0 -141 -95.5 -223
t-239.5 -82t-239 81.5t-95 223.5zM801 1718h-146v94q68 0 92.5 15.5t24.5 52.5q0 53 -70 53q-39 0 -84 -16v104q51 18 127 19q176 0 177 -144q0 -106 -121 -131v-47z" />
    <glyph glyph-name="uni1EB3" unicode="&#x1eb3;" horiz-adv-x="1071" 
d="M248 254q0 -137 182 -137q123 0 194.5 53t71.5 162v98l-270 -20q-100 -6 -139 -42t-39 -114zM503 866q-111 0 -179 -47v-74h-191v162q172 106 387 107q393 0 393 -348v-449q0 -41 15.5 -59.5t50.5 -18.5h45v-139h-236l-26 129q-66 -84 -153 -122t-239 -38t-237.5 72
t-85.5 211t93 207.5t270 81.5l286 18v125q0 96 -41 139t-152 43zM168 1382h154q0 -82 47 -127t135 -45t134 45t46 127h154q0 -141 -96 -223t-240 -82t-239 82t-95 223zM684 1538q0 -108 -121 -131v-47h-145v94q68 0 92.5 15.5t24.5 52.5q0 53 -70 53q-39 0 -84 -16v104
q51 18 127 18q176 0 176 -143z" />
    <glyph glyph-name="uni1EB4" unicode="&#x1eb4;" horiz-adv-x="1472" 
d="M909 541l-170 499l-174 -499h344zM68 150h63q47 0 72.5 16t40.5 57l391 1102h207l387 -1102q14 -41 40.5 -57t73.5 -16h62v-150h-467v150h102l-90 262h-426l-90 -262h103v-150h-469v150zM406 1741h153q0 -82 47 -127t134 -45t134.5 45t47.5 127h153q0 -141 -95.5 -223
t-239.5 -82t-239 81.5t-95 223.5zM1042 2009q0 -201 -149 -201q-72 0 -156 43t-119 43t-49 -20.5t-14 -61.5h-121q0 106 42 153.5t118 47.5t164 -49q6 -2 37.5 -19.5t65.5 -17.5t47.5 20.5t13.5 61.5h120z" />
    <glyph glyph-name="uni1EB5" unicode="&#x1eb5;" horiz-adv-x="1071" 
d="M248 254q0 -137 182 -137q123 0 194.5 53t71.5 162v98l-270 -20q-100 -6 -139 -42t-39 -114zM503 866q-111 0 -179 -47v-74h-191v162q172 106 387 107q393 0 393 -348v-449q0 -41 15.5 -59.5t50.5 -18.5h45v-139h-236l-26 129q-66 -84 -153 -122t-239 -38t-237.5 72
t-85.5 211t93 207.5t270 81.5l286 18v125q0 96 -41 139t-152 43zM176 1382h154q0 -82 47 -127t134 -45t134 45t47 127h154q0 -141 -95.5 -223t-239.5 -82t-239.5 82t-95.5 223zM388 1536q-62 0 -62 -82h-121q0 106 42 153.5t116 47.5t165 -49q6 -2 38 -19.5t66 -17.5
t47 20.5t13 61.5h121q0 -106 -39 -153.5t-125 -47.5q-37 0 -71.5 13t-95.5 43q-60 30 -94 30z" />
    <glyph glyph-name="uni1EB6" unicode="&#x1eb6;" horiz-adv-x="1472" 
d="M645 -127h189v-197h-189v197zM909 541l-170 499l-174 -499h344zM68 150h63q47 0 72.5 16t40.5 57l391 1102h207l387 -1102q14 -41 40.5 -57t73.5 -16h62v-150h-467v150h102l-90 262h-426l-90 -262h103v-150h-469v150zM414 1729h178q0 -74 39 -114t109 -40t108.5 40
t38.5 114h178q0 -133 -88 -213t-237.5 -80t-237.5 79.5t-88 213.5z" />
    <glyph glyph-name="uni1EB7" unicode="&#x1eb7;" horiz-adv-x="1071" 
d="M426 -127h188v-197h-188v197zM248 254q0 -137 182 -137q123 0 194.5 53t71.5 162v98l-270 -20q-100 -6 -139 -42t-39 -114zM503 866q-111 0 -179 -47v-74h-191v162q172 106 387 107q393 0 393 -348v-449q0 -41 15.5 -59.5t50.5 -18.5h45v-139h-236l-26 129
q-66 -84 -153 -122t-239 -38t-237.5 72t-85.5 211t93 207.5t270 81.5l286 18v125q0 96 -41 139t-152 43zM199 1370h178q0 -74 39.5 -113.5t109.5 -39.5t108 39.5t38 113.5h178q0 -133 -88 -213t-237.5 -80t-237.5 80t-88 213z" />
    <glyph glyph-name="uni1EB8" unicode="&#x1eb8;" horiz-adv-x="1116" 
d="M467 -127h188v-197h-188v197zM68 150h59q41 0 58.5 18t17.5 59v873q0 39 -17.5 56.5t-58.5 17.5h-59v151h981v-264h-197v41q0 39 -18.5 56.5t-59.5 17.5h-354v-437h354v-151h-354v-438h354q41 0 59.5 17t18.5 58v41h197v-266h-981v150z" />
    <glyph glyph-name="uni1EB9" unicode="&#x1eb9;" horiz-adv-x="1103" 
d="M494 -127h188v-197h-188v197zM825 567q0 299 -260 299q-137 0 -208.5 -79.5t-71.5 -219.5h540zM68 487q0 258 130 392.5t365 134.5t354 -131t119 -355v-94h-751q0 -166 80.5 -244.5t223.5 -78.5t222 49v73h190v-143q-171 -121 -412 -121t-381 130t-140 388z" />
    <glyph glyph-name="uni1EBA" unicode="&#x1eba;" horiz-adv-x="1116" 
d="M68 150h59q41 0 58.5 18t17.5 59v873q0 39 -17.5 56.5t-58.5 17.5h-59v151h981v-264h-197v41q0 39 -18.5 56.5t-59.5 17.5h-354v-437h354v-151h-354v-438h354q41 0 59.5 17t18.5 58v41h197v-266h-981v150zM457 1569q127 0 127 88q0 39 -23 55.5t-77 16.5t-101 -19v121
q59 23 147 22q236 0 236 -172q0 -127 -133 -163v-82h-176v133z" />
    <glyph glyph-name="uni1EBB" unicode="&#x1ebb;" horiz-adv-x="1103" 
d="M825 567q0 299 -260 299q-137 0 -208.5 -79.5t-71.5 -219.5h540zM68 487q0 258 130 392.5t365 134.5t354 -131t119 -355v-94h-751q0 -166 80.5 -244.5t223.5 -78.5t222 49v73h190v-143q-171 -121 -412 -121t-381 130t-140 388zM487 1208q127 0 127 88q0 39 -22.5 55.5
t-76.5 16.5t-101 -18v120q59 23 147 23q236 0 236 -172q0 -127 -133 -164v-82h-177v133z" />
    <glyph glyph-name="uni1EBC" unicode="&#x1ebc;" horiz-adv-x="1116" 
d="M68 150h59q41 0 58.5 18t17.5 59v873q0 39 -17.5 56.5t-58.5 17.5h-59v151h981v-264h-197v41q0 39 -18.5 56.5t-59.5 17.5h-354v-437h354v-151h-354v-438h354q41 0 59.5 17t18.5 58v41h197v-266h-981v150zM174 1436q0 280 210 280q101 0 197 -55t142 -55q47 0 68.5 24.5
t21.5 85.5h160q0 -147 -53.5 -213.5t-151.5 -66.5t-195 54q-98 54 -146 54t-70.5 -24.5t-22.5 -83.5h-160z" />
    <glyph glyph-name="uni1EBD" unicode="&#x1ebd;" horiz-adv-x="1103" 
d="M825 567q0 299 -260 299q-137 0 -208.5 -79.5t-71.5 -219.5h540zM68 487q0 258 130 392.5t365 134.5t354 -131t119 -355v-94h-751q0 -166 80.5 -244.5t223.5 -78.5t222 49v73h190v-143q-171 -121 -412 -121t-381 130t-140 388zM178 1077q0 281 211 281q102 0 207 -64
q85 -47 131 -47q47 0 68.5 24.5t21.5 86.5h160q0 -147 -53.5 -214t-150.5 -67q-97 1 -195 55t-147 54q-48 0 -70.5 -24.5t-22.5 -84.5h-160z" />
    <glyph glyph-name="uni1EBE" unicode="&#x1ebe;" horiz-adv-x="1116" 
d="M68 150h59q41 0 58.5 18t17.5 59v873q0 39 -17.5 56.5t-58.5 17.5h-59v151h981v-264h-197v41q0 39 -18.5 56.5t-59.5 17.5h-354v-437h354v-151h-354v-438h354q41 0 59.5 17t18.5 58v41h197v-266h-981v150zM442 1712h205l219 -276h-194l-127 174l-131 -174h-191zM877 1919
h231l-201 -260h-159z" />
    <glyph glyph-name="uni1EBF" unicode="&#x1ebf;" horiz-adv-x="1103" 
d="M825 567q0 299 -260 299q-137 0 -208.5 -79.5t-71.5 -219.5h540zM68 487q0 258 130 392.5t365 134.5t354 -131t119 -355v-94h-751q0 -166 80.5 -244.5t223.5 -78.5t222 49v73h190v-143q-171 -121 -412 -121t-381 130t-140 388zM449 1354h204l219 -277h-194l-127 174
l-131 -174h-191zM883 1561h231l-201 -261h-159z" />
    <glyph glyph-name="uni1EC0" unicode="&#x1ec0;" horiz-adv-x="1116" 
d="M68 150h59q41 0 58.5 18t17.5 59v873q0 39 -17.5 56.5t-58.5 17.5h-59v151h981v-264h-197v41q0 39 -18.5 56.5t-59.5 17.5h-354v-437h354v-151h-354v-438h354q41 0 59.5 17t18.5 58v41h197v-266h-981v150zM461 1712h205l219 -276h-191l-131 174l-127 -174h-194zM10 1919
h232l129 -260h-160z" />
    <glyph glyph-name="uni1EC1" unicode="&#x1ec1;" horiz-adv-x="1103" 
d="M825 567q0 299 -260 299q-137 0 -208.5 -79.5t-71.5 -219.5h540zM68 487q0 258 130 392.5t365 134.5t354 -131t119 -355v-94h-751q0 -166 80.5 -244.5t223.5 -78.5t222 49v73h190v-143q-171 -121 -412 -121t-381 130t-140 388zM434 1354h205l219 -277h-190l-131 174
l-127 -174h-195zM-63 1561h231l129 -261h-160z" />
    <glyph glyph-name="uni1EC2" unicode="&#x1ec2;" horiz-adv-x="1116" 
d="M68 150h59q41 0 58.5 18t17.5 59v873q0 39 -17.5 56.5t-58.5 17.5h-59v151h981v-264h-197v41q0 39 -18.5 56.5t-59.5 17.5h-354v-437h354v-151h-354v-438h354q41 0 59.5 17t18.5 58v41h197v-266h-981v150zM438 1712h207l219 -276h-192l-131 174l-127 -174h-193zM846 1694
h-146v94q68 0 92.5 15.5t24.5 51.5q0 54 -69 54q-39 0 -84 -17v105q51 18 124 18q178 0 179 -143q0 -108 -121 -131v-47z" />
    <glyph glyph-name="uni1EC3" unicode="&#x1ec3;" horiz-adv-x="1103" 
d="M825 567q0 299 -260 299q-137 0 -208.5 -79.5t-71.5 -219.5h540zM68 487q0 258 130 392.5t365 134.5t354 -131t119 -355v-94h-751q0 -166 80.5 -244.5t223.5 -78.5t222 49v73h190v-143q-171 -121 -412 -121t-381 130t-140 388zM465 1354h207l219 -277h-193l-131 174
l-127 -174h-192zM844 1497q0 53 -70 53q-39 0 -84 -16v104q51 18 125 19q178 0 178 -144q0 -55 -28.5 -86.5t-92.5 -44.5v-47h-145v95q68 0 92.5 15t24.5 52z" />
    <glyph glyph-name="uni1EC4" unicode="&#x1ec4;" horiz-adv-x="1116" 
d="M68 150h59q41 0 58.5 18t17.5 59v873q0 39 -17.5 56.5t-58.5 17.5h-59v151h981v-264h-197v41q0 39 -18.5 56.5t-59.5 17.5h-354v-437h354v-151h-354v-438h354q41 0 59.5 17t18.5 58v41h197v-266h-981v150zM475 1712h207l219 -276h-192l-131 174l-127 -174h-193zM700 1868
q64 0 64 82h121q0 -106 -40 -153.5t-113 -47.5t-165 49q-77 37 -108 37q-64 0 -64 -82h-121q0 106 42 153.5t116 47.5t166 -49q6 -2 37.5 -19.5t64.5 -17.5z" />
    <glyph glyph-name="uni1EC5" unicode="&#x1ec5;" horiz-adv-x="1103" 
d="M825 567q0 299 -260 299q-137 0 -208.5 -79.5t-71.5 -219.5h540zM68 487q0 258 130 392.5t365 134.5t354 -131t119 -355v-94h-751q0 -166 80.5 -244.5t223.5 -78.5t222 49v73h190v-143q-171 -121 -412 -121t-381 130t-140 388zM444 1354h207l219 -277h-192l-131 174
l-127 -174h-193zM854 1591q0 -200 -152 -200q-72 0 -157 43q-84 43 -118 43q-62 0 -62 -82h-121q0 106 42 153t117 47t164 -49q6 -2 39 -19.5t66 -17.5q61 0 61 82h121z" />
    <glyph glyph-name="uni1EC6" unicode="&#x1ec6;" horiz-adv-x="1116" 
d="M463 -127h188v-197h-188v197zM68 150h59q41 0 58.5 18t17.5 59v873q0 39 -17.5 56.5t-58.5 17.5h-59v151h981v-264h-197v41q0 39 -18.5 56.5t-59.5 17.5h-354v-437h354v-151h-354v-438h354q41 0 59.5 17t18.5 58v41h197v-266h-981v150zM451 1821h211l256 -385h-205
l-158 258l-158 -258h-202z" />
    <glyph glyph-name="uni1EC7" unicode="&#x1ec7;" horiz-adv-x="1103" 
d="M479 -127h189v-197h-189v197zM825 567q0 299 -260 299q-137 0 -208.5 -79.5t-71.5 -219.5h540zM68 487q0 258 130 392.5t365 134.5t354 -131t119 -355v-94h-751q0 -166 80.5 -244.5t223.5 -78.5t222 49v73h190v-143q-171 -121 -412 -121t-381 130t-140 388zM469 1460h211
l256 -385h-205l-158 258l-157 -258h-203z" />
    <glyph glyph-name="uni1EC8" unicode="&#x1ec8;" horiz-adv-x="620" 
d="M68 150h59q41 0 58.5 18t17.5 59v873q0 39 -17.5 56.5t-58.5 17.5h-59v151h485v-151h-59q-39 0 -56.5 -17.5t-17.5 -56.5v-875q0 -41 17.5 -58t56.5 -17h59v-150h-485v150zM221 1569q127 0 127 88q0 39 -22.5 55.5t-76.5 16.5t-102 -19v121q59 23 148 22q236 0 235 -172
q0 -127 -133 -163v-82h-176v133z" />
    <glyph glyph-name="uni1EC9" unicode="&#x1ec9;" horiz-adv-x="583" 
d="M401 227q0 -75 76 -75h60v-152h-490v152h59q41 0 58.5 18t17.5 59v527q0 39 -17.5 56t-58.5 17h-59v154h354v-756zM180 1180q127 0 127 88q0 39 -22.5 55t-76.5 16t-102 -18v121q59 23 148 22q236 0 235 -172q0 -127 -133 -164v-81h-176v133z" />
    <glyph glyph-name="uni1ECA" unicode="&#x1eca;" horiz-adv-x="620" 
d="M215 -127h188v-197h-188v197zM68 150h59q41 0 58.5 18t17.5 59v873q0 39 -17.5 56.5t-58.5 17.5h-59v151h485v-151h-59q-39 0 -56.5 -17.5t-17.5 -56.5v-875q0 -41 17.5 -58t56.5 -17h59v-150h-485v150z" />
    <glyph glyph-name="uni1ECB" unicode="&#x1ecb;" horiz-adv-x="583" 
d="M199 -127h188v-197h-188v197zM401 227q0 -75 76 -75h60v-152h-490v152h59q41 0 58.5 18t17.5 59v527q0 39 -17.5 56t-58.5 17h-59v154h354v-756zM176 1327h232v-188h-232v188z" />
    <glyph glyph-name="uni1ECC" unicode="&#x1ecc;" horiz-adv-x="1349" 
d="M557 -127h188v-197h-188v197zM1069 660q0 290 -95 417t-299 127t-299 -127t-95 -417t96 -414.5t298 -124.5t298 124.5t96 414.5zM68 659q0 348 146 522.5t460 174.5t461 -174t147 -522t-149.5 -519.5t-457.5 -171.5t-457.5 171t-149.5 519z" />
    <glyph glyph-name="uni1ECD" unicode="&#x1ecd;" horiz-adv-x="1142" 
d="M477 -127h189v-197h-189v197zM862 490q0 187 -71.5 278.5t-219 91.5t-218 -91t-70.5 -279t70.5 -277.5t218 -89.5t219 90t71.5 277zM68 490q0 246 125.5 385t377.5 139t378 -138.5t126 -385.5t-127 -384t-376.5 -137t-376.5 137.5t-127 383.5z" />
    <glyph glyph-name="uni1ECE" unicode="&#x1ece;" horiz-adv-x="1349" 
d="M1069 660q0 290 -95 417t-299 127t-299 -127t-95 -417t96 -414.5t298 -124.5t298 124.5t96 414.5zM68 659q0 348 146 522.5t460 174.5t461 -174t147 -522t-149.5 -519.5t-457.5 -171.5t-457.5 171t-149.5 519zM557 1569q127 0 127 88q0 39 -22.5 55.5t-76.5 16.5
t-102 -19v121q59 23 148 22q236 0 235 -172q0 -127 -133 -163v-82h-176v133z" />
    <glyph glyph-name="uni1ECF" unicode="&#x1ecf;" horiz-adv-x="1142" 
d="M862 490q0 187 -71.5 278.5t-219 91.5t-218 -91t-70.5 -279t70.5 -277.5t218 -89.5t219 90t71.5 277zM68 490q0 246 125.5 385t377.5 139t378 -138.5t126 -385.5t-127 -384t-376.5 -137t-376.5 137.5t-127 383.5zM485 1208q127 0 127 88q0 39 -22.5 55.5t-76.5 16.5
t-101 -18v120q59 23 147 23q236 0 236 -172q0 -127 -133 -164v-82h-177v133z" />
    <glyph glyph-name="uni1ED0" unicode="&#x1ed0;" horiz-adv-x="1349" 
d="M1069 660q0 290 -95 417t-299 127t-299 -127t-95 -417t96 -414.5t298 -124.5t298 124.5t96 414.5zM68 659q0 348 146 522.5t460 174.5t461 -174t147 -522t-149.5 -519.5t-457.5 -171.5t-457.5 171t-149.5 519zM575 1712h205l219 -276h-194l-127 174l-131 -174h-191z
M1010 1919h231l-201 -260h-159z" />
    <glyph glyph-name="uni1ED1" unicode="&#x1ed1;" horiz-adv-x="1142" 
d="M862 490q0 187 -71.5 278.5t-219 91.5t-218 -91t-70.5 -279t70.5 -277.5t218 -89.5t219 90t71.5 277zM68 490q0 246 125.5 385t377.5 139t378 -138.5t126 -385.5t-127 -384t-376.5 -137t-376.5 137.5t-127 383.5zM463 1354h205l219 -277h-195l-127 174l-131 -174h-190z
M897 1561h231l-200 -261h-160z" />
    <glyph glyph-name="uni1ED2" unicode="&#x1ed2;" horiz-adv-x="1349" 
d="M1069 660q0 290 -95 417t-299 127t-299 -127t-95 -417t96 -414.5t298 -124.5t298 124.5t96 414.5zM68 659q0 348 146 522.5t460 174.5t461 -174t147 -522t-149.5 -519.5t-457.5 -171.5t-457.5 171t-149.5 519zM543 1712h205l219 -276h-191l-131 174l-127 -174h-194z
M82 1919h231l129 -260h-159z" />
    <glyph glyph-name="uni1ED3" unicode="&#x1ed3;" horiz-adv-x="1142" 
d="M862 490q0 187 -71.5 278.5t-219 91.5t-218 -91t-70.5 -279t70.5 -277.5t218 -89.5t219 90t71.5 277zM68 490q0 246 125.5 385t377.5 139t378 -138.5t126 -385.5t-127 -384t-376.5 -137t-376.5 137.5t-127 383.5zM449 1354h204l219 -277h-190l-131 174l-127 -174h-195z
M-55 1561h231l129 -261h-160z" />
    <glyph glyph-name="uni1ED4" unicode="&#x1ed4;" horiz-adv-x="1349" 
d="M1069 660q0 290 -95 417t-299 127t-299 -127t-95 -417t96 -414.5t298 -124.5t298 124.5t96 414.5zM68 659q0 348 146 522.5t460 174.5t461 -174t147 -522t-149.5 -519.5t-457.5 -171.5t-457.5 171t-149.5 519zM539 1712h206l220 -276h-193l-131 174l-127 -174h-192z
M1067 1872q0 -108 -121 -131v-47h-145v94q68 0 92.5 15.5t24.5 51.5q0 54 -70 54q-39 0 -84 -17v105q51 18 125 18q178 0 178 -143z" />
    <glyph glyph-name="uni1ED5" unicode="&#x1ed5;" horiz-adv-x="1142" 
d="M862 490q0 187 -71.5 278.5t-219 91.5t-218 -91t-70.5 -279t70.5 -277.5t218 -89.5t219 90t71.5 277zM68 490q0 246 125.5 385t377.5 139t378 -138.5t126 -385.5t-127 -384t-376.5 -137t-376.5 137.5t-127 383.5zM446 1354h207l219 -277h-192l-131 174l-127 -174h-193z
M825 1497q0 53 -69 53q-39 0 -84 -16v104q51 18 125 19q178 0 178 -144q0 -55 -28.5 -86.5t-92.5 -44.5v-47h-145v95q68 0 92 15t24 52z" />
    </font>
</defs>
</svg>
