<?xml version="1.0" standalone="no"?>
<!DOCTYPE svg PUBLIC "-//W3C//DTD SVG 1.1//EN" "http://www.w3.org/Graphics/SVG/1.1/DTD/svg11.dtd" >
<svg xmlns="http://www.w3.org/2000/svg">
<metadata>
Created by FontPrep 20130207 at Sat Feb 25 08:02:28 2017
 By Solano
Copyright (c) 2015, Cadson Demak (info@cadsondemak.com)
</metadata>
<defs>
<font id="7d7aef4b2244f7e28762a56ed04b6482" horiz-adv-x='1024' >
  <font-face 
    font-family="Pridi-Light"
    font-weight="300"
    font-stretch="normal"
    units-per-em="2048"
    panose-1="0 0 4 0 0 0 0 0 0 0"
    ascent="1536"
    descent="-512"
    x-height="983"
    cap-height="1325"
    bbox="-1192 -864 2363 2134"
    underline-thickness="102"
    underline-position="-102"
    unicode-range="U+000D-FB02"
  />
<missing-glyph horiz-adv-x="1228" 
d="M930 104v1254h-633v-1254h633zM193 1462h841v-1462h-841v1462z" />
    <glyph glyph-name="fi" unicode="fi" horiz-adv-x="1144" 
d="M88 121h62q41 0 57 17.5t16 58.5v665h-164v121h164v70q0 154 101.5 243.5t269.5 89.5q121 0 203 -26.5t149 -87.5v-139h-153v86q-66 47 -195 47q-213 0 -213 -203v-80h561v-786q0 -41 16.5 -58.5t55.5 -17.5h67v-121h-301v862h-399v-665q0 -41 16.5 -58.5t55.5 -17.5h61
v-121h-430v121z" />
    <glyph glyph-name="fl" unicode="fl" horiz-adv-x="1144" 
d="M588 1266q-203 0 -203 -203v-80h401v242q-63 41 -198 41zM584 1386q237 0 362 -114v-1075q0 -41 16.5 -58.5t55.5 -17.5h67v-121h-301v862h-399v-665q0 -41 16.5 -58.5t55.5 -17.5h61v-121h-430v121h62q41 0 57 17.5t16 58.5v665h-164v121h164v70q0 156 96.5 244.5
t264.5 88.5z" />
    <glyph glyph-name="ru_lakkhangyaothai" unicode="&#xe24;&#xe45;" horiz-adv-x="1765" 
d="M422 154q0 52 -19.5 71t-73 19t-73.5 -20.5t-20 -69.5t20 -68.5t73.5 -19.5t73 18t19.5 70zM352 336q172 0 172 -184q0 -94 -47 -138.5t-155 -44.5t-151.5 45t-43.5 154v297q0 175 121 237l-168 101v131q197 180 477 180q240 0 363 -117q137 117 345 117t294 -99.5
t86 -283.5v-1143h-166v1145q0 135 -49.5 197.5t-193.5 62.5t-253 -98q35 -68 35 -154v-1153h-166v1153q0 252 -295 252q-206 0 -328 -108v-27l177 -110v-84q-66 -27 -89.5 -71t-23.5 -132v-133q25 8 59 8z" />
    <glyph glyph-name="lu_lakkhangyaothai" unicode="&#xe26;&#xe45;" horiz-adv-x="1869" 
d="M369 154q0 50 -20.5 70t-74 20t-73 -19.5t-19.5 -69.5t20 -68.5t74 -18.5t73.5 18t19.5 68zM664 1114q240 0 360 -117q137 117 345 117t294 -99.5t86 -283.5v-1143h-166v1145q0 135 -49.5 197.5t-189.5 62.5t-254 -102q33 -59 32 -150v-1153h-166v1153q0 252 -292 252
q-209 0 -334 -108v-27l215 -129v-84q-45 -37 -56.5 -72.5t-11.5 -115.5v-289q0 -109 -43 -154t-152 -45t-155.5 44t-46.5 143q0 180 172 180q31 0 59 -6v131q0 80 12.5 126t59.5 91l-205 125v131q201 180 486 180z" />
    <glyph glyph-name=".notdef" horiz-adv-x="1228" 
d="M930 104v1254h-633v-1254h633zM193 1462h841v-1462h-841v1462z" />
    <glyph glyph-name=".null" 
 />
    <glyph glyph-name="nonmarkingreturn" unicode="&#xd;" horiz-adv-x="768" 
 />
    <glyph glyph-name="space" unicode=" " horiz-adv-x="768" 
 />
    <glyph glyph-name="exclam" unicode="!" horiz-adv-x="385" 
d="M100 158h185v-158h-185v158zM102 1325h181l-15 -989h-153z" />
    <glyph glyph-name="quotedbl" unicode="&#x22;" horiz-adv-x="647" 
d="M377 1477h170l-23 -383h-123zM100 1477h170l-22 -383h-125z" />
    <glyph glyph-name="numbersign" unicode="#" horiz-adv-x="1529" 
d="M940 485l86 385h-424l-86 -385h424zM100 365v120h267l86 385h-293v123h319l72 332h149l-71 -332h424l71 332h152l-74 -332h228v-123h-254l-86 -385h278v-120h-305l-78 -365h-149l77 365h-424l-77 -365h-152l80 365h-240z" />
    <glyph glyph-name="dollar" unicode="$" horiz-adv-x="1120" 
d="M100 291h162v-121q55 -35 143.5 -56.5t174.5 -21.5q139 0 210.5 58.5t71.5 166.5q0 136 -99 190t-231 104t-275.5 130.5t-143.5 270.5q0 150 101 234.5t267 103.5v221h154v-219q210 -16 358 -123v-174h-162v119q-100 59 -252 59q-309 0 -309 -219q0 -76 45 -126
t103.5 -78t195.5 -82t271.5 -129.5t134.5 -276.5q0 -143 -100.5 -238.5t-284.5 -110.5v-219h-154v219q-233 26 -381 140v178z" />
    <glyph glyph-name="percent" unicode="%" horiz-adv-x="1583" 
d="M1360 285q0 80 -56.5 135t-136.5 55t-135 -55t-55 -135t55 -136.5t135 -56.5t136.5 56.5t56.5 136.5zM852 285q0 86 42 158.5t114.5 114.5t158.5 42t159 -42t115 -114.5t42 -158.5t-42 -159t-115 -115t-159 -42t-158.5 42t-114.5 115t-42 159zM606 1040.5q0 79.5 -55 135
t-135 55.5t-136.5 -55.5t-56.5 -135t56.5 -136t136.5 -56.5t135 56.5t55 136zM1098 1325h162l-773 -1325h-161zM100 1040q0 86 42 159t115 115t159 42t158.5 -42t114.5 -115t42 -159t-42 -158.5t-114.5 -114.5t-158.5 -42t-159 42t-115 114.5t-42 158.5z" />
    <glyph glyph-name="ampersand" unicode="&#x26;" horiz-adv-x="1396" 
d="M258 320q0 -114 88 -172t204 -58t192.5 25.5t146.5 87.5l-408 432q-119 -57 -171 -129t-52 -186zM522 1233q-168 -1 -168 -159q0 -78 32 -125.5t122 -143.5l459 -483q47 100 47 262v164h282v-119h-73q-35 0 -50.5 -14.5t-15.5 -53.5q0 -227 -82 -358l193 -203h-189
l-102 109q-90 -78 -187.5 -109t-234.5 -31q-207 0 -331 93.5t-124 249.5t68 246.5t217 176.5q-92 92 -140 166t-48 158q0 143 86.5 220t244.5 77t241 -84t83 -219v-74h-162v82q0 172 -168 172z" />
    <glyph glyph-name="quotesingle" unicode="'" horiz-adv-x="378" 
d="M100 1477h179l-23 -383h-133z" />
    <glyph glyph-name="parenleft" unicode="(" horiz-adv-x="686" 
d="M258 647q0 -536 328 -801h-199q-287 281 -287 801t287 801h199q-166 -133 -247 -339t-81 -462z" />
    <glyph glyph-name="parenright" unicode=")" horiz-adv-x="686" 
d="M586 646q0 -517 -289 -800h-197q164 134 246 339.5t82 461.5q0 538 -328 801h197q289 -285 289 -802z" />
    <glyph glyph-name="asterisk" unicode="*" horiz-adv-x="831" 
d="M168 938l158 199l-226 61l45 137l205 -84l-10 226h154l-13 -226l205 84l45 -137l-225 -61l158 -199l-123 -80l-125 199l-127 -199z" />
    <glyph glyph-name="plus" unicode="+" horiz-adv-x="841" 
d="M346 565h-246v121h246v221h146v-221h249v-121h-249v-221h-146v221z" />
    <glyph glyph-name="comma" unicode="," horiz-adv-x="440" 
d="M162 160h178l-121 -400h-119z" />
    <glyph glyph-name="hyphen" unicode="-" horiz-adv-x="774" 
d="M100 686h574v-121h-574v121z" />
    <glyph glyph-name="period" unicode="." horiz-adv-x="366" 
d="M100 160h166v-160h-166v160z" />
    <glyph glyph-name="slash" unicode="/" horiz-adv-x="876" 
d="M614 1384h162l-512 -1384h-164z" />
    <glyph glyph-name="zero" unicode="0" horiz-adv-x="1261" 
d="M1024 662q0 302 -101.5 436.5t-292 134.5t-291.5 -134t-101 -436t101 -436.5t291.5 -134.5t292 134t101.5 436zM80 662q0 348 135 521t415.5 173t416 -173t135.5 -520t-135.5 -520.5t-416 -173.5t-415.5 172.5t-135 520.5z" />
    <glyph glyph-name="one" unicode="1" horiz-adv-x="806" 
d="M158 121h125q47 0 63 17.5t16 58.5v970l-219 -133l-63 107l295 184h149v-1128q0 -41 16.5 -58.5t63.5 -17.5h123v-121h-569v121z" />
    <glyph glyph-name="two" unicode="2" horiz-adv-x="1083" 
d="M825 1010q0 223 -304 223q-149 0 -257 -57v-117h-160v176q78 53 195 87t233 34q203 0 327 -87t124 -259q0 -111 -40 -191t-126.5 -147.5t-242.5 -142.5t-233 -172t-77 -236h705v-121h-869v100q0 186 109.5 315.5t322.5 233.5q111 53 202 123.5t91 237.5z" />
    <glyph glyph-name="three" unicode="3" horiz-adv-x="1120" 
d="M537 -31q-251 0 -437 144v176h162v-119q121 -78 288 -78t239.5 67.5t72.5 227.5q0 244 -287 244h-155v123h164q264 0 264 258q0 221 -289 221q-158 0 -270 -57v-117h-162v174q76 55 193.5 89t236.5 34q201 0 325 -86t124 -254q0 -225 -183 -322q197 -84 197 -303
t-116 -320.5t-367 -101.5z" />
    <glyph glyph-name="four" unicode="4" horiz-adv-x="1144" 
d="M696 473v649l-475 -649h475zM494 121h116q47 0 63.5 17.5t16.5 58.5v153h-631v117l627 858h164v-852h235v-123h-235v-153q0 -41 16.5 -58.5t63.5 -17.5h114v-121h-550v121z" />
    <glyph glyph-name="five" unicode="5" horiz-adv-x="1126" 
d="M543 -31q-252 0 -443 144v176h162v-119q113 -78 288 -78t246.5 88t71.5 260t-80.5 238.5t-259.5 66.5h-381v99l41 481h793v-123h-647l-29 -332h248q473 0 473 -432q0 -225 -115.5 -347t-367.5 -122z" />
    <glyph glyph-name="six" unicode="6" horiz-adv-x="1142" 
d="M926 458q0 188 -80 270.5t-250 82.5q-86 0 -163 -37t-126 -108.5t-49 -173.5q0 -399 328 -400q180 0 260 89t80 277zM625 934q219 0 338.5 -120t119.5 -341q0 -504 -497 -504q-228 0 -357 143.5t-129 454.5q0 428 156 608.5t389 180.5q111 0 189.5 -23.5t152.5 -77.5
l-65 -104q-113 80 -276 80q-321 0 -388 -463q70 88 156 127t211 39z" />
    <glyph glyph-name="seven" unicode="7" horiz-adv-x="1032" 
d="M221 1202v-145h-162v268h914v-90l-496 -1235h-162l484 1202h-578z" />
    <glyph glyph-name="eight" unicode="8" horiz-adv-x="1177" 
d="M571 635q-313 0 -313 -271q0 -136 80 -204t251 -68t251 68t80 204q0 272 -314 271h-35zM899 1001q0 232 -310 232t-310 -239q0 -124 71.5 -184t218.5 -60h39q150 0 220.5 59t70.5 192zM1077 371q-1 -401 -489 -401t-488 401q0 119 55.5 198.5t147.5 120.5
q-182 97 -182 311q0 172 128 263.5t340 91.5t340 -91t128 -264q0 -215 -183 -311q92 -41 147.5 -121t55.5 -198z" />
    <glyph glyph-name="nine" unicode="9" horiz-adv-x="1183" 
d="M926 836q0 397 -320 397q-182 0 -265 -89.5t-83 -277.5t80 -270t252 -82q88 0 164.5 37t124 109.5t47.5 175.5zM545 92q166 0 257 116t124 349q-68 -86 -153 -125t-210 -39q-221 0 -342 120.5t-121 354.5t129 361t367 127t362.5 -143.5t124.5 -456.5
q0 -428 -149.5 -607.5t-369.5 -179.5t-355 97l67 108q66 -45 125.5 -63.5t143.5 -18.5z" />
    <glyph glyph-name="colon" unicode=":" horiz-adv-x="372" 
d="M100 176h172v-176h-172v176zM100 1008h172v-177h-172v177z" />
    <glyph glyph-name="semicolon" unicode=";" horiz-adv-x="440" 
d="M160 160h176l-121 -400h-115zM156 1008h180v-177h-180v177z" />
    <glyph glyph-name="less" unicode="&#x3c;" horiz-adv-x="1282" 
d="M100 606v113l1082 471v-152l-895 -374l895 -377v-152z" />
    <glyph glyph-name="equal" unicode="=" horiz-adv-x="819" 
d="M100 532h619v-122h-619v122zM100 829h619v-120h-619v120z" />
    <glyph glyph-name="greater" unicode="&#x3e;" horiz-adv-x="1282" 
d="M100 287l895 377l-895 374v152l1082 -471v-113l-1082 -471v152z" />
    <glyph glyph-name="question" unicode="?" horiz-adv-x="1081" 
d="M356 168h195v-168h-195v168zM530 1233q-158 0 -278 -70v-114h-152v178q76 57 193 93t239 36q205 0 327 -84t122 -252q0 -94 -28.5 -156.5t-89.5 -110t-165 -101.5t-133.5 -115.5t-29.5 -165.5v-60h-162v64q0 137 55 227t181 150t170 113t44 155q0 213 -293 213z" />
    <glyph glyph-name="at" unicode="@" horiz-adv-x="1757" 
d="M1071 426v66l-244 -17q-82 -6 -116.5 -34.5t-34.5 -90.5t37 -88t129 -26t160.5 48t68.5 142zM1333 248q174 0 174 338q0 209 -89 411.5t-535 202.5q-307 0 -471 -166t-164 -480t166 -481t448 -167t479 82v-131q-213 -82 -465 -82t-427 99t-262 277.5t-87 414.5
t93.5 409.5t269.5 266.5t420 93q774 0 774 -751q0 -207 -75 -333t-243 -126q-78 0 -134 42t-70 101q-104 -147 -326 -147q-133 0 -206 58.5t-73 162.5q0 223 275 242l266 18v72q0 90 -35 127t-128 37t-169 -33v-60h-149v125q126 82 319 82q316 0 316 -284v-287
q0 -133 108 -133z" />
    <glyph glyph-name="A" unicode="A" horiz-adv-x="1476" 
d="M942 530l-203 576l-202 -576h405zM80 121h67q86 0 111 74l406 1130h153l402 -1130q14 -41 40.5 -57.5t71.5 -16.5h66v-121h-424v121h110l-104 299h-479l-107 -299h111v-121h-424v121z" />
    <glyph glyph-name="B" unicode="B" horiz-adv-x="1193" 
d="M737 121q104 0 161.5 62.5t57.5 185.5t-61 181t-199 58h-315v-487h356zM680 729q121 0 186.5 63.5t65.5 182.5t-54.5 174t-181.5 55h-315v-475h299zM907 674q207 -64 207 -332q0 -136 -90 -239t-254 -103h-690v121h65q39 0 55.5 17.5t16.5 58.5v933q0 41 -16.5 57.5
t-55.5 16.5h-65v121h651q176 0 267.5 -92t91.5 -256q0 -104 -46.5 -184t-136.5 -119z" />
    <glyph glyph-name="C" unicode="C" horiz-adv-x="1222" 
d="M80 656q0 202 70.5 361t215 249t355.5 90q272 0 422 -111v-184h-162v123q-100 49 -260 49q-227 0 -355 -153.5t-128 -424.5q0 -174 62 -301t177 -194.5t288 -67.5t300 76l65 -102q-150 -97 -375 -97t-373.5 87t-225 242.5t-76.5 357.5z" />
    <glyph glyph-name="D" unicode="D" horiz-adv-x="1277" 
d="M625 121q217 0 316 134t99 406t-98 407.5t-317 135.5h-260v-1083h260zM80 121h49q39 0 55.5 17.5t16.5 58.5v933q0 41 -16.5 57.5t-55.5 16.5h-49v121h565q281 0 417 -175.5t136 -485.5t-140 -487t-413 -177h-565v121z" />
    <glyph glyph-name="E" unicode="E" horiz-adv-x="1114" 
d="M80 121h65q39 0 55.5 17.5t16.5 58.5v933q0 41 -16.5 57.5t-55.5 16.5h-65v121h954v-238h-147v46q0 39 -17.5 55t-58.5 16h-430v-479h393v-121h-393v-483h430q41 0 58.5 16.5t17.5 55.5v47h147v-240h-954v121z" />
    <glyph glyph-name="F" unicode="F" horiz-adv-x="1114" 
d="M80 121h65q39 0 55.5 17.5t16.5 58.5v933q0 41 -16.5 57.5t-55.5 16.5h-65v121h954v-238h-147v46q0 39 -17.5 55t-58.5 16h-430v-479h393v-121h-393v-409q0 -41 16.5 -57.5t55.5 -16.5h65v-121h-438v121z" />
    <glyph glyph-name="G" unicode="G" horiz-adv-x="1251" 
d="M80 655q0 315 156.5 508t470.5 193q270 0 423 -111v-184h-163v121q-96 51 -260 51q-225 0 -347 -152.5t-122 -420.5t129 -418t356 -150q168 0 287 51v416h-299v123h460v-592q-184 -121 -452 -121q-205 0 -349.5 87t-217 243t-72.5 356z" />
    <glyph glyph-name="H" unicode="H" horiz-adv-x="1390" 
d="M80 121h65q39 0 55.5 17.5t16.5 58.5v933q0 41 -16.5 57.5t-55.5 16.5h-65v121h434v-121h-61q-39 0 -55.5 -16.5t-16.5 -57.5v-405h629v405q0 41 -16.5 57.5t-55.5 16.5h-64v121h437v-121h-64q-39 0 -56 -16.5t-17 -57.5v-933q0 -41 16 -58.5t57 -17.5h64v-121h-437v121
h64q39 0 55.5 17.5t16.5 58.5v407h-629v-407q0 -41 16.5 -58.5t55.5 -17.5h61v-121h-434v121z" />
    <glyph glyph-name="I" unicode="I" horiz-adv-x="598" 
d="M80 121h65q39 0 55.5 17.5t16.5 58.5v933q0 41 -16.5 57.5t-55.5 16.5h-65v121h438v-121h-65q-39 0 -55.5 -16.5t-16.5 -57.5v-935q0 -41 16.5 -57.5t55.5 -16.5h65v-121h-438v121z" />
    <glyph glyph-name="J" unicode="J" horiz-adv-x="1001" 
d="M18 264h152v-98q68 -74 204 -74t191.5 62.5t55.5 189.5v786q0 41 -16.5 57.5t-57.5 16.5h-64v121h439v-121h-66q-39 0 -55.5 -17.5t-16.5 -56.5v-768q0 -184 -99 -288.5t-286 -104.5q-242 1 -381 146v149z" />
    <glyph glyph-name="K" unicode="K" horiz-adv-x="1312" 
d="M80 121h61q43 0 59.5 17.5t16.5 56.5v935q0 41 -16.5 57.5t-55.5 16.5h-49v121h398v-121h-41q-39 0 -55.5 -16.5t-16.5 -57.5v-493l524 567h-110v121h415v-121h-80q-37 0 -59 -14t-55 -51l-350 -375l381 -576q44 -67 116 -67h70v-121h-430v121h117l-355 536l-184 -198
v-264q0 -39 15.5 -56.5t58.5 -17.5h55v-121h-430v121z" />
    <glyph glyph-name="L" unicode="L" horiz-adv-x="1036" 
d="M80 121h43q45 0 61.5 17.5t16.5 58.5v933q0 41 -16.5 57.5t-55.5 16.5h-49v121h405v-121h-49q-39 0 -55 -16.5t-16 -57.5v-1009h430q41 0 58 16.5t17 57.5v53h148v-248h-938v121z" />
    <glyph glyph-name="M" unicode="M" horiz-adv-x="1587" 
d="M80 121h65q39 0 55.5 17.5t16.5 58.5v931q0 41 -16.5 58.5t-55.5 17.5h-65v121h323l392 -915l389 915h323v-121h-65q-39 0 -55.5 -17.5t-16.5 -58.5v-931q0 -41 16.5 -58.5t55.5 -17.5h65v-121h-438v121h68q39 0 55 17.5t16 56.5v866l-348 -817h-133l-348 817v-866
q0 -39 16.5 -56.5t55.5 -17.5h67v-121h-438v121z" />
    <glyph glyph-name="N" unicode="N" horiz-adv-x="1409" 
d="M80 121h65q39 0 55.5 16.5t16.5 57.5v935q0 41 -16.5 57.5t-55.5 16.5h-65v121h272l678 -1051v856q0 41 -16.5 57.5t-57.5 16.5h-65v121h438v-121h-65q-39 0 -55.5 -16.5t-16.5 -57.5v-1130h-135l-678 1049v-854q0 -39 17.5 -56.5t56.5 -17.5h65v-121h-438v121z" />
    <glyph glyph-name="O" unicode="O" horiz-adv-x="1341" 
d="M1104 660q0 304 -106.5 438.5t-326.5 134.5t-326.5 -134.5t-106.5 -438.5t107.5 -436t325.5 -132t325.5 132t107.5 436zM80 659q0 348 142.5 522.5t449.5 174.5t448.5 -174t141.5 -522t-145.5 -519.5t-445.5 -171.5t-445.5 171t-145.5 519z" />
    <glyph glyph-name="P" unicode="P" horiz-adv-x="1265" 
d="M748 629q281 0 280 295q0 156 -66.5 218t-213.5 62h-367v-575h367zM80 121h59q45 0 61.5 17.5t16.5 56.5v935q0 39 -16.5 56.5t-61.5 17.5h-59v121h690q195 0 305.5 -105.5t110.5 -296t-112.5 -303t-305.5 -112.5h-387v-313q0 -39 16.5 -56.5t61.5 -17.5h59v-121h-438
v121z" />
    <glyph glyph-name="Q" unicode="Q" horiz-adv-x="1341" 
d="M1104 660q0 276 -109.5 423.5t-322.5 147.5t-323.5 -147.5t-110.5 -423.5t111.5 -422t321.5 -146t321.5 146t111.5 422zM913 -176q103 0 148 49v70h137v-117q-86 -123 -285 -123q-141 0 -219 78t-90 190q-260 18 -392 201.5t-132 495.5t145.5 499t445.5 187t445.5 -186
t145.5 -498t-130.5 -494t-386.5 -205q18 -147 168 -147z" />
    <glyph glyph-name="R" unicode="R" horiz-adv-x="1259" 
d="M702 678q139 0 211 70.5t72 202.5t-67.5 192.5t-215.5 60.5h-321v-526h321zM80 121h59q45 0 61.5 17.5t16.5 56.5v935q0 39 -16.5 56.5t-61.5 17.5h-59v121h647q197 0 306.5 -99.5t109.5 -267.5t-91 -270t-255 -121l200 -379q33 -67 119 -67h64v-121h-418v121h108
l-231 436h-258v-364q0 -39 15.5 -55.5t58.5 -16.5h63v-121h-438v121z" />
    <glyph glyph-name="S" unicode="S" horiz-adv-x="1079" 
d="M559 1233q-309 0 -309 -219q0 -76 45 -126t103.5 -78t195.5 -82t271 -130t134 -276q0 -156 -117.5 -254.5t-328.5 -98.5q-131 0 -258 39t-215 105v182h166v-125q55 -35 141 -56.5t172 -21.5q139 0 211 58.5t72 165.5t-73 167t-233 120t-302 140t-142 259q0 180 126 267
t327 87q125 0 238.5 -36t189.5 -91v-178h-166v123q-95 59 -248 59z" />
    <glyph glyph-name="T" unicode="T" horiz-adv-x="1122" 
d="M342 121h59q45 0 61.5 17.5t16.5 56.5v1009h-215q-41 0 -58.5 -16.5t-17.5 -54.5v-60h-129v250h1004v-250h-131v60q0 39 -16.5 55t-59.5 16h-213v-1009q0 -39 16.5 -56.5t61.5 -17.5h59v-121h-438v121z" />
    <glyph glyph-name="U" unicode="U" horiz-adv-x="1337" 
d="M344 354q0 -262 325 -262t324 262v774q0 41 -16 58.5t-57 17.5h-46v121h404v-121h-47q-39 0 -56.5 -16.5t-17.5 -57.5v-763q0 -184 -124 -291t-365.5 -107t-364.5 106.5t-123 291.5v763q0 41 -16.5 57.5t-54.5 16.5h-50v121h402v-121h-45q-39 0 -55.5 -17.5t-16.5 -58.5
v-774z" />
    <glyph glyph-name="V" unicode="V" horiz-adv-x="1443" 
d="M131 1204h-51v121h264l379 -1106l377 1106h264v-121h-51q-53 0 -74.5 -13t-38.5 -63l-399 -1128h-154l-403 1128q-16 47 -38 61.5t-75 14.5z" />
    <glyph glyph-name="W" unicode="W" horiz-adv-x="1800" 
d="M133 1204h-53v121h276l224 -1049l247 826h144l250 -826l225 1049h274v-121h-55q-53 0 -75.5 -17.5t-33.5 -62.5l-253 -1124h-138l-266 856l-262 -856h-139l-256 1124q-10 45 -33 62.5t-76 17.5z" />
    <glyph glyph-name="X" unicode="X" horiz-adv-x="1368" 
d="M80 121h67q51 0 79 14.5t55 54.5l317 478l-309 465q-29 43 -55.5 57t-77.5 14h-64v121h422v-121h-106l276 -426l277 426h-107v121h422v-121h-64q-53 0 -78.5 -14t-54.5 -57l-311 -465l319 -478q27 -41 53.5 -55t80.5 -14h67v-121h-426v121h107l-285 436l-285 -436h107
v-121h-426v121z" />
    <glyph glyph-name="Y" unicode="Y" horiz-adv-x="1361" 
d="M479 121h49q39 0 55.5 17.5t16.5 58.5v284l-352 647q-23 43 -49.5 59.5t-69.5 16.5h-49v121h397v-121h-39q-45 0 -45 -26q0 -16 17 -45l272 -515l270 515q16 29 17 45q0 27 -45 26h-41v121h399v-121h-49q-45 0 -71.5 -16.5t-49.5 -59.5l-350 -647v-284q0 -41 16.5 -58.5
t57.5 -17.5h49v-121h-406v121z" />
    <glyph glyph-name="Z" unicode="Z" horiz-adv-x="1142" 
d="M332 1204q-41 0 -58.5 -16.5t-17.5 -54.5v-43h-147v235h927v-111l-770 -1093h574q41 0 58 16.5t17 57.5v41h148v-236h-983v111l774 1093h-522z" />
    <glyph glyph-name="bracketleft" unicode="[" horiz-adv-x="581" 
d="M121 1536h360v-121h-196v-1464h196v-121h-360v1706z" />
    <glyph glyph-name="backslash" unicode="\" horiz-adv-x="876" 
d="M100 1384h162l514 -1384h-164z" />
    <glyph glyph-name="bracketright" unicode="]" horiz-adv-x="581" 
d="M100 -49h197v1464h-197v121h361v-1706h-361v121z" />
    <glyph glyph-name="asciicircum" unicode="^" horiz-adv-x="1189" 
d="M524 1473h142l424 -721h-172l-324 561l-324 -561h-170z" />
    <glyph glyph-name="underscore" unicode="_" horiz-adv-x="940" 
d="M100 0h740v-123h-740v123z" />
    <glyph glyph-name="grave" unicode="`" horiz-adv-x="583" 
d="M100 1468h209l174 -374h-141z" />
    <glyph glyph-name="a" unicode="a" horiz-adv-x="1064" 
d="M727 334v108l-315 -22q-113 -8 -154 -47t-41 -122t46 -121t171 -38t209 60.5t84 181.5zM510 891q-125 0 -217 -45v-78h-150v143q164 102 375 103q373 0 373 -344v-469q0 -43 15.5 -61.5t49.5 -18.5h50v-121h-215l-25 127q-61 -82 -152.5 -120t-239.5 -38t-231.5 71
t-83.5 208t90.5 203.5t256.5 78.5l321 23v127q0 113 -46 162t-171 49z" />
    <glyph glyph-name="b" unicode="b" horiz-adv-x="1198" 
d="M961 492q0 208 -74 303.5t-238 95.5q-84 0 -154.5 -40t-113.5 -117t-43 -181v-121q0 -94 40 -172t111.5 -123t159.5 -45q158 0 235 96t77 304zM174 0v1147q0 51 -15.5 69.5t-62.5 18.5h-37v121h279v-510q117 168 358 168q205 0 313.5 -136.5t108.5 -386.5t-119.5 -386
t-324.5 -136q-242 1 -348 183l-17 -152h-135z" />
    <glyph glyph-name="c" unicode="c" horiz-adv-x="1048" 
d="M619 92q166 0 286 76l64 -102q-82 -53 -168 -75t-219 -22t-250 60.5t-184.5 176.5t-67.5 279q0 254 134 391.5t370 137.5q129 0 216 -28t167 -85v-178h-150v113q-51 29 -101 42t-132 13q-152 0 -249 -99.5t-97 -302.5t107.5 -300t273.5 -97z" />
    <glyph glyph-name="d" unicode="d" horiz-adv-x="1193" 
d="M860 442v109q0 160 -84 250t-234 90q-304 0 -304 -412q0 -199 73 -293t223 -94t238 97.5t88 252.5zM80 482q0 249 113.5 390.5t320.5 141.5q129 0 211 -37t135 -123v287q0 53 -15.5 73.5t-64.5 20.5h-39v121h283v-1155q0 -45 14.5 -62.5t51.5 -17.5h45v-121h-244l-21 150
q-114 -181 -362 -181q-201 0 -314.5 132t-113.5 381z" />
    <glyph glyph-name="e" unicode="e" horiz-adv-x="1097" 
d="M864 553q0 170 -72.5 254t-228.5 84t-237.5 -90t-81.5 -248h620zM80 486q0 257 127 392.5t355 135.5t342 -129t114 -353v-92h-774q0 -182 92 -265t248 -83t250 55v64h149v-129q-170 -113 -400 -113q-229 0 -366 130t-137 387z" />
    <glyph glyph-name="f" unicode="f" horiz-adv-x="831" 
d="M576 1386q179 0 294 -104v-139h-143v82q-57 41 -153 41q-188 0 -189 -215v-68h309v-121h-309v-665q0 -41 16.5 -58.5t55.5 -17.5h61v-121h-430v121h62q41 0 57 17.5t16 58.5v665h-164v121h164v55q0 160 87 254t266 94z" />
    <glyph glyph-name="g" unicode="g" horiz-adv-x="1193" 
d="M549 891q-311 0 -311 -389q0 -209 75 -305.5t227 -96.5t236 88t84 248v105q0 158 -84 254t-227 96zM633 -410q-226 0 -375 131v138h148v-80q74 -66 207 -66t190 66.5t57 193.5v170q-57 -88 -140 -127t-208 -39q-205 0 -318.5 137.5t-113.5 385.5t118.5 381t323.5 133
q119 0 203 -43t145 -137l21 149h244v-109h-50q-37 0 -51 -19t-14 -64v-797q0 -182 -105.5 -293t-281.5 -111z" />
    <glyph glyph-name="h" unicode="h" horiz-adv-x="1234" 
d="M80 121h65q39 0 55.5 17.5t16.5 58.5v964q0 41 -16.5 57.5t-55.5 16.5h-65v121h291v-486q72 76 153.5 110t217.5 34t216 -88t80 -250v-479q0 -41 16.5 -58.5t55.5 -17.5h66v-121h-304v674q0 115 -50 166t-164 51t-195.5 -68.5t-81.5 -189.5v-436q0 -41 15.5 -58.5
t54.5 -17.5h67v-121h-438v121z" />
    <glyph glyph-name="i" unicode="i" horiz-adv-x="559" 
d="M59 121h66q39 0 55.5 17.5t16.5 58.5v591q0 41 -16.5 57.5t-55.5 16.5h-66v121h301v-788q0 -41 16.5 -57.5t55.5 -16.5h66v-121h-439v121zM188 1305h181v-158h-181v158z" />
    <glyph glyph-name="j" unicode="j" horiz-adv-x="741" 
d="M260 -223q100 0 144.5 48t44.5 165v798q0 41 -16.5 57.5t-55.5 16.5h-66v121h301v-977q0 -176 -86 -264t-247 -88q-105 0 -180.5 28.5t-141.5 90.5v151h145v-90q58 -57 158 -57zM432 1305h180v-158h-180v158z" />
    <glyph glyph-name="k" unicode="k" horiz-adv-x="1177" 
d="M80 121h59q43 0 54.5 15.5t11.5 56.5v976q0 41 -14.5 56.5t-53.5 15.5h-41v115h396v-115h-56q-37 0 -52 -16.5t-15 -55.5v-657l395 350h-111v121h424v-121h-80q-37 0 -55 -8t-49 -35l-225 -201l262 -438q23 -37 44 -48t66 -11h78v-121h-241l-322 524l-186 -168v-163
q0 -39 15 -55.5t60 -16.5h66v-121h-430v121z" />
    <glyph glyph-name="l" unicode="l" horiz-adv-x="589" 
d="M80 121h65q39 0 55.5 17.5t16.5 58.5v964q0 41 -16.5 57.5t-55.5 16.5h-65v121h301v-1159q0 -41 16.5 -58.5t55.5 -17.5h65v-121h-438v121z" />
    <glyph glyph-name="m" unicode="m" horiz-adv-x="1742" 
d="M670 1014q187 0 245 -170q49 86 126 128t196 42q164 0 236.5 -83t72.5 -249v-485q0 -41 16.5 -58.5t55.5 -17.5h65v-121h-301v682q0 115 -43 162t-148 47t-169 -61.5t-64 -176.5v-456q0 -43 15.5 -59.5t54.5 -16.5h64v-121h-287v674q0 111 -41.5 164t-147.5 53
t-171.5 -66.5t-65.5 -191.5v-436q0 -41 15.5 -58.5t54.5 -17.5h63v-121h-432v121h65q39 0 55.5 17.5t16.5 58.5v591q0 41 -16.5 57.5t-55.5 16.5h-65v121h248l14 -139q53 86 131 128t197 42z" />
    <glyph glyph-name="n" unicode="n" horiz-adv-x="1234" 
d="M717 1014q321 0 321 -338v-479q0 -41 16.5 -58.5t55.5 -17.5h66v-121h-304v674q0 115 -48 166t-164 51t-197.5 -68.5t-81.5 -189.5v-436q0 -41 15.5 -58.5t54.5 -17.5h67v-121h-438v121h65q39 0 55.5 17.5t16.5 58.5v589q0 41 -16.5 58.5t-55.5 17.5h-65v121h252l12 -139
q70 90 158 130t215 40z" />
    <glyph glyph-name="o" unicode="o" horiz-adv-x="1142" 
d="M571.5 92q333.5 0 333.5 400t-334 399q-333 1 -333 -399t333.5 -400zM80 490q0 244 121 384t370.5 140t370.5 -139.5t121 -384.5t-122 -383t-369.5 -138t-369.5 138.5t-122 382.5z" />
    <glyph glyph-name="p" unicode="p" horiz-adv-x="1198" 
d="M660 92q300 0 301 404q0 205 -73.5 300t-223.5 95t-238 -96.5t-88 -251.5v-115q0 -158 88 -247t234 -89zM59 -305h35q49 0 64.5 21.5t15.5 74.5v991q0 43 -16.5 61.5t-53.5 18.5h-45v121h248l21 -152q123 182 358 183q203 0 317.5 -134t114.5 -382t-113.5 -388.5
t-318.5 -140.5q-115 0 -197.5 38t-150.5 128v-344q0 -53 16.5 -74.5t65.5 -21.5h39v-121h-400v121z" />
    <glyph glyph-name="q" unicode="q" horiz-adv-x="1198" 
d="M860 428v115q0 150 -85 249t-220 99q-317 0 -317 -410q0 -209 74 -299t222 -90t237 89t89 247zM508 -31q-207 0 -317.5 131t-110.5 383q0 164 55 284t156.5 183.5t227.5 63.5t209 -45t144 -144l17 158h250v-121h-45q-37 0 -53.5 -18.5t-16.5 -61.5v-991q0 -55 16.5 -75.5
t63.5 -20.5h35v-121h-279v561q-68 -90 -152.5 -128t-199.5 -38z" />
    <glyph glyph-name="r" unicode="r" horiz-adv-x="770" 
d="M76 121h65q39 0 55.5 17.5t16.5 58.5v591q0 41 -15.5 57.5t-54.5 16.5h-67v121h252l32 -119q41 68 105.5 93.5t163.5 25.5h82v-121h-90q-131 0 -187.5 -58.5t-56.5 -180.5v-426q0 -41 16.5 -58.5t55.5 -17.5h65v-121h-438v121z" />
    <glyph glyph-name="s" unicode="s" horiz-adv-x="927" 
d="M476 891q-228 0 -228 -127q0 -63 39 -110.5t237 -106.5q115 -45 219.5 -100.5t104.5 -213.5q0 -264 -375 -264q-233 0 -393 113v151h153v-88q91 -53 221 -53t183 33t53 94t-25.5 93t-74.5 56.5t-167 70.5t-225.5 102.5t-107.5 208.5q0 129 99.5 196.5t292.5 67.5
t343 -107v-149h-153v86q-78 47 -196 47z" />
    <glyph glyph-name="t" unicode="t" horiz-adv-x="854" 
d="M548 92q89 0 140 39v88h148v-139q-63 -55 -135 -83t-175 -28q-147 0 -225 82t-78 238v573h-164v121h164v229l164 62v-291h307v-121h-307v-581q0 -100 36 -144.5t125 -44.5z" />
    <glyph glyph-name="u" unicode="u" horiz-adv-x="1214" 
d="M197 307v481q0 39 -16.5 56.5t-55.5 17.5h-66v121h303v-674q0 -113 52.5 -165t170.5 -52t193.5 68.5t75.5 199.5v428q0 41 -15.5 57.5t-54.5 16.5h-67v121h301v-788q0 -39 17.5 -56.5t56.5 -17.5h63v-121h-252l-12 135q-68 -86 -152 -126t-228 -40t-229 88t-85 250z" />
    <glyph glyph-name="v" unicode="v" horiz-adv-x="1175" 
d="M121 862h-62v121h244l283 -831l286 831h244v-121h-65q-39 0 -53.5 -8t-24.5 -37l-293 -817h-186l-295 817q-10 29 -24.5 37t-53.5 8z" />
    <glyph glyph-name="w" unicode="w" horiz-adv-x="1579" 
d="M129 862h-70v121h246l191 -817l227 729h131l225 -729l197 817h244v-121h-70q-35 0 -49.5 -9t-20.5 -36l-196 -817h-178l-215 688l-218 -688h-178l-196 817q-6 27 -20.5 36t-49.5 9z" />
    <glyph glyph-name="x" unicode="x" horiz-adv-x="1167" 
d="M59 121h66q51 0 74.5 9t50.5 44l246 324l-236 309q-27 37 -50.5 46t-74.5 9h-61v121h399v-121h-100l211 -276l211 276h-101v121h400v-121h-64q-49 0 -72.5 -10t-50.5 -45l-237 -309l245 -324q27 -35 51.5 -44t75.5 -9h66v-121h-403v121h96l-217 287l-217 -287h94v-121
h-402v121z" />
    <glyph glyph-name="y" unicode="y" horiz-adv-x="1140" 
d="M629 -410q-233 0 -377 140v139h147v-80q65 -76 222 -76q242 0 241 264v164q-61 -70 -134 -100.5t-181 -30.5q-168 0 -259 89t-91 253v436q0 39 -16.5 56.5t-55.5 17.5h-66v121h303v-633q0 -217 222 -217q123 0 196.5 67.5t73.5 198.5v389q0 41 -15.5 57.5t-54.5 16.5h-67
v121h301v-979q0 -190 -102.5 -302t-286.5 -112z" />
    <glyph glyph-name="z" unicode="z" horiz-adv-x="1003" 
d="M332 862q-41 0 -58.5 -15.5t-17.5 -53.5v-45h-147v235h794v-104l-633 -758h430q41 0 58.5 16.5t17.5 52.5v46h148v-236h-844v111l633 751h-381z" />
    <glyph glyph-name="braceleft" unicode="{" horiz-adv-x="696" 
d="M397 469v-356q0 -86 30 -124t101 -38h68v-121h-78q-162 0 -223.5 72.5t-61.5 222.5v344q0 90 -44 121t-130 31v124q86 0 130 31t44 121v344q0 150 61.5 222.5t223.5 72.5h78v-121h-68q-72 0 -101.5 -38t-29.5 -124v-356q0 -152 -131 -213q131 -62 131 -215z" />
    <glyph glyph-name="bar" unicode="|" horiz-adv-x="364" 
d="M100 1571h164v-1817h-164v1817z" />
    <glyph glyph-name="braceright" unicode="}" horiz-adv-x="696" 
d="M299 469q0 153 131 215q-61 29 -96 84t-35 129v356q0 86 -29.5 124t-101.5 38h-68v121h78q162 0 223.5 -72.5t61.5 -222.5v-344q0 -90 44 -121t130 -31v-124q-86 0 -130 -31t-44 -121v-344q0 -150 -61.5 -222.5t-223.5 -72.5h-78v121h68q72 0 101.5 38t29.5 124v356z" />
    <glyph glyph-name="asciitilde" unicode="~" horiz-adv-x="1159" 
d="M1059 772q0 -280 -256 -280q-68 0 -123.5 20t-119.5 57t-104 53.5t-102 16.5q-122 0 -121 -147h-133q0 133 63.5 206.5t192.5 73.5q66 0 118 -20.5t116 -57.5t106 -54t106 -17t93 36.5t29 112.5h135z" />
    <glyph glyph-name="uni00A0" unicode="&#xa0;" horiz-adv-x="768" 
 />
    <glyph glyph-name="exclamdown" unicode="&#xa1;" horiz-adv-x="385" 
d="M115 678h153l15 -989h-181zM100 1014h185v-158h-185v158z" />
    <glyph glyph-name="cent" unicode="&#xa2;" horiz-adv-x="1062" 
d="M664 -184h-156v159q-190 25 -309 158t-119 358t112.5 360.5t315.5 158.5v157h156v-157q172 -14 303 -109v-178h-150v113q-51 29 -101 42t-132 13q-152 0 -249 -99.5t-97 -302.5t107.5 -300t273.5 -97t286 76l64 -102q-130 -84 -305 -95v-155z" />
    <glyph glyph-name="sterling" unicode="&#xa3;" horiz-adv-x="1013" 
d="M104 121h48q113 0 112 174v436h-164v121h164v170q0 154 98.5 244t276.5 90t299 -109v-141h-143v84q-59 45 -157 45t-155 -53.5t-57 -151.5v-178h340v-121h-340v-432q0 -63 -11.5 -105t-45.5 -73h585v-121h-850v121z" />
    <glyph glyph-name="currency" unicode="&#xa4;" horiz-adv-x="1253" 
d="M932 674q0 86 -40 157.5t-108.5 113.5t-154.5 42t-156 -42t-109.5 -113.5t-39.5 -157.5t39.5 -157t109.5 -113t156 -42t154.5 42t108.5 113t40 157zM1075 669q0 -159 -108 -284l168 -152l-97 -98l-174 160q-106 -68 -235 -68t-238 70l-176 -162l-94 98l166 154
q-105 125 -105 281t86 270l-168 154l95 98l167 -158q122 90 264 90t265 -88l168 156l94 -98l-168 -154q90 -110 90 -269z" />
    <glyph glyph-name="yen" unicode="&#xa5;" horiz-adv-x="1361" 
d="M479 121h49q39 0 55.5 17.5t16.5 58.5v75h-287v117h287v94h-287v117h222l-287 528q-23 43 -49.5 59.5t-69.5 16.5h-49v121h397v-121h-39q-45 0 -45 -26q0 -16 17 -45l272 -521l270 521q16 29 17 45q0 27 -45 26h-41v121h399v-121h-49q-45 0 -71.5 -16.5t-49.5 -59.5
l-285 -528h222v-117h-287v-94h287v-117h-287v-75q0 -41 16.5 -58.5t57.5 -17.5h49v-121h-406v121z" />
    <glyph glyph-name="brokenbar" unicode="&#xa6;" horiz-adv-x="362" 
d="M100 451h164v-697h-164v697zM100 1571h164v-699h-164v699z" />
    <glyph glyph-name="section" unicode="&#xa7;" horiz-adv-x="1038" 
d="M829 439q0 75 -77 142.5t-250 127.5q-183 75 -244 116q-35 -37 -35 -115t69.5 -134t207.5 -113l67 -29q160 -63 238 -112q24 42 24 117zM221 -119q123 -78 343 -78q110 0 183.5 58.5t73.5 152.5t-36.5 143.5t-94.5 80t-196 84.5t-280 134.5t-142 266.5q0 119 65 197
q-66 74 -65 194q0 170 126 257t326 87q125 0 239 -36t189 -91v-174h-161v119q-100 59 -253 59q-309 0 -309 -219q0 -126 96.5 -176t164.5 -76q204 -77 346.5 -158.5t142.5 -281.5q0 -111 -61 -195q61 -80 61 -196q0 -156 -118 -254t-329 -98q-131 0 -258 38.5t-215 104.5
v178h162v-121z" />
    <glyph glyph-name="dieresis" unicode="&#xa8;" horiz-adv-x="782" 
d="M520 1348h162v-168h-162v168zM100 1348h162v-168h-162v168z" />
    <glyph glyph-name="copyright" unicode="&#xa9;" horiz-adv-x="1669" 
d="M342 690q0 244 131 380t356 136q127 0 212 -26.5t161 -81.5v-168h-137v106q-95 54 -240 54q-146 0 -243 -98.5t-97 -297.5t104.5 -296t264.5 -97t276 78l58 -94q-147 -101 -357 -101q-137 0 -248.5 59.5t-176 174t-64.5 272.5zM1440 700q0 174 -78 315.5t-216 222.5
t-312.5 81t-312.5 -81t-215 -222.5t-77 -315.5t77 -314t215 -221t312.5 -81t312.5 81t216 221t78 314zM100 702q0 200 98.5 367.5t267.5 266t369.5 98.5t368.5 -98.5t266.5 -266.5t98.5 -368t-98.5 -367.5t-267.5 -266t-369.5 -98.5t-368.5 98.5t-266.5 266.5t-98.5 368z
" />
    <glyph glyph-name="ordfeminine" unicode="&#xaa;" horiz-adv-x="811" 
d="M514 930v55l-180 -14q-61 -4 -88 -28.5t-27 -76.5q0 -86 117 -86q178 0 178 150zM301 686q-98 0 -149.5 46t-51.5 134t59.5 134.5t164.5 52.5l190 14v76q0 66 -25.5 91.5t-95.5 25.5t-133 -29v-51h-108v108q108 68 238 68q246 0 247 -221v-293q0 -29 9 -41.5t32 -12.5h33
v-81h-142l-22 77q-83 -98 -246 -98z" />
    <glyph glyph-name="guillemotleft" unicode="&#xab;" horiz-adv-x="1183" 
d="M537 610v105l546 467v-168l-401 -352l401 -351v-168zM100 610v105l547 467v-168l-401 -352l401 -351v-168z" />
    <glyph glyph-name="logicalnot" unicode="&#xac;" horiz-adv-x="1040" 
d="M795 563h-695v123h840v-401h-145v278z" />
    <glyph glyph-name="uni00AD" unicode="&#xad;" horiz-adv-x="774" 
d="M100 686h574v-121h-574v121z" />
    <glyph glyph-name="registered" unicode="&#xae;" horiz-adv-x="1669" 
d="M885 737q186 0 186 125t-45 159t-141 34h-211v-318h211zM457 356h35q31 0 42 12.5t11 43.5v587q0 31 -11.5 43.5t-41.5 12.5h-35v100h442q139 0 217 -66.5t78 -179.5t-64.5 -184.5t-179.5 -79.5l109 -207q25 -45 51.5 -63.5t69.5 -18.5h51v-96h-60q-88 0 -138 32t-85 101
l-125 246h-157v-227q0 -31 11 -43.5t42 -12.5h37v-96h-299v96zM1440 700q0 174 -78 315.5t-216 222.5t-312.5 81t-312.5 -81t-215 -222.5t-77 -315.5t77 -314t215 -221t312.5 -81t312.5 81t216 221t78 314zM100 702q0 200 98.5 367.5t267.5 266t369.5 98.5t368.5 -98.5
t266.5 -266.5t98.5 -368t-98.5 -367.5t-267.5 -266t-369.5 -98.5t-368.5 98.5t-266.5 266.5t-98.5 368z" />
    <glyph glyph-name="macron" unicode="&#xaf;" horiz-adv-x="878" 
d="M100 1305h678v-117h-678v117z" />
    <glyph glyph-name="degree" unicode="&#xb0;" horiz-adv-x="718" 
d="M504 1102q0 62 -42 104.5t-104 42.5t-103.5 -42t-41.5 -104t41.5 -103.5t103.5 -41.5t104 41t42 103zM100 1102q0 109 75 184.5t183 75.5t184 -76t76 -184q0 -70 -34.5 -129.5t-95 -94t-130.5 -34.5t-129 34.5t-94 94t-35 129.5z" />
    <glyph glyph-name="plusminus" unicode="&#xb1;" horiz-adv-x="841" 
d="M100 190h641v-120h-641v120zM346 565h-246v121h246v221h146v-221h249v-121h-249v-221h-146v221z" />
    <glyph glyph-name="uni00B2" unicode="&#xb2;" horiz-adv-x="679" 
d="M100 772q0 78 52.5 130t149.5 108t126 84t29 77.5t-30.5 71t-100.5 21.5t-115 -27v-53h-111v104q39 29 107.5 48.5t128.5 19.5q113 0 176 -48t63 -126t-39.5 -121t-137.5 -103t-132.5 -89t-34.5 -68h349v-94h-480v65z" />
    <glyph glyph-name="uni00B3" unicode="&#xb3;" horiz-adv-x="702" 
d="M113 1282q93 74 260 74q92 0 154.5 -46t62.5 -140t-86 -140q98 -36 98 -143q0 -201 -279 -201q-142 0 -223 86v96h109v-55q47 -37 124 -37t115.5 25t38.5 83t-30.5 79.5t-102.5 21.5h-78v88h82q63 0 90 23.5t27 83.5q0 84 -123 84q-80 0 -131 -31v-57h-108v106z" />
    <glyph glyph-name="acute" unicode="&#xb4;" horiz-adv-x="583" 
d="M274 1468h209l-241 -374h-142z" />
    <glyph glyph-name="paragraph" unicode="&#xb6;" horiz-adv-x="1310" 
d="M100 969q0 356 430 356h680v-121h-59q-45 0 -61.5 -17.5t-16.5 -58.5v-1251q0 -41 16.5 -58.5t61.5 -17.5h59v-120h-301v1523h-250v-1523h-303v120h60q45 0 62.5 17.5t17.5 58.5v762q-193 0 -294.5 89t-101.5 241z" />
    <glyph glyph-name="periodcentered" unicode="&#xb7;" horiz-adv-x="366" 
d="M100 709h166v-162h-166v162z" />
    <glyph glyph-name="cedilla" unicode="&#xb8;" horiz-adv-x="589" 
d="M489 -279q0 -188 -258 -188q-68 0 -131 23v102q61 -20 121 -20q133 0 133 83q0 59 -36.5 83t-149.5 24l25 172h143l-14 -102q90 -12 128.5 -56.5t38.5 -120.5z" />
    <glyph glyph-name="uni00B9" unicode="&#xb9;" horiz-adv-x="585" 
d="M129 799h70q41 0 51 11t10 46v373l-127 -84l-53 82l184 119h111v-490q0 -35 10 -46t51 -11h70v-92h-377v92z" />
    <glyph glyph-name="ordmasculine" unicode="&#xba;" horiz-adv-x="831" 
d="M221 1020q0 -236 146.5 -236t193.5 57.5t47 178.5q0 238 -192 237q-195 -1 -195 -237zM100 1020q0 156 80 246t235.5 90t235.5 -90t80 -246t-81.5 -245t-235.5 -89t-234 89t-80 245z" />
    <glyph glyph-name="guillemotright" unicode="&#xbb;" horiz-adv-x="1183" 
d="M537 311l401 351l-401 352v168l546 -467v-105l-546 -467v168zM100 311l402 351l-402 352v168l547 -467v-105l-547 -467v168z" />
    <glyph glyph-name="onequarter" unicode="&#xbc;" horiz-adv-x="1269" 
d="M950 260v254l-196 -254h196zM850 84h55q23 0 30 8t7 29v51h-307v84l297 383h123v-379h114v-88h-114v-51q0 -20 8 -28.5t33 -8.5h53v-84h-299v84zM1006 1325h153l-827 -1325h-156zM150 799h69q41 0 51.5 11t10.5 46v373l-127 -84l-54 82l185 119h110v-490q0 -35 10.5 -46
t51.5 -11h69v-92h-376v92z" />
    <glyph glyph-name="onehalf" unicode="&#xbd;" horiz-adv-x="1349" 
d="M768 66q0 78 52 130t150 108t126 84t28 77t-30.5 70.5t-100.5 21.5t-114 -27v-53h-111v105q41 29 108.5 48t127.5 19q115 0 177 -48t62 -126t-40 -121t-138 -103t-132 -89t-34 -68h350v-94h-481v66zM1006 1325h153l-827 -1325h-156zM150 799h69q41 0 51.5 11t10.5 46v373
l-127 -84l-54 82l185 119h110v-490q0 -35 10.5 -46t51.5 -11h69v-92h-376v92z" />
    <glyph glyph-name="threequarters" unicode="&#xbe;" horiz-adv-x="1288" 
d="M967 260v254l-197 -254h197zM866 84h56q23 0 31 8t8 29v51h-310v84l299 383h123v-379h115v-88h-115v-51q0 -20 7 -28.5t32 -8.5h53v-84h-299v84zM1022 1325h156l-830 -1325h-153zM342 1356q248 0 248 -186q0 -94 -86 -140q98 -36 98 -143q0 -201 -279 -201
q-142 0 -223 86v96h109v-55q47 -37 124 -37t115.5 25t38.5 83t-30.5 79.5t-102.5 21.5h-78v88h82q63 0 90 23.5t27 83.5q0 84 -123 84q-74 0 -131 -31v-57h-108v106q39 31 102.5 52.5t126.5 21.5z" />
    <glyph glyph-name="questiondown" unicode="&#xbf;" horiz-adv-x="1081" 
d="M551 -219q162 0 276 67v117h154v-178q-78 -57 -193.5 -93t-238.5 -36q-207 0 -328 83t-121 251q0 94 29 156.5t90.5 111t165.5 102.5t133 114.5t29 166.5v59h162v-63q0 -137 -55.5 -228.5t-190.5 -154.5q-80 -39 -142.5 -86t-62.5 -178q0 -211 293 -211zM530 1014h195
v-168h-195v168z" />
    <glyph glyph-name="Agrave" unicode="&#xc0;" horiz-adv-x="1476" 
d="M942 530l-203 576l-202 -576h405zM80 121h67q86 0 111 74l406 1130h153l402 -1130q14 -41 40.5 -57.5t71.5 -16.5h66v-121h-424v121h110l-104 299h-479l-107 -299h111v-121h-424v121zM434 1802h209l170 -366h-143z" />
    <glyph glyph-name="Aacute" unicode="&#xc1;" horiz-adv-x="1476" 
d="M942 530l-203 576l-202 -576h405zM80 121h67q86 0 111 74l406 1130h153l402 -1130q14 -41 40.5 -57.5t71.5 -16.5h66v-121h-424v121h110l-104 299h-479l-107 -299h111v-121h-424v121zM831 1802h209l-235 -366h-143z" />
    <glyph glyph-name="Acircumflex" unicode="&#xc2;" horiz-adv-x="1476" 
d="M942 530l-203 576l-202 -576h405zM80 121h67q86 0 111 74l406 1130h153l402 -1130q14 -41 40.5 -57.5t71.5 -16.5h66v-121h-424v121h110l-104 299h-479l-107 -299h111v-121h-424v121zM651 1812h176l246 -374h-162l-172 270l-172 -270h-161z" />
    <glyph glyph-name="Atilde" unicode="&#xc3;" horiz-adv-x="1476" 
d="M942 530l-203 576l-202 -576h405zM80 121h67q86 0 111 74l406 1130h153l402 -1130q14 -41 40.5 -57.5t71.5 -16.5h66v-121h-424v121h110l-104 299h-479l-107 -299h111v-121h-424v121zM360 1438q0 248 207 248q81 0 184 -58t150 -59q47 0 68.5 25.5t21.5 91.5h129
q0 -129 -51 -188.5t-154 -59.5q-49 0 -89 15t-94 45t-84 42t-72 12t-64.5 -24.5t-22.5 -89.5h-129z" />
    <glyph glyph-name="Adieresis" unicode="&#xc4;" horiz-adv-x="1476" 
d="M942 530l-203 576l-202 -576h405zM80 121h67q86 0 111 74l406 1130h153l402 -1130q14 -41 40.5 -57.5t71.5 -16.5h66v-121h-424v121h110l-104 299h-479l-107 -299h111v-121h-424v121zM864 1645h164v-168h-164v168zM453 1645h163v-168h-163v168z" />
    <glyph glyph-name="Aring" unicode="&#xc5;" horiz-adv-x="1476" 
d="M942 530l-203 576l-202 -576h405zM618 1459q0 -52 35 -86t86.5 -34t86 34t34.5 85t-34.5 87t-86 36t-86.5 -35t-35 -87zM639 1255q-125 65 -125 219q0 80 65.5 146t160 66t161 -67t66.5 -147q0 -151 -125 -215l377 -1062q14 -41 40.5 -57.5t71.5 -16.5h66v-121h-424v121
h110l-104 299h-479l-107 -299h111v-121h-424v121h67q86 0 111 74z" />
    <glyph glyph-name="AE" unicode="&#xc6;" horiz-adv-x="1728" 
d="M852 541v663h-47l-256 -663h303zM80 121h67q86 0 111 74l438 1130h953v-238h-148v43q0 47 -27.5 60.5t-97.5 13.5h-364v-479h377v-121h-377v-483h413q41 0 58.5 16.5t17.5 55.5v47h148v-240h-934v121h61q51 0 63.5 25.5t12.5 93.5v180h-344l-115 -299h111v-121h-424v121z
" />
    <glyph glyph-name="Ccedilla" unicode="&#xc7;" horiz-adv-x="1222" 
d="M944 -279q0 -188 -258 -188q-70 0 -133 23v102q61 -20 121 -20q135 0 135 83q0 59 -38 83t-150 24l22 147q-180 18 -306 109.5t-191.5 238.5t-65.5 341t70.5 353t215 249t355.5 90q272 0 422 -111v-184h-162v123q-100 49 -260 49q-227 0 -355 -153.5t-128 -424.5
q0 -174 62 -301t177 -194.5t288 -67.5t300 76l65 -102q-141 -87 -346 -95l-10 -73q92 -12 131 -57.5t39 -119.5z" />
    <glyph glyph-name="Egrave" unicode="&#xc8;" horiz-adv-x="1114" 
d="M80 121h65q39 0 55.5 17.5t16.5 58.5v933q0 41 -16.5 57.5t-55.5 16.5h-65v121h954v-238h-147v46q0 39 -17.5 55t-58.5 16h-430v-479h393v-121h-393v-483h430q41 0 58.5 16.5t17.5 55.5v47h147v-240h-954v121zM289 1802h209l170 -366h-144z" />
    <glyph glyph-name="Eacute" unicode="&#xc9;" horiz-adv-x="1114" 
d="M80 121h65q39 0 55.5 17.5t16.5 58.5v933q0 41 -16.5 57.5t-55.5 16.5h-65v121h954v-238h-147v46q0 39 -17.5 55t-58.5 16h-430v-479h393v-121h-393v-483h430q41 0 58.5 16.5t17.5 55.5v47h147v-240h-954v121zM629 1802h209l-236 -366h-143z" />
    <glyph glyph-name="Ecircumflex" unicode="&#xca;" horiz-adv-x="1114" 
d="M80 121h65q39 0 55.5 17.5t16.5 58.5v933q0 41 -16.5 57.5t-55.5 16.5h-65v121h954v-238h-147v46q0 39 -17.5 55t-58.5 16h-430v-479h393v-121h-393v-483h430q41 0 58.5 16.5t17.5 55.5v47h147v-240h-954v121zM465 1812h176l246 -374h-162l-172 270l-172 -270h-162z" />
    <glyph glyph-name="Edieresis" unicode="&#xcb;" horiz-adv-x="1114" 
d="M80 121h65q39 0 55.5 17.5t16.5 58.5v933q0 41 -16.5 57.5t-55.5 16.5h-65v121h954v-238h-147v46q0 39 -17.5 55t-58.5 16h-430v-479h393v-121h-393v-483h430q41 0 58.5 16.5t17.5 55.5v47h147v-240h-954v121zM680 1645h164v-168h-164v168zM268 1645h164v-168h-164v168z
" />
    <glyph glyph-name="Igrave" unicode="&#xcc;" horiz-adv-x="598" 
d="M80 121h65q39 0 55.5 17.5t16.5 58.5v933q0 41 -16.5 57.5t-55.5 16.5h-65v121h438v-121h-65q-39 0 -55.5 -16.5t-16.5 -57.5v-935q0 -41 16.5 -57.5t55.5 -16.5h65v-121h-438v121zM-6 1802h209l170 -366h-144z" />
    <glyph glyph-name="Iacute" unicode="&#xcd;" horiz-adv-x="598" 
d="M80 121h65q39 0 55.5 17.5t16.5 58.5v933q0 41 -16.5 57.5t-55.5 16.5h-65v121h438v-121h-65q-39 0 -55.5 -16.5t-16.5 -57.5v-935q0 -41 16.5 -57.5t55.5 -16.5h65v-121h-438v121zM371 1802h209l-236 -366h-143z" />
    <glyph glyph-name="Icircumflex" unicode="&#xce;" horiz-adv-x="598" 
d="M80 121h65q39 0 55.5 17.5t16.5 58.5v933q0 41 -16.5 57.5t-55.5 16.5h-65v121h438v-121h-65q-39 0 -55.5 -16.5t-16.5 -57.5v-935q0 -41 16.5 -57.5t55.5 -16.5h65v-121h-438v121zM211 1810h176l246 -374h-162l-172 270l-172 -270h-162z" />
    <glyph glyph-name="Idieresis" unicode="&#xcf;" horiz-adv-x="598" 
d="M80 121h65q39 0 55.5 17.5t16.5 58.5v933q0 41 -16.5 57.5t-55.5 16.5h-65v121h438v-121h-65q-39 0 -55.5 -16.5t-16.5 -57.5v-935q0 -41 16.5 -57.5t55.5 -16.5h65v-121h-438v121zM424 1655h164v-168h-164v168zM12 1655h164v-168h-164v168z" />
    <glyph glyph-name="Eth" unicode="&#xd0;" horiz-adv-x="1277" 
d="M625 121q217 0 316 134t99 406t-98 407.5t-317 135.5h-260v-481h303v-121h-303v-481h260zM80 121h49q39 0 55.5 17.5t16.5 58.5v405h-121v121h121v407q0 41 -16.5 57.5t-55.5 16.5h-49v121h565q281 0 417 -175.5t136 -485.5t-140 -487t-413 -177h-565v121z" />
    <glyph glyph-name="Ntilde" unicode="&#xd1;" horiz-adv-x="1409" 
d="M80 121h65q39 0 55.5 16.5t16.5 57.5v935q0 41 -16.5 57.5t-55.5 16.5h-65v121h272l678 -1051v856q0 41 -16.5 57.5t-57.5 16.5h-65v121h438v-121h-65q-39 0 -55.5 -16.5t-16.5 -57.5v-1130h-135l-678 1049v-854q0 -39 17.5 -56.5t56.5 -17.5h65v-121h-438v121zM326 1438
q0 248 206 248q81 0 184 -58t150 -59q47 0 68.5 25.5t21.5 91.5h129q0 -129 -51 -188.5t-153 -59.5q-49 0 -89 15t-94 45t-84 42t-72 12t-64.5 -24.5t-22.5 -89.5h-129z" />
    <glyph glyph-name="Ograve" unicode="&#xd2;" horiz-adv-x="1341" 
d="M1104 660q0 304 -106.5 438.5t-326.5 134.5t-326.5 -134.5t-106.5 -438.5t107.5 -436t325.5 -132t325.5 132t107.5 436zM80 659q0 348 142.5 522.5t449.5 174.5t448.5 -174t141.5 -522t-145.5 -519.5t-445.5 -171.5t-445.5 171t-145.5 519zM362 1802h209l170 -366h-143z
" />
    <glyph glyph-name="Oacute" unicode="&#xd3;" horiz-adv-x="1341" 
d="M1104 660q0 304 -106.5 438.5t-326.5 134.5t-326.5 -134.5t-106.5 -438.5t107.5 -436t325.5 -132t325.5 132t107.5 436zM80 659q0 348 142.5 522.5t449.5 174.5t448.5 -174t141.5 -522t-145.5 -519.5t-445.5 -171.5t-445.5 171t-145.5 519zM729 1802h209l-236 -366h-143z
" />
    <glyph glyph-name="Ocircumflex" unicode="&#xd4;" horiz-adv-x="1341" 
d="M1104 660q0 304 -106.5 438.5t-326.5 134.5t-326.5 -134.5t-106.5 -438.5t107.5 -436t325.5 -132t325.5 132t107.5 436zM80 659q0 348 142.5 522.5t449.5 174.5t448.5 -174t141.5 -522t-145.5 -519.5t-445.5 -171.5t-445.5 171t-145.5 519zM582 1812h176l246 -374h-162
l-172 270l-172 -270h-162z" />
    <glyph glyph-name="Otilde" unicode="&#xd5;" horiz-adv-x="1341" 
d="M1104 660q0 304 -106.5 438.5t-326.5 134.5t-326.5 -134.5t-106.5 -438.5t107.5 -436t325.5 -132t325.5 132t107.5 436zM80 659q0 348 142.5 522.5t449.5 174.5t448.5 -174t141.5 -522t-145.5 -519.5t-445.5 -171.5t-445.5 171t-145.5 519zM289 1438q0 248 207 248
q79 0 182 -58t150 -59q48 0 70 25.5t22 91.5h129q0 -248 -205 -248q-49 0 -89.5 15t-94.5 45t-83.5 42t-71.5 12t-64.5 -24.5t-22.5 -89.5h-129z" />
    <glyph glyph-name="Odieresis" unicode="&#xd6;" horiz-adv-x="1341" 
d="M1104 660q0 304 -106.5 438.5t-326.5 134.5t-326.5 -134.5t-106.5 -438.5t107.5 -436t325.5 -132t325.5 132t107.5 436zM80 659q0 348 142.5 522.5t449.5 174.5t448.5 -174t141.5 -522t-145.5 -519.5t-445.5 -171.5t-445.5 171t-145.5 519zM795 1645h163v-168h-163v168z
M383 1645h164v-168h-164v168z" />
    <glyph glyph-name="multiply" unicode="&#xd7;" horiz-adv-x="733" 
d="M102 459l166 166l-168 168l101 98l166 -168l168 168l98 -98l-166 -168l166 -166l-101 -99l-163 164l-168 -166z" />
    <glyph glyph-name="Oslash" unicode="&#xd8;" horiz-adv-x="1341" 
d="M1104 657q0 408 -201 523l-395 -1065q66 -23 164 -23q217 0 324.5 132t107.5 433zM672 1233q-221 0 -327.5 -134t-106.5 -442q0 -372 178 -495l391 1055q-66 16 -135 16zM1262 657q0 -346 -145.5 -517t-444.5 -171q-117 0 -209 25l-29 -82h-110l43 119q-287 139 -287 626
q0 350 142.5 524.5t449.5 174.5q102 0 178 -21l29 76h110l-41 -106q314 -133 314 -648z" />
    <glyph glyph-name="Ugrave" unicode="&#xd9;" horiz-adv-x="1337" 
d="M344 354q0 -262 325 -262t324 262v774q0 41 -16 58.5t-57 17.5h-46v121h404v-121h-47q-39 0 -56.5 -16.5t-17.5 -57.5v-763q0 -184 -124 -291t-365.5 -107t-364.5 106.5t-123 291.5v763q0 41 -16.5 57.5t-54.5 16.5h-50v121h402v-121h-45q-39 0 -55.5 -17.5t-16.5 -58.5
v-774zM362 1802h209l170 -366h-143z" />
    <glyph glyph-name="Uacute" unicode="&#xda;" horiz-adv-x="1337" 
d="M344 354q0 -262 325 -262t324 262v774q0 41 -16 58.5t-57 17.5h-46v121h404v-121h-47q-39 0 -56.5 -16.5t-17.5 -57.5v-763q0 -184 -124 -291t-365.5 -107t-364.5 106.5t-123 291.5v763q0 41 -16.5 57.5t-54.5 16.5h-50v121h402v-121h-45q-39 0 -55.5 -17.5t-16.5 -58.5
v-774zM725 1802h209l-236 -366h-143z" />
    <glyph glyph-name="Ucircumflex" unicode="&#xdb;" horiz-adv-x="1337" 
d="M344 354q0 -262 325 -262t324 262v774q0 41 -16 58.5t-57 17.5h-46v121h404v-121h-47q-39 0 -56.5 -16.5t-17.5 -57.5v-763q0 -184 -124 -291t-365.5 -107t-364.5 106.5t-123 291.5v763q0 41 -16.5 57.5t-54.5 16.5h-50v121h402v-121h-45q-39 0 -55.5 -17.5t-16.5 -58.5
v-774zM580 1812h176l245 -374h-161l-172 270l-172 -270h-162z" />
    <glyph glyph-name="Udieresis" unicode="&#xdc;" horiz-adv-x="1337" 
d="M344 354q0 -262 325 -262t324 262v774q0 41 -16 58.5t-57 17.5h-46v121h404v-121h-47q-39 0 -56.5 -16.5t-17.5 -57.5v-763q0 -184 -124 -291t-365.5 -107t-364.5 106.5t-123 291.5v763q0 41 -16.5 57.5t-54.5 16.5h-50v121h402v-121h-45q-39 0 -55.5 -17.5t-16.5 -58.5
v-774zM793 1645h163v-168h-163v168zM381 1645h164v-168h-164v168z" />
    <glyph glyph-name="Yacute" unicode="&#xdd;" horiz-adv-x="1361" 
d="M479 121h49q39 0 55.5 17.5t16.5 58.5v284l-352 647q-23 43 -49.5 59.5t-69.5 16.5h-49v121h397v-121h-39q-45 0 -45 -26q0 -16 17 -45l272 -515l270 515q16 29 17 45q0 27 -45 26h-41v121h399v-121h-49q-45 0 -71.5 -16.5t-49.5 -59.5l-350 -647v-284q0 -41 16.5 -58.5
t57.5 -17.5h49v-121h-406v121zM754 1802h209l-236 -366h-143z" />
    <glyph glyph-name="Thorn" unicode="&#xde;" horiz-adv-x="1265" 
d="M748 393q280 0 280 293q0 154 -66.5 216.5t-213.5 62.5h-367v-572h367zM80 121h59q51 0 64.5 23.5t13.5 80.5v903q0 41 -16.5 58.5t-61.5 17.5h-59v121h301v-240h375q209 0 319.5 -100.5t110.5 -294.5t-110.5 -306t-307.5 -112h-387v-77q0 -39 16.5 -56.5t61.5 -17.5h59
v-121h-438v121z" />
    <glyph glyph-name="germandbls" unicode="&#xdf;" horiz-adv-x="1290" 
d="M1053 381q0 143 -63.5 212t-215.5 69h-125v120h109q137 0 200.5 78t63.5 207q0 268 -320 268t-321 -301v-1034h-301v121h65q39 0 55.5 17.5t16.5 58.5v827q0 197 125 315.5t364 118.5t356.5 -106.5t117.5 -284.5q0 -111 -49.5 -207t-143.5 -133q223 -69 223 -348
q0 -188 -100 -299t-290 -111t-310 72l57 104q97 -53 242 -53q244 0 244 289z" />
    <glyph glyph-name="agrave" unicode="&#xe0;" horiz-adv-x="1064" 
d="M727 334v108l-315 -22q-113 -8 -154 -47t-41 -122t46 -121t171 -38t209 60.5t84 181.5zM510 891q-125 0 -217 -45v-78h-150v143q164 102 375 103q373 0 373 -344v-469q0 -43 15.5 -61.5t49.5 -18.5h50v-121h-215l-25 127q-61 -82 -152.5 -120t-239.5 -38t-231.5 71
t-83.5 208t90.5 203.5t256.5 78.5l321 23v127q0 113 -46 162t-171 49zM227 1446h209l170 -367h-143z" />
    <glyph glyph-name="aacute" unicode="&#xe1;" horiz-adv-x="1064" 
d="M727 334v108l-315 -22q-113 -8 -154 -47t-41 -122t46 -121t171 -38t209 60.5t84 181.5zM510 891q-125 0 -217 -45v-78h-150v143q164 102 375 103q373 0 373 -344v-469q0 -43 15.5 -61.5t49.5 -18.5h50v-121h-215l-25 127q-61 -82 -152.5 -120t-239.5 -38t-231.5 71
t-83.5 208t90.5 203.5t256.5 78.5l321 23v127q0 113 -46 162t-171 49zM598 1446h209l-236 -367h-143z" />
    <glyph glyph-name="acircumflex" unicode="&#xe2;" horiz-adv-x="1064" 
d="M727 334v108l-315 -22q-113 -8 -154 -47t-41 -122t46 -121t171 -38t209 60.5t84 181.5zM510 891q-125 0 -217 -45v-78h-150v143q164 102 375 103q373 0 373 -344v-469q0 -43 15.5 -61.5t49.5 -18.5h50v-121h-215l-25 127q-61 -82 -152.5 -120t-239.5 -38t-231.5 71
t-83.5 208t90.5 203.5t256.5 78.5l321 23v127q0 113 -46 162t-171 49zM424 1454h176l246 -375h-162l-172 271l-172 -271h-162z" />
    <glyph glyph-name="atilde" unicode="&#xe3;" horiz-adv-x="1064" 
d="M727 334v108l-315 -22q-113 -8 -154 -47t-41 -122t46 -121t171 -38t209 60.5t84 181.5zM510 891q-125 0 -217 -45v-78h-150v143q164 102 375 103q373 0 373 -344v-469q0 -43 15.5 -61.5t49.5 -18.5h50v-121h-215l-25 127q-61 -82 -152.5 -120t-239.5 -38t-231.5 71
t-83.5 208t90.5 203.5t256.5 78.5l321 23v127q0 113 -46 162t-171 49zM156 1079q0 248 206 248q79 -1 184 -59t151 -58t67.5 26t21.5 91h129q0 -129 -51 -188.5t-153 -59.5q-49 0 -89 15.5t-94 45.5t-84 42t-72 12t-64.5 -24.5t-22.5 -90.5h-129z" />
    <glyph glyph-name="adieresis" unicode="&#xe4;" horiz-adv-x="1064" 
d="M727 334v108l-315 -22q-113 -8 -154 -47t-41 -122t46 -121t171 -38t209 60.5t84 181.5zM510 891q-125 0 -217 -45v-78h-150v143q164 102 375 103q373 0 373 -344v-469q0 -43 15.5 -61.5t49.5 -18.5h50v-121h-215l-25 127q-61 -82 -152.5 -120t-239.5 -38t-231.5 71
t-83.5 208t90.5 203.5t256.5 78.5l321 23v127q0 113 -46 162t-171 49zM639 1286h164v-168h-164v168zM227 1286h164v-168h-164v168z" />
    <glyph glyph-name="aring" unicode="&#xe5;" horiz-adv-x="1064" 
d="M727 334v108l-315 -22q-113 -8 -154 -47t-41 -122t46 -121t171 -38t209 60.5t84 181.5zM510 891q-125 0 -217 -45v-78h-150v143q164 102 375 103q373 0 373 -344v-469q0 -43 15.5 -61.5t49.5 -18.5h50v-121h-215l-25 127q-61 -82 -152.5 -120t-239.5 -38t-231.5 71
t-83.5 208t90.5 203.5t256.5 78.5l321 23v127q0 113 -46 162t-171 49zM645 1302.5q0 51.5 -35 87t-86 35.5t-86 -34.5t-35 -86.5t35 -86t86 -34t86 33.5t35 85zM299 1304q0 96 65.5 161t159.5 65t161 -66.5t67 -161t-67 -160t-161 -65.5t-159.5 65.5t-65.5 161.5z" />
    <glyph glyph-name="ae" unicode="&#xe6;" horiz-adv-x="1744" 
d="M727 336v108l-315 -22q-113 -8 -157 -47t-44 -123t49 -123t174 -39t209 61.5t84 184.5zM1513 553q0 180 -71.5 260t-225.5 80t-238.5 -87t-84.5 -253h620zM378 -31q-154 0 -236.5 70t-82.5 208t90.5 203.5t256.5 77.5l321 23v129q0 115 -46 164t-169 49t-219 -49v-76
h-150v143q164 102 373 103q133 0 207 -43t115 -133q118 176 379 176q225 0 336.5 -126t111.5 -356v-92h-772q0 -119 47 -198.5t124 -118.5t163 -39q166 0 258 55v74h145v-131q-167 -113 -403 -113q-133 0 -236.5 55.5t-163.5 159.5q-55 -109 -175 -162t-274 -53z" />
    <glyph glyph-name="ccedilla" unicode="&#xe7;" horiz-adv-x="1048" 
d="M821 -279q0 -188 -258 -188q-70 0 -133 23v102q61 -20 121 -20q135 0 135 83q0 59 -38 83t-150 24l22 145q-195 23 -317.5 156t-122.5 371t134 376t370 138q129 0 216 -28t167 -85v-178h-150v113q-51 29 -101 42t-132 13q-152 0 -249 -99.5t-97 -302.5t107.5 -300
t273.5 -97t286 76l64 -102q-130 -84 -307 -95l-11 -73q92 -12 131 -57.5t39 -119.5z" />
    <glyph glyph-name="egrave" unicode="&#xe8;" horiz-adv-x="1097" 
d="M864 553q0 170 -72.5 254t-228.5 84t-237.5 -90t-81.5 -248h620zM80 486q0 257 127 392.5t355 135.5t342 -129t114 -353v-92h-774q0 -182 92 -265t248 -83t250 55v64h149v-129q-170 -113 -400 -113q-229 0 -366 130t-137 387zM305 1446h209l170 -367h-143z" />
    <glyph glyph-name="eacute" unicode="&#xe9;" horiz-adv-x="1097" 
d="M864 553q0 170 -72.5 254t-228.5 84t-237.5 -90t-81.5 -248h620zM80 486q0 257 127 392.5t355 135.5t342 -129t114 -353v-92h-774q0 -182 92 -265t248 -83t250 55v64h149v-129q-170 -113 -400 -113q-229 0 -366 130t-137 387zM635 1446h209l-236 -367h-143z" />
    <glyph glyph-name="ecircumflex" unicode="&#xea;" horiz-adv-x="1097" 
d="M864 553q0 170 -72.5 254t-228.5 84t-237.5 -90t-81.5 -248h620zM80 486q0 257 127 392.5t355 135.5t342 -129t114 -353v-92h-774q0 -182 92 -265t248 -83t250 55v64h149v-129q-170 -113 -400 -113q-229 0 -366 130t-137 387zM487 1454h177l245 -375h-161l-173 271
l-172 -271h-161z" />
    <glyph glyph-name="edieresis" unicode="&#xeb;" horiz-adv-x="1097" 
d="M864 553q0 170 -72.5 254t-228.5 84t-237.5 -90t-81.5 -248h620zM80 486q0 257 127 392.5t355 135.5t342 -129t114 -353v-92h-774q0 -182 92 -265t248 -83t250 55v64h149v-129q-170 -113 -400 -113q-229 0 -366 130t-137 387zM698 1278h164v-168h-164v168zM287 1278h164
v-168h-164v168z" />
    <glyph glyph-name="igrave" unicode="&#xec;" horiz-adv-x="559" 
d="M59 121h66q39 0 55.5 17.5t16.5 58.5v591q0 41 -16.5 57.5t-55.5 16.5h-66v121h301v-788q0 -41 16.5 -57.5t55.5 -16.5h66v-121h-439v121zM-27 1446h209l170 -367h-143z" />
    <glyph glyph-name="iacute" unicode="&#xed;" horiz-adv-x="559" 
d="M59 121h66q39 0 55.5 17.5t16.5 58.5v591q0 41 -16.5 57.5t-55.5 16.5h-66v121h301v-788q0 -41 16.5 -57.5t55.5 -16.5h66v-121h-439v121zM354 1446h209l-235 -367h-144z" />
    <glyph glyph-name="icircumflex" unicode="&#xee;" horiz-adv-x="559" 
d="M59 121h66q39 0 55.5 17.5t16.5 58.5v591q0 41 -16.5 57.5t-55.5 16.5h-66v121h301v-788q0 -41 16.5 -57.5t55.5 -16.5h66v-121h-439v121zM150 1454h176l245 -375h-161l-172 271l-172 -271h-162z" />
    <glyph glyph-name="idieresis" unicode="&#xef;" horiz-adv-x="559" 
d="M59 121h66q39 0 55.5 17.5t16.5 58.5v591q0 41 -16.5 57.5t-55.5 16.5h-66v121h301v-788q0 -41 16.5 -57.5t55.5 -16.5h66v-121h-439v121zM354 1286h164v-168h-164v168zM-57 1286h163v-168h-163v168z" />
    <glyph glyph-name="eth" unicode="&#xf0;" horiz-adv-x="1171" 
d="M625 827q-387 0 -387 -448q0 -150 72 -218.5t230 -68.5t254.5 101.5t114.5 314.5q2 12 2 37q0 135 -83 208.5t-203 73.5zM605 950q218 0 327 -166q4 254 -82 359l-219 -123v106l141 80q-51 27 -137 27t-148.5 -15.5t-134.5 -52.5l-53 111q131 80 354 80q152 0 254 -74
l152 86l8 -102l-92 -52q115 -152 115 -448q0 -43 -9 -162q-27 -319 -167 -477t-368 -158q-466 0 -466 424q0 279 153.5 418t371.5 139z" />
    <glyph glyph-name="ntilde" unicode="&#xf1;" horiz-adv-x="1234" 
d="M717 1014q321 0 321 -338v-479q0 -41 16.5 -58.5t55.5 -17.5h66v-121h-304v674q0 115 -48 166t-164 51t-197.5 -68.5t-81.5 -189.5v-436q0 -41 15.5 -58.5t54.5 -17.5h67v-121h-438v121h65q39 0 55.5 17.5t16.5 58.5v589q0 41 -16.5 58.5t-55.5 17.5h-65v121h252l12 -139
q70 90 158 130t215 40zM238 1079q0 248 206 248q79 -1 184 -59t151 -58t67.5 26t21.5 91h129q0 -129 -51 -188.5t-153 -59.5q-49 0 -89 15.5t-94 45.5t-84 42t-72 12t-64.5 -24.5t-22.5 -90.5h-129z" />
    <glyph glyph-name="ograve" unicode="&#xf2;" horiz-adv-x="1142" 
d="M571.5 92q333.5 0 333.5 400t-334 399q-333 1 -333 -399t333.5 -400zM80 490q0 244 121 384t370.5 140t370.5 -139.5t121 -384.5t-122 -383t-369.5 -138t-369.5 138.5t-122 382.5zM291 1446h209l170 -367h-144z" />
    <glyph glyph-name="oacute" unicode="&#xf3;" horiz-adv-x="1142" 
d="M571.5 92q333.5 0 333.5 400t-334 399q-333 1 -333 -399t333.5 -400zM80 490q0 244 121 384t370.5 140t370.5 -139.5t121 -384.5t-122 -383t-369.5 -138t-369.5 138.5t-122 382.5zM655 1446h209l-235 -367h-144z" />
    <glyph glyph-name="ocircumflex" unicode="&#xf4;" horiz-adv-x="1142" 
d="M571.5 92q333.5 0 333.5 400t-334 399q-333 1 -333 -399t333.5 -400zM80 490q0 244 121 384t370.5 140t370.5 -139.5t121 -384.5t-122 -383t-369.5 -138t-369.5 138.5t-122 382.5zM483 1454h176l246 -375h-162l-172 271l-172 -271h-161z" />
    <glyph glyph-name="otilde" unicode="&#xf5;" horiz-adv-x="1142" 
d="M571.5 92q333.5 0 333.5 400t-334 399q-333 1 -333 -399t333.5 -400zM80 490q0 244 121 384t370.5 140t370.5 -139.5t121 -384.5t-122 -383t-369.5 -138t-369.5 138.5t-122 382.5zM193 1079q0 248 206 248q79 -1 184 -59t151 -58t67.5 26t21.5 91h129q0 -129 -51 -188.5
t-153 -59.5q-49 0 -89.5 15.5t-94.5 45.5t-83.5 42t-71.5 12t-64.5 -24.5t-22.5 -90.5h-129z" />
    <glyph glyph-name="odieresis" unicode="&#xf6;" horiz-adv-x="1142" 
d="M571.5 92q333.5 0 333.5 400t-334 399q-333 1 -333 -399t333.5 -400zM80 490q0 244 121 384t370.5 140t370.5 -139.5t121 -384.5t-122 -383t-369.5 -138t-369.5 138.5t-122 382.5zM696 1286h164v-168h-164v168zM285 1286h164v-168h-164v168z" />
    <glyph glyph-name="divide" unicode="&#xf7;" horiz-adv-x="841" 
d="M348 457h141v-140h-141v140zM100 686h641v-121h-641v121zM348 932h141v-137h-141v137z" />
    <glyph glyph-name="oslash" unicode="&#xf8;" horiz-adv-x="1142" 
d="M903 489q0 256 -147 351l-271 -740q35 -8 86 -8q332 0 332 397zM571 889q-332 0 -331 -400q0 -262 149 -352l273 744q-57 8 -91 8zM1063 489q0 -244 -122 -382t-370 -138q-61 0 -129 11l-30 -86h-111l43 114q-133 53 -198.5 178t-65.5 303q0 246 121 385.5t370 139.5
q61 0 134 -15l34 97h111l-47 -125q260 -109 260 -482z" />
    <glyph glyph-name="ugrave" unicode="&#xf9;" horiz-adv-x="1214" 
d="M197 307v481q0 39 -16.5 56.5t-55.5 17.5h-66v121h303v-674q0 -113 52.5 -165t170.5 -52t193.5 68.5t75.5 199.5v428q0 41 -15.5 57.5t-54.5 16.5h-67v121h301v-788q0 -39 17.5 -56.5t56.5 -17.5h63v-121h-252l-12 135q-68 -86 -152 -126t-228 -40t-229 88t-85 250z
M272 1446h209l170 -367h-143z" />
    <glyph glyph-name="uacute" unicode="&#xfa;" horiz-adv-x="1214" 
d="M197 307v481q0 39 -16.5 56.5t-55.5 17.5h-66v121h303v-674q0 -113 52.5 -165t170.5 -52t193.5 68.5t75.5 199.5v428q0 41 -15.5 57.5t-54.5 16.5h-67v121h301v-788q0 -39 17.5 -56.5t56.5 -17.5h63v-121h-252l-12 135q-68 -86 -152 -126t-228 -40t-229 88t-85 250z
M643 1446h209l-236 -367h-143z" />
    <glyph glyph-name="ucircumflex" unicode="&#xfb;" horiz-adv-x="1214" 
d="M197 307v481q0 39 -16.5 56.5t-55.5 17.5h-66v121h303v-674q0 -113 52.5 -165t170.5 -52t193.5 68.5t75.5 199.5v428q0 41 -15.5 57.5t-54.5 16.5h-67v121h301v-788q0 -39 17.5 -56.5t56.5 -17.5h63v-121h-252l-12 135q-68 -86 -152 -126t-228 -40t-229 88t-85 250z
M473 1454h176l246 -375h-162l-172 271l-172 -271h-162z" />
    <glyph glyph-name="udieresis" unicode="&#xfc;" horiz-adv-x="1214" 
d="M197 307v481q0 39 -16.5 56.5t-55.5 17.5h-66v121h303v-674q0 -113 52.5 -165t170.5 -52t193.5 68.5t75.5 199.5v428q0 41 -15.5 57.5t-54.5 16.5h-67v121h301v-788q0 -39 17.5 -56.5t56.5 -17.5h63v-121h-252l-12 135q-68 -86 -152 -126t-228 -40t-229 88t-85 250z
M680 1286h164v-168h-164v168zM268 1286h164v-168h-164v168z" />
    <glyph glyph-name="yacute" unicode="&#xfd;" horiz-adv-x="1140" 
d="M629 -410q-233 0 -377 140v139h147v-80q65 -76 222 -76q242 0 241 264v164q-61 -70 -134 -100.5t-181 -30.5q-168 0 -259 89t-91 253v436q0 39 -16.5 56.5t-55.5 17.5h-66v121h303v-633q0 -217 222 -217q123 0 196.5 67.5t73.5 198.5v389q0 41 -15.5 57.5t-54.5 16.5h-67
v121h301v-979q0 -190 -102.5 -302t-286.5 -112zM631 1446h209l-236 -367h-143z" />
    <glyph glyph-name="thorn" unicode="&#xfe;" horiz-adv-x="1218" 
d="M681 92q300 0 300 404q0 205 -73.5 300t-223.5 95t-238 -96.5t-88 -251.5v-115q0 -158 88.5 -247t234.5 -89zM80 -305h35q49 0 64.5 21.5t15.5 74.5v1364q0 43 -16.5 61.5t-53.5 18.5h-45v121h278v-504q124 162 338 162t328.5 -134t114.5 -382t-114 -388.5t-318 -140.5
q-115 0 -198 38t-151 128v-344q0 -53 16.5 -74.5t65.5 -21.5h39v-121h-399v121z" />
    <glyph glyph-name="ydieresis" unicode="&#xff;" horiz-adv-x="1140" 
d="M629 -410q-233 0 -377 140v139h147v-80q65 -76 222 -76q242 0 241 264v164q-61 -70 -134 -100.5t-181 -30.5q-168 0 -259 89t-91 253v436q0 39 -16.5 56.5t-55.5 17.5h-66v121h303v-633q0 -217 222 -217q123 0 196.5 67.5t73.5 198.5v389q0 41 -15.5 57.5t-54.5 16.5h-67
v121h301v-979q0 -190 -102.5 -302t-286.5 -112zM686 1286h164v-168h-164v168zM274 1286h164v-168h-164v168z" />
    <glyph glyph-name="Amacron" unicode="&#x100;" horiz-adv-x="1476" 
d="M942 530l-203 576l-202 -576h405zM80 121h67q86 0 111 74l406 1130h153l402 -1130q14 -41 40.5 -57.5t71.5 -16.5h66v-121h-424v121h110l-104 299h-479l-107 -299h111v-121h-424v121zM453 1595h573v-116h-573v116z" />
    <glyph glyph-name="amacron" unicode="&#x101;" horiz-adv-x="1064" 
d="M727 334v108l-315 -22q-113 -8 -154 -47t-41 -122t46 -121t171 -38t209 60.5t84 181.5zM510 891q-125 0 -217 -45v-78h-150v143q164 102 375 103q373 0 373 -344v-469q0 -43 15.5 -61.5t49.5 -18.5h50v-121h-215l-25 127q-61 -82 -152.5 -120t-239.5 -38t-231.5 71
t-83.5 208t90.5 203.5t256.5 78.5l321 23v127q0 113 -46 162t-171 49zM217 1237h574v-117h-574v117z" />
    <glyph glyph-name="Abreve" unicode="&#x102;" horiz-adv-x="1476" 
d="M942 530l-203 576l-202 -576h405zM80 121h67q86 0 111 74l406 1130h153l402 -1130q14 -41 40.5 -57.5t71.5 -16.5h66v-121h-424v121h110l-104 299h-479l-107 -299h111v-121h-424v121zM432 1716h133q0 -80 47 -123t128 -43t126 43t45 123h133q0 -127 -83.5 -203.5
t-221 -76.5t-222.5 75.5t-85 204.5z" />
    <glyph glyph-name="abreve" unicode="&#x103;" horiz-adv-x="1064" 
d="M727 334v108l-315 -22q-113 -8 -154 -47t-41 -122t46 -121t171 -38t209 60.5t84 181.5zM510 891q-125 0 -217 -45v-78h-150v143q164 102 375 103q373 0 373 -344v-469q0 -43 15.5 -61.5t49.5 -18.5h50v-121h-215l-25 127q-61 -82 -152.5 -120t-239.5 -38t-231.5 71
t-83.5 208t90.5 203.5t256.5 78.5l321 23v127q0 113 -46 162t-171 49zM215 1360h133q0 -80 47 -123t128 -43t126 43t45 123h133q0 -127 -84 -204t-221 -77t-222 76t-85 205z" />
    <glyph glyph-name="Aogonek" unicode="&#x104;" horiz-adv-x="1476" 
d="M942 530l-203 576l-202 -576h405zM1153 -198q0 -108 82 -107q49 0 92 14v-100q-45 -29 -125 -29t-132 49t-52 162t102 209h-147v121h110l-104 299h-479l-107 -299h111v-121h-424v121h67q86 0 111 74l406 1130h153l402 -1130q14 -41 40.5 -57.5t71.5 -16.5h66v-121h-142
q-102 -90 -102 -198z" />
    <glyph glyph-name="aogonek" unicode="&#x105;" horiz-adv-x="1064" 
d="M217 251q0 -83 46 -121t171 -38t209 60.5t84 181.5v108l-315 -22q-113 -8 -154 -47t-41 -122zM510 891q-125 0 -217 -45v-78h-150v143q164 102 375 103q373 0 373 -344v-469q0 -43 15.5 -61.5t49.5 -18.5h50v-121h-80q-103 -90 -103 -198t82 -107q49 0 92 14v-100
q-45 -29 -125 -29t-132 49t-52 162t103 209l-25 127q-61 -82 -152.5 -120t-239.5 -38t-231.5 71t-83.5 208t90.5 203.5t256.5 78.5l321 23v127q0 113 -46 162t-171 49z" />
    <glyph glyph-name="Cacute" unicode="&#x106;" horiz-adv-x="1222" 
d="M80 656q0 202 70.5 361t215 249t355.5 90q272 0 422 -111v-184h-162v123q-100 49 -260 49q-227 0 -355 -153.5t-128 -424.5q0 -174 62 -301t177 -194.5t288 -67.5t300 76l65 -102q-150 -97 -375 -97t-373.5 87t-225 242.5t-76.5 357.5zM797 1802h209l-236 -366h-143z" />
    <glyph glyph-name="cacute" unicode="&#x107;" horiz-adv-x="1048" 
d="M619 92q166 0 286 76l64 -102q-82 -53 -168 -75t-219 -22t-250 60.5t-184.5 176.5t-67.5 279q0 254 134 391.5t370 137.5q129 0 216 -28t167 -85v-178h-150v113q-51 29 -101 42t-132 13q-152 0 -249 -99.5t-97 -302.5t107.5 -300t273.5 -97zM649 1446h209l-235 -367h-144
z" />
    <glyph glyph-name="Ccircumflex" unicode="&#x108;" horiz-adv-x="1222" 
d="M80 656q0 202 70.5 361t215 249t355.5 90q272 0 422 -111v-184h-162v123q-100 49 -260 49q-227 0 -355 -153.5t-128 -424.5q0 -174 62 -301t177 -194.5t288 -67.5t300 76l65 -102q-150 -97 -375 -97t-373.5 87t-225 242.5t-76.5 357.5zM643 1812h176l246 -374h-162
l-172 270l-172 -270h-162z" />
    <glyph glyph-name="ccircumflex" unicode="&#x109;" horiz-adv-x="1048" 
d="M619 92q166 0 286 76l64 -102q-82 -53 -168 -75t-219 -22t-250 60.5t-184.5 176.5t-67.5 279q0 254 134 391.5t370 137.5q129 0 216 -28t167 -85v-178h-150v113q-51 29 -101 42t-132 13q-152 0 -249 -99.5t-97 -302.5t107.5 -300t273.5 -97zM506 1454h176l246 -375h-162
l-172 271l-172 -271h-162z" />
    <glyph glyph-name="Cdotaccent" unicode="&#x10a;" horiz-adv-x="1222" 
d="M80 656q0 202 70.5 361t215 249t355.5 90q272 0 422 -111v-184h-162v123q-100 49 -260 49q-227 0 -355 -153.5t-128 -424.5q0 -174 62 -301t177 -194.5t288 -67.5t300 76l65 -102q-150 -97 -375 -97t-373.5 87t-225 242.5t-76.5 357.5zM662 1645h163v-168h-163v168z" />
    <glyph glyph-name="cdotaccent" unicode="&#x10b;" horiz-adv-x="1048" 
d="M619 92q166 0 286 76l64 -102q-82 -53 -168 -75t-219 -22t-250 60.5t-184.5 176.5t-67.5 279q0 254 134 391.5t370 137.5q129 0 216 -28t167 -85v-178h-150v113q-51 29 -101 42t-132 13q-152 0 -249 -99.5t-97 -302.5t107.5 -300t273.5 -97zM524 1319h164v-168h-164v168z
" />
    <glyph glyph-name="Ccaron" unicode="&#x10c;" horiz-adv-x="1222" 
d="M80 656q0 202 70.5 361t215 249t355.5 90q272 0 422 -111v-184h-162v123q-100 49 -260 49q-227 0 -355 -153.5t-128 -424.5q0 -174 62 -301t177 -194.5t288 -67.5t300 76l65 -102q-150 -97 -375 -97t-373.5 87t-225 242.5t-76.5 357.5zM391 1812h162l172 -272l172 272
h162l-246 -374h-176z" />
    <glyph glyph-name="ccaron" unicode="&#x10d;" horiz-adv-x="1048" 
d="M619 92q166 0 286 76l64 -102q-82 -53 -168 -75t-219 -22t-250 60.5t-184.5 176.5t-67.5 279q0 254 134 391.5t370 137.5q129 0 216 -28t167 -85v-178h-150v113q-51 29 -101 42t-132 13q-152 0 -249 -99.5t-97 -302.5t107.5 -300t273.5 -97zM272 1454h162l172 -272
l172 272h162l-246 -375h-176z" />
    <glyph glyph-name="Dcaron" unicode="&#x10e;" horiz-adv-x="1277" 
d="M625 121q217 0 316 134t99 406t-98 407.5t-317 135.5h-260v-1083h260zM80 121h49q39 0 55.5 17.5t16.5 58.5v933q0 41 -16.5 57.5t-55.5 16.5h-49v121h565q281 0 417 -175.5t136 -485.5t-140 -487t-413 -177h-565v121zM223 1812h162l172 -272l172 272h162l-246 -374h-176
z" />
    <glyph glyph-name="dcaron" unicode="&#x10f;" horiz-adv-x="1466" 
d="M860 442v109q0 160 -84 250t-234 90q-304 0 -304 -412q0 -199 73 -293t223 -94t238 97.5t88 252.5zM80 482q0 249 113.5 390.5t320.5 141.5q129 0 211 -37t135 -123v287q0 53 -15.5 73.5t-64.5 20.5h-39v121h283v-1155q0 -45 14.5 -62.5t51.5 -17.5h45v-121h-244l-21 150
q-114 -181 -362 -181q-201 0 -314.5 132t-113.5 381zM1221 1477h206l-170 -387h-141z" />
    <glyph glyph-name="Dcroat" unicode="&#x110;" horiz-adv-x="1277" 
d="M625 121q217 0 316 134t99 406t-98 407.5t-317 135.5h-260v-481h303v-121h-303v-481h260zM80 121h49q39 0 55.5 17.5t16.5 58.5v405h-121v121h121v407q0 41 -16.5 57.5t-55.5 16.5h-49v121h565q281 0 417 -175.5t136 -485.5t-140 -487t-413 -177h-565v121z" />
    <glyph glyph-name="dcroat" unicode="&#x111;" horiz-adv-x="1196" 
d="M860 442v109q0 160 -84 250t-234 90q-304 0 -304 -412q0 -199 73 -293t223 -94t238 97.5t88 252.5zM80 482q0 249 113.5 390.5t320.5 141.5q129 0 211 -37t135 -123v217h-309v107h305q-4 31 -20.5 45t-55.5 14h-39v119h279v-178h108v-107h-108v-883q0 -45 14.5 -62
t50.5 -17h50v-109h-244l-21 150q-114 -181 -362 -181q-201 0 -314.5 132t-113.5 381z" />
    <glyph glyph-name="Emacron" unicode="&#x112;" horiz-adv-x="1114" 
d="M80 121h65q39 0 55.5 17.5t16.5 58.5v933q0 41 -16.5 57.5t-55.5 16.5h-65v121h954v-238h-147v46q0 39 -17.5 55t-58.5 16h-430v-479h393v-121h-393v-483h430q41 0 58.5 16.5t17.5 55.5v47h147v-240h-954v121zM281 1595h573v-116h-573v116z" />
    <glyph glyph-name="emacron" unicode="&#x113;" horiz-adv-x="1097" 
d="M864 553q0 170 -72.5 254t-228.5 84t-237.5 -90t-81.5 -248h620zM80 486q0 257 127 392.5t355 135.5t342 -129t114 -353v-92h-774q0 -182 92 -265t248 -83t250 55v64h149v-129q-170 -113 -400 -113q-229 0 -366 130t-137 387zM299 1237h573v-117h-573v117z" />
    <glyph glyph-name="Ebreve" unicode="&#x114;" horiz-adv-x="1114" 
d="M80 121h65q39 0 55.5 17.5t16.5 58.5v933q0 41 -16.5 57.5t-55.5 16.5h-65v121h954v-238h-147v46q0 39 -17.5 55t-58.5 16h-430v-479h393v-121h-393v-483h430q41 0 58.5 16.5t17.5 55.5v47h147v-240h-954v121zM287 1716h133q0 -80 47 -123t128 -43t126 43t45 123h133
q0 -127 -84 -203.5t-221 -76.5t-222 75.5t-85 204.5z" />
    <glyph glyph-name="ebreve" unicode="&#x115;" horiz-adv-x="1097" 
d="M864 553q0 170 -72.5 254t-228.5 84t-237.5 -90t-81.5 -248h620zM80 486q0 257 127 392.5t355 135.5t342 -129t114 -353v-92h-774q0 -182 92 -265t248 -83t250 55v64h149v-129q-170 -113 -400 -113q-229 0 -366 130t-137 387zM274 1360h134q0 -80 47 -123t128 -43t126 43
t45 123h133q0 -127 -84 -204t-221.5 -77t-222.5 76t-85 205z" />
    <glyph glyph-name="Edotaccent" unicode="&#x116;" horiz-adv-x="1114" 
d="M80 121h65q39 0 55.5 17.5t16.5 58.5v933q0 41 -16.5 57.5t-55.5 16.5h-65v121h954v-238h-147v46q0 39 -17.5 55t-58.5 16h-430v-479h393v-121h-393v-483h430q41 0 58.5 16.5t17.5 55.5v47h147v-240h-954v121zM512 1645h164v-168h-164v168z" />
    <glyph glyph-name="edotaccent" unicode="&#x117;" horiz-adv-x="1097" 
d="M864 553q0 170 -72.5 254t-228.5 84t-237.5 -90t-81.5 -248h620zM80 486q0 257 127 392.5t355 135.5t342 -129t114 -353v-92h-774q0 -182 92 -265t248 -83t250 55v64h149v-129q-170 -113 -400 -113q-229 0 -366 130t-137 387zM502 1286h164v-168h-164v168z" />
    <glyph glyph-name="Eogonek" unicode="&#x118;" horiz-adv-x="1114" 
d="M942 -305q49 0 92 14v-100q-44 -29 -124 -29t-132.5 49t-52.5 162t102 209h-747v121h65q39 0 55.5 17.5t16.5 58.5v933q0 41 -16.5 57.5t-55.5 16.5h-65v121h954v-238h-147v46q0 39 -17.5 55t-58.5 16h-430v-479h393v-121h-393v-483h430q41 0 58.5 16.5t17.5 55.5v47h147
v-240h-71q-103 -90 -103 -198t82 -107z" />
    <glyph glyph-name="eogonek" unicode="&#x119;" horiz-adv-x="1097" 
d="M864 553q0 170 -72.5 254t-228.5 84t-237.5 -90t-81.5 -248h620zM711 -198q0 -108 82 -107q51 0 94 14v-100q-45 -27 -124 -28t-133.5 47t-54.5 154t74 189q-23 -2 -74 -2q-221 0 -358 130t-137 387t127 392.5t355 135.5t342 -129t114 -353v-92h-774q0 -182 92 -265
t248 -83t250 55v64h149v-129q-78 -55 -170 -82q-102 -90 -102 -198z" />
    <glyph glyph-name="Ecaron" unicode="&#x11a;" horiz-adv-x="1114" 
d="M80 121h65q39 0 55.5 17.5t16.5 58.5v933q0 41 -16.5 57.5t-55.5 16.5h-65v121h954v-238h-147v46q0 39 -17.5 55t-58.5 16h-430v-479h393v-121h-393v-483h430q41 0 58.5 16.5t17.5 55.5v47h147v-240h-954v121zM244 1812h162l172 -272l172 272h161l-245 -374h-177z" />
    <glyph glyph-name="ecaron" unicode="&#x11b;" horiz-adv-x="1097" 
d="M864 553q0 170 -72.5 254t-228.5 84t-237.5 -90t-81.5 -248h620zM80 486q0 257 127 392.5t355 135.5t342 -129t114 -353v-92h-774q0 -182 92 -265t248 -83t250 55v64h149v-129q-170 -113 -400 -113q-229 0 -366 130t-137 387zM250 1454h162l172 -272l172 272h162
l-246 -375h-176z" />
    <glyph glyph-name="Gcircumflex" unicode="&#x11c;" horiz-adv-x="1251" 
d="M80 655q0 315 156.5 508t470.5 193q270 0 423 -111v-184h-163v121q-96 51 -260 51q-225 0 -347 -152.5t-122 -420.5t129 -418t356 -150q168 0 287 51v416h-299v123h460v-592q-184 -121 -452 -121q-205 0 -349.5 87t-217 243t-72.5 356zM623 1812h176l245 -374h-161
l-172 270l-172 -270h-162z" />
    <glyph glyph-name="gcircumflex" unicode="&#x11d;" horiz-adv-x="1193" 
d="M549 891q-311 0 -311 -389q0 -209 75 -305.5t227 -96.5t236 88t84 248v105q0 158 -84 254t-227 96zM633 -410q-226 0 -375 131v138h148v-80q74 -66 207 -66t190 66.5t57 193.5v170q-57 -88 -140 -127t-208 -39q-205 0 -318.5 137.5t-113.5 385.5t118.5 381t323.5 133
q119 0 203 -43t145 -137l21 149h244v-109h-50q-37 0 -51 -19t-14 -64v-797q0 -182 -105.5 -293t-281.5 -111zM508 1454h176l246 -375h-162l-172 271l-172 -271h-162z" />
    <glyph glyph-name="Gbreve" unicode="&#x11e;" horiz-adv-x="1251" 
d="M80 655q0 315 156.5 508t470.5 193q270 0 423 -111v-184h-163v121q-96 51 -260 51q-225 0 -347 -152.5t-122 -420.5t129 -418t356 -150q168 0 287 51v416h-299v123h460v-592q-184 -121 -452 -121q-205 0 -349.5 87t-217 243t-72.5 356zM406 1716h133q0 -80 47 -123
t128 -43t126 43t45 123h133q0 -127 -84 -203.5t-221.5 -76.5t-222 75.5t-84.5 204.5z" />
    <glyph glyph-name="gbreve" unicode="&#x11f;" horiz-adv-x="1193" 
d="M549 891q-311 0 -311 -389q0 -209 75 -305.5t227 -96.5t236 88t84 248v105q0 158 -84 254t-227 96zM633 -410q-226 0 -375 131v138h148v-80q74 -66 207 -66t190 66.5t57 193.5v170q-57 -88 -140 -127t-208 -39q-205 0 -318.5 137.5t-113.5 385.5t118.5 381t323.5 133
q119 0 203 -43t145 -137l21 149h244v-109h-50q-37 0 -51 -19t-14 -64v-797q0 -182 -105.5 -293t-281.5 -111zM270 1360h133q0 -80 47.5 -123t128.5 -43t126 43t45 123h133q0 -127 -84 -204t-221.5 -77t-222.5 76t-85 205z" />
    <glyph glyph-name="Gdotaccent" unicode="&#x120;" horiz-adv-x="1251" 
d="M80 655q0 315 156.5 508t470.5 193q270 0 423 -111v-184h-163v121q-96 51 -260 51q-225 0 -347 -152.5t-122 -420.5t129 -418t356 -150q168 0 287 51v416h-299v123h460v-592q-184 -121 -452 -121q-205 0 -349.5 87t-217 243t-72.5 356zM643 1612h164v-168h-164v168z" />
    <glyph glyph-name="gdotaccent" unicode="&#x121;" horiz-adv-x="1193" 
d="M549 891q-311 0 -311 -389q0 -209 75 -305.5t227 -96.5t236 88t84 248v105q0 158 -84 254t-227 96zM633 -410q-226 0 -375 131v138h148v-80q74 -66 207 -66t190 66.5t57 193.5v170q-57 -88 -140 -127t-208 -39q-205 0 -318.5 137.5t-113.5 385.5t118.5 381t323.5 133
q119 0 203 -43t145 -137l21 149h244v-109h-50q-37 0 -51 -19t-14 -64v-797q0 -182 -105.5 -293t-281.5 -111zM504 1278h164v-168h-164v168z" />
    <glyph glyph-name="Gcommaaccent" unicode="&#x122;" horiz-adv-x="1251" 
d="M664 -100h188l-121 -400h-127zM80 655q0 315 156.5 508t470.5 193q270 0 423 -111v-184h-163v121q-96 51 -260 51q-225 0 -347 -152.5t-122 -420.5t129 -418t356 -150q168 0 287 51v416h-299v123h460v-592q-184 -121 -452 -121q-205 0 -349.5 87t-217 243t-72.5 356z" />
    <glyph glyph-name="gcommaaccent" unicode="&#x123;" horiz-adv-x="1193" 
d="M549 891q-311 0 -311 -389q0 -209 75 -305.5t227 -96.5t236 88t84 248v105q0 158 -84 254t-227 96zM633 -410q-226 0 -375 131v138h148v-80q74 -66 207 -66t190 66.5t57 193.5v170q-57 -88 -140 -127t-208 -39q-205 0 -318.5 137.5t-113.5 385.5t118.5 381t323.5 133
q119 0 203 -43t145 -137l21 149h244v-109h-50q-37 0 -51 -19t-14 -64v-797q0 -182 -105.5 -293t-281.5 -111zM608 1565h127l-59 -400h-189z" />
    <glyph glyph-name="Hcircumflex" unicode="&#x124;" horiz-adv-x="1390" 
d="M80 121h65q39 0 55.5 17.5t16.5 58.5v933q0 41 -16.5 57.5t-55.5 16.5h-65v121h434v-121h-61q-39 0 -55.5 -16.5t-16.5 -57.5v-405h629v405q0 41 -16.5 57.5t-55.5 16.5h-64v121h437v-121h-64q-39 0 -56 -16.5t-17 -57.5v-933q0 -41 16 -58.5t57 -17.5h64v-121h-437v121
h64q39 0 55.5 17.5t16.5 58.5v407h-629v-407q0 -41 16.5 -58.5t55.5 -17.5h61v-121h-434v121zM606 1812h176l246 -374h-162l-172 270l-172 -270h-162z" />
    <glyph glyph-name="hcircumflex" unicode="&#x125;" horiz-adv-x="1230" 
d="M80 121h65q39 0 55.5 17.5t16.5 58.5v964q0 41 -16.5 57.5t-55.5 16.5h-65v121h291v-486q72 76 153.5 110t217.5 34t216 -88t80 -250v-479q0 -41 16.5 -58.5t55.5 -17.5h66v-121h-304v674q0 115 -50 166t-164 51t-195.5 -68.5t-81.5 -189.5v-436q0 -41 15.5 -58.5
t54.5 -17.5h67v-121h-438v121zM338 1812h176l246 -374h-162l-172 270l-172 -270h-162z" />
    <glyph glyph-name="Hbar" unicode="&#x126;" horiz-adv-x="1390" 
d="M1010 725v149h-629v-149h629zM80 121h65q39 0 55.5 17.5t16.5 58.5v677h-137v121h137v135q0 41 -16.5 57.5t-55.5 16.5h-65v121h434v-121h-61q-39 0 -55.5 -16.5t-16.5 -57.5v-135h629v135q0 41 -16.5 57.5t-55.5 16.5h-64v121h437v-121h-64q-39 0 -56 -16.5t-17 -57.5
v-135h137v-121h-137v-677q0 -41 16 -58.5t57 -17.5h64v-121h-437v121h64q39 0 55.5 17.5t16.5 58.5v407h-629v-407q0 -41 16.5 -58.5t55.5 -17.5h61v-121h-434v121z" />
    <glyph glyph-name="hbar" unicode="&#x127;" horiz-adv-x="1230" 
d="M145 1235h-65v121h291v-176h344v-121h-344v-189q72 76 153.5 110t217.5 34t216 -88t80 -250v-479q0 -41 16.5 -58.5t55.5 -17.5h66v-121h-304v674q0 115 -50 166t-164 51t-195.5 -68.5t-81.5 -189.5v-436q0 -41 15.5 -58.5t54.5 -17.5h67v-121h-438v121h65
q39 0 55.5 17.5t16.5 58.5v862h-137v121h135q-8 55 -70 55z" />
    <glyph glyph-name="Itilde" unicode="&#x128;" horiz-adv-x="598" 
d="M80 121h65q39 0 55.5 17.5t16.5 58.5v933q0 41 -16.5 57.5t-55.5 16.5h-65v121h438v-121h-65q-39 0 -55.5 -16.5t-16.5 -57.5v-935q0 -41 16.5 -57.5t55.5 -16.5h65v-121h-438v121zM-84 1438q0 248 207 248q79 0 182 -58t151 -59q48 0 69.5 25.5t21.5 91.5h129
q0 -248 -205 -248q-49 0 -89 15t-94 45t-84 42t-72 12t-64.5 -24.5t-22.5 -89.5h-129z" />
    <glyph glyph-name="itilde" unicode="&#x129;" horiz-adv-x="559" 
d="M59 121h66q39 0 55.5 17.5t16.5 58.5v591q0 41 -16.5 57.5t-55.5 16.5h-66v121h301v-788q0 -41 16.5 -57.5t55.5 -16.5h66v-121h-439v121zM-131 1085q0 248 207 248q78 0 182 -58t151 -58q48 0 69.5 25.5t21.5 90.5h129q0 -248 -205 -248q-49 0 -89 15.5t-94 45.5t-84 42
t-72 12t-64.5 -24.5t-22.5 -90.5h-129z" />
    <glyph glyph-name="Imacron" unicode="&#x12a;" horiz-adv-x="598" 
d="M80 121h65q39 0 55.5 17.5t16.5 58.5v933q0 41 -16.5 57.5t-55.5 16.5h-65v121h438v-121h-65q-39 0 -55.5 -16.5t-16.5 -57.5v-935q0 -41 16.5 -57.5t55.5 -16.5h65v-121h-438v121zM10 1595h576v-116h-576v116z" />
    <glyph glyph-name="imacron" unicode="&#x12b;" horiz-adv-x="555" 
d="M63 121h66q39 0 55.5 17.5t16.5 58.5v591q0 41 -16.5 57.5t-55.5 16.5h-66v121h302v-788q0 -41 16 -57.5t55 -16.5h66v-121h-439v121zM-39 1237h576v-117h-576v117z" />
    <glyph glyph-name="Ibreve" unicode="&#x12c;" horiz-adv-x="598" 
d="M80 121h65q39 0 55.5 17.5t16.5 58.5v933q0 41 -16.5 57.5t-55.5 16.5h-65v121h438v-121h-65q-39 0 -55.5 -16.5t-16.5 -57.5v-935q0 -41 16.5 -57.5t55.5 -16.5h65v-121h-438v121zM-10 1716h133q0 -80 47 -123t128 -43t126 43t45 123h133q0 -127 -84 -203.5t-221 -76.5
t-222 75.5t-85 204.5z" />
    <glyph glyph-name="ibreve" unicode="&#x12d;" horiz-adv-x="559" 
d="M59 121h66q39 0 55.5 17.5t16.5 58.5v591q0 41 -16.5 57.5t-55.5 16.5h-66v121h301v-788q0 -41 16.5 -57.5t55.5 -16.5h66v-121h-439v121zM-43 1360h133q0 -80 47 -123t128 -43t126 43t45 123h133q0 -127 -84 -204t-221 -77t-222 76t-85 205z" />
    <glyph glyph-name="Iogonek" unicode="&#x12e;" horiz-adv-x="598" 
d="M281 -198q0 -108 81 -107q49 0 93 14v-100q-45 -29 -125 -29t-132.5 49t-52.5 162t103 209h-168v121h65q39 0 55.5 17.5t16.5 58.5v933q0 41 -16.5 57.5t-55.5 16.5h-65v121h438v-121h-65q-39 0 -55.5 -16.5t-16.5 -57.5v-935q0 -41 16.5 -57.5t55.5 -16.5h65v-121h-135
q-102 -90 -102 -198z" />
    <glyph glyph-name="iogonek" unicode="&#x12f;" horiz-adv-x="559" 
d="M264 -198q0 -108 82 -107q49 0 92 14v-100q-44 -29 -124 -29t-132.5 49t-52.5 162t102 209h-172v121h66q39 0 55.5 17.5t16.5 58.5v591q0 41 -16.5 57.5t-55.5 16.5h-66v121h301v-788q0 -41 16.5 -57.5t55.5 -16.5h66v-121h-131q-103 -90 -103 -198zM369 1147h-181v158
h181v-158z" />
    <glyph glyph-name="Idotaccent" unicode="&#x130;" horiz-adv-x="598" 
d="M80 121h65q39 0 55.5 17.5t16.5 58.5v933q0 41 -16.5 57.5t-55.5 16.5h-65v121h438v-121h-65q-39 0 -55.5 -16.5t-16.5 -57.5v-935q0 -41 16.5 -57.5t55.5 -16.5h65v-121h-438v121zM215 1645h164v-168h-164v168z" />
    <glyph glyph-name="dotlessi" unicode="&#x131;" horiz-adv-x="559" 
d="M59 121h66q39 0 55.5 17.5t16.5 58.5v591q0 41 -16.5 57.5t-55.5 16.5h-66v121h301v-788q0 -41 16.5 -57.5t55.5 -16.5h66v-121h-439v121z" />
    <glyph glyph-name="IJ" unicode="&#x132;" horiz-adv-x="1525" 
d="M563 264h152v-98q68 -74 204 -74t191 62.5t55 189.5v786q0 41 -16 57.5t-57 16.5h-64v121h438v-121h-65q-39 0 -55.5 -17.5t-16.5 -56.5v-768q0 -184 -99.5 -288.5t-285.5 -104.5q-242 1 -381 146v149zM80 121h65q39 0 55.5 17.5t16.5 58.5v933q0 41 -16.5 57.5
t-55.5 16.5h-65v121h438v-121h-65q-39 0 -55.5 -16.5t-16.5 -57.5v-935q0 -41 16.5 -57.5t55.5 -16.5h65v-121h-438v121z" />
    <glyph glyph-name="ij" unicode="&#x133;" horiz-adv-x="1069" 
d="M589 -346q-179 0 -304 119v151h145v-90q58 -57 158 -57t144 48t44 165v798q0 41 -16.5 57.5t-54.5 16.5h-66v121h301v-977q0 -176 -86 -264t-265 -88zM59 121h66q39 0 55.5 17.5t16.5 58.5v591q0 41 -16.5 57.5t-55.5 16.5h-66v121h301v-788q0 -41 16.5 -57.5t55.5 -16.5
h66v-121h-439v121zM760 1305h180v-158h-180v158zM188 1305h181v-158h-181v158z" />
    <glyph glyph-name="Jcircumflex" unicode="&#x134;" horiz-adv-x="1038" 
d="M18 264h152v-98q68 -74 204 -74t191.5 62.5t55.5 189.5v786q0 41 -16.5 57.5t-57.5 16.5h-64v121h439v-121h-66q-39 0 -55.5 -17.5t-16.5 -56.5v-768q0 -184 -99 -288.5t-286 -104.5q-242 1 -381 146v149zM596 1812h176l246 -374h-162l-172 270l-172 -270h-162z" />
    <glyph glyph-name="jcircumflex" unicode="&#x135;" horiz-adv-x="741" 
d="M260 -223q100 0 144.5 48t44.5 165v798q0 41 -16.5 57.5t-55.5 16.5h-66v121h301v-977q0 -176 -86 -264t-247 -88q-105 0 -180.5 28.5t-141.5 90.5v151h145v-90q58 -57 158 -57zM393 1462h176l246 -375h-162l-172 271l-172 -271h-162z" />
    <glyph glyph-name="Kcommaaccent" unicode="&#x136;" horiz-adv-x="1312" 
d="M565 -100h189l-121 -400h-127zM80 121h61q43 0 59.5 17.5t16.5 56.5v935q0 41 -16.5 57.5t-55.5 16.5h-49v121h398v-121h-41q-39 0 -55.5 -16.5t-16.5 -57.5v-493l524 567h-110v121h415v-121h-80q-37 0 -59 -14t-55 -51l-350 -375l381 -576q44 -67 116 -67h70v-121h-430
v121h117l-355 536l-184 -198v-264q0 -39 15.5 -56.5t58.5 -17.5h55v-121h-430v121z" />
    <glyph glyph-name="kcommaaccent" unicode="&#x137;" horiz-adv-x="1177" 
d="M526 -100h189l-121 -400h-127zM80 121h59q43 0 54.5 15.5t11.5 56.5v976q0 41 -14.5 56.5t-53.5 15.5h-41v115h396v-115h-56q-37 0 -52 -16.5t-15 -55.5v-657l395 350h-111v121h424v-121h-80q-37 0 -55 -8t-49 -35l-225 -201l262 -438q23 -37 44 -48t66 -11h78v-121h-241
l-322 524l-186 -168v-163q0 -39 15 -55.5t60 -16.5h66v-121h-430v121z" />
    <glyph glyph-name="kgreenlandic" unicode="&#x138;" horiz-adv-x="1179" 
d="M80 119h59q47 0 60.5 20.5t13.5 73.5v580q0 41 -14.5 56t-53.5 15h-49v119h387v-119h-47q-41 0 -54 -19.5t-13 -72.5v-291l387 383h-103v119h418v-119h-67q-45 0 -73 -15t-71 -58l-209 -207l258 -402q23 -37 46.5 -50t64.5 -13h80v-119h-387v119h80l-242 368l-182 -172
v-125q0 -39 15 -55t60 -16h64v-119h-428v119z" />
    <glyph glyph-name="Lacute" unicode="&#x139;" horiz-adv-x="1036" 
d="M80 121h43q45 0 61.5 17.5t16.5 58.5v933q0 41 -16.5 57.5t-55.5 16.5h-49v121h405v-121h-49q-39 0 -55 -16.5t-16 -57.5v-1009h430q41 0 58 16.5t17 57.5v53h148v-248h-938v121zM350 1802h209l-235 -366h-144z" />
    <glyph glyph-name="lacute" unicode="&#x13a;" horiz-adv-x="589" 
d="M80 121h65q39 0 55.5 17.5t16.5 58.5v964q0 41 -16.5 57.5t-55.5 16.5h-65v121h301v-1159q0 -41 16.5 -58.5t55.5 -17.5h65v-121h-438v121zM324 1802h208l-235 -366h-143z" />
    <glyph glyph-name="Lcommaaccent" unicode="&#x13b;" horiz-adv-x="1036" 
d="M483 -100h189l-121 -400h-127zM80 121h43q45 0 61.5 17.5t16.5 58.5v933q0 41 -16.5 57.5t-55.5 16.5h-49v121h405v-121h-49q-39 0 -55 -16.5t-16 -57.5v-1009h430q41 0 58 16.5t17 57.5v53h148v-248h-938v121z" />
    <glyph glyph-name="lcommaaccent" unicode="&#x13c;" horiz-adv-x="589" 
d="M221 -100h189l-121 -400h-127zM80 121h65q39 0 55.5 17.5t16.5 58.5v964q0 41 -16.5 57.5t-55.5 16.5h-65v121h301v-1159q0 -41 16.5 -58.5t55.5 -17.5h65v-121h-438v121z" />
    <glyph glyph-name="Lcaron" unicode="&#x13d;" horiz-adv-x="1036" 
d="M80 121h43q45 0 61.5 17.5t16.5 58.5v933q0 41 -16.5 57.5t-55.5 16.5h-49v121h405v-121h-49q-39 0 -55 -16.5t-16 -57.5v-1009h430q41 0 58 16.5t17 57.5v53h148v-248h-938v121zM748 1462h188l-121 -399h-127z" />
    <glyph glyph-name="lcaron" unicode="&#x13e;" horiz-adv-x="782" 
d="M80 121h65q39 0 55.5 17.5t16.5 58.5v964q0 41 -16.5 57.5t-55.5 16.5h-65v121h301v-1159q0 -41 16.5 -58.5t55.5 -17.5h65v-121h-438v121zM608 1556h189l-121 -399h-127z" />
    <glyph glyph-name="Ldot" unicode="&#x13f;" horiz-adv-x="1036" 
d="M608 739h164v-168h-164v168zM80 121h43q45 0 61.5 17.5t16.5 58.5v933q0 41 -16.5 57.5t-55.5 16.5h-49v121h405v-121h-49q-39 0 -55 -16.5t-16 -57.5v-1009h430q41 0 58 16.5t17 57.5v53h148v-248h-938v121z" />
    <glyph glyph-name="ldot" unicode="&#x140;" horiz-adv-x="735" 
d="M573 745h164v-167h-164v167zM80 121h65q39 0 55.5 17.5t16.5 58.5v964q0 41 -16.5 57.5t-55.5 16.5h-65v121h301v-1159q0 -41 16.5 -58.5t55.5 -17.5h65v-121h-438v121z" />
    <glyph glyph-name="Lslash" unicode="&#x141;" horiz-adv-x="1038" 
d="M82 121h43q45 0 61.5 17.5t16.5 58.5v286l-123 -69v135l123 69v512q0 41 -16.5 57.5t-55.5 16.5h-49v121h405v-121h-49q-39 0 -55 -16.5t-16 -57.5v-417l245 143v-135l-245 -143v-457h430q41 0 58 16.5t17 57.5v53h148v-248h-938v121z" />
    <glyph glyph-name="lslash" unicode="&#x142;" horiz-adv-x="663" 
d="M117 121h65q39 0 55.5 17.5t16.5 58.5v352l-174 -98v135l174 98v477q0 41 -16.5 57.5t-55.5 16.5h-65v121h301v-578l166 96v-135l-166 -96v-446q0 -41 16.5 -58.5t54.5 -17.5h66v-121h-438v121z" />
    <glyph glyph-name="Nacute" unicode="&#x143;" horiz-adv-x="1409" 
d="M80 121h65q39 0 55.5 16.5t16.5 57.5v935q0 41 -16.5 57.5t-55.5 16.5h-65v121h272l678 -1051v856q0 41 -16.5 57.5t-57.5 16.5h-65v121h438v-121h-65q-39 0 -55.5 -16.5t-16.5 -57.5v-1130h-135l-678 1049v-854q0 -39 17.5 -56.5t56.5 -17.5h65v-121h-438v121zM758 1802
h209l-236 -366h-143z" />
    <glyph glyph-name="nacute" unicode="&#x144;" horiz-adv-x="1234" 
d="M717 1014q321 0 321 -338v-479q0 -41 16.5 -58.5t55.5 -17.5h66v-121h-304v674q0 115 -48 166t-164 51t-197.5 -68.5t-81.5 -189.5v-436q0 -41 15.5 -58.5t54.5 -17.5h67v-121h-438v121h65q39 0 55.5 17.5t16.5 58.5v589q0 41 -16.5 58.5t-55.5 17.5h-65v121h252l12 -139
q70 90 158 130t215 40zM664 1446h208l-235 -367h-143z" />
    <glyph glyph-name="Ncommaaccent" unicode="&#x145;" horiz-adv-x="1409" 
d="M629 -100h188l-121 -400h-127zM80 121h65q39 0 55.5 16.5t16.5 57.5v935q0 41 -16.5 57.5t-55.5 16.5h-65v121h272l678 -1051v856q0 41 -16.5 57.5t-57.5 16.5h-65v121h438v-121h-65q-39 0 -55.5 -16.5t-16.5 -57.5v-1130h-135l-678 1049v-854q0 -39 17.5 -56.5
t56.5 -17.5h65v-121h-438v121z" />
    <glyph glyph-name="ncommaaccent" unicode="&#x146;" horiz-adv-x="1234" 
d="M580 -100h188l-121 -400h-127zM717 1014q321 0 321 -338v-479q0 -41 16.5 -58.5t55.5 -17.5h66v-121h-304v674q0 115 -48 166t-164 51t-197.5 -68.5t-81.5 -189.5v-436q0 -41 15.5 -58.5t54.5 -17.5h67v-121h-438v121h65q39 0 55.5 17.5t16.5 58.5v589q0 41 -16.5 58.5
t-55.5 17.5h-65v121h252l12 -139q70 90 158 130t215 40z" />
    <glyph glyph-name="Ncaron" unicode="&#x147;" horiz-adv-x="1409" 
d="M80 121h65q39 0 55.5 16.5t16.5 57.5v935q0 41 -16.5 57.5t-55.5 16.5h-65v121h272l678 -1051v856q0 41 -16.5 57.5t-57.5 16.5h-65v121h438v-121h-65q-39 0 -55.5 -16.5t-16.5 -57.5v-1130h-135l-678 1049v-854q0 -39 17.5 -56.5t56.5 -17.5h65v-121h-438v121zM352 1812
h162l172 -272l172 272h162l-246 -374h-176z" />
    <glyph glyph-name="ncaron" unicode="&#x148;" horiz-adv-x="1234" 
d="M717 1014q321 0 321 -338v-479q0 -41 16.5 -58.5t55.5 -17.5h66v-121h-304v674q0 115 -48 166t-164 51t-197.5 -68.5t-81.5 -189.5v-436q0 -41 15.5 -58.5t54.5 -17.5h67v-121h-438v121h65q39 0 55.5 17.5t16.5 58.5v589q0 41 -16.5 58.5t-55.5 17.5h-65v121h252l12 -139
q70 90 158 130t215 40zM279 1454h161l172 -272l172 272h162l-246 -375h-176z" />
    <glyph glyph-name="napostrophe" unicode="&#x149;" horiz-adv-x="1429" 
d="M911 1014q322 0 322 -338v-479q0 -41 16.5 -58.5t55.5 -17.5h65v-121h-303v674q0 115 -48 166t-164 51t-198 -68.5t-82 -189.5v-436q0 -41 15.5 -58.5t54.5 -17.5h68v-121h-439v121h66q39 0 55.5 17.5t16.5 58.5v589q0 41 -16.5 58.5t-55.5 17.5h-66v121h252l13 -139
q70 90 157.5 130t214.5 40zM152 1462h188l-121 -399h-127z" />
    <glyph glyph-name="Eng" unicode="&#x14a;" horiz-adv-x="1409" 
d="M1192 -231q0 -353 -350 -353q-178 0 -305 119v152h145v-90q58 -58 158 -58t144 48t44 165v291l-649 1006v-854q0 -39 17.5 -56.5t56.5 -17.5h65v-121h-438v121h65q39 0 55.5 16.5t16.5 57.5v935q0 41 -16.5 57.5t-55.5 16.5h-65v121h272l678 -1051v856q0 41 -16.5 57.5
t-57.5 16.5h-65v121h438v-121h-65q-39 0 -55.5 -16.5t-16.5 -57.5v-1361z" />
    <glyph glyph-name="eng" unicode="&#x14b;" horiz-adv-x="1161" 
d="M1038 -180q0 -352 -353 -352q-179 0 -304 118v152h145v-90q58 -58 158 -58t144 48.5t44 164.5v871q0 115 -48 166t-164 51t-197.5 -68.5t-81.5 -189.5v-436q0 -41 15.5 -58.5t54.5 -17.5h67v-121h-438v121h65q39 0 55.5 17.5t16.5 58.5v589q0 41 -16.5 58.5t-55.5 17.5
h-65v121h252l12 -139q70 90 158 130t215 40q321 0 321 -338v-856z" />
    <glyph glyph-name="Omacron" unicode="&#x14c;" horiz-adv-x="1341" 
d="M1104 660q0 304 -106.5 438.5t-326.5 134.5t-326.5 -134.5t-106.5 -438.5t107.5 -436t325.5 -132t325.5 132t107.5 436zM80 659q0 348 142.5 522.5t449.5 174.5t448.5 -174t141.5 -522t-145.5 -519.5t-445.5 -171.5t-445.5 171t-145.5 519zM383 1595h573v-116h-573v116z
" />
    <glyph glyph-name="omacron" unicode="&#x14d;" horiz-adv-x="1142" 
d="M571.5 92q333.5 0 333.5 400t-334 399q-333 1 -333 -399t333.5 -400zM80 490q0 244 121 384t370.5 140t370.5 -139.5t121 -384.5t-122 -383t-369.5 -138t-369.5 138.5t-122 382.5zM285 1237h573v-117h-573v117z" />
    <glyph glyph-name="Obreve" unicode="&#x14e;" horiz-adv-x="1341" 
d="M1104 660q0 304 -106.5 438.5t-326.5 134.5t-326.5 -134.5t-106.5 -438.5t107.5 -436t325.5 -132t325.5 132t107.5 436zM80 659q0 348 142.5 522.5t449.5 174.5t448.5 -174t141.5 -522t-145.5 -519.5t-445.5 -171.5t-445.5 171t-145.5 519zM362 1716h134q0 -80 47 -123
t128 -43t126 43t45 123h133q0 -127 -84 -203.5t-221.5 -76.5t-222.5 75.5t-85 204.5z" />
    <glyph glyph-name="obreve" unicode="&#x14f;" horiz-adv-x="1142" 
d="M571.5 92q333.5 0 333.5 400t-334 399q-333 1 -333 -399t333.5 -400zM80 490q0 244 121 384t370.5 140t370.5 -139.5t121 -384.5t-122 -383t-369.5 -138t-369.5 138.5t-122 382.5zM266 1360h133q0 -80 47.5 -123t127.5 -43t125.5 43t45.5 123h134q0 -127 -84 -204
t-221.5 -77t-222.5 76t-85 205z" />
    <glyph glyph-name="Ohungarumlaut" unicode="&#x150;" horiz-adv-x="1341" 
d="M1104 660q0 304 -106.5 438.5t-326.5 134.5t-326.5 -134.5t-106.5 -438.5t107.5 -436t325.5 -132t325.5 132t107.5 436zM80 659q0 348 142.5 522.5t449.5 174.5t448.5 -174t141.5 -522t-145.5 -519.5t-445.5 -171.5t-445.5 171t-145.5 519zM909 1810h213l-243 -374h-146z
M535 1810h213l-242 -374h-148z" />
    <glyph glyph-name="ohungarumlaut" unicode="&#x151;" horiz-adv-x="1142" 
d="M571.5 92q333.5 0 333.5 400t-334 399q-333 1 -333 -399t333.5 -400zM80 490q0 244 121 384t370.5 140t370.5 -139.5t121 -384.5t-122 -383t-369.5 -138t-369.5 138.5t-122 382.5zM813 1454h213l-244 -375h-145zM438 1454h213l-241 -375h-148z" />
    <glyph glyph-name="OE" unicode="&#x152;" horiz-adv-x="1660" 
d="M801 121v1083h-121q-213 0 -327.5 -128t-114.5 -417t114.5 -413.5t327.5 -124.5h121zM80 658q0 341 151.5 504t466.5 163h883v-238h-147v46q0 39 -17.5 55t-58.5 16h-393v-479h354v-121h-354v-483h393q41 0 58.5 16.5t17.5 55.5v47h147v-240h-883q-309 0 -463.5 158.5
t-154.5 499.5z" />
    <glyph glyph-name="oe" unicode="&#x153;" horiz-adv-x="1921" 
d="M572 92q332 0 333 400q0 400 -333 399q-332 1 -332 -399t332 -400zM1688 553q0 178 -73 259t-226.5 81t-237.5 -87t-84 -253h621zM571 -31q-247 0 -369 138.5t-122 382.5t121 384t370 140q297 0 412 -226q120 226 408 226q225 0 337.5 -126t112.5 -356v-92h-774
q0 -119 47 -198.5t123 -118.5t164 -39q164 0 256 55v72h149v-129q-170 -113 -407 -113q-283 0 -412 224q-59 -104 -163.5 -164t-252.5 -60z" />
    <glyph glyph-name="Racute" unicode="&#x154;" horiz-adv-x="1259" 
d="M702 678q139 0 211 70.5t72 202.5t-67.5 192.5t-215.5 60.5h-321v-526h321zM80 121h59q45 0 61.5 17.5t16.5 56.5v935q0 39 -16.5 56.5t-61.5 17.5h-59v121h647q197 0 306.5 -99.5t109.5 -267.5t-91 -270t-255 -121l200 -379q33 -67 119 -67h64v-121h-418v121h108
l-231 436h-258v-364q0 -39 15.5 -55.5t58.5 -16.5h63v-121h-438v121zM653 1802h209l-235 -366h-144z" />
    <glyph glyph-name="racute" unicode="&#x155;" horiz-adv-x="770" 
d="M76 121h65q39 0 55.5 17.5t16.5 58.5v591q0 41 -15.5 57.5t-54.5 16.5h-67v121h252l32 -119q41 68 105.5 93.5t163.5 25.5h82v-121h-90q-131 0 -187.5 -58.5t-56.5 -180.5v-426q0 -41 16.5 -58.5t55.5 -17.5h65v-121h-438v121zM461 1446h209l-236 -367h-143z" />
    <glyph glyph-name="Rcommaaccent" unicode="&#x156;" horiz-adv-x="1259" 
d="M561 -100h189l-121 -400h-127zM702 678q139 0 211 70.5t72 202.5t-67.5 192.5t-215.5 60.5h-321v-526h321zM80 121h59q45 0 61.5 17.5t16.5 56.5v935q0 39 -16.5 56.5t-61.5 17.5h-59v121h647q197 0 306.5 -99.5t109.5 -267.5t-91 -270t-255 -121l200 -379
q33 -67 119 -67h64v-121h-418v121h108l-231 436h-258v-364q0 -39 15.5 -55.5t58.5 -16.5h63v-121h-438v121z" />
    <glyph glyph-name="rcommaaccent" unicode="&#x157;" horiz-adv-x="770" 
d="M231 -100h189l-121 -400h-127zM76 121h65q39 0 55.5 17.5t16.5 58.5v591q0 41 -15.5 57.5t-54.5 16.5h-67v121h252l32 -119q41 68 105.5 93.5t163.5 25.5h82v-121h-90q-131 0 -187.5 -58.5t-56.5 -180.5v-426q0 -41 16.5 -58.5t55.5 -17.5h65v-121h-438v121z" />
    <glyph glyph-name="Rcaron" unicode="&#x158;" horiz-adv-x="1259" 
d="M702 678q139 0 211 70.5t72 202.5t-67.5 192.5t-215.5 60.5h-321v-526h321zM80 121h59q45 0 61.5 17.5t16.5 56.5v935q0 39 -16.5 56.5t-61.5 17.5h-59v121h647q197 0 306.5 -99.5t109.5 -267.5t-91 -270t-255 -121l200 -379q33 -67 119 -67h64v-121h-418v121h108
l-231 436h-258v-364q0 -39 15.5 -55.5t58.5 -16.5h63v-121h-438v121zM287 1812h162l172 -272l172 272h161l-245 -374h-177z" />
    <glyph glyph-name="rcaron" unicode="&#x159;" horiz-adv-x="770" 
d="M76 121h65q39 0 55.5 17.5t16.5 58.5v591q0 41 -15.5 57.5t-54.5 16.5h-67v121h252l32 -119q41 68 105.5 93.5t163.5 25.5h82v-121h-90q-131 0 -187.5 -58.5t-56.5 -180.5v-426q0 -41 16.5 -58.5t55.5 -17.5h65v-121h-438v121zM78 1454h162l172 -272l172 272h161
l-245 -375h-176z" />
    <glyph glyph-name="Sacute" unicode="&#x15a;" horiz-adv-x="1079" 
d="M559 1233q-309 0 -309 -219q0 -76 45 -126t103.5 -78t195.5 -82t271 -130t134 -276q0 -156 -117.5 -254.5t-328.5 -98.5q-131 0 -258 39t-215 105v182h166v-125q55 -35 141 -56.5t172 -21.5q139 0 211 58.5t72 165.5t-73 167t-233 120t-302 140t-142 259q0 180 126 267
t327 87q125 0 238.5 -36t189.5 -91v-178h-166v123q-95 59 -248 59zM635 1802h209l-236 -366h-143z" />
    <glyph glyph-name="sacute" unicode="&#x15b;" horiz-adv-x="927" 
d="M476 891q-228 0 -228 -127q0 -63 39 -110.5t237 -106.5q115 -45 219.5 -100.5t104.5 -213.5q0 -264 -375 -264q-233 0 -393 113v151h153v-88q91 -53 221 -53t183 33t53 94t-25.5 93t-74.5 56.5t-167 70.5t-225.5 102.5t-107.5 208.5q0 129 99.5 196.5t292.5 67.5
t343 -107v-149h-153v86q-78 47 -196 47zM551 1446h209l-236 -367h-143z" />
    <glyph glyph-name="Scircumflex" unicode="&#x15c;" horiz-adv-x="1079" 
d="M559 1233q-309 0 -309 -219q0 -76 45 -126t103.5 -78t195.5 -82t271 -130t134 -276q0 -156 -117.5 -254.5t-328.5 -98.5q-131 0 -258 39t-215 105v182h166v-125q55 -35 141 -56.5t172 -21.5q139 0 211 58.5t72 165.5t-73 167t-233 120t-302 140t-142 259q0 180 126 267
t327 87q125 0 238.5 -36t189.5 -91v-178h-166v123q-95 59 -248 59zM479 1812h176l246 -374h-162l-172 270l-172 -270h-162z" />
    <glyph glyph-name="scircumflex" unicode="&#x15d;" horiz-adv-x="927" 
d="M476 891q-228 0 -228 -127q0 -63 39 -110.5t237 -106.5q115 -45 219.5 -100.5t104.5 -213.5q0 -264 -375 -264q-233 0 -393 113v151h153v-88q91 -53 221 -53t183 33t53 94t-25.5 93t-74.5 56.5t-167 70.5t-225.5 102.5t-107.5 208.5q0 129 99.5 196.5t292.5 67.5
t343 -107v-149h-153v86q-78 47 -196 47zM389 1454h176l246 -375h-162l-172 271l-172 -271h-162z" />
    <glyph glyph-name="Scedilla" unicode="&#x15e;" horiz-adv-x="1079" 
d="M776 -279q0 -188 -258 -188q-70 0 -133 23v102q61 -20 123 -20q133 0 133 83q0 41 -21.5 74t-166.5 33l22 145q-237 21 -395 140v182h166v-125q55 -35 141 -56.5t172 -21.5q139 0 211 58.5t72 165.5t-73 167t-233 120t-302 140t-142 259q0 180 126 267t327 87
q125 0 238.5 -36t189.5 -91v-178h-166v123q-96 59 -248 59q-309 0 -309 -219q0 -76 45 -126t103.5 -78t195.5 -82t271 -130t134 -276q0 -143 -99 -238.5t-282 -112.5l-12 -73q92 -12 131 -57.5t39 -119.5z" />
    <glyph glyph-name="scedilla" unicode="&#x15f;" horiz-adv-x="927" 
d="M476 891q-228 0 -228 -127q0 -63 39 -110.5t237 -106.5q115 -45 219.5 -100.5t104.5 -213.5q0 -236 -307 -260l-11 -75q90 -12 129 -56.5t39 -120.5q0 -188 -258 -188q-68 0 -131 23v102q61 -20 121 -20q133 0 133 83q0 59 -37 83t-149 24l20 145q-188 16 -317 109v151
h153v-88q91 -53 221 -53t183 33t53 94t-25.5 93t-74.5 56.5t-167 70.5t-225.5 102.5t-107.5 208.5q0 129 99.5 196.5t292.5 67.5t343 -107v-149h-153v86q-78 47 -196 47z" />
    <glyph glyph-name="Scaron" unicode="&#x160;" horiz-adv-x="1079" 
d="M559 1233q-309 0 -309 -219q0 -76 45 -126t103.5 -78t195.5 -82t271 -130t134 -276q0 -156 -117.5 -254.5t-328.5 -98.5q-131 0 -258 39t-215 105v182h166v-125q55 -35 141 -56.5t172 -21.5q139 0 211 58.5t72 165.5t-73 167t-233 120t-302 140t-142 259q0 180 126 267
t327 87q125 0 238.5 -36t189.5 -91v-178h-166v123q-95 59 -248 59zM221 1812h162l172 -272l172 272h162l-246 -374h-176z" />
    <glyph glyph-name="scaron" unicode="&#x161;" horiz-adv-x="927" 
d="M476 891q-228 0 -228 -127q0 -63 39 -110.5t237 -106.5q115 -45 219.5 -100.5t104.5 -213.5q0 -264 -375 -264q-233 0 -393 113v151h153v-88q91 -53 221 -53t183 33t53 94t-25.5 93t-74.5 56.5t-167 70.5t-225.5 102.5t-107.5 208.5q0 129 99.5 196.5t292.5 67.5
t343 -107v-149h-153v86q-78 47 -196 47zM137 1454h162l172 -272l172 272h162l-246 -375h-176z" />
    <glyph glyph-name="uni0162" unicode="&#x162;" horiz-adv-x="1122" 
d="M788 -279q0 -188 -258 -188q-70 0 -133 23v102q61 -20 121 -20q135 0 135 83q0 59 -37.5 83t-150.5 24l24 172h-147v121h59q45 0 61.5 17.5t16.5 56.5v1009h-215q-41 0 -58.5 -16.5t-17.5 -54.5v-60h-129v250h1004v-250h-131v60q0 39 -16.5 55t-59.5 16h-213v-1009
q0 -39 16.5 -56.5t61.5 -17.5h59v-121h-147l-15 -102q92 -12 131 -57.5t39 -119.5z" />
    <glyph glyph-name="uni0163" unicode="&#x163;" horiz-adv-x="854" 
d="M745 -279q0 -188 -258 -188q-70 0 -133 23v102q61 -20 121 -20q135 0 135 83q0 59 -37.5 83t-150.5 24l20 149q-219 40 -219 312v573h-164v121h164v229l164 62v-291h307v-121h-307v-581q0 -100 36 -144.5t125 -44.5t140 39v88h148v-139q-104 -92 -250 -109l-11 -73
q92 -12 131 -57.5t39 -119.5z" />
    <glyph glyph-name="Tcaron" unicode="&#x164;" horiz-adv-x="1122" 
d="M342 121h59q45 0 61.5 17.5t16.5 56.5v1009h-215q-41 0 -58.5 -16.5t-17.5 -54.5v-60h-129v250h1004v-250h-131v60q0 39 -16.5 55t-59.5 16h-213v-1009q0 -39 16.5 -56.5t61.5 -17.5h59v-121h-438v121zM225 1812h162l172 -272l172 272h162l-246 -374h-176z" />
    <glyph glyph-name="tcaron" unicode="&#x165;" horiz-adv-x="854" 
d="M548 92q89 0 140 39v88h148v-139q-63 -55 -135 -83t-175 -28q-147 0 -225 82t-78 238v573h-164v121h164v229l164 62v-291h307v-121h-307v-581q0 -100 36 -144.5t125 -44.5zM653 1556h189l-121 -399h-127z" />
    <glyph glyph-name="Tbar" unicode="&#x166;" horiz-adv-x="1122" 
d="M342 121h59q45 0 61.5 17.5t16.5 56.5v434h-250v116h250v459h-215q-41 0 -58.5 -16.5t-17.5 -54.5v-60h-129v250h1004v-250h-131v60q0 39 -16.5 55t-59.5 16h-213v-459h264v-116h-264v-434q0 -39 16.5 -56.5t61.5 -17.5h59v-121h-438v121z" />
    <glyph glyph-name="tbar" unicode="&#x167;" horiz-adv-x="856" 
d="M551 92q90 0 139 39v88h148v-139q-63 -55 -135 -83t-175 -28q-147 0 -225 82t-78 238v188h-164v121h164v264h-164v121h164v229l164 62v-291h307v-121h-307v-264h307v-121h-307v-196q0 -100 36 -144.5t126 -44.5z" />
    <glyph glyph-name="Utilde" unicode="&#x168;" horiz-adv-x="1337" 
d="M344 354q0 -262 325 -262t324 262v774q0 41 -16 58.5t-57 17.5h-46v121h404v-121h-47q-39 0 -56.5 -16.5t-17.5 -57.5v-763q0 -184 -124 -291t-365.5 -107t-364.5 106.5t-123 291.5v763q0 41 -16.5 57.5t-54.5 16.5h-50v121h402v-121h-45q-39 0 -55.5 -17.5t-16.5 -58.5
v-774zM270 1438q0 248 207 248q78 0 182 -58t152 -59q47 0 68.5 25.5t21.5 91.5h129q0 -129 -51 -188.5t-154 -59.5q-49 0 -89 15t-94 45t-84 42t-72 12t-64.5 -24.5t-22.5 -89.5h-129z" />
    <glyph glyph-name="utilde" unicode="&#x169;" horiz-adv-x="1193" 
d="M197 307v481q0 39 -16.5 56.5t-55.5 17.5h-66v121h303v-674q0 -113 52.5 -165t170.5 -52t193.5 68.5t75.5 199.5v428q0 41 -15.5 57.5t-54.5 16.5h-67v121h301v-788q0 -39 17.5 -56.5t56.5 -17.5h63v-121h-252l-12 135q-68 -86 -152 -126t-228 -40t-229 88t-85 250z
M205 1079q0 248 207 248q78 -1 183 -59t151 -58t68 26t22 91h129q0 -248 -205 -248q-49 0 -89.5 15.5t-94.5 45.5t-83.5 42t-71.5 12t-64.5 -24.5t-22.5 -90.5h-129z" />
    <glyph glyph-name="Umacron" unicode="&#x16a;" horiz-adv-x="1337" 
d="M344 354q0 -262 325 -262t324 262v774q0 41 -16 58.5t-57 17.5h-46v121h404v-121h-47q-39 0 -56.5 -16.5t-17.5 -57.5v-763q0 -184 -124 -291t-365.5 -107t-364.5 106.5t-123 291.5v763q0 41 -16.5 57.5t-54.5 16.5h-50v121h402v-121h-45q-39 0 -55.5 -17.5t-16.5 -58.5
v-774zM360 1595h574v-116h-574v116z" />
    <glyph glyph-name="umacron" unicode="&#x16b;" horiz-adv-x="1193" 
d="M197 307v481q0 39 -16.5 56.5t-55.5 17.5h-66v121h303v-674q0 -113 52.5 -165t170.5 -52t193.5 68.5t75.5 199.5v428q0 41 -15.5 57.5t-54.5 16.5h-67v121h301v-788q0 -39 17.5 -56.5t56.5 -17.5h63v-121h-252l-12 135q-68 -86 -152 -126t-228 -40t-229 88t-85 250z
M272 1237h574v-117h-574v117z" />
    <glyph glyph-name="Ubreve" unicode="&#x16c;" horiz-adv-x="1337" 
d="M344 354q0 -262 325 -262t324 262v774q0 41 -16 58.5t-57 17.5h-46v121h404v-121h-47q-39 0 -56.5 -16.5t-17.5 -57.5v-763q0 -184 -124 -291t-365.5 -107t-364.5 106.5t-123 291.5v763q0 41 -16.5 57.5t-54.5 16.5h-50v121h402v-121h-45q-39 0 -55.5 -17.5t-16.5 -58.5
v-774zM358 1716h134q0 -80 47 -123t128 -43t126 43t45 123h133q0 -127 -84 -203.5t-221.5 -76.5t-222.5 75.5t-85 204.5z" />
    <glyph glyph-name="ubreve" unicode="&#x16d;" horiz-adv-x="1214" 
d="M197 307v481q0 39 -16.5 56.5t-55.5 17.5h-66v121h303v-674q0 -113 52.5 -165t170.5 -52t193.5 68.5t75.5 199.5v428q0 41 -15.5 57.5t-54.5 16.5h-67v121h301v-788q0 -39 17.5 -56.5t56.5 -17.5h63v-121h-252l-12 135q-68 -86 -152 -126t-228 -40t-229 88t-85 250z
M266 1368h133q0 -80 47.5 -123t127.5 -43t125.5 43t45.5 123h134q0 -127 -84 -204t-221.5 -77t-222.5 76t-85 205z" />
    <glyph glyph-name="Uring" unicode="&#x16e;" horiz-adv-x="1337" 
d="M344 354q0 -262 325 -262t324 262v774q0 41 -16 58.5t-57 17.5h-46v121h404v-121h-47q-39 0 -56.5 -16.5t-17.5 -57.5v-763q0 -184 -124 -291t-365.5 -107t-364.5 106.5t-123 291.5v763q0 41 -16.5 57.5t-54.5 16.5h-50v121h402v-121h-45q-39 0 -55.5 -17.5t-16.5 -58.5
v-774zM791 1661q0 51 -35 87t-86.5 36t-86 -35t-34.5 -87t34.5 -86t86 -34t86.5 34t35 85zM444 1662q0 95 65.5 160.5t160 65.5t161 -66.5t66.5 -160.5t-66.5 -159.5t-161 -65.5t-160 65.5t-65.5 160.5z" />
    <glyph glyph-name="uring" unicode="&#x16f;" horiz-adv-x="1193" 
d="M197 307v481q0 39 -16.5 56.5t-55.5 17.5h-66v121h303v-674q0 -113 52.5 -165t170.5 -52t193.5 68.5t75.5 199.5v428q0 41 -15.5 57.5t-54.5 16.5h-67v121h301v-788q0 -39 17.5 -56.5t56.5 -17.5h63v-121h-252l-12 135q-68 -86 -152 -126t-228 -40t-229 88t-85 250z
M676 1302.5q0 51.5 -35 87t-86 35.5t-86 -34.5t-35 -86.5t35 -86t86 -34t86 33.5t35 85zM330 1304q0 96 65.5 161t159.5 65t160.5 -66.5t66.5 -161t-66.5 -160t-160.5 -65.5t-159.5 65.5t-65.5 161.5z" />
    <glyph glyph-name="Uhungarumlaut" unicode="&#x170;" horiz-adv-x="1337" 
d="M344 354q0 -262 325 -262t324 262v774q0 41 -16 58.5t-57 17.5h-46v121h404v-121h-47q-39 0 -56.5 -16.5t-17.5 -57.5v-763q0 -184 -124 -291t-365.5 -107t-364.5 106.5t-123 291.5v763q0 41 -16.5 57.5t-54.5 16.5h-50v121h402v-121h-45q-39 0 -55.5 -17.5t-16.5 -58.5
v-774zM915 1810h213l-243 -374h-146zM541 1810h213l-242 -374h-147z" />
    <glyph glyph-name="uhungarumlaut" unicode="&#x171;" horiz-adv-x="1193" 
d="M197 307v481q0 39 -16.5 56.5t-55.5 17.5h-66v121h303v-674q0 -113 52.5 -165t170.5 -52t193.5 68.5t75.5 199.5v428q0 41 -15.5 57.5t-54.5 16.5h-67v121h301v-788q0 -39 17.5 -56.5t56.5 -17.5h63v-121h-252l-12 135q-68 -86 -152 -126t-228 -40t-229 88t-85 250z
M807 1454h213l-244 -375h-145zM432 1454h213l-242 -375h-147z" />
    <glyph glyph-name="Uogonek" unicode="&#x172;" horiz-adv-x="1337" 
d="M676 -206q0 -99 82 -99q51 0 94 14v-100q-51 -29 -126 -29t-130 48t-55 153t73 190q-217 12 -325.5 117t-108.5 279v763q0 41 -16.5 57.5t-54.5 16.5h-50v121h402v-121h-45q-39 0 -55.5 -17.5t-16.5 -58.5v-774q0 -262 325 -262t324 262v774q0 41 -16 58.5t-57 17.5h-46
v121h404v-121h-47q-39 0 -56.5 -16.5t-17.5 -57.5v-763q0 -166 -101.5 -270.5t-303.5 -123.5q-76 -80 -76 -179z" />
    <glyph glyph-name="uogonek" unicode="&#x173;" horiz-adv-x="1193" 
d="M936 -198q0 -108 82 -107q49 0 92 14v-100q-45 -29 -125 -29t-132 49t-52 162t102 209l-12 135q-68 -86 -152.5 -126t-228.5 -40t-228.5 88t-84.5 250v481q0 39 -16.5 56.5t-55.5 17.5h-66v121h303v-674q0 -113 52.5 -165t170.5 -52t193.5 68.5t75.5 199.5v428
q0 41 -15.5 57.5t-54.5 16.5h-67v121h301v-788q0 -39 17.5 -56.5t56.5 -17.5h63v-121h-117q-102 -90 -102 -198z" />
    <glyph glyph-name="Wcircumflex" unicode="&#x174;" horiz-adv-x="1800" 
d="M133 1204h-53v121h276l224 -1049l247 826h144l250 -826l225 1049h274v-121h-55q-53 0 -75.5 -17.5t-33.5 -62.5l-253 -1124h-138l-266 856l-262 -856h-139l-256 1124q-10 45 -33 62.5t-76 17.5zM811 1812h176l246 -374h-162l-172 270l-172 -270h-162z" />
    <glyph glyph-name="wcircumflex" unicode="&#x175;" horiz-adv-x="1579" 
d="M129 862h-70v121h246l191 -817l227 729h131l225 -729l197 817h244v-121h-70q-35 0 -49.5 -9t-20.5 -36l-196 -817h-178l-215 688l-218 -688h-178l-196 817q-6 27 -20.5 36t-49.5 9zM702 1454h177l245 -375h-161l-172 271l-173 -271h-161z" />
    <glyph glyph-name="Ycircumflex" unicode="&#x176;" horiz-adv-x="1361" 
d="M479 121h49q39 0 55.5 17.5t16.5 58.5v284l-352 647q-23 43 -49.5 59.5t-69.5 16.5h-49v121h397v-121h-39q-45 0 -45 -26q0 -16 17 -45l272 -515l270 515q16 29 17 45q0 27 -45 26h-41v121h399v-121h-49q-45 0 -71.5 -16.5t-49.5 -59.5l-350 -647v-284q0 -41 16.5 -58.5
t57.5 -17.5h49v-121h-406v121zM594 1812h176l246 -374h-162l-172 270l-172 -270h-162z" />
    <glyph glyph-name="ycircumflex" unicode="&#x177;" horiz-adv-x="1140" 
d="M629 -410q-233 0 -377 140v139h147v-80q65 -76 222 -76q242 0 241 264v164q-61 -70 -134 -100.5t-181 -30.5q-168 0 -259 89t-91 253v436q0 39 -16.5 56.5t-55.5 17.5h-66v121h303v-633q0 -217 222 -217q123 0 196.5 67.5t73.5 198.5v389q0 41 -15.5 57.5t-54.5 16.5h-67
v121h301v-979q0 -190 -102.5 -302t-286.5 -112zM483 1454h176l246 -375h-162l-172 271l-172 -271h-161z" />
    <glyph glyph-name="Ydieresis" unicode="&#x178;" horiz-adv-x="1361" 
d="M479 121h49q39 0 55.5 17.5t16.5 58.5v284l-352 647q-23 43 -49.5 59.5t-69.5 16.5h-49v121h397v-121h-39q-45 0 -45 -26q0 -16 17 -45l272 -515l270 515q16 29 17 45q0 27 -45 26h-41v121h399v-121h-49q-45 0 -71.5 -16.5t-49.5 -59.5l-350 -647v-284q0 -41 16.5 -58.5
t57.5 -17.5h49v-121h-406v121zM807 1645h164v-168h-164v168zM395 1645h164v-168h-164v168z" />
    <glyph glyph-name="Zacute" unicode="&#x179;" horiz-adv-x="1142" 
d="M332 1204q-41 0 -58.5 -16.5t-17.5 -54.5v-43h-147v235h927v-111l-770 -1093h574q41 0 58 16.5t17 57.5v41h148v-236h-983v111l774 1093h-522zM629 1802h209l-236 -366h-143z" />
    <glyph glyph-name="zacute" unicode="&#x17a;" horiz-adv-x="1003" 
d="M332 862q-41 0 -58.5 -15.5t-17.5 -53.5v-45h-147v235h794v-104l-633 -758h430q41 0 58.5 16.5t17.5 52.5v46h148v-236h-844v111l633 751h-381zM563 1446h209l-235 -367h-144z" />
    <glyph glyph-name="Zdotaccent" unicode="&#x17b;" horiz-adv-x="1142" 
d="M332 1204q-41 0 -58.5 -16.5t-17.5 -54.5v-43h-147v235h927v-111l-770 -1093h574q41 0 58 16.5t17 57.5v41h148v-236h-983v111l774 1093h-522zM492 1636h163v-168h-163v168z" />
    <glyph glyph-name="zdotaccent" unicode="&#x17c;" horiz-adv-x="1003" 
d="M332 862q-41 0 -58.5 -15.5t-17.5 -53.5v-45h-147v235h794v-104l-633 -758h430q41 0 58.5 16.5t17.5 52.5v46h148v-236h-844v111l633 751h-381zM426 1286h164v-168h-164v168z" />
    <glyph glyph-name="Zcaron" unicode="&#x17d;" horiz-adv-x="1142" 
d="M332 1204q-41 0 -58.5 -16.5t-17.5 -54.5v-43h-147v235h927v-111l-770 -1093h574q41 0 58 16.5t17 57.5v41h148v-236h-983v111l774 1093h-522zM238 1812h161l172 -272l172 272h162l-246 -374h-176z" />
    <glyph glyph-name="zcaron" unicode="&#x17e;" horiz-adv-x="1003" 
d="M332 862q-41 0 -58.5 -15.5t-17.5 -53.5v-45h-147v235h794v-104l-633 -758h430q41 0 58.5 16.5t17.5 52.5v46h148v-236h-844v111l633 751h-381zM178 1454h162l172 -272l172 272h162l-246 -375h-176z" />
    <glyph glyph-name="uni018F" unicode="&#x18f;" horiz-adv-x="1376" 
d="M240 606q0 -514 444 -514q225 0 340 143.5t115 370.5h-899zM80 612v117h1059q0 246 -129 375t-342 129q-256 0 -379 -74v-123h-164v170q199 150 543 150q184 0 325.5 -73t222 -223.5t80.5 -373.5q0 -352 -157.5 -534.5t-457.5 -182.5t-450.5 174t-150.5 469z" />
    <glyph glyph-name="florin" unicode="&#x192;" horiz-adv-x="1167" 
d="M-25 -205q84 0 130.5 48t68.5 153l184 866h-163l26 121h162l14 70q67 333 396 333q176 0 274 -108l-29 -137h-143l18 86q-39 39 -132 39q-178 0 -220 -203l-14 -80h309l-27 -121h-309l-180 -854q-35 -164 -124 -249t-264 -85t-269 105l30 141h144l-19 -88q53 -37 137 -37
z" />
    <glyph glyph-name="Ohorn" unicode="&#x1a0;" horiz-adv-x="1433" 
d="M1104 660q0 304 -106.5 438.5t-326.5 134.5t-326.5 -134.5t-106.5 -438.5t107.5 -436t325.5 -132t325.5 132t107.5 436zM80 659q0 348 142.5 522.5t449.5 174.5t452 -182q80 2 111 42.5t31 122.5v72h159v-72q0 -244 -233 -278q70 -154 70 -404q0 -346 -145.5 -517
t-445.5 -171t-445.5 171t-145.5 519z" />
    <glyph glyph-name="ohorn" unicode="&#x1a1;" horiz-adv-x="1255" 
d="M571.5 92q333.5 0 333.5 400t-334 399q-333 1 -333 -399t333.5 -400zM80 490q0 244 121 384t369 140t378 -150q80 4 111 44t31 122v72h157v-72q0 -246 -231 -276q47 -109 47 -265q0 -244 -122 -382t-369.5 -138t-369.5 138.5t-122 382.5z" />
    <glyph glyph-name="Uhorn" unicode="&#x1af;" horiz-adv-x="1456" 
d="M344 354q0 -262 325 -262t324 262v774q0 41 -16 58.5t-57 17.5h-46v121h283v-149q76 2 103.5 41.5t27.5 121.5v72h160v-72q0 -133 -68.5 -205.5t-222.5 -78.5v-688q0 -184 -124 -291t-365.5 -107t-364.5 106.5t-123 291.5v763q0 41 -16.5 57.5t-54.5 16.5h-50v121h402
v-121h-45q-39 0 -55.5 -17.5t-16.5 -58.5v-774z" />
    <glyph glyph-name="uhorn" unicode="&#x1b0;" horiz-adv-x="1312" 
d="M1305 1030q0 -272 -289 -285v-548q0 -39 17.5 -56.5t56.5 -17.5h45v-123h-232l-12 135q-68 -88 -152 -127t-228 -39t-229 88t-85 250v481q0 39 -16.5 56.5t-55.5 17.5h-66v121h301v-674q0 -113 54.5 -165t171.5 -52t191.5 68.5t74.5 199.5v428q0 41 -15.5 57.5
t-54.5 16.5h-63v121h295v-117q78 4 102.5 42t24.5 122v72h164v-72z" />
    <glyph glyph-name="uni01CD" unicode="&#x1cd;" horiz-adv-x="1476" 
d="M942 530l-203 576l-202 -576h405zM80 121h67q86 0 111 74l406 1130h153l402 -1130q14 -41 40.5 -57.5t71.5 -16.5h66v-121h-424v121h110l-104 299h-479l-107 -299h111v-121h-424v121zM408 1810h161l172 -272l172 272h162l-246 -374h-176z" />
    <glyph glyph-name="uni01CE" unicode="&#x1ce;" horiz-adv-x="1064" 
d="M727 334v108l-315 -22q-113 -8 -154 -47t-41 -122t46 -121t171 -38t209 60.5t84 181.5zM510 891q-125 0 -217 -45v-78h-150v143q164 102 375 103q373 0 373 -344v-469q0 -43 15.5 -61.5t49.5 -18.5h50v-121h-215l-25 127q-61 -82 -152.5 -120t-239.5 -38t-231.5 71
t-83.5 208t90.5 203.5t256.5 78.5l321 23v127q0 113 -46 162t-171 49zM180 1454h162l172 -272l172 272h162l-246 -375h-176z" />
    <glyph glyph-name="uni01CF" unicode="&#x1cf;" horiz-adv-x="598" 
d="M80 121h65q39 0 55.5 17.5t16.5 58.5v933q0 41 -16.5 57.5t-55.5 16.5h-65v121h438v-121h-65q-39 0 -55.5 -16.5t-16.5 -57.5v-935q0 -41 16.5 -57.5t55.5 -16.5h65v-121h-438v121zM-35 1810h162l172 -272l172 272h162l-246 -374h-176z" />
    <glyph glyph-name="uni01D0" unicode="&#x1d0;" horiz-adv-x="559" 
d="M59 121h66q39 0 55.5 17.5t16.5 58.5v591q0 41 -16.5 57.5t-55.5 16.5h-66v121h301v-788q0 -41 16.5 -57.5t55.5 -16.5h66v-121h-439v121zM-84 1454h162l172 -272l172 272h162l-246 -375h-176z" />
    <glyph glyph-name="uni01D1" unicode="&#x1d1;" horiz-adv-x="1341" 
d="M1104 660q0 304 -106.5 438.5t-326.5 134.5t-326.5 -134.5t-106.5 -438.5t107.5 -436t325.5 -132t325.5 132t107.5 436zM80 659q0 348 142.5 522.5t449.5 174.5t448.5 -174t141.5 -522t-145.5 -519.5t-445.5 -171.5t-445.5 171t-145.5 519zM336 1812h162l172 -272
l172 272h162l-246 -374h-176z" />
    <glyph glyph-name="uni01D2" unicode="&#x1d2;" horiz-adv-x="1142" 
d="M571.5 92q333.5 0 333.5 400t-334 399q-333 1 -333 -399t333.5 -400zM80 490q0 244 121 384t370.5 140t370.5 -139.5t121 -384.5t-122 -383t-369.5 -138t-369.5 138.5t-122 382.5zM238 1454h161l172 -272l172 272h162l-246 -375h-176z" />
    <glyph glyph-name="uni01D3" unicode="&#x1d3;" horiz-adv-x="1337" 
d="M344 354q0 -262 325 -262t324 262v774q0 41 -16 58.5t-57 17.5h-46v121h404v-121h-47q-39 0 -56.5 -16.5t-17.5 -57.5v-763q0 -184 -124 -291t-365.5 -107t-364.5 106.5t-123 291.5v763q0 41 -16.5 57.5t-54.5 16.5h-50v121h402v-121h-45q-39 0 -55.5 -17.5t-16.5 -58.5
v-774zM334 1812h162l172 -272l172 272h161l-245 -374h-176z" />
    <glyph glyph-name="uni01D4" unicode="&#x1d4;" horiz-adv-x="1214" 
d="M197 307v481q0 39 -16.5 56.5t-55.5 17.5h-66v121h303v-674q0 -113 52.5 -165t170.5 -52t193.5 68.5t75.5 199.5v428q0 41 -15.5 57.5t-54.5 16.5h-67v121h301v-788q0 -39 17.5 -56.5t56.5 -17.5h63v-121h-252l-12 135q-68 -86 -152 -126t-228 -40t-229 88t-85 250z
M244 1454h162l172 -272l172 272h161l-245 -375h-177z" />
    <glyph glyph-name="uni01D5" unicode="&#x1d5;" horiz-adv-x="1337" 
d="M344 354q0 -262 325 -262t324 262v774q0 41 -16 58.5t-57 17.5h-46v121h404v-121h-47q-39 0 -56.5 -16.5t-17.5 -57.5v-763q0 -184 -124 -291t-365.5 -107t-364.5 106.5t-123 291.5v763q0 41 -16.5 57.5t-54.5 16.5h-50v121h402v-121h-45q-39 0 -55.5 -17.5t-16.5 -58.5
v-774zM791 1636h163v-168h-163v168zM379 1636h164v-168h-164v168zM381 1927h573v-117h-573v117z" />
    <glyph glyph-name="uni01D6" unicode="&#x1d6;" horiz-adv-x="1214" 
d="M197 307v481q0 39 -16.5 56.5t-55.5 17.5h-66v121h303v-674q0 -113 52.5 -165t170.5 -52t193.5 68.5t75.5 199.5v428q0 41 -15.5 57.5t-54.5 16.5h-67v121h301v-788q0 -39 17.5 -56.5t56.5 -17.5h63v-121h-252l-12 135q-68 -86 -152 -126t-228 -40t-229 88t-85 250z
M686 1245h164v-168h-164v168zM274 1245h164v-168h-164v168zM276 1526h574v-117h-574v117z" />
    <glyph glyph-name="uni01D7" unicode="&#x1d7;" horiz-adv-x="1337" 
d="M344 354q0 -262 325 -262t324 262v774q0 41 -16 58.5t-57 17.5h-46v121h404v-121h-47q-39 0 -56.5 -16.5t-17.5 -57.5v-763q0 -184 -124 -291t-365.5 -107t-364.5 106.5t-123 291.5v763q0 41 -16.5 57.5t-54.5 16.5h-50v121h402v-121h-45q-39 0 -55.5 -17.5t-16.5 -58.5
v-774zM795 1649h163v-168h-163v168zM383 1649h164v-168h-164v168zM741 1995h197l-209 -283h-129z" />
    <glyph glyph-name="uni01D8" unicode="&#x1d8;" horiz-adv-x="1214" 
d="M197 307v481q0 39 -16.5 56.5t-55.5 17.5h-66v121h303v-674q0 -113 52.5 -165t170.5 -52t193.5 68.5t75.5 199.5v428q0 41 -15.5 57.5t-54.5 16.5h-67v121h301v-788q0 -39 17.5 -56.5t56.5 -17.5h63v-121h-252l-12 135q-68 -86 -152 -126t-228 -40t-229 88t-85 250z
M676 1290h164v-168h-164v168zM264 1290h164v-168h-164v168zM623 1636h196l-209 -282h-129z" />
    <glyph glyph-name="uni01D9" unicode="&#x1d9;" horiz-adv-x="1337" 
d="M344 354q0 -262 325 -262t324 262v774q0 41 -16 58.5t-57 17.5h-46v121h404v-121h-47q-39 0 -56.5 -16.5t-17.5 -57.5v-763q0 -184 -124 -291t-365.5 -107t-364.5 106.5t-123 291.5v763q0 41 -16.5 57.5t-54.5 16.5h-50v121h402v-121h-45q-39 0 -55.5 -17.5t-16.5 -58.5
v-774zM793 1649h163v-168h-163v168zM379 1649h166v-168h-166v168zM375 1980h155l138 -188l139 188h156l-207 -270h-174z" />
    <glyph glyph-name="uni01DA" unicode="&#x1da;" horiz-adv-x="1214" 
d="M197 307v481q0 39 -16.5 56.5t-55.5 17.5h-66v121h303v-674q0 -113 52.5 -165t170.5 -52t193.5 68.5t75.5 199.5v428q0 41 -15.5 57.5t-54.5 16.5h-67v121h301v-788q0 -39 17.5 -56.5t56.5 -17.5h63v-121h-252l-12 135q-68 -86 -152 -126t-228 -40t-229 88t-85 250z
M688 1290h164v-168h-164v168zM274 1290h166v-168h-166v168zM270 1622h156l137 -188l139 188h156l-207 -270h-174z" />
    <glyph glyph-name="uni01DB" unicode="&#x1db;" horiz-adv-x="1337" 
d="M344 354q0 -262 325 -262t324 262v774q0 41 -16 58.5t-57 17.5h-46v121h404v-121h-47q-39 0 -56.5 -16.5t-17.5 -57.5v-763q0 -184 -124 -291t-365.5 -107t-364.5 106.5t-123 291.5v763q0 41 -16.5 57.5t-54.5 16.5h-50v121h402v-121h-45q-39 0 -55.5 -17.5t-16.5 -58.5
v-774zM793 1649h163v-168h-163v168zM379 1649h166v-168h-166v168zM399 1995h197l141 -283h-129z" />
    <glyph glyph-name="uni01DC" unicode="&#x1dc;" horiz-adv-x="1214" 
d="M197 307v481q0 39 -16.5 56.5t-55.5 17.5h-66v121h303v-674q0 -113 52.5 -165t170.5 -52t193.5 68.5t75.5 199.5v428q0 41 -15.5 57.5t-54.5 16.5h-67v121h301v-788q0 -39 17.5 -56.5t56.5 -17.5h63v-121h-252l-12 135q-68 -86 -152 -126t-228 -40t-229 88t-85 250z
M680 1290h164v-168h-164v168zM266 1290h166v-168h-166v168zM287 1636h196l142 -282h-129z" />
    <glyph glyph-name="Gcaron" unicode="&#x1e6;" horiz-adv-x="1251" 
d="M80 655q0 315 156.5 508t470.5 193q270 0 423 -111v-184h-163v121q-96 51 -260 51q-225 0 -347 -152.5t-122 -420.5t129 -418t356 -150q168 0 287 51v416h-299v123h460v-592q-184 -121 -452 -121q-205 0 -349.5 87t-217 243t-72.5 356zM381 1812h162l172 -272l172 272
h162l-246 -374h-176z" />
    <glyph glyph-name="gcaron" unicode="&#x1e7;" horiz-adv-x="1193" 
d="M549 891q-311 0 -311 -389q0 -209 75 -305.5t227 -96.5t236 88t84 248v105q0 158 -84 254t-227 96zM633 -410q-226 0 -375 131v138h148v-80q74 -66 207 -66t190 66.5t57 193.5v170q-57 -88 -140 -127t-208 -39q-205 0 -318.5 137.5t-113.5 385.5t118.5 381t323.5 133
q119 0 203 -43t145 -137l21 149h244v-109h-50q-37 0 -51 -19t-14 -64v-797q0 -182 -105.5 -293t-281.5 -111zM272 1454h162l172 -272l172 272h162l-246 -375h-176z" />
    <glyph glyph-name="Aringacute" unicode="&#x1fa;" horiz-adv-x="1476" 
d="M942 530l-203 576l-202 -576h405zM618 1461q0 -52 35 -86t86.5 -34t86 34t34.5 85t-34.5 87t-86 36t-86.5 -35t-35 -87zM639 1257q-125 65 -125 219q0 80 65.5 146t160 66t161 -67t66.5 -147q0 -153 -125 -214l377 -1065q14 -41 40.5 -57.5t71.5 -16.5h66v-121h-424v121
h110l-104 299h-479l-107 -299h111v-121h-424v121h67q86 0 111 74zM791 1741h-144l170 366h209z" />
    <glyph glyph-name="aringacute" unicode="&#x1fb;" horiz-adv-x="1064" 
d="M727 334v108l-315 -22q-113 -8 -154 -47t-41 -122t46 -121t171 -38t209 60.5t84 181.5zM510 891q-125 0 -217 -45v-78h-150v143q164 102 375 103q373 0 373 -344v-469q0 -43 15.5 -61.5t49.5 -18.5h50v-121h-215l-25 127q-61 -82 -152.5 -120t-239.5 -38t-231.5 71
t-83.5 208t90.5 203.5t256.5 78.5l321 23v127q0 113 -46 162t-171 49zM637 1294.5q0 51.5 -35 87t-86 35.5t-86 -34.5t-35 -86.5t35 -86t86 -34t86 33.5t35 85zM291 1295q0 95 65.5 161t159.5 66t160.5 -66.5t66.5 -161t-66.5 -160t-160.5 -65.5t-159.5 65.5t-65.5 160.5z
M584 1876h209l-236 -293h-143z" />
    <glyph glyph-name="AEacute" unicode="&#x1fc;" horiz-adv-x="1728" 
d="M852 541v663h-47l-256 -663h303zM80 121h67q86 0 111 74l438 1130h953v-238h-148v43q0 47 -27.5 60.5t-97.5 13.5h-364v-479h377v-121h-377v-483h413q41 0 58.5 16.5t17.5 55.5v47h148v-240h-934v121h61q51 0 63.5 25.5t12.5 93.5v180h-344l-115 -299h111v-121h-424v121z
M1114 1802h209l-236 -366h-143z" />
    <glyph glyph-name="aeacute" unicode="&#x1fd;" horiz-adv-x="1744" 
d="M727 336v108l-315 -22q-113 -8 -157 -47t-44 -123t49 -123t174 -39t209 61.5t84 184.5zM1513 553q0 180 -71.5 260t-225.5 80t-238.5 -87t-84.5 -253h620zM378 -31q-154 0 -236.5 70t-82.5 208t90.5 203.5t256.5 77.5l321 23v129q0 115 -46 164t-169 49t-219 -49v-76
h-150v143q164 102 373 103q133 0 207 -43t115 -133q118 176 379 176q225 0 336.5 -126t111.5 -356v-92h-772q0 -119 47 -198.5t124 -118.5t163 -39q166 0 258 55v74h145v-131q-167 -113 -403 -113q-133 0 -236.5 55.5t-163.5 159.5q-55 -109 -175 -162t-274 -53zM926 1446
h209l-236 -367h-143z" />
    <glyph glyph-name="Oslashacute" unicode="&#x1fe;" horiz-adv-x="1341" 
d="M1104 657q0 408 -201 523l-395 -1065q66 -23 164 -23q217 0 324.5 132t107.5 433zM672 1233q-221 0 -327.5 -134t-106.5 -442q0 -372 178 -495l391 1055q-66 16 -135 16zM1262 657q0 -346 -145.5 -517t-444.5 -171q-117 0 -209 25l-29 -82h-110l43 119q-287 139 -287 626
q0 350 142.5 524.5t449.5 174.5q102 0 178 -21l29 76h110l-41 -106q314 -133 314 -648zM750 1794h211l-238 -367h-141z" />
    <glyph glyph-name="oslashacute" unicode="&#x1ff;" horiz-adv-x="1142" 
d="M903 489q0 256 -147 351l-271 -740q35 -8 86 -8q332 0 332 397zM571 889q-332 0 -331 -400q0 -262 149 -352l273 744q-57 8 -91 8zM1063 489q0 -244 -122 -382t-370 -138q-61 0 -129 11l-30 -86h-111l43 114q-133 53 -198.5 178t-65.5 303q0 246 121 385.5t370 139.5
q61 0 134 -15l34 97h111l-47 -125q260 -109 260 -482zM627 1436h211l-236 -367h-143z" />
    <glyph glyph-name="Scommaaccent" unicode="&#x218;" horiz-adv-x="1079" 
d="M459 -100h217l-187 -383h-149zM559 1233q-309 0 -309 -219q0 -76 45 -126t103.5 -78t195.5 -82t271 -130t134 -276q0 -156 -117.5 -254.5t-328.5 -98.5q-131 0 -258 39t-215 105v182h166v-125q55 -35 141 -56.5t172 -21.5q139 0 211 58.5t72 165.5t-73 167t-233 120
t-302 140t-142 259q0 180 126 267t327 87q125 0 238.5 -36t189.5 -91v-178h-166v123q-95 59 -248 59z" />
    <glyph glyph-name="scommaaccent" unicode="&#x219;" horiz-adv-x="927" 
d="M379 -100h217l-186 -383h-150zM476 891q-228 0 -228 -127q0 -63 39 -110.5t237 -106.5q115 -45 219.5 -100.5t104.5 -213.5q0 -264 -375 -264q-233 0 -393 113v151h153v-88q91 -53 221 -53t183 33t53 94t-25.5 93t-74.5 56.5t-167 70.5t-225.5 102.5t-107.5 208.5
q0 129 99.5 196.5t292.5 67.5t343 -107v-149h-153v86q-78 47 -196 47z" />
    <glyph glyph-name="uni021A" unicode="&#x21a;" horiz-adv-x="1122" 
d="M498 -100h188l-121 -400h-127zM342 121h59q45 0 61.5 17.5t16.5 56.5v1009h-215q-41 0 -58.5 -16.5t-17.5 -54.5v-60h-129v250h1004v-250h-131v60q0 39 -16.5 55t-59.5 16h-213v-1009q0 -39 16.5 -56.5t61.5 -17.5h59v-121h-438v121z" />
    <glyph glyph-name="uni021B" unicode="&#x21b;" horiz-adv-x="854" 
d="M446 -100h189l-121 -400h-127zM548 92q89 0 140 39v88h148v-139q-63 -55 -135 -83t-175 -28q-147 0 -225 82t-78 238v573h-164v121h164v229l164 62v-291h307v-121h-307v-581q0 -100 36 -144.5t125 -44.5z" />
    <glyph glyph-name="uni0237" unicode="&#x237;" horiz-adv-x="741" 
d="M260 -223q100 0 144.5 48t44.5 165v798q0 41 -16.5 57.5t-55.5 16.5h-66v121h301v-977q0 -176 -86 -264t-247 -88q-105 0 -180.5 28.5t-141.5 90.5v151h145v-90q58 -57 158 -57z" />
    <glyph glyph-name="uni0251" unicode="&#x251;" horiz-adv-x="1198" 
d="M557 891q-319 0 -319 -414q0 -199 75 -292t225 -93t236 97.5t86 252.5v109q0 162 -81 251t-222 89zM80 478q0 247 117.5 391.5t322.5 144.5q133 0 219 -41t144 -135l10 145h131v-795q0 -45 14.5 -62t51.5 -17h49v-109h-240l-20 147q-115 -178 -365 -178
q-203 0 -318.5 131t-115.5 378z" />
    <glyph glyph-name="uni0259" unicode="&#x259;" horiz-adv-x="1097" 
d="M854 430h-621q0 -170 72.5 -254t228.5 -84t238 90t82 248zM514 1014q229 0 366.5 -130t137.5 -387t-127 -392.5t-355 -135.5t-342 129t-114 353v92h774q0 182 -92 265t-249 83t-249 -55v-64h-149v129q170 113 399 113z" />
    <glyph glyph-name="uni02BB" unicode="&#x2bb;" horiz-adv-x="555" 
d="M303 1352h152l-138 -428h-217z" />
    <glyph glyph-name="uni02BC" unicode="&#x2bc;" horiz-adv-x="555" 
d="M236 1352h219l-203 -428h-152z" />
    <glyph glyph-name="uni02BE" unicode="&#x2be;" 
d="M-160 1102q84 0 120 31.5t36 107.5t-36 107.5t-120 31.5v111q141 0 212 -65.5t71 -184.5t-70.5 -184.5t-212.5 -65.5v111z" />
    <glyph glyph-name="uni02BF" unicode="&#x2bf;" 
d="M-160 1241q0 119 71 184.5t212 65.5v-111q-84 0 -121 -31.5t-37 -107.5t37 -107.5t121 -31.5v-111q-141 0 -212 65.5t-71 184.5z" />
    <glyph glyph-name="circumflex" unicode="&#x2c6;" horiz-adv-x="886" 
d="M352 1485h183l251 -385h-178l-166 260l-166 -260h-176z" />
    <glyph glyph-name="caron" unicode="&#x2c7;" horiz-adv-x="868" 
d="M100 1473h160l172 -273l174 273h162l-246 -375h-176z" />
    <glyph glyph-name="uni02C8" unicode="&#x2c8;" 
d="M-90 1452h178v-356h-178v356z" />
    <glyph glyph-name="uni02C9" unicode="&#x2c9;" horiz-adv-x="1206" 
d="M315 1272h576v-117h-576v117z" />
    <glyph glyph-name="uni02CA" unicode="&#x2ca;" 
d="M63 1436h211l-235 -367h-143z" />
    <glyph glyph-name="uni02CB" unicode="&#x2cb;" 
d="M-190 1436h208l168 -367h-141z" />
    <glyph glyph-name="uni02CC" unicode="&#x2cc;" 
d="M-90 -82h178v-356h-178v356z" />
    <glyph glyph-name="breve" unicode="&#x2d8;" horiz-adv-x="813" 
d="M100 1419h133q0 -80 46.5 -123t127.5 -43t127 43t46 123h133q0 -129 -85 -204.5t-222.5 -75.5t-221.5 76.5t-84 203.5z" />
    <glyph glyph-name="dotaccent" unicode="&#x2d9;" horiz-adv-x="364" 
d="M100 1348h164v-168h-164v168z" />
    <glyph glyph-name="ring" unicode="&#x2da;" horiz-adv-x="653" 
d="M446 1296.5q0 51.5 -34.5 87t-86 35.5t-86 -34.5t-34.5 -86.5t34.5 -86t86 -34t86 33.5t34.5 85zM100 1297q0 95 65.5 161t160 66t161 -66.5t66.5 -161t-66.5 -160t-161 -65.5t-160 65.5t-65.5 160.5z" />
    <glyph glyph-name="ogonek" unicode="&#x2db;" horiz-adv-x="509" 
d="M236 -198q0 -108 81 -107q49 0 93 14v-100q-45 -29 -125 -29t-132.5 49t-52.5 162t103 209h135q-102 -90 -102 -198z" />
    <glyph glyph-name="tilde" unicode="&#x2dc;" horiz-adv-x="960" 
d="M305 1405q81 -1 184 -59t151 -58t69.5 25.5t21.5 91.5h129q0 -129 -51 -188.5t-139 -59.5t-197 62q-55 29 -86 41t-73 12t-64.5 -24.5t-22.5 -90.5h-127q0 248 205 248z" />
    <glyph glyph-name="hungarumlaut" unicode="&#x2dd;" horiz-adv-x="962" 
d="M649 1477h213l-241 -375h-146zM276 1477h211l-241 -375h-146z" />
    <glyph glyph-name="gravecomb" unicode="&#x300;" 
d="M-858 1436h209l170 -367h-144z" />
    <glyph glyph-name="acutecomb" unicode="&#x301;" 
d="M-596 1436h209l-236 -367h-143z" />
    <glyph glyph-name="uni0302" unicode="&#x302;" 
d="M-88 1436h176l246 -375h-162l-172 270l-172 -270h-162z" />
    <glyph glyph-name="tildecomb" unicode="&#x303;" 
d="M-1016 1124q0 248 207 248q77 0 183 -58t152 -59q46 0 67.5 26t21.5 91h129q0 -129 -51 -188.5t-154 -59.5q-49 0 -89 15.5t-94 45.5t-84 42t-72 12t-64.5 -24.5t-22.5 -90.5h-129z" />
    <glyph glyph-name="uni0304" unicode="&#x304;" 
d="M-285 1272h574v-117h-574v117z" />
    <glyph glyph-name="uni0306" unicode="&#x306;" 
d="M-307 1386h133q0 -80 47 -122.5t128 -42.5t126 43t45 122h133q0 -127 -84 -203.5t-221 -76.5t-222 75.5t-85 204.5z" />
    <glyph glyph-name="uni0307" unicode="&#x307;" 
d="M-82 1315h164v-168h-164v168z" />
    <glyph glyph-name="uni0308" unicode="&#x308;" 
d="M125 1323h164v-168h-164v168zM-287 1323h164v-168h-164v168z" />
    <glyph glyph-name="hookabovecomb" unicode="&#x309;" 
d="M-715 1178q137 0 137 94q0 45 -26.5 61.5t-81.5 16.5t-109 -17v103q61 20 131 20q222 0 222 -170q0 -127 -140 -162v-80h-133v134z" />
    <glyph glyph-name="uni030A" unicode="&#x30a;" 
d="M121 1272q0 51 -35 87t-86 36t-86 -35t-35 -87t35 -86t86 -34t86 34t35 85zM-225 1273q0 95 65.5 160.5t159.5 65.5t160.5 -66.5t66.5 -160.5t-66.5 -159.5t-160.5 -65.5t-159.5 65.5t-65.5 160.5z" />
    <glyph glyph-name="uni030B" unicode="&#x30b;" 
d="M109 1444h213l-244 -375h-146zM-266 1444h213l-242 -375h-147z" />
    <glyph glyph-name="uni030C" unicode="&#x30c;" 
d="M-334 1440h162l172 -273l172 273h162l-246 -375h-176z" />
    <glyph glyph-name="uni031B" unicode="&#x31b;" 
d="M-231 1135q96 0 130.5 41t34.5 131v71h162v-71q0 -139 -77.5 -212t-249.5 -73v113z" />
    <glyph glyph-name="dotbelowcomb" unicode="&#x323;" 
d="M-698 -129h163v-168h-163v168z" />
    <glyph glyph-name="uni0324" unicode="&#x324;" 
d="M123 -129h164v-168h-164v168zM-285 -129h164v-168h-164v168z" />
    <glyph glyph-name="uni0326" unicode="&#x326;" 
d="M-51 -100h217l-186 -383h-150z" />
    <glyph glyph-name="uni0327" unicode="&#x327;" 
d="M176 -279q0 -188 -258 -188q-70 0 -133 23v102q61 -20 121 -20q135 0 135 83q0 59 -38 83t-150 24l24 172h143l-14 -102q92 -12 131 -57.5t39 -119.5z" />
    <glyph glyph-name="uni0328" unicode="&#x328;" 
d="M-20 -198q0 -108 81 -107q49 0 93 14v-100q-45 -29 -125 -29t-132.5 49t-52.5 162t103 209h135q-102 -90 -102 -198z" />
    <glyph glyph-name="uni032E" unicode="&#x32e;" 
d="M-307 -100h133q0 -80 47 -123t128 -43t126 43t45 123h133q0 -127 -84 -204t-221 -77t-222 76t-85 205z" />
    <glyph glyph-name="uni0331" unicode="&#x331;" 
d="M-285 -143h574v-117h-574v117z" />
    <glyph glyph-name="uni0394" unicode="&#x394;" horiz-adv-x="1490" 
d="M1212 133l-467 1051l-469 -1051h936zM1391 0h-1291v131l566 1247h159l566 -1247v-131z" />
    <glyph glyph-name="uni03A9" unicode="&#x3a9;" horiz-adv-x="1607" 
d="M100 233h129v-43q0 -39 16.5 -54t57.5 -15h227q-170 133 -262 280t-92 343t66.5 348.5t207 241.5t354.5 89t421 -131.5t207 -546.5q0 -199 -92.5 -345t-262.5 -279h228q41 0 57 15.5t16 53.5v43h129v-233h-583v156q178 121 263 261t85 328q0 260 -115 407.5t-351 147.5
t-353 -148t-117 -407q0 -188 85 -328.5t263 -260.5v-156h-584v233z" />
    <glyph glyph-name="uni03BC" unicode="&#x3bc;" horiz-adv-x="1214" 
d="M891 135q-131 -166 -347 -166q-110 0 -182 33v-428h-165v1214q0 39 -16.5 56.5t-55.5 17.5h-66v121h303v-674q0 -113 52.5 -165t170.5 -52t193.5 68.5t75.5 199.5v428q0 41 -15.5 57.5t-54.5 16.5h-67v121h301v-788q0 -39 17.5 -56.5t56.5 -17.5h63v-121h-252z" />
    <glyph glyph-name="pi" unicode="&#x3c0;" horiz-adv-x="1402" 
d="M825 244v618h-395v-665q0 -41 17.5 -58.5t62.5 -17.5h55v-121h-438v121h61q45 0 61.5 17.5t16.5 58.5v665h-207v121h1149v-121h-219v-624q0 -82 23.5 -114t90.5 -32t95 45v88h145v-137q-53 -61 -110 -90t-139 -29q-269 1 -269 275z" />
    <glyph glyph-name="uni0E01" unicode="&#xe01;" horiz-adv-x="1138" 
d="M557 993q-206 0 -328 -108v-27l177 -110v-84q-66 -27 -89.5 -71t-23.5 -132v-461h-166v465q0 175 121 237l-168 101v131q197 180 477 180q225 0 343 -99.5t118 -273.5v-741h-166v741q0 252 -295 252z" />
    <glyph glyph-name="uni0E02" unicode="&#xe02;" horiz-adv-x="1048" 
d="M369 929q0 50 -19.5 68.5t-73.5 18.5t-74 -18.5t-20 -68.5t19.5 -69.5t73 -19.5t74 19.5t20.5 69.5zM117 457q0 169 135 291q-96 2 -134 45t-38 139t46 139t154 43t151.5 -41t43.5 -141v-64q0 -39 -19.5 -72.5t-66.5 -87.5t-76.5 -110.5t-29.5 -132.5v-109
q0 -102 20.5 -158.5t71.5 -82t147 -25.5t147.5 25.5t72 82t20.5 158.5v727h166v-698q0 -131 -51 -273.5t-357 -142.5q-305 0 -354 142.5t-49 269.5v76z" />
    <glyph glyph-name="uni0E03" unicode="&#xe03;" horiz-adv-x="1128" 
d="M342 931q0 50 -20.5 69.5t-72.5 19.5t-72.5 -20.5t-20.5 -70.5t19.5 -68.5t72.5 -18.5t73.5 19.5t20.5 69.5zM197 336v51q0 90 45.5 159.5t117.5 143.5t102 117t30 86v53l-68 -39q0 -162 -182 -162q-102 0 -142.5 44.5t-40.5 142.5t42.5 140t130.5 42t126.5 -19.5
t55.5 -68.5l94 57h135v-163q0 -82 -37.5 -144.5t-107.5 -139.5t-103 -129t-33 -114v-37q0 -102 20.5 -158.5t72 -82t147.5 -25.5t147.5 25.5t72 82t20.5 158.5v727h166v-698q0 -131 -51 -273.5t-355 -142.5q-229 0 -317 100.5t-88 266.5z" />
    <glyph glyph-name="uni0E04" unicode="&#xe04;" horiz-adv-x="1169" 
d="M682 499q0 50 -19.5 68.5t-72.5 18.5t-72.5 -18.5t-19.5 -68.5t20.5 -70.5t72.5 -20.5t71.5 20.5t19.5 70.5zM121 684q0 199 104.5 314.5t358.5 115.5t359.5 -115.5t105.5 -314.5v-684h-166v694q0 150 -64.5 224.5t-233.5 74.5t-233.5 -74.5t-64.5 -224.5v-209l75 66
q33 27 67 57t73.5 52t121.5 22t122 -41t40 -143q0 -184 -196 -185q-78 0 -126 31t-50 82l-127 -111v-315h-166v684z" />
    <glyph glyph-name="uni0E05" unicode="&#xe05;" horiz-adv-x="1169" 
d="M682 499q0 50 -19.5 68.5t-72.5 18.5t-72.5 -18.5t-19.5 -68.5t20.5 -70.5t72.5 -20.5t71.5 20.5t19.5 70.5zM121 811q0 152 65.5 227.5t188.5 75.5q170 0 209 -129q47 129 213 129q127 0 189.5 -73.5t62.5 -229.5v-811h-166v801q0 113 -20.5 152.5t-92.5 39.5
q-119 0 -119 -133v-26h-137v26q0 68 -25 100.5t-89 32.5t-88.5 -42t-24.5 -150v-316l75 66q33 27 67 57t73.5 52t121.5 22t122 -41t40 -143q0 -184 -196 -185q-78 0 -126 31t-50 82l-127 -111v-315h-166v811z" />
    <glyph glyph-name="uni0E06" unicode="&#xe06;" horiz-adv-x="1177" 
d="M379 154q0 50 -19.5 69t-73 19t-72.5 -18.5t-19 -68.5t19.5 -71t71.5 -21t72.5 20.5t20.5 70.5zM362 931q0 50 -19 69.5t-72.5 19.5t-74 -20.5t-20.5 -70.5t20.5 -68.5t74 -18.5t72.5 19.5t19 69.5zM485 139q-1 -170 -199 -170q-198 -1 -198 177q0 88 47 136t131 48
q16 0 41 -4v90q0 82 32 146t84 134t73.5 111t21.5 86v53l-72 -39q0 -162 -182 -162q-102 0 -143 44.5t-41 142.5t43 140t131 42t126 -19.5t56 -68.5l99 57h135v-151q0 -78 -26 -135.5t-76 -134.5t-73.5 -127t-23.5 -113v-111l420 -166v938h166v-1083h-127l-447 178
q2 -12 2 -39z" />
    <glyph glyph-name="uni0E07" unicode="&#xe07;" horiz-adv-x="1005" 
d="M774 929q0 50 -19.5 68.5t-73.5 18.5t-73.5 -18.5t-19.5 -68.5t20.5 -69.5t72.5 -19.5t72.5 19.5t20.5 69.5zM657 748q-172 0 -172 180q0 98 46.5 142t156.5 44t153.5 -45t43.5 -154v-618q0 -121 -59.5 -209t-225.5 -88h-291l-270 735h168l225 -614h139q74 0 111 29.5
t37 97.5v506q-31 -6 -62 -6z" />
    <glyph glyph-name="uni0E08" unicode="&#xe08;" horiz-adv-x="1062" 
d="M393 529q0 50 -19.5 68.5t-73.5 18.5t-73.5 -18t-19.5 -68t20.5 -70t72.5 -20t72.5 19.5t20.5 69.5zM635 121q141 0 141 133v481q0 135 -72.5 196.5t-226.5 61.5q-199 0 -338 -125l-80 97q170 149 422 149t356.5 -98t104.5 -283v-444q0 -115 -63.5 -202t-227.5 -87h-192
l-82 371q-39 -20 -103 -21q-168 6 -168 180q0 98 45.5 141.5t135.5 43.5t127 -18.5t55 -57.5t35 -123l82 -395h49z" />
    <glyph glyph-name="uni0E09" unicode="&#xe09;" horiz-adv-x="1157" 
d="M965 156q0 50 -20.5 71t-72.5 21t-73 -19.5t-21 -71t20 -69.5t74 -18t73.5 18t19.5 68zM369 499q0 50 -19.5 68.5t-73.5 18.5t-74 -18.5t-20 -68.5t19.5 -69.5t73 -19.5t74 19.5t20.5 69.5zM868 -31q-196 0 -196 158q0 35 8 53l-209 -180h-160v324q-29 -6 -59 -7
q-172 0 -172 181q0 98 46 142t155 44t152.5 -45t43.5 -154v-327l344 293q27 20 37 39.5t10 52.5v194q0 125 -89 190.5t-234 65.5q-223 0 -367 -125l-80 97q164 149 451 149q233 0 359 -101.5t126 -275.5v-168q0 -78 -30.5 -125t-114.5 -104q98 -4 140 -49t42 -140
t-46 -138.5t-157 -43.5z" />
    <glyph glyph-name="uni0E0A" unicode="&#xe0a;" horiz-adv-x="1050" 
d="M369 929q0 50 -19.5 68.5t-73.5 18.5t-74 -18.5t-20 -68.5t19.5 -69.5t73 -19.5t74 19.5t20.5 69.5zM117 457q0 169 135 291q-96 2 -134 45t-38 139t46 139t154 43t151.5 -41t43.5 -141v-64q0 -39 -19.5 -72.5t-66.5 -87.5t-76.5 -110.5t-29.5 -132.5v-109
q0 -102 20.5 -158.5t71.5 -82t147 -25.5t147.5 25.5t72 82t20.5 158.5v164q0 92 -33 135t-115 43h-36v123h38q116 0 132 55.5t16 122.5v115h166v-110q0 -92 -26.5 -152.5t-94.5 -93.5q66 -35 92.5 -95.5t26.5 -148.5v-129q0 -131 -32 -221t-120 -142.5t-254 -52.5t-255 53.5
t-119.5 142.5t-30.5 216v76z" />
    <glyph glyph-name="uni0E0B" unicode="&#xe0b;" horiz-adv-x="1130" 
d="M342 931q0 50 -20.5 69.5t-72.5 19.5t-72.5 -20.5t-20.5 -70.5t19.5 -68.5t72.5 -18.5t73.5 19.5t20.5 69.5zM197 340v47q0 90 43.5 158.5t115.5 142.5t101.5 117t29.5 88v53l-63 -39q0 -162 -182 -162q-102 0 -142.5 44.5t-40.5 141.5t43.5 140t131.5 43t125.5 -19.5
t54.5 -68.5l90 57h133v-178q0 -70 -35.5 -127t-105.5 -136t-103 -132t-33 -117v-57q0 -84 26 -165t216 -81q96 0 147.5 25.5t72 82t20.5 158.5v138q0 111 -27 157.5t-113 46.5h-24v123h27q86 0 112.5 37t26.5 137v119h166v-110q0 -92 -27 -152.5t-94 -93.5
q66 -35 92.5 -95.5t26.5 -148.5v-129q0 -131 -50.5 -273.5t-356.5 -142.5q-305 0 -354.5 127t-49.5 244z" />
    <glyph glyph-name="uni0E0C" unicode="&#xe0c;" horiz-adv-x="1662" 
d="M889 154q0 50 -19.5 69t-73 19t-72.5 -18.5t-19 -69.5t19.5 -71t71.5 -20t72.5 20.5t20.5 70.5zM422 154q0 52 -19.5 71t-73 19t-73.5 -20.5t-20 -69.5t20 -68.5t73.5 -19.5t73 18t19.5 70zM352 336q172 0 172 -184q0 -94 -47 -138.5t-155 -44.5t-151.5 45t-43.5 154v231
q0 80 10.5 167.5t110.5 135.5l-168 101v131q197 180 459 180q223 0 330.5 -98t107.5 -275v-419l399 -166v927h166v-1083h-131l-420 178q4 -12 4 -39q-1 -170 -199 -170q-198 -1 -198 177q0 88 47 136t131 48q27 0 39 -2v413q0 131 -65.5 191.5t-227.5 60.5t-293 -108v-27
l177 -110v-84q-66 -27 -90.5 -69t-24.5 -126v-141q25 8 61 8z" />
    <glyph glyph-name="uni0E0D" unicode="&#xe0d;" horiz-adv-x="1779" 
d="M1087 -151q0 50 -19.5 69t-71.5 19t-72.5 -19.5t-20.5 -67.5t20.5 -69t72.5 -21t71.5 19.5t19.5 69.5zM803 -158q0 100 45 145.5t148 45.5t151.5 -42t48.5 -143t-82 -131q57 -23 186 -22q204 0 318 166l84 -113q-135 -184 -406 -184q-204 0 -348.5 69.5t-144.5 208.5z
M422 154q0 52 -19.5 71t-73 19t-73.5 -20.5t-20 -69.5t20 -68.5t73.5 -19.5t73 18t19.5 70zM352 336q172 0 172 -184q0 -94 -47 -138.5t-155 -44.5t-151.5 45t-43.5 154v272q0 96 24.5 161t96.5 101l-168 101v131q197 180 459 180q223 0 330.5 -98t107.5 -275v-268
q0 -150 53 -220.5t205 -70.5q200 0 229 100.5t29 209.5v591h166v-604q0 -195 -93 -306.5t-329 -111.5t-329 110t-93 308v262q0 131 -65.5 191.5t-227.5 60.5t-293 -108v-27l177 -110v-84q-66 -27 -90.5 -69t-24.5 -126v-141q25 8 61 8z" />
    <glyph glyph-name="uni0E0E" unicode="&#xe0e;" horiz-adv-x="1243" 
d="M369 154q0 50 -20.5 70t-74 20t-73 -19.5t-19.5 -69.5t20 -68.5t74 -18.5t73.5 18t19.5 68zM664 1114q223 0 340.5 -99.5t117.5 -273.5v-1194h-159q-31 57 -95.5 95.5t-150.5 38.5t-136.5 -28t-82.5 -106l-129 31q35 125 120.5 174t208.5 49q166 0 258 -86v1026
q0 252 -292 252q-209 0 -334 -108v-27l215 -129v-84q-45 -37 -56.5 -72.5t-11.5 -115.5v-289q0 -109 -43 -154t-152 -45t-155.5 44t-46.5 143q0 180 172 180q31 0 59 -6v131q0 80 12.5 126t59.5 91l-205 125v131q201 180 486 180z" />
    <glyph glyph-name="uni0E0F" unicode="&#xe0f;" horiz-adv-x="1243" 
d="M369 154q0 50 -20.5 70t-74 20t-73 -19.5t-19.5 -69.5t20 -68.5t74 -18.5t73.5 18t19.5 68zM539 -326q94 0 155 115l262 -117v1069q0 252 -292 252q-209 0 -334 -108v-27l215 -129v-84q-45 -37 -56.5 -72.5t-11.5 -115.5v-289q0 -109 -43 -154t-152 -45t-155.5 44
t-46.5 143q0 180 172 180q31 0 59 -6v131q0 80 12.5 126t59.5 91l-205 125v131q201 180 486 180q223 0 340.5 -99.5t117.5 -273.5v-1194h-166l-235 105q-71 -101 -199 -101q-202 0 -256 222l129 30q20 -70 53 -99.5t91 -29.5z" />
    <glyph glyph-name="uni0E10" unicode="&#xe10;" horiz-adv-x="1091" 
d="M778 -279q88 0 88 76q0 43 -19.5 60.5t-69.5 17.5t-69.5 -17.5t-19.5 -59.5t20.5 -59.5t69.5 -17.5zM416 -449q100 0 153 95l267 -86v92q-23 -10 -70 -10q-172 0 -172 157q0 88 44 126t142 38t139.5 -42t41.5 -136v-344h-125l-242 78q-70 -84 -195 -84q-205 0 -254 215
l129 31q20 -70 52 -100t90 -30zM403 529q0 50 -19.5 68.5t-73.5 18.5t-73.5 -18t-19.5 -68t20.5 -70t72.5 -20t72.5 19.5t20.5 69.5zM645 121q141 0 141 133v481q0 135 -72.5 196.5t-226.5 61.5q-199 0 -337 -125l-80 97q170 150 430 149q176 0 282 -55q61 35 74 117
l141 -31q-4 -53 -33.5 -103.5t-80.5 -76.5q70 -78 69 -232v-444q0 -115 -63.5 -202t-226.5 -87h-193l-82 371q-39 -20 -102 -21q-168 6 -168 180q0 98 45 141.5t135 43.5t127 -18.5t55.5 -57.5t34.5 -123l82 -395h49z" />
    <glyph glyph-name="uni0E11" unicode="&#xe11;" horiz-adv-x="1222" 
d="M342 931q0 50 -20.5 69.5t-72.5 19.5t-72.5 -20.5t-20.5 -70.5t19.5 -68.5t72.5 -18.5t73.5 19.5t20.5 69.5zM936 926q0 53 -59 53t-133.5 -88t-127.5 -162q-86 -109 -123.5 -179.5t-37.5 -162.5v-387h-166v383q0 82 30.5 148.5t82.5 144.5t74 123t22 92v55l-70 -37
q0 -164 -186 -164q-102 0 -142.5 44.5t-40.5 142.5t43.5 140t131.5 42t125.5 -19.5t54.5 -68.5l100 57h135v-112q78 82 134.5 112.5t152.5 30.5t131 -57.5t35 -175.5v-881h-166v926z" />
    <glyph glyph-name="uni0E12" unicode="&#xe12;" horiz-adv-x="1738" 
d="M965 154q0 50 -19.5 69t-73 19t-73 -18.5t-19.5 -69.5t20 -71t72 -20t72.5 20.5t20.5 70.5zM678 517q0 50 -20.5 68.5t-74 18.5t-72.5 -18.5t-19 -68.5t19 -70.5t71 -20.5t74 20.5t22 70.5zM1071 139q-1 -170 -199 -170q-198 -1 -198 177q0 88 47 136t131 48q27 0 39 -2
v473q0 109 -22.5 150.5t-96.5 41.5q-125 0 -125 -133v-26h-127v26q0 68 -27 100.5t-93 32.5t-92.5 -44t-26.5 -150v-666l233 217q-121 25 -121 164q0 98 46.5 141t148.5 43t146 -42t44 -135t-73 -165l-375 -356h-199v811q0 303 246 303q168 0 207 -129q49 129 211 129
q258 0 258 -303v-489l399 -166v927h166v-1083h-131l-420 178q4 -12 4 -39z" />
    <glyph glyph-name="uni0E13" unicode="&#xe13;" horiz-adv-x="1708" 
d="M422 154q0 52 -19.5 71t-73 19t-73.5 -20.5t-20 -69.5t20 -68.5t73.5 -19.5t73 18t19.5 70zM1516 156q0 50 -21 71t-73 21t-72.5 -19.5t-20.5 -71t19.5 -69.5t73.5 -18t74 18t20 68zM352 336q172 0 172 -184q0 -94 -47 -138.5t-155 -44.5t-151.5 45t-43.5 154v231
q0 80 10.5 167.5t110.5 135.5l-168 101v131q197 180 459 180q223 0 330.5 -98t107.5 -275v-585l395 284q29 20 38 37t9 49v557h164v-557q0 -55 -28.5 -93t-112.5 -95q98 -4 139 -48t41 -138t-46 -138.5t-155 -44.5q-203 0 -202 170q0 35 8 51l-256 -190h-156v741
q0 131 -65.5 191.5t-227.5 60.5t-293 -108v-27l177 -110v-84q-66 -27 -89.5 -69t-23.5 -126v-141q25 8 59 8z" />
    <glyph glyph-name="uni0E14" unicode="&#xe14;" horiz-adv-x="1175" 
d="M684 517q0 50 -20.5 68.5t-73.5 18.5t-72.5 -18.5t-19.5 -68.5t19.5 -70.5t71.5 -20.5t73.5 20.5t21.5 70.5zM595 698q189 0 189 -162q0 -78 -23.5 -119.5t-76.5 -90.5l-348 -326h-215v702q0 195 106.5 303.5t360.5 108.5t360.5 -108.5t106.5 -303.5v-702h-166v709
q0 98 -25.5 159.5t-91 93t-184.5 31.5t-184.5 -31.5t-91 -93t-25.5 -159.5v-576l233 217q-121 25 -121 164q0 98 47.5 141t148.5 43z" />
    <glyph glyph-name="uni0E15" unicode="&#xe15;" horiz-adv-x="1175" 
d="M684 517q0 50 -20.5 68.5t-73.5 18.5t-72.5 -18.5t-19.5 -68.5t19.5 -70.5t71.5 -20.5t73.5 20.5t21.5 70.5zM595 698q189 0 189 -162q0 -78 -23.5 -119.5t-76.5 -90.5l-348 -326h-215v811q0 152 66.5 227.5t189.5 75.5q172 0 211 -129q47 129 213 129q254 0 254 -303
v-811h-166v801q0 111 -21.5 151.5t-93.5 40.5q-119 0 -119 -133v-26h-137v26q0 68 -26 100.5t-90 32.5t-89.5 -43t-25.5 -149v-668l233 217q-121 25 -121 164q0 98 47.5 141t148.5 43z" />
    <glyph glyph-name="uni0E16" unicode="&#xe16;" horiz-adv-x="1138" 
d="M422 154q0 52 -19.5 71t-73 19t-73.5 -20.5t-20 -69.5t20 -68.5t73.5 -19.5t73 18t19.5 70zM352 336q172 0 172 -184q0 -94 -47 -138.5t-155 -44.5t-151.5 45t-43.5 154v297q0 175 121 237l-168 101v131q197 180 477 180q225 0 343 -99.5t118 -273.5v-741h-166v741
q0 252 -295 252q-206 0 -328 -108v-27l177 -110v-84q-66 -27 -89.5 -71t-23.5 -132v-133q25 8 59 8z" />
    <glyph glyph-name="uni0E17" unicode="&#xe17;" horiz-adv-x="1222" 
d="M348 929q0 50 -19.5 68.5t-73.5 18.5t-73.5 -18.5t-19.5 -68.5t19.5 -69.5t72.5 -19.5t73.5 19.5t20.5 69.5zM231 748q-172 0 -172 180q0 98 46.5 142t156.5 44t152.5 -45t42.5 -154v-378l252 438q43 78 89 108.5t128 30.5q176 0 176 -164v-950h-166v946q0 47 -41 47
q-23 0 -36 -17.5t-48 -76.5l-354 -616v-283h-166v754q-29 -6 -60 -6z" />
    <glyph glyph-name="uni0E18" unicode="&#xe18;" horiz-adv-x="1026" 
d="M102 379v96h166v-98q0 -102 31 -194.5t225 -92.5q125 0 190.5 42t65.5 142v119q0 72 -30.5 103.5t-112.5 48.5l-557 123v145q0 88 53 156.5t152.5 106.5t232.5 38q256 0 400 -115l-76 -92q-113 86 -320 86q-129 0 -202.5 -47t-73.5 -129v-61l465 -103q127 -29 181 -89
t54 -171v-119q0 -147 -111.5 -226t-333.5 -79t-310.5 108.5t-88.5 301.5z" />
    <glyph glyph-name="uni0E19" unicode="&#xe19;" horiz-adv-x="1206" 
d="M1014 156q0 50 -20.5 71t-72.5 21t-73 -19.5t-21 -71t19.5 -69.5t73.5 -18t74 18t20 68zM348 929q0 50 -19.5 68.5t-73.5 18.5t-73.5 -18.5t-19.5 -68.5t19.5 -69.5t72.5 -19.5t73.5 19.5t20.5 69.5zM231 748q-172 0 -172 180q0 98 46.5 142t154.5 44t152.5 -45
t44.5 -154v-757l413 282q29 18 38.5 36t9.5 50v557h165v-557q0 -55 -29.5 -94t-113.5 -94q98 -4 139 -48t41 -138t-46 -138.5t-154 -44.5q-203 0 -203 170q0 35 8 54l-274 -193h-160v754q-29 -6 -60 -6z" />
    <glyph glyph-name="uni0E1A" unicode="&#xe1a;" horiz-adv-x="1296" 
d="M348 929q0 50 -19.5 68.5t-73.5 18.5t-73.5 -18.5t-19.5 -68.5t19.5 -69.5t72.5 -19.5t73.5 19.5t20.5 69.5zM231 748q-172 0 -172 180q0 98 46.5 142t156.5 44t152.5 -45t42.5 -154v-534q0 -98 34.5 -194.5t246.5 -96.5t242 101.5t30 214.5v677h166v-698
q0 -199 -96.5 -307.5t-344.5 -108.5t-346 108.5t-98 307.5v369q-29 -6 -60 -6z" />
    <glyph glyph-name="uni0E1B" unicode="&#xe1b;" horiz-adv-x="1296" 
d="M348 929q0 50 -19.5 68.5t-73.5 18.5t-73.5 -18.5t-19.5 -68.5t19.5 -69.5t72.5 -19.5t73.5 19.5t20.5 69.5zM231 748q-172 0 -172 180q0 98 46.5 142t156 44t152.5 -45t43 -154v-534q1 -99 23 -161q47 -131 258.5 -130.5t251.5 138.5q20 66 20 178v1056h166v-1077
q0 -199 -96.5 -307.5t-344.5 -108.5t-346 108.5t-98 307.5v369q-29 -6 -60 -6z" />
    <glyph glyph-name="uni0E1C" unicode="&#xe1c;" horiz-adv-x="1165" 
d="M416 929q0 50 -19.5 68.5t-73.5 18.5t-74 -18.5t-20 -68.5t20.5 -69.5t74 -19.5t73 19.5t19.5 69.5zM518 928q0 -180 -172 -180q-33 0 -59 6v-551l243 321h103l246 -321v880h165v-1083h-172l-290 389l-289 -389h-172v915q0 109 43 154t152 45t155.5 -44t46.5 -142z" />
    <glyph glyph-name="uni0E1D" unicode="&#xe1d;" horiz-adv-x="1165" 
d="M416 929q0 50 -19.5 68.5t-73.5 18.5t-74 -18.5t-20 -68.5t20.5 -69.5t74 -19.5t73 19.5t19.5 69.5zM518 928q0 -180 -172 -180q-33 0 -59 6v-551l243 321h103l246 -321v1259h165v-1462h-172l-290 389l-289 -389h-172v915q0 109 43 154t152 45t155.5 -44t46.5 -142z" />
    <glyph glyph-name="uni0E1E" unicode="&#xe1e;" horiz-adv-x="1304" 
d="M348 929q0 50 -19.5 68.5t-73.5 18.5t-73.5 -18.5t-19.5 -68.5t19.5 -69.5t72.5 -19.5t73.5 19.5t20.5 69.5zM231 748q-172 0 -172 180q0 98 46.5 142t156.5 44t152.5 -45t42.5 -154v-630l229 534h100l232 -534v798h166v-1083h-168l-279 641l-278 -641h-168v754
q-29 -6 -60 -6z" />
    <glyph glyph-name="uni0E1F" unicode="&#xe1f;" horiz-adv-x="1304" 
d="M348 929q0 50 -19.5 68.5t-73.5 18.5t-73.5 -18.5t-19.5 -68.5t19.5 -69.5t72.5 -19.5t73.5 19.5t20.5 69.5zM231 748q-172 0 -172 180q0 98 46.5 142t156 44t152.5 -45t43 -154v-630l229 534h100l232 -534v1177h166v-1462h-168l-279 641l-278 -641h-168v754
q-29 -6 -60 -6z" />
    <glyph glyph-name="uni0E20" unicode="&#xe20;" horiz-adv-x="1243" 
d="M369 154q0 50 -20.5 70t-74 20t-73 -19.5t-19.5 -69.5t20 -68.5t74 -18.5t73.5 18t19.5 68zM664 993q-209 0 -334 -108v-27l215 -129v-84q-45 -37 -56.5 -72.5t-11.5 -115.5v-289q0 -109 -42.5 -154t-152.5 -45t-156 44t-46 143q0 180 172 180q31 0 59 -6v131
q0 80 12.5 126t59.5 91l-205 125v131q201 180 486 180q223 0 340.5 -99.5t117.5 -273.5v-741h-166v741q0 252 -292 252z" />
    <glyph glyph-name="uni0E21" unicode="&#xe21;" horiz-adv-x="1183" 
d="M385 154q0 50 -19.5 69t-72.5 19t-72.5 -18.5t-19.5 -68.5t19.5 -71t71.5 -21t72.5 20.5t20.5 70.5zM369 929q0 50 -19.5 68.5t-73.5 18.5t-74 -18.5t-20 -68.5t19.5 -69.5t73 -19.5t74 19.5t20.5 69.5zM492 139q0 -170 -199 -170q-199 -1 -199 177q0 88 47 136t131 48
q27 0 39 -2v426q-29 -6 -59 -6q-172 0 -172 180q0 98 46 142t155 44t152.5 -45t43.5 -154v-604l420 -166v938h166v-1083h-127l-447 178q2 -12 3 -39z" />
    <glyph glyph-name="uni0E22" unicode="&#xe22;" horiz-adv-x="1087" 
d="M381 929q0 50 -19.5 68.5t-72.5 18.5t-72.5 -18.5t-19.5 -68.5t20.5 -69.5t72.5 -19.5t71.5 19.5t19.5 69.5zM967 371q1 -401 -443 -401t-444 328q0 165 121 230q-117 75 -117 254v127q0 106 48 155.5t156 49.5t154.5 -43t46.5 -135t-45 -140t-125 -48q-41 0 -73 12
q0 -86 35.5 -127t117.5 -41h86v-121h-84q-162 0 -161 -180q0 -201 284 -201q139 0 208 60.5t69 191.5v741h166v-712z" />
    <glyph glyph-name="uni0E23" unicode="&#xe23;" horiz-adv-x="948" 
d="M600 153.5q0 49.5 -20.5 70t-73.5 20.5t-72.5 -19.5t-19.5 -70.5t19.5 -69.5t72.5 -18.5t73.5 19t20.5 68.5zM246 819v-45l323 -86q84 -23 112 -74t28 -151v-295q0 -109 -44 -154t-151.5 -45t-155.5 44q-48 45 -47 139q0 184 172 184q35 0 60 -8v133q0 53 -9.5 76.5
t-36 37t-96.5 31.5l-321 86v119q0 147 108.5 225t296.5 78q250 0 383 -110l-73 -93q-113 82 -299 82q-125 0 -187.5 -46t-62.5 -128z" />
    <glyph glyph-name="uni0E24" unicode="&#xe24;" horiz-adv-x="1138" 
d="M422 154q0 52 -19.5 71t-73 19t-73.5 -20.5t-20 -69.5t20 -68.5t73.5 -19.5t73 18t19.5 70zM352 336q172 0 172 -184q0 -94 -47 -138.5t-155 -44.5t-151.5 45t-43.5 154v297q0 175 121 237l-168 101v131q197 180 477 180q225 0 343 -99.5t118 -273.5v-1153h-166v1153
q0 252 -295 252q-206 0 -328 -108v-27l177 -110v-84q-66 -27 -89.5 -71t-23.5 -132v-133q25 8 59 8z" />
    <glyph glyph-name="uni0E25" unicode="&#xe25;" horiz-adv-x="1075" 
d="M375 154q0 52 -19.5 71t-71.5 19t-74 -20.5t-22 -67.5t22 -68.5t74 -21.5t71.5 18t19.5 70zM512 993q-208 0 -346 -127l-82 99q172 150 430 149q217 0 328.5 -100.5t111.5 -276.5v-737h-166q0 281 -71.5 408t-251.5 127q-211 0 -227 -205q31 6 54 6q185 0 185 -182
q0 -96 -45.5 -140.5t-151.5 -44.5t-153 61.5t-47 184.5q0 440 391 440q111 0 194 -41t123 -118v243q0 254 -276 254z" />
    <glyph glyph-name="uni0E26" unicode="&#xe26;" horiz-adv-x="1243" 
d="M369 154q0 50 -20.5 70t-74 20t-73 -19.5t-19.5 -69.5t20 -68.5t74 -18.5t73.5 18t19.5 68zM664 1114q223 0 340.5 -99.5t117.5 -273.5v-1153h-166v1153q0 252 -292 252q-209 0 -334 -108v-27l215 -129v-84q-45 -37 -56.5 -72.5t-11.5 -115.5v-289q0 -109 -43 -154
t-152 -45t-155.5 44t-46.5 143q0 180 172 180q31 0 59 -6v131q0 80 12.5 126t59.5 91l-205 125v131q201 180 486 180z" />
    <glyph glyph-name="uni0E27" unicode="&#xe27;" horiz-adv-x="952" 
d="M721 153.5q0 49.5 -20.5 70t-72.5 20.5t-72.5 -19.5t-20.5 -69.5t20 -69.5t73.5 -19.5t73 19t19.5 68.5zM405 993q-146 0 -286 -125l-80 97q94 82 181 115.5t206 33.5q223 0 314 -98t91 -285v-563q0 -109 -44 -154t-153.5 -45t-155.5 44q-46 45 -46 139q0 184 172 184
q35 0 62 -8v413q0 131 -57.5 191.5t-203.5 60.5z" />
    <glyph glyph-name="uni0E28" unicode="&#xe28;" horiz-adv-x="1185" 
d="M682 499q0 50 -19.5 68.5t-72.5 18.5t-72.5 -18.5t-19.5 -68.5t20.5 -70.5t72.5 -20.5t71.5 20.5t19.5 70.5zM121 684q0 199 104.5 314.5t358.5 115.5q164 0 266 -51q61 39 74 113l141 -31q-4 -47 -30.5 -94t-69.5 -78q84 -106 84 -289v-684h-166v694q0 150 -64.5 224.5
t-233.5 74.5t-233.5 -74.5t-64.5 -224.5v-209l75 66q33 27 67 57t73.5 52t121.5 22t122 -41t40 -143q0 -184 -196 -185q-78 0 -126 31t-50 82l-127 -111v-315h-166v684z" />
    <glyph glyph-name="uni0E29" unicode="&#xe29;" horiz-adv-x="1296" 
d="M825 648q0 48 -19.5 66.5t-71.5 18.5t-71.5 -17.5t-19.5 -67.5t19.5 -69.5t71.5 -19.5t71.5 20.5t19.5 68.5zM348 929q0 50 -19.5 68.5t-73.5 18.5t-73.5 -18.5t-19.5 -68.5t19.5 -69.5t72.5 -19.5t73.5 19.5t20.5 69.5zM920 658q0 -83 -54 -126q41 -4 74 -4t70 7v548
h166v-698q0 -199 -96.5 -307.5t-344.5 -108.5t-346 108.5t-98 307.5v369q-29 -6 -60 -6q-172 0 -172 180q0 96 46.5 141t154.5 45t152.5 -45t44.5 -154v-534q0 -98 34.5 -194.5t241.5 -96.5q121 0 180.5 36t78 103.5t18.5 188.5q-20 -2 -132 -2t-221.5 49t-109.5 182
q0 94 47 136t144 42t139.5 -42t42.5 -125z" />
    <glyph glyph-name="uni0E2A" unicode="&#xe2a;" horiz-adv-x="1077" 
d="M375 154q0 52 -19.5 71t-71.5 19t-74 -20.5t-22 -67.5t22 -68.5t74 -21.5t71.5 18t19.5 70zM954 0h-166q0 281 -71.5 408t-251.5 127q-211 0 -227 -205q31 6 54 6q185 0 185 -182q0 -96 -45.5 -140.5t-151.5 -44.5t-153 61.5t-47 184.5q0 440 391 440q111 0 194 -41
t123 -118v243q0 254 -276 254q-208 0 -346 -127l-82 99q172 150 430 149q158 0 258 -55q56 33 70 117l141 -31q-2 -45 -31.5 -93t-74.5 -81q78 -96 77 -234v-737z" />
    <glyph glyph-name="uni0E2B" unicode="&#xe2b;" horiz-adv-x="1191" 
d="M1010 929q0 50 -20 68.5t-74 18.5t-73.5 -18.5t-19.5 -68.5t19.5 -69.5t73 -19.5t74 19.5t20.5 69.5zM348 929q0 50 -19.5 68.5t-73.5 18.5t-73.5 -18.5t-19.5 -68.5t19.5 -69.5t72.5 -19.5t73.5 19.5t20.5 69.5zM1071 625v-625h-166v584q0 27 -4 37t-16.5 10t-21.5 -9.5
t-25 -33.5l-394 -588h-153v754q-29 -6 -60 -6q-172 0 -172 180q0 98 46.5 142t156.5 44t152.5 -45t42.5 -154v-686l299 453q23 37 38 53.5t44 26.5q-119 27 -119 158q0 100 45 147t150 47t151.5 -47t46.5 -152q0 -57 -29.5 -99t-85.5 -56q74 -25 74 -135z" />
    <glyph glyph-name="uni0E2C" unicode="&#xe2c;" horiz-adv-x="1304" 
d="M348 929q0 50 -19.5 68.5t-73.5 18.5t-73.5 -18.5t-19.5 -68.5t19.5 -69.5t72.5 -19.5t73.5 19.5t20.5 69.5zM1184 872v-872h-168l-279 621l-278 -621h-168v754q-29 -6 -60 -6q-172 0 -172 180q0 98 46.5 142t156.5 44t152.5 -45t42.5 -154v-630l229 514h100l232 -514
v587q0 94 -33 138.5t-119 44.5h-37v121h35q66 0 98.5 18t44 57t11.5 109v102h166v-106q0 -90 -25.5 -151.5t-91.5 -92.5q117 -65 117 -240z" />
    <glyph glyph-name="uni0E2D" unicode="&#xe2d;" horiz-adv-x="1079" 
d="M397 501q0 50 -19.5 68.5t-73.5 18.5t-73.5 -18.5t-19.5 -68.5t20.5 -69.5t73.5 -19.5t72.5 19.5t19.5 69.5zM499 1114q251 0 355 -99.5t104 -281.5v-444q0 -183 -139 -251.5t-299 -68.5q-237 0 -328.5 95.5t-91.5 250.5v170q0 106 46.5 153.5t155.5 47.5t155.5 -43
t46.5 -135t-45 -140.5t-123 -48.5q-39 0 -70 9v-66q0 -172 254 -172q125 0 199 45t74 133v473q0 131 -70 191.5t-225 60.5q-204 0 -338 -125l-80 97q168 149 419 149z" />
    <glyph glyph-name="uni0E2E" unicode="&#xe2e;" horiz-adv-x="1110" 
d="M397 501q0 50 -19.5 68.5t-73.5 18.5t-73.5 -18.5t-19.5 -68.5t20.5 -69.5t73.5 -19.5t72.5 19.5t19.5 69.5zM510 1114q174 0 276 -53q59 37 72 115l141 -31q-4 -47 -34.5 -97.5t-75.5 -78.5q70 -90 69 -236v-444q0 -183 -139 -251.5t-299 -68.5q-237 0 -328.5 95.5
t-91.5 250.5v170q0 106 46.5 153.5t155.5 47.5t155.5 -43t46.5 -135t-45 -140.5t-123 -48.5q-39 0 -70 9v-66q0 -172 254 -172q125 0 199 45t74 133v473q0 131 -70 191.5t-225 60.5q-204 0 -338 -125l-80 97q169 149 430 149z" />
    <glyph glyph-name="uni0E2F" unicode="&#xe2f;" horiz-adv-x="1003" 
d="M375 929q0 50 -20.5 69.5t-71.5 19.5t-73 -21.5t-22 -69.5t21 -67.5t73 -19.5t72.5 19.5t20.5 69.5zM278 1114q200 0 199 -179q0 -87 -41 -130t-108 -43q-33 0 -58 6q35 -61 175 -61t208 89t68 287h162v-1083h-164v698q-86 -113 -277 -112q-156 0 -259 76.5t-103 228.5
q0 115 46 169t152 54z" />
    <glyph glyph-name="uni0E30" unicode="&#xe30;" horiz-adv-x="825" 
d="M369 293q0 51 -19.5 70.5t-73 19.5t-73 -18.5t-19.5 -68.5t21.5 -70.5t70.5 -20.5q93 0 93 88zM438 57q-141 0 -249.5 54.5t-108.5 177.5q0 192 199 192q104 0 147 -43t44 -132t-62 -120q37 -8 90 -4q104 2 178 76l69 -90q-90 -111 -307 -111zM369 864q0 51 -19.5 69.5
t-73 18.5t-73 -18.5t-19.5 -67.5t21.5 -69.5t70.5 -20.5q93 0 93 88zM80 860q0 193 199 193q104 0 147 -44t45 -135q0 -37 -17.5 -70.5t-45.5 -47.5q23 -4 30 -4h60q104 6 178 75l69 -88q-90 -111 -307 -110q-141 0 -249.5 54t-108.5 177z" />
    <glyph glyph-name="uni0E31" unicode="&#xe31;" 
d="M-356 1488q0 50 -19.5 68.5t-73 18.5t-73 -18.5t-19.5 -68.5t19.5 -69.5t72 -19.5t73 19.5t20.5 69.5zM-252 1502.5q0 -84.5 -61 -132.5q37 -6 108.5 -6t152.5 28.5t136 82.5l72 -95q-143 -137 -402 -137q-401 0 -401 242q0 190 201 190q104 0 149 -44t45 -128.5z" />
    <glyph glyph-name="uni0E32" unicode="&#xe32;" horiz-adv-x="905" 
d="M399 1114q213 0 299 -99.5t86 -283.5v-731h-166v733q0 135 -49 197.5t-191 62.5t-259 -112l-80 98q147 135 360 135z" />
    <glyph glyph-name="uni0E33" unicode="&#xe33;" horiz-adv-x="905" 
d="M399 1114q213 0 299 -99.5t86 -283.5v-731h-166v733q0 135 -49 197.5t-191 62.5t-259 -112l-80 98q147 135 360 135zM-305 1434q0 -84 93 -84t93 85t-92 85q-49 0 -71.5 -20.5t-22.5 -65.5zM-416 1433.5q0 94.5 55.5 143.5t149.5 49t148.5 -49t54.5 -143.5t-54.5 -142.5
t-148.5 -48t-149.5 48t-55.5 142.5z" />
    <glyph glyph-name="uni0E34" unicode="&#xe34;" 
d="M-579.5 1475q-108.5 0 -187.5 -35t-97 -97h571q-18 61 -98 96.5t-188.5 35.5zM-579 1581q189 0 315.5 -87t140.5 -251h-913q14 164 141 251t316 87z" />
    <glyph glyph-name="uni0E35" unicode="&#xe35;" 
d="M-582 1475q-107 0 -184.5 -35t-95.5 -97h575q-35 63 -111.5 97.5t-183.5 34.5zM-580 1581q90 0 172 -26.5t134 -75.5v190h153v-426h-913q14 164 140 251t314 87z" />
    <glyph glyph-name="uni0E36" unicode="&#xe36;" 
d="M-577.5 1475q-106.5 0 -186.5 -35t-98 -97h571q-27 53 -103.5 92.5t-183 39.5zM-252 1458q76 0 76 78q0 41 -17.5 56.5t-61.5 15.5t-61.5 -15.5t-17.5 -53.5t21.5 -59.5t60.5 -21.5zM-82 1530q0 -114 -90 -141q47 -57 53 -146h-913q14 164 140 251t317 87q88 0 153 -22
q8 137 166 137q98 0 136 -38t38 -128z" />
    <glyph glyph-name="uni0E37" unicode="&#xe37;" 
d="M-285 1343q-80 131 -295 132q-109 0 -186.5 -35t-95.5 -97h577zM-582 1577q45 0 90 -10v102h144v-137q53 -25 84 -55v192h143v-426h-913q16 160 142 247t310 87z" />
    <glyph glyph-name="uni0E38" unicode="&#xe38;" 
d="M-229 -306q0 50 -19.5 68.5t-74 18.5t-74 -18.5t-19.5 -68.5t19.5 -69.5t73 -19.5t74 19.5t20.5 69.5zM-346 -487q-172 0 -172 180q0 98 46 142t156 44t152.5 -45t42.5 -153v-363h-166v203q-25 -8 -59 -8z" />
    <glyph glyph-name="uni0E39" unicode="&#xe39;" 
d="M-522 -296q0 48 -19.5 66.5t-71 18.5t-72 -18.5t-20.5 -66.5t20.5 -67.5t71 -19.5t71 19.5t20.5 67.5zM-563 -483v18q-31 -10 -68 -10q-176 0 -176 178q0 96 46 136t153 40t148.5 -44t41.5 -150v-138q0 -47 15.5 -63t59.5 -16t58.5 16t14.5 63v320h147v-324
q0 -94 -52 -142t-171 -48q-217 0 -217 164z" />
    <glyph glyph-name="uni0E3A" unicode="&#xe3a;" 
d="M-305 -251q0 54 21.5 74.5t77.5 20.5t79 -20.5t23 -73.5t-23 -74.5t-79 -21.5t-77.5 20.5t-21.5 74.5z" />
    <glyph glyph-name="uni0E3F" unicode="&#xe3f;" horiz-adv-x="1173" 
d="M717 121q104 0 161.5 62.5t57.5 185.5t-61.5 181t-198.5 58h-316v-487h357zM659 729q121 0 186.5 63.5t65.5 182.5t-54 174t-181 55h-316v-475h299zM887 674q207 -64 207 -332q0 -136 -90.5 -239t-253.5 -103h-105v-246h-153v246h-433v121h66q39 0 55.5 17.5t16.5 58.5
v933q0 41 -16.5 57.5t-55.5 16.5h-66v121h433v246h153v-246h66q176 0 267 -92t91 -256q0 -104 -46 -184t-136 -119z" />
    <glyph glyph-name="uni0E40" unicode="&#xe40;" horiz-adv-x="557" 
d="M416 154q0 50 -20.5 70t-72.5 20t-73 -20.5t-21 -69.5t19.5 -68.5t73 -19.5t74 19t20.5 69zM346 336q172 0 172 -184q0 -94 -46 -138.5t-156 -44.5t-152.5 45t-42.5 154v915h166v-755q37 8 59 8z" />
    <glyph glyph-name="uni0E41" unicode="&#xe41;" horiz-adv-x="1071" 
d="M930 154q0 50 -20.5 70t-72.5 20t-73 -20.5t-21 -69.5t19.5 -68.5t73 -19.5t74 19t20.5 69zM416 154q0 50 -20.5 70t-72.5 20t-73 -20.5t-21 -69.5t19.5 -68.5t73 -19.5t74 19t20.5 69zM860 336q172 0 172 -184q0 -94 -46 -138.5t-156 -44.5t-152.5 45t-42.5 154v915h166
v-755q37 8 59 8zM346 336q172 0 172 -184q0 -94 -46 -138.5t-156 -44.5t-152.5 45t-42.5 154v915h166v-755q37 8 59 8z" />
    <glyph glyph-name="uni0E42" unicode="&#xe42;" horiz-adv-x="665" 
d="M494 154q0 50 -21 70t-73 20t-72.5 -20.5t-20.5 -69.5t19.5 -68.5t73 -19.5t74 19t20.5 69zM424 336q172 0 172 -184q0 -94 -46 -138.5t-156 -44.5t-152.5 45t-42.5 154v846q0 112 -20.5 136t-59.5 44l-182 96v150q150 121 364 121t346 -82l-67 -103q-111 63 -275 64
q-59 0 -117.5 -15.5t-91.5 -40.5v-36l154 -80q51 -27 75.5 -55.5t32 -73.5t7.5 -131v-680q37 8 59 8z" />
    <glyph glyph-name="uni0E43" unicode="&#xe43;" horiz-adv-x="688" 
d="M539 154q0 50 -20.5 70t-72.5 20t-73 -20.5t-21 -69.5t19.5 -68.5t73 -19.5t74 19t20.5 69zM469 336q172 0 172 -184q0 -94 -45.5 -138.5t-155.5 -44.5t-153 45t-43 154v604q0 63 34.5 119.5t101.5 133.5t98.5 128t31.5 109q0 153 -186 153q-94 0 -148.5 -41t-54.5 -117
v-63h-164v61q0 133 105.5 207t271.5 74t251 -73.5t85 -200.5q0 -72 -36 -133.5t-102 -140.5t-94 -125t-28 -97v-438q37 8 59 8z" />
    <glyph glyph-name="uni0E44" unicode="&#xe44;" horiz-adv-x="600" 
d="M446 154q0 50 -20 70t-72 20t-73 -20.5t-21 -69.5t19.5 -68.5t73 -19.5t73.5 19t20 69zM377 336q172 0 172 -184q0 -94 -45.5 -138.5t-155.5 -44.5t-153 45t-43 154v838q0 113 24.5 182t87.5 135l105 107h-432v120h645v-100l-170 -168q-55 -55 -75 -113.5t-20 -162.5
v-678q37 8 60 8z" />
    <glyph glyph-name="uni0E45" unicode="&#xe45;" horiz-adv-x="905" 
d="M399 1114q213 0 299 -99.5t86 -283.5v-1143h-166v1145q0 135 -49 197.5t-191 62.5t-259 -112l-80 98q147 135 360 135z" />
    <glyph glyph-name="uni0E46" unicode="&#xe46;" horiz-adv-x="1038" 
d="M352 640q0 50 -19.5 69.5t-71.5 19.5t-72.5 -19.5t-20.5 -69.5t19.5 -68.5t72.5 -18.5t72.5 18.5t19.5 68.5zM752 848q0 82 -20.5 113.5t-76.5 31.5q-100 0 -100 -116v-19h-143v19q0 57 -21 86.5t-77 29.5t-77.5 -43t-21.5 -137q31 8 76 8q168 -10 168 -182
q0 -96 -48.5 -140t-156.5 -44t-151.5 58t-43.5 175v133q0 141 61.5 217t176.5 76q80 0 125 -30.5t61 -98.5q39 129 201 129q119 0 176.5 -63.5t57.5 -212.5v-838h-166v848z" />
    <glyph glyph-name="uni0E47" unicode="&#xe47;" 
d="M-274 1389q0 41 -18.5 59t-61.5 18t-60.5 -17t-17.5 -60t16.5 -58.5t61.5 -15.5t62.5 16.5t17.5 57.5zM-186 1395q0 -166 -157 -166q-77 0 -119 15.5t-81 53.5l-65 64l-121 -117h-127v242q0 233 242 233h424v-108h-410q-70 0 -100.5 -29t-30.5 -100v-107l88 88h72l53 -57
q0 78 40 111.5t124 33.5t126 -36.5t42 -120.5z" />
    <glyph glyph-name="uni0E48" unicode="&#xe48;" 
d="M-287 1587h166v-344h-166v344z" />
    <glyph glyph-name="uni0E49" unicode="&#xe49;" 
d="M-424 1521q0 40 -17.5 55t-61.5 15t-59.5 -14t-15.5 -55t16.5 -57.5t60.5 -16.5t60.5 16.5t16.5 56.5zM-610 1339q92 0 110 47q-12 -2 -41 -2q-125 6 -125 136q0 78 40 112.5t128 34.5t125 -36t37 -133.5t-57 -147.5q109 2 165 65.5t56 175.5v27h137v-33q0 -92 -39 -170
t-115.5 -126t-189.5 -48h-231v98z" />
    <glyph glyph-name="uni0E4A" unicode="&#xe4a;" 
d="M-504 1418q0 46 -18.5 62.5t-66.5 16.5t-66.5 -16.5t-18.5 -61.5t18.5 -64.5t65.5 -19.5t66.5 18.5t19.5 64.5zM-319 1427q1 56 -41 56q-22 0 -36 -17.5t-14 -46.5q0 -176 -182 -176q-90 0 -134 40t-44 132t42 134t143.5 42t135.5 -63q41 63 125 63q121 0 121 -129v-71
h21q39 0 56 24.5t17 85.5v86h115v-88q0 -125 -54 -171t-153 -46h-118v145z" />
    <glyph glyph-name="uni0E4B" unicode="&#xe4b;" 
d="M-428 1350h-143v118h143v111h164v-111h143v-118h-143v-107h-164v107z" />
    <glyph glyph-name="uni0E4C" unicode="&#xe4c;" 
d="M-381 1421q0 47 -19.5 66.5t-68.5 19.5t-68.5 -18.5t-19.5 -66.5t18.5 -65.5t68.5 -17.5t69.5 17.5t19.5 64.5zM-655 1425q0 233 387 234h260v-115h-215q-80 0 -123 -8q66 -45 60.5 -128t-47.5 -124t-136 -41t-140 44t-46 138z" />
    <glyph glyph-name="uni0E4D" unicode="&#xe4d;" 
d="M-305 1434q0 -84 93 -84t93 85t-92 85q-49 0 -71.5 -20.5t-22.5 -65.5zM-416 1433.5q0 94.5 55.5 143.5t149.5 49t148.5 -49t54.5 -143.5t-54.5 -142.5t-148.5 -48t-149.5 48t-55.5 142.5z" />
    <glyph glyph-name="uni0E4E" unicode="&#xe4e;" 
d="M-318 1210q-198 0 -198 159q0 79 74 120q-74 41 -74 116t47 113.5t117 38.5h147v-112h-114q-66 0 -66 -55.5t66 -55.5h75v-94h-73q-76 0 -76 -70q0 -61 76 -61q55 0 84 32l67 -61q-52 -70 -152 -70z" />
    <glyph glyph-name="uni0E4F" unicode="&#xe4f;" horiz-adv-x="1204" 
d="M786 490q0 93 -50 142.5t-135 49.5t-135 -49t-50 -143t50 -141.5t135 -47.5t135 48t50 141zM297 490q0 138 79 223.5t226.5 85.5t226 -85.5t78.5 -223.5t-78.5 -222t-226 -84t-226.5 84t-79 222zM995 489.5q0 198.5 -107.5 303t-286.5 104.5t-285.5 -104.5t-106.5 -303
t106.5 -301t285.5 -102.5t286.5 102.5t107.5 301zM80 489.5q0 235.5 135 380t387 144.5t387 -144.5t135 -380t-135 -378t-387 -142.5t-387 142.5t-135 378z" />
    <glyph glyph-name="uni0E50" unicode="&#xe50;" horiz-adv-x="1226" 
d="M987 489.5q0 198.5 -99.5 299t-274.5 100.5t-274 -101.5t-99 -299.5t99 -297t274 -99t274.5 99.5t99.5 298zM80 490q0 238 136 381t396 143t397.5 -142.5t137.5 -381.5t-136.5 -380t-397.5 -141t-397 141.5t-136 379.5z" />
    <glyph glyph-name="uni0E51" unicode="&#xe51;" horiz-adv-x="1230" 
d="M705 476q0 48 -21.5 68.5t-73.5 20.5t-73 -19.5t-21 -69.5t21 -69.5t73 -19.5t73.5 20.5t21.5 68.5zM561 299q-147 22 -147 186q0 177 198 177q109 0 154 -50.5t45 -147.5t-45 -166t-130 -108.5t-202 -39.5q-160 0 -257 96t-97 262q0 225 137 349t407 124t398.5 -143.5
t128.5 -383.5t-160 -391t-497 -194l-29 129q268 37 397 145.5t129 325.5q0 389 -385 389q-180 0 -275 -87t-95 -259q0 -115 55 -177.5t137 -62.5t133 27z" />
    <glyph glyph-name="uni0E52" unicode="&#xe52;" horiz-adv-x="1363" 
d="M668 486q0 50 -19 69.5t-71 19.5t-72.5 -20.5t-20.5 -68.5t19.5 -66.5t71.5 -18.5t72 17.5t20 67.5zM121 420v694h164v-713q0 -152 96 -230.5t283 -78.5q416 0 415 330v309q0 94 -21.5 126t-84.5 32q-106 0 -107 -127v-37h-133v37q0 66 -23.5 96.5t-80.5 30.5t-80 -42
t-23 -149v-41q37 10 74 7q164 -6 164 -177q0 -96 -45 -138t-147 -42t-148.5 50.5t-46.5 158.5v195q0 303 237 303q78 0 123 -31t66 -98q47 129 205 129q131 0 183 -67.5t52 -225.5v-293q0 -207 -141.5 -333t-417.5 -126t-419.5 117t-143.5 334z" />
    <glyph glyph-name="uni0E53" unicode="&#xe53;" horiz-adv-x="1249" 
d="M416 154q0 52 -19.5 71t-73 19t-74 -20.5t-20.5 -69.5t20.5 -68.5t74 -19.5t73 18t19.5 70zM346 336q172 0 172 -184q0 -94 -47 -138.5t-155 -44.5t-151.5 45t-43.5 154v543q0 150 72.5 226.5t201.5 76.5q86 0 147.5 -33t80.5 -96q51 129 233 129q137 0 204.5 -74
t67.5 -229v-711h-161v707q0 102 -29 142t-98 40t-107.5 -34t-38.5 -97v-273h-145v273q1 131 -135 131q-68 0 -101.5 -42t-33.5 -142v-377q37 8 67 8z" />
    <glyph glyph-name="uni0E54" unicode="&#xe54;" horiz-adv-x="1239" 
d="M872 494q0 50 -19 69t-73 19t-74 -18.5t-20 -68.5t20.5 -71t74 -21t72.5 20.5t19 70.5zM80 350v203q0 193 114.5 311.5t337.5 118.5h267q115 0 177 23.5t130 101.5l94 -78q-72 -98 -164 -133t-264 -35h-223q-156 0 -231.5 -83t-75.5 -230v-195q0 -111 48 -171t142 -60
h213q-63 66 -63 209v137q0 113 42 161t151 48t155.5 -43t46.5 -135q0 -187 -168 -187q-47 0 -76 11v-23q0 -178 160 -178h203v-123h-672q-164 0 -254 94t-90 256z" />
    <glyph glyph-name="uni0E55" unicode="&#xe55;" horiz-adv-x="1239" 
d="M872 494q0 50 -19 69t-73 19t-74 -18.5t-20 -68.5t20.5 -71t74 -21t72.5 20.5t19 70.5zM809 1039q0 50 -19.5 68.5t-73.5 18.5t-73.5 -18t-19.5 -68t20.5 -70t73.5 -20t72.5 19.5t19.5 69.5zM80 350v203q0 190 114.5 309t337.5 121q-12 25 -12 64q0 94 45 136t145 42
t146.5 -40t46.5 -130q0 -35 -6 -66q66 8 113 34t96 85l94 -78q-72 -98 -164 -133t-264 -35h-223q-156 0 -231.5 -83t-75.5 -230v-195q0 -111 48 -171t142 -60h213q-63 66 -63 209v137q0 113 42 161t151 48t155.5 -43t46.5 -135q0 -187 -168 -187q-47 0 -76 11v-23
q0 -178 160 -178h203v-123h-672q-164 0 -254 94t-90 256z" />
    <glyph glyph-name="uni0E56" unicode="&#xe56;" horiz-adv-x="1206" 
d="M467 284q0 52 -19.5 70.5t-72.5 18.5t-73.5 -19.5t-20.5 -68.5t21.5 -69.5t73.5 -20.5t71.5 18.5t19.5 70.5zM664 1014q237 0 360 -149t123 -385t-133 -373.5t-385 -137.5q-207 0 -331 76t-124 213q0 111 45 161t151 50t152.5 -44t46.5 -133t-30.5 -128t-92.5 -47
q73 -25 183 -25q176 0 267 100t91 288t-87 298.5t-253 110.5q-203 0 -307 -154h-143l-158 359l141 49l115 -266q132 137 369 137z" />
    <glyph glyph-name="uni0E57" unicode="&#xe57;" horiz-adv-x="1591" 
d="M416 154q0 52 -19.5 71t-73 19t-74 -20.5t-20.5 -69.5t20.5 -68.5t74 -19.5t73 18t19.5 70zM526 750q0 139 -126 139q-66 0 -95 -44t-29 -149v-368q37 8 72 8q170 0 170 -180q0 -98 -47 -142.5t-155 -44.5t-151.5 45t-43.5 154v543q0 150 69.5 226.5t192.5 76.5
q177 0 217 -129q47 129 223 129q127 0 195.5 -75t68.5 -228v-590q175 0 198.5 85t23.5 187v721h161v-711q0 -195 -81.5 -299t-296.5 -104h-166v698q0 109 -24.5 150t-97.5 41t-102.5 -36t-29.5 -103v-265h-146v265z" />
    <glyph glyph-name="uni0E58" unicode="&#xe58;" horiz-adv-x="1183" 
d="M985 506q0 49 -19.5 68.5t-72.5 19.5t-72.5 -18.5t-19.5 -69.5t19.5 -70.5t71.5 -19.5t72.5 20.5t20.5 69.5zM698 504q0 96 47 139t153 43t152 -47t46 -152v-215q0 -150 -78 -226.5t-207 -76.5q-88 0 -150.5 32t-80.5 97q-47 -129 -228 -129q-139 0 -205.5 74t-66.5 229
v314q0 186 101.5 291.5t299.5 105.5h209q137 0 204 23.5t134 101.5l94 -78q-66 -90 -152.5 -129t-234.5 -39h-223q-143 0 -208.5 -66.5t-65.5 -211.5v-322q0 -88 30 -128t100 -40t105 37t35 96v90h154v-98q0 -125 129 -125q74 0 108.5 42t34.5 138v62q-27 -8 -72 -8
q-164 8 -164 176z" />
    <glyph glyph-name="uni0E59" unicode="&#xe59;" horiz-adv-x="1316" 
d="M416 154q0 52 -19.5 71t-73 19t-74 -20.5t-20.5 -69.5t20.5 -68.5t74 -19.5t73 18t19.5 70zM346 336q172 0 172 -184q0 -94 -47 -138.5t-155 -44.5t-151.5 45t-43.5 154v537q0 156 68.5 232.5t216.5 76.5q84 0 132 -29t78 -84q62 113 226 113q86 0 143 -51.5t57 -137.5
q61 0 87 47.5t26 141.5h123q0 -145 -62.5 -229.5t-195.5 -84.5h-90q0 96 -21 142.5t-83 46.5t-94 -27.5t-32 -62.5t2 -45l146 -754h-152l-141 739q-16 78 -43.5 114t-99.5 36t-102.5 -43t-30.5 -148v-370q31 8 67 8z" />
    <glyph glyph-name="uni0E5A" unicode="&#xe5a;" horiz-adv-x="1484" 
d="M375 929q0 50 -20.5 69.5t-71.5 19.5t-73 -21.5t-22 -69.5t21 -67.5t73 -19.5t72.5 19.5t20.5 69.5zM278 1114q200 0 199 -179q0 -87 -41 -130t-108 -43q-33 0 -58 6q35 -61 175 -61t208 89t68 287h162v-376q174 0 245.5 89t71.5 287h164v-1083h-164l-2 698
q-117 -113 -315 -112v-586h-164v698q-86 -113 -277 -112q-156 0 -259 76.5t-103 228.5q0 115 46 169t152 54z" />
    <glyph glyph-name="uni0E5B" unicode="&#xe5b;" horiz-adv-x="2318" 
d="M645 494q0 50 -18.5 68t-70.5 18t-72.5 -18.5t-20.5 -66.5t21.5 -68.5t71.5 -20.5t69.5 19t19.5 69zM80 473q0 233 114 373.5t360 140.5t356 -107.5t110 -287.5t-85 -276.5t-241 -96.5t-240.5 70.5t-84.5 180.5t43 156t139 46t142 -42t46 -136q0 -131 -129 -156
q43 -14 115 -14t116 63.5t44 203.5t-72.5 207.5t-256.5 67.5t-259.5 -100t-75.5 -286t114.5 -288t324.5 -102t336 116t126 333q0 164 51.5 232.5t174.5 68.5t169 -64.5t46 -177.5v-98q0 -129 19.5 -146.5t57.5 -17.5t55 29.5t17 95.5v86q0 127 48 176t153 49q186 0 186 -213
v-31h180v-120h-309v116q0 72 -10 100.5t-46 28.5t-50.5 -12t-17.5 -40t-3 -89v-53q0 -242 -207 -242q-117 0 -163 63.5t-46 215.5v88q0 68 -16 97.5t-59 29.5t-69 -23t-26 -175q0 -151 -69.5 -274.5t-206.5 -196.5t-327 -73t-316.5 64.5t-192 178.5t-65.5 261z" />
    <glyph glyph-name="uni1E0C" unicode="&#x1e0c;" horiz-adv-x="1277" 
d="M463 -129h164v-168h-164v168zM625 121q217 0 316 134t99 406t-98 407.5t-317 135.5h-260v-1083h260zM80 121h49q39 0 55.5 17.5t16.5 58.5v933q0 41 -16.5 57.5t-55.5 16.5h-49v121h565q281 0 417 -175.5t136 -485.5t-140 -487t-413 -177h-565v121z" />
    <glyph glyph-name="uni1E0D" unicode="&#x1e0d;" horiz-adv-x="1193" 
d="M508 -129h164v-168h-164v168zM860 442v109q0 160 -84 250t-234 90q-304 0 -304 -412q0 -199 73 -293t223 -94t238 97.5t88 252.5zM80 482q0 249 113.5 390.5t320.5 141.5q129 0 211 -37t135 -123v287q0 53 -15.5 73.5t-64.5 20.5h-39v121h283v-1155q0 -45 14.5 -62.5
t51.5 -17.5h45v-121h-244l-21 150q-114 -181 -362 -181q-201 0 -314.5 132t-113.5 381z" />
    <glyph glyph-name="uni1E0E" unicode="&#x1e0e;" horiz-adv-x="1277" 
d="M266 -143h574v-117h-574v117zM625 121q217 0 316 134t99 406t-98 407.5t-317 135.5h-260v-1083h260zM80 121h49q39 0 55.5 17.5t16.5 58.5v933q0 41 -16.5 57.5t-55.5 16.5h-49v121h565q281 0 417 -175.5t136 -485.5t-140 -487t-413 -177h-565v121z" />
    <glyph glyph-name="uni1E0F" unicode="&#x1e0f;" horiz-adv-x="1193" 
d="M350 -143h574v-117h-574v117zM860 442v109q0 160 -84 250t-234 90q-304 0 -304 -412q0 -199 73 -293t223 -94t238 97.5t88 252.5zM80 482q0 249 113.5 390.5t320.5 141.5q129 0 211 -37t135 -123v287q0 53 -15.5 73.5t-64.5 20.5h-39v121h283v-1155q0 -45 14.5 -62.5
t51.5 -17.5h45v-121h-244l-21 150q-114 -181 -362 -181q-201 0 -314.5 132t-113.5 381z" />
    <glyph glyph-name="uni1E20" unicode="&#x1e20;" horiz-adv-x="1251" 
d="M80 655q0 315 156.5 508t470.5 193q270 0 423 -111v-184h-163v121q-96 51 -260 51q-225 0 -347 -152.5t-122 -420.5t129 -418t356 -150q168 0 287 51v416h-299v123h460v-592q-184 -121 -452 -121q-205 0 -349.5 87t-217 243t-72.5 356zM403 1595h574v-116h-574v116z" />
    <glyph glyph-name="uni1E21" unicode="&#x1e21;" horiz-adv-x="1193" 
d="M549 891q-311 0 -311 -389q0 -209 75 -305.5t227 -96.5t236 88t84 248v105q0 158 -84 254t-227 96zM633 -410q-226 0 -375 131v138h148v-80q74 -66 207 -66t190 66.5t57 193.5v170q-57 -88 -140 -127t-208 -39q-205 0 -318.5 137.5t-113.5 385.5t118.5 381t323.5 133
q119 0 203 -43t145 -137l21 149h244v-109h-50q-37 0 -51 -19t-14 -64v-797q0 -182 -105.5 -293t-281.5 -111zM285 1237h573v-117h-573v117z" />
    <glyph glyph-name="uni1E24" unicode="&#x1e24;" horiz-adv-x="1390" 
d="M612 -129h164v-168h-164v168zM80 121h65q39 0 55.5 17.5t16.5 58.5v933q0 41 -16.5 57.5t-55.5 16.5h-65v121h434v-121h-61q-39 0 -55.5 -16.5t-16.5 -57.5v-405h629v405q0 41 -16.5 57.5t-55.5 16.5h-64v121h437v-121h-64q-39 0 -56 -16.5t-17 -57.5v-933
q0 -41 16 -58.5t57 -17.5h64v-121h-437v121h64q39 0 55.5 17.5t16.5 58.5v407h-629v-407q0 -41 16.5 -58.5t55.5 -17.5h61v-121h-434v121z" />
    <glyph glyph-name="uni1E25" unicode="&#x1e25;" horiz-adv-x="1230" 
d="M559 -129h164v-168h-164v168zM80 121h65q39 0 55.5 17.5t16.5 58.5v964q0 41 -16.5 57.5t-55.5 16.5h-65v121h291v-486q72 76 153.5 110t217.5 34t216 -88t80 -250v-479q0 -41 16.5 -58.5t55.5 -17.5h66v-121h-304v674q0 115 -50 166t-164 51t-195.5 -68.5t-81.5 -189.5
v-436q0 -41 15.5 -58.5t54.5 -17.5h67v-121h-438v121z" />
    <glyph glyph-name="uni1E2A" unicode="&#x1e2a;" horiz-adv-x="1390" 
d="M389 -100h133q0 -80 47 -123t128 -43t126 43t45 123h133q0 -127 -83.5 -204t-221 -77t-222.5 76t-85 205zM80 121h65q39 0 55.5 17.5t16.5 58.5v933q0 41 -16.5 57.5t-55.5 16.5h-65v121h434v-121h-61q-39 0 -55.5 -16.5t-16.5 -57.5v-405h629v405q0 41 -16.5 57.5
t-55.5 16.5h-64v121h437v-121h-64q-39 0 -56 -16.5t-17 -57.5v-933q0 -41 16 -58.5t57 -17.5h64v-121h-437v121h64q39 0 55.5 17.5t16.5 58.5v407h-629v-407q0 -41 16.5 -58.5t55.5 -17.5h61v-121h-434v121z" />
    <glyph glyph-name="uni1E2B" unicode="&#x1e2b;" horiz-adv-x="1230" 
d="M358 -100h134q0 -80 47 -123t128 -43t126 43t45 123h133q0 -127 -84 -204t-221.5 -77t-222.5 76t-85 205zM80 121h65q39 0 55.5 17.5t16.5 58.5v964q0 41 -16.5 57.5t-55.5 16.5h-65v121h291v-486q72 76 153.5 110t217.5 34t216 -88t80 -250v-479q0 -41 16.5 -58.5
t55.5 -17.5h66v-121h-304v674q0 115 -50 166t-164 51t-195.5 -68.5t-81.5 -189.5v-436q0 -41 15.5 -58.5t54.5 -17.5h67v-121h-438v121z" />
    <glyph glyph-name="uni1E36" unicode="&#x1e36;" horiz-adv-x="1036" 
d="M449 -129h163v-168h-163v168zM80 121h43q45 0 61.5 17.5t16.5 58.5v933q0 41 -16.5 57.5t-55.5 16.5h-49v121h405v-121h-49q-39 0 -55 -16.5t-16 -57.5v-1009h430q41 0 58 16.5t17 57.5v53h148v-248h-938v121z" />
    <glyph glyph-name="uni1E37" unicode="&#x1e37;" horiz-adv-x="589" 
d="M217 -129h164v-168h-164v168zM80 121h65q39 0 55.5 17.5t16.5 58.5v964q0 41 -16.5 57.5t-55.5 16.5h-65v121h301v-1159q0 -41 16.5 -58.5t55.5 -17.5h65v-121h-438v121z" />
    <glyph glyph-name="uni1E38" unicode="&#x1e38;" horiz-adv-x="1036" 
d="M440 -129h164v-168h-164v168zM80 121h43q45 0 61.5 17.5t16.5 58.5v933q0 41 -16.5 57.5t-55.5 16.5h-49v121h405v-121h-49q-39 0 -55 -16.5t-16 -57.5v-1009h430q41 0 58 16.5t17 57.5v53h148v-248h-938v121zM41 1589h573v-116h-573v116z" />
    <glyph glyph-name="uni1E39" unicode="&#x1e39;" horiz-adv-x="589" 
d="M217 -129h164v-168h-164v168zM80 121h65q39 0 55.5 17.5t16.5 58.5v964q0 41 -16.5 57.5t-55.5 16.5h-65v121h301v-1159q0 -41 16.5 -58.5t55.5 -17.5h65v-121h-438v121zM-10 1579h573v-117h-573v117z" />
    <glyph glyph-name="uni1E3A" unicode="&#x1e3a;" horiz-adv-x="1036" 
d="M248 -143h573v-117h-573v117zM80 121h43q45 0 61.5 17.5t16.5 58.5v933q0 41 -16.5 57.5t-55.5 16.5h-49v121h405v-121h-49q-39 0 -55 -16.5t-16 -57.5v-1009h430q41 0 58 16.5t17 57.5v53h148v-248h-938v121z" />
    <glyph glyph-name="uni1E3B" unicode="&#x1e3b;" horiz-adv-x="589" 
d="M8 -143h574v-117h-574v117zM80 121h65q39 0 55.5 17.5t16.5 58.5v964q0 41 -16.5 57.5t-55.5 16.5h-65v121h301v-1159q0 -41 16.5 -58.5t55.5 -17.5h65v-121h-438v121z" />
    <glyph glyph-name="uni1E42" unicode="&#x1e42;" horiz-adv-x="1587" 
d="M713 -129h164v-168h-164v168zM80 121h65q39 0 55.5 17.5t16.5 58.5v931q0 41 -16.5 58.5t-55.5 17.5h-65v121h323l392 -915l389 915h323v-121h-65q-39 0 -55.5 -17.5t-16.5 -58.5v-931q0 -41 16.5 -58.5t55.5 -17.5h65v-121h-438v121h68q39 0 55 17.5t16 56.5v866
l-348 -817h-133l-348 817v-866q0 -39 16.5 -56.5t55.5 -17.5h67v-121h-438v121z" />
    <glyph glyph-name="uni1E43" unicode="&#x1e43;" horiz-adv-x="1742" 
d="M811 -129h164v-168h-164v168zM670 1014q187 0 245 -170q49 86 126 128t196 42q164 0 236.5 -83t72.5 -249v-485q0 -41 16.5 -58.5t55.5 -17.5h65v-121h-301v682q0 115 -43 162t-148 47t-169 -61.5t-64 -176.5v-456q0 -43 15.5 -59.5t54.5 -16.5h64v-121h-287v674
q0 111 -41.5 164t-147.5 53t-171.5 -66.5t-65.5 -191.5v-436q0 -41 15.5 -58.5t54.5 -17.5h63v-121h-432v121h65q39 0 55.5 17.5t16.5 58.5v591q0 41 -16.5 57.5t-55.5 16.5h-65v121h248l14 -139q53 86 131 128t197 42z" />
    <glyph glyph-name="uni1E44" unicode="&#x1e44;" horiz-adv-x="1409" 
d="M80 121h65q39 0 55.5 16.5t16.5 57.5v935q0 41 -16.5 57.5t-55.5 16.5h-65v121h272l678 -1051v856q0 41 -16.5 57.5t-57.5 16.5h-65v121h438v-121h-65q-39 0 -55.5 -16.5t-16.5 -57.5v-1130h-135l-678 1049v-854q0 -39 17.5 -56.5t56.5 -17.5h65v-121h-438v121zM625 1645
h163v-168h-163v168z" />
    <glyph glyph-name="uni1E45" unicode="&#x1e45;" horiz-adv-x="1234" 
d="M717 1014q321 0 321 -338v-479q0 -41 16.5 -58.5t55.5 -17.5h66v-121h-304v674q0 115 -48 166t-164 51t-197.5 -68.5t-81.5 -189.5v-436q0 -41 15.5 -58.5t54.5 -17.5h67v-121h-438v121h65q39 0 55.5 17.5t16.5 58.5v589q0 41 -16.5 58.5t-55.5 17.5h-65v121h252l12 -139
q70 90 158 130t215 40zM559 1286h164v-168h-164v168z" />
    <glyph glyph-name="uni1E46" unicode="&#x1e46;" horiz-adv-x="1409" 
d="M639 -129h164v-168h-164v168zM80 121h65q39 0 55.5 16.5t16.5 57.5v935q0 41 -16.5 57.5t-55.5 16.5h-65v121h272l678 -1051v856q0 41 -16.5 57.5t-57.5 16.5h-65v121h438v-121h-65q-39 0 -55.5 -16.5t-16.5 -57.5v-1130h-135l-678 1049v-854q0 -39 17.5 -56.5
t56.5 -17.5h65v-121h-438v121z" />
    <glyph glyph-name="uni1E47" unicode="&#x1e47;" horiz-adv-x="1234" 
d="M563 -129h164v-168h-164v168zM717 1014q321 0 321 -338v-479q0 -41 16.5 -58.5t55.5 -17.5h66v-121h-304v674q0 115 -48 166t-164 51t-197.5 -68.5t-81.5 -189.5v-436q0 -41 15.5 -58.5t54.5 -17.5h67v-121h-438v121h65q39 0 55.5 17.5t16.5 58.5v589q0 41 -16.5 58.5
t-55.5 17.5h-65v121h252l12 -139q70 90 158 130t215 40z" />
    <glyph glyph-name="uni1E48" unicode="&#x1e48;" horiz-adv-x="1409" 
d="M412 -143h573v-117h-573v117zM80 121h65q39 0 55.5 16.5t16.5 57.5v935q0 41 -16.5 57.5t-55.5 16.5h-65v121h272l678 -1051v856q0 41 -16.5 57.5t-57.5 16.5h-65v121h438v-121h-65q-39 0 -55.5 -16.5t-16.5 -57.5v-1130h-135l-678 1049v-854q0 -39 17.5 -56.5
t56.5 -17.5h65v-121h-438v121z" />
    <glyph glyph-name="uni1E49" unicode="&#x1e49;" horiz-adv-x="1234" 
d="M332 -143h573v-117h-573v117zM717 1014q321 0 321 -338v-479q0 -41 16.5 -58.5t55.5 -17.5h66v-121h-304v674q0 115 -48 166t-164 51t-197.5 -68.5t-81.5 -189.5v-436q0 -41 15.5 -58.5t54.5 -17.5h67v-121h-438v121h65q39 0 55.5 17.5t16.5 58.5v589q0 41 -16.5 58.5
t-55.5 17.5h-65v121h252l12 -139q70 90 158 130t215 40z" />
    <glyph glyph-name="uni1E5A" unicode="&#x1e5a;" horiz-adv-x="1259" 
d="M553 -129h164v-168h-164v168zM702 678q139 0 211 70.5t72 202.5t-67.5 192.5t-215.5 60.5h-321v-526h321zM80 121h59q45 0 61.5 17.5t16.5 56.5v935q0 39 -16.5 56.5t-61.5 17.5h-59v121h647q197 0 306.5 -99.5t109.5 -267.5t-91 -270t-255 -121l200 -379q33 -67 119 -67
h64v-121h-418v121h108l-231 436h-258v-364q0 -39 15.5 -55.5t58.5 -16.5h63v-121h-438v121z" />
    <glyph glyph-name="uni1E5B" unicode="&#x1e5b;" horiz-adv-x="770" 
d="M215 -129h164v-168h-164v168zM76 121h65q39 0 55.5 17.5t16.5 58.5v591q0 41 -15.5 57.5t-54.5 16.5h-67v121h252l32 -119q41 68 105.5 93.5t163.5 25.5h82v-121h-90q-131 0 -187.5 -58.5t-56.5 -180.5v-426q0 -41 16.5 -58.5t55.5 -17.5h65v-121h-438v121z" />
    <glyph glyph-name="uni1E5C" unicode="&#x1e5c;" horiz-adv-x="1259" 
d="M545 -129h164v-168h-164v168zM702 678q139 0 211 70.5t72 202.5t-67.5 192.5t-215.5 60.5h-321v-526h321zM80 121h59q45 0 61.5 17.5t16.5 56.5v935q0 39 -16.5 56.5t-61.5 17.5h-59v121h647q197 0 306.5 -99.5t109.5 -267.5t-91 -270t-255 -121l200 -379q33 -67 119 -67
h64v-121h-418v121h108l-231 436h-258v-364q0 -39 15.5 -55.5t58.5 -16.5h63v-121h-438v121zM322 1595h573v-116h-573v116z" />
    <glyph glyph-name="uni1E5D" unicode="&#x1e5d;" horiz-adv-x="770" 
d="M217 -129h164v-168h-164v168zM76 121h65q39 0 55.5 17.5t16.5 58.5v591q0 41 -15.5 57.5t-54.5 16.5h-67v121h252l32 -119q41 68 105.5 93.5t163.5 25.5h82v-121h-90q-131 0 -187.5 -58.5t-56.5 -180.5v-426q0 -41 16.5 -58.5t55.5 -17.5h65v-121h-438v121zM90 1237h574
v-117h-574v117z" />
    <glyph glyph-name="uni1E5E" unicode="&#x1e5e;" horiz-adv-x="1259" 
d="M354 -143h574v-117h-574v117zM702 678q139 0 211 70.5t72 202.5t-67.5 192.5t-215.5 60.5h-321v-526h321zM80 121h59q45 0 61.5 17.5t16.5 56.5v935q0 39 -16.5 56.5t-61.5 17.5h-59v121h647q197 0 306.5 -99.5t109.5 -267.5t-91 -270t-255 -121l200 -379q33 -67 119 -67
h64v-121h-418v121h108l-231 436h-258v-364q0 -39 15.5 -55.5t58.5 -16.5h63v-121h-438v121z" />
    <glyph glyph-name="uni1E5F" unicode="&#x1e5f;" horiz-adv-x="770" 
d="M37 -143h573v-117h-573v117zM76 121h65q39 0 55.5 17.5t16.5 58.5v591q0 41 -15.5 57.5t-54.5 16.5h-67v121h252l32 -119q41 68 105.5 93.5t163.5 25.5h82v-121h-90q-131 0 -187.5 -58.5t-56.5 -180.5v-426q0 -41 16.5 -58.5t55.5 -17.5h65v-121h-438v121z" />
    <glyph glyph-name="uni1E60" unicode="&#x1e60;" horiz-adv-x="1079" 
d="M559 1233q-309 0 -309 -219q0 -76 45 -126t103.5 -78t195.5 -82t271 -130t134 -276q0 -156 -117.5 -254.5t-328.5 -98.5q-131 0 -258 39t-215 105v182h166v-125q55 -35 141 -56.5t172 -21.5q139 0 211 58.5t72 165.5t-73 167t-233 120t-302 140t-142 259q0 180 126 267
t327 87q125 0 238.5 -36t189.5 -91v-178h-166v123q-95 59 -248 59zM467 1645h164v-168h-164v168z" />
    <glyph glyph-name="uni1E61" unicode="&#x1e61;" horiz-adv-x="927" 
d="M476 891q-228 0 -228 -127q0 -63 39 -110.5t237 -106.5q115 -45 219.5 -100.5t104.5 -213.5q0 -264 -375 -264q-233 0 -393 113v151h153v-88q91 -53 221 -53t183 33t53 94t-25.5 93t-74.5 56.5t-167 70.5t-225.5 102.5t-107.5 208.5q0 129 99.5 196.5t292.5 67.5
t343 -107v-149h-153v86q-78 47 -196 47zM379 1286h164v-168h-164v168z" />
    <glyph glyph-name="uni1E62" unicode="&#x1e62;" horiz-adv-x="1079" 
d="M477 -129h164v-168h-164v168zM559 1233q-309 0 -309 -219q0 -76 45 -126t103.5 -78t195.5 -82t271 -130t134 -276q0 -156 -117.5 -254.5t-328.5 -98.5q-131 0 -258 39t-215 105v182h166v-125q55 -35 141 -56.5t172 -21.5q139 0 211 58.5t72 165.5t-73 167t-233 120
t-302 140t-142 259q0 180 126 267t327 87q125 0 238.5 -36t189.5 -91v-178h-166v123q-95 59 -248 59z" />
    <glyph glyph-name="uni1E63" unicode="&#x1e63;" horiz-adv-x="927" 
d="M397 -129h164v-168h-164v168zM476 891q-228 0 -228 -127q0 -63 39 -110.5t237 -106.5q115 -45 219.5 -100.5t104.5 -213.5q0 -264 -375 -264q-233 0 -393 113v151h153v-88q91 -53 221 -53t183 33t53 94t-25.5 93t-74.5 56.5t-167 70.5t-225.5 102.5t-107.5 208.5
q0 129 99.5 196.5t292.5 67.5t343 -107v-149h-153v86q-78 47 -196 47z" />
    <glyph glyph-name="uni1E6C" unicode="&#x1e6c;" horiz-adv-x="1122" 
d="M479 -129h164v-168h-164v168zM342 121h59q45 0 61.5 17.5t16.5 56.5v1009h-215q-41 0 -58.5 -16.5t-17.5 -54.5v-60h-129v250h1004v-250h-131v60q0 39 -16.5 55t-59.5 16h-213v-1009q0 -39 16.5 -56.5t61.5 -17.5h59v-121h-438v121z" />
    <glyph glyph-name="uni1E6D" unicode="&#x1e6d;" horiz-adv-x="854" 
d="M449 -129h163v-168h-163v168zM548 92q89 0 140 39v88h148v-139q-63 -55 -135 -83t-175 -28q-147 0 -225 82t-78 238v573h-164v121h164v229l164 62v-291h307v-121h-307v-581q0 -100 36 -144.5t125 -44.5z" />
    <glyph glyph-name="uni1E6E" unicode="&#x1e6e;" horiz-adv-x="1122" 
d="M264 -143h574v-117h-574v117zM342 121h59q45 0 61.5 17.5t16.5 56.5v1009h-215q-41 0 -58.5 -16.5t-17.5 -54.5v-60h-129v250h1004v-250h-131v60q0 39 -16.5 55t-59.5 16h-213v-1009q0 -39 16.5 -56.5t61.5 -17.5h59v-121h-438v121z" />
    <glyph glyph-name="uni1E6F" unicode="&#x1e6f;" horiz-adv-x="860" 
d="M236 -143h573v-117h-573v117zM548 92q89 0 140 39v88h148v-139q-63 -55 -135 -83t-175 -28q-147 0 -225 82t-78 238v573h-164v121h164v229l164 62v-291h307v-121h-307v-581q0 -100 36 -144.5t125 -44.5z" />
    <glyph glyph-name="Wgrave" unicode="&#x1e80;" horiz-adv-x="1800" 
d="M133 1204h-53v121h276l224 -1049l247 826h144l250 -826l225 1049h274v-121h-55q-53 0 -75.5 -17.5t-33.5 -62.5l-253 -1124h-138l-266 856l-262 -856h-139l-256 1124q-10 45 -33 62.5t-76 17.5zM580 1802h208l170 -366h-143z" />
    <glyph glyph-name="wgrave" unicode="&#x1e81;" horiz-adv-x="1579" 
d="M129 862h-70v121h246l191 -817l227 729h131l225 -729l197 817h244v-121h-70q-35 0 -49.5 -9t-20.5 -36l-196 -817h-178l-215 688l-218 -688h-178l-196 817q-6 27 -20.5 36t-49.5 9zM487 1446h209l170 -367h-143z" />
    <glyph glyph-name="Wacute" unicode="&#x1e82;" horiz-adv-x="1800" 
d="M133 1204h-53v121h276l224 -1049l247 826h144l250 -826l225 1049h274v-121h-55q-53 0 -75.5 -17.5t-33.5 -62.5l-253 -1124h-138l-266 856l-262 -856h-139l-256 1124q-10 45 -33 62.5t-76 17.5zM1014 1802h209l-236 -366h-143z" />
    <glyph glyph-name="wacute" unicode="&#x1e83;" horiz-adv-x="1579" 
d="M129 862h-70v121h246l191 -817l227 729h131l225 -729l197 817h244v-121h-70q-35 0 -49.5 -9t-20.5 -36l-196 -817h-178l-215 688l-218 -688h-178l-196 817q-6 27 -20.5 36t-49.5 9zM887 1446h209l-236 -367h-143z" />
    <glyph glyph-name="Wdieresis" unicode="&#x1e84;" horiz-adv-x="1800" 
d="M133 1204h-53v121h276l224 -1049l247 826h144l250 -826l225 1049h274v-121h-55q-53 0 -75.5 -17.5t-33.5 -62.5l-253 -1124h-138l-266 856l-262 -856h-139l-256 1124q-10 45 -33 62.5t-76 17.5zM1024 1640h164v-167h-164v167zM612 1640h164v-167h-164v167z" />
    <glyph glyph-name="wdieresis" unicode="&#x1e85;" horiz-adv-x="1579" 
d="M129 862h-70v121h246l191 -817l227 729h131l225 -729l197 817h244v-121h-70q-35 0 -49.5 -9t-20.5 -36l-196 -817h-178l-215 688l-218 -688h-178l-196 817q-6 27 -20.5 36t-49.5 9zM913 1286h164v-168h-164v168zM502 1286h164v-168h-164v168z" />
    <glyph glyph-name="uni1E8E" unicode="&#x1e8e;" horiz-adv-x="1361" 
d="M479 121h49q39 0 55.5 17.5t16.5 58.5v284l-352 647q-23 43 -49.5 59.5t-69.5 16.5h-49v121h397v-121h-39q-45 0 -45 -26q0 -16 17 -45l272 -515l270 515q16 29 17 45q0 27 -45 26h-41v121h399v-121h-49q-45 0 -71.5 -16.5t-49.5 -59.5l-350 -647v-284q0 -41 16.5 -58.5
t57.5 -17.5h49v-121h-406v121zM600 1599h164v-167h-164v167z" />
    <glyph glyph-name="uni1E8F" unicode="&#x1e8f;" horiz-adv-x="1140" 
d="M629 -410q-233 0 -377 140v139h147v-80q65 -76 222 -76q242 0 241 264v164q-61 -70 -134 -100.5t-181 -30.5q-168 0 -259 89t-91 253v436q0 39 -16.5 56.5t-55.5 17.5h-66v121h303v-633q0 -217 222 -217q123 0 196.5 67.5t73.5 198.5v389q0 41 -15.5 57.5t-54.5 16.5h-67
v121h301v-979q0 -190 -102.5 -302t-286.5 -112zM487 1286h164v-168h-164v168z" />
    <glyph glyph-name="uni1E92" unicode="&#x1e92;" horiz-adv-x="1142" 
d="M487 -129h164v-168h-164v168zM332 1204q-41 0 -58.5 -16.5t-17.5 -54.5v-43h-147v235h927v-111l-770 -1093h574q41 0 58 16.5t17 57.5v41h148v-236h-983v111l774 1093h-522z" />
    <glyph glyph-name="uni1E93" unicode="&#x1e93;" horiz-adv-x="1003" 
d="M412 -129h163v-168h-163v168zM332 862q-41 0 -58.5 -15.5t-17.5 -53.5v-45h-147v235h794v-104l-633 -758h430q41 0 58.5 16.5t17.5 52.5v46h148v-236h-844v111l633 751h-381z" />
    <glyph glyph-name="uni1E97" unicode="&#x1e97;" horiz-adv-x="858" 
d="M553 92q90 0 139 39v88h148v-139q-63 -55 -135 -83t-175 -28q-147 0 -225 82t-78 238v573h-164v121h164v229l164 62v-291h307v-121h-307v-581q0 -100 36 -144.5t126 -44.5zM477 1497h164v-168h-164v168zM66 1497h163v-168h-163v168z" />
    <glyph glyph-name="uni1E9E" unicode="&#x1e9e;" horiz-adv-x="1349" 
d="M1112 382q0 140 -62.5 199.5t-201.5 59.5h-182v94l313 383q0 41 -57.5 106.5t-235.5 65.5t-260 -90t-82 -270v-930h-285v121h50q39 0 55 16.5t16 57.5v741q0 217 123 347t389 130q143 0 245.5 -45t155 -119.5t52.5 -163.5l-271 -325q209 -4 302.5 -99.5t93.5 -281.5
t-102 -298t-294 -112t-315 72l57 109q107 -58 238 -58t194.5 75t63.5 215z" />
    <glyph glyph-name="uni1EA0" unicode="&#x1ea0;" horiz-adv-x="1476" 
d="M657 -129h164v-168h-164v168zM942 530l-203 576l-202 -576h405zM80 121h67q86 0 111 74l406 1130h153l402 -1130q14 -41 40.5 -57.5t71.5 -16.5h66v-121h-424v121h110l-104 299h-479l-107 -299h111v-121h-424v121z" />
    <glyph glyph-name="uni1EA1" unicode="&#x1ea1;" horiz-adv-x="1064" 
d="M416 -129h164v-168h-164v168zM727 334v108l-315 -22q-113 -8 -154 -47t-41 -122t46 -121t171 -38t209 60.5t84 181.5zM510 891q-125 0 -217 -45v-78h-150v143q164 102 375 103q373 0 373 -344v-469q0 -43 15.5 -61.5t49.5 -18.5h50v-121h-215l-25 127
q-61 -82 -152.5 -120t-239.5 -38t-231.5 71t-83.5 208t90.5 203.5t256.5 78.5l321 23v127q0 113 -46 162t-171 49z" />
    <glyph glyph-name="uni1EA2" unicode="&#x1ea2;" horiz-adv-x="1476" 
d="M942 530l-203 576l-202 -576h405zM80 121h67q86 0 111 74l406 1130h153l402 -1130q14 -41 40.5 -57.5t71.5 -16.5h66v-121h-424v121h110l-104 299h-479l-107 -299h111v-121h-424v121zM674 1569q137 0 137 94q0 45 -26.5 61.5t-82.5 16.5t-108 -17v103q61 20 131 20
q221 0 221 -170q0 -127 -139 -161v-80h-133v133z" />
    <glyph glyph-name="uni1EA3" unicode="&#x1ea3;" horiz-adv-x="1064" 
d="M727 334v108l-315 -22q-113 -8 -154 -47t-41 -122t46 -121t171 -38t209 60.5t84 181.5zM510 891q-125 0 -217 -45v-78h-150v143q164 102 375 103q373 0 373 -344v-469q0 -43 15.5 -61.5t49.5 -18.5h50v-121h-215l-25 127q-61 -82 -152.5 -120t-239.5 -38t-231.5 71
t-83.5 208t90.5 203.5t256.5 78.5l321 23v127q0 113 -46 162t-171 49zM717 1321q0 -127 -139 -162v-80h-134v133q138 0 138 97q0 43 -27 59t-82 16t-108 -16v102q61 20 131 21q221 0 221 -170z" />
    <glyph glyph-name="uni1EA4" unicode="&#x1ea4;" horiz-adv-x="1476" 
d="M942 530l-203 576l-202 -576h405zM80 121h67q86 0 111 74l406 1130h153l402 -1130q14 -41 40.5 -57.5t71.5 -16.5h66v-121h-424v121h110l-104 299h-479l-107 -299h111v-121h-424v121zM655 1708h172l213 -268h-157l-142 188l-143 -188h-156zM1063 1907h197l-197 -248h-129
z" />
    <glyph glyph-name="uni1EA5" unicode="&#x1ea5;" horiz-adv-x="1064" 
d="M727 334v108l-315 -22q-113 -8 -154 -47t-41 -122t46 -121t171 -38t209 60.5t84 181.5zM510 891q-125 0 -217 -45v-78h-150v143q164 102 375 103q373 0 373 -344v-469q0 -43 15.5 -61.5t49.5 -18.5h50v-121h-215l-25 127q-61 -82 -152.5 -120t-239.5 -38t-231.5 71
t-83.5 208t90.5 203.5t256.5 78.5l321 23v127q0 113 -46 162t-171 49zM416 1348h172l213 -269h-158l-141 189l-144 -189h-155zM823 1546h197l-197 -248h-129z" />
    <glyph glyph-name="uni1EA6" unicode="&#x1ea6;" horiz-adv-x="1476" 
d="M942 530l-203 576l-202 -576h405zM80 121h67q86 0 111 74l406 1130h153l402 -1130q14 -41 40.5 -57.5t71.5 -16.5h66v-121h-424v121h110l-104 299h-479l-107 -299h111v-121h-424v121zM651 1708h174l211 -268h-153l-144 188l-143 -188h-156zM219 1907h197l129 -248h-129z
" />
    <glyph glyph-name="uni1EA7" unicode="&#x1ea7;" horiz-adv-x="1064" 
d="M727 334v108l-315 -22q-113 -8 -154 -47t-41 -122t46 -121t171 -38t209 60.5t84 181.5zM510 891q-125 0 -217 -45v-78h-150v143q164 102 375 103q373 0 373 -344v-469q0 -43 15.5 -61.5t49.5 -18.5h50v-121h-215l-25 127q-61 -82 -152.5 -120t-239.5 -38t-231.5 71
t-83.5 208t90.5 203.5t256.5 78.5l321 23v127q0 113 -46 162t-171 49zM424 1348h174l211 -269h-154l-143 189l-143 -189h-156zM-8 1546h196l129 -248h-129z" />
    <glyph glyph-name="uni1EA8" unicode="&#x1ea8;" horiz-adv-x="1476" 
d="M942 530l-203 576l-202 -576h405zM80 121h67q86 0 111 74l406 1130h153l402 -1130q14 -41 40.5 -57.5t71.5 -16.5h66v-121h-424v121h110l-104 299h-479l-107 -299h111v-121h-424v121zM653 1706h174l211 -268h-155l-144 188l-141 -188h-156zM1141 1866q0 -116 -133 -135
v-48h-117v101q78 0 104.5 15.5t26.5 58.5q0 57 -76 57q-41 0 -90 -17v95q47 18 119 18q166 0 166 -145z" />
    <glyph glyph-name="uni1EA9" unicode="&#x1ea9;" horiz-adv-x="1064" 
d="M727 334v108l-315 -22q-113 -8 -154 -47t-41 -122t46 -121t171 -38t209 60.5t84 181.5zM510 891q-125 0 -217 -45v-78h-150v143q164 102 375 103q373 0 373 -344v-469q0 -43 15.5 -61.5t49.5 -18.5h50v-121h-215l-25 127q-61 -82 -152.5 -120t-239.5 -38t-231.5 71
t-83.5 208t90.5 203.5t256.5 78.5l321 23v127q0 113 -46 162t-171 49zM428 1348h174l211 -269h-156l-143 189l-141 -189h-156zM915 1507q0 -59 -31.5 -92t-101.5 -43v-47h-116v100q78 0 104.5 15.5t26.5 58.5q0 57 -76 57q-41 0 -90 -16v94q47 18 119 19q165 0 165 -146z
" />
    <glyph glyph-name="uni1EAA" unicode="&#x1eaa;" horiz-adv-x="1476" 
d="M942 530l-203 576l-202 -576h405zM80 121h67q86 0 111 74l406 1130h153l402 -1130q14 -41 40.5 -57.5t71.5 -16.5h66v-121h-424v121h110l-104 299h-479l-107 -299h111v-121h-424v121zM651 1706h174l211 -268h-155l-144 188l-141 -188h-156zM605 1841q-56 0 -56 -92h-109
q0 109 40 154t112 45t156 -48t119 -47q34 0 48.5 22.5t14.5 70.5h108q0 -106 -40 -152.5t-108 -46.5t-167 53q-41 20 -64.5 30.5t-53.5 10.5z" />
    <glyph glyph-name="uni1EAB" unicode="&#x1eab;" horiz-adv-x="1064" 
d="M727 334v108l-315 -22q-113 -8 -154 -47t-41 -122t46 -121t171 -38t209 60.5t84 181.5zM510 891q-125 0 -217 -45v-78h-150v143q164 102 375 103q373 0 373 -344v-469q0 -43 15.5 -61.5t49.5 -18.5h50v-121h-215l-25 127q-61 -82 -152.5 -120t-239.5 -38t-231.5 71
t-83.5 208t90.5 203.5t256.5 78.5l321 23v127q0 113 -46 162t-171 49zM430 1348h174l211 -269h-156l-143 189l-141 -189h-156zM384 1483q-56 0 -56 -92h-109q0 109 40 153.5t112 44.5t156 -47t119 -47q34 0 48.5 22.5t14.5 69.5h108q0 -106 -40 -152t-110 -46t-165 53
q-41 20 -64.5 30.5t-53.5 10.5z" />
    <glyph glyph-name="uni1EAC" unicode="&#x1eac;" horiz-adv-x="1476" 
d="M657 -129h164v-168h-164v168zM942 530l-203 576l-202 -576h405zM80 121h67q86 0 111 74l406 1130h153l402 -1130q14 -41 40.5 -57.5t71.5 -16.5h66v-121h-424v121h110l-104 299h-479l-107 -299h111v-121h-424v121zM651 1812h176l246 -374h-162l-172 270l-172 -270h-161z
" />
    <glyph glyph-name="uni1EAD" unicode="&#x1ead;" horiz-adv-x="1064" 
d="M424 -129h164v-168h-164v168zM727 334v108l-315 -22q-113 -8 -154 -47t-41 -122t46 -121t171 -38t209 60.5t84 181.5zM510 891q-125 0 -217 -45v-78h-150v143q164 102 375 103q373 0 373 -344v-469q0 -43 15.5 -61.5t49.5 -18.5h50v-121h-215l-25 127
q-61 -82 -152.5 -120t-239.5 -38t-231.5 71t-83.5 208t90.5 203.5t256.5 78.5l321 23v127q0 113 -46 162t-171 49zM418 1454h176l246 -375h-162l-172 271l-172 -271h-162z" />
    <glyph glyph-name="uni1EAE" unicode="&#x1eae;" horiz-adv-x="1476" 
d="M942 530l-203 576l-202 -576h405zM80 121h67q86 0 111 74l406 1130h153l402 -1130q14 -41 40.5 -57.5t71.5 -16.5h66v-121h-424v121h110l-104 299h-479l-107 -299h111v-121h-424v121zM428 1722h121q0 -84 51 -130t140 -46t139.5 46t50.5 130h121q0 -131 -88.5 -208.5
t-223.5 -77.5t-223 77.5t-88 208.5zM791 2017h194l-213 -299h-125z" />
    <glyph glyph-name="uni1EAF" unicode="&#x1eaf;" horiz-adv-x="1064" 
d="M727 334v108l-315 -22q-113 -8 -154 -47t-41 -122t46 -121t171 -38t209 60.5t84 181.5zM510 891q-125 0 -217 -45v-78h-150v143q164 102 375 103q373 0 373 -344v-469q0 -43 15.5 -61.5t49.5 -18.5h50v-121h-215l-25 127q-61 -82 -152.5 -120t-239.5 -38t-231.5 71
t-83.5 208t90.5 203.5t256.5 78.5l321 23v127q0 113 -46 162t-171 49zM213 1366h121q0 -84 51 -130t140 -46t139.5 46t50.5 130h121q0 -131 -88.5 -209t-223.5 -78t-223 78t-88 209zM575 1661h195l-213 -299h-125z" />
    <glyph glyph-name="uni1EB0" unicode="&#x1eb0;" horiz-adv-x="1476" 
d="M942 530l-203 576l-202 -576h405zM80 121h67q86 0 111 74l406 1130h153l402 -1130q14 -41 40.5 -57.5t71.5 -16.5h66v-121h-424v121h110l-104 299h-479l-107 -299h111v-121h-424v121zM430 1722h121q0 -84 50 -130t139 -46t140.5 46t51.5 130h121q0 -131 -88 -208.5
t-223.5 -77.5t-223.5 77.5t-88 208.5zM502 2017h192l146 -299h-125z" />
    <glyph glyph-name="uni1EB1" unicode="&#x1eb1;" horiz-adv-x="1064" 
d="M727 334v108l-315 -22q-113 -8 -154 -47t-41 -122t46 -121t171 -38t209 60.5t84 181.5zM510 891q-125 0 -217 -45v-78h-150v143q164 102 375 103q373 0 373 -344v-469q0 -43 15.5 -61.5t49.5 -18.5h50v-121h-215l-25 127q-61 -82 -152.5 -120t-239.5 -38t-231.5 71
t-83.5 208t90.5 203.5t256.5 78.5l321 23v127q0 113 -46 162t-171 49zM190 1366h121q0 -84 50.5 -130t139.5 -46t140 46t51 130h121q0 -131 -88 -209t-223 -78t-223.5 78t-88.5 209zM262 1661h193l145 -299h-125z" />
    <glyph glyph-name="uni1EB2" unicode="&#x1eb2;" horiz-adv-x="1476" 
d="M942 530l-203 576l-202 -576h405zM80 121h67q86 0 111 74l406 1130h153l402 -1130q14 -41 40.5 -57.5t71.5 -16.5h66v-121h-424v121h110l-104 299h-479l-107 -299h111v-121h-424v121zM430 1722h121q0 -84 51 -130t140 -46t139.5 46t50.5 130h121q0 -131 -88 -208.5
t-223.5 -77.5t-223.5 77.5t-88 208.5zM918 1884q0 -116 -134 -135v-47h-118v100q78 0 105.5 15.5t27.5 58.5q0 57 -76 57q-43 0 -92 -16v94q51 19 127 19t118 -38t42 -108z" />
    <glyph glyph-name="uni1EB3" unicode="&#x1eb3;" horiz-adv-x="1064" 
d="M727 334v108l-315 -22q-113 -8 -154 -47t-41 -122t46 -121t171 -38t209 60.5t84 181.5zM510 891q-125 0 -217 -45v-78h-150v143q164 102 375 103q373 0 373 -344v-469q0 -43 15.5 -61.5t49.5 -18.5h50v-121h-215l-25 127q-61 -82 -152.5 -120t-239.5 -38t-231.5 71
t-83.5 208t90.5 203.5t256.5 78.5l321 23v127q0 113 -46 162t-171 49zM197 1366h120q0 -84 51.5 -130t140.5 -46t139 46t50 130h121q0 -131 -88 -209t-223 -78t-223 78t-88 209zM432 1446q78 0 105.5 15.5t27.5 58.5q0 57 -76 57q-43 0 -92 -16v94q51 18 127 18t118 -38
t42 -102t-31.5 -97t-101.5 -43v-47h-119v100z" />
    <glyph glyph-name="uni1EB4" unicode="&#x1eb4;" horiz-adv-x="1476" 
d="M942 530l-203 576l-202 -576h405zM80 121h67q86 0 111 74l406 1130h153l402 -1130q14 -41 40.5 -57.5t71.5 -16.5h66v-121h-424v121h110l-104 299h-479l-107 -299h111v-121h-424v121zM430 1722h121q0 -84 51 -130t139 -46t139.5 46t51.5 130h121q0 -131 -88 -208.5
t-223.5 -77.5t-223.5 77.5t-88 208.5zM549 1800h-109q0 109 41 154t112 45t165 -53q84 -41 115 -41q57 0 57 92h108q0 -106 -40 -152.5t-121 -46.5q-37 0 -72 13t-97 47t-97 34q-34 0 -48 -22.5t-14 -69.5z" />
    <glyph glyph-name="uni1EB5" unicode="&#x1eb5;" horiz-adv-x="1064" 
d="M727 334v108l-315 -22q-113 -8 -154 -47t-41 -122t46 -121t171 -38t209 60.5t84 181.5zM510 891q-125 0 -217 -45v-78h-150v143q164 102 375 103q373 0 373 -344v-469q0 -43 15.5 -61.5t49.5 -18.5h50v-121h-215l-25 127q-61 -82 -152.5 -120t-239.5 -38t-231.5 71
t-83.5 208t90.5 203.5t256.5 78.5l321 23v127q0 113 -46 162t-171 49zM203 1366h121q0 -84 51 -130t139 -46t139.5 46t51.5 130h120q0 -131 -88 -209t-223 -78t-223 78t-88 209zM384 1536q-34 0 -48 -22.5t-14 -69.5h-109q0 109 41 153.5t113 44.5t163 -53q84 -41 115 -41
q57 0 57 92h109q0 -106 -40 -152t-112 -46t-161 53q-80 41 -114 41z" />
    <glyph glyph-name="uni1EB6" unicode="&#x1eb6;" horiz-adv-x="1476" 
d="M657 -129h164v-168h-164v168zM942 530l-203 576l-202 -576h405zM80 121h67q86 0 111 74l406 1130h153l402 -1130q14 -41 40.5 -57.5t71.5 -16.5h66v-121h-424v121h110l-104 299h-479l-107 -299h111v-121h-424v121zM432 1716h133q0 -80 47 -123t128 -43t126 43t45 123h133
q0 -127 -83.5 -203.5t-221 -76.5t-222.5 75.5t-85 204.5z" />
    <glyph glyph-name="uni1EB7" unicode="&#x1eb7;" horiz-adv-x="1064" 
d="M430 -129h164v-168h-164v168zM727 334v108l-315 -22q-113 -8 -154 -47t-41 -122t46 -121t171 -38t209 60.5t84 181.5zM510 891q-125 0 -217 -45v-78h-150v143q164 102 375 103q373 0 373 -344v-469q0 -43 15.5 -61.5t49.5 -18.5h50v-121h-215l-25 127
q-61 -82 -152.5 -120t-239.5 -38t-231.5 71t-83.5 208t90.5 203.5t256.5 78.5l321 23v127q0 113 -46 162t-171 49zM215 1360h133q0 -80 47 -123t128 -43t126 43t45 123h133q0 -127 -84 -204t-221 -77t-222 76t-85 205z" />
    <glyph glyph-name="uni1EB8" unicode="&#x1eb8;" horiz-adv-x="1114" 
d="M487 -129h164v-168h-164v168zM80 121h65q39 0 55.5 17.5t16.5 58.5v933q0 41 -16.5 57.5t-55.5 16.5h-65v121h954v-238h-147v46q0 39 -17.5 55t-58.5 16h-430v-479h393v-121h-393v-483h430q41 0 58.5 16.5t17.5 55.5v47h147v-240h-954v121z" />
    <glyph glyph-name="uni1EB9" unicode="&#x1eb9;" horiz-adv-x="1097" 
d="M500 -129h164v-168h-164v168zM864 553q0 170 -72.5 254t-228.5 84t-237.5 -90t-81.5 -248h620zM80 486q0 257 127 392.5t355 135.5t342 -129t114 -353v-92h-774q0 -182 92 -265t248 -83t250 55v64h149v-129q-170 -113 -400 -113q-229 0 -366 130t-137 387z" />
    <glyph glyph-name="uni1EBA" unicode="&#x1eba;" horiz-adv-x="1114" 
d="M80 121h65q39 0 55.5 17.5t16.5 58.5v933q0 41 -16.5 57.5t-55.5 16.5h-65v121h954v-238h-147v46q0 39 -17.5 55t-58.5 16h-430v-479h393v-121h-393v-483h430q41 0 58.5 16.5t17.5 55.5v47h147v-240h-954v121zM487 1571q138 0 138 94q0 45 -27 61.5t-82 16.5t-108 -17
v103q61 20 131 20q221 0 221 -170q0 -127 -139 -161v-80h-134v133z" />
    <glyph glyph-name="uni1EBB" unicode="&#x1ebb;" horiz-adv-x="1097" 
d="M864 553q0 170 -72.5 254t-228.5 84t-237.5 -90t-81.5 -248h620zM80 486q0 257 127 392.5t355 135.5t342 -129t114 -353v-92h-774q0 -182 92 -265t248 -83t250 55v64h149v-129q-170 -113 -400 -113q-229 0 -366 130t-137 387zM492 1212q137 0 137 95q0 45 -27 61t-82 16
t-108 -16v102q61 20 131 21q221 0 221 -170q0 -127 -139 -162v-80h-133v133z" />
    <glyph glyph-name="uni1EBC" unicode="&#x1ebc;" horiz-adv-x="1114" 
d="M80 121h65q39 0 55.5 17.5t16.5 58.5v933q0 41 -16.5 57.5t-55.5 16.5h-65v121h954v-238h-147v46q0 39 -17.5 55t-58.5 16h-430v-479h393v-121h-393v-483h430q41 0 58.5 16.5t17.5 55.5v47h147v-240h-954v121zM193 1438q0 248 206 248q81 0 184 -58t150 -59
q47 0 68.5 25.5t21.5 91.5h129q0 -129 -51 -188.5t-140 -59.5t-198 61q-53 29 -82.5 41t-71.5 12t-64.5 -24.5t-22.5 -89.5h-129z" />
    <glyph glyph-name="uni1EBD" unicode="&#x1ebd;" horiz-adv-x="1097" 
d="M864 553q0 170 -72.5 254t-228.5 84t-237.5 -90t-81.5 -248h620zM80 486q0 257 127 392.5t355 135.5t342 -129t114 -353v-92h-774q0 -182 92 -265t248 -83t250 55v64h149v-129q-170 -113 -400 -113q-229 0 -366 130t-137 387zM193 1079q0 248 206 248q79 -1 184 -59
t151 -58t67.5 26t21.5 91h129q0 -129 -51 -188.5t-153 -59.5q-49 0 -89.5 15.5t-94.5 45.5t-83.5 42t-71.5 12t-64.5 -24.5t-22.5 -90.5h-129z" />
    <glyph glyph-name="uni1EBE" unicode="&#x1ebe;" horiz-adv-x="1114" 
d="M80 121h65q39 0 55.5 17.5t16.5 58.5v933q0 41 -16.5 57.5t-55.5 16.5h-65v121h954v-238h-147v46q0 39 -17.5 55t-58.5 16h-430v-479h393v-121h-393v-483h430q41 0 58.5 16.5t17.5 55.5v47h147v-240h-954v121zM483 1706h172l213 -268h-157l-142 188l-143 -188h-156z
M891 1905h196l-196 -248h-129z" />
    <glyph glyph-name="uni1EBF" unicode="&#x1ebf;" horiz-adv-x="1097" 
d="M864 553q0 170 -72.5 254t-228.5 84t-237.5 -90t-81.5 -248h620zM80 486q0 257 127 392.5t355 135.5t342 -129t114 -353v-92h-774q0 -182 92 -265t248 -83t250 55v64h149v-129q-170 -113 -400 -113q-229 0 -366 130t-137 387zM477 1348h172l213 -269h-157l-142 189
l-143 -189h-156zM885 1546h196l-196 -248h-129z" />
    <glyph glyph-name="uni1EC0" unicode="&#x1ec0;" horiz-adv-x="1126" 
d="M92 121h66q39 0 55 17.5t16 58.5v933q0 41 -16 57.5t-55 16.5h-66v121h955v-238h-148v46q0 39 -17.5 55t-58.5 16h-430v-479h393v-121h-393v-483h430q41 0 58.5 16.5t17.5 55.5v47h148v-240h-955v121zM512 1706h174l211 -268h-154l-143 188l-143 -188h-156zM80 1905h196
l130 -248h-130z" />
    <glyph glyph-name="uni1EC1" unicode="&#x1ec1;" horiz-adv-x="1097" 
d="M864 553q0 170 -72.5 254t-228.5 84t-237.5 -90t-81.5 -248h620zM80 486q0 257 127 392.5t355 135.5t342 -129t114 -353v-92h-774q0 -182 92 -265t248 -83t250 55v64h149v-129q-170 -113 -400 -113q-229 0 -366 130t-137 387zM459 1348h174l211 -269h-154l-143 189
l-144 -189h-155zM27 1546h196l129 -248h-129z" />
    <glyph glyph-name="uni1EC2" unicode="&#x1ec2;" horiz-adv-x="1114" 
d="M80 121h65q39 0 55.5 17.5t16.5 58.5v933q0 41 -16.5 57.5t-55.5 16.5h-65v121h954v-238h-147v46q0 39 -17.5 55t-58.5 16h-430v-479h393v-121h-393v-483h430q41 0 58.5 16.5t17.5 55.5v47h147v-240h-954v121zM465 1706h174l211 -268h-156l-143 188l-141 -188h-156z
M786 2011q166 0 166 -145q0 -59 -31.5 -92t-101.5 -43v-48h-117v101q78 0 105 15.5t27 58.5q0 57 -76 57q-41 0 -90 -17v95q47 18 118 18z" />
    <glyph glyph-name="uni1EC3" unicode="&#x1ec3;" horiz-adv-x="1097" 
d="M864 553q0 170 -72.5 254t-228.5 84t-237.5 -90t-81.5 -248h620zM80 486q0 257 127 392.5t355 135.5t342 -129t114 -353v-92h-774q0 -182 92 -265t248 -83t250 55v64h149v-129q-170 -113 -400 -113q-229 0 -366 130t-137 387zM483 1348h174l211 -269h-155l-144 189
l-141 -189h-156zM971 1507q0 -116 -133 -135v-47h-117v100q78 0 104.5 15.5t26.5 58.5q0 57 -76 57q-41 0 -90 -16v94q47 18 119 19q166 0 166 -146z" />
    <glyph glyph-name="uni1EC4" unicode="&#x1ec4;" horiz-adv-x="1114" 
d="M80 121h65q39 0 55.5 17.5t16.5 58.5v933q0 41 -16.5 57.5t-55.5 16.5h-65v121h954v-238h-147v46q0 39 -17.5 55t-58.5 16h-430v-479h393v-121h-393v-483h430q41 0 58.5 16.5t17.5 55.5v47h147v-240h-954v121zM506 1706h174l211 -268h-156l-143 188l-141 -188h-156z
M460 1841q-56 0 -57 -92h-108q0 109 40 154t112 45t155 -48q84 -48 119 -47q35 0 49 22.5t14 70.5h109q0 -106 -40 -152.5t-108 -46.5t-167 53q-41 20 -64.5 30.5t-53.5 10.5z" />
    <glyph glyph-name="uni1EC5" unicode="&#x1ec5;" horiz-adv-x="1097" 
d="M864 553q0 170 -72.5 254t-228.5 84t-237.5 -90t-81.5 -248h620zM80 486q0 257 127 392.5t355 135.5t342 -129t114 -353v-92h-774q0 -182 92 -265t248 -83t250 55v64h149v-129q-170 -113 -400 -113q-229 0 -366 130t-137 387zM477 1348h174l211 -269h-155l-144 189
l-141 -189h-156zM431 1483q-56 0 -56 -92h-109q0 109 40 153.5t113 44.5t156 -47t118 -47q34 0 48.5 22.5t14.5 69.5h108q0 -106 -40 -152t-110 -46t-165 53q-41 20 -64.5 30.5t-53.5 10.5z" />
    <glyph glyph-name="uni1EC6" unicode="&#x1ec6;" horiz-adv-x="1114" 
d="M485 -129h164v-168h-164v168zM80 121h65q39 0 55.5 17.5t16.5 58.5v933q0 41 -16.5 57.5t-55.5 16.5h-65v121h954v-238h-147v46q0 39 -17.5 55t-58.5 16h-430v-479h393v-121h-393v-483h430q41 0 58.5 16.5t17.5 55.5v47h147v-240h-954v121zM477 1812h176l246 -374h-162
l-172 270l-172 -270h-162z" />
    <glyph glyph-name="uni1EC7" unicode="&#x1ec7;" horiz-adv-x="1097" 
d="M494 -129h163v-168h-163v168zM864 553q0 170 -72.5 254t-228.5 84t-237.5 -90t-81.5 -248h620zM80 486q0 257 127 392.5t355 135.5t342 -129t114 -353v-92h-774q0 -182 92 -265t248 -83t250 55v64h149v-129q-170 -113 -400 -113q-229 0 -366 130t-137 387zM479 1454h176
l246 -375h-162l-172 271l-172 -271h-162z" />
    <glyph glyph-name="uni1EC8" unicode="&#x1ec8;" horiz-adv-x="598" 
d="M80 121h65q39 0 55.5 17.5t16.5 58.5v933q0 41 -16.5 57.5t-55.5 16.5h-65v121h438v-121h-65q-39 0 -55.5 -16.5t-16.5 -57.5v-935q0 -41 16.5 -57.5t55.5 -16.5h65v-121h-438v121zM236 1569q137 0 137 94q0 45 -27 61.5t-82 16.5t-108 -17v103q61 20 131 20
q221 0 221 -170q0 -127 -139 -161v-80h-133v133z" />
    <glyph glyph-name="uni1EC9" unicode="&#x1ec9;" horiz-adv-x="559" 
d="M59 121h66q39 0 55.5 17.5t16.5 58.5v591q0 41 -16.5 57.5t-55.5 16.5h-66v121h301v-788q0 -41 16.5 -57.5t55.5 -16.5h66v-121h-439v121zM180 1198q137 0 137 94q0 45 -26.5 61.5t-81.5 16.5t-109 -16v102q61 20 131 21q222 0 222 -170q0 -127 -140 -162v-80h-133v133z
" />
    <glyph glyph-name="uni1ECA" unicode="&#x1eca;" horiz-adv-x="598" 
d="M215 -129h164v-168h-164v168zM80 121h65q39 0 55.5 17.5t16.5 58.5v933q0 41 -16.5 57.5t-55.5 16.5h-65v121h438v-121h-65q-39 0 -55.5 -16.5t-16.5 -57.5v-935q0 -41 16.5 -57.5t55.5 -16.5h65v-121h-438v121z" />
    <glyph glyph-name="uni1ECB" unicode="&#x1ecb;" horiz-adv-x="559" 
d="M197 -129h163v-168h-163v168zM59 121h66q39 0 55.5 17.5t16.5 58.5v591q0 41 -16.5 57.5t-55.5 16.5h-66v121h301v-788q0 -41 16.5 -57.5t55.5 -16.5h66v-121h-439v121zM188 1305h181v-158h-181v158z" />
    <glyph glyph-name="uni1ECC" unicode="&#x1ecc;" horiz-adv-x="1341" 
d="M578 -129h163v-168h-163v168zM1104 660q0 304 -106.5 438.5t-326.5 134.5t-326.5 -134.5t-106.5 -438.5t107.5 -436t325.5 -132t325.5 132t107.5 436zM80 659q0 348 142.5 522.5t449.5 174.5t448.5 -174t141.5 -522t-145.5 -519.5t-445.5 -171.5t-445.5 171t-145.5 519z
" />
    <glyph glyph-name="uni1ECD" unicode="&#x1ecd;" horiz-adv-x="1142" 
d="M477 -129h164v-168h-164v168zM571.5 92q333.5 0 333.5 400t-334 399q-333 1 -333 -399t333.5 -400zM80 490q0 244 121 384t370.5 140t370.5 -139.5t121 -384.5t-122 -383t-369.5 -138t-369.5 138.5t-122 382.5z" />
    <glyph glyph-name="uni1ECE" unicode="&#x1ece;" horiz-adv-x="1341" 
d="M1104 660q0 304 -106.5 438.5t-326.5 134.5t-326.5 -134.5t-106.5 -438.5t107.5 -436t325.5 -132t325.5 132t107.5 436zM80 659q0 348 142.5 522.5t449.5 174.5t448.5 -174t141.5 -522t-145.5 -519.5t-445.5 -171.5t-445.5 171t-145.5 519zM594 1571q137 0 137 94
q0 45 -26.5 61.5t-82.5 16.5t-108 -17v103q61 20 131 20q221 0 221 -170q0 -127 -139 -161v-80h-133v133z" />
    </font>
</defs>
</svg>
