<?xml version="1.0" standalone="no"?>
<!DOCTYPE svg PUBLIC "-//W3C//DTD SVG 1.1//EN" "http://www.w3.org/Graphics/SVG/1.1/DTD/svg11.dtd" >
<svg xmlns="http://www.w3.org/2000/svg">
<metadata>
Created by FontPrep 20130207 at Sat Feb 25 08:02:12 2017
 By Solano
Copyright (c) 2015, Cadson Demak (info@cadsondemak.com)
</metadata>
<defs>
<font id="5e31b26e69a0772e6880d28d7c198a39" horiz-adv-x='1024' >
  <font-face 
    font-family="Pridi-Medium"
    font-weight="500"
    font-stretch="normal"
    units-per-em="2048"
    panose-1="0 0 6 0 0 0 0 0 0 0"
    ascent="1536"
    descent="-512"
    x-height="983"
    cap-height="1325"
    bbox="-1313 -856 2531 2154"
    underline-thickness="102"
    underline-position="-102"
    unicode-range="U+000D-FB02"
  />
<missing-glyph horiz-adv-x="1228" 
d="M930 104v1254h-633v-1254h633zM193 1462h841v-1462h-841v1462z" />
    <glyph glyph-name="fi" unicode="fi" horiz-adv-x="1181" 
d="M459 1069v-86h555v-725q0 -76 78 -76h55v-182h-408v805h-280v-551q0 -39 17.5 -57.5t58.5 -18.5h53v-178h-531v178h54q43 0 61 19.5t18 60.5v547h-155v178h155v57q0 164 111 255t340 91t373 -118v-170h-254v78q-45 37 -137 36q-164 0 -164 -143z" />
    <glyph glyph-name="fl" unicode="fl" horiz-adv-x="1181" 
d="M620 1212q-161 0 -161 -143v-86h280v199q-38 30 -119 30zM642 1386q230 0 372 -118v-1010q0 -76 78 -76h55v-182h-408v805h-280v-551q0 -39 17.5 -57.5t58.5 -18.5h53v-178h-531v178h54q43 0 61 19.5t18 60.5v547h-155v178h155v57q0 164 111 255t341 91z" />
    <glyph glyph-name="ru_lakkhangyaothai" unicode="&#xe24;&#xe45;" horiz-adv-x="1816" 
d="M416 174q0 45 -17.5 61.5t-64.5 16.5t-64.5 -16.5t-17.5 -61.5t17.5 -61.5t64.5 -16.5t64.5 16.5t17.5 61.5zM805 733q-1 195 -253 195q-132 0 -235 -76v-27l158 -98v-109q-63 -23 -83.5 -59.5t-20.5 -112.5v-81q90 0 140 -47.5t50 -148.5t-51 -150.5t-182 -49.5
t-182.5 54.5t-51.5 179.5v219q0 90 25.5 147.5t91.5 96.5l-156 92v160q204 196 518 196q246 0 379 -106q152 106 366 106t308 -104.5t94 -294.5v-1127h-276v1129q0 111 -41 161t-152 50t-198 -70q29 -53 28 -137v-1133h-276v1145z" />
    <glyph glyph-name="lu_lakkhangyaothai" unicode="&#xe26;&#xe45;" horiz-adv-x="1898" 
d="M365 174q0 45 -17.5 61.5t-64.5 16.5t-64.5 -16.5t-17.5 -61.5t17.5 -61.5t64.5 -16.5t64.5 16.5t17.5 61.5zM887 733q1 195 -251 195q-132 0 -237 -76v-27l189 -110v-111q-41 -25 -52.5 -56.5t-11.5 -107.5v-237q0 -125 -52 -179.5t-183 -54.5t-182.5 49.5t-51.5 149.5
t53.5 148.5t143.5 48.5v106q0 63 13.5 99t56.5 79l-185 109v160q204 196 518 196q246 0 379 -106q143 106 361 106t312.5 -104.5t94.5 -294.5v-1127h-276v1129q0 111 -41 161t-155 50q-115 0 -197 -70q31 -55 30 -137v-1133h-276v1145z" />
    <glyph glyph-name=".notdef" horiz-adv-x="1228" 
d="M930 104v1254h-633v-1254h633zM193 1462h841v-1462h-841v1462z" />
    <glyph glyph-name=".null" 
 />
    <glyph glyph-name="nonmarkingreturn" unicode="&#xd;" horiz-adv-x="665" 
 />
    <glyph glyph-name="space" unicode=" " horiz-adv-x="665" 
 />
    <glyph glyph-name="exclam" unicode="!" horiz-adv-x="446" 
d="M76 215h295v-215h-295v215zM80 1325h289l-15 -924h-260z" />
    <glyph glyph-name="quotedbl" unicode="&#x22;" horiz-adv-x="765" 
d="M442 1477h248l-26 -420h-193zM76 1477h246l-25 -420h-195z" />
    <glyph glyph-name="numbersign" unicode="#" horiz-adv-x="1533" 
d="M909 528l68 306h-342l-68 -306h342zM76 348v180h258l69 306h-270v180h309l68 311h235l-69 -311h342l69 311h234l-70 -311h207v-180h-248l-67 -306h256v-180h-297l-76 -348h-231l73 348h-342l-73 -348h-236l78 348h-219z" />
    <glyph glyph-name="dollar" unicode="$" horiz-adv-x="1148" 
d="M76 348h272v-141q99 -57 244 -57q217 0 217 176q0 103 -88.5 151.5t-220.5 101.5t-272 138.5t-140 277.5q0 145 96.5 232.5t255.5 113.5v230h248v-223q203 -20 363 -148v-203h-273v131q-84 47 -207 48q-219 0 -219 -172q0 -103 83 -148t165 -78l43 -18
q172 -74 301 -145.5t129 -276.5q0 -143 -100.5 -242.5t-284.5 -118.5v-223h-248v228q-211 28 -364 147v219z" />
    <glyph glyph-name="percent" unicode="%" horiz-adv-x="1574" 
d="M1323 286q0 58 -40 98t-99.5 40t-100.5 -41t-41 -98.5t41 -98.5t100.5 -41t99.5 41.5t40 99.5zM868 285q0 86 42 158.5t115 114.5t159 42t158.5 -42t114.5 -114.5t42 -158.5t-42 -159t-114.5 -115t-158.5 -42t-159 42t-115 115t-42 159zM530 1041q0 58 -40 98.5t-98 40.5
t-99 -40t-41 -98t41 -99.5t99 -41.5t98 41t40 99zM1044 1325h273l-772 -1325h-273zM76 1040q0 86 42 159t114.5 115t158.5 42t159 -42t115 -115t42 -159t-42 -158.5t-115 -114.5t-159 -42t-158.5 42t-114.5 114.5t-42 158.5z" />
    <glyph glyph-name="ampersand" unicode="&#x26;" horiz-adv-x="1419" 
d="M344 335q0 -89 66.5 -139.5t156.5 -50.5t148.5 17.5t111.5 60.5l-333 357q-80 -47 -115 -101.5t-35 -143.5zM551 1180q-115 0 -115 -138q0 -55 32 -101t107 -122l359 -379q25 66 24 172v164h363v-176h-66q-33 0 -45 -13.5t-12 -45.5q0 -190 -74 -314l219 -227h-303
l-79 84q-82 -66 -170.5 -90.5t-219.5 -24.5q-225 0 -360 97.5t-135 271.5q0 135 64.5 228t201.5 171q-78 76 -124 150t-46 155q0 152 100.5 233t281.5 81t278.5 -89t97.5 -231v-57h-271v84q0 55 -28.5 86t-79.5 31z" />
    <glyph glyph-name="quotesingle" unicode="'" horiz-adv-x="423" 
d="M76 1477h272l-26 -420h-220z" />
    <glyph glyph-name="parenleft" unicode="(" horiz-adv-x="751" 
d="M340 642q0 -502 336 -796h-307q-293 295 -293 801t293 801h307q-336 -304 -336 -806z" />
    <glyph glyph-name="parenright" unicode=")" horiz-adv-x="751" 
d="M412 652q0 502 -336 796h307q293 -295 293 -801t-293 -801h-307q336 304 336 806z" />
    <glyph glyph-name="asterisk" unicode="*" horiz-adv-x="874" 
d="M147 930l138 172l-209 55l69 199l181 -80l-7 201h238l-10 -201l182 78l70 -197l-211 -55l139 -172l-178 -121l-113 178l-110 -178z" />
    <glyph glyph-name="plus" unicode="+" horiz-adv-x="845" 
d="M311 541h-235v178h235v213h217v-213h242v-178h-242v-213h-217v213z" />
    <glyph glyph-name="comma" unicode="," horiz-adv-x="485" 
d="M145 199h265l-138 -443h-196z" />
    <glyph glyph-name="hyphen" unicode="-" horiz-adv-x="761" 
d="M76 707h610v-179h-610v179z" />
    <glyph glyph-name="period" unicode="." horiz-adv-x="366" 
d="M76 199h215v-199h-215v199z" />
    <glyph glyph-name="slash" unicode="/" horiz-adv-x="937" 
d="M590 1384h272l-512 -1384h-274z" />
    <glyph glyph-name="zero" unicode="0" horiz-adv-x="1280" 
d="M958 662q0 272 -81.5 392t-236.5 120t-236.5 -120t-81.5 -391t81.5 -391t236.5 -120t236.5 119t81.5 391zM55 662q0 348 143.5 521t441.5 173t441.5 -173t143.5 -520t-143.5 -520.5t-441.5 -173.5t-441.5 172.5t-143.5 520.5z" />
    <glyph glyph-name="one" unicode="1" horiz-adv-x="856" 
d="M137 178h115q45 0 63.5 19.5t18.5 60.5v807l-178 -109l-101 164l324 205h223v-1067q0 -41 19.5 -60.5t64.5 -19.5h115v-178h-664v178z" />
    <glyph glyph-name="two" unicode="2" horiz-adv-x="1112" 
d="M770 989q0 185 -219 185q-109 0 -203 -41v-123h-264v209q92 61 215 99t250 38q223 0 355 -91t132 -276q0 -150 -89 -253t-298 -220q-111 -61 -209 -130t-98 -208h678v-178h-944v117q0 186 113.5 320t332.5 243q131 66 189.5 131.5t58.5 177.5z" />
    <glyph glyph-name="three" unicode="3" horiz-adv-x="1144" 
d="M539 -31q-282 0 -463 160v209h268v-129q100 -57 224 -57t180.5 54t56.5 189q0 207 -217 207h-172v180h176q199 0 199 209q0 92 -59.5 137.5t-165.5 45.5t-195 -37v-127h-269v207q86 63 211 101t256 38q219 0 353.5 -89t134.5 -276t-172 -297q184 -92 184 -291
q0 -225 -124 -329.5t-406 -104.5z" />
    <glyph glyph-name="four" unicode="4" horiz-adv-x="1124" 
d="M631 530v449l-330 -449h330zM440 178h90q45 0 63.5 19.5t18.5 60.5v92h-577v162l598 813h241v-795h216v-180h-216v-92q0 -41 19.5 -60.5t64.5 -19.5h91v-178h-609v178z" />
    <glyph glyph-name="five" unicode="5" horiz-adv-x="1150" 
d="M76 338h268v-131q96 -55 226 -55t185.5 75t55.5 219t-67.5 204.5t-211.5 60.5h-411v127l41 487h872v-178h-624l-23 -252h178q510 0 510 -446q0 -229 -125 -354.5t-401 -125.5t-473 160v209z" />
    <glyph glyph-name="six" unicode="6" horiz-adv-x="1167" 
d="M866 460q0 163 -62.5 234.5t-187.5 71.5t-199.5 -71.5t-74.5 -202.5q0 -182 66.5 -261t199.5 -79t195.5 72.5t62.5 235.5zM76 562q0 298 117 546t469 248q127 0 211.5 -29t170.5 -92l-98 -158q-106 97 -259 97q-297 1 -353 -353q119 117 344 117q455 0 455 -465
q0 -248 -135.5 -376t-389.5 -128t-393 147.5t-139 445.5z" />
    <glyph glyph-name="seven" unicode="7" horiz-adv-x="1058" 
d="M305 1147v-143h-270v321h989v-119l-485 -1206h-273l463 1147h-424z" />
    <glyph glyph-name="eight" unicode="8" horiz-adv-x="1202" 
d="M586 602q-244 0 -244 -225t196.5 -225t259 56t62.5 179q0 215 -239 215h-35zM842 985q0 189 -238 189t-239 -189q0 -111 54 -159t165 -48h39q113 0 166 48t53 159zM1126 375q0 -406 -525 -406t-525 406q0 213 184 315q-162 110 -162 292q0 183 138.5 278.5t366.5 95.5
t366.5 -95.5t138.5 -278.5t-164 -292q182 -101 182 -315z" />
    <glyph glyph-name="nine" unicode="9" horiz-adv-x="1208" 
d="M864 864q0 310 -250 310q-143 0 -207.5 -73t-64.5 -236t63.5 -234.5t190.5 -71.5t197.5 73.5t70.5 231.5zM525 152q146 0 227.5 87t124.5 269q-66 -66 -143 -93.5t-183 -27.5q-231 0 -353 121.5t-122 357.5t139 363t390 127t389.5 -147.5t138.5 -458.5
q0 -416 -161 -598.5t-407 -182.5t-401 109l102 166q113 -92 259 -92z" />
    <glyph glyph-name="colon" unicode=":" horiz-adv-x="368" 
d="M76 229h217v-229h-217v229zM76 1016h217v-228h-217v228z" />
    <glyph glyph-name="semicolon" unicode=";" horiz-adv-x="471" 
d="M143 199h252l-135 -443h-184zM139 1016h242v-228h-242v228z" />
    <glyph glyph-name="less" unicode="&#x3c;" horiz-adv-x="1273" 
d="M76 598v135l1122 500v-221l-813 -344l813 -349v-221z" />
    <glyph glyph-name="equal" unicode="=" horiz-adv-x="858" 
d="M76 545h706v-183h-706v183zM76 874h706v-180h-706v180z" />
    <glyph glyph-name="greater" unicode="&#x3e;" horiz-adv-x="1273" 
d="M76 319l813 349l-813 344v221l1122 -500v-135l-1122 -500v221z" />
    <glyph glyph-name="question" unicode="?" horiz-adv-x="1112" 
d="M324 221h301v-221h-301v221zM340 387q0 131 56.5 223t189.5 164q98 49 141 97.5t43 129.5q0 174 -229 175q-113 0 -224 -54v-123h-241v215q86 63 209 102.5t264 39.5q231 0 359 -89t128 -258t-89 -242t-173 -120t-113.5 -81t-40 -75.5t-10.5 -115.5v-47h-270v59z" />
    <glyph glyph-name="at" unicode="@" horiz-adv-x="1765" 
d="M1020 426v53l-176 -12q-55 -4 -83 -26.5t-28 -75.5q0 -86 111 -86q80 0 128 36.5t48 110.5zM895 -225q-418 0 -618.5 213t-200.5 581q0 229 101.5 403.5t286.5 268.5t431 94q393 0 594 -189.5t201 -533.5q0 -479 -342 -479q-72 0 -132.5 38t-76.5 93q-96 -139 -328 -139
q-150 0 -226.5 62.5t-76.5 176.5t69.5 180t198.5 74l244 17v55q0 61 -25.5 88t-90.5 27t-111 -25v-57h-230v135q139 100 333 100t280 -71.5t86 -214.5v-271q0 -88 67 -88q125 0 125 305q0 260 -128 382t-420 122q-593 0 -593 -553q0 -307 147.5 -448t429.5 -141t480 73v-200
q-238 -78 -475 -78z" />
    <glyph glyph-name="A" unicode="A" horiz-adv-x="1468" 
d="M877 551l-140 424l-143 -424h283zM55 178h60q49 0 73.5 15.5t38.5 58.5l379 1073h260l373 -1073q14 -43 40 -58.5t77 -15.5h57v-178h-512v178h94l-73 225h-373l-76 -225h94v-178h-512v178z" />
    <glyph glyph-name="B" unicode="B" horiz-adv-x="1226" 
d="M721 178q84 0 134 51.5t50 152.5t-54 146t-155 45h-237v-395h262zM686 758q90 0 143.5 50t53.5 146q0 193 -191 193h-233v-389h227zM55 178h58q43 0 60 18.5t17 61.5v813q0 39 -17 57.5t-60 18.5h-58v178h725q174 0 271.5 -92t97.5 -264q0 -96 -48 -174t-136 -121
q207 -80 206 -303q0 -166 -99 -268.5t-267 -102.5h-750v178z" />
    <glyph glyph-name="C" unicode="C" horiz-adv-x="1234" 
d="M760 152q172 0 323 86l97 -152q-98 -66 -195.5 -91.5t-236.5 -25.5q-224 0 -379.5 86t-234.5 240.5t-79 358.5t72 363t220.5 249t369.5 90q150 0 254 -29t205 -92v-234h-269v142q-76 31 -176 31q-199 0 -304 -137.5t-105 -380.5t113.5 -373.5t324.5 -130.5z" />
    <glyph glyph-name="D" unicode="D" horiz-adv-x="1292" 
d="M631 178q184 0 263 119t79 363t-78 365.5t-264 121.5h-180v-969h180zM55 178h54q43 0 61 19.5t18 60.5v813q0 39 -18 57.5t-61 18.5h-54v178h615q287 0 427 -173.5t140 -481.5t-144.5 -489t-422.5 -181h-615v178z" />
    <glyph glyph-name="E" unicode="E" horiz-adv-x="1118" 
d="M737 178q80 0 80 78v37h246v-293h-1008v178h54q43 0 61 19.5t18 60.5v813q0 39 -18 57.5t-61 18.5h-54v178h1008v-291h-246v37q0 76 -80 76h-278v-393h315v-181h-315v-395h278z" />
    <glyph glyph-name="F" unicode="F" horiz-adv-x="1118" 
d="M459 254q0 -76 76 -76h55v-178h-535v178h54q43 0 61 19.5t18 60.5v813q0 39 -18 57.5t-61 18.5h-54v178h1008v-291h-246v37q0 76 -80 76h-278v-393h315v-181h-315v-319z" />
    <glyph glyph-name="G" unicode="G" horiz-adv-x="1280" 
d="M55 654q0 204 72 363t220.5 249t369.5 90q150 0 254 -29t205 -92v-234h-269v142q-76 31 -176 31q-199 0 -304 -137.5t-105 -379.5t109.5 -373.5t307.5 -131.5q123 0 215 32v351h-268v180h539v-609q-194 -137 -498 -137q-215 0 -365.5 87t-228.5 240.5t-78 357.5z" />
    <glyph glyph-name="H" unicode="H" horiz-adv-x="1402" 
d="M459 258q0 -80 76 -80h40v-178h-520v178h54q43 0 60 18.5t17 61.5v813q0 39 -17 57.5t-60 18.5h-54v178h520v-178h-40q-41 0 -58.5 -18.5t-17.5 -57.5v-317h485v315q0 41 -17.5 59.5t-58.5 18.5h-43v178h523v-178h-54q-43 0 -61.5 -18.5t-18.5 -57.5v-813
q0 -41 18.5 -60.5t61.5 -19.5h54v-178h-523v178h43q76 0 76 80v317h-485v-317z" />
    <glyph glyph-name="I" unicode="I" horiz-adv-x="641" 
d="M55 178h54q43 0 61 19.5t18 60.5v813q0 39 -18 57.5t-61 18.5h-54v178h531v-178h-54q-41 0 -58 -18.5t-17 -57.5v-817q0 -39 17.5 -57.5t57.5 -18.5h54v-178h-531v178z" />
    <glyph glyph-name="J" unicode="J" horiz-adv-x="1030" 
d="M416 -31q-285 0 -422 164v180h242v-102q57 -59 155 -59t139 44t41 140v735q0 76 -77 76h-56v178h537v-178h-55q-78 0 -78 -76v-694q0 -193 -109.5 -300.5t-316.5 -107.5z" />
    <glyph glyph-name="K" unicode="K" horiz-adv-x="1341" 
d="M459 254q0 -76 67 -76h37v-178h-508v178h54q77 0 77 76v817q0 39 -17 57.5t-60 18.5h-54v178h508v-180h-37q-68 0 -67 -74v-373l418 449h-95v178h486v-178h-74q-39 0 -59.5 -12.5t-49.5 -42.5l-313 -334l344 -525q34 -55 105 -55h65v-178h-512v178h113l-273 418
l-155 -166v-176z" />
    <glyph glyph-name="L" unicode="L" horiz-adv-x="1056" 
d="M737 178q80 0 80 78v72h246v-328h-1008v178h51q43 0 62.5 18.5t19.5 59.5v815q0 39 -18 57.5t-61 18.5h-54v178h537v-178h-53q-43 0 -61.5 -18.5t-18.5 -57.5v-893h278z" />
    <glyph glyph-name="M" unicode="M" horiz-adv-x="1585" 
d="M1055 178q75 0 75 76v643l-245 -573h-185l-247 573v-643q0 -76 79 -76h56v-178h-533v178h54q43 0 61 19.5t18 60.5v809q0 41 -18 60.5t-61 19.5h-54v178h410l330 -760l327 760h408v-178h-55q-76 0 -76 -80v-809q0 -80 76 -80h55v-178h-531v178h56z" />
    <glyph glyph-name="N" unicode="N" horiz-adv-x="1419" 
d="M1309 1147q-76 0 -76 -76v-1071h-207l-567 883v-629q0 -39 17.5 -57.5t58.5 -18.5h53v-178h-533v178h54q80 0 79 76v817q0 39 -18 57.5t-61 18.5h-54v178h338l572 -887v633q0 76 -80 76h-56v178h535v-178h-55z" />
    <glyph glyph-name="O" unicode="O" horiz-adv-x="1357" 
d="M1036 660q0 276 -85 395t-271 119q-127 0 -242.5 -75t-115.5 -442q0 -274 85 -389.5t272 -115.5t272 116t85 392zM55 659q0 348 149.5 522.5t473.5 174.5t474.5 -174t150.5 -522t-154.5 -519.5t-470.5 -171.5t-469.5 171t-153.5 519z" />
    <glyph glyph-name="P" unicode="P" horiz-adv-x="1282" 
d="M731 657q232 0 232 252q0 131 -55.5 184.5t-176.5 53.5h-280v-490h280zM188 1071q0 76 -82 76h-51v178h713q215 0 337 -106.5t122 -308.5t-124 -316.5t-337 -114.5h-315v-225q0 -76 79 -76h58v-178h-533v178h51q82 0 82 76v817z" />
    <glyph glyph-name="Q" unicode="Q" horiz-adv-x="1357" 
d="M1036 660q0 263 -87 388.5t-271 125.5t-270 -125t-86 -389t87 -386t270 -122t270 122.5t87 385.5zM55 657q0 699 625 699q317 0 470 -182t153 -502q0 -645 -521 -699q10 -55 51 -74.5t105 -19.5t111 35v55h208v-125q-105 -141 -327 -141q-156 0 -244 75t-111 195
q-260 27 -390 203t-130 481z" />
    <glyph glyph-name="R" unicode="R" horiz-adv-x="1288" 
d="M707 682q233 0 233 240q0 121 -55.5 173t-177.5 52h-256v-465h256zM188 1071q0 76 -82 76h-51v178h693q215 0 335.5 -103.5t120.5 -299.5q0 -147 -76.5 -248t-220.5 -139l160 -293q37 -64 117 -64h49v-178h-479v178h82l-172 326h-213v-256q0 -37 14 -53.5t53 -16.5h49
v-178h-512v178h51q82 0 82 76v817z" />
    <glyph glyph-name="S" unicode="S" horiz-adv-x="1110" 
d="M55 348h273v-141q98 -55 243 -55q217 0 217 174q0 106 -88 151t-220 99t-273 140t-141 271q0 186 140 277.5t359 91.5q270 0 465 -156v-203h-274v131q-78 45 -205 46q-219 0 -219 -170q0 -59 41 -103.5t97 -72.5t188 -82t216 -101t132.5 -118t48.5 -183t-56.5 -195
t-166 -131.5t-263 -48.5t-286.5 43t-228 117v219z" />
    <glyph glyph-name="T" unicode="T" horiz-adv-x="1208" 
d="M739 254q0 -76 82 -76h51v-178h-534v178h51q43 0 61.5 18.5t18.5 57.5v893h-160q-43 0 -61.5 -17.5t-18.5 -58.5v-76h-194v330h1139v-330h-195v76q0 41 -18.5 58.5t-61.5 17.5h-160v-893z" />
    <glyph glyph-name="U" unicode="U" horiz-adv-x="1363" 
d="M158 379v694q0 39 -17.5 56.5t-60.5 17.5h-45v178h508v-178h-45q-41 0 -59.5 -17.5t-18.5 -56.5v-706q0 -215 262 -215t262 215v706q0 39 -17.5 56.5t-60.5 17.5h-45v178h508v-178h-45q-41 0 -59.5 -17.5t-18.5 -56.5v-694q0 -190 -132 -300t-393 -110t-392 109.5
t-131 300.5z" />
    <glyph glyph-name="V" unicode="V" horiz-adv-x="1452" 
d="M90 1147h-35v178h367l305 -975l299 975h371v-178h-35q-63 0 -90 -17.5t-47 -70.5l-367 -1059h-260l-373 1059q-18 53 -45.5 70.5t-89.5 17.5z" />
    <glyph glyph-name="W" unicode="W" horiz-adv-x="1767" 
d="M88 1147h-33v178h355l178 -852l194 629h201l197 -629l180 852h352v-178h-35q-63 0 -89.5 -18.5t-39.5 -71.5l-233 -1057h-219l-213 651l-209 -651h-221l-236 1057q-12 53 -38.5 71.5t-90.5 18.5z" />
    <glyph glyph-name="X" unicode="X" horiz-adv-x="1394" 
d="M55 178h60q59 0 92 16.5t63 61.5l285 408l-281 407q-31 45 -63.5 60.5t-91.5 15.5h-47v178h503v-178h-81l202 -324l205 324h-84v178h504v-178h-47q-57 0 -90 -16.5t-64 -59.5l-282 -407l286 -408q29 -45 63 -61.5t91 -16.5h61v-178h-518v178h84l-209 326l-207 -326h82
v-178h-516v178z" />
    <glyph glyph-name="Y" unicode="Y" horiz-adv-x="1370" 
d="M819 254q0 -76 82 -76h51v-178h-534v178h51q80 0 80 78v233l-311 574q-27 49 -54.5 66.5t-81.5 17.5h-47v178h496v-178h-29q-35 0 -35 -23q0 -16 17 -49l182 -366l180 366q16 33 17 49q0 23 -35 23h-29v178h496v-178h-47q-53 0 -81 -17.5t-54 -66.5l-314 -574v-235z" />
    <glyph glyph-name="Z" unicode="Z" horiz-adv-x="1157" 
d="M399 1147q-43 0 -61.5 -17.5t-18.5 -58.5v-35h-245v289h995v-145l-692 -1002h399q43 0 61.5 18.5t18.5 59.5v33h246v-289h-1047v147l707 1000h-363z" />
    <glyph glyph-name="bracketleft" unicode="[" horiz-adv-x="632" 
d="M96 1536h461v-178h-190v-1350h190v-178h-461v1706z" />
    <glyph glyph-name="backslash" unicode="\" horiz-adv-x="933" 
d="M76 1384h272l510 -1384h-270z" />
    <glyph glyph-name="bracketright" unicode="]" horiz-adv-x="632" 
d="M76 8h190v1350h-190v178h461v-1706h-461v178z" />
    <glyph glyph-name="asciicircum" unicode="^" horiz-adv-x="1251" 
d="M516 1473h219l441 -734h-279l-270 480l-273 -480h-278z" />
    <glyph glyph-name="underscore" unicode="_" horiz-adv-x="972" 
d="M76 -20h821v-183h-821v183z" />
    <glyph glyph-name="grave" unicode="`" horiz-adv-x="630" 
d="M76 1452h303l176 -395h-229z" />
    <glyph glyph-name="a" unicode="a" horiz-adv-x="1075" 
d="M666 330v84l-228 -17q-86 -6 -118.5 -35.5t-32.5 -97.5q0 -121 153 -121q107 0 166.5 47.5t59.5 139.5zM936 254q0 -76 65 -76h39v-178h-254l-26 123q-72 -86 -156 -120t-240 -34t-242.5 71.5t-86.5 213.5q0 276 379 297l252 16v121q0 78 -35 110.5t-123 32.5t-154 -36
v-80h-231v188q178 111 396 111t317.5 -94.5t99.5 -257.5v-408z" />
    <glyph glyph-name="b" unicode="b" horiz-adv-x="1226" 
d="M907 489.5q0 184.5 -56 267.5t-176 83t-186.5 -78t-66.5 -215v-115q0 -127 69.5 -215t186.5 -88t173 88t56 272.5zM1171 493q0 -250 -122.5 -387t-327.5 -137q-123 0 -208 44t-144 139l-17 -152h-205v1090q0 45 -15 65.5t-60 20.5h-37v180h375v-473q124 131 334 131
t318.5 -135.5t108.5 -385.5z" />
    <glyph glyph-name="c" unicode="c" horiz-adv-x="1064" 
d="M648 152q150 0 272 81l90 -147q-92 -66 -182 -91.5t-240 -25.5t-271.5 58.5t-191.5 174t-70 279.5q0 254 143.5 393.5t393.5 139.5q139 0 231 -31t181 -98v-215h-232v118q-77 43 -188 43t-186.5 -88t-75.5 -258t88 -251.5t238 -81.5z" />
    <glyph glyph-name="d" unicode="d" horiz-adv-x="1216" 
d="M805 442v101q0 141 -61.5 221t-184.5 80t-181.5 -91t-58.5 -275t56.5 -264.5t177.5 -80.5t186.5 88t65.5 221zM55 480q0 251 116 392.5t333 141.5q113 0 182.5 -29t128.5 -98v203q0 45 -15.5 65.5t-60.5 20.5h-37v180h377v-1108q0 -45 15.5 -61.5t54.5 -16.5h33v-170
h-308l-16 137q-66 -86 -151.5 -126t-212.5 -40q-205 0 -322 129t-117 380z" />
    <glyph glyph-name="e" unicode="e" horiz-adv-x="1107" 
d="M786 582q0 249 -223 249q-117 0 -179 -64.5t-62 -184.5h464zM322 428q0 -276 194.5 -276t269.5 32v72h232v-156q-156 -131 -419 -131t-403.5 130t-140.5 389t133.5 392.5t375.5 133.5t365.5 -132t123.5 -358v-96h-731z" />
    <glyph glyph-name="f" unicode="f" horiz-adv-x="876" 
d="M57 178h54q43 0 61 19.5t18 60.5v547h-155v178h155v66q0 168 99.5 261t307.5 93t343 -113v-176h-231v82q-39 33 -106.5 33t-105.5 -41t-38 -123v-82h280v-178h-280v-551q0 -39 17.5 -57.5t58.5 -18.5h53v-178h-531v178z" />
    <glyph glyph-name="g" unicode="g" horiz-adv-x="1214" 
d="M805 455v84q0 137 -61.5 225t-184.5 88t-181.5 -84t-58.5 -265t58.5 -265t182.5 -84t184.5 79.5t60.5 221.5zM639 -227q178 0 178 184v158q-57 -66 -131 -95.5t-182 -29.5q-213 0 -331 131t-118 385q0 162 59.5 276.5t165 173t234.5 58.5t206 -40t138 -130l19 139h303
v-172h-35q-39 0 -52.5 -19.5t-13.5 -66.5v-723q0 -188 -112.5 -300t-319.5 -112q-256 1 -414 140v161h232v-84q60 -34 174 -34z" />
    <glyph glyph-name="h" unicode="h" horiz-adv-x="1247" 
d="M55 178h54q43 0 61 19.5t18 60.5v834q0 45 -15 65.5t-60 20.5h-58v178h375v-465q78 70 152.5 96.5t185.5 26.5q164 0 239.5 -87t75.5 -255v-418q0 -39 17.5 -57.5t58.5 -18.5h53v-178h-397v670q0 90 -38 130t-123 40t-141 -50.5t-56 -140.5v-395q0 -39 17.5 -57.5
t57.5 -18.5h54v-178h-531v178z" />
    <glyph glyph-name="i" unicode="i" horiz-adv-x="600" 
d="M35 178h53q43 0 61.5 19.5t18.5 60.5v461q0 45 -15.5 65.5t-60.5 20.5h-57v178h401v-729q0 -39 17.5 -57.5t58.5 -18.5h53v-178h-530v178zM158 1348h282v-218h-282v218z" />
    <glyph glyph-name="j" unicode="j" horiz-adv-x="798" 
d="M698 10q0 -356 -397 -356q-232 0 -369 119v188h224v-84q47 -41 125 -41t113.5 32t35.5 109v742q0 45 -15.5 65.5t-60.5 20.5h-57v178h401v-973zM420 1348h282v-218h-282v218z" />
    <glyph glyph-name="k" unicode="k" horiz-adv-x="1206" 
d="M55 178h54q43 0 61 19.5t18 60.5v834q0 45 -15 65.5t-60 20.5h-58v178h402v-766l245 215h-84v178h510v-178h-102q-33 0 -49 -7t-41 -28l-170 -149l229 -394q18 -31 35 -40t55 -9h86v-178h-305l-280 479l-129 -112v-113q0 -39 17.5 -57.5t57.5 -18.5h54v-178h-531v178z
" />
    <glyph glyph-name="l" unicode="l" horiz-adv-x="620" 
d="M55 178h54q43 0 61 19.5t18 60.5v834q0 45 -15 65.5t-60 20.5h-58v178h402v-1102q0 -39 17.5 -57.5t57.5 -18.5h54v-178h-531v178z" />
    <glyph glyph-name="m" unicode="m" horiz-adv-x="1779" 
d="M633 840q-180 0 -180 -191v-395q0 -39 17 -57.5t58 -18.5h58v-178h-531v178h54q43 0 61 19.5t18 60.5v471q0 39 -17 57.5t-58 18.5h-58v178h301l15 -139q115 170 352 170q176 0 258 -148q103 148 292 148t266 -85t77 -255v-420q0 -39 17.5 -57.5t58.5 -18.5h53v-178h-397
v674q0 90 -35 128t-113 38q-172 0 -172 -181v-405q0 -39 17.5 -57.5t58.5 -18.5h63v-178h-391v670q0 88 -34.5 129t-108.5 41z" />
    <glyph glyph-name="n" unicode="n" horiz-adv-x="1243" 
d="M748 1014q172 0 251.5 -87t79.5 -255v-418q0 -39 17.5 -57.5t58.5 -18.5h53v-178h-397v670q0 90 -37 130t-123 40t-140 -50.5t-54 -140.5v-395q0 -39 17.5 -57.5t57.5 -18.5h54v-178h-531v178h54q43 0 61 19.5t18 60.5v471q0 39 -17 57.5t-58 18.5h-58v178h305l13 -135
q134 166 375 166z" />
    <glyph glyph-name="o" unicode="o" horiz-adv-x="1142" 
d="M821 490q0 175 -60.5 258t-189.5 83t-189 -82.5t-60 -258.5t60 -257t189 -81t189.5 81.5t60.5 256.5zM55 490q0 250 131 387t386 137t385 -136.5t130 -387.5t-132 -386t-384 -135t-384 135.5t-132 385.5z" />
    <glyph glyph-name="p" unicode="p" horiz-adv-x="1255" 
d="M698 137q236 1 236 361q0 184 -55.5 269t-176.5 85t-193.5 -88t-72.5 -217v-115q0 -135 72 -215t190 -80zM168 725q0 80 -78 80h-35v178h322l20 -143q123 174 343 174t340 -132t120 -384t-115.5 -390.5t-328.5 -138.5q-106 0 -180 29t-140 96v-266q0 -39 17.5 -57.5
t58.5 -18.5h53v-178h-530v178h53q43 0 61.5 19.5t18.5 60.5v893z" />
    <glyph glyph-name="q" unicode="q" horiz-adv-x="1255" 
d="M819 432v115q0 129 -72.5 217t-193.5 88t-176 -85t-55 -269t58 -272.5t177 -88.5t190.5 80t71.5 215zM1165 805q-78 0 -78 -80v-893q0 -41 18.5 -60.5t61.5 -19.5h54v-178h-402v520q-66 -68 -139.5 -96.5t-179.5 -28.5q-213 0 -329 138.5t-116 390.5t120 384t340 132
t343 -174l21 143h321v-178h-35z" />
    <glyph glyph-name="r" unicode="r" horiz-adv-x="823" 
d="M55 178h54q43 0 61 19.5t18 60.5v471q0 39 -16 57.5t-57 18.5h-60v178h351l26 -109q70 109 250 109h106v-178h-139q-102 0 -147 -47t-45 -144v-360q0 -39 17.5 -57.5t57.5 -18.5h54v-178h-531v178z" />
    <glyph glyph-name="s" unicode="s" horiz-adv-x="964" 
d="M485 -31q-263 0 -430 125v172h248v-78q57 -36 157 -36t141.5 20.5t41.5 70.5t-34 74.5t-134 63.5l-94 37q-109 45 -212 105.5t-103 204.5t108.5 215t296.5 71q255 0 416 -123v-172h-240v74q-53 39 -140 39t-131 -22t-44 -75t49 -82.5t156 -68.5l65 -25
q104 -39 205.5 -99.5t101.5 -204.5q0 -286 -424 -286z" />
    <glyph glyph-name="t" unicode="t" horiz-adv-x="917" 
d="M459 289q0 -146 127 -146q78 0 121 37v88h217v-172q-127 -127 -335 -127q-399 0 -399 340v496h-155v178h155v211l269 80v-291h280v-178h-280v-516z" />
    <glyph glyph-name="u" unicode="u" horiz-adv-x="1222" 
d="M164 311v418q0 39 -17.5 57.5t-58.5 18.5h-53v178h397v-670q0 -90 40 -130t125 -40t137 49.5t52 141.5v395q0 39 -17 57.5t-58 18.5h-54v178h531v-178h-53q-43 0 -61.5 -19.5t-18.5 -60.5v-471q0 -39 17.5 -57.5t57.5 -18.5h58v-178h-305l-13 135q-68 -88 -147.5 -127
t-208.5 -39q-174 0 -262 88t-88 254z" />
    <glyph glyph-name="v" unicode="v" horiz-adv-x="1167" 
d="M72 805h-37v178h325l224 -704l223 704h326v-178h-39q-53 0 -75 -12.5t-36 -49.5l-268 -743h-262l-271 743q-12 37 -33.5 49.5t-76.5 12.5z" />
    <glyph glyph-name="w" unicode="w" horiz-adv-x="1562" 
d="M84 805h-49v178h323l152 -657l176 569h188l177 -569l155 657h322v-178h-49q-43 0 -64.5 -13.5t-30.5 -50.5l-180 -741h-248l-174 561l-178 -561h-246l-180 741q-8 37 -29.5 50.5t-64.5 13.5z" />
    <glyph glyph-name="x" unicode="x" horiz-adv-x="1130" 
d="M35 178h63q47 0 74 13.5t53 48.5l195 254l-195 249q-27 35 -53.5 48.5t-73.5 13.5h-63v178h448v-178h-51l133 -178l133 178h-51v178h449v-178h-64q-47 0 -73.5 -13.5t-53.5 -48.5l-196 -249l196 -254q27 -35 53.5 -48.5t73.5 -13.5h64v-178h-449v178h51l-133 180
l-133 -180h51v-178h-448v178z" />
    <glyph glyph-name="y" unicode="y" horiz-adv-x="1177" 
d="M645 -410q-266 0 -418 144v153h232v-71q56 -52 178 -52q188 0 188 222v110q-111 -86 -279 -86t-274 93.5t-106 261.5v364q0 76 -78 76h-53v178h403v-629q0 -170 174 -170q90 0 142.5 51.5t52.5 147.5v346q0 76 -78 76h-53v178h405v-950q0 -201 -117.5 -322t-318.5 -121z
" />
    <glyph glyph-name="z" unicode="z" horiz-adv-x="1028" 
d="M719 180q82 0 82 76v35h172v-291h-918v131l568 672h-299q-80 0 -80 -76v-37h-172v293h880v-133l-565 -670h332z" />
    <glyph glyph-name="braceleft" unicode="{" horiz-adv-x="704" 
d="M586 1358q-131 0 -131 -137v-332q0 -61 -33 -115.5t-90 -89.5q57 -33 90 -86t33 -115v-338q0 -70 31.5 -103.5t99.5 -33.5h43v-178h-111q-182 0 -258 89t-76 267v277q0 74 -37.5 103.5t-111.5 29.5v182q74 0 111.5 29t37.5 102v273q0 178 76 266t258 88h111v-178h-43z
" />
    <glyph glyph-name="bar" unicode="|" horiz-adv-x="421" 
d="M76 1571h270v-1817h-270v1817z" />
    <glyph glyph-name="braceright" unicode="}" horiz-adv-x="704" 
d="M250 1221q0 137 -131 137h-43v178h110q182 0 258 -88t76 -266v-273q0 -74 38 -102.5t112 -28.5v-182q-74 0 -112 -29.5t-38 -103.5v-277q0 -178 -75.5 -267t-258.5 -89h-110v178h43q131 0 131 137v338q0 61 32.5 114.5t90.5 86.5q-57 35 -90 89t-33 116v332z" />
    <glyph glyph-name="asciitilde" unicode="~" horiz-adv-x="1146" 
d="M352 801q63 0 110.5 -16.5t134.5 -60.5t150 -44q64 0 89.5 30.5t25.5 90.5h209q0 -166 -65.5 -248t-204.5 -82q-72 0 -124.5 17.5t-112.5 48.5t-93 43t-82 12q-102 0 -102 -121h-211q0 330 276 330z" />
    <glyph glyph-name="uni00A0" unicode="&#xa0;" horiz-adv-x="665" 
 />
    <glyph glyph-name="exclamdown" unicode="&#xa1;" horiz-adv-x="446" 
d="M94 612h260l15 -923h-289zM76 1014h295v-215h-295v215z" />
    <glyph glyph-name="cent" unicode="&#xa2;" horiz-adv-x="1067" 
d="M700 -184h-245v170q-180 33 -290 161.5t-110 340.5t105.5 345.5t294.5 165.5v168h245v-161q171 -15 312 -121v-215h-232v112q-70 41 -187 41q-118 0 -193.5 -84t-75.5 -253t86 -246.5t246 -77.5t264 71l90 -147q-145 -97 -310 -113v-157z" />
    <glyph glyph-name="sterling" unicode="&#xa3;" horiz-adv-x="1044" 
d="M663 1356q200 0 338 -113v-180h-219v80q-48 31 -120 31t-116 -44.5t-44 -136.5v-116h329v-179h-329v-374q0 -96 -43 -146h551v-178h-930v178h53q100 0 100 129v391h-157v179h157v112q0 164 115 265.5t315 101.5z" />
    <glyph glyph-name="currency" unicode="&#xa4;" horiz-adv-x="1288" 
d="M887 677.5q0 102.5 -69.5 173.5t-172 71t-171 -71t-68.5 -173.5t68.5 -174t171 -71.5t172 71.5t69.5 174zM186 671q0 136 66 242l-176 162l153 158l179 -164q110 70 236 70t239 -70l176 164l153 -158l-176 -162q68 -106 68 -243t-84 -254l176 -158l-156 -160l-188 172
q-88 -51 -206 -51t-210 51l-188 -172l-152 160l172 158q-82 119 -82 255z" />
    <glyph glyph-name="yen" unicode="&#xa5;" horiz-adv-x="1370" 
d="M819 254q0 -76 82 -76h51v-178h-534v178h51q80 0 80 78v31h-309v178h309v24l-23 39h-286v179h190l-192 356q-27 49 -54.5 66.5t-81.5 17.5h-47v178h496v-178h-29q-35 0 -35 -23q0 -16 17 -49l182 -373l180 373q16 33 17 49q0 23 -35 23h-29v178h496v-178h-47
q-53 0 -81 -17.5t-54 -66.5l-195 -356h190v-179h-288l-21 -39v-24h309v-178h-309v-33z" />
    <glyph glyph-name="brokenbar" unicode="&#xa6;" horiz-adv-x="419" 
d="M76 483h268v-729h-268v729zM76 1571h268v-731h-268v731z" />
    <glyph glyph-name="section" unicode="&#xa7;" horiz-adv-x="1067" 
d="M788 458q0 48 -57 100t-192 97q-158 66 -232 107q-14 -20 -14 -72t67.5 -107.5t195.5 -105t220 -94.5q12 27 12 75zM35 59h272v-141q98 -55 244 -55q217 0 217 176q0 113 -83 154t-225 97t-232.5 110.5t-135.5 127t-45 185.5t66 186q-66 80 -66 199q0 178 139.5 269
t358.5 91q281 0 465 -155v-203h-273v131q-81 45 -193 45q-232 0 -233 -170q0 -63 38 -106.5t85.5 -65.5t189.5 -80t227 -106t133 -119.5t48 -185.5t-61 -193q61 -76 61 -192t-56 -198.5t-165 -130.5t-262.5 -48t-286.5 43t-227 116v219z" />
    <glyph glyph-name="dieresis" unicode="&#xa8;" horiz-adv-x="847" 
d="M561 1337h211v-223h-211v223zM76 1337h207v-223h-207v223z" />
    <glyph glyph-name="copyright" unicode="&#xa9;" horiz-adv-x="1617" 
d="M801 1024q-105 0 -172.5 -84t-67.5 -245t76 -242.5t212 -81.5t241 90l75 -123q-121 -129 -358 -129q-129 0 -236.5 59.5t-170 168t-62.5 253.5q0 233 126 364.5t341 131.5q125 0 202.5 -26.5t157.5 -90.5v-184h-194v98q-65 41 -170 41zM1366 704.5q0 159.5 -69.5 290.5
t-196.5 207t-291 76t-290 -76t-195.5 -207t-69.5 -290.5t69.5 -290.5t195.5 -206t290 -75t291 75t196.5 206t69.5 290.5zM76 704.5q0 198.5 98 367.5t266 267.5t368 98.5t369 -98.5t267 -267.5t98 -367.5t-98 -366.5t-267 -266.5t-369 -98.5t-368 98.5t-266 266.5t-98 366.5
z" />
    <glyph glyph-name="ordfeminine" unicode="&#xaa;" horiz-adv-x="800" 
d="M473 922v47l-131 -11q-88 -7 -88 -81q0 -66 88 -66q131 0 131 111zM659 872q0 -49 41 -49h25v-116h-168l-22 75q-45 -53 -99 -74.5t-152 -21.5t-153 47t-55 138q0 181 243 202l154 10v64q0 47 -21.5 65.5t-73.5 18.5t-93 -29v-47h-154v129q115 72 254 72t206.5 -61.5
t67.5 -164.5v-258z" />
    <glyph glyph-name="guillemotleft" unicode="&#xab;" horiz-adv-x="1267" 
d="M567 610v111l625 526v-270l-358 -311l358 -310v-272zM76 610v111l624 526v-270l-356 -311l356 -310v-272z" />
    <glyph glyph-name="logicalnot" unicode="&#xac;" horiz-adv-x="1028" 
d="M733 539h-657v180h876v-447h-219v267z" />
    <glyph glyph-name="uni00AD" unicode="&#xad;" horiz-adv-x="761" 
d="M76 707h610v-179h-610v179z" />
    <glyph glyph-name="registered" unicode="&#xae;" horiz-adv-x="1617" 
d="M852 762q117 0 117 115q0 55 -29 79.5t-88 24.5h-133v-219h133zM440 432h23q37 0 45 18.5t8 75.5v400q0 31 -11 43t-42 12h-23v139h426q141 0 221 -64.5t80 -164.5q0 -205 -180 -244l80 -151q35 -64 88 -64h39v-131h-377v131h84l-98 197h-109v-137q0 -33 10.5 -46.5
t38.5 -13.5h25v-131h-328v131zM1366 704.5q0 159.5 -69.5 290.5t-196.5 207t-291 76t-290 -76t-195.5 -207t-69.5 -290.5t69.5 -290.5t195.5 -206t290 -75t291 75t196.5 206t69.5 290.5zM76 704.5q0 198.5 98 367.5t266 267.5t368 98.5t369 -98.5t267 -267.5t98 -367.5
t-98 -366.5t-267 -266.5t-369 -98.5t-368 98.5t-266 266.5t-98 366.5z" />
    <glyph glyph-name="macron" unicode="&#xaf;" horiz-adv-x="872" 
d="M76 1296h721v-166h-721v166z" />
    <glyph glyph-name="degree" unicode="&#xb0;" horiz-adv-x="698" 
d="M459 1103q0 48 -31 81t-79 33t-79.5 -33t-31.5 -81t31.5 -80t79.5 -32t79 32t31 80zM76 1103q0 75 37 137.5t98 99t136 36.5t138.5 -36.5t100.5 -99t37 -137.5t-38 -136.5t-101.5 -98.5t-136.5 -37t-135 37t-99 98.5t-37 136.5z" />
    <glyph glyph-name="plusminus" unicode="&#xb1;" horiz-adv-x="845" 
d="M76 227h694v-180h-694v180zM311 565h-235v178h235v213h217v-213h242v-178h-242v-213h-217v213z" />
    <glyph glyph-name="uni00B2" unicode="&#xb2;" horiz-adv-x="675" 
d="M76 772q0 82 46 134t140 108t122 82t28 69q0 72 -88 72q-51 0 -84 -18v-60h-164v125q45 31 119.5 51.5t140.5 20.5q123 0 191.5 -48t68.5 -130t-35 -123t-133 -99.5t-116.5 -79t-18.5 -40.5h307v-129h-524v65z" />
    <glyph glyph-name="uni00B3" unicode="&#xb3;" horiz-adv-x="698" 
d="M334 1356q276 0 276 -190q0 -96 -82 -136q94 -33 95 -137q0 -207 -287 -207q-161 0 -260 86v119h162v-62q35 -25 93 -25t84.5 20t26.5 67t-23.5 64.5t-78.5 17.5h-72v117h74q51 0 71.5 15t20.5 60q0 72 -94 72q-53 0 -90 -20v-58h-162v123q39 31 106.5 52.5t139.5 21.5z
" />
    <glyph glyph-name="acute" unicode="&#xb4;" horiz-adv-x="632" 
d="M252 1452h305l-250 -395h-231z" />
    <glyph glyph-name="paragraph" unicode="&#xb6;" horiz-adv-x="1380" 
d="M379 -141q76 0 76 75v678q-180 0 -279.5 95.5t-99.5 253.5q0 365 438 364h786v-178h-43q-45 0 -63 -19.5t-18 -60.5v-1133q0 -39 17 -57t58 -18h54v-178h-398v1466h-184v-1466h-397v178h53z" />
    <glyph glyph-name="periodcentered" unicode="&#xb7;" horiz-adv-x="366" 
d="M76 729h215v-201h-215v201z" />
    <glyph glyph-name="cedilla" unicode="&#xb8;" horiz-adv-x="626" 
d="M551 -266q0 -201 -299 -201q-98 0 -176 31v149q70 -31 145 -30q100 0 101 61q0 49 -39 70.5t-148 21.5l23 164h245l-12 -88q84 -14 122 -58t38 -120z" />
    <glyph glyph-name="uni00B9" unicode="&#xb9;" horiz-adv-x="561" 
d="M104 836h66q31 0 41 10t10 37v297l-96 -64l-70 111l189 119h147v-463q0 -27 9.5 -37t39.5 -10h66v-129h-402v129z" />
    <glyph glyph-name="ordmasculine" unicode="&#xba;" horiz-adv-x="815" 
d="M553 1020q0 106 -35.5 155.5t-111.5 49.5t-110 -48.5t-34 -155.5t34 -155.5t110 -48.5t111.5 48.5t35.5 154.5zM76 1021q0 161 85 248t246.5 87t246.5 -87t85 -248t-87.5 -248t-245.5 -87t-244 87t-86 248z" />
    <glyph glyph-name="guillemotright" unicode="&#xbb;" horiz-adv-x="1267" 
d="M567 356l359 310l-359 311v270l625 -526v-111l-625 -526v272zM76 356l356 310l-356 311v270l624 -526v-111l-624 -526v272z" />
    <glyph glyph-name="onequarter" unicode="&#xbc;" horiz-adv-x="1318" 
d="M995 293v182l-143 -182h143zM934 106q41 0 41 39v31h-291v107l277 356h180v-346h102v-117h-102v-31q0 -20 8 -29.5t33 -9.5h39v-106h-326v106h39zM973 1325h248l-801 -1325h-248zM125 836h65q31 0 41.5 10t10.5 37v297l-97 -64l-69 111l188 119h148v-463q0 -27 9 -37
t40 -10h65v-129h-401v129z" />
    <glyph glyph-name="onehalf" unicode="&#xbd;" horiz-adv-x="1423" 
d="M1157 459q0 71 -88 71q-51 0 -80 -18v-59h-166v125q45 31 121 51t141 20q121 0 189.5 -48t68.5 -128t-34.5 -121.5t-90.5 -75.5t-117 -72t-61 -75h308v-129h-525v66q0 82 45.5 134t139.5 107t121.5 82t27.5 70zM973 1325h248l-801 -1325h-248zM125 836h65q31 0 41.5 10
t10.5 37v297l-97 -64l-69 111l188 119h148v-463q0 -27 9 -37t40 -10h65v-129h-401v129z" />
    <glyph glyph-name="threequarters" unicode="&#xbe;" horiz-adv-x="1341" 
d="M1016 293v182l-144 -182h144zM1163 145q0 -39 39 -39h41v-106h-328v106h41q41 0 41 39v31h-292v107l278 356h180v-346h103v-117h-103v-31zM993 1325h250l-801 -1325h-247zM334 1356q276 0 276 -190q0 -96 -82 -136q94 -33 95 -137q0 -207 -287 -207q-161 0 -260 86v119
h162v-62q35 -25 93 -25t84.5 20t26.5 67t-23.5 64.5t-78.5 17.5h-72v117h74q51 0 71.5 17t20.5 64q0 66 -94 66q-53 0 -90 -20v-58h-162v123q39 31 106.5 52.5t139.5 21.5z" />
    <glyph glyph-name="questiondown" unicode="&#xbf;" horiz-adv-x="1112" 
d="M502 639v47h270v-59q0 -259 -228 -378q-116 -60 -159 -107.5t-43 -129.5q0 -174 229 -174q113 0 224 53v123h241v-215q-86 -63 -208.5 -102t-264.5 -39q-231 0 -359 89t-128 259t89 243t173 120t113.5 79.5t40 74.5t10.5 116zM487 1014h301v-221h-301v221z" />
    <glyph glyph-name="Agrave" unicode="&#xc0;" horiz-adv-x="1468" 
d="M877 551l-140 424l-143 -424h283zM55 178h60q49 0 73.5 15.5t38.5 58.5l379 1073h260l373 -1073q14 -43 40 -58.5t77 -15.5h57v-178h-512v178h94l-73 225h-373l-76 -225h94v-178h-512v178zM395 1800h305l160 -368h-233z" />
    <glyph glyph-name="Aacute" unicode="&#xc1;" horiz-adv-x="1468" 
d="M877 551l-140 424l-143 -424h283zM55 178h60q49 0 73.5 15.5t38.5 58.5l379 1073h260l373 -1073q14 -43 40 -58.5t77 -15.5h57v-178h-512v178h94l-73 225h-373l-76 -225h94v-178h-512v178zM776 1800h303l-231 -368h-230z" />
    <glyph glyph-name="Acircumflex" unicode="&#xc2;" horiz-adv-x="1468" 
d="M877 551l-140 424l-143 -424h283zM55 178h60q49 0 73.5 15.5t38.5 58.5l379 1073h260l373 -1073q14 -43 40 -58.5t77 -15.5h57v-178h-512v178h94l-73 225h-373l-76 -225h94v-178h-512v178zM616 1829h246l266 -395h-247l-144 245l-143 -245h-246z" />
    <glyph glyph-name="Atilde" unicode="&#xc3;" horiz-adv-x="1468" 
d="M877 551l-140 424l-143 -424h283zM55 178h60q49 0 73.5 15.5t38.5 58.5l379 1073h260l373 -1073q14 -43 40 -58.5t77 -15.5h57v-178h-512v178h94l-73 225h-373l-76 -225h94v-178h-512v178zM877 1640q90 0 90 107h190q0 -164 -55 -238.5t-161 -74.5t-200 51t-140 51
t-68.5 -23.5t-22.5 -78.5h-193q0 159 58.5 236t183.5 77q55 0 96 -15.5t91 -41.5t76 -38t55 -12z" />
    <glyph glyph-name="Adieresis" unicode="&#xc4;" horiz-adv-x="1468" 
d="M877 551l-140 424l-143 -424h283zM55 178h60q49 0 73.5 15.5t38.5 58.5l379 1073h260l373 -1073q14 -43 40 -58.5t77 -15.5h57v-178h-512v178h94l-73 225h-373l-76 -225h94v-178h-512v178zM860 1696h215v-223h-215v223zM399 1696h213v-223h-213v223z" />
    <glyph glyph-name="Aring" unicode="&#xc5;" horiz-adv-x="1468" 
d="M877 551l-140 424l-143 -424h283zM641 1466q0 -41 27.5 -69.5t68.5 -28.5t69 28.5t28 69.5t-28 70t-69 29t-68.5 -29t-27.5 -70zM977 1458q0 -107 -94 -180l356 -1026q14 -43 40 -58.5t77 -15.5h57v-178h-512v178h94l-73 225h-373l-76 -225h94v-178h-512v178h60
q49 0 73.5 15.5t38.5 58.5l363 1026q-90 69 -90 178q0 108 68.5 178t169 70t170 -69.5t69.5 -176.5z" />
    <glyph glyph-name="AE" unicode="&#xc6;" horiz-adv-x="1703" 
d="M795 565v582h-7l-186 -582h193zM1323 178q80 0 80 78v37h246v-293h-951v178h31q41 0 53.5 17.5t12.5 62.5v145h-242l-80 -225h94v-178h-512v178h60q49 0 72.5 15.5t39.5 58.5l396 1073h1026v-291h-246v35q0 51 -30 64.5t-107 13.5h-201v-393h295v-181h-295v-395h258z" />
    <glyph glyph-name="Ccedilla" unicode="&#xc7;" horiz-adv-x="1234" 
d="M981 -266q0 -201 -299 -201q-100 0 -176 31v149q68 -31 156 -31t90 62q0 49 -39 70.5t-150 21.5l23 146q-258 45 -394.5 224t-136.5 447q0 205 72 364t220.5 249t369.5 90q150 0 254 -29t205 -92v-234h-269v142q-76 31 -176 31q-199 0 -304 -137.5t-105 -380.5
t113.5 -373.5t324.5 -130.5q172 0 323 86l97 -152q-94 -61 -153.5 -80.5t-197.5 -34.5l-10 -59q162 -27 162 -178z" />
    <glyph glyph-name="Egrave" unicode="&#xc8;" horiz-adv-x="1118" 
d="M737 178q80 0 80 78v37h246v-293h-1008v178h54q43 0 61 19.5t18 60.5v813q0 39 -18 57.5t-61 18.5h-54v178h1008v-291h-246v37q0 76 -80 76h-278v-393h315v-181h-315v-395h278zM262 1800h305l160 -368h-233z" />
    <glyph glyph-name="Eacute" unicode="&#xc9;" horiz-adv-x="1118" 
d="M737 178q80 0 80 78v37h246v-293h-1008v178h54q43 0 61 19.5t18 60.5v813q0 39 -18 57.5t-61 18.5h-54v178h1008v-291h-246v37q0 76 -80 76h-278v-393h315v-181h-315v-395h278zM547 1800h303l-232 -368h-229z" />
    <glyph glyph-name="Ecircumflex" unicode="&#xca;" horiz-adv-x="1118" 
d="M737 178q80 0 80 78v37h246v-293h-1008v178h54q43 0 61 19.5t18 60.5v813q0 39 -18 57.5t-61 18.5h-54v178h1008v-291h-246v37q0 76 -80 76h-278v-393h315v-181h-315v-395h278zM426 1829h246l266 -395h-248l-143 245l-144 -245h-245z" />
    <glyph glyph-name="Edieresis" unicode="&#xcb;" horiz-adv-x="1118" 
d="M737 178q80 0 80 78v37h246v-293h-1008v178h54q43 0 61 19.5t18 60.5v813q0 39 -18 57.5t-61 18.5h-54v178h1008v-291h-246v37q0 76 -80 76h-278v-393h315v-181h-315v-395h278zM692 1696h215v-223h-215v223zM231 1696h213v-223h-213v223z" />
    <glyph glyph-name="Igrave" unicode="&#xcc;" horiz-adv-x="641" 
d="M55 178h54q43 0 61 19.5t18 60.5v813q0 39 -18 57.5t-61 18.5h-54v178h531v-178h-54q-41 0 -58 -18.5t-17 -57.5v-817q0 -39 17.5 -57.5t57.5 -18.5h54v-178h-531v178zM-14 1800h305l160 -368h-234z" />
    <glyph glyph-name="Iacute" unicode="&#xcd;" horiz-adv-x="641" 
d="M55 178h54q43 0 61 19.5t18 60.5v813q0 39 -18 57.5t-61 18.5h-54v178h531v-178h-54q-41 0 -58 -18.5t-17 -57.5v-817q0 -39 17.5 -57.5t57.5 -18.5h54v-178h-531v178zM338 1800h303l-231 -368h-230z" />
    <glyph glyph-name="Icircumflex" unicode="&#xce;" horiz-adv-x="641" 
d="M55 178h54q43 0 61 19.5t18 60.5v813q0 39 -18 57.5t-61 18.5h-54v178h531v-178h-54q-41 0 -58 -18.5t-17 -57.5v-817q0 -39 17.5 -57.5t57.5 -18.5h54v-178h-531v178zM199 1827h245l267 -395h-248l-144 245l-143 -245h-246z" />
    <glyph glyph-name="Idieresis" unicode="&#xcf;" horiz-adv-x="641" 
d="M55 178h54q43 0 61 19.5t18 60.5v813q0 39 -18 57.5t-61 18.5h-54v178h531v-178h-54q-41 0 -58 -18.5t-17 -57.5v-817q0 -39 17.5 -57.5t57.5 -18.5h54v-178h-531v178zM442 1696h215v-223h-215v223zM-18 1696h213v-223h-213v223z" />
    <glyph glyph-name="Eth" unicode="&#xd0;" horiz-adv-x="1292" 
d="M631 178q184 0 263 119t79 363t-78 365.5t-264 121.5h-180v-395h258v-183h-258v-391h180zM55 178h54q43 0 61 19.5t18 60.5v311h-133v183h133v319q0 39 -18 57.5t-61 18.5h-54v178h615q287 0 427 -173.5t140 -481.5t-144.5 -489t-422.5 -181h-615v178z" />
    <glyph glyph-name="Ntilde" unicode="&#xd1;" horiz-adv-x="1419" 
d="M1309 1147q-76 0 -76 -76v-1071h-207l-567 883v-629q0 -39 17.5 -57.5t58.5 -18.5h53v-178h-533v178h54q80 0 79 76v817q0 39 -18 57.5t-61 18.5h-54v178h338l572 -887v633q0 76 -80 76h-56v178h535v-178h-55zM831 1640q91 0 91 107h190q0 -164 -55.5 -238.5
t-161.5 -74.5t-199 51q-94 51 -140 51t-68.5 -23.5t-22.5 -78.5h-193q0 159 58.5 236t183.5 77q55 0 95.5 -15.5t90.5 -41.5t76.5 -38t54.5 -12z" />
    <glyph glyph-name="Ograve" unicode="&#xd2;" horiz-adv-x="1357" 
d="M1036 660q0 276 -85 395t-271 119q-127 0 -242.5 -75t-115.5 -442q0 -274 85 -389.5t272 -115.5t272 116t85 392zM55 659q0 348 149.5 522.5t473.5 174.5t474.5 -174t150.5 -522t-154.5 -519.5t-470.5 -171.5t-469.5 171t-153.5 519zM365 1800h305l159 -368h-233z" />
    <glyph glyph-name="Oacute" unicode="&#xd3;" horiz-adv-x="1357" 
d="M1036 660q0 276 -85 395t-271 119q-127 0 -242.5 -75t-115.5 -442q0 -274 85 -389.5t272 -115.5t272 116t85 392zM55 659q0 348 149.5 522.5t473.5 174.5t474.5 -174t150.5 -522t-154.5 -519.5t-470.5 -171.5t-469.5 171t-153.5 519zM696 1800h303l-231 -368h-229z" />
    <glyph glyph-name="Ocircumflex" unicode="&#xd4;" horiz-adv-x="1357" 
d="M1036 660q0 276 -85 395t-271 119q-127 0 -242.5 -75t-115.5 -442q0 -274 85 -389.5t272 -115.5t272 116t85 392zM55 659q0 348 149.5 522.5t473.5 174.5t474.5 -174t150.5 -522t-154.5 -519.5t-470.5 -171.5t-469.5 171t-153.5 519zM557 1829h246l266 -395h-248
l-143 245l-143 -245h-246z" />
    <glyph glyph-name="Otilde" unicode="&#xd5;" horiz-adv-x="1357" 
d="M1036 660q0 276 -85 395t-271 119q-127 0 -242.5 -75t-115.5 -442q0 -274 85 -389.5t272 -115.5t272 116t85 392zM55 659q0 348 149.5 522.5t473.5 174.5t474.5 -174t150.5 -522t-154.5 -519.5t-470.5 -171.5t-469.5 171t-153.5 519zM817 1640q90 0 90 107h191
q0 -164 -55.5 -238.5t-178.5 -74.5q-88 0 -182 51t-140 51t-68.5 -23.5t-22.5 -78.5h-193q0 159 58.5 236t183.5 77q55 0 96 -15.5t90 -41.5t75.5 -38t55.5 -12z" />
    <glyph glyph-name="Odieresis" unicode="&#xd6;" horiz-adv-x="1357" 
d="M1036 660q0 276 -85 395t-271 119q-127 0 -242.5 -75t-115.5 -442q0 -274 85 -389.5t272 -115.5t272 116t85 392zM55 659q0 348 149.5 522.5t473.5 174.5t474.5 -174t150.5 -522t-154.5 -519.5t-470.5 -171.5t-469.5 171t-153.5 519zM801 1696h215v-223h-215v223z
M340 1696h213v-223h-213v223z" />
    <glyph glyph-name="multiply" unicode="&#xd7;" horiz-adv-x="768" 
d="M78 467l162 162l-164 168l145 139l162 -164l166 164l143 -139l-164 -168l164 -162l-143 -143l-164 161l-164 -163z" />
    <glyph glyph-name="Oslash" unicode="&#xd8;" horiz-adv-x="1357" 
d="M1036 657q0 357 -149 461l-350 -946q51 -20 143 -20q186 0 271 116.5t85 388.5zM322 670q0 -176 29.5 -278.5t92.5 -160.5l347 930q-49 12 -111 13q-127 0 -205 -50.5t-115.5 -164t-37.5 -289.5zM1303 657q0 -346 -154 -517t-469 -171q-113 0 -209 23l-29 -80h-114
l41 115q-313 135 -314 630q0 350 149.5 524.5t475.5 174.5q88 0 174 -17l29 72h114l-39 -100q345 -129 345 -654z" />
    <glyph glyph-name="Ugrave" unicode="&#xd9;" horiz-adv-x="1363" 
d="M158 379v694q0 39 -17.5 56.5t-60.5 17.5h-45v178h508v-178h-45q-41 0 -59.5 -17.5t-18.5 -56.5v-706q0 -215 262 -215t262 215v706q0 39 -17.5 56.5t-60.5 17.5h-45v178h508v-178h-45q-41 0 -59.5 -17.5t-18.5 -56.5v-694q0 -190 -132 -300t-393 -110t-392 109.5
t-131 300.5zM348 1800h305l160 -368h-233z" />
    <glyph glyph-name="Uacute" unicode="&#xda;" horiz-adv-x="1363" 
d="M158 379v694q0 39 -17.5 56.5t-60.5 17.5h-45v178h508v-178h-45q-41 0 -59.5 -17.5t-18.5 -56.5v-706q0 -215 262 -215t262 215v706q0 39 -17.5 56.5t-60.5 17.5h-45v178h508v-178h-45q-41 0 -59.5 -17.5t-18.5 -56.5v-694q0 -190 -132 -300t-393 -110t-392 109.5
t-131 300.5zM672 1800h303l-232 -368h-229z" />
    <glyph glyph-name="Ucircumflex" unicode="&#xdb;" horiz-adv-x="1363" 
d="M158 379v694q0 39 -17.5 56.5t-60.5 17.5h-45v178h508v-178h-45q-41 0 -59.5 -17.5t-18.5 -56.5v-706q0 -215 262 -215t262 215v706q0 39 -17.5 56.5t-60.5 17.5h-45v178h508v-178h-45q-41 0 -59.5 -17.5t-18.5 -56.5v-694q0 -190 -132 -300t-393 -110t-392 109.5
t-131 300.5zM561 1829h246l266 -395h-248l-143 245l-143 -245h-246z" />
    <glyph glyph-name="Udieresis" unicode="&#xdc;" horiz-adv-x="1363" 
d="M158 379v694q0 39 -17.5 56.5t-60.5 17.5h-45v178h508v-178h-45q-41 0 -59.5 -17.5t-18.5 -56.5v-706q0 -215 262 -215t262 215v706q0 39 -17.5 56.5t-60.5 17.5h-45v178h508v-178h-45q-41 0 -59.5 -17.5t-18.5 -56.5v-694q0 -190 -132 -300t-393 -110t-392 109.5
t-131 300.5zM803 1696h215v-223h-215v223zM342 1696h213v-223h-213v223z" />
    <glyph glyph-name="Yacute" unicode="&#xdd;" horiz-adv-x="1370" 
d="M819 254q0 -76 82 -76h51v-178h-534v178h51q80 0 80 78v233l-311 574q-27 49 -54.5 66.5t-81.5 17.5h-47v178h496v-178h-29q-35 0 -35 -23q0 -16 17 -49l182 -366l180 366q16 33 17 49q0 23 -35 23h-29v178h496v-178h-47q-53 0 -81 -17.5t-54 -66.5l-314 -574v-235z
M717 1800h303l-232 -368h-229z" />
    <glyph glyph-name="Thorn" unicode="&#xde;" horiz-adv-x="1282" 
d="M731 475q232 0 232 252q0 131 -55.5 184.5t-176.5 53.5h-280v-490h280zM55 178h51q82 0 82 76v817q0 76 -79 76h-54v178h396v-182h317q215 0 337 -106.5t122 -308.5t-124 -316.5t-337 -114.5h-315v-43q0 -76 79 -76h58v-178h-533v178z" />
    <glyph glyph-name="germandbls" unicode="&#xdf;" horiz-adv-x="1316" 
d="M965 1102q0 174 -253 174t-253 -238v-1038h-404v178h58q43 0 60 18.5t17 61.5v762q0 201 129.5 319.5t389.5 118.5t392 -112.5t132 -298.5q0 -109 -43 -200t-129 -128q109 -45 155 -129t46 -203q0 -193 -106.5 -305.5t-301.5 -112.5t-299 70l86 162q78 -49 176 -49
q178 0 178 237q0 123 -54 181.5t-183 58.5h-113v184h100q117 0 168.5 57.5t51.5 231.5z" />
    <glyph glyph-name="agrave" unicode="&#xe0;" horiz-adv-x="1075" 
d="M666 330v84l-228 -17q-86 -6 -118.5 -35.5t-32.5 -97.5q0 -121 153 -121q107 0 166.5 47.5t59.5 139.5zM936 254q0 -76 65 -76h39v-178h-254l-26 123q-72 -86 -156 -120t-240 -34t-242.5 71.5t-86.5 213.5q0 276 379 297l252 16v121q0 78 -35 110.5t-123 32.5t-154 -36
v-80h-231v188q178 111 396 111t317.5 -94.5t99.5 -257.5v-408zM190 1442h306l159 -369h-233z" />
    <glyph glyph-name="aacute" unicode="&#xe1;" horiz-adv-x="1075" 
d="M666 330v84l-228 -17q-86 -6 -118.5 -35.5t-32.5 -97.5q0 -121 153 -121q107 0 166.5 47.5t59.5 139.5zM936 254q0 -76 65 -76h39v-178h-254l-26 123q-72 -86 -156 -120t-240 -34t-242.5 71.5t-86.5 213.5q0 276 379 297l252 16v121q0 78 -35 110.5t-123 32.5t-154 -36
v-80h-231v188q178 111 396 111t317.5 -94.5t99.5 -257.5v-408zM559 1442h303l-231 -369h-230z" />
    <glyph glyph-name="acircumflex" unicode="&#xe2;" horiz-adv-x="1075" 
d="M666 330v84l-228 -17q-86 -6 -118.5 -35.5t-32.5 -97.5q0 -121 153 -121q107 0 166.5 47.5t59.5 139.5zM936 254q0 -76 65 -76h39v-178h-254l-26 123q-72 -86 -156 -120t-240 -34t-242.5 71.5t-86.5 213.5q0 276 379 297l252 16v121q0 78 -35 110.5t-123 32.5t-154 -36
v-80h-231v188q178 111 396 111t317.5 -94.5t99.5 -257.5v-408zM408 1466h245l267 -395h-248l-144 246l-143 -246h-246z" />
    <glyph glyph-name="atilde" unicode="&#xe3;" horiz-adv-x="1075" 
d="M666 330v84l-228 -17q-86 -6 -118.5 -35.5t-32.5 -97.5q0 -121 153 -121q107 0 166.5 47.5t59.5 139.5zM936 254q0 -76 65 -76h39v-178h-254l-26 123q-72 -86 -156 -120t-240 -34t-242.5 71.5t-86.5 213.5q0 276 379 297l252 16v121q0 78 -35 110.5t-123 32.5t-154 -36
v-80h-231v188q178 111 396 111t317.5 -94.5t99.5 -257.5v-408zM668 1280q90 0 90 106h190q0 -164 -55 -238.5t-178 -74.5q-87 -1 -182 51t-141 52q-91 0 -91 -103h-192q0 160 58 236.5t183 76.5q55 0 95.5 -15t90.5 -42t76.5 -38t55.5 -11z" />
    <glyph glyph-name="adieresis" unicode="&#xe4;" horiz-adv-x="1075" 
d="M666 330v84l-228 -17q-86 -6 -118.5 -35.5t-32.5 -97.5q0 -121 153 -121q107 0 166.5 47.5t59.5 139.5zM936 254q0 -76 65 -76h39v-178h-254l-26 123q-72 -86 -156 -120t-240 -34t-242.5 71.5t-86.5 213.5q0 276 379 297l252 16v121q0 78 -35 110.5t-123 32.5t-154 -36
v-80h-231v188q178 111 396 111t317.5 -94.5t99.5 -257.5v-408zM639 1337h215v-223h-215v223zM178 1337h213v-223h-213v223z" />
    <glyph glyph-name="aring" unicode="&#xe5;" horiz-adv-x="1075" 
d="M666 330v84l-228 -17q-86 -6 -118.5 -35.5t-32.5 -97.5q0 -121 153 -121q107 0 166.5 47.5t59.5 139.5zM936 254q0 -76 65 -76h39v-178h-254l-26 123q-72 -86 -156 -120t-240 -34t-242.5 71.5t-86.5 213.5q0 276 379 297l252 16v121q0 78 -35 110.5t-123 32.5t-154 -36
v-80h-231v188q178 111 396 111t317.5 -94.5t99.5 -257.5v-408zM627 1311q0 41 -28 69.5t-69 28.5t-68.5 -28.5t-27.5 -69.5t27.5 -70t68.5 -29t69 29t28 70zM293 1310q0 100 68.5 169t169 69t170 -69.5t69.5 -168.5t-69.5 -168t-170 -69t-169 68.5t-68.5 168.5z" />
    <glyph glyph-name="ae" unicode="&#xe6;" horiz-adv-x="1703" 
d="M666 330v84l-228 -17q-86 -6 -118.5 -35.5t-32.5 -97.5q0 -121 153 -121q107 0 166.5 47.5t59.5 139.5zM1382 582q0 249 -223 249q-213 0 -223 -227v-22h446zM1174 1014q227 0 351 -132t124 -358v-96h-713v-14q2 -139 61.5 -200.5t184.5 -61.5t200 32v72h232v-156
q-156 -131 -424 -131t-373 160q-74 -86 -178 -123t-267 -37t-250 71.5t-87 213.5q0 276 379 297l252 16v121q0 78 -35 110.5t-123 32.5t-154 -36v-80h-231v188q178 111 390 111t304 -113q130 113 357 113z" />
    <glyph glyph-name="ccedilla" unicode="&#xe7;" horiz-adv-x="1064" 
d="M866 -266q0 -201 -299 -201q-100 0 -176 31v149q68 -31 157 -31t89 62q0 49 -39 70.5t-149 21.5l22 144q-188 33 -302 161.5t-114 339.5q0 254 143.5 393.5t393.5 139.5q139 0 231 -31t181 -98v-215h-232v118q-77 43 -188 43t-186.5 -88t-75.5 -258t88 -251.5t238 -81.5
t272 81l90 -147q-133 -94 -295 -111l-10 -63q161 -27 161 -178z" />
    <glyph glyph-name="egrave" unicode="&#xe8;" horiz-adv-x="1107" 
d="M786 582q0 249 -223 249q-117 0 -179 -64.5t-62 -184.5h464zM322 428q0 -276 194.5 -276t269.5 32v72h232v-156q-156 -131 -419 -131t-403.5 130t-140.5 389t133.5 392.5t375.5 133.5t365.5 -132t123.5 -358v-96h-731zM276 1442h306l159 -369h-233z" />
    <glyph glyph-name="eacute" unicode="&#xe9;" horiz-adv-x="1107" 
d="M786 582q0 249 -223 249q-117 0 -179 -64.5t-62 -184.5h464zM322 428q0 -276 194.5 -276t269.5 32v72h232v-156q-156 -131 -419 -131t-403.5 130t-140.5 389t133.5 392.5t375.5 133.5t365.5 -132t123.5 -358v-96h-731zM610 1442h303l-231 -369h-229z" />
    <glyph glyph-name="ecircumflex" unicode="&#xea;" horiz-adv-x="1107" 
d="M786 582q0 249 -223 249q-117 0 -179 -64.5t-62 -184.5h464zM322 428q0 -276 194.5 -276t269.5 32v72h232v-156q-156 -131 -419 -131t-403.5 130t-140.5 389t133.5 392.5t375.5 133.5t365.5 -132t123.5 -358v-96h-731zM451 1466h245l267 -395h-248l-144 246l-143 -246
h-246z" />
    <glyph glyph-name="edieresis" unicode="&#xeb;" horiz-adv-x="1107" 
d="M786 582q0 249 -223 249q-117 0 -179 -64.5t-62 -184.5h464zM322 428q0 -276 194.5 -276t269.5 32v72h232v-156q-156 -131 -419 -131t-403.5 130t-140.5 389t133.5 392.5t375.5 133.5t365.5 -132t123.5 -358v-96h-731zM698 1313h215v-223h-215v223zM238 1313h213v-223
h-213v223z" />
    <glyph glyph-name="igrave" unicode="&#xec;" horiz-adv-x="600" 
d="M35 178h53q43 0 61.5 19.5t18.5 60.5v461q0 45 -15.5 65.5t-60.5 20.5h-57v178h401v-729q0 -39 17.5 -57.5t58.5 -18.5h53v-178h-530v178zM-41 1436h305l160 -369h-234z" />
    <glyph glyph-name="iacute" unicode="&#xed;" horiz-adv-x="600" 
d="M35 178h53q43 0 61.5 19.5t18.5 60.5v461q0 45 -15.5 65.5t-60.5 20.5h-57v178h401v-729q0 -39 17.5 -57.5t58.5 -18.5h53v-178h-530v178zM295 1436h303l-231 -369h-230z" />
    <glyph glyph-name="icircumflex" unicode="&#xee;" horiz-adv-x="600" 
d="M35 178h53q43 0 61.5 19.5t18.5 60.5v461q0 45 -15.5 65.5t-60.5 20.5h-57v178h401v-729q0 -39 17.5 -57.5t58.5 -18.5h53v-178h-530v178zM156 1436h245l267 -396h-248l-144 246l-143 -246h-246z" />
    <glyph glyph-name="idieresis" unicode="&#xef;" horiz-adv-x="600" 
d="M35 178h53q43 0 61.5 19.5t18.5 60.5v461q0 45 -15.5 65.5t-60.5 20.5h-57v178h401v-729q0 -39 17.5 -57.5t58.5 -18.5h53v-178h-530v178zM385 1346h215v-224h-215v224zM-76 1346h213v-224h-213v224z" />
    <glyph glyph-name="eth" unicode="&#xf0;" horiz-adv-x="1193" 
d="M627 788q-305 0 -305 -409q0 -117 51 -173t181 -56t207 97t85 294q6 129 -53.5 188t-165.5 59zM614 971q170 0 256 -101q-4 168 -82 242l-180 -100l-22 90l114 63q-37 6 -82 6q-174 0 -303 -75l-55 164q162 96 399 96q152 0 259 -64l157 90l23 -94l-103 -57
q143 -147 143 -497t-147 -557.5t-450 -207.5q-226 0 -355 108.5t-129 338.5q0 170 69 295t193.5 192.5t294.5 67.5z" />
    <glyph glyph-name="ntilde" unicode="&#xf1;" horiz-adv-x="1243" 
d="M748 1014q172 0 251.5 -87t79.5 -255v-418q0 -39 17.5 -57.5t58.5 -18.5h53v-178h-397v670q0 90 -37 130t-123 40t-140 -50.5t-54 -140.5v-395q0 -39 17.5 -57.5t57.5 -18.5h54v-178h-531v178h54q43 0 61 19.5t18 60.5v471q0 39 -17 57.5t-58 18.5h-58v178h305l13 -135
q134 166 375 166zM750 1280q90 0 90 106h190q0 -164 -55 -238.5t-178 -74.5q-87 -1 -182 51t-141 52q-91 0 -91 -103h-193q0 160 58.5 236.5t183.5 76.5q55 0 95.5 -15t90.5 -42t76.5 -38t55.5 -11z" />
    <glyph glyph-name="ograve" unicode="&#xf2;" horiz-adv-x="1142" 
d="M821 490q0 175 -60.5 258t-189.5 83t-189 -82.5t-60 -258.5t60 -257t189 -81t189.5 81.5t60.5 256.5zM55 490q0 250 131 387t386 137t385 -136.5t130 -387.5t-132 -386t-384 -135t-384 135.5t-132 385.5zM231 1442h306l159 -369h-233z" />
    <glyph glyph-name="oacute" unicode="&#xf3;" horiz-adv-x="1142" 
d="M821 490q0 175 -60.5 258t-189.5 83t-189 -82.5t-60 -258.5t60 -257t189 -81t189.5 81.5t60.5 256.5zM55 490q0 250 131 387t386 137t385 -136.5t130 -387.5t-132 -386t-384 -135t-384 135.5t-132 385.5zM569 1442h303l-231 -369h-229z" />
    <glyph glyph-name="ocircumflex" unicode="&#xf4;" horiz-adv-x="1142" 
d="M821 490q0 175 -60.5 258t-189.5 83t-189 -82.5t-60 -258.5t60 -257t189 -81t189.5 81.5t60.5 256.5zM55 490q0 250 131 387t386 137t385 -136.5t130 -387.5t-132 -386t-384 -135t-384 135.5t-132 385.5zM451 1466h245l267 -395h-248l-144 246l-143 -246h-246z" />
    <glyph glyph-name="otilde" unicode="&#xf5;" horiz-adv-x="1142" 
d="M821 490q0 175 -60.5 258t-189.5 83t-189 -82.5t-60 -258.5t60 -257t189 -81t189.5 81.5t60.5 256.5zM55 490q0 250 131 387t386 137t385 -136.5t130 -387.5t-132 -386t-384 -135t-384 135.5t-132 385.5zM711 1280q90 0 90 106h190q0 -164 -55 -238.5t-178 -74.5
q-87 -1 -182 51t-141 52q-91 0 -91 -103h-192q0 160 58 236.5t183 76.5q55 0 96 -15t91 -42t76 -38t55 -11z" />
    <glyph glyph-name="odieresis" unicode="&#xf6;" horiz-adv-x="1142" 
d="M821 490q0 175 -60.5 258t-189.5 83t-189 -82.5t-60 -258.5t60 -257t189 -81t189.5 81.5t60.5 256.5zM55 490q0 250 131 387t386 137t385 -136.5t130 -387.5t-132 -386t-384 -135t-384 135.5t-132 385.5zM694 1337h215v-223h-215v223zM233 1337h213v-223h-213v223z" />
    <glyph glyph-name="divide" unicode="&#xf7;" horiz-adv-x="845" 
d="M332 473h180v-174h-180v174zM76 713h694v-166h-694v166zM332 961h180v-173h-180v173z" />
    <glyph glyph-name="oslash" unicode="&#xf8;" horiz-adv-x="1142" 
d="M821 500q0 186 -90 266l-221 -608q27 -6 61 -6q129 0 189.5 81t60.5 267zM571 831q-129 0 -189 -82.5t-60 -269.5t94 -268l223 612q-41 8 -68 8zM1087 489q0 -250 -132 -385t-384 -135q-57 0 -125 11l-30 -86h-115l43 110q-141 51 -215 176t-74 309q0 252 131 388.5
t385 136.5q51 0 134 -13l32 95h113l-43 -121q280 -107 280 -486z" />
    <glyph glyph-name="ugrave" unicode="&#xf9;" horiz-adv-x="1222" 
d="M164 311v418q0 39 -17.5 57.5t-58.5 18.5h-53v178h397v-670q0 -90 40 -130t125 -40t137 49.5t52 141.5v395q0 39 -17 57.5t-58 18.5h-54v178h531v-178h-53q-43 0 -61.5 -19.5t-18.5 -60.5v-471q0 -39 17.5 -57.5t57.5 -18.5h58v-178h-305l-13 135q-68 -88 -147.5 -127
t-208.5 -39q-174 0 -262 88t-88 254zM272 1442h306l159 -369h-233z" />
    <glyph glyph-name="uacute" unicode="&#xfa;" horiz-adv-x="1222" 
d="M164 311v418q0 39 -17.5 57.5t-58.5 18.5h-53v178h397v-670q0 -90 40 -130t125 -40t137 49.5t52 141.5v395q0 39 -17 57.5t-58 18.5h-54v178h531v-178h-53q-43 0 -61.5 -19.5t-18.5 -60.5v-471q0 -39 17.5 -57.5t57.5 -18.5h58v-178h-305l-13 135q-68 -88 -147.5 -127
t-208.5 -39q-174 0 -262 88t-88 254zM612 1442h303l-231 -369h-229z" />
    <glyph glyph-name="ucircumflex" unicode="&#xfb;" horiz-adv-x="1222" 
d="M164 311v418q0 39 -17.5 57.5t-58.5 18.5h-53v178h397v-670q0 -90 40 -130t125 -40t137 49.5t52 141.5v395q0 39 -17 57.5t-58 18.5h-54v178h531v-178h-53q-43 0 -61.5 -19.5t-18.5 -60.5v-471q0 -39 17.5 -57.5t57.5 -18.5h58v-178h-305l-13 135q-68 -88 -147.5 -127
t-208.5 -39q-174 0 -262 88t-88 254zM475 1466h246l266 -395h-248l-143 246l-143 -246h-246z" />
    <glyph glyph-name="udieresis" unicode="&#xfc;" horiz-adv-x="1222" 
d="M164 311v418q0 39 -17.5 57.5t-58.5 18.5h-53v178h397v-670q0 -90 40 -130t125 -40t137 49.5t52 141.5v395q0 39 -17 57.5t-58 18.5h-54v178h531v-178h-53q-43 0 -61.5 -19.5t-18.5 -60.5v-471q0 -39 17.5 -57.5t57.5 -18.5h58v-178h-305l-13 135q-68 -88 -147.5 -127
t-208.5 -39q-174 0 -262 88t-88 254zM721 1337h215v-223h-215v223zM260 1337h213v-223h-213v223z" />
    <glyph glyph-name="yacute" unicode="&#xfd;" horiz-adv-x="1177" 
d="M645 -410q-266 0 -418 144v153h232v-71q56 -52 178 -52q188 0 188 222v110q-111 -86 -279 -86t-274 93.5t-106 261.5v364q0 76 -78 76h-53v178h403v-629q0 -170 174 -170q90 0 142.5 51.5t52.5 147.5v346q0 76 -78 76h-53v178h405v-950q0 -201 -117.5 -322t-318.5 -121z
M602 1442h303l-231 -369h-230z" />
    <glyph glyph-name="thorn" unicode="&#xfe;" horiz-adv-x="1275" 
d="M954 498q0 184 -55 269t-176 85t-193.5 -88t-72.5 -217v-115q0 -135 71.5 -215t190.5 -80t177 88.5t58 272.5zM55 -248h54q43 0 61 19.5t18 60.5v1266q0 41 -18 60.5t-59 19.5h-35v178h381v-457q61 63 131.5 89t183.5 26q209 0 329 -132t120 -384t-116 -390.5
t-329 -138.5q-106 0 -180 29t-139 96v-266q0 -39 17.5 -57.5t57.5 -18.5h54v-178h-531v178z" />
    <glyph glyph-name="ydieresis" unicode="&#xff;" horiz-adv-x="1177" 
d="M645 -410q-266 0 -418 144v153h232v-71q56 -52 178 -52q188 0 188 222v110q-111 -86 -279 -86t-274 93.5t-106 261.5v364q0 76 -78 76h-53v178h403v-629q0 -170 174 -170q90 0 142.5 51.5t52.5 147.5v346q0 76 -78 76h-53v178h405v-950q0 -201 -117.5 -322t-318.5 -121z
M682 1337h215v-223h-215v223zM221 1337h213v-223h-213v223z" />
    <glyph glyph-name="Amacron" unicode="&#x100;" horiz-adv-x="1468" 
d="M877 551l-140 424l-143 -424h283zM55 178h60q49 0 73.5 15.5t38.5 58.5l379 1073h260l373 -1073q14 -43 40 -58.5t77 -15.5h57v-178h-512v178h94l-73 225h-373l-76 -225h94v-178h-512v178zM432 1640h612v-165h-612v165z" />
    <glyph glyph-name="amacron" unicode="&#x101;" horiz-adv-x="1075" 
d="M666 330v84l-228 -17q-86 -6 -118.5 -35.5t-32.5 -97.5q0 -121 153 -121q107 0 166.5 47.5t59.5 139.5zM936 254q0 -76 65 -76h39v-178h-254l-26 123q-72 -86 -156 -120t-240 -34t-242.5 71.5t-86.5 213.5q0 276 379 297l252 16v121q0 78 -35 110.5t-123 32.5t-154 -36
v-80h-231v188q178 111 396 111t317.5 -94.5t99.5 -257.5v-408zM233 1280h613v-166h-613v166z" />
    <glyph glyph-name="Abreve" unicode="&#x102;" horiz-adv-x="1468" 
d="M877 551l-140 424l-143 -424h283zM55 178h60q49 0 73.5 15.5t38.5 58.5l379 1073h260l373 -1073q14 -43 40 -58.5t77 -15.5h57v-178h-512v178h94l-73 225h-373l-76 -225h94v-178h-512v178zM391 1739h223q0 -68 32 -105t91 -37q123 0 123 142h223q0 -139 -92 -223
t-254 -84t-254 83.5t-92 223.5z" />
    <glyph glyph-name="abreve" unicode="&#x103;" horiz-adv-x="1075" 
d="M666 330v84l-228 -17q-86 -6 -118.5 -35.5t-32.5 -97.5q0 -121 153 -121q107 0 166.5 47.5t59.5 139.5zM936 254q0 -76 65 -76h39v-178h-254l-26 123q-72 -86 -156 -120t-240 -34t-242.5 71.5t-86.5 213.5q0 276 379 297l252 16v121q0 78 -35 110.5t-123 32.5t-154 -36
v-80h-231v188q178 111 396 111t317.5 -94.5t99.5 -257.5v-408zM414 1380q0 -141 123 -141t122 141h224q0 -139 -92.5 -223t-254 -84t-254 84t-92.5 223h224z" />
    <glyph glyph-name="Aogonek" unicode="&#x104;" horiz-adv-x="1468" 
d="M877 551l-140 424l-143 -424h283zM1133 -168q0 -88 69 -88q37 0 80 16v-151q-62 -45 -160 -45t-158.5 51t-60.5 137q0 159 107 248h-109v178h94l-73 225h-373l-76 -225h94v-178h-512v178h60q49 0 73.5 15.5t38.5 58.5l379 1073h260l373 -1073q14 -43 40 -58.5t77 -15.5
h57v-178h-180q-100 -80 -100 -168z" />
    <glyph glyph-name="aogonek" unicode="&#x105;" horiz-adv-x="1075" 
d="M287 264q0 -121 153 -121q106 0 166 47.5t60 139.5v84l-228 -17q-86 -6 -118.5 -35.5t-32.5 -97.5zM911 -169q0 -87 70 -87q37 0 80 16v-151q-63 -45 -161 -45t-158 51t-60 154q0 142 106 231h-2l-26 123q-72 -86 -156 -120t-240 -34t-242.5 71.5t-86.5 213.5
q0 276 379 297l252 16v121q0 78 -35 110.5t-123 32.5t-154 -36v-80h-231v188q178 111 396 111t317.5 -94.5t99.5 -257.5v-408q0 -76 65 -76h39v-178h-28q-101 -82 -101 -169z" />
    <glyph glyph-name="Cacute" unicode="&#x106;" horiz-adv-x="1234" 
d="M760 152q172 0 323 86l97 -152q-98 -66 -195.5 -91.5t-236.5 -25.5q-224 0 -379.5 86t-234.5 240.5t-79 358.5t72 363t220.5 249t369.5 90q150 0 254 -29t205 -92v-234h-269v142q-76 31 -176 31q-199 0 -304 -137.5t-105 -380.5t113.5 -373.5t324.5 -130.5zM766 1800h303
l-231 -368h-230z" />
    <glyph glyph-name="cacute" unicode="&#x107;" horiz-adv-x="1064" 
d="M648 152q150 0 272 81l90 -147q-92 -66 -182 -91.5t-240 -25.5t-271.5 58.5t-191.5 174t-70 279.5q0 254 143.5 393.5t393.5 139.5q139 0 231 -31t181 -98v-215h-232v118q-77 43 -188 43t-186.5 -88t-75.5 -258t88 -251.5t238 -81.5zM625 1442h303l-232 -369h-229z" />
    <glyph glyph-name="Ccircumflex" unicode="&#x108;" horiz-adv-x="1234" 
d="M760 152q172 0 323 86l97 -152q-98 -66 -195.5 -91.5t-236.5 -25.5q-224 0 -379.5 86t-234.5 240.5t-79 358.5t72 363t220.5 249t369.5 90q150 0 254 -29t205 -92v-234h-269v142q-76 31 -176 31q-199 0 -304 -137.5t-105 -380.5t113.5 -373.5t324.5 -130.5zM600 1829h246
l266 -395h-248l-143 245l-143 -245h-246z" />
    <glyph glyph-name="ccircumflex" unicode="&#x109;" horiz-adv-x="1064" 
d="M648 152q150 0 272 81l90 -147q-92 -66 -182 -91.5t-240 -25.5t-271.5 58.5t-191.5 174t-70 279.5q0 254 143.5 393.5t393.5 139.5q139 0 231 -31t181 -98v-215h-232v118q-77 43 -188 43t-186.5 -88t-75.5 -258t88 -251.5t238 -81.5zM442 1466h246l266 -395h-247
l-144 246l-143 -246h-246z" />
    <glyph glyph-name="Cdotaccent" unicode="&#x10a;" horiz-adv-x="1234" 
d="M760 152q172 0 323 86l97 -152q-98 -66 -195.5 -91.5t-236.5 -25.5q-224 0 -379.5 86t-234.5 240.5t-79 358.5t72 363t220.5 249t369.5 90q150 0 254 -29t205 -92v-234h-269v142q-76 31 -176 31q-199 0 -304 -137.5t-105 -380.5t113.5 -373.5t324.5 -130.5zM596 1696h213
v-223h-213v223z" />
    <glyph glyph-name="cdotaccent" unicode="&#x10b;" horiz-adv-x="1064" 
d="M648 152q150 0 272 81l90 -147q-92 -66 -182 -91.5t-240 -25.5t-271.5 58.5t-191.5 174t-70 279.5q0 254 143.5 393.5t393.5 139.5q139 0 231 -31t181 -98v-215h-232v118q-77 43 -188 43t-186.5 -88t-75.5 -258t88 -251.5t238 -81.5zM457 1333h213v-223h-213v223z" />
    <glyph glyph-name="Ccaron" unicode="&#x10c;" horiz-adv-x="1234" 
d="M760 152q172 0 323 86l97 -152q-98 -66 -195.5 -91.5t-236.5 -25.5q-224 0 -379.5 86t-234.5 240.5t-79 358.5t72 363t220.5 249t369.5 90q150 0 254 -29t205 -92v-234h-269v142q-76 31 -176 31q-199 0 -304 -137.5t-105 -380.5t113.5 -373.5t324.5 -130.5zM319 1829h246
l144 -246l143 246h248l-266 -395h-246z" />
    <glyph glyph-name="ccaron" unicode="&#x10d;" horiz-adv-x="1064" 
d="M648 152q150 0 272 81l90 -147q-92 -66 -182 -91.5t-240 -25.5t-271.5 58.5t-191.5 174t-70 279.5q0 254 143.5 393.5t393.5 139.5q139 0 231 -31t181 -98v-215h-232v118q-77 43 -188 43t-186.5 -88t-75.5 -258t88 -251.5t238 -81.5zM197 1466h245l144 -245l143 245h248
l-266 -395h-246z" />
    <glyph glyph-name="Dcaron" unicode="&#x10e;" horiz-adv-x="1292" 
d="M631 178q184 0 263 119t79 363t-78 365.5t-264 121.5h-180v-969h180zM55 178h54q43 0 61 19.5t18 60.5v813q0 39 -18 57.5t-61 18.5h-54v178h615q287 0 427 -173.5t140 -481.5t-144.5 -489t-422.5 -181h-615v178zM205 1829h246l143 -246l143 246h248l-266 -395h-246z" />
    <glyph glyph-name="dcaron" unicode="&#x10f;" horiz-adv-x="1552" 
d="M805 442v101q0 141 -61.5 221t-184.5 80t-181.5 -91t-58.5 -275t56.5 -264.5t177.5 -80.5t186.5 88t65.5 221zM55 480q0 251 116 392.5t333 141.5q113 0 182.5 -29t128.5 -98v203q0 45 -15.5 65.5t-60.5 20.5h-37v180h377v-1108q0 -45 15.5 -61.5t54.5 -16.5h33v-170
h-308l-16 137q-66 -86 -151.5 -126t-212.5 -40q-205 0 -322 129t-117 380zM1241 1477h297l-158 -433h-227z" />
    <glyph glyph-name="Dcroat" unicode="&#x110;" horiz-adv-x="1292" 
d="M631 178q184 0 263 119t79 363t-78 365.5t-264 121.5h-180v-395h258v-183h-258v-391h180zM55 178h54q43 0 61 19.5t18 60.5v311h-133v183h133v319q0 39 -18 57.5t-61 18.5h-54v178h615q287 0 427 -173.5t140 -481.5t-144.5 -489t-422.5 -181h-615v178z" />
    <glyph glyph-name="dcroat" unicode="&#x111;" horiz-adv-x="1216" 
d="M807 442v101q0 141 -61.5 221t-184.5 80t-180 -91t-57 -275t55 -264.5t176 -80.5t186.5 88t65.5 221zM741 1409h336v-178h103v-174h-103v-809q0 -45 15.5 -61.5t54.5 -16.5h33v-170h-303l-17 137q-66 -86 -151.5 -126t-212.5 -40q-205 0 -323 129t-118 380t116 392.5
t335 141.5q113 0 182.5 -29t128.5 -98v170h-287v174h287q-8 39 -53 39l-23 20v119z" />
    <glyph glyph-name="Emacron" unicode="&#x112;" horiz-adv-x="1118" 
d="M737 178q80 0 80 78v37h246v-293h-1008v178h54q43 0 61 19.5t18 60.5v813q0 39 -18 57.5t-61 18.5h-54v178h1008v-291h-246v37q0 76 -80 76h-278v-393h315v-181h-315v-395h278zM270 1640h613v-165h-613v165z" />
    <glyph glyph-name="emacron" unicode="&#x113;" horiz-adv-x="1107" 
d="M786 582q0 249 -223 249q-117 0 -179 -64.5t-62 -184.5h464zM322 428q0 -276 194.5 -276t269.5 32v72h232v-156q-156 -131 -419 -131t-403.5 130t-140.5 389t133.5 392.5t375.5 133.5t365.5 -132t123.5 -358v-96h-731zM264 1280h613v-166h-613v166z" />
    <glyph glyph-name="Ebreve" unicode="&#x114;" horiz-adv-x="1118" 
d="M737 178q80 0 80 78v37h246v-293h-1008v178h54q43 0 61 19.5t18 60.5v813q0 39 -18 57.5t-61 18.5h-54v178h1008v-291h-246v37q0 76 -80 76h-278v-393h315v-181h-315v-395h278zM227 1739h224q0 -68 31.5 -105t90.5 -37q123 0 123 142h224q0 -139 -92.5 -223t-254 -84
t-254 83.5t-92.5 223.5z" />
    <glyph glyph-name="ebreve" unicode="&#x115;" horiz-adv-x="1107" 
d="M786 582q0 249 -223 249q-117 0 -179 -64.5t-62 -184.5h464zM322 428q0 -276 194.5 -276t269.5 32v72h232v-156q-156 -131 -419 -131t-403.5 130t-140.5 389t133.5 392.5t375.5 133.5t365.5 -132t123.5 -358v-96h-731zM215 1380h223q0 -68 32 -104.5t91 -36.5
q123 0 123 141h223q0 -139 -92 -223t-254 -84t-254 84t-92 223z" />
    <glyph glyph-name="Edotaccent" unicode="&#x116;" horiz-adv-x="1118" 
d="M737 178q80 0 80 78v37h246v-293h-1008v178h54q43 0 61 19.5t18 60.5v813q0 39 -18 57.5t-61 18.5h-54v178h1008v-291h-246v37q0 76 -80 76h-278v-393h315v-181h-315v-395h278zM446 1696h213v-223h-213v223z" />
    <glyph glyph-name="edotaccent" unicode="&#x117;" horiz-adv-x="1107" 
d="M786 582q0 249 -223 249q-117 0 -179 -64.5t-62 -184.5h464zM322 428q0 -276 194.5 -276t269.5 32v72h232v-156q-156 -131 -419 -131t-403.5 130t-140.5 389t133.5 392.5t375.5 133.5t365.5 -132t123.5 -358v-96h-731zM457 1337h213v-223h-213v223z" />
    <glyph glyph-name="Eogonek" unicode="&#x118;" horiz-adv-x="1118" 
d="M684 -231q0 143 107 231h-736v178h54q43 0 61 19.5t18 60.5v813q0 39 -18 57.5t-61 18.5h-54v178h1008v-291h-246v37q0 76 -80 76h-278v-393h315v-181h-315v-395h278q80 0 80 78v37h246v-293h-49q-101 -81 -101 -169q0 -87 70 -87q37 0 80 16v-151q-63 -45 -161 -45
t-158 51t-60 154z" />
    <glyph glyph-name="eogonek" unicode="&#x119;" horiz-adv-x="1107" 
d="M786 582q0 249 -223 249q-117 0 -179 -64.5t-62 -184.5h464zM322 428q0 -276 194.5 -276t269.5 32v72h232v-156q-82 -69 -189 -100q-102 -79 -102 -167q0 -89 70 -89q39 0 82 16v-151q-41 -27 -81 -35t-114 -8t-130 52t-56 159t75 192q-242 2 -380 131t-138 388
t133.5 392.5t375.5 133.5t365.5 -132t123.5 -358v-96h-731z" />
    <glyph glyph-name="Ecaron" unicode="&#x11a;" horiz-adv-x="1118" 
d="M737 178q80 0 80 78v37h246v-293h-1008v178h54q43 0 61 19.5t18 60.5v813q0 39 -18 57.5t-61 18.5h-54v178h1008v-291h-246v37q0 76 -80 76h-278v-393h315v-181h-315v-395h278zM176 1829h246l143 -246l144 246h247l-266 -395h-246z" />
    <glyph glyph-name="ecaron" unicode="&#x11b;" horiz-adv-x="1107" 
d="M786 582q0 249 -223 249q-117 0 -179 -64.5t-62 -184.5h464zM322 428q0 -276 194.5 -276t269.5 32v72h232v-156q-156 -131 -419 -131t-403.5 130t-140.5 389t133.5 392.5t375.5 133.5t365.5 -132t123.5 -358v-96h-731zM174 1466h246l143 -245l144 245h247l-266 -395h-246
z" />
    <glyph glyph-name="Gcircumflex" unicode="&#x11c;" horiz-adv-x="1280" 
d="M55 654q0 204 72 363t220.5 249t369.5 90q150 0 254 -29t205 -92v-234h-269v142q-76 31 -176 31q-199 0 -304 -137.5t-105 -379.5t109.5 -373.5t307.5 -131.5q123 0 215 32v351h-268v180h539v-609q-194 -137 -498 -137q-215 0 -365.5 87t-228.5 240.5t-78 357.5z
M569 1829h246l266 -395h-247l-144 245l-143 -245h-246z" />
    <glyph glyph-name="gcircumflex" unicode="&#x11d;" horiz-adv-x="1214" 
d="M805 455v84q0 137 -61.5 225t-184.5 88t-181.5 -84t-58.5 -265t58.5 -265t182.5 -84t184.5 79.5t60.5 221.5zM639 -227q178 0 178 184v158q-57 -66 -131 -95.5t-182 -29.5q-213 0 -331 131t-118 385q0 162 59.5 276.5t165 173t234.5 58.5t206 -40t138 -130l19 139h303
v-172h-35q-39 0 -52.5 -19.5t-13.5 -66.5v-723q0 -188 -112.5 -300t-319.5 -112q-256 1 -414 140v161h232v-84q60 -34 174 -34zM440 1466h246l266 -395h-247l-144 246l-143 -246h-246z" />
    <glyph glyph-name="Gbreve" unicode="&#x11e;" horiz-adv-x="1280" 
d="M55 654q0 204 72 363t220.5 249t369.5 90q150 0 254 -29t205 -92v-234h-269v142q-76 31 -176 31q-199 0 -304 -137.5t-105 -379.5t109.5 -373.5t307.5 -131.5q123 0 215 32v351h-268v180h539v-609q-194 -137 -498 -137q-215 0 -365.5 87t-228.5 240.5t-78 357.5z
M354 1739h224q0 -68 31.5 -105t90.5 -37q123 0 123 142h224q0 -139 -92.5 -223t-254 -84t-254 83.5t-92.5 223.5z" />
    <glyph glyph-name="gbreve" unicode="&#x11f;" horiz-adv-x="1214" 
d="M805 455v84q0 137 -61.5 225t-184.5 88t-181.5 -84t-58.5 -265t58.5 -265t182.5 -84t184.5 79.5t60.5 221.5zM639 -227q178 0 178 184v158q-57 -66 -131 -95.5t-182 -29.5q-213 0 -331 131t-118 385q0 162 59.5 276.5t165 173t234.5 58.5t206 -40t138 -130l19 139h303
v-172h-35q-39 0 -52.5 -19.5t-13.5 -66.5v-723q0 -188 -112.5 -300t-319.5 -112q-256 1 -414 140v161h232v-84q60 -34 174 -34zM254 1380h223q0 -68 32 -104.5t91 -36.5q123 0 123 141h223q0 -139 -92 -223t-254 -84t-254 84t-92 223z" />
    <glyph glyph-name="Gdotaccent" unicode="&#x120;" horiz-adv-x="1280" 
d="M55 654q0 204 72 363t220.5 249t369.5 90q150 0 254 -29t205 -92v-234h-269v142q-76 31 -176 31q-199 0 -304 -137.5t-105 -379.5t109.5 -373.5t307.5 -131.5q123 0 215 32v351h-268v180h539v-609q-194 -137 -498 -137q-215 0 -365.5 87t-228.5 240.5t-78 357.5z
M600 1679h213v-223h-213v223z" />
    <glyph glyph-name="gdotaccent" unicode="&#x121;" horiz-adv-x="1214" 
d="M805 455v84q0 137 -61.5 225t-184.5 88t-181.5 -84t-58.5 -265t58.5 -265t182.5 -84t184.5 79.5t60.5 221.5zM639 -227q178 0 178 184v158q-57 -66 -131 -95.5t-182 -29.5q-213 0 -331 131t-118 385q0 162 59.5 276.5t165 173t234.5 58.5t206 -40t138 -130l19 139h303
v-172h-35q-39 0 -52.5 -19.5t-13.5 -66.5v-723q0 -188 -112.5 -300t-319.5 -112q-256 1 -414 140v161h232v-84q60 -34 174 -34zM469 1313h213v-223h-213v223z" />
    <glyph glyph-name="Gcommaaccent" unicode="&#x122;" horiz-adv-x="1280" 
d="M625 -100h288l-133 -439h-221zM55 654q0 204 72 363t220.5 249t369.5 90q150 0 254 -29t205 -92v-234h-269v142q-76 31 -176 31q-199 0 -304 -137.5t-105 -379.5t109.5 -373.5t307.5 -131.5q123 0 215 32v351h-268v180h539v-609q-194 -137 -498 -137q-215 0 -365.5 87
t-228.5 240.5t-78 357.5z" />
    <glyph glyph-name="gcommaaccent" unicode="&#x123;" horiz-adv-x="1214" 
d="M805 455v84q0 137 -61.5 225t-184.5 88t-181.5 -84t-58.5 -265t58.5 -265t182.5 -84t184.5 79.5t60.5 221.5zM639 -227q178 0 178 184v158q-57 -66 -131 -95.5t-182 -29.5q-213 0 -331 131t-118 385q0 162 59.5 276.5t165 173t234.5 58.5t206 -40t138 -130l19 139h303
v-172h-35q-39 0 -52.5 -19.5t-13.5 -66.5v-723q0 -188 -112.5 -300t-319.5 -112q-256 1 -414 140v161h232v-84q60 -34 174 -34zM526 1554h222l-66 -438h-289z" />
    <glyph glyph-name="Hcircumflex" unicode="&#x124;" horiz-adv-x="1402" 
d="M459 258q0 -80 76 -80h40v-178h-520v178h54q43 0 60 18.5t17 61.5v813q0 39 -17 57.5t-60 18.5h-54v178h520v-178h-40q-41 0 -58.5 -18.5t-17.5 -57.5v-317h485v315q0 41 -17.5 59.5t-58.5 18.5h-43v178h523v-178h-54q-43 0 -61.5 -18.5t-18.5 -57.5v-813
q0 -41 18.5 -60.5t61.5 -19.5h54v-178h-523v178h43q76 0 76 80v317h-485v-317zM580 1829h245l267 -395h-248l-144 245l-143 -245h-246z" />
    <glyph glyph-name="hcircumflex" unicode="&#x125;" horiz-adv-x="1247" 
d="M55 178h54q43 0 61 19.5t18 60.5v834q0 45 -15 65.5t-60 20.5h-58v178h375v-465q78 70 152.5 96.5t185.5 26.5q164 0 239.5 -87t75.5 -255v-418q0 -39 17.5 -57.5t58.5 -18.5h53v-178h-397v670q0 90 -38 130t-123 40t-141 -50.5t-56 -140.5v-395q0 -39 17.5 -57.5
t57.5 -18.5h54v-178h-531v178zM326 1829h245l267 -395h-248l-144 245l-143 -245h-246z" />
    <glyph glyph-name="Hbar" unicode="&#x126;" horiz-adv-x="1402" 
d="M944 754v98h-485v-98h485zM459 258q0 -80 76 -80h40v-178h-520v178h54q43 0 60 18.5t17 61.5v594h-131v164h131v55q0 39 -17 57.5t-60 18.5h-54v178h520v-178h-40q-41 0 -58.5 -18.5t-17.5 -57.5v-55h485v53q0 41 -17.5 59.5t-58.5 18.5h-43v178h523v-178h-54
q-43 0 -61.5 -18.5t-18.5 -57.5v-55h134v-164h-134v-594q0 -41 18.5 -60.5t61.5 -19.5h54v-178h-523v178h43q76 0 76 80v317h-485v-317z" />
    <glyph glyph-name="hbar" unicode="&#x127;" horiz-adv-x="1247" 
d="M55 178h54q43 0 61 19.5t18 60.5v813h-133v180h133v25q0 45 -15 65.5t-60 20.5h-58v117h375v-228h254v-180h-254v-180q78 70 152.5 96.5t185.5 26.5q164 0 239.5 -87t75.5 -255v-418q0 -39 17.5 -57.5t58.5 -18.5h53v-178h-397v670q0 90 -38 130t-123 40t-141 -50.5
t-56 -140.5v-395q0 -39 17.5 -57.5t57.5 -18.5h54v-178h-531v178z" />
    <glyph glyph-name="Itilde" unicode="&#x128;" horiz-adv-x="641" 
d="M55 178h54q43 0 61 19.5t18 60.5v813q0 39 -18 57.5t-61 18.5h-54v178h531v-178h-54q-41 0 -58 -18.5t-17 -57.5v-817q0 -39 17.5 -57.5t57.5 -18.5h54v-178h-531v178zM463 1640q90 0 90 107h190q0 -164 -55 -238.5t-178 -74.5q-87 0 -182 51t-141 51t-68.5 -23.5
t-22.5 -78.5h-192q0 159 58 236t183 77q55 0 96.5 -15.5t90.5 -41.5t75.5 -38t55.5 -12z" />
    <glyph glyph-name="itilde" unicode="&#x129;" horiz-adv-x="600" 
d="M35 178h53q43 0 61.5 19.5t18.5 60.5v461q0 45 -15.5 65.5t-60.5 20.5h-57v178h401v-729q0 -39 17.5 -57.5t58.5 -18.5h53v-178h-530v178zM422 1303q90 0 90 106h190q0 -164 -55 -238.5t-178 -74.5q-87 0 -182 51t-141 51t-68.5 -23.5t-22.5 -78.5h-192q0 159 58.5 236
t182.5 77q55 0 96.5 -15.5t90.5 -41.5t75.5 -37.5t55.5 -11.5z" />
    <glyph glyph-name="Imacron" unicode="&#x12a;" horiz-adv-x="641" 
d="M55 178h54q43 0 61 19.5t18 60.5v813q0 39 -18 57.5t-61 18.5h-54v178h531v-178h-54q-41 0 -58 -18.5t-17 -57.5v-817q0 -39 17.5 -57.5t57.5 -18.5h54v-178h-531v178zM14 1640h613v-165h-613v165z" />
    <glyph glyph-name="imacron" unicode="&#x12b;" horiz-adv-x="600" 
d="M35 178h53q43 0 61.5 19.5t18.5 60.5v461q0 45 -15.5 65.5t-60.5 20.5h-57v178h401v-729q0 -39 17.5 -57.5t58.5 -18.5h53v-178h-530v178zM-37 1280h612v-166h-612v166z" />
    <glyph glyph-name="Ibreve" unicode="&#x12c;" horiz-adv-x="641" 
d="M55 178h54q43 0 61 19.5t18 60.5v813q0 39 -18 57.5t-61 18.5h-54v178h531v-178h-54q-41 0 -58 -18.5t-17 -57.5v-817q0 -39 17.5 -57.5t57.5 -18.5h54v-178h-531v178zM-27 1741h224q0 -68 31.5 -105t90.5 -37q123 0 123 142h224q0 -139 -92.5 -223t-254 -84t-254 84
t-92.5 223z" />
    <glyph glyph-name="ibreve" unicode="&#x12d;" horiz-adv-x="600" 
d="M35 178h53q43 0 61.5 19.5t18.5 60.5v461q0 45 -15.5 65.5t-60.5 20.5h-57v178h401v-729q0 -39 17.5 -57.5t58.5 -18.5h53v-178h-530v178zM-70 1403h224q0 -68 31.5 -104.5t90.5 -36.5q123 0 123 141h224q0 -139 -92.5 -223t-254 -84t-254 84t-92.5 223z" />
    <glyph glyph-name="Iogonek" unicode="&#x12e;" horiz-adv-x="641" 
d="M127 -231q0 142 106 231h-178v178h54q43 0 61 19.5t18 60.5v813q0 39 -18 57.5t-61 18.5h-54v178h531v-178h-54q-40 0 -57.5 -18.5t-17.5 -57.5v-817q0 -39 17.5 -57.5t57.5 -18.5h54v-178h-129q-101 -81 -101 -169q0 -87 70 -87q37 0 80 16v-151q-62 -45 -160 -45
t-158.5 51t-60.5 154z" />
    <glyph glyph-name="iogonek" unicode="&#x12f;" horiz-adv-x="600" 
d="M340 -168q0 -88 70 -88q37 0 79 16v-151q-63 -45 -160 -45t-157.5 51t-60.5 154q0 142 106 231h-182v178h53q43 0 61.5 19.5t18.5 60.5v461q0 45 -15.5 65.5t-60.5 20.5h-57v178h401v-729q0 -39 17.5 -57.5t58.5 -18.5h53v-178h-125q-100 -80 -100 -168zM440 1130h-282
v218h282v-218z" />
    <glyph glyph-name="Idotaccent" unicode="&#x130;" horiz-adv-x="641" 
d="M55 178h54q43 0 61 19.5t18 60.5v813q0 39 -18 57.5t-61 18.5h-54v178h531v-178h-54q-41 0 -58 -18.5t-17 -57.5v-817q0 -39 17.5 -57.5t57.5 -18.5h54v-178h-531v178zM213 1696h213v-223h-213v223z" />
    <glyph glyph-name="dotlessi" unicode="&#x131;" horiz-adv-x="600" 
d="M35 178h53q43 0 61.5 19.5t18.5 60.5v461q0 45 -15.5 65.5t-60.5 20.5h-57v178h401v-729q0 -39 17.5 -57.5t58.5 -18.5h53v-178h-530v178z" />
    <glyph glyph-name="IJ" unicode="&#x132;" horiz-adv-x="1603" 
d="M1010 -31q-285 0 -422 164v180h241v-102q57 -59 155 -59t139.5 44t41.5 140v735q0 76 -78 76h-55v178h537v-178h-56q-78 0 -77 -76v-694q0 -193 -109.5 -300.5t-316.5 -107.5zM55 178h54q43 0 61 19.5t18 60.5v813q0 39 -18 57.5t-61 18.5h-54v178h531v-178h-54
q-41 0 -58 -18.5t-17 -57.5v-817q0 -39 17.5 -57.5t57.5 -18.5h54v-178h-531v178z" />
    <glyph glyph-name="ij" unicode="&#x133;" horiz-adv-x="1179" 
d="M1079 10q0 -356 -397 -356q-232 0 -369 119v188h224v-84q47 -41 125 -41t113.5 32t35.5 109v742q0 45 -15.5 65.5t-60.5 20.5h-57v178h401v-973zM35 178h53q43 0 61.5 19.5t18.5 60.5v461q0 45 -15.5 65.5t-60.5 20.5h-57v178h401v-729q0 -39 17.5 -57.5t58.5 -18.5h53
v-178h-530v178zM801 1348h282v-218h-282v218zM158 1348h282v-218h-282v218z" />
    <glyph glyph-name="Jcircumflex" unicode="&#x134;" horiz-adv-x="1030" 
d="M416 -31q-285 0 -422 164v180h242v-102q57 -59 155 -59t139 44t41 140v735q0 76 -77 76h-56v178h537v-178h-55q-78 0 -78 -76v-694q0 -193 -109.5 -300.5t-316.5 -107.5zM559 1827h246l266 -395h-248l-143 245l-143 -245h-246z" />
    <glyph glyph-name="jcircumflex" unicode="&#x135;" horiz-adv-x="794" 
d="M698 10q0 -356 -397 -356q-232 0 -369 119v188h224v-84q47 -41 125 -41t113.5 32t35.5 109v742q0 45 -15.5 65.5t-60.5 20.5h-57v178h401v-973zM297 1466h246l266 -395h-248l-143 246l-144 -246h-245z" />
    <glyph glyph-name="Kcommaaccent" unicode="&#x136;" horiz-adv-x="1341" 
d="M539 -100h288l-133 -439h-221zM459 254q0 -76 67 -76h37v-178h-508v178h54q77 0 77 76v817q0 39 -17 57.5t-60 18.5h-54v178h508v-180h-37q-68 0 -67 -74v-373l418 449h-95v178h486v-178h-74q-39 0 -59.5 -12.5t-49.5 -42.5l-313 -334l344 -525q34 -55 105 -55h65v-178
h-512v178h113l-273 418l-155 -166v-176z" />
    <glyph glyph-name="kcommaaccent" unicode="&#x137;" horiz-adv-x="1206" 
d="M492 -100h288l-133 -439h-221zM55 178h54q43 0 61 19.5t18 60.5v834q0 45 -15 65.5t-60 20.5h-58v178h402v-766l245 215h-84v178h510v-178h-102q-33 0 -49 -7t-41 -28l-170 -149l229 -394q18 -31 35 -40t55 -9h86v-178h-305l-280 479l-129 -112v-113q0 -39 17.5 -57.5
t57.5 -18.5h54v-178h-531v178z" />
    <glyph glyph-name="kgreenlandic" unicode="&#x138;" horiz-adv-x="1204" 
d="M55 172h51q45 0 56.5 20.5t11.5 77.5v478q0 37 -14.5 52t-50.5 15h-46v168h461v-168h-35q-43 0 -54 -19.5t-11 -74.5v-162l266 256h-69v168h491v-168h-100q-51 0 -81 -28.5t-38 -34.5l-162 -146l232 -385q16 -27 36.5 -38t57.5 -11h92v-172h-506v172h96l-176 291
l-139 -125v-98q0 -37 14.5 -52.5t55.5 -15.5h63v-172h-502v172z" />
    <glyph glyph-name="Lacute" unicode="&#x139;" horiz-adv-x="1056" 
d="M737 178q80 0 80 78v72h246v-328h-1008v178h51q43 0 62.5 18.5t19.5 59.5v815q0 39 -18 57.5t-61 18.5h-54v178h537v-178h-53q-43 0 -61.5 -18.5t-18.5 -57.5v-893h278zM285 1800h303l-232 -368h-229z" />
    <glyph glyph-name="lacute" unicode="&#x13a;" horiz-adv-x="620" 
d="M55 178h54q43 0 61 19.5t18 60.5v834q0 45 -15 65.5t-60 20.5h-58v178h402v-1102q0 -39 17.5 -57.5t57.5 -18.5h54v-178h-531v178zM233 1800h304l-232 -368h-229z" />
    <glyph glyph-name="Lcommaaccent" unicode="&#x13b;" horiz-adv-x="1056" 
d="M487 -100h289l-133 -439h-221zM737 178q80 0 80 78v72h246v-328h-1008v178h51q43 0 62.5 18.5t19.5 59.5v815q0 39 -18 57.5t-61 18.5h-54v178h537v-178h-53q-43 0 -61.5 -18.5t-18.5 -57.5v-893h278z" />
    <glyph glyph-name="lcommaaccent" unicode="&#x13c;" horiz-adv-x="641" 
d="M193 -100h288l-133 -439h-221zM55 178h54q43 0 61 19.5t18 60.5v834q0 45 -15 65.5t-60 20.5h-58v178h402v-1102q0 -39 17.5 -57.5t57.5 -18.5h54v-178h-531v178z" />
    <glyph glyph-name="Lcaron" unicode="&#x13d;" horiz-adv-x="1095" 
d="M737 178q80 0 80 78v72h246v-328h-1008v178h51q43 0 62.5 18.5t19.5 59.5v815q0 39 -18 57.5t-61 18.5h-54v178h537v-178h-53q-43 0 -61.5 -18.5t-18.5 -57.5v-893h278zM825 1462h289l-133 -438h-221z" />
    <glyph glyph-name="lcaron" unicode="&#x13e;" horiz-adv-x="872" 
d="M55 178h54q43 0 61 19.5t18 60.5v834q0 45 -15 65.5t-60 20.5h-58v178h402v-1102q0 -39 17.5 -57.5t57.5 -18.5h54v-178h-531v178zM647 1556h289l-133 -438h-221z" />
    <glyph glyph-name="Ldot" unicode="&#x13f;" horiz-adv-x="1056" 
d="M641 827h215v-223h-215v223zM737 178q80 0 80 78v72h246v-328h-1008v178h51q43 0 62.5 18.5t19.5 59.5v815q0 39 -18 57.5t-61 18.5h-54v178h537v-178h-53q-43 0 -61.5 -18.5t-18.5 -57.5v-893h278z" />
    <glyph glyph-name="ldot" unicode="&#x140;" horiz-adv-x="806" 
d="M618 809h216v-223h-216v223zM55 178h54q43 0 61 19.5t18 60.5v834q0 45 -15 65.5t-60 20.5h-58v178h402v-1102q0 -39 17.5 -57.5t57.5 -18.5h54v-178h-531v178z" />
    <glyph glyph-name="Lslash" unicode="&#x141;" horiz-adv-x="1056" 
d="M737 178q80 0 80 78v72h246v-328h-1008v178h51q43 0 62.5 18.5t19.5 59.5v205l-120 -70v193l120 69v418q0 39 -18 57.5t-61 18.5h-54v178h537v-178h-53q-43 0 -61.5 -18.5t-18.5 -57.5v-262l194 113v-193l-194 -113v-438h278z" />
    <glyph glyph-name="lslash" unicode="&#x142;" horiz-adv-x="620" 
d="M55 178h54q43 0 61 19.5t18 60.5v291l-133 -76v193l133 75v351q0 45 -15 65.5t-60 20.5h-58v178h402v-459l129 76v-193l-129 -75v-451q0 -39 17.5 -57.5t57.5 -18.5h54v-178h-531v178z" />
    <glyph glyph-name="Nacute" unicode="&#x143;" horiz-adv-x="1419" 
d="M1309 1147q-76 0 -76 -76v-1071h-207l-567 883v-629q0 -39 17.5 -57.5t58.5 -18.5h53v-178h-533v178h54q80 0 79 76v817q0 39 -18 57.5t-61 18.5h-54v178h338l572 -887v633q0 76 -80 76h-56v178h535v-178h-55zM692 1800h303l-231 -368h-229z" />
    <glyph glyph-name="nacute" unicode="&#x144;" horiz-adv-x="1243" 
d="M748 1014q172 0 251.5 -87t79.5 -255v-418q0 -39 17.5 -57.5t58.5 -18.5h53v-178h-397v670q0 90 -37 130t-123 40t-140 -50.5t-54 -140.5v-395q0 -39 17.5 -57.5t57.5 -18.5h54v-178h-531v178h54q43 0 61 19.5t18 60.5v471q0 39 -17 57.5t-58 18.5h-58v178h305l13 -135
q134 166 375 166zM569 1442h303l-231 -369h-229z" />
    <glyph glyph-name="Ncommaaccent" unicode="&#x145;" horiz-adv-x="1419" 
d="M604 -100h289l-133 -439h-221zM1309 1147q-76 0 -76 -76v-1071h-207l-567 883v-629q0 -39 17.5 -57.5t58.5 -18.5h53v-178h-533v178h54q80 0 79 76v817q0 39 -18 57.5t-61 18.5h-54v178h338l572 -887v633q0 76 -80 76h-56v178h535v-178h-55z" />
    <glyph glyph-name="ncommaaccent" unicode="&#x146;" horiz-adv-x="1243" 
d="M565 -100h289l-133 -439h-221zM748 1014q172 0 251.5 -87t79.5 -255v-418q0 -39 17.5 -57.5t58.5 -18.5h53v-178h-397v670q0 90 -37 130t-123 40t-140 -50.5t-54 -140.5v-395q0 -39 17.5 -57.5t57.5 -18.5h54v-178h-531v178h54q43 0 61 19.5t18 60.5v471q0 39 -17 57.5
t-58 18.5h-58v178h305l13 -135q134 166 375 166z" />
    <glyph glyph-name="Ncaron" unicode="&#x147;" horiz-adv-x="1419" 
d="M1309 1147q-76 0 -76 -76v-1071h-207l-567 883v-629q0 -39 17.5 -57.5t58.5 -18.5h53v-178h-533v178h54q80 0 79 76v817q0 39 -18 57.5t-61 18.5h-54v178h338l572 -887v633q0 76 -80 76h-56v178h535v-178h-55zM283 1829h245l144 -246l143 246h248l-266 -395h-246z" />
    <glyph glyph-name="ncaron" unicode="&#x148;" horiz-adv-x="1243" 
d="M748 1014q172 0 251.5 -87t79.5 -255v-418q0 -39 17.5 -57.5t58.5 -18.5h53v-178h-397v670q0 90 -37 130t-123 40t-140 -50.5t-54 -140.5v-395q0 -39 17.5 -57.5t57.5 -18.5h54v-178h-531v178h54q43 0 61 19.5t18 60.5v471q0 39 -17 57.5t-58 18.5h-58v178h305l13 -135
q134 166 375 166zM195 1466h245l144 -245l143 245h248l-266 -395h-246z" />
    <glyph glyph-name="napostrophe" unicode="&#x149;" horiz-adv-x="1556" 
d="M1061 1014q172 0 252 -87t80 -255v-418q0 -39 17 -57.5t58 -18.5h54v-178h-398v670q0 90 -36.5 130t-122.5 40t-140.5 -50.5t-54.5 -140.5v-395q0 -39 17.5 -57.5t58.5 -18.5h53v-178h-530v178h53q43 0 61.5 19.5t18.5 60.5v471q0 39 -17.5 57.5t-58.5 18.5h-57v178h305
l12 -135q134 166 375 166zM158 1462h288l-133 -438h-221z" />
    <glyph glyph-name="Eng" unicode="&#x14a;" horiz-adv-x="1419" 
d="M1233 -227q0 -357 -415 -357q-214 0 -351 119v189h223v-84q47 -41 125 -41t114 31.5t36 109.5v354l-506 789v-629q0 -39 17.5 -57.5t58.5 -18.5h53v-178h-533v178h54q80 0 79 76v817q0 39 -18 57.5t-61 18.5h-54v178h338l572 -887v633q0 76 -80 76h-56v178h535v-178h-55
q-76 0 -76 -76v-1298z" />
    <glyph glyph-name="eng" unicode="&#x14b;" horiz-adv-x="1196" 
d="M1079 -176q0 -356 -397 -356q-232 -1 -369 118v189h224v-84q47 -41 125 -41t113.5 31.5t35.5 109.5v879q0 90 -37 130t-123 40t-140 -50.5t-54 -140.5v-395q0 -39 17.5 -57.5t57.5 -18.5h54v-178h-531v178h54q43 0 61 19.5t18 60.5v471q0 39 -17 57.5t-58 18.5h-58v178
h305l13 -135q134 166 375 166q172 0 251.5 -87t79.5 -255v-848z" />
    <glyph glyph-name="Omacron" unicode="&#x14c;" horiz-adv-x="1357" 
d="M1036 660q0 276 -85 395t-271 119q-127 0 -242.5 -75t-115.5 -442q0 -274 85 -389.5t272 -115.5t272 116t85 392zM55 659q0 348 149.5 522.5t473.5 174.5t474.5 -174t150.5 -522t-154.5 -519.5t-470.5 -171.5t-469.5 171t-153.5 519zM373 1640h612v-165h-612v165z" />
    <glyph glyph-name="omacron" unicode="&#x14d;" horiz-adv-x="1142" 
d="M821 490q0 175 -60.5 258t-189.5 83t-189 -82.5t-60 -258.5t60 -257t189 -81t189.5 81.5t60.5 256.5zM55 490q0 250 131 387t386 137t385 -136.5t130 -387.5t-132 -386t-384 -135t-384 135.5t-132 385.5zM266 1280h613v-166h-613v166z" />
    <glyph glyph-name="Obreve" unicode="&#x14e;" horiz-adv-x="1357" 
d="M1036 660q0 276 -85 395t-271 119q-127 0 -242.5 -75t-115.5 -442q0 -274 85 -389.5t272 -115.5t272 116t85 392zM55 659q0 348 149.5 522.5t473.5 174.5t474.5 -174t150.5 -522t-154.5 -519.5t-470.5 -171.5t-469.5 171t-153.5 519zM332 1739h223q0 -68 31.5 -105
t91.5 -37q123 0 123 142h223q0 -139 -92 -223t-254 -84t-254 83.5t-92 223.5z" />
    <glyph glyph-name="obreve" unicode="&#x14f;" horiz-adv-x="1142" 
d="M821 490q0 175 -60.5 258t-189.5 83t-189 -82.5t-60 -258.5t60 -257t189 -81t189.5 81.5t60.5 256.5zM55 490q0 250 131 387t386 137t385 -136.5t130 -387.5t-132 -386t-384 -135t-384 135.5t-132 385.5zM225 1380h224q0 -68 31.5 -104.5t90.5 -36.5q123 0 123 141h224
q0 -139 -92.5 -223t-254 -84t-254 84t-92.5 223z" />
    <glyph glyph-name="Ohungarumlaut" unicode="&#x150;" horiz-adv-x="1357" 
d="M1036 660q0 276 -85 395t-271 119q-127 0 -242.5 -75t-115.5 -442q0 -274 85 -389.5t272 -115.5t272 116t85 392zM55 659q0 348 149.5 522.5t473.5 174.5t474.5 -174t150.5 -522t-154.5 -519.5t-470.5 -171.5t-469.5 171t-153.5 519zM895 1827h315l-254 -395h-239z
M455 1827h311l-250 -395h-242z" />
    <glyph glyph-name="ohungarumlaut" unicode="&#x151;" horiz-adv-x="1146" 
d="M821 490q0 175 -60.5 258t-189.5 83t-189 -82.5t-60 -258.5t60 -257t189 -81t189.5 81.5t60.5 256.5zM55 490q0 250 131 387t386 137t385 -136.5t130 -387.5t-132 -386t-384 -135t-384 135.5t-132 385.5zM776 1466h316l-254 -395h-240zM336 1466h311l-250 -395h-241z" />
    <glyph glyph-name="OE" unicode="&#x152;" horiz-adv-x="1648" 
d="M745 178v969h-88q-154 0 -244.5 -122t-90.5 -366t89 -362.5t242 -118.5h92zM1268 178q80 0 80 78v37h245v-293h-874q-328 0 -496 159.5t-168 499.5t165 503t499 163h874v-291h-245v37q0 76 -80 76h-279v-393h316v-181h-316v-395h279z" />
    <glyph glyph-name="oe" unicode="&#x153;" horiz-adv-x="1873" 
d="M1552 582q0 249 -223 249q-117 0 -179.5 -64.5t-62.5 -184.5h465zM821 490q0 175 -60.5 258t-189.5 83t-189 -82.5t-60 -258.5t60 -257t189 -81t189.5 81.5t60.5 256.5zM55 490q0 250 131 387t380 137t388 -140q135 140 376 140t365 -132t124 -358v-96h-732
q0 -276 195 -276t270 32v72h232v-156q-156 -131 -420 -131t-410 142q-138 -142 -386 -142q-249 0 -381 135.5t-132 385.5z" />
    <glyph glyph-name="Racute" unicode="&#x154;" horiz-adv-x="1288" 
d="M707 682q233 0 233 240q0 121 -55.5 173t-177.5 52h-256v-465h256zM188 1071q0 76 -82 76h-51v178h693q215 0 335.5 -103.5t120.5 -299.5q0 -147 -76.5 -248t-220.5 -139l160 -293q37 -64 117 -64h49v-178h-479v178h82l-172 326h-213v-256q0 -37 14 -53.5t53 -16.5h49
v-178h-512v178h51q82 0 82 76v817zM586 1800h303l-232 -368h-229z" />
    <glyph glyph-name="racute" unicode="&#x155;" horiz-adv-x="823" 
d="M55 178h54q43 0 61 19.5t18 60.5v471q0 39 -16 57.5t-57 18.5h-60v178h351l26 -109q70 109 250 109h106v-178h-139q-102 0 -147 -47t-45 -144v-360q0 -39 17.5 -57.5t57.5 -18.5h54v-178h-531v178zM350 1442h303l-231 -369h-229z" />
    <glyph glyph-name="Rcommaaccent" unicode="&#x156;" horiz-adv-x="1288" 
d="M541 -100h288l-133 -439h-221zM707 682q233 0 233 240q0 121 -55.5 173t-177.5 52h-256v-465h256zM188 1071q0 76 -82 76h-51v178h693q215 0 335.5 -103.5t120.5 -299.5q0 -147 -76.5 -248t-220.5 -139l160 -293q37 -64 117 -64h49v-178h-479v178h82l-172 326h-213v-256
q0 -37 14 -53.5t53 -16.5h49v-178h-512v178h51q82 0 82 76v817z" />
    <glyph glyph-name="rcommaaccent" unicode="&#x157;" horiz-adv-x="823" 
d="M205 -100h289l-134 -439h-221zM55 178h54q43 0 61 19.5t18 60.5v471q0 39 -16 57.5t-57 18.5h-60v178h351l26 -109q70 109 250 109h106v-178h-139q-102 0 -147 -47t-45 -144v-360q0 -39 17.5 -57.5t57.5 -18.5h54v-178h-531v178z" />
    <glyph glyph-name="Rcaron" unicode="&#x158;" horiz-adv-x="1288" 
d="M707 682q233 0 233 240q0 121 -55.5 173t-177.5 52h-256v-465h256zM188 1071q0 76 -82 76h-51v178h693q215 0 335.5 -103.5t120.5 -299.5q0 -147 -76.5 -248t-220.5 -139l160 -293q37 -64 117 -64h49v-178h-479v178h82l-172 326h-213v-256q0 -37 14 -53.5t53 -16.5h49
v-178h-512v178h51q82 0 82 76v817zM215 1829h246l143 -246l144 246h247l-266 -395h-246z" />
    <glyph glyph-name="rcaron" unicode="&#x159;" horiz-adv-x="823" 
d="M55 178h54q43 0 61 19.5t18 60.5v471q0 39 -16 57.5t-57 18.5h-60v178h351l26 -109q70 109 250 109h106v-178h-139q-102 0 -147 -47t-45 -144v-360q0 -39 17.5 -57.5t57.5 -18.5h54v-178h-531v178zM27 1466h245l144 -245l143 245h248l-266 -395h-246z" />
    <glyph glyph-name="Sacute" unicode="&#x15a;" horiz-adv-x="1110" 
d="M55 348h273v-141q98 -55 243 -55q217 0 217 174q0 106 -88 151t-220 99t-273 140t-141 271q0 186 140 277.5t359 91.5q270 0 465 -156v-203h-274v131q-78 45 -205 46q-219 0 -219 -170q0 -59 41 -103.5t97 -72.5t188 -82t216 -101t132.5 -118t48.5 -183t-56.5 -195
t-166 -131.5t-263 -48.5t-286.5 43t-228 117v219zM573 1800h304l-232 -368h-229z" />
    <glyph glyph-name="sacute" unicode="&#x15b;" horiz-adv-x="964" 
d="M485 -31q-263 0 -430 125v172h248v-78q57 -36 157 -36t141.5 20.5t41.5 70.5t-34 74.5t-134 63.5l-94 37q-109 45 -212 105.5t-103 204.5t108.5 215t296.5 71q255 0 416 -123v-172h-240v74q-53 39 -140 39t-131 -22t-44 -75t49 -82.5t156 -68.5l65 -25
q104 -39 205.5 -99.5t101.5 -204.5q0 -286 -424 -286zM481 1442h303l-231 -369h-229z" />
    <glyph glyph-name="Scircumflex" unicode="&#x15c;" horiz-adv-x="1110" 
d="M55 348h273v-141q98 -55 243 -55q217 0 217 174q0 106 -88 151t-220 99t-273 140t-141 271q0 186 140 277.5t359 91.5q270 0 465 -156v-203h-274v131q-78 45 -205 46q-219 0 -219 -170q0 -59 41 -103.5t97 -72.5t188 -82t216 -101t132.5 -118t48.5 -183t-56.5 -195
t-166 -131.5t-263 -48.5t-286.5 43t-228 117v219zM428 1829h246l266 -395h-248l-143 245l-143 -245h-246z" />
    <glyph glyph-name="scircumflex" unicode="&#x15d;" horiz-adv-x="964" 
d="M485 -31q-263 0 -430 125v172h248v-78q57 -36 157 -36t141.5 20.5t41.5 70.5t-34 74.5t-134 63.5l-94 37q-109 45 -212 105.5t-103 204.5t108.5 215t296.5 71q255 0 416 -123v-172h-240v74q-53 39 -140 39t-131 -22t-44 -75t49 -82.5t156 -68.5l65 -25
q104 -39 205.5 -99.5t101.5 -204.5q0 -286 -424 -286zM332 1466h246l266 -395h-248l-143 246l-144 -246h-246z" />
    <glyph glyph-name="Scedilla" unicode="&#x15e;" horiz-adv-x="1107" 
d="M332 1004q0 -63 41 -107.5t91 -69.5t186 -79t221 -102t133.5 -119.5t48.5 -200.5t-99.5 -228.5t-279.5 -122.5l-10 -63q84 -14 121.5 -58t37.5 -120q0 -201 -299 -201q-98 0 -174 31v149q68 -31 156 -31t88 62q0 49 -38 70.5t-148 21.5l20 144q-221 31 -373 149v219h273
v-141q99 -57 243 -57q217 0 217 176q0 104 -89 152t-220 101t-271 138.5t-140 270.5t139 276.5t358 91.5q270 0 465 -156v-203h-274v131q-82 47 -205 48q-219 0 -219 -172z" />
    <glyph glyph-name="scedilla" unicode="&#x15f;" horiz-adv-x="964" 
d="M471 1014q255 0 416 -123v-172h-240v74q-53 39 -140 39t-131 -22t-44 -75t49 -82.5t156 -68.5l65 -25q104 -39 205.5 -99.5t101.5 -213.5q0 -227 -293 -269l-8 -65q84 -14 122 -58t38 -120q0 -201 -299 -201q-98 0 -176 31v149q72 -31 145 -30q100 0 101 61
q0 49 -39 70.5t-148 21.5l19 139q-193 27 -316 119v172h248v-78q57 -36 157 -36t141.5 20.5t41.5 70.5t-34 74.5t-134 63.5l-94 37q-109 45 -212 105.5t-103 204.5t108.5 215t296.5 71z" />
    <glyph glyph-name="Scaron" unicode="&#x160;" horiz-adv-x="1110" 
d="M55 348h273v-141q98 -55 243 -55q217 0 217 174q0 106 -88 151t-220 99t-273 140t-141 271q0 186 140 277.5t359 91.5q270 0 465 -156v-203h-274v131q-78 45 -205 46q-219 0 -219 -170q0 -59 41 -103.5t97 -72.5t188 -82t216 -101t132.5 -118t48.5 -183t-56.5 -195
t-166 -131.5t-263 -48.5t-286.5 43t-228 117v219zM166 1829h246l143 -246l143 246h248l-266 -395h-246z" />
    <glyph glyph-name="scaron" unicode="&#x161;" horiz-adv-x="964" 
d="M485 -31q-263 0 -430 125v172h248v-78q57 -36 157 -36t141.5 20.5t41.5 70.5t-34 74.5t-134 63.5l-94 37q-109 45 -212 105.5t-103 204.5t108.5 215t296.5 71q255 0 416 -123v-172h-240v74q-53 39 -140 39t-131 -22t-44 -75t49 -82.5t156 -68.5l65 -25
q104 -39 205.5 -99.5t101.5 -204.5q0 -286 -424 -286zM76 1466h246l143 -245l143 245h248l-266 -395h-246z" />
    <glyph glyph-name="uni0162" unicode="&#x162;" horiz-adv-x="1208" 
d="M879 -266q0 -96 -73.5 -148.5t-199.5 -52.5t-205 31v149q72 -31 148 -30q100 0 100 61q0 49 -39 70.5t-149 21.5l24 164h-147v178h51q43 0 61.5 18.5t18.5 57.5v893h-160q-43 0 -61.5 -17.5t-18.5 -58.5v-76h-194v330h1139v-330h-195v76q0 41 -18.5 58.5t-61.5 17.5h-160
v-893q0 -76 82 -76h51v-178h-141l-14 -88q162 -27 162 -178z" />
    <glyph glyph-name="uni0163" unicode="&#x163;" horiz-adv-x="927" 
d="M815 -266q0 -96 -73.5 -148.5t-199.5 -52.5t-204 31v149q72 -31 147 -30q100 0 101 61q0 49 -39 70.5t-150 21.5l23 152q-229 57 -230 321v500h-155v174h155v211l273 80v-291h280v-174h-280v-520q0 -78 29.5 -112t100.5 -34t114 37v88h227v-172q-117 -98 -270 -121
l-11 -63q162 -27 162 -178z" />
    <glyph glyph-name="Tcaron" unicode="&#x164;" horiz-adv-x="1208" 
d="M739 254q0 -76 82 -76h51v-178h-534v178h51q43 0 61.5 18.5t18.5 57.5v893h-160q-43 0 -61.5 -17.5t-18.5 -58.5v-76h-194v330h1139v-330h-195v76q0 41 -18.5 58.5t-61.5 17.5h-160v-893zM215 1829h246l143 -246l144 246h247l-266 -395h-246z" />
    <glyph glyph-name="tcaron" unicode="&#x165;" horiz-adv-x="927" 
d="M459 289q0 -146 127 -146q78 0 121 37v88h217v-172q-127 -127 -335 -127q-399 0 -399 340v496h-155v178h155v211l269 80v-291h280v-178h-280v-516zM676 1548h289l-134 -438h-221z" />
    <glyph glyph-name="Tbar" unicode="&#x166;" horiz-adv-x="1208" 
d="M739 254q0 -76 82 -76h51v-178h-534v178h51q43 0 61.5 18.5t18.5 57.5v317h-225v166h225v410h-160q-43 0 -61.5 -17.5t-18.5 -58.5v-76h-194v330h1139v-330h-195v76q0 41 -18.5 58.5t-61.5 17.5h-160v-410h226v-166h-226v-317z" />
    <glyph glyph-name="tbar" unicode="&#x167;" horiz-adv-x="927" 
d="M190 309v135h-155v166h155v199h-155v174h155v211l273 80v-291h282v-174h-282v-199h282v-166h-282v-155q0 -78 29.5 -112t100.5 -34t114 37v88h227v-172q-152 -127 -352 -127q-392 0 -392 340z" />
    <glyph glyph-name="Utilde" unicode="&#x168;" horiz-adv-x="1363" 
d="M158 379v694q0 39 -17.5 56.5t-60.5 17.5h-45v178h508v-178h-45q-41 0 -59.5 -17.5t-18.5 -56.5v-706q0 -215 262 -215t262 215v706q0 39 -17.5 56.5t-60.5 17.5h-45v178h508v-178h-45q-41 0 -59.5 -17.5t-18.5 -56.5v-694q0 -190 -132 -300t-393 -110t-392 109.5
t-131 300.5zM821 1640q90 0 90 107h191q0 -164 -55.5 -238.5t-178.5 -74.5q-88 0 -182 51t-140 51t-68.5 -23.5t-22.5 -78.5h-193q0 159 58.5 236t183.5 77q55 0 96 -15.5t111 -53.5q71 -38 110 -38z" />
    <glyph glyph-name="utilde" unicode="&#x169;" horiz-adv-x="1222" 
d="M164 311v418q0 39 -17.5 57.5t-58.5 18.5h-53v178h397v-670q0 -90 40 -130t125 -40t137 49.5t52 141.5v395q0 39 -17 57.5t-58 18.5h-54v178h531v-178h-53q-43 0 -61.5 -19.5t-18.5 -60.5v-471q0 -39 17.5 -57.5t57.5 -18.5h58v-178h-305l-13 135q-68 -88 -147.5 -127
t-208.5 -39q-174 0 -262 88t-88 254zM739 1280q90 0 90 106h191q0 -164 -55.5 -238.5t-178.5 -74.5q-86 -1 -181 51q-95 51 -141 52q-91 0 -91 -103h-193q0 160 58.5 236.5t183.5 76.5q55 0 96 -15t110 -53t111 -38z" />
    <glyph glyph-name="Umacron" unicode="&#x16a;" horiz-adv-x="1363" 
d="M158 379v694q0 39 -17.5 56.5t-60.5 17.5h-45v178h508v-178h-45q-41 0 -59.5 -17.5t-18.5 -56.5v-706q0 -215 262 -215t262 215v706q0 39 -17.5 56.5t-60.5 17.5h-45v178h508v-178h-45q-41 0 -59.5 -17.5t-18.5 -56.5v-694q0 -190 -132 -300t-393 -110t-392 109.5
t-131 300.5zM377 1640h612v-165h-612v165z" />
    <glyph glyph-name="umacron" unicode="&#x16b;" horiz-adv-x="1222" 
d="M164 311v418q0 39 -17.5 57.5t-58.5 18.5h-53v178h397v-670q0 -90 40 -130t125 -40t137 49.5t52 141.5v395q0 39 -17 57.5t-58 18.5h-54v178h531v-178h-53q-43 0 -61.5 -19.5t-18.5 -60.5v-471q0 -39 17.5 -57.5t57.5 -18.5h58v-178h-305l-13 135q-68 -88 -147.5 -127
t-208.5 -39q-174 0 -262 88t-88 254zM262 1280h612v-166h-612v166z" />
    <glyph glyph-name="Ubreve" unicode="&#x16c;" horiz-adv-x="1363" 
d="M158 379v694q0 39 -17.5 56.5t-60.5 17.5h-45v178h508v-178h-45q-41 0 -59.5 -17.5t-18.5 -56.5v-706q0 -215 262 -215t262 215v706q0 39 -17.5 56.5t-60.5 17.5h-45v178h508v-178h-45q-41 0 -59.5 -17.5t-18.5 -56.5v-694q0 -190 -132 -300t-393 -110t-392 109.5
t-131 300.5zM336 1739h223q0 -68 32 -105t91 -37q123 0 123 142h223q0 -139 -92 -223t-254 -84t-254 83.5t-92 223.5z" />
    <glyph glyph-name="ubreve" unicode="&#x16d;" horiz-adv-x="1222" 
d="M164 311v418q0 39 -17.5 57.5t-58.5 18.5h-53v178h397v-670q0 -90 40 -130t125 -40t137 49.5t52 141.5v395q0 39 -17 57.5t-58 18.5h-54v178h531v-178h-53q-43 0 -61.5 -19.5t-18.5 -60.5v-471q0 -39 17.5 -57.5t57.5 -18.5h58v-178h-305l-13 135q-68 -88 -147.5 -127
t-208.5 -39q-174 0 -262 88t-88 254zM227 1405h224q0 -68 31.5 -104.5t90.5 -36.5q123 0 123 141h224q0 -139 -92.5 -223t-254 -84t-254 84t-92.5 223z" />
    <glyph glyph-name="Uring" unicode="&#x16e;" horiz-adv-x="1363" 
d="M158 379v694q0 39 -17.5 56.5t-60.5 17.5h-45v178h508v-178h-45q-41 0 -59.5 -17.5t-18.5 -56.5v-706q0 -215 262 -215t262 215v706q0 39 -17.5 56.5t-60.5 17.5h-45v178h508v-178h-45q-41 0 -59.5 -17.5t-18.5 -56.5v-694q0 -190 -132 -300t-393 -110t-392 109.5
t-131 300.5zM778 1669q0 41 -27.5 69.5t-68.5 28.5t-68.5 -28.5t-27.5 -69.5t27.5 -69.5t68.5 -28.5t68.5 28.5t27.5 69.5zM444 1668q0 99 69 169t169 70t170 -70t70 -169t-70 -167.5t-170 -68.5t-169 68.5t-69 167.5z" />
    <glyph glyph-name="uring" unicode="&#x16f;" horiz-adv-x="1222" 
d="M164 311v418q0 39 -17.5 57.5t-58.5 18.5h-53v178h397v-670q0 -90 40 -130t125 -40t137 49.5t52 141.5v395q0 39 -17 57.5t-58 18.5h-54v178h531v-178h-53q-43 0 -61.5 -19.5t-18.5 -60.5v-471q0 -39 17.5 -57.5t57.5 -18.5h58v-178h-305l-13 135q-68 -88 -147.5 -127
t-208.5 -39q-174 0 -262 88t-88 254zM655 1311q0 41 -27.5 69.5t-68.5 28.5t-68.5 -28.5t-27.5 -69.5t27.5 -70t68.5 -29t68.5 29t27.5 70zM322 1310q0 100 68.5 169t168.5 69t170 -69.5t70 -168.5t-70 -168t-170 -69t-168.5 68.5t-68.5 168.5z" />
    <glyph glyph-name="Uhungarumlaut" unicode="&#x170;" horiz-adv-x="1363" 
d="M158 379v694q0 39 -17.5 56.5t-60.5 17.5h-45v178h508v-178h-45q-41 0 -59.5 -17.5t-18.5 -56.5v-706q0 -215 262 -215t262 215v706q0 39 -17.5 56.5t-60.5 17.5h-45v178h508v-178h-45q-41 0 -59.5 -17.5t-18.5 -56.5v-694q0 -190 -132 -300t-393 -110t-392 109.5
t-131 300.5zM909 1827h316l-254 -395h-240zM469 1827h311l-250 -395h-241z" />
    <glyph glyph-name="uhungarumlaut" unicode="&#x171;" horiz-adv-x="1222" 
d="M164 311v418q0 39 -17.5 57.5t-58.5 18.5h-53v178h397v-670q0 -90 40 -130t125 -40t137 49.5t52 141.5v395q0 39 -17 57.5t-58 18.5h-54v178h531v-178h-53q-43 0 -61.5 -19.5t-18.5 -60.5v-471q0 -39 17.5 -57.5t57.5 -18.5h58v-178h-305l-13 135q-68 -88 -147.5 -127
t-208.5 -39q-174 0 -262 88t-88 254zM852 1466h315l-254 -395h-239zM412 1466h311l-250 -395h-242z" />
    <glyph glyph-name="Uogonek" unicode="&#x172;" horiz-adv-x="1366" 
d="M504 -222q0 108 78 195q-211 20 -317.5 128t-106.5 278v694q0 39 -17.5 56.5t-60.5 17.5h-45v178h508v-178h-45q-41 0 -59.5 -17.5t-18.5 -56.5v-706q0 -215 262 -215t262 215v706q0 39 -17.5 56.5t-60.5 17.5h-45v178h508v-178h-45q-41 0 -59.5 -17.5t-18.5 -56.5v-694
q0 -166 -101 -272.5t-302 -131.5q-70 -63 -70 -147t70 -84q39 0 82 16v-151q-41 -27 -80 -35t-114 -8t-131 52t-56 160z" />
    <glyph glyph-name="uogonek" unicode="&#x173;" horiz-adv-x="1222" 
d="M1006 -168q0 -88 69 -88q37 0 80 16v-151q-63 -45 -161 -45t-158 51t-60 137q0 159 107 248l-13 135q-68 -88 -147.5 -127t-208.5 -39q-174 0 -262 88t-88 254v418q0 39 -17.5 57.5t-58.5 18.5h-53v178h397v-670q0 -90 40 -130t125 -40t137 49.5t52 141.5v395
q0 39 -17 57.5t-58 18.5h-54v178h531v-178h-53q-43 0 -61.5 -19.5t-18.5 -60.5v-471q0 -39 17.5 -57.5t57.5 -18.5h58v-178h-82q-100 -80 -100 -168z" />
    <glyph glyph-name="Wcircumflex" unicode="&#x174;" horiz-adv-x="1767" 
d="M88 1147h-33v178h355l178 -852l194 629h201l197 -629l180 852h352v-178h-35q-63 0 -89.5 -18.5t-39.5 -71.5l-233 -1057h-219l-213 651l-209 -651h-221l-236 1057q-12 53 -38.5 71.5t-90.5 18.5zM762 1829h246l266 -395h-248l-143 245l-144 -245h-245z" />
    <glyph glyph-name="wcircumflex" unicode="&#x175;" horiz-adv-x="1562" 
d="M84 805h-49v178h323l152 -657l176 569h188l177 -569l155 657h322v-178h-49q-43 0 -64.5 -13.5t-30.5 -50.5l-180 -741h-248l-174 561l-178 -561h-246l-180 741q-8 37 -29.5 50.5t-64.5 13.5zM662 1466h245l267 -395h-248l-144 246l-143 -246h-246z" />
    <glyph glyph-name="Ycircumflex" unicode="&#x176;" horiz-adv-x="1370" 
d="M819 254q0 -76 82 -76h51v-178h-534v178h51q80 0 80 78v233l-311 574q-27 49 -54.5 66.5t-81.5 17.5h-47v178h496v-178h-29q-35 0 -35 -23q0 -16 17 -49l182 -366l180 366q16 33 17 49q0 23 -35 23h-29v178h496v-178h-47q-53 0 -81 -17.5t-54 -66.5l-314 -574v-235z
M565 1829h246l266 -395h-248l-143 245l-143 -245h-246z" />
    <glyph glyph-name="ycircumflex" unicode="&#x177;" horiz-adv-x="1177" 
d="M645 -410q-266 0 -418 144v153h232v-71q56 -52 178 -52q188 0 188 222v110q-111 -86 -279 -86t-274 93.5t-106 261.5v364q0 76 -78 76h-53v178h403v-629q0 -170 174 -170q90 0 142.5 51.5t52.5 147.5v346q0 76 -78 76h-53v178h405v-950q0 -201 -117.5 -322t-318.5 -121z
M465 1466h246l266 -395h-248l-143 246l-144 -246h-245z" />
    <glyph glyph-name="Ydieresis" unicode="&#x178;" horiz-adv-x="1370" 
d="M819 254q0 -76 82 -76h51v-178h-534v178h51q80 0 80 78v233l-311 574q-27 49 -54.5 66.5t-81.5 17.5h-47v178h496v-178h-29q-35 0 -35 -23q0 -16 17 -49l182 -366l180 366q16 33 17 49q0 23 -35 23h-29v178h496v-178h-47q-53 0 -81 -17.5t-54 -66.5l-314 -574v-235z
M809 1696h215v-223h-215v223zM348 1696h213v-223h-213v223z" />
    <glyph glyph-name="Zacute" unicode="&#x179;" horiz-adv-x="1157" 
d="M399 1147q-43 0 -61.5 -17.5t-18.5 -58.5v-35h-245v289h995v-145l-692 -1002h399q43 0 61.5 18.5t18.5 59.5v33h246v-289h-1047v147l707 1000h-363zM600 1800h303l-231 -368h-230z" />
    <glyph glyph-name="zacute" unicode="&#x17a;" horiz-adv-x="1028" 
d="M719 180q82 0 82 76v35h172v-291h-918v131l568 672h-299q-80 0 -80 -76v-37h-172v293h880v-133l-565 -670h332zM549 1442h303l-231 -369h-230z" />
    <glyph glyph-name="Zdotaccent" unicode="&#x17b;" horiz-adv-x="1157" 
d="M399 1147q-43 0 -61.5 -17.5t-18.5 -58.5v-35h-245v289h995v-145l-692 -1002h399q43 0 61.5 18.5t18.5 59.5v33h246v-289h-1047v147l707 1000h-363zM500 1671h213v-223h-213v223z" />
    <glyph glyph-name="zdotaccent" unicode="&#x17c;" horiz-adv-x="1028" 
d="M719 180q82 0 82 76v35h172v-291h-918v131l568 672h-299q-80 0 -80 -76v-37h-172v293h880v-133l-565 -670h332zM430 1337h213v-223h-213v223z" />
    <glyph glyph-name="Zcaron" unicode="&#x17d;" horiz-adv-x="1157" 
d="M399 1147q-43 0 -61.5 -17.5t-18.5 -58.5v-35h-245v289h995v-145l-692 -1002h399q43 0 61.5 18.5t18.5 59.5v33h246v-289h-1047v147l707 1000h-363zM211 1829h246l143 -246l143 246h248l-266 -395h-246z" />
    <glyph glyph-name="zcaron" unicode="&#x17e;" horiz-adv-x="1028" 
d="M719 180q82 0 82 76v35h172v-291h-918v131l568 672h-299q-80 0 -80 -76v-37h-172v293h880v-133l-565 -670h332zM147 1466h246l144 -245l143 245h248l-266 -395h-246z" />
    <glyph glyph-name="uni018F" unicode="&#x18f;" horiz-adv-x="1390" 
d="M1069 578h-735q0 -205 90 -316.5t276 -111.5t277.5 117.5t91.5 310.5zM676 1356q297 0 478 -167t181 -511t-161.5 -526.5t-481.5 -182.5q-211 0 -354 83t-213 229.5t-70 334.5v146h1014q0 414 -393 414q-188 0 -301 -54v-139h-277v207q222 166 578 166z" />
    <glyph glyph-name="florin" unicode="&#x192;" horiz-adv-x="1257" 
d="M0 -152q74 0 110.5 35t53.5 109l174 813h-156l39 178h154l10 57q31 174 143.5 260t323.5 86t330 -112l-39 -178h-219l18 82q-41 35 -106 34q-147 0 -172 -143l-15 -86h283l-39 -178h-283l-168 -785q-37 -172 -137 -259t-317 -87t-330 113l39 178h217l-18 -84
q30 -33 104 -33z" />
    <glyph glyph-name="Ohorn" unicode="&#x1a0;" horiz-adv-x="1474" 
d="M1034 660q0 278 -84 396t-270 118q-127 0 -242.5 -75t-115.5 -442q0 -274 85 -389.5t272 -115.5t271 115t84 393zM1491 1331q0 -251 -250 -303q61 -150 62 -371q0 -346 -154.5 -517t-470.5 -171t-469.5 171t-153.5 519t149.5 522.5t463.5 174.5t469 -162q59 18 75.5 48
t16.5 91v78h262v-80z" />
    <glyph glyph-name="ohorn" unicode="&#x1a1;" horiz-adv-x="1280" 
d="M821 490q0 175 -60.5 258t-189.5 83t-189 -82.5t-60 -258.5t60 -257t189 -81t189.5 81.5t60.5 256.5zM1296 1022q0 -249 -243 -301q35 -96 34 -232q0 -250 -132 -385t-384 -135t-384 135.5t-132 385.5t131 387t379 137t379 -125q51 10 71.5 42t20.5 93v78h260v-80z" />
    <glyph glyph-name="Uhorn" unicode="&#x1af;" horiz-adv-x="1546" 
d="M158 379v694q0 39 -17.5 56.5t-60.5 17.5h-45v178h508v-178h-45q-41 0 -59.5 -17.5t-18.5 -56.5v-706q0 -215 261 -215t261 215v706q0 39 -17.5 56.5t-60.5 17.5h-45v178h385v-125q57 6 78 37t21 96v78h260v-80q0 -145 -84 -227t-275 -94v-631q0 -190 -131 -300
t-392 -110t-392 109.5t-131 300.5z" />
    <glyph glyph-name="uhorn" unicode="&#x1b0;" horiz-adv-x="1384" 
d="M164 311v418q0 39 -17.5 57.5t-58.5 18.5h-53v178h397v-670q0 -90 40 -130t125 -40t137 49.5t52 141.5v395q0 39 -17 57.5t-58 18.5h-54v178h398v-92q53 8 70.5 39t17.5 94v78h258v-80q0 -143 -81 -225t-265 -97v-446q0 -39 17.5 -57.5t57.5 -18.5h58v-178h-305l-13 135
q-68 -88 -147.5 -127t-208.5 -39q-174 0 -262 88t-88 254z" />
    <glyph glyph-name="uni01CD" unicode="&#x1cd;" horiz-adv-x="1468" 
d="M877 551l-140 424l-143 -424h283zM55 178h60q49 0 73.5 15.5t38.5 58.5l379 1073h260l373 -1073q14 -43 40 -58.5t77 -15.5h57v-178h-512v178h94l-73 225h-373l-76 -225h94v-178h-512v178zM348 1827h246l143 -246l144 246h247l-266 -395h-246z" />
    <glyph glyph-name="uni01CE" unicode="&#x1ce;" horiz-adv-x="1075" 
d="M666 330v84l-228 -17q-86 -6 -118.5 -35.5t-32.5 -97.5q0 -121 153 -121q107 0 166.5 47.5t59.5 139.5zM936 254q0 -76 65 -76h39v-178h-254l-26 123q-72 -86 -156 -120t-240 -34t-242.5 71.5t-86.5 213.5q0 276 379 297l252 16v121q0 78 -35 110.5t-123 32.5t-154 -36
v-80h-231v188q178 111 396 111t317.5 -94.5t99.5 -257.5v-408zM145 1466h246l144 -245l143 245h248l-267 -395h-245z" />
    <glyph glyph-name="uni01CF" unicode="&#x1cf;" horiz-adv-x="641" 
d="M55 178h54q43 0 61 19.5t18 60.5v813q0 39 -18 57.5t-61 18.5h-54v178h531v-178h-54q-41 0 -58 -18.5t-17 -57.5v-817q0 -39 17.5 -57.5t57.5 -18.5h54v-178h-531v178zM-76 1829h246l143 -246l144 246h248l-267 -395h-245z" />
    <glyph glyph-name="uni01D0" unicode="&#x1d0;" horiz-adv-x="600" 
d="M35 178h53q43 0 61.5 19.5t18.5 60.5v461q0 45 -15.5 65.5t-60.5 20.5h-57v178h401v-729q0 -39 17.5 -57.5t58.5 -18.5h53v-178h-530v178zM-117 1448h246l143 -246l144 246h248l-267 -395h-245z" />
    <glyph glyph-name="uni01D1" unicode="&#x1d1;" horiz-adv-x="1357" 
d="M1036 660q0 276 -85 395t-271 119q-127 0 -242.5 -75t-115.5 -442q0 -274 85 -389.5t272 -115.5t272 116t85 392zM55 659q0 348 149.5 522.5t473.5 174.5t474.5 -174t150.5 -522t-154.5 -519.5t-470.5 -171.5t-469.5 171t-153.5 519zM289 1829h246l143 -246l143 246h248
l-266 -395h-246z" />
    <glyph glyph-name="uni01D2" unicode="&#x1d2;" horiz-adv-x="1142" 
d="M821 490q0 175 -60.5 258t-189.5 83t-189 -82.5t-60 -258.5t60 -257t189 -81t189.5 81.5t60.5 256.5zM55 490q0 250 131 387t386 137t385 -136.5t130 -387.5t-132 -386t-384 -135t-384 135.5t-132 385.5zM182 1466h246l143 -245l144 245h248l-267 -395h-245z" />
    <glyph glyph-name="uni01D3" unicode="&#x1d3;" horiz-adv-x="1363" 
d="M158 379v694q0 39 -17.5 56.5t-60.5 17.5h-45v178h508v-178h-45q-41 0 -59.5 -17.5t-18.5 -56.5v-706q0 -215 262 -215t262 215v706q0 39 -17.5 56.5t-60.5 17.5h-45v178h508v-178h-45q-41 0 -59.5 -17.5t-18.5 -56.5v-694q0 -190 -132 -300t-393 -110t-392 109.5
t-131 300.5zM293 1829h246l143 -246l143 246h248l-266 -395h-246z" />
    <glyph glyph-name="uni01D4" unicode="&#x1d4;" horiz-adv-x="1222" 
d="M164 311v418q0 39 -17.5 57.5t-58.5 18.5h-53v178h397v-670q0 -90 40 -130t125 -40t137 49.5t52 141.5v395q0 39 -17 57.5t-58 18.5h-54v178h531v-178h-53q-43 0 -61.5 -19.5t-18.5 -60.5v-471q0 -39 17.5 -57.5t57.5 -18.5h58v-178h-305l-13 135q-68 -88 -147.5 -127
t-208.5 -39q-174 0 -262 88t-88 254zM186 1466h246l143 -245l144 245h248l-267 -395h-245z" />
    <glyph glyph-name="uni01D5" unicode="&#x1d5;" horiz-adv-x="1363" 
d="M158 379v694q0 39 -17.5 56.5t-60.5 17.5h-45v178h508v-178h-45q-41 0 -59.5 -17.5t-18.5 -56.5v-706q0 -215 262 -215t262 215v706q0 39 -17.5 56.5t-60.5 17.5h-45v178h508v-178h-45q-41 0 -59.5 -17.5t-18.5 -56.5v-694q0 -190 -132 -300t-393 -110t-392 109.5
t-131 300.5zM805 1681h215v-223h-215v223zM344 1681h213v-223h-213v223zM377 1960h612v-166h-612v166z" />
    <glyph glyph-name="uni01D6" unicode="&#x1d6;" horiz-adv-x="1222" 
d="M164 311v418q0 39 -17.5 57.5t-58.5 18.5h-53v178h397v-670q0 -90 40 -130t125 -40t137 49.5t52 141.5v395q0 39 -17 57.5t-58 18.5h-54v178h531v-178h-53q-43 0 -61.5 -19.5t-18.5 -60.5v-471q0 -39 17.5 -57.5t57.5 -18.5h58v-178h-305l-13 135q-68 -88 -147.5 -127
t-208.5 -39q-174 0 -262 88t-88 254zM702 1327h216v-223h-216v223zM242 1327h213v-223h-213v223zM274 1608h613v-166h-613v166z" />
    <glyph glyph-name="uni01D7" unicode="&#x1d7;" horiz-adv-x="1363" 
d="M158 379v694q0 39 -17.5 56.5t-60.5 17.5h-45v178h508v-178h-45q-41 0 -59.5 -17.5t-18.5 -56.5v-706q0 -215 262 -215t262 215v706q0 39 -17.5 56.5t-60.5 17.5h-45v178h508v-178h-45q-41 0 -59.5 -17.5t-18.5 -56.5v-694q0 -190 -132 -300t-393 -110t-392 109.5
t-131 300.5zM797 1690h211v-224h-211v224zM332 1690h207v-224h-207v224zM709 2079h256l-205 -291h-178z" />
    <glyph glyph-name="uni01D8" unicode="&#x1d8;" horiz-adv-x="1222" 
d="M164 311v418q0 39 -17.5 57.5t-58.5 18.5h-53v178h397v-670q0 -90 40 -130t125 -40t137 49.5t52 141.5v395q0 39 -17 57.5t-58 18.5h-54v178h531v-178h-53q-43 0 -61.5 -19.5t-18.5 -60.5v-471q0 -39 17.5 -57.5t57.5 -18.5h58v-178h-305l-13 135q-68 -88 -147.5 -127
t-208.5 -39q-174 0 -262 88t-88 254zM696 1331h211v-223h-211v223zM231 1331h207v-223h-207v223zM608 1720h256l-205 -290h-178z" />
    <glyph glyph-name="uni01D9" unicode="&#x1d9;" horiz-adv-x="1363" 
d="M158 379v694q0 39 -17.5 56.5t-60.5 17.5h-45v178h508v-178h-45q-41 0 -59.5 -17.5t-18.5 -56.5v-706q0 -215 262 -215t262 215v706q0 39 -17.5 56.5t-60.5 17.5h-45v178h508v-178h-45q-41 0 -59.5 -17.5t-18.5 -56.5v-694q0 -190 -132 -300t-393 -110t-392 109.5
t-131 300.5zM811 1690h207v-224h-207v224zM342 1690h211v-224h-211v224zM338 2040h231l113 -160l119 160h227l-227 -283h-238z" />
    <glyph glyph-name="uni01DA" unicode="&#x1da;" horiz-adv-x="1222" 
d="M164 311v418q0 39 -17.5 57.5t-58.5 18.5h-53v178h397v-670q0 -90 40 -130t125 -40t137 49.5t52 141.5v395q0 39 -17 57.5t-58 18.5h-54v178h531v-178h-53q-43 0 -61.5 -19.5t-18.5 -60.5v-471q0 -39 17.5 -57.5t57.5 -18.5h58v-178h-305l-13 135q-68 -88 -147.5 -127
t-208.5 -39q-174 0 -262 88t-88 254zM707 1331h206v-223h-206v223zM238 1331h211v-223h-211v223zM233 1681h232l113 -159l118 159h228l-228 -282h-237z" />
    <glyph glyph-name="uni01DB" unicode="&#x1db;" horiz-adv-x="1363" 
d="M158 379v694q0 39 -17.5 56.5t-60.5 17.5h-45v178h508v-178h-45q-41 0 -59.5 -17.5t-18.5 -56.5v-706q0 -215 262 -215t262 215v706q0 39 -17.5 56.5t-60.5 17.5h-45v178h508v-178h-45q-41 0 -59.5 -17.5t-18.5 -56.5v-694q0 -190 -132 -300t-393 -110t-392 109.5
t-131 300.5zM815 1690h207v-224h-207v224zM346 1690h211v-224h-211v224zM389 2079h256l127 -291h-178z" />
    <glyph glyph-name="uni01DC" unicode="&#x1dc;" horiz-adv-x="1222" 
d="M164 311v418q0 39 -17.5 57.5t-58.5 18.5h-53v178h397v-670q0 -90 40 -130t125 -40t137 49.5t52 141.5v395q0 39 -17 57.5t-58 18.5h-54v178h531v-178h-53q-43 0 -61.5 -19.5t-18.5 -60.5v-471q0 -39 17.5 -57.5t57.5 -18.5h58v-178h-305l-13 135q-68 -88 -147.5 -127
t-208.5 -39q-174 0 -262 88t-88 254zM700 1331h207v-223h-207v223zM231 1331h211v-223h-211v223zM274 1720h256l127 -290h-178z" />
    <glyph glyph-name="Gcaron" unicode="&#x1e6;" horiz-adv-x="1280" 
d="M55 654q0 204 72 363t220.5 249t369.5 90q150 0 254 -29t205 -92v-234h-269v142q-76 31 -176 31q-199 0 -304 -137.5t-105 -379.5t109.5 -373.5t307.5 -131.5q123 0 215 32v351h-268v180h539v-609q-194 -137 -498 -137q-215 0 -365.5 87t-228.5 240.5t-78 357.5z
M307 1829h246l143 -246l144 246h247l-266 -395h-246z" />
    <glyph glyph-name="gcaron" unicode="&#x1e7;" horiz-adv-x="1214" 
d="M805 455v84q0 137 -61.5 225t-184.5 88t-181.5 -84t-58.5 -265t58.5 -265t182.5 -84t184.5 79.5t60.5 221.5zM639 -227q178 0 178 184v158q-57 -66 -131 -95.5t-182 -29.5q-213 0 -331 131t-118 385q0 162 59.5 276.5t165 173t234.5 58.5t206 -40t138 -130l19 139h303
v-172h-35q-39 0 -52.5 -19.5t-13.5 -66.5v-723q0 -188 -112.5 -300t-319.5 -112q-256 1 -414 140v161h232v-84q60 -34 174 -34zM215 1466h246l143 -245l144 245h247l-266 -395h-246z" />
    <glyph glyph-name="Aringacute" unicode="&#x1fa;" horiz-adv-x="1468" 
d="M877 551l-140 424l-143 -424h283zM641 1472.5q0 -40.5 27.5 -69.5t68.5 -29t69 29t28 69.5t-28 69.5t-69 29t-68.5 -29t-27.5 -69.5zM977 1462q0 -109 -96 -180l358 -1030q14 -43 40 -58.5t77 -15.5h57v-178h-512v178h94l-73 225h-373l-76 -225h94v-178h-512v178h60
q49 0 73.5 15.5t38.5 58.5l365 1032q-92 71 -92 179t68.5 177.5t169 69.5t170 -69.5t69.5 -178.5zM825 1763h-229l158 369h303z" />
    <glyph glyph-name="aringacute" unicode="&#x1fb;" horiz-adv-x="1075" 
d="M666 330v84l-228 -17q-86 -6 -118.5 -35.5t-32.5 -97.5q0 -121 153 -121q107 0 166.5 47.5t59.5 139.5zM936 254q0 -76 65 -76h39v-178h-254l-26 123q-72 -86 -156 -120t-240 -34t-242.5 71.5t-86.5 213.5q0 276 379 297l252 16v121q0 78 -35 110.5t-123 32.5t-154 -36
v-80h-231v188q178 111 396 111t317.5 -94.5t99.5 -257.5v-408zM610 1307q0 41 -27.5 69.5t-68.5 28.5t-68.5 -28.5t-27.5 -69.5t27.5 -70t68.5 -29t68.5 29t27.5 70zM276 1306q0 100 69 169t169 69t170 -69.5t70 -168.5t-70 -168t-170 -69t-169 68.5t-69 168.5zM522 1888
h303l-231 -295h-229z" />
    <glyph glyph-name="AEacute" unicode="&#x1fc;" horiz-adv-x="1703" 
d="M795 565v582h-7l-186 -582h193zM1323 178q80 0 80 78v37h246v-293h-951v178h31q41 0 53.5 17.5t12.5 62.5v145h-242l-80 -225h94v-178h-512v178h60q49 0 72.5 15.5t39.5 58.5l396 1073h1026v-291h-246v35q0 51 -30 64.5t-107 13.5h-201v-393h295v-181h-295v-395h258z
M967 1800h303l-232 -368h-229z" />
    <glyph glyph-name="aeacute" unicode="&#x1fd;" horiz-adv-x="1703" 
d="M666 330v84l-228 -17q-86 -6 -118.5 -35.5t-32.5 -97.5q0 -121 153 -121q107 0 166.5 47.5t59.5 139.5zM1382 582q0 249 -223 249q-213 0 -223 -227v-22h446zM1174 1014q227 0 351 -132t124 -358v-96h-713v-14q2 -139 61.5 -200.5t184.5 -61.5t200 32v72h232v-156
q-156 -131 -424 -131t-373 160q-74 -86 -178 -123t-267 -37t-250 71.5t-87 213.5q0 276 379 297l252 16v121q0 78 -35 110.5t-123 32.5t-154 -36v-80h-231v188q178 111 390 111t304 -113q130 113 357 113zM858 1442h303l-231 -369h-230z" />
    <glyph glyph-name="Oslashacute" unicode="&#x1fe;" horiz-adv-x="1357" 
d="M1036 657q0 357 -149 461l-350 -946q51 -20 143 -20q186 0 271 116.5t85 388.5zM322 670q0 -176 29.5 -278.5t92.5 -160.5l347 930q-49 12 -111 13q-127 0 -205 -50.5t-115.5 -164t-37.5 -289.5zM1303 657q0 -346 -154 -517t-469 -171q-113 0 -209 23l-29 -80h-114
l41 115q-313 135 -314 630q0 350 149.5 524.5t475.5 174.5q88 0 174 -17l29 72h114l-39 -100q345 -129 345 -654zM702 1798h306l-234 -368h-229z" />
    <glyph glyph-name="oslashacute" unicode="&#x1ff;" horiz-adv-x="1142" 
d="M821 500q0 186 -90 266l-221 -608q27 -6 61 -6q129 0 189.5 81t60.5 267zM571 831q-129 0 -189 -82.5t-60 -269.5t94 -268l223 612q-41 8 -68 8zM1087 489q0 -250 -132 -385t-384 -135q-57 0 -125 11l-30 -86h-115l43 110q-141 51 -215 176t-74 309q0 252 131 388.5
t385 136.5q51 0 134 -13l32 95h113l-43 -121q280 -107 280 -486zM567 1436h305l-231 -369h-229z" />
    <glyph glyph-name="Scommaaccent" unicode="&#x218;" horiz-adv-x="1110" 
d="M418 -100h327l-204 -418h-254zM55 348h273v-141q98 -55 243 -55q217 0 217 174q0 106 -88 151t-220 99t-273 140t-141 271q0 186 140 277.5t359 91.5q270 0 465 -156v-203h-274v131q-78 45 -205 46q-219 0 -219 -170q0 -59 41 -103.5t97 -72.5t188 -82t216 -101
t132.5 -118t48.5 -183t-56.5 -195t-166 -131.5t-263 -48.5t-286.5 43t-228 117v219z" />
    <glyph glyph-name="scommaaccent" unicode="&#x219;" horiz-adv-x="964" 
d="M338 -100h328l-205 -418h-254zM485 -31q-263 0 -430 125v172h248v-78q57 -36 157 -36t141.5 20.5t41.5 70.5t-34 74.5t-134 63.5l-94 37q-109 45 -212 105.5t-103 204.5t108.5 215t296.5 71q255 0 416 -123v-172h-240v74q-53 39 -140 39t-131 -22t-44 -75t49 -82.5
t156 -68.5l65 -25q104 -39 205.5 -99.5t101.5 -204.5q0 -286 -424 -286z" />
    <glyph glyph-name="uni021A" unicode="&#x21a;" horiz-adv-x="1208" 
d="M469 -100h289l-133 -439h-222zM739 254q0 -76 82 -76h51v-178h-534v178h51q43 0 61.5 18.5t18.5 57.5v893h-160q-43 0 -61.5 -17.5t-18.5 -58.5v-76h-194v330h1139v-330h-195v76q0 41 -18.5 58.5t-61.5 17.5h-160v-893z" />
    <glyph glyph-name="uni021B" unicode="&#x21b;" horiz-adv-x="917" 
d="M434 -100h289l-133 -439h-221zM459 289q0 -146 127 -146q78 0 121 37v88h217v-172q-127 -127 -335 -127q-399 0 -399 340v496h-155v178h155v211l269 80v-291h280v-178h-280v-516z" />
    <glyph glyph-name="uni0237" unicode="&#x237;" horiz-adv-x="794" 
d="M698 10q0 -356 -397 -356q-232 0 -369 119v188h224v-84q47 -41 125 -41t113.5 32t35.5 109v742q0 45 -15.5 65.5t-60.5 20.5h-57v178h401v-973z" />
    <glyph glyph-name="uni0251" unicode="&#x251;" horiz-adv-x="1216" 
d="M805 442v101q0 141 -61.5 221t-184.5 80t-181.5 -91t-58.5 -275t56.5 -264.5t177.5 -80.5t186.5 88t65.5 221zM55 480q0 251 116 392.5t333 141.5q121 0 198.5 -31t133.5 -96l20 96h223v-735q0 -45 15.5 -61.5t54.5 -16.5h33v-170h-308l-16 137q-66 -86 -151.5 -126
t-212.5 -40q-205 0 -322 129t-117 380z" />
    <glyph glyph-name="uni0259" unicode="&#x259;" horiz-adv-x="1107" 
d="M322 401q0 -249 223 -249q117 0 179 64.5t62 184.5h-464zM786 555q0 276 -194.5 276t-269.5 -32v-72h-232v156q156 131 419 131t403.5 -130t140.5 -389t-133.5 -392.5t-375.5 -133.5t-365.5 132t-123.5 358v96h731z" />
    <glyph glyph-name="uni02BB" unicode="&#x2bb;" horiz-adv-x="632" 
d="M299 1323h258l-151 -473h-330z" />
    <glyph glyph-name="uni02BC" unicode="&#x2bc;" horiz-adv-x="632" 
d="M227 1323h330l-223 -473h-258z" />
    <glyph glyph-name="uni02BE" unicode="&#x2be;" 
d="M-213 1118q80 0 112.5 26t32.5 90t-32.5 91t-112.5 27v155q348 0 348 -272t-348 -272v155z" />
    <glyph glyph-name="uni02BF" unicode="&#x2bf;" 
d="M-213 1235q0 272 348 272v-155q-80 0 -112.5 -27t-32.5 -91t32.5 -90t112.5 -26v-155q-348 0 -348 272z" />
    <glyph glyph-name="circumflex" unicode="&#x2c6;" horiz-adv-x="987" 
d="M360 1501h269l282 -424h-295l-124 209l-125 -209h-291z" />
    <glyph glyph-name="caron" unicode="&#x2c7;" horiz-adv-x="929" 
d="M76 1464h243l146 -245l141 245h248l-266 -395h-246z" />
    <glyph glyph-name="uni02C8" unicode="&#x2c8;" 
d="M-135 1489h268v-383h-268v383z" />
    <glyph glyph-name="uni02C9" unicode="&#x2c9;" horiz-adv-x="1200" 
d="M295 1280h612v-166h-612v166z" />
    <glyph glyph-name="uni02CA" unicode="&#x2ca;" 
d="M10 1436h305l-231 -369h-231z" />
    <glyph glyph-name="uni02CB" unicode="&#x2cb;" 
d="M-190 1436h305l157 -369h-231z" />
    <glyph glyph-name="uni02CC" unicode="&#x2cc;" 
d="M-135 -78h268v-381h-268v381z" />
    <glyph glyph-name="breve" unicode="&#x2d8;" horiz-adv-x="841" 
d="M299 1419q0 -141 122 -141t122 141h223q0 -139 -92 -223t-253 -84t-253 84t-92 223h223z" />
    <glyph glyph-name="dotaccent" unicode="&#x2d9;" horiz-adv-x="366" 
d="M76 1337h215v-223h-215v223z" />
    <glyph glyph-name="ring" unicode="&#x2da;" horiz-adv-x="628" 
d="M410 1272q0 41 -28 69.5t-69 28.5t-68.5 -28.5t-27.5 -69.5t27.5 -69.5t68.5 -28.5t69 28.5t28 69.5zM76 1270q0 100 68.5 169.5t169 69.5t170 -69.5t69.5 -168.5t-69.5 -168t-170 -69t-169 68t-68.5 168z" />
    <glyph glyph-name="ogonek" unicode="&#x2db;" horiz-adv-x="530" 
d="M305 -169q0 -87 70 -87q37 0 80 16v-151q-63 -45 -161 -45t-158 51t-60 154q0 142 106 231h224q-101 -82 -101 -169z" />
    <glyph glyph-name="tilde" unicode="&#x2dc;" horiz-adv-x="993" 
d="M358 1214q-90 0 -90 -102h-192q0 160 58.5 236.5t180.5 76.5q87 0 179 -53t140 -53t68.5 24.5t20.5 81.5h195q0 -164 -56.5 -238.5t-181.5 -74.5q-53 0 -95.5 16t-90.5 40t-75.5 35t-60.5 11z" />
    <glyph glyph-name="hungarumlaut" unicode="&#x2dd;" horiz-adv-x="1085" 
d="M698 1477h312l-250 -396h-240zM256 1477h313l-254 -396h-239z" />
    <glyph glyph-name="gravecomb" unicode="&#x300;" 
d="M-903 1436h305l160 -369h-234z" />
    <glyph glyph-name="acutecomb" unicode="&#x301;" 
d="M-702 1436h303l-232 -369h-229z" />
    <glyph glyph-name="uni0302" unicode="&#x302;" 
d="M-121 1436h246l266 -396h-248l-143 246l-143 -246h-246z" />
    <glyph glyph-name="tildecomb" unicode="&#x303;" 
d="M-496 1303q90 0 90 106h191q0 -164 -55.5 -238.5t-178.5 -74.5q-88 0 -182 51t-140 51t-68.5 -23.5t-22.5 -78.5h-193q0 159 58.5 236t183.5 77q55 0 96 -15.5t111 -53.5t110 -37z" />
    <glyph glyph-name="uni0304" unicode="&#x304;" 
d="M-303 1280h612v-166h-612v166z" />
    <glyph glyph-name="uni0306" unicode="&#x306;" 
d="M-346 1403h223q0 -68 32 -104.5t91 -36.5q123 0 123 141h223q0 -139 -92 -223t-254 -84t-254 84t-92 223z" />
    <glyph glyph-name="uni0307" unicode="&#x307;" 
d="M-106 1321h212v-223h-212v223z" />
    <glyph glyph-name="uni0308" unicode="&#x308;" 
d="M125 1346h215v-224h-215v224zM-336 1346h213v-224h-213v224z" />
    <glyph glyph-name="hookabovecomb" unicode="&#x309;" 
d="M-739 1182q117 0 116 80q0 35 -20.5 50t-73.5 15t-92 -18v139q63 25 166 25q250 0 250 -175q0 -127 -127 -165v-84h-219v133z" />
    <glyph glyph-name="uni030A" unicode="&#x30a;" 
d="M96 1280q0 41 -27.5 69.5t-68.5 28.5t-68.5 -28.5t-27.5 -69.5t27.5 -69.5t68.5 -28.5t68.5 28.5t27.5 69.5zM-238 1279q0 99 69 169t169 70t170 -70t70 -169t-70 -168t-170 -69t-169 69t-69 168z" />
    <glyph glyph-name="uni030B" unicode="&#x30b;" 
d="M92 1460h316l-254 -395h-240zM-348 1460h311l-250 -395h-241z" />
    <glyph glyph-name="uni030C" unicode="&#x30c;" 
d="M-389 1448h246l143 -246l143 246h248l-266 -395h-246z" />
    <glyph glyph-name="uni031B" unicode="&#x31b;" 
d="M-285 1161q94 0 130 37t36 119v78h271v-80q0 -156 -101.5 -239t-335.5 -83v168z" />
    <glyph glyph-name="dotbelowcomb" unicode="&#x323;" 
d="M-731 -125h213v-225h-213v225z" />
    <glyph glyph-name="uni0324" unicode="&#x324;" 
d="M125 -125h215v-225h-215v225zM-334 -125h213v-225h-213v225z" />
    <glyph glyph-name="uni0326" unicode="&#x326;" 
d="M-96 -100h327l-204 -418h-254z" />
    <glyph glyph-name="uni0327" unicode="&#x327;" 
d="M229 -266q0 -96 -73.5 -148.5t-199.5 -52.5t-204 31v149q72 -31 148 -30q100 0 100 61q0 49 -39 70.5t-149 21.5l24 164h246l-14 -88q161 -27 161 -178z" />
    <glyph glyph-name="uni0328" unicode="&#x328;" 
d="M20 -169q0 -87 70 -87q37 0 80 16v-151q-62 -45 -160 -45t-158.5 51t-60.5 154q0 143 107 231h223q-101 -82 -101 -169z" />
    <glyph glyph-name="uni032E" unicode="&#x32e;" 
d="M-346 -96h223q0 -68 32 -105t91 -37q123 0 123 142h223q0 -141 -92 -225.5t-254 -84.5t-254 84t-92 226z" />
    <glyph glyph-name="uni0331" unicode="&#x331;" 
d="M-303 -117h612v-166h-612v166z" />
    <glyph glyph-name="uni0394" unicode="&#x394;" horiz-adv-x="1482" 
d="M1116 199l-375 858l-374 -858h749zM1407 0h-1331v193l545 1185h241l545 -1185v-193z" />
    <glyph glyph-name="uni03A9" unicode="&#x3a9;" horiz-adv-x="1646" 
d="M1223 758q0 483 -398 483q-201 0 -300 -125.5t-99 -331.5t74.5 -334t244.5 -237v-213h-669v283h192v-35q0 -41 15.5 -55.5t58.5 -14.5h152q-150 104 -242 249.5t-92 330.5q0 299 164.5 482t498.5 183t500 -183t166 -482q0 -182 -93 -328.5t-243 -251.5h152q41 0 57 15.5
t16 54.5v35h193v-283h-668v213q170 109 245 237t75 308z" />
    <glyph glyph-name="uni03BC" unicode="&#x3bc;" horiz-adv-x="1222" 
d="M870 135q-128 -166 -310 -166q-91 0 -128 13v-408h-268v1155q0 39 -17.5 57.5t-58.5 18.5h-53v178h397v-670q0 -90 40 -130t125 -40t137 49.5t52 141.5v395q0 39 -17 57.5t-58 18.5h-54v178h398v-729q0 -39 17.5 -57.5t57.5 -18.5h58v-178h-305z" />
    <glyph glyph-name="pi" unicode="&#x3c0;" horiz-adv-x="1476" 
d="M1115 -31q-200 0 -286 86t-86 254v496h-272v-547q0 -43 17.5 -61.5t58.5 -18.5h53v-178h-530v178h53q43 0 61.5 19.5t18.5 60.5v547h-168v178h1145v-178h-168v-526q0 -76 24.5 -106t83.5 -30t105 37v88h217v-172q-127 -127 -327 -127z" />
    <glyph glyph-name="uni0E01" unicode="&#xe01;" horiz-adv-x="1177" 
d="M805 733q1 195 -251 195q-132 0 -237 -76v-27l158 -98v-109q-61 -25 -82.5 -63.5t-21.5 -118.5v-436h-277v422q0 90 25.5 147.5t91.5 96.5l-156 92v160q204 196 518 196q252 0 380 -106.5t128 -286.5v-721h-276v733z" />
    <glyph glyph-name="uni0E02" unicode="&#xe02;" horiz-adv-x="1114" 
d="M367 909q0 45 -17.5 61.5t-64.5 16.5t-65.5 -17.5t-18.5 -61.5t18.5 -60.5t65.5 -16.5t64.5 16.5t17.5 61.5zM100 444q0 160 119 271q-90 6 -127 52t-37 148t50.5 150.5t182.5 48.5t182 -45t50 -162v-71q0 -43 -15 -74t-51 -78t-56.5 -93t-20.5 -114v-129
q0 -98 34.5 -145t130.5 -47t135.5 23.5t51.5 63.5t12 105v735h277v-710q0 -403 -459 -403.5t-459 390.5v84z" />
    <glyph glyph-name="uni0E03" unicode="&#xe03;" horiz-adv-x="1138" 
d="M315 928q0 45 -17 61.5t-64.5 16.5t-65.5 -17.5t-18 -61.5t18 -60.5t65.5 -16.5t64.5 16.5t17 61.5zM216 748q-91 0 -136 41t-45 139t39 142t136 44t136 -20.5t57 -73.5l80 63h123v-264q0 -55 -25.5 -101t-76.5 -105.5t-77 -105.5t-26 -99v-60q0 -98 34.5 -145t130.5 -47
t135.5 23.5t52 63.5t12.5 105v735h276v-710q0 -403 -458 -404q-254 0 -356.5 101.5t-102.5 273.5v53q0 76 44 142t112.5 138.5t80 90.5t11.5 31q-66 -51 -157 -51z" />
    <glyph glyph-name="uni0E04" unicode="&#xe04;" horiz-adv-x="1214" 
d="M680 475q0 45 -16.5 60.5t-64.5 15.5t-65.5 -15.5t-17.5 -60.5t18.5 -63.5t65.5 -18.5t63.5 18.5t16.5 63.5zM96 668q0 446 510 446q279 0 395.5 -121t116.5 -325v-668h-276v700q0 113 -51.5 170.5t-181.5 57.5t-183 -57.5t-53 -170.5v-170q63 84 106 116t139 32
t143.5 -44t47.5 -154t-50 -158t-161 -48q-145 0 -174 86l-51 -71v-289h-277v668z" />
    <glyph glyph-name="uni0E05" unicode="&#xe05;" horiz-adv-x="1214" 
d="M680 475q0 45 -16.5 60.5t-64.5 15.5t-65.5 -15.5t-17.5 -60.5t18.5 -63.5t65.5 -18.5t63.5 18.5t16.5 63.5zM1118 811v-811h-276v793q0 82 -13.5 108.5t-56.5 26.5q-68 0 -67 -92v-21h-197v21q0 49 -14.5 70.5t-52.5 21.5t-53 -28t-15 -107v-263q63 84 106 116t139 32
t143.5 -44t47.5 -154t-50 -158t-161 -48q-145 0 -174 86l-51 -71v-289h-277v811q0 150 78 226.5t209 76.5q188 0 223 -125q50 125 236 125q133 0 204.5 -74.5t71.5 -228.5z" />
    <glyph glyph-name="uni0E06" unicode="&#xe06;" horiz-adv-x="1189" 
d="M397 173q0 44 -17.5 60.5t-64.5 16.5t-64.5 -16.5t-17.5 -61.5t17.5 -61.5t64.5 -16.5t64.5 17.5t17.5 61.5zM336 928q0 45 -17.5 61.5t-64.5 16.5t-65.5 -17.5t-18.5 -61.5t18.5 -60.5t65.5 -16.5t64.5 16.5t17.5 61.5zM240 748q-94 0 -139.5 41t-45.5 139t38.5 142
t136.5 44t137 -20.5t57 -73.5l90 63h123v-278q0 -55 -14.5 -96t-43 -96.5t-42 -95.5t-13.5 -93v-62l293 -108v829h277v-1083h-160l-395 145q-6 -92 -54.5 -134t-176.5 -42t-180 49.5t-52 151.5q0 193 182 201v41q0 76 22.5 133t67.5 131t45 112q-59 -40 -153 -40z" />
    <glyph glyph-name="uni0E07" unicode="&#xe07;" horiz-adv-x="1046" 
d="M791 909q0 45 -17.5 61.5t-64.5 16.5t-64.5 -16.5t-17.5 -61.5t17.5 -61.5t64.5 -16.5t64.5 16.5t17.5 61.5zM571 186q103 0 103 90v443q-90 0 -141.5 48t-51.5 148t51.5 149.5t182.5 49.5t183 -54t52 -179v-543q0 -141 -63.5 -239.5t-259.5 -98.5h-342l-271 733h269
l196 -547h92z" />
    <glyph glyph-name="uni0E08" unicode="&#xe08;" horiz-adv-x="1079" 
d="M373 510q0 45 -16.5 61.5t-63.5 16.5t-65.5 -17.5t-18.5 -61.5t18.5 -60.5t64.5 -16.5t63.5 16.5t17.5 61.5zM266 322q-196 0 -196 197q0 99 49 147.5t155 48.5t150.5 -19.5t63 -61.5t36.5 -134l62 -314h32q89 0 89 86v439q0 115 -61.5 166t-212.5 51t-286 -109l-112 150
q176 145 434 145q514 0 514 -395v-402q0 -125 -72.5 -221t-267.5 -96h-266l-64 326q-29 -4 -47 -4z" />
    <glyph glyph-name="uni0E09" unicode="&#xe09;" horiz-adv-x="1181" 
d="M958 184q0 45 -17 62.5t-64.5 17.5t-64.5 -17.5t-17 -62.5t17 -61.5t64.5 -16.5t64.5 16.5t17 61.5zM365 481q0 45 -17.5 61.5t-64.5 16.5t-64.5 -16.5t-17.5 -61.5t17.5 -61.5t64.5 -16.5t64.5 16.5t17.5 61.5zM870 -31q-229 0 -225 162l-156 -131h-239v291
q-90 0 -142.5 48t-52.5 148t51.5 149.5t183.5 49.5t184 -54t52 -179v-193l240 203q43 34 43 96v154q0 215 -289 215q-92 0 -183 -28t-157 -81l-112 150q86 72 214 108.5t263 36.5q274 0 407 -105.5t133 -291.5v-148q0 -68 -24.5 -111.5t-85.5 -86.5q78 -14 110.5 -59.5
t32.5 -145.5t-53 -148.5t-195 -48.5z" />
    <glyph glyph-name="uni0E0A" unicode="&#xe0a;" horiz-adv-x="1116" 
d="M367 909q0 45 -17.5 61.5t-64.5 16.5t-65.5 -17.5t-18.5 -61.5t18.5 -60.5t65.5 -16.5t64.5 16.5t17.5 61.5zM1020 995q0 -190 -139 -237q137 -59 137 -244v-141q0 -403 -459 -403.5t-459 390.5v84q0 160 119 271q-90 6 -127 52t-37 148t50.5 150.5t182.5 48.5t182 -45
t50 -162v-71q0 -43 -15 -74t-51 -78t-56.5 -93t-20.5 -114v-129q0 -98 34.5 -145t130.5 -47t135.5 23.5t51.5 63.5t12 105v189q0 66 -24.5 97.5t-81.5 31.5h-45v190h47q61 0 83.5 29.5t22.5 99.5v129h277v-119z" />
    <glyph glyph-name="uni0E0B" unicode="&#xe0b;" horiz-adv-x="1140" 
d="M315 928q0 45 -17 61.5t-64.5 16.5t-65.5 -17.5t-18 -61.5t18 -60.5t65.5 -16.5t64.5 16.5t17 61.5zM1044 995q0 -191 -139 -237q137 -59 137 -244v-141q0 -403 -458.5 -403.5t-458.5 390.5v37q0 76 44 142t112.5 138.5t80 90.5t11.5 31q-65 -51 -157 -51q-91 0 -136 41
t-45 139t39 142t136 44t136 -20.5t57 -73.5l80 63h123v-264q0 -55 -25.5 -101t-76.5 -105.5t-77 -105.5t-26 -99v-60q0 -98 34.5 -145t130.5 -47t135.5 23.5t52 63.5t12.5 105v189q0 66 -24.5 97.5t-82.5 31.5h-20v190h23q61 0 83.5 29.5t22.5 99.5v129h276v-119z" />
    <glyph glyph-name="uni0E0C" unicode="&#xe0c;" horiz-adv-x="1689" 
d="M918 170q0 45 -17.5 61.5t-65 16.5t-64.5 -16.5t-17 -61.5t17 -61.5t64.5 -16.5t65 16.5t17.5 61.5zM416 174q0 45 -17.5 61.5t-64.5 16.5t-64.5 -16.5t-17.5 -61.5t17.5 -61.5t64.5 -16.5t64.5 16.5t17.5 61.5zM94 203v219q0 90 25.5 147.5t91.5 96.5l-156 92v160
q207 197 504 196q250 0 369 -105.5t119 -287.5v-367l270 -108v837h276v-1083h-198l-334 141q-6 -88 -59.5 -130t-174.5 -42t-171 49.5t-50 151.5q0 190 172 197v366q0 195 -221 195q-135 0 -240 -76v-27l158 -98v-109q-63 -23 -83.5 -59.5t-20.5 -112.5v-81q90 0 140 -47.5
t50 -148.5t-51 -150.5t-182 -49.5t-182.5 54.5t-51.5 179.5z" />
    <glyph glyph-name="uni0E0D" unicode="&#xe0d;" horiz-adv-x="1808" 
d="M1087 -151q0 44 -16 60.5t-63 16.5t-64.5 -16t-17.5 -60t17.5 -60.5t63.5 -16.5t63 16t17 60zM1737 -252q-140 -182 -500 -182q-174 0 -310 64.5t-136 195.5t50.5 179t164.5 48t165.5 -41.5t55.5 -115.5t-27 -115q31 -14 103 -14q193 0 315 129zM416 174q0 45 -17.5 61.5
t-64.5 16.5t-64.5 -16.5t-17.5 -61.5t17.5 -61.5t64.5 -16.5t64.5 16.5t17.5 61.5zM94 203v219q0 90 25.5 147.5t91.5 96.5l-156 92v160q207 197 504 196q250 0 369 -105.5t119 -287.5v-252q0 -106 43 -156.5t151.5 -50.5t151.5 50t43 157v614h276v-600
q0 -182 -107.5 -294.5t-362.5 -112.5t-359.5 104.5t-104.5 304.5v248q0 195 -221 195q-135 0 -240 -76v-27l158 -98v-109q-63 -23 -83.5 -59.5t-20.5 -112.5v-81q90 0 140 -47.5t50 -148.5t-51 -150.5t-182 -49.5t-182.5 54.5t-51.5 179.5z" />
    <glyph glyph-name="uni0E0E" unicode="&#xe0e;" horiz-adv-x="1259" 
d="M365 174q0 45 -17.5 61.5t-64.5 16.5t-64.5 -16.5t-17.5 -61.5t17.5 -61.5t64.5 -16.5t64.5 16.5t17.5 61.5zM887 733q1 195 -251 195q-132 0 -237 -76v-27l189 -110v-111q-41 -25 -52.5 -56.5t-11.5 -107.5v-237q0 -125 -52 -179.5t-183 -54.5t-182.5 49.5t-51.5 149.5
t53.5 148.5t143.5 48.5v106q0 63 13.5 99t56.5 79l-185 109v160q204 196 518 196q252 0 380 -106.5t128 -286.5v-1174h-258q-27 55 -84 89t-141 34t-129 -26.5t-62 -96.5l-210 23q33 287 344 287q164 0 264 -72v948z" />
    <glyph glyph-name="uni0E0F" unicode="&#xe0f;" horiz-adv-x="1259" 
d="M365 174q0 45 -17.5 61.5t-64.5 16.5t-64.5 -16.5t-17.5 -61.5t17.5 -61.5t64.5 -16.5t64.5 16.5t17.5 61.5zM887 733q1 195 -251 195q-132 0 -237 -76v-27l189 -110v-111q-41 -25 -52.5 -56.5t-11.5 -107.5v-237q0 -125 -52 -179.5t-183 -54.5t-182.5 49.5t-51.5 149.5
t53.5 148.5t143.5 48.5v106q0 63 13.5 99t56.5 79l-185 109v160q204 196 518 196q252 0 380 -106.5t128 -286.5v-1174h-276l-185 86q-74 -88 -200 -88t-198.5 68t-92.5 188l217 49q12 -61 40 -89.5t77 -28.5t77.5 25.5t53.5 76.5l211 -96v995z" />
    <glyph glyph-name="uni0E10" unicode="&#xe10;" horiz-adv-x="1116" 
d="M885 -192q0 36 -16.5 51.5t-58.5 15.5t-58.5 -15.5t-16.5 -53.5t16.5 -51t58.5 -13t58.5 15t16.5 51zM326 -279q28 -116 120 -116q50 0 76.5 16.5t52.5 52.5l222 -69v57q-186 0 -187 150q0 84 46 121.5t154 37.5t151 -40t43 -130v-360h-203l-197 65q-83 -71 -201 -71
t-191 61.5t-93 177.5zM383 510q0 45 -16.5 61.5t-63.5 16.5t-65.5 -17.5t-18.5 -61.5t18.5 -60.5t64.5 -16.5t63.5 16.5t17.5 61.5zM276 322q-196 0 -196 197q0 99 49 147.5t155 48.5t150.5 -19.5t63 -61.5t37.5 -134l61 -314h33q88 0 88 86v439q0 115 -61.5 166t-212.5 51
t-285 -109l-113 150q176 145 447 145q152 0 260 -45q49 43 63 109l219 -48q-4 -49 -32.5 -104t-75.5 -86q68 -90 67 -221v-402q0 -125 -72.5 -221t-267.5 -96h-266l-63 326q-29 -4 -48 -4z" />
    <glyph glyph-name="uni0E11" unicode="&#xe11;" horiz-adv-x="1253" 
d="M315 928q0 45 -17 61.5t-64.5 16.5t-65.5 -17.5t-18 -61.5t18 -60.5t65.5 -16.5t64.5 16.5t17 61.5zM238 387q0 78 24.5 140.5t60.5 124.5t48 88t12 51q-68 -43 -163 -43t-140 41t-45 139t39 142t136 44t136 -20.5t57 -73.5l91 63h122v-188l68 72q78 82 134 114.5
t145 32.5q195 0 194 -215v-899h-276v809q0 41 -35 41q-27 0 -57.5 -24.5t-100.5 -105.5t-106.5 -132t-52 -102.5t-15.5 -135.5v-350h-276v387z" />
    <glyph glyph-name="uni0E12" unicode="&#xe12;" horiz-adv-x="1775" 
d="M1004 170q0 45 -17.5 61.5t-65 16.5t-64.5 -16.5t-17 -61.5t17 -61.5t64.5 -16.5t65 16.5t17.5 61.5zM655 511q0 44 -17 60.5t-64.5 16.5t-64.5 -16.5t-17 -61.5t17 -62.5t63 -17.5t64.5 18.5t18.5 62.5zM369 524q-1 178 203 178t204 -168q0 -78 -15.5 -117.5t-42 -73.5
t-97.5 -112l-211 -231h-314v811q0 150 73 226.5t200 76.5q184 0 221 -125q50 125 235 125q135 0 214 -75.5t79 -227.5v-451l285 -114v837h276v-1083h-198l-334 141q-6 -88 -59.5 -130t-173.5 -42t-171 49.5t-51 145.5t46 147t126 56v424q0 78 -17.5 107.5t-66.5 29.5
t-68.5 -22.5t-19.5 -69.5v-21h-196v21q0 49 -17.5 70.5t-63.5 21.5t-66.5 -32t-20.5 -108v-595l135 155q-53 16 -73.5 52t-20.5 124z" />
    <glyph glyph-name="uni0E13" unicode="&#xe13;" horiz-adv-x="1730" 
d="M416 174q0 45 -17.5 61.5t-64.5 16.5t-64.5 -16.5t-17.5 -61.5t17.5 -61.5t64.5 -16.5t64.5 16.5t17.5 61.5zM1511 184q0 45 -17 62.5t-64.5 17.5t-64.5 -17.5t-17 -62.5t17 -61.5t64.5 -16.5t64.5 16.5t17 61.5zM94 203v219q0 90 25.5 147.5t91.5 96.5l-156 92v160
q207 197 504 196q250 0 369 -105.5t119 -287.5v-463l272 195q25 16 34 33.5t9 48.5v548h272v-544q0 -51 -23.5 -88t-82.5 -80q78 -14 110.5 -59.5t32.5 -145.5t-53.5 -148.5t-183.5 -48.5t-181 40t-51 134l-188 -143h-236v733q0 195 -221 195q-135 0 -240 -76v-27l158 -98
v-109q-63 -23 -83.5 -59.5t-20.5 -112.5v-81q90 0 140 -47.5t50 -148.5t-51 -150.5t-182 -49.5t-182.5 54.5t-51.5 179.5z" />
    <glyph glyph-name="uni0E14" unicode="&#xe14;" horiz-adv-x="1214" 
d="M690 497q0 44 -17.5 60t-65.5 16t-65.5 -16t-17.5 -61t18.5 -62.5t64.5 -17.5t64.5 18.5t18.5 62.5zM96 684q0 201 118 315.5t390 114.5q514 0 514 -430v-684h-268v702q0 117 -52.5 171.5t-193.5 54.5t-190 -53.5t-49 -172.5v-495l124 127q-49 14 -69.5 51t-20.5 126
q0 179 203 179q127 0 172 -45t45 -135t-25.5 -132t-82.5 -99l-277 -279h-338v684z" />
    <glyph glyph-name="uni0E15" unicode="&#xe15;" horiz-adv-x="1214" 
d="M690 497q0 44 -17.5 60t-65.5 16t-65.5 -16t-17.5 -61t18.5 -62.5t64.5 -17.5t64.5 18.5t18.5 62.5zM508 836q0 92 -66 92q-43 0 -60 -29t-17 -106v-586l124 127q-49 14 -69.5 51t-20.5 126q0 179 203 179q127 0 172 -45t45 -135t-25.5 -132t-82.5 -99l-277 -279h-338
v811q0 150 78 226.5t209 76.5q188 0 223 -125q50 125 236 125q133 0 204.5 -74.5t71.5 -228.5v-811h-268v793q0 80 -15.5 107.5t-58.5 27.5q-71 0 -71 -92v-21h-197v21z" />
    <glyph glyph-name="uni0E16" unicode="&#xe16;" horiz-adv-x="1177" 
d="M416 174q0 45 -17.5 61.5t-64.5 16.5t-64.5 -16.5t-17.5 -61.5t17.5 -61.5t64.5 -16.5t64.5 16.5t17.5 61.5zM805 733q-1 195 -253 195q-132 0 -235 -76v-27l158 -98v-109q-63 -23 -83.5 -59.5t-20.5 -112.5v-81q90 0 140 -47.5t50 -148.5t-51 -150.5t-182 -49.5
t-182.5 54.5t-51.5 179.5v219q0 90 25.5 147.5t91.5 96.5l-156 92v160q204 196 518 196q252 0 380 -106.5t128 -286.5v-721h-276v733z" />
    <glyph glyph-name="uni0E17" unicode="&#xe17;" horiz-adv-x="1245" 
d="M344 909q0 45 -17.5 61.5t-64.5 16.5t-64.5 -16.5t-17.5 -61.5t17.5 -61.5t64.5 -16.5t64.5 16.5t17.5 61.5zM872 778q0 31 -16 31t-25.5 -10.5t-25.5 -38.5l-299 -520v-240h-277v719q-90 0 -142 48t-52 148t51 149.5t183 49.5t184.5 -54t52.5 -179v-252l170 297
q57 102 118.5 145t155.5 43t146.5 -58.5t52.5 -156.5v-899h-277v778z" />
    <glyph glyph-name="uni0E18" unicode="&#xe18;" horiz-adv-x="1062" 
d="M559 928q-227 0 -227 -127v-37l407 -90q143 -33 206 -101.5t63 -183.5v-98q0 -152 -122 -237t-362 -85t-343 106.5t-103 278.5v117h276v-123q0 -109 38 -159t140 -50t150.5 35t48.5 117v94q0 59 -22.5 83t-92.5 40l-561 125v155q0 145 128 235.5t362 90.5q283 0 442 -133
l-113 -152q-125 99 -315 99z" />
    <glyph glyph-name="uni0E19" unicode="&#xe19;" horiz-adv-x="1208" 
d="M985 184q0 45 -17.5 62.5t-64.5 17.5t-64.5 -17.5t-17.5 -62.5t17.5 -61.5t64.5 -16.5t64.5 16.5t17.5 61.5zM344 909q0 45 -17.5 61.5t-64.5 16.5t-64.5 -16.5t-17.5 -61.5t17.5 -61.5t64.5 -16.5t64.5 16.5t17.5 61.5zM229 0v719q-90 0 -142 48t-52 148t51 149.5
t183 49.5t184.5 -54t52.5 -179v-621l287 193q43 24 43 82v548h276v-514q0 -68 -23.5 -111.5t-87.5 -86.5q78 -14 111 -59.5t33 -145.5t-53.5 -148.5t-194.5 -48.5q-241 0 -225 176l-205 -145h-238z" />
    <glyph glyph-name="uni0E1A" unicode="&#xe1a;" horiz-adv-x="1294" 
d="M344 909q0 45 -17.5 61.5t-64.5 16.5t-64.5 -16.5t-17.5 -61.5t17.5 -61.5t64.5 -16.5t64.5 16.5t17.5 61.5zM227 373v346q-90 0 -141 48t-51 148t51 149.5t182 49.5t183.5 -54t52.5 -179v-521q0 -104 48 -154t160.5 -50t161 50t48.5 154v723h276v-710
q0 -197 -108.5 -300.5t-372.5 -103.5t-377 103.5t-113 300.5z" />
    <glyph glyph-name="uni0E1B" unicode="&#xe1b;" horiz-adv-x="1294" 
d="M344 909q0 45 -17.5 61.5t-64.5 16.5t-64.5 -16.5t-17.5 -61.5t17.5 -61.5t64.5 -16.5t64.5 16.5t17.5 61.5zM227 373v346q-90 0 -141 48t-51 148t51 149.5t182 49.5t183.5 -54t52.5 -179v-521q0 -104 48 -154t160.5 -50t161 50t48.5 154v1102h276v-1089
q0 -197 -108.5 -300.5t-372.5 -103.5t-377 103.5t-113 300.5z" />
    <glyph glyph-name="uni0E1C" unicode="&#xe1c;" horiz-adv-x="1208" 
d="M420 909q0 45 -17.5 61.5t-64.5 16.5t-64.5 -16.5t-17.5 -61.5t17.5 -61.5t64.5 -16.5t64.5 16.5t17.5 61.5zM96 881q0 125 52.5 179t183.5 54t182 -49t51 -149t-51 -148.5t-141 -48.5v-426l176 246h106l181 -246v790h276v-1083h-295l-213 315l-211 -315h-297v881z" />
    <glyph glyph-name="uni0E1D" unicode="&#xe1d;" horiz-adv-x="1208" 
d="M420 909q0 45 -17.5 61.5t-64.5 16.5t-64.5 -16.5t-17.5 -61.5t17.5 -61.5t64.5 -16.5t64.5 16.5t17.5 61.5zM96 881q0 125 52.5 179t183.5 54t182 -49t51 -149.5t-51 -148.5t-141 -48v-426l176 246h106l181 -246v1169h276v-1462h-295l-213 315l-211 -315h-297v881z" />
    <glyph glyph-name="uni0E1E" unicode="&#xe1e;" horiz-adv-x="1284" 
d="M344 909q0 45 -17.5 61.5t-64.5 16.5t-64.5 -16.5t-17.5 -61.5t17.5 -61.5t64.5 -16.5t64.5 16.5t17.5 61.5zM227 719q-90 0 -141 48t-51 148t51 149.5t182 49.5t183.5 -54t52.5 -179v-482l147 369h107l153 -369v684h277v-1083h-283l-198 459l-195 -459h-285v719z" />
    <glyph glyph-name="uni0E1F" unicode="&#xe1f;" horiz-adv-x="1284" 
d="M344 909q0 45 -17.5 61.5t-64.5 16.5t-64.5 -16.5t-17.5 -61.5t17.5 -61.5t64.5 -16.5t64.5 16.5t17.5 61.5zM227 719q-90 0 -141 48t-51 148t51 149.5t182 49.5t183.5 -54t52.5 -179v-482l147 369h107l153 -369v1063h277v-1462h-283l-198 459l-195 -459h-285v719z" />
    <glyph glyph-name="uni0E20" unicode="&#xe20;" horiz-adv-x="1259" 
d="M365 174q0 45 -17.5 61.5t-64.5 16.5t-64.5 -16.5t-17.5 -61.5t17.5 -61.5t64.5 -16.5t64.5 16.5t17.5 61.5zM887 733q1 195 -251 195q-132 0 -237 -76v-27l189 -110v-111q-41 -25 -52.5 -56.5t-11.5 -107.5v-237q0 -125 -52 -179.5t-183 -54.5t-182.5 49.5t-51.5 149.5
t53.5 148.5t143.5 48.5v106q0 63 13.5 99t56.5 79l-185 109v160q204 196 518 196q252 0 380 -106.5t128 -286.5v-721h-276v733z" />
    <glyph glyph-name="uni0E21" unicode="&#xe21;" horiz-adv-x="1191" 
d="M393 173q0 44 -17.5 60.5t-64.5 16.5t-64.5 -16.5t-17.5 -61.5t17.5 -61.5t64.5 -16.5t64.5 17.5t17.5 61.5zM365 909q0 45 -17.5 61.5t-64.5 16.5t-64.5 -16.5t-17.5 -61.5t17.5 -61.5t64.5 -16.5t64.5 16.5t17.5 61.5zM72 170q0 102 44 149.5t134 51.5v348
q-90 0 -142.5 48t-52.5 148t51.5 149.5t183.5 49.5t184 -54t52 -179v-519l293 -108v829h277v-1083h-160l-395 145q-6 -90 -57.5 -133t-179.5 -43t-180 49.5t-52 151.5z" />
    <glyph glyph-name="uni0E22" unicode="&#xe22;" horiz-adv-x="1130" 
d="M383 909q0 45 -17.5 61.5t-64.5 16.5t-64.5 -16.5t-17.5 -61.5t17.5 -61.5t64.5 -16.5t64.5 16.5t17.5 61.5zM326 295q0 -139 223 -139q105 0 157 49t52 153v725h276v-680q0 -434 -487 -434q-244 0 -368 86t-124 246q0 78 25.5 132t87.5 89q-109 86 -109 275v77
q0 125 52.5 182.5t183.5 57.5t182 -49t51 -149t-51 -148.5t-141 -48.5q0 -55 23.5 -80t84.5 -25h82v-190h-69q-131 0 -131 -129z" />
    <glyph glyph-name="uni0E23" unicode="&#xe23;" horiz-adv-x="964" 
d="M590 174q0 45 -17.5 61.5t-64.5 16.5t-64.5 -16.5t-17.5 -61.5t17.5 -61.5t64.5 -16.5t64.5 16.5t17.5 61.5zM524 928q-96 0 -144 -32t-48 -89v-31l274 -80q63 -18 94 -45.5t40.5 -70.5t9.5 -119v-258q0 -125 -52.5 -179.5t-183.5 -54.5t-182 49.5t-51 149.5t51 148.5
t141 48.5v88q0 53 -20.5 76.5t-75.5 39.5l-322 95v122q0 172 117 250t288.5 78t268 -29.5t180.5 -95.5l-112 -151q-108 90 -273 90z" />
    <glyph glyph-name="uni0E24" unicode="&#xe24;" horiz-adv-x="1177" 
d="M416 174q0 45 -17.5 61.5t-64.5 16.5t-64.5 -16.5t-17.5 -61.5t17.5 -61.5t64.5 -16.5t64.5 16.5t17.5 61.5zM805 733q-1 195 -253 195q-132 0 -235 -76v-27l158 -98v-109q-63 -23 -83.5 -59.5t-20.5 -112.5v-81q90 0 140 -47.5t50 -148.5t-51 -150.5t-182 -49.5
t-182.5 54.5t-51.5 179.5v219q0 90 25.5 147.5t91.5 96.5l-156 92v160q204 196 518 196q252 0 380 -106.5t128 -286.5v-1133h-276v1145z" />
    <glyph glyph-name="uni0E25" unicode="&#xe25;" horiz-adv-x="1105" 
d="M375 174q0 45 -17.5 61.5t-64.5 16.5t-64.5 -16.5t-17.5 -60.5t18.5 -62.5t64.5 -18.5t63.5 17.5t17.5 62.5zM733 717q0 211 -241 211q-182 0 -308 -113l-112 154q176 145 434 145t381 -106.5t123 -290.5v-717h-269q0 352 -85 420.5t-175 68.5t-132 -28.5t-48 -93.5l33 2
q96 0 141 -49.5t45 -151.5t-51 -150.5t-180 -48.5t-181.5 66.5t-52.5 210.5q0 430 408 430q196 0 270 -94v135z" />
    <glyph glyph-name="uni0E26" unicode="&#xe26;" horiz-adv-x="1259" 
d="M365 174q0 45 -17.5 61.5t-64.5 16.5t-64.5 -16.5t-17.5 -61.5t17.5 -61.5t64.5 -16.5t64.5 16.5t17.5 61.5zM887 733q1 195 -251 195q-132 0 -237 -76v-27l189 -110v-111q-41 -25 -52.5 -56.5t-11.5 -107.5v-237q0 -125 -52 -179.5t-183 -54.5t-182.5 49.5t-51.5 149.5
t53.5 148.5t143.5 48.5v106q0 63 13.5 99t56.5 79l-185 109v160q204 196 518 196q252 0 380 -106.5t128 -286.5v-1133h-276v1145z" />
    <glyph glyph-name="uni0E27" unicode="&#xe27;" horiz-adv-x="948" 
d="M692 174q0 45 -17.5 61.5t-64.5 16.5t-64.5 -16.5t-17.5 -61.5t17.5 -61.5t64.5 -16.5t64.5 16.5t17.5 61.5zM415 1114q235 0 336 -97t101 -278v-536q0 -125 -52 -179.5t-183.5 -54.5t-182.5 49.5t-51 149.5t51 148.5t141 48.5v380q0 182 -194 183q-129 0 -238 -109
l-129 152q166 143 401 143z" />
    <glyph glyph-name="uni0E28" unicode="&#xe28;" horiz-adv-x="1216" 
d="M680 475q0 45 -16.5 60.5t-64.5 15.5t-65.5 -15.5t-17.5 -60.5t18.5 -63.5t65.5 -18.5t63.5 18.5t16.5 63.5zM96 668q0 446 510 446q150 0 260 -39q47 43 60 103l219 -48q-4 -45 -32 -97t-71 -89q76 -104 76 -276v-668h-276v700q0 113 -51.5 170.5t-181.5 57.5
t-183 -57.5t-53 -170.5v-170q63 84 106 116t139 32t143.5 -44t47.5 -154t-50 -158t-161 -48q-145 0 -174 86l-51 -71v-289h-277v668z" />
    <glyph glyph-name="uni0E29" unicode="&#xe29;" horiz-adv-x="1294" 
d="M788 609q0 42 -15 58.5t-55 16.5t-56.5 -16.5t-16.5 -58.5t16.5 -57t56.5 -15t55 15t15 57zM344 909q0 45 -17.5 61.5t-64.5 16.5t-64.5 -16.5t-17.5 -61.5t17.5 -61.5t64.5 -16.5t64.5 16.5t17.5 61.5zM227 373v346q-90 0 -141 48t-51 148t51 149.5t182 49.5t183.5 -54
t52.5 -179v-521q0 -104 48 -154t160.5 -50t161 50t48.5 154v48q-57 -14 -160 -14t-166.5 49t-63.5 161t46.5 157.5t140.5 45.5q190 0 174 -191q12 0 29 5v462h276v-710q0 -197 -108.5 -300.5t-372.5 -103.5t-377 103.5t-113 300.5z" />
    <glyph glyph-name="uni0E2A" unicode="&#xe2a;" horiz-adv-x="1103" 
d="M375 174q0 45 -17.5 61.5t-64.5 16.5t-64.5 -16.5t-17.5 -60.5t18.5 -62.5t64.5 -18.5t63.5 17.5t17.5 62.5zM1010 717v-717h-269q0 352 -85 420.5t-175 68.5t-132 -28.5t-48 -93.5l33 2q96 0 141 -49.5t45 -151.5t-51 -150.5t-180 -48.5t-181.5 66.5t-52.5 210.5
q0 430 408 430q196 0 270 -94v135q0 211 -241 211q-182 0 -308 -113l-112 154q176 145 452 145q143 0 244 -43q47 41 61 107l220 -48q-4 -45 -34 -99t-73 -91q68 -84 68 -223z" />
    <glyph glyph-name="uni0E2B" unicode="&#xe2b;" horiz-adv-x="1200" 
d="M983 908q0 44 -18.5 61.5t-65.5 17.5t-64.5 -16.5t-17.5 -61.5t17.5 -61.5t64.5 -16.5t65.5 16.5t18.5 60.5zM344 909q0 45 -17.5 61.5t-64.5 16.5t-64.5 -16.5t-17.5 -61.5t17.5 -61.5t64.5 -16.5t64.5 16.5t17.5 61.5zM827 471q0 31 -17 31t-24.5 -15.5t-11.5 -19.5
l-301 -467h-244v719q-90 0 -142 48t-52 148t51 149.5t183 49.5t184.5 -54t52.5 -179v-502l205 309q20 31 53 53q-94 39 -94 155t49 167t180 51t182.5 -45t51.5 -169t-99 -161q70 -37 70 -147v-592h-277v471z" />
    <glyph glyph-name="uni0E2C" unicode="&#xe2c;" horiz-adv-x="1284" 
d="M344 909q0 45 -17.5 61.5t-64.5 16.5t-64.5 -16.5t-17.5 -61.5t17.5 -61.5t64.5 -16.5t64.5 16.5t17.5 61.5zM1188 1343q0 -183 -115 -235q115 -57 115 -229v-879h-283l-198 459l-195 -459h-285v719q-90 0 -141 48t-51 148t51 149.5t182 49.5t183.5 -54t52.5 -179v-482
l147 369h107l153 -369v482q0 72 -25.5 104.5t-92.5 32.5h-64v186h57q76 0 101.5 33t25.5 115v110h275v-119z" />
    <glyph glyph-name="uni0E2D" unicode="&#xe2d;" horiz-adv-x="1107" 
d="M391 487q0 45 -17.5 61.5t-64.5 16.5t-64.5 -16.5t-17.5 -61.5t17.5 -61t64.5 -16t64.5 16t17.5 61zM503 1114q271 0 390 -102.5t119 -292.5v-412q0 -82 -46 -158.5t-153.5 -128t-284.5 -51.5q-264 0 -362 99.5t-98 267.5v123q0 125 52 179t183 54t182.5 -49t51.5 -156
q0 -176 -203 -176v-28q0 -127 147.5 -127t200.5 35.5t53 101.5v424q0 109 -63.5 160t-214.5 51t-289 -109l-113 150q177 145 448 145z" />
    <glyph glyph-name="uni0E2E" unicode="&#xe2e;" horiz-adv-x="1132" 
d="M391 487q0 45 -17.5 61.5t-64.5 16.5t-64.5 -16.5t-17.5 -61.5t17.5 -61t64.5 -16t64.5 16t17.5 61zM1012 307q0 -82 -46 -158.5t-153.5 -128t-284.5 -51.5q-264 0 -362 99.5t-98 267.5v123q0 125 52 179t183 54t182.5 -49t51.5 -156q0 -176 -203 -176v-28
q0 -127 147.5 -127t200.5 35.5t53 101.5v424q0 109 -63.5 160t-214.5 51t-289 -109l-113 150q177 145 455 145q158 0 264 -45q45 39 62 109l219 -48q-4 -45 -34 -99t-73 -91q63 -86 64 -221v-412z" />
    <glyph glyph-name="uni0E2F" unicode="&#xe2f;" horiz-adv-x="1075" 
d="M375 905q0 45 -17.5 62.5t-64.5 17.5t-65.5 -17.5t-18.5 -61.5t18.5 -61.5t65.5 -17.5t64.5 16.5t17.5 61.5zM438.5 553q-96.5 0 -184.5 39t-143.5 112.5t-55.5 186.5t51.5 168t181.5 55t181 -48t51 -136t-22.5 -126t-81.5 -56q20 -8 53 -9q123 0 179.5 80t56.5 264h274
v-1083h-277v629q-47 -41 -107 -58.5t-156.5 -17.5z" />
    <glyph glyph-name="uni0E30" unicode="&#xe30;" horiz-adv-x="862" 
d="M369 303q0 43 -16.5 59.5t-63.5 16.5t-63.5 -16.5t-16.5 -59.5t18.5 -60.5t61.5 -17.5t61.5 17.5t18.5 60.5zM289 514q223 0 223 -170q0 -78 -20 -111q109 -8 215 86l100 -139q-111 -133 -369 -133q-383 0 -383 246q0 113 55.5 167t178.5 54zM369 866q0 43 -16.5 59.5
t-63.5 16.5t-63.5 -16.5t-16.5 -59.5t18.5 -60.5t61.5 -17.5t61.5 17.5t18.5 60.5zM289 1077q223 0 223 -170q0 -78 -20 -110q109 -8 215 86l100 -140q-111 -133 -369 -133q-383 0 -383 246q0 113 55.5 167t178.5 54z" />
    <glyph glyph-name="uni0E31" unicode="&#xe31;" 
d="M-385 1469q0 44 -18.5 61.5t-65.5 17.5t-63.5 -16t-16.5 -61.5t16.5 -61.5t63.5 -16t65.5 16t18.5 60zM-709 1462q0 115 58.5 169.5t184.5 54.5t177 -46.5t51 -144.5q0 -51 -22 -90q25 -6 82.5 -6t127.5 31.5t122 80.5l108 -143q-152 -162 -463 -162q-426 0 -426 256z
" />
    <glyph glyph-name="uni0E32" unicode="&#xe32;" horiz-adv-x="897" 
d="M381 1114q231 0 325.5 -104.5t94.5 -294.5v-715h-277v717q0 111 -41 161t-153 50t-219 -99l-111 150q150 135 381 135z" />
    <glyph glyph-name="uni0E33" unicode="&#xe33;" horiz-adv-x="897" 
d="M381 1114q231 0 325.5 -104.5t94.5 -294.5v-715h-277v717q0 111 -41 161t-153 50t-219 -99l-111 150q150 135 381 135zM-168 1425.5q0 75.5 -84 75.5t-84 -75.5t84 -75.5t84 75.5zM-487 1425.5q0 112.5 57 164.5t179 52t179.5 -52t57.5 -164.5t-57.5 -166t-179.5 -53.5
t-179 53.5t-57 166z" />
    <glyph glyph-name="uni0E34" unicode="&#xe34;" 
d="M-594 1446q-92 0 -157.5 -25.5t-79.5 -77.5h477q-16 51 -82 77t-158 26zM-594 1597q207 0 345 -101t153 -290h-998q19 189 156 290t344 101z" />
    <glyph glyph-name="uni0E35" unicode="&#xe35;" 
d="M-352 1343q-50 103 -251 103t-231 -103h482zM-620.5 1597q188.5 0 284.5 -77v149h240v-463h-998q17 189 151 290t322.5 101z" />
    <glyph glyph-name="uni0E36" unicode="&#xe36;" 
d="M-599 1446q-89 0 -154.5 -25.5t-82.5 -77.5h480q-27 45 -90.5 74t-152.5 29zM-197 1510q0 40 -15 54.5t-57 14.5t-58.5 -15.5t-16.5 -54.5q0 -72 74 -71q43 0 58 16t15 56zM-70 1498q0 -104 -82 -138q47 -66 54 -154h-996q15 189 154 290t344 101q70 0 141 -22
q16 113 183 113q121 0 161.5 -43t40.5 -147z" />
    <glyph glyph-name="uni0E37" unicode="&#xe37;" 
d="M-352 1343q-55 103 -253.5 103t-228.5 -103h482zM-584 1669h207v-115q53 -20 74 -43v158h207v-463h-998q19 172 147 276q129 104 329 103q24 0 34 -2v86z" />
    <glyph glyph-name="uni0E38" unicode="&#xe38;" 
d="M-246 -289q0 45 -17.5 61.5t-64.5 16.5t-64.5 -16.5t-17.5 -61.5t17.5 -61.5t64.5 -16.5t64.5 16.5t17.5 61.5zM-352 -479q-195 0 -195 190q0 104 49 154.5t176 50.5t176.5 -55.5t49.5 -177.5v-334h-256v172z" />
    <glyph glyph-name="uni0E39" unicode="&#xe39;" 
d="M-573 -269q0 42 -17.5 58t-61.5 16t-62.5 -16t-18.5 -58t18.5 -58.5t62.5 -16.5t61.5 16.5t17.5 58.5zM-96 -399q0 -248 -272 -248q-292 0 -291 192v13q-10 -2 -31 -2q-178 0 -178 178q0 98 51 140t170 42t164 -44t45 -161v-123q0 -35 12 -48t46 -13t46 13.5t12 47.5v316
h226v-303z" />
    <glyph glyph-name="uni0E3A" unicode="&#xe3a;" 
d="M-379 -237.5q0 81.5 30 110.5t115 29t117.5 -30t32.5 -109t-33 -110.5t-116.5 -31.5t-114.5 30t-31 111.5z" />
    <glyph glyph-name="uni0E3F" unicode="&#xe3f;" horiz-adv-x="1226" 
d="M762 178q84 0 134 51.5t50 152.5t-54 146t-155 45h-237v-395h262zM727 758q90 0 143.5 50t53.5 146q0 193 -191 193h-233v-389h227zM492 0h-396v178h58q43 0 60 18.5t17 61.5v813q0 39 -17 57.5t-60 18.5h-58v178h396v246h245v-246h84q174 0 271.5 -92t97.5 -264
q0 -96 -48 -174t-136 -121q207 -80 206 -303q0 -166 -99 -268.5t-267 -102.5h-109v-246h-245v246z" />
    <glyph glyph-name="uni0E40" unicode="&#xe40;" horiz-adv-x="524" 
d="M379 174q0 45 -17.5 61.5t-64.5 16.5t-64.5 -16.5t-17.5 -61.5t17.5 -61.5t64.5 -16.5t64.5 16.5t17.5 61.5zM55 203v880h277v-718q90 0 141 -48.5t51 -148.5t-51 -149.5t-182 -49.5t-183.5 54.5t-52.5 179.5z" />
    <glyph glyph-name="uni0E41" unicode="&#xe41;" horiz-adv-x="1067" 
d="M922 174q0 45 -17.5 61.5t-64.5 16.5t-64.5 -16.5t-17.5 -61.5t17.5 -61.5t64.5 -16.5t64.5 16.5t17.5 61.5zM379 174q0 45 -17.5 61.5t-64.5 16.5t-64.5 -16.5t-17.5 -61.5t17.5 -61.5t64.5 -16.5t64.5 16.5t17.5 61.5zM598 203v880h276v-718q90 0 141.5 -48.5
t51.5 -148.5t-51 -149.5t-182.5 -49.5t-183.5 54.5t-52 179.5zM55 203v880h277v-718q90 0 141 -48.5t51 -148.5t-51 -149.5t-182 -49.5t-183.5 54.5t-52.5 179.5z" />
    <glyph glyph-name="uni0E42" unicode="&#xe42;" horiz-adv-x="696" 
d="M483 174q0 45 -17 61.5t-64.5 16.5t-65 -16.5t-17.5 -61.5t17.5 -61.5t65 -16.5t64.5 16.5t17 61.5zM334 1382q-102 0 -160 -41v-22l133 -68q59 -29 86 -61.5t35 -77.5t8 -133v-614q90 0 141.5 -48.5t51.5 -148.5t-51.5 -149.5t-182.5 -49.5t-183 54.5t-52 179.5v803
q0 68 -9.5 92t-50.5 47l-188 100v182q74 59 188.5 96.5t225.5 37.5q232 0 376 -95l-94 -151q-110 67 -274 67z" />
    <glyph glyph-name="uni0E43" unicode="&#xe43;" horiz-adv-x="909" 
d="M612 174q0 45 -17 61.5t-64.5 16.5t-64.5 -16.5t-17 -61.5t17 -61.5t64.5 -16.5t64.5 16.5t17 61.5zM543 1241q0 109 -126 109t-126 -117v-70h-277v72q0 143 118 222t304 79t281.5 -78t95.5 -217q0 -70 -32.5 -127t-94.5 -134t-91.5 -126t-29.5 -104v-385
q90 0 141.5 -48.5t51.5 -148.5t-51.5 -149.5t-182.5 -49.5t-183 54.5t-52 179.5v557q0 72 35.5 132t97.5 132t91.5 118t29.5 99z" />
    <glyph glyph-name="uni0E44" unicode="&#xe44;" horiz-adv-x="866" 
d="M565 174q0 45 -17.5 61.5t-64.5 16.5t-64.5 -16.5t-17.5 -61.5t17.5 -61.5t64.5 -16.5t64.5 16.5t17.5 61.5zM242 203v725q0 248 104 360l72 76h-383v186h735v-139l-149 -145q-103 -103 -103 -330v-571q90 0 141.5 -48.5t51.5 -148.5t-51.5 -149.5t-182.5 -49.5
t-183 54.5t-52 179.5z" />
    <glyph glyph-name="uni0E45" unicode="&#xe45;" horiz-adv-x="897" 
d="M381 1114q231 0 325.5 -104.5t94.5 -294.5v-1127h-277v1129q0 111 -41 161t-153 50t-219 -99l-111 150q150 135 381 135z" />
    <glyph glyph-name="uni0E46" unicode="&#xe46;" horiz-adv-x="1114" 
d="M356 600q0 45 -17 61.5t-64.5 16.5t-64.5 -16.5t-17 -61.5t17 -61.5t64.5 -16.5t64.5 16.5t17 61.5zM741 821q0 61 -13 84t-56 23q-66 0 -66 -84v-23h-186v23q0 43 -15.5 63.5t-54.5 20.5t-55 -32t-16 -108q121 0 172 -44t51 -147t-51.5 -152.5t-182.5 -49.5t-182 54.5
t-51 179.5v188q0 143 74.5 220t201.5 77q164 0 203 -125q41 125 217 125q133 0 210 -70.5t77 -218.5v-825h-277v821z" />
    <glyph glyph-name="uni0E47" unicode="&#xe47;" 
d="M-266 1363q0 38 -15.5 53.5t-54.5 15.5t-54.5 -15.5t-15.5 -53.5t14.5 -51.5t55.5 -13.5t55.5 13.5t14.5 51.5zM-158 1372q0 -182 -175 -182q-87 0 -135 15.5t-87 54.5l-45 47l-109 -101h-192v279q0 123 65.5 186.5t192.5 63.5h481v-154h-440q-59 0 -85 -24.5t-26 -83.5
v-87l82 76h68l53 -57q0 137 172 137q94 0 137 -39t43 -131z" />
    <glyph glyph-name="uni0E48" unicode="&#xe48;" 
d="M-373 1544h277v-338h-277v338z" />
    <glyph glyph-name="uni0E49" unicode="&#xe49;" 
d="M-426 1524q0 37 -15.5 51t-55.5 14t-54 -13t-14 -51t14 -52.5t55 -14.5t55.5 14.5t14.5 51.5zM-520 1378q-168 -16 -168 149q0 81 46 117.5t148 36.5t144.5 -37.5t42.5 -132.5t-45 -145q92 12 127 62.5t35 158.5v37h204v-43q0 -102 -43 -188t-126 -136.5t-199 -50.5h-269
v135q47 0 71 7.5t32 29.5z" />
    <glyph glyph-name="uni0E4A" unicode="&#xe4a;" 
d="M-602 1401q0 41 -15.5 56.5t-58.5 15.5t-59.5 -15.5t-16.5 -56.5t15.5 -57.5t58.5 -16.5t59.5 16.5t16.5 57.5zM-406 1399q0 43 -33.5 43t-37.5 -35q0 -100 -46 -150.5t-153.5 -50.5t-154 46t-46.5 148.5t46.5 148.5t154 46t150.5 -59q49 59 133 59q145 0 145 -137v-51
h17q31 0 41 23.5t10 74.5v86h168v-110q0 -133 -64.5 -181.5t-173.5 -48.5h-156v148z" />
    <glyph glyph-name="uni0E4B" unicode="&#xe4b;" 
d="M-496 1294h-122v170h122v92h277v-92h123v-170h-123v-88h-277v88z" />
    <glyph glyph-name="uni0E4C" unicode="&#xe4c;" 
d="M-389 1412q0 44 -17.5 60.5t-62.5 16.5t-62.5 -16.5t-17.5 -59.5t17.5 -59.5t63.5 -16.5t62.5 15.5t16.5 59.5zM-254 1381.5q0 -72.5 -58.5 -124t-167 -51.5t-160.5 52q-52 50 -52 170q0 242 407 243h289v-172h-182q-72 0 -101 -4q25 -41 25 -113.5z" />
    <glyph glyph-name="uni0E4D" unicode="&#xe4d;" 
d="M-168 1425.5q0 75.5 -84 75.5t-84 -75.5t84 -75.5t84 75.5zM-487 1425.5q0 112.5 57 164.5t179 52t179.5 -52t57.5 -164.5t-57.5 -166t-179.5 -53.5t-179 53.5t-57 166z" />
    <glyph glyph-name="uni0E4E" unicode="&#xe4e;" 
d="M-316 1206q-234 0 -233 168q0 84 74 123q-74 41 -74 120t49 120t129 41h195v-142h-119q-49 0 -49 -38.5t47 -38.5h76v-123h-76q-55 0 -55 -45t59 -45t96 30l68 -100q-69 -70 -187 -70z" />
    <glyph glyph-name="uni0E4F" unicode="&#xe4f;" horiz-adv-x="1163" 
d="M707 489.5q0 63.5 -34 97.5t-91.5 34t-91 -34t-33.5 -97.5t33.5 -95.5t91 -32t91.5 32t34 95.5zM297 490q0 130 72.5 209t212 79t212 -79t72.5 -209t-72.5 -207.5t-212 -77.5t-212 77.5t-72.5 207.5zM930 490q0 177 -94.5 269.5t-254 92.5t-254 -92t-94.5 -270
t94.5 -268.5t254 -90.5t254 91t94.5 268zM55 489q0 154 60.5 273t179.5 185.5t287 66.5t286.5 -66.5t179 -185.5t60.5 -273q0 -236 -137 -378t-389 -142t-389.5 142.5t-137.5 377.5z" />
    <glyph glyph-name="uni0E50" unicode="&#xe50;" horiz-adv-x="1230" 
d="M905 489.5q0 176.5 -71.5 258t-217 81.5t-218 -81.5t-72.5 -258t72.5 -256t218 -79.5t217 79.5t71.5 256zM55 489.5q0 241.5 141.5 383t420 141.5t419 -141.5t140.5 -383t-140.5 -381t-419 -139.5t-420 139.5t-141.5 381z" />
    <glyph glyph-name="uni0E51" unicode="&#xe51;" horiz-adv-x="1241" 
d="M698 493q0 44 -18 62t-64 18t-65 -17t-19 -62t18.5 -61.5t66 -16.5t64.5 16.5t17 60.5zM915 504q0 150 -65.5 226.5t-212.5 76.5t-229 -68.5t-82 -191.5q0 -78 27.5 -118t74.5 -40q-39 37 -39 124q0 185 242 185q127 0 175 -52t48 -175t-94 -199.5t-287 -76.5
t-305.5 94.5t-112.5 284.5t151.5 303.5t441.5 113.5t414 -134t124 -381t-185.5 -404.5t-547.5 -194.5l-41 193q182 23 291.5 70.5t160.5 130.5t51 233z" />
    <glyph glyph-name="uni0E52" unicode="&#xe52;" horiz-adv-x="1413" 
d="M711 483q0 43 -17.5 59.5t-62.5 16.5t-62.5 -16.5t-17.5 -59.5t17.5 -59t62.5 -16t62.5 16t17.5 59zM369 461q1 -305 307 -305q156 0 232.5 40t106 122.5t29.5 228.5v184q0 55 -13 75.5t-50 20.5q-66 0 -66 -88v-34h-161v34q0 45 -14.5 66.5t-51.5 21.5t-50 -23.5
t-13 -86.5v-53q92 0 151.5 -43t59.5 -125t-25 -144.5t-167 -62.5t-186 53t-44 180v189q0 303 239 303q80 0 122 -28t63 -93q48 121 215 121q264 0 264 -297v-162q0 -180 -50 -307t-188.5 -203t-404.5 -76t-422 129t-156 383v633h273v-653z" />
    <glyph glyph-name="uni0E53" unicode="&#xe53;" horiz-adv-x="1302" 
d="M418 174q0 45 -17.5 61.5t-64.5 16.5t-64.5 -16.5t-17.5 -61.5t17.5 -61.5t64.5 -16.5t64.5 16.5t17.5 61.5zM545 731q0 96 -82 96q-49 0 -69.5 -29.5t-20.5 -101.5v-331q90 0 140 -47.5t50 -148.5t-51 -150.5t-182 -49.5t-182.5 54.5t-51.5 179.5v508q0 145 94.5 224
t233.5 79q86 0 147.5 -32t79.5 -93q25 61 92.5 93t157.5 32q141 0 223 -76t82 -227v-711h-276v698q0 72 -18.5 100.5t-67.5 28.5q-86 0 -86 -96v-229h-213v229z" />
    <glyph glyph-name="uni0E54" unicode="&#xe54;" horiz-adv-x="1247" 
d="M852 482q0 46 -16.5 61.5t-64.5 15.5t-65.5 -16.5t-17.5 -61.5t18.5 -61.5t65.5 -16.5t63.5 16.5t16.5 62.5zM319 367q0 -181 134 -181h131q-39 63 -39 181v84q0 88 18.5 137t66.5 71.5t160 22.5t161.5 -46t49.5 -140q0 -196 -176 -197q-31 0 -45 2v-16q0 -43 28 -71
t75 -28h229v-186h-670q-186 0 -286.5 97.5t-100.5 264.5v179q0 203 126 322.5t368 119.5h239q106 0 175 26.5t127 102.5l143 -127q-84 -113 -186.5 -150.5t-294.5 -37.5h-170q-133 0 -198 -71t-65 -194v-165z" />
    <glyph glyph-name="uni0E55" unicode="&#xe55;" horiz-adv-x="1247" 
d="M852 482q0 46 -16.5 61.5t-64.5 15.5t-65.5 -16.5t-17.5 -61.5t18.5 -61.5t65.5 -16.5t63.5 16.5t16.5 62.5zM805 1019q0 44 -18.5 61.5t-65.5 17.5t-64.5 -16.5t-17.5 -61.5t17.5 -61.5t64.5 -16.5t65.5 16.5t18.5 60.5zM319 367q0 -181 134 -181h131q-39 63 -39 181v84
q0 88 18.5 137t66.5 71.5t160 22.5t161.5 -46t49.5 -140q0 -196 -176 -197q-31 0 -45 2v-16q0 -43 28 -71t75 -28h229v-186h-670q-186 0 -286.5 97.5t-100.5 264.5v179q0 195 117 313.5t340 128.5q-8 18 -8 59q0 92 46 137.5t158 45.5t161 -38t55 -120l2 -31q0 -12 -4 -41
q96 23 168 117l143 -127q-84 -113 -186.5 -150.5t-294.5 -37.5h-170q-133 0 -198 -71t-65 -194v-165z" />
    <glyph glyph-name="uni0E56" unicode="&#xe56;" horiz-adv-x="1253" 
d="M481 332q0 45 -18.5 62.5t-64.5 17.5t-64.5 -18.5t-18.5 -62.5t17.5 -60.5t64.5 -16.5t65.5 16.5t18.5 61.5zM160 289q0 135 51 191.5t181 56.5t181.5 -48.5t51.5 -138.5t-21.5 -122.5t-73.5 -57.5q66 -16 140 -16q141 0 199.5 85t58.5 258t-64.5 252.5t-210.5 79.5
q-174 0 -266 -141h-209l-164 379l228 74l100 -240q49 47 150.5 80t199.5 33q506 0 506 -510q0 -236 -131 -385.5t-389 -149.5q-152 0 -269.5 41t-183 113t-65.5 166z" />
    <glyph glyph-name="uni0E57" unicode="&#xe57;" horiz-adv-x="1615" 
d="M397 170q0 45 -17.5 61.5t-64.5 16.5t-64.5 -16.5t-17.5 -61.5t17.5 -61.5t64.5 -16.5t64.5 16.5t17.5 61.5zM840 1014q270 0 270 -303v-525q70 0 102.5 21.5t44 65.5t11.5 128v713h252v-704q0 -197 -89.5 -303.5t-304.5 -106.5h-262v719q0 63 -16.5 85.5t-71.5 22.5
t-73.5 -25.5t-18.5 -80.5v-219h-168v219q0 53 -19.5 79.5t-68.5 26.5t-70.5 -24.5t-21.5 -83.5v-354q90 0 140 -47.5t50 -132.5t-16 -128t-63.5 -65.5t-135.5 -22.5t-135 24.5t-63.5 74t-16.5 135.5v508q0 150 78 226.5t209 76.5q177 0 217 -125q50 125 240 125z" />
    <glyph glyph-name="uni0E58" unicode="&#xe58;" horiz-adv-x="1218" 
d="M989 500q0 45 -17.5 61.5t-64.5 16.5t-64.5 -16.5t-17.5 -61.5t17.5 -61.5t64.5 -16.5t64.5 16.5t17.5 61.5zM412 156q88 0 88 96v57h207v-69q0 -47 20.5 -65.5t69.5 -18.5t70.5 23.5t21.5 86.5v41q-92 0 -150.5 49.5t-58.5 149.5t51 149.5t182 49.5t182.5 -54.5
t51.5 -179.5v-199q0 -145 -92 -224t-230 -79q-88 0 -151.5 32t-81.5 93q-25 -61 -89.5 -93t-154.5 -32q-139 0 -216 75t-77 228v295q0 195 106.5 305.5t315.5 110.5h180q143 0 214 24.5t139 102.5l147 -119q-68 -98 -164 -146t-241 -48h-195q-133 0 -185.5 -63.5
t-52.5 -223.5v-213q0 -76 19.5 -108.5t73.5 -32.5z" />
    <glyph glyph-name="uni0E59" unicode="&#xe59;" horiz-adv-x="1337" 
d="M397 170q0 45 -17.5 61.5t-64.5 16.5t-64.5 -16.5t-17.5 -61.5t17.5 -61.5t64.5 -16.5t64.5 16.5t17.5 61.5zM627 907q71 107 235 107q88 0 144.5 -42t66.5 -116q37 0 48.5 36t11.5 122h190q0 -180 -62.5 -269.5t-216.5 -89.5h-108q0 84 -15.5 128t-64.5 44
q-90 0 -90 -77q0 -18 2 -29l137 -721h-237l-133 709q-12 63 -33 90.5t-71 27.5t-73.5 -30.5t-23.5 -106.5v-325q192 0 192 -191q0 -74 -16 -117t-63.5 -65.5t-135.5 -22.5t-135 24.5t-63.5 74t-16.5 135.5v489q0 160 73 241t228 81q94 0 145.5 -26.5t84.5 -80.5z" />
    <glyph glyph-name="uni0E5A" unicode="&#xe5a;" horiz-adv-x="1568" 
d="M375 905q0 45 -17.5 62.5t-64.5 17.5t-65.5 -17.5t-18.5 -61.5t18.5 -61.5t65.5 -17.5t64.5 16.5t17.5 61.5zM705 1083h274v-340q106 10 162.5 89t56.5 251h275v-1083h-277v635q-82 -66 -217 -72v-563h-277v635q-47 -41 -107 -58.5t-157 -17.5q-164 0 -273.5 84.5
t-109.5 222.5t51.5 193t181.5 55t181 -48t51 -136t-22.5 -126t-81.5 -56q23 -8 53 -9q236 0 236 344z" />
    <glyph glyph-name="uni0E5B" unicode="&#xe5b;" horiz-adv-x="2285" 
d="M625 514q0 41 -15.5 55.5t-58.5 14.5t-59.5 -14.5t-16.5 -55.5t17.5 -57.5t59.5 -16.5t57.5 16.5t15.5 57.5zM602 229q-244 0 -244 271q0 98 45.5 148t147.5 50t149.5 -43t47.5 -133t-70 -137q12 -4 35 -4q63 0 88.5 47.5t25.5 159.5q0 232 -252 233q-168 0 -242.5 -86
t-74.5 -249t102 -253t298 -90t316 112t120 288t57 243.5t193 67.5t186.5 -67.5t50.5 -178.5v-112q0 -59 8 -78t38 -19t40 18.5t10 59.5v96q0 117 56.5 165t163.5 48t158.5 -52t51.5 -138v-31h164v-180h-334v139q0 53 -6 70.5t-36.5 17.5t-37 -18.5t-6.5 -81.5v-43
q0 -106 -55 -176t-173 -70t-175 62.5t-57 203.5v80q0 45 -12.5 62.5t-47.5 17.5t-44 -26.5t-9 -108.5q0 -156 -76 -279.5t-221 -194.5t-335 -71t-321.5 64.5t-200.5 181.5t-69 268q0 231 121.5 372.5t369.5 141.5t363 -108.5t115 -289.5t-89 -275.5t-333 -94.5z" />
    <glyph glyph-name="uni1E0C" unicode="&#x1e0c;" horiz-adv-x="1292" 
d="M430 -125h213v-225h-213v225zM631 178q184 0 263 119t79 363t-78 365.5t-264 121.5h-180v-969h180zM55 178h54q43 0 61 19.5t18 60.5v813q0 39 -18 57.5t-61 18.5h-54v178h615q287 0 427 -173.5t140 -481.5t-144.5 -489t-422.5 -181h-615v178z" />
    <glyph glyph-name="uni1E0D" unicode="&#x1e0d;" horiz-adv-x="1216" 
d="M442 -125h213v-225h-213v225zM805 442v101q0 141 -61.5 221t-184.5 80t-181.5 -91t-58.5 -275t56.5 -264.5t177.5 -80.5t186.5 88t65.5 221zM55 480q0 251 116 392.5t333 141.5q113 0 182.5 -29t128.5 -98v203q0 45 -15.5 65.5t-60.5 20.5h-37v180h377v-1108
q0 -45 15.5 -61.5t54.5 -16.5h33v-170h-308l-16 137q-66 -86 -151.5 -126t-212.5 -40q-205 0 -322 129t-117 380z" />
    <glyph glyph-name="uni1E0E" unicode="&#x1e0e;" horiz-adv-x="1292" 
d="M236 -117h612v-166h-612v166zM631 178q184 0 263 119t79 363t-78 365.5t-264 121.5h-180v-969h180zM55 178h54q43 0 61 19.5t18 60.5v813q0 39 -18 57.5t-61 18.5h-54v178h615q287 0 427 -173.5t140 -481.5t-144.5 -489t-422.5 -181h-615v178z" />
    <glyph glyph-name="uni1E0F" unicode="&#x1e0f;" horiz-adv-x="1216" 
d="M303 -117h612v-166h-612v166zM805 442v101q0 141 -61.5 221t-184.5 80t-181.5 -91t-58.5 -275t56.5 -264.5t177.5 -80.5t186.5 88t65.5 221zM55 480q0 251 116 392.5t333 141.5q113 0 182.5 -29t128.5 -98v203q0 45 -15.5 65.5t-60.5 20.5h-37v180h377v-1108
q0 -45 15.5 -61.5t54.5 -16.5h33v-170h-308l-16 137q-66 -86 -151.5 -126t-212.5 -40q-205 0 -322 129t-117 380z" />
    <glyph glyph-name="uni1E20" unicode="&#x1e20;" horiz-adv-x="1280" 
d="M55 654q0 204 72 363t220.5 249t369.5 90q150 0 254 -29t205 -92v-234h-269v142q-76 31 -176 31q-199 0 -304 -137.5t-105 -379.5t109.5 -373.5t307.5 -131.5q123 0 215 32v351h-268v180h539v-609q-194 -137 -498 -137q-215 0 -365.5 87t-228.5 240.5t-78 357.5z
M406 1640h612v-165h-612v165z" />
    <glyph glyph-name="uni1E21" unicode="&#x1e21;" horiz-adv-x="1214" 
d="M805 455v84q0 137 -61.5 225t-184.5 88t-181.5 -84t-58.5 -265t58.5 -265t182.5 -84t184.5 79.5t60.5 221.5zM639 -227q178 0 178 184v158q-57 -66 -131 -95.5t-182 -29.5q-213 0 -331 131t-118 385q0 162 59.5 276.5t165 173t234.5 58.5t206 -40t138 -130l19 139h303
v-172h-35q-39 0 -52.5 -19.5t-13.5 -66.5v-723q0 -188 -112.5 -300t-319.5 -112q-256 1 -414 140v161h232v-84q60 -34 174 -34zM295 1280h612v-166h-612v166z" />
    <glyph glyph-name="uni1E24" unicode="&#x1e24;" horiz-adv-x="1402" 
d="M594 -125h213v-225h-213v225zM459 258q0 -80 76 -80h40v-178h-520v178h54q43 0 60 18.5t17 61.5v813q0 39 -17 57.5t-60 18.5h-54v178h520v-178h-40q-41 0 -58.5 -18.5t-17.5 -57.5v-317h485v315q0 41 -17.5 59.5t-58.5 18.5h-43v178h523v-178h-54q-43 0 -61.5 -18.5
t-18.5 -57.5v-813q0 -41 18.5 -60.5t61.5 -19.5h54v-178h-523v178h43q76 0 76 80v317h-485v-317z" />
    <glyph glyph-name="uni1E25" unicode="&#x1e25;" horiz-adv-x="1247" 
d="M539 -125h213v-225h-213v225zM55 178h54q43 0 61 19.5t18 60.5v834q0 45 -15 65.5t-60 20.5h-58v178h375v-465q78 70 152.5 96.5t185.5 26.5q164 0 239.5 -87t75.5 -255v-418q0 -39 17.5 -57.5t58.5 -18.5h53v-178h-397v670q0 90 -38 130t-123 40t-141 -50.5t-56 -140.5
v-395q0 -39 17.5 -57.5t57.5 -18.5h54v-178h-531v178z" />
    <glyph glyph-name="uni1E2A" unicode="&#x1e2a;" horiz-adv-x="1402" 
d="M354 -96h224q0 -68 31.5 -105t90.5 -37q123 0 123 142h224q0 -141 -92.5 -225.5t-254 -84.5t-254 84t-92.5 226zM459 258q0 -80 76 -80h40v-178h-520v178h54q43 0 60 18.5t17 61.5v813q0 39 -17 57.5t-60 18.5h-54v178h520v-178h-40q-41 0 -58.5 -18.5t-17.5 -57.5v-317
h485v315q0 41 -17.5 59.5t-58.5 18.5h-43v178h523v-178h-54q-43 0 -61.5 -18.5t-18.5 -57.5v-813q0 -41 18.5 -60.5t61.5 -19.5h54v-178h-523v178h43q76 0 76 80v317h-485v-317z" />
    <glyph glyph-name="uni1E2B" unicode="&#x1e2b;" horiz-adv-x="1247" 
d="M299 -96h223q0 -68 32 -105t91 -37q123 0 123 142h223q0 -141 -92 -225.5t-254 -84.5t-254 84t-92 226zM55 178h54q43 0 61 19.5t18 60.5v834q0 45 -15 65.5t-60 20.5h-58v178h375v-465q78 70 152.5 96.5t185.5 26.5q164 0 239.5 -87t75.5 -255v-418q0 -39 17.5 -57.5
t58.5 -18.5h53v-178h-397v670q0 90 -38 130t-123 40t-141 -50.5t-56 -140.5v-395q0 -39 17.5 -57.5t57.5 -18.5h54v-178h-531v178z" />
    <glyph glyph-name="uni1E36" unicode="&#x1e36;" horiz-adv-x="1056" 
d="M420 -125h213v-225h-213v225zM737 178q80 0 80 78v72h246v-328h-1008v178h51q43 0 62.5 18.5t19.5 59.5v815q0 39 -18 57.5t-61 18.5h-54v178h537v-178h-53q-43 0 -61.5 -18.5t-18.5 -57.5v-893h278z" />
    <glyph glyph-name="uni1E37" unicode="&#x1e37;" horiz-adv-x="620" 
d="M211 -125h213v-225h-213v225zM55 178h54q43 0 61 19.5t18 60.5v834q0 45 -15 65.5t-60 20.5h-58v178h402v-1102q0 -39 17.5 -57.5t57.5 -18.5h54v-178h-531v178z" />
    <glyph glyph-name="uni1E38" unicode="&#x1e38;" horiz-adv-x="1056" 
d="M416 -125h213v-225h-213v225zM737 178q80 0 80 78v72h246v-328h-1008v178h51q43 0 62.5 18.5t19.5 59.5v815q0 39 -18 57.5t-61 18.5h-54v178h537v-178h-53q-43 0 -61.5 -18.5t-18.5 -57.5v-893h278zM55 1622h613v-166h-613v166z" />
    <glyph glyph-name="uni1E39" unicode="&#x1e39;" horiz-adv-x="620" 
d="M211 -125h213v-225h-213v225zM55 178h54q43 0 61 19.5t18 60.5v834q0 45 -15 65.5t-60 20.5h-58v178h402v-1102q0 -39 17.5 -57.5t57.5 -18.5h54v-178h-531v178zM-20 1622h612v-166h-612v166z" />
    <glyph glyph-name="uni1E3A" unicode="&#x1e3a;" horiz-adv-x="1056" 
d="M215 -117h612v-166h-612v166zM737 178q80 0 80 78v72h246v-328h-1008v178h51q43 0 62.5 18.5t19.5 59.5v815q0 39 -18 57.5t-61 18.5h-54v178h537v-178h-53q-43 0 -61.5 -18.5t-18.5 -57.5v-893h278z" />
    <glyph glyph-name="uni1E3B" unicode="&#x1e3b;" horiz-adv-x="620" 
d="M10 -117h613v-166h-613v166zM55 178h54q43 0 61 19.5t18 60.5v834q0 45 -15 65.5t-60 20.5h-58v178h402v-1102q0 -39 17.5 -57.5t57.5 -18.5h54v-178h-531v178z" />
    <glyph glyph-name="uni1E42" unicode="&#x1e42;" horiz-adv-x="1585" 
d="M688 -125h213v-225h-213v225zM1055 178q75 0 75 76v643l-245 -573h-185l-247 573v-643q0 -76 79 -76h56v-178h-533v178h54q43 0 61 19.5t18 60.5v809q0 41 -18 60.5t-61 19.5h-54v178h410l330 -760l327 760h408v-178h-55q-76 0 -76 -80v-809q0 -80 76 -80h55v-178h-531
v178h56z" />
    <glyph glyph-name="uni1E43" unicode="&#x1e43;" horiz-adv-x="1779" 
d="M776 -125h213v-225h-213v225zM633 840q-180 0 -180 -191v-395q0 -39 17 -57.5t58 -18.5h58v-178h-531v178h54q43 0 61 19.5t18 60.5v471q0 39 -17 57.5t-58 18.5h-58v178h301l15 -139q115 170 352 170q176 0 258 -148q103 148 292 148t266 -85t77 -255v-420
q0 -39 17.5 -57.5t58.5 -18.5h53v-178h-397v674q0 90 -35 128t-113 38q-172 0 -172 -181v-405q0 -39 17.5 -57.5t58.5 -18.5h63v-178h-391v670q0 88 -34.5 129t-108.5 41z" />
    <glyph glyph-name="uni1E44" unicode="&#x1e44;" horiz-adv-x="1419" 
d="M1309 1147q-76 0 -76 -76v-1071h-207l-567 883v-629q0 -39 17.5 -57.5t58.5 -18.5h53v-178h-533v178h54q80 0 79 76v817q0 39 -18 57.5t-61 18.5h-54v178h338l572 -887v633q0 76 -80 76h-56v178h535v-178h-55zM586 1696h213v-223h-213v223z" />
    <glyph glyph-name="uni1E45" unicode="&#x1e45;" horiz-adv-x="1243" 
d="M748 1014q172 0 251.5 -87t79.5 -255v-418q0 -39 17.5 -57.5t58.5 -18.5h53v-178h-397v670q0 90 -37 130t-123 40t-140 -50.5t-54 -140.5v-395q0 -39 17.5 -57.5t57.5 -18.5h54v-178h-531v178h54q43 0 61 19.5t18 60.5v471q0 39 -17 57.5t-58 18.5h-58v178h305l13 -135
q134 166 375 166zM481 1337h213v-223h-213v223z" />
    <glyph glyph-name="uni1E46" unicode="&#x1e46;" horiz-adv-x="1419" 
d="M604 -125h213v-225h-213v225zM1309 1147q-76 0 -76 -76v-1071h-207l-567 883v-629q0 -39 17.5 -57.5t58.5 -18.5h53v-178h-533v178h54q80 0 79 76v817q0 39 -18 57.5t-61 18.5h-54v178h338l572 -887v633q0 76 -80 76h-56v178h535v-178h-55z" />
    <glyph glyph-name="uni1E47" unicode="&#x1e47;" horiz-adv-x="1243" 
d="M489 -125h213v-225h-213v225zM748 1014q172 0 251.5 -87t79.5 -255v-418q0 -39 17.5 -57.5t58.5 -18.5h53v-178h-397v670q0 90 -37 130t-123 40t-140 -50.5t-54 -140.5v-395q0 -39 17.5 -57.5t57.5 -18.5h54v-178h-531v178h54q43 0 61 19.5t18 60.5v471q0 39 -17 57.5
t-58 18.5h-58v178h305l13 -135q134 166 375 166z" />
    <glyph glyph-name="uni1E48" unicode="&#x1e48;" horiz-adv-x="1419" 
d="M379 -117h612v-166h-612v166zM1309 1147q-76 0 -76 -76v-1071h-207l-567 883v-629q0 -39 17.5 -57.5t58.5 -18.5h53v-178h-533v178h54q80 0 79 76v817q0 39 -18 57.5t-61 18.5h-54v178h338l572 -887v633q0 76 -80 76h-56v178h535v-178h-55z" />
    <glyph glyph-name="uni1E49" unicode="&#x1e49;" horiz-adv-x="1243" 
d="M299 -117h612v-166h-612v166zM748 1014q172 0 251.5 -87t79.5 -255v-418q0 -39 17.5 -57.5t58.5 -18.5h53v-178h-397v670q0 90 -37 130t-123 40t-140 -50.5t-54 -140.5v-395q0 -39 17.5 -57.5t57.5 -18.5h54v-178h-531v178h54q43 0 61 19.5t18 60.5v471q0 39 -17 57.5
t-58 18.5h-58v178h305l13 -135q134 166 375 166z" />
    <glyph glyph-name="uni1E5A" unicode="&#x1e5a;" horiz-adv-x="1288" 
d="M498 -125h213v-225h-213v225zM707 682q233 0 233 240q0 121 -55.5 173t-177.5 52h-256v-465h256zM188 1071q0 76 -82 76h-51v178h693q215 0 335.5 -103.5t120.5 -299.5q0 -147 -76.5 -248t-220.5 -139l160 -293q37 -64 117 -64h49v-178h-479v178h82l-172 326h-213v-256
q0 -37 14 -53.5t53 -16.5h49v-178h-512v178h51q82 0 82 76v817z" />
    <glyph glyph-name="uni1E5B" unicode="&#x1e5b;" horiz-adv-x="823" 
d="M221 -125h213v-225h-213v225zM55 178h54q43 0 61 19.5t18 60.5v471q0 39 -16 57.5t-57 18.5h-60v178h351l26 -109q70 109 250 109h106v-178h-139q-102 0 -147 -47t-45 -144v-360q0 -39 17.5 -57.5t57.5 -18.5h54v-178h-531v178z" />
    <glyph glyph-name="uni1E5C" unicode="&#x1e5c;" horiz-adv-x="1288" 
d="M492 -125h213v-225h-213v225zM707 682q233 0 233 240q0 121 -55.5 173t-177.5 52h-256v-465h256zM188 1071q0 76 -82 76h-51v178h693q215 0 335.5 -103.5t120.5 -299.5q0 -147 -76.5 -248t-220.5 -139l160 -293q37 -64 117 -64h49v-178h-479v178h82l-172 326h-213v-256
q0 -37 14 -53.5t53 -16.5h49v-178h-512v178h51q82 0 82 76v817zM276 1640h613v-165h-613v165z" />
    <glyph glyph-name="uni1E5D" unicode="&#x1e5d;" horiz-adv-x="823" 
d="M221 -125h213v-225h-213v225zM55 178h54q43 0 61 19.5t18 60.5v471q0 39 -16 57.5t-57 18.5h-60v178h351l26 -109q70 109 250 109h106v-178h-139q-102 0 -147 -47t-45 -144v-360q0 -39 17.5 -57.5t57.5 -18.5h54v-178h-531v178zM57 1280h613v-166h-613v166z" />
    <glyph glyph-name="uni1E5E" unicode="&#x1e5e;" horiz-adv-x="1288" 
d="M291 -117h612v-166h-612v166zM707 682q233 0 233 240q0 121 -55.5 173t-177.5 52h-256v-465h256zM188 1071q0 76 -82 76h-51v178h693q215 0 335.5 -103.5t120.5 -299.5q0 -147 -76.5 -248t-220.5 -139l160 -293q37 -64 117 -64h49v-178h-479v178h82l-172 326h-213v-256
q0 -37 14 -53.5t53 -16.5h49v-178h-512v178h51q82 0 82 76v817z" />
    <glyph glyph-name="uni1E5F" unicode="&#x1e5f;" horiz-adv-x="823" 
d="M27 -117h612v-166h-612v166zM55 178h54q43 0 61 19.5t18 60.5v471q0 39 -16 57.5t-57 18.5h-60v178h351l26 -109q70 109 250 109h106v-178h-139q-102 0 -147 -47t-45 -144v-360q0 -39 17.5 -57.5t57.5 -18.5h54v-178h-531v178z" />
    <glyph glyph-name="uni1E60" unicode="&#x1e60;" horiz-adv-x="1110" 
d="M55 348h273v-141q98 -55 243 -55q217 0 217 174q0 106 -88 151t-220 99t-273 140t-141 271q0 186 140 277.5t359 91.5q270 0 465 -156v-203h-274v131q-78 45 -205 46q-219 0 -219 -170q0 -59 41 -103.5t97 -72.5t188 -82t216 -101t132.5 -118t48.5 -183t-56.5 -195
t-166 -131.5t-263 -48.5t-286.5 43t-228 117v219zM442 1696h213v-223h-213v223z" />
    <glyph glyph-name="uni1E61" unicode="&#x1e61;" horiz-adv-x="964" 
d="M485 -31q-263 0 -430 125v172h248v-78q57 -36 157 -36t141.5 20.5t41.5 70.5t-34 74.5t-134 63.5l-94 37q-109 45 -212 105.5t-103 204.5t108.5 215t296.5 71q255 0 416 -123v-172h-240v74q-53 39 -140 39t-131 -22t-44 -75t49 -82.5t156 -68.5l65 -25
q104 -39 205.5 -99.5t101.5 -204.5q0 -286 -424 -286zM371 1337h213v-223h-213v223z" />
    <glyph glyph-name="uni1E62" unicode="&#x1e62;" horiz-adv-x="1110" 
d="M420 -125h213v-225h-213v225zM55 348h273v-141q98 -55 243 -55q217 0 217 174q0 106 -88 151t-220 99t-273 140t-141 271q0 186 140 277.5t359 91.5q270 0 465 -156v-203h-274v131q-78 45 -205 46q-219 0 -219 -170q0 -59 41 -103.5t97 -72.5t188 -82t216 -101
t132.5 -118t48.5 -183t-56.5 -195t-166 -131.5t-263 -48.5t-286.5 43t-228 117v219z" />
    <glyph glyph-name="uni1E63" unicode="&#x1e63;" horiz-adv-x="964" 
d="M360 -125h213v-225h-213v225zM485 -31q-263 0 -430 125v172h248v-78q57 -36 157 -36t141.5 20.5t41.5 70.5t-34 74.5t-134 63.5l-94 37q-109 45 -212 105.5t-103 204.5t108.5 215t296.5 71q255 0 416 -123v-172h-240v74q-53 39 -140 39t-131 -22t-44 -75t49 -82.5
t156 -68.5l65 -25q104 -39 205.5 -99.5t101.5 -204.5q0 -286 -424 -286z" />
    <glyph glyph-name="uni1E6C" unicode="&#x1e6c;" horiz-adv-x="1208" 
d="M471 -125h213v-225h-213v225zM739 254q0 -76 82 -76h51v-178h-534v178h51q43 0 61.5 18.5t18.5 57.5v893h-160q-43 0 -61.5 -17.5t-18.5 -58.5v-76h-194v330h1139v-330h-195v76q0 41 -18.5 58.5t-61.5 17.5h-160v-893z" />
    <glyph glyph-name="uni1E6D" unicode="&#x1e6d;" horiz-adv-x="917" 
d="M422 -125h213v-225h-213v225zM459 289q0 -146 127 -146q78 0 121 37v88h217v-172q-127 -127 -335 -127q-399 0 -399 340v496h-155v178h155v211l269 80v-291h280v-178h-280v-516z" />
    <glyph glyph-name="uni1E6E" unicode="&#x1e6e;" horiz-adv-x="1208" 
d="M279 -117h612v-166h-612v166zM739 254q0 -76 82 -76h51v-178h-534v178h51q43 0 61.5 18.5t18.5 57.5v893h-160q-43 0 -61.5 -17.5t-18.5 -58.5v-76h-194v330h1139v-330h-195v76q0 41 -18.5 58.5t-61.5 17.5h-160v-893z" />
    <glyph glyph-name="uni1E6F" unicode="&#x1e6f;" horiz-adv-x="917" 
d="M225 -117h613v-166h-613v166zM459 289q0 -146 127 -146q78 0 121 37v88h217v-172q-127 -127 -335 -127q-399 0 -399 340v496h-155v178h155v211l269 80v-291h280v-178h-280v-516z" />
    <glyph glyph-name="Wgrave" unicode="&#x1e80;" horiz-adv-x="1767" 
d="M88 1147h-33v178h355l178 -852l194 629h201l197 -629l180 852h352v-178h-35q-63 0 -89.5 -18.5t-39.5 -71.5l-233 -1057h-219l-213 651l-209 -651h-221l-236 1057q-12 53 -38.5 71.5t-90.5 18.5zM516 1800h305l160 -368h-233z" />
    <glyph glyph-name="wgrave" unicode="&#x1e81;" horiz-adv-x="1562" 
d="M84 805h-49v178h323l152 -657l176 569h188l177 -569l155 657h322v-178h-49q-43 0 -64.5 -13.5t-30.5 -50.5l-180 -741h-248l-174 561l-178 -561h-246l-180 741q-8 37 -29.5 50.5t-64.5 13.5zM422 1442h305l160 -369h-234z" />
    <glyph glyph-name="Wacute" unicode="&#x1e82;" horiz-adv-x="1767" 
d="M88 1147h-33v178h355l178 -852l194 629h201l197 -629l180 852h352v-178h-35q-63 0 -89.5 -18.5t-39.5 -71.5l-233 -1057h-219l-213 651l-209 -651h-221l-236 1057q-12 53 -38.5 71.5t-90.5 18.5zM922 1800h303l-232 -368h-229z" />
    <glyph glyph-name="wacute" unicode="&#x1e83;" horiz-adv-x="1562" 
d="M84 805h-49v178h323l152 -657l176 569h188l177 -569l155 657h322v-178h-49q-43 0 -64.5 -13.5t-30.5 -50.5l-180 -741h-248l-174 561l-178 -561h-246l-180 741q-8 37 -29.5 50.5t-64.5 13.5zM809 1442h303l-231 -369h-230z" />
    <glyph glyph-name="Wdieresis" unicode="&#x1e84;" horiz-adv-x="1767" 
d="M88 1147h-33v178h355l178 -852l194 629h201l197 -629l180 852h352v-178h-35q-63 0 -89.5 -18.5t-39.5 -71.5l-233 -1057h-219l-213 651l-209 -651h-221l-236 1057q-12 53 -38.5 71.5t-90.5 18.5zM1006 1688h215v-224h-215v224zM545 1688h213v-224h-213v224z" />
    <glyph glyph-name="wdieresis" unicode="&#x1e85;" horiz-adv-x="1562" 
d="M84 805h-49v178h323l152 -657l176 569h188l177 -569l155 657h322v-178h-49q-43 0 -64.5 -13.5t-30.5 -50.5l-180 -741h-248l-174 561l-178 -561h-246l-180 741q-8 37 -29.5 50.5t-64.5 13.5zM905 1337h215v-223h-215v223zM444 1337h213v-223h-213v223z" />
    <glyph glyph-name="uni1E8E" unicode="&#x1e8e;" horiz-adv-x="1370" 
d="M819 254q0 -76 82 -76h51v-178h-534v178h51q80 0 80 78v233l-311 574q-27 49 -54.5 66.5t-81.5 17.5h-47v178h496v-178h-29q-35 0 -35 -23q0 -16 17 -49l182 -366l180 366q16 33 17 49q0 23 -35 23h-29v178h496v-178h-47q-53 0 -81 -17.5t-54 -66.5l-314 -574v-235z
M580 1647h213v-224h-213v224z" />
    <glyph glyph-name="uni1E8F" unicode="&#x1e8f;" horiz-adv-x="1177" 
d="M645 -410q-266 0 -418 144v153h232v-71q56 -52 178 -52q188 0 188 222v110q-111 -86 -279 -86t-274 93.5t-106 261.5v364q0 76 -78 76h-53v178h403v-629q0 -170 174 -170q90 0 142.5 51.5t52.5 147.5v346q0 76 -78 76h-53v178h405v-950q0 -201 -117.5 -322t-318.5 -121z
M461 1337h213v-223h-213v223z" />
    <glyph glyph-name="uni1E92" unicode="&#x1e92;" horiz-adv-x="1157" 
d="M438 -125h213v-225h-213v225zM399 1147q-43 0 -61.5 -17.5t-18.5 -58.5v-35h-245v289h995v-145l-692 -1002h399q43 0 61.5 18.5t18.5 59.5v33h246v-289h-1047v147l707 1000h-363z" />
    <glyph glyph-name="uni1E93" unicode="&#x1e93;" horiz-adv-x="1028" 
d="M383 -125h213v-225h-213v225zM719 180q82 0 82 76v35h172v-291h-918v131l568 672h-299q-80 0 -80 -76v-37h-172v293h880v-133l-565 -670h332z" />
    <glyph glyph-name="uni1E97" unicode="&#x1e97;" horiz-adv-x="929" 
d="M471 289q0 -146 127 -146q78 0 121 37v88h217v-172q-127 -127 -335 -127t-303 87t-95 253v496h-156v178h156v211l268 80v-291h281v-178h-281v-516zM496 1569h215v-223h-215v223zM35 1569h213v-223h-213v223z" />
    <glyph glyph-name="uni1E9E" unicode="&#x1e9e;" horiz-adv-x="1366" 
d="M1044 383q0 123 -52 176t-169 53h-194v129l289 361q0 53 -59.5 92t-178.5 39t-183.5 -73t-64.5 -220v-940h-397v178h51q45 0 57.5 26.5t12.5 92.5v639q0 219 133 348t416 129q156 0 264 -49t163.5 -130t55.5 -173l-232 -277q188 -14 271.5 -111.5t83.5 -286.5
t-107.5 -303t-322.5 -114q-166 0 -289 70l86 147q77 -43 182 -43q184 0 184 240z" />
    <glyph glyph-name="uni1EA0" unicode="&#x1ea0;" horiz-adv-x="1468" 
d="M606 -125h213v-225h-213v225zM877 551l-140 424l-143 -424h283zM55 178h60q49 0 73.5 15.5t38.5 58.5l379 1073h260l373 -1073q14 -43 40 -58.5t77 -15.5h57v-178h-512v178h94l-73 225h-373l-76 -225h94v-178h-512v178z" />
    <glyph glyph-name="uni1EA1" unicode="&#x1ea1;" horiz-adv-x="1075" 
d="M391 -125h213v-225h-213v225zM666 330v84l-228 -17q-86 -6 -118.5 -35.5t-32.5 -97.5q0 -121 153 -121q107 0 166.5 47.5t59.5 139.5zM936 254q0 -76 65 -76h39v-178h-254l-26 123q-72 -86 -156 -120t-240 -34t-242.5 71.5t-86.5 213.5q0 276 379 297l252 16v121
q0 78 -35 110.5t-123 32.5t-154 -36v-80h-231v188q178 111 396 111t317.5 -94.5t99.5 -257.5v-408z" />
    <glyph glyph-name="uni1EA2" unicode="&#x1ea2;" horiz-adv-x="1468" 
d="M877 551l-140 424l-143 -424h283zM55 178h60q49 0 73.5 15.5t38.5 58.5l379 1073h260l373 -1073q14 -43 40 -58.5t77 -15.5h57v-178h-512v178h94l-73 225h-373l-76 -225h94v-178h-512v178zM625 1561q117 0 116 79q0 35 -20.5 50.5t-72.5 15.5t-93 -18v139q63 25 166 24
q250 0 250 -174q0 -127 -127 -166v-84h-219v134z" />
    <glyph glyph-name="uni1EA3" unicode="&#x1ea3;" horiz-adv-x="1075" 
d="M666 330v84l-228 -17q-86 -6 -118.5 -35.5t-32.5 -97.5q0 -121 153 -121q107 0 166.5 47.5t59.5 139.5zM936 254q0 -76 65 -76h39v-178h-254l-26 123q-72 -86 -156 -120t-240 -34t-242.5 71.5t-86.5 213.5q0 276 379 297l252 16v121q0 78 -35 110.5t-123 32.5t-154 -36
v-80h-231v188q178 111 396 111t317.5 -94.5t99.5 -257.5v-408zM414 1204q117 0 116 80q0 35 -20.5 50.5t-72.5 15.5t-93 -19v139q63 25 166 25q250 0 250 -174q0 -127 -127 -166v-84h-219v133z" />
    <glyph glyph-name="uni1EA4" unicode="&#x1ea4;" horiz-adv-x="1468" 
d="M877 551l-140 424l-143 -424h283zM55 178h60q49 0 73.5 15.5t38.5 58.5l379 1073h260l373 -1073q14 -43 40 -58.5t77 -15.5h57v-178h-512v178h94l-73 225h-373l-76 -225h94v-178h-512v178zM612 1722h238l225 -282h-231l-113 159l-119 -159h-227zM1071 1939h268l-204 -272
h-193z" />
    <glyph glyph-name="uni1EA5" unicode="&#x1ea5;" horiz-adv-x="1136" 
d="M666 330v84l-228 -17q-86 -6 -118.5 -35.5t-32.5 -97.5q0 -121 153 -121q107 0 166.5 47.5t59.5 139.5zM936 254q0 -76 65 -76h39v-178h-254l-26 123q-72 -86 -156 -120t-240 -34t-242.5 71.5t-86.5 213.5q0 276 379 297l252 16v121q0 78 -35 110.5t-123 32.5t-154 -36
v-80h-231v188q178 111 396 111t317.5 -94.5t99.5 -257.5v-408zM395 1356h238l225 -283h-231l-113 160l-119 -160h-227zM854 1573h268l-204 -273h-193z" />
    <glyph glyph-name="uni1EA6" unicode="&#x1ea6;" horiz-adv-x="1468" 
d="M877 551l-140 424l-143 -424h283zM55 178h60q49 0 73.5 15.5t38.5 58.5l379 1073h260l373 -1073q14 -43 40 -58.5t77 -15.5h57v-178h-512v178h94l-73 225h-373l-76 -225h94v-178h-512v178zM614 1722h238l227 -282h-227l-119 159l-112 -159h-232zM125 1939h268l129 -272
h-192z" />
    <glyph glyph-name="uni1EA7" unicode="&#x1ea7;" horiz-adv-x="1075" 
d="M666 330v84l-228 -17q-86 -6 -118.5 -35.5t-32.5 -97.5q0 -121 153 -121q107 0 166.5 47.5t59.5 139.5zM936 254q0 -76 65 -76h39v-178h-254l-26 123q-72 -86 -156 -120t-240 -34t-242.5 71.5t-86.5 213.5q0 276 379 297l252 16v121q0 78 -35 110.5t-123 32.5t-154 -36
v-80h-231v188q178 111 396 111t317.5 -94.5t99.5 -257.5v-408zM408 1356h237l227 -283h-227l-119 160l-112 -160h-232zM-109 1573h269l129 -273h-193z" />
    <glyph glyph-name="uni1EA8" unicode="&#x1ea8;" horiz-adv-x="1468" 
d="M877 551l-140 424l-143 -424h283zM55 178h60q49 0 73.5 15.5t38.5 58.5l379 1073h260l373 -1073q14 -43 40 -58.5t77 -15.5h57v-178h-512v178h94l-73 225h-373l-76 -225h94v-178h-512v178zM612 1716h240l225 -282h-227l-119 159l-113 -159h-229zM1071 1704h-172v88
q57 0 79.5 14.5t22.5 46.5q0 50 -65 50q-35 0 -76 -17v115q51 18 131 18q188 0 189 -141q0 -99 -109 -127v-47z" />
    <glyph glyph-name="uni1EA9" unicode="&#x1ea9;" horiz-adv-x="1075" 
d="M666 330v84l-228 -17q-86 -6 -118.5 -35.5t-32.5 -97.5q0 -121 153 -121q107 0 166.5 47.5t59.5 139.5zM936 254q0 -76 65 -76h39v-178h-254l-26 123q-72 -86 -156 -120t-240 -34t-242.5 71.5t-86.5 213.5q0 276 379 297l252 16v121q0 78 -35 110.5t-123 32.5t-154 -36
v-80h-231v188q178 111 396 111t317.5 -94.5t99.5 -257.5v-408zM412 1356h239l226 -283h-228l-119 160l-112 -160h-230zM979 1518q0 -100 -109 -127v-48h-172v89q57 0 80 14t23 47q0 49 -66 49q-35 0 -76 -16v114q51 18 132 19q188 0 188 -141z" />
    <glyph glyph-name="uni1EAA" unicode="&#x1eaa;" horiz-adv-x="1468" 
d="M877 551l-140 424l-143 -424h283zM55 178h60q49 0 73.5 15.5t38.5 58.5l379 1073h260l373 -1073q14 -43 40 -58.5t77 -15.5h57v-178h-512v178h94l-73 225h-373l-76 -225h94v-178h-512v178zM616 1716h240l225 -282h-227l-119 159l-112 -159h-230zM623 1829q-64 0 -64 -74
h-133q0 106 43 155.5t120 49.5t156.5 -39t106.5 -39q63 0 63 72h134q0 -106 -39.5 -155.5t-111.5 -49.5q-71 0 -159 40q-87 40 -116 40z" />
    <glyph glyph-name="uni1EAB" unicode="&#x1eab;" horiz-adv-x="1075" 
d="M666 330v84l-228 -17q-86 -6 -118.5 -35.5t-32.5 -97.5q0 -121 153 -121q107 0 166.5 47.5t59.5 139.5zM936 254q0 -76 65 -76h39v-178h-254l-26 123q-72 -86 -156 -120t-240 -34t-242.5 71.5t-86.5 213.5q0 276 379 297l252 16v121q0 78 -35 110.5t-123 32.5t-154 -36
v-80h-231v188q178 111 396 111t317.5 -94.5t99.5 -257.5v-408zM393 1356h240l225 -283h-227l-119 160l-113 -160h-229zM399 1468q-63 0 -63 -73h-133q0 106 43 155t117 49t156.5 -38.5t109.5 -38.5q63 0 63 71h133q0 -106 -40 -155t-130 -49q-52 -1 -138 39q-85 40 -118 40z
" />
    <glyph glyph-name="uni1EAC" unicode="&#x1eac;" horiz-adv-x="1468" 
d="M631 -125h213v-225h-213v225zM877 551l-140 424l-143 -424h283zM55 178h60q49 0 73.5 15.5t38.5 58.5l379 1073h260l373 -1073q14 -43 40 -58.5t77 -15.5h57v-178h-512v178h94l-73 225h-373l-76 -225h94v-178h-512v178zM616 1829h246l266 -395h-247l-144 245l-143 -245
h-246z" />
    <glyph glyph-name="uni1EAD" unicode="&#x1ead;" horiz-adv-x="1075" 
d="M408 -125h213v-225h-213v225zM666 330v84l-228 -17q-86 -6 -118.5 -35.5t-32.5 -97.5q0 -121 153 -121q107 0 166.5 47.5t59.5 139.5zM936 254q0 -76 65 -76h39v-178h-254l-26 123q-72 -86 -156 -120t-240 -34t-242.5 71.5t-86.5 213.5q0 276 379 297l252 16v121
q0 78 -35 110.5t-123 32.5t-154 -36v-80h-231v188q178 111 396 111t317.5 -94.5t99.5 -257.5v-408zM393 1466h246l266 -395h-248l-143 246l-143 -246h-246z" />
    <glyph glyph-name="uni1EAE" unicode="&#x1eae;" horiz-adv-x="1468" 
d="M877 551l-140 424l-143 -424h283zM55 178h60q49 0 73.5 15.5t38.5 58.5l379 1073h260l373 -1073q14 -43 40 -58.5t77 -15.5h57v-178h-512v178h94l-73 225h-373l-76 -225h94v-178h-512v178zM377 1757h188q0 -80 43 -124t127 -44q174 0 174 168h187q0 -152 -103 -238.5
t-257 -86.5t-256.5 88t-102.5 237zM758 2040h256l-205 -291h-178z" />
    <glyph glyph-name="uni1EAF" unicode="&#x1eaf;" horiz-adv-x="1075" 
d="M666 330v84l-228 -17q-86 -6 -118.5 -35.5t-32.5 -97.5q0 -121 153 -121q107 0 166.5 47.5t59.5 139.5zM936 254q0 -76 65 -76h39v-178h-254l-26 123q-72 -86 -156 -120t-240 -34t-242.5 71.5t-86.5 213.5q0 276 379 297l252 16v121q0 78 -35 110.5t-123 32.5t-154 -36
v-80h-231v188q178 111 396 111t317.5 -94.5t99.5 -257.5v-408zM166 1399h188q0 -80 43 -124t127 -44q174 0 174 168h187q0 -152 -102.5 -239t-256.5 -87t-257 88t-103 238zM547 1681h256l-205 -290h-178z" />
    <glyph glyph-name="uni1EB0" unicode="&#x1eb0;" horiz-adv-x="1468" 
d="M877 551l-140 424l-143 -424h283zM55 178h60q49 0 73.5 15.5t38.5 58.5l379 1073h260l373 -1073q14 -43 40 -58.5t77 -15.5h57v-178h-512v178h94l-73 225h-373l-76 -225h94v-178h-512v178zM379 1757h188q0 -168 172 -168q84 0 128 44t44 124h187q0 -152 -102.5 -238.5
t-256 -86.5t-257 88t-103.5 237zM463 2040h256l127 -291h-180z" />
    <glyph glyph-name="uni1EB1" unicode="&#x1eb1;" horiz-adv-x="1075" 
d="M666 330v84l-228 -17q-86 -6 -118.5 -35.5t-32.5 -97.5q0 -121 153 -121q107 0 166.5 47.5t59.5 139.5zM936 254q0 -76 65 -76h39v-178h-254l-26 123q-72 -86 -156 -120t-240 -34t-242.5 71.5t-86.5 213.5q0 276 379 297l252 16v121q0 78 -35 110.5t-123 32.5t-154 -36
v-80h-231v188q178 111 396 111t317.5 -94.5t99.5 -257.5v-408zM152 1399h188q0 -168 172 -168q84 0 128 44t44 124h186q0 -152 -102 -239t-256 -87t-257 88t-103 238zM236 1681h256l126 -290h-180z" />
    <glyph glyph-name="uni1EB2" unicode="&#x1eb2;" horiz-adv-x="1468" 
d="M877 551l-140 424l-143 -424h283zM55 178h60q49 0 73.5 15.5t38.5 58.5l379 1073h260l373 -1073q14 -43 40 -58.5t77 -15.5h57v-178h-512v178h94l-73 225h-373l-76 -225h94v-178h-512v178zM377 1757h188q0 -80 43 -124t127 -44q174 0 174 168h187q0 -152 -103 -238.5
t-257 -86.5t-256.5 88t-102.5 237zM815 1733h-174v88q57 0 79.5 14t22.5 47q0 49 -63 49q-33 0 -78 -16v115q55 18 135 18q186 0 187 -141q0 -99 -109 -127v-47z" />
    <glyph glyph-name="uni1EB3" unicode="&#x1eb3;" horiz-adv-x="1075" 
d="M666 330v84l-228 -17q-86 -6 -118.5 -35.5t-32.5 -97.5q0 -121 153 -121q107 0 166.5 47.5t59.5 139.5zM936 254q0 -76 65 -76h39v-178h-254l-26 123q-72 -86 -156 -120t-240 -34t-242.5 71.5t-86.5 213.5q0 276 379 297l252 16v121q0 78 -35 110.5t-123 32.5t-154 -36
v-80h-231v188q178 111 396 111t317.5 -94.5t99.5 -257.5v-408zM156 1399h188q0 -80 43 -124t127 -44q174 0 174 168h186q0 -152 -102 -239t-257 -87t-257 88t-102 238zM702 1548q0 -98 -108 -127v-47h-174v88q57 0 79.5 14.5t22.5 47.5q0 49 -63 49q-33 0 -78 -17v115
q55 18 135 19q186 0 186 -142z" />
    <glyph glyph-name="uni1EB4" unicode="&#x1eb4;" horiz-adv-x="1468" 
d="M877 551l-140 424l-143 -424h283zM55 178h60q49 0 73.5 15.5t38.5 58.5l379 1073h260l373 -1073q14 -43 40 -58.5t77 -15.5h57v-178h-512v178h94l-73 225h-373l-76 -225h94v-178h-512v178zM379 1757h188q0 -80 43 -124t127 -44q174 0 174 168h187q0 -152 -103 -238.5
t-257 -86.5t-256.5 88t-102.5 237zM625 1894q-64 0 -64 -73h-133q0 106 43 155t135 49q57 -1 138 -39t112 -38t44 17t13 54h134q0 -106 -39 -155t-123 -49t-156 45q-70 34 -104 34z" />
    <glyph glyph-name="uni1EB5" unicode="&#x1eb5;" horiz-adv-x="1075" 
d="M666 330v84l-228 -17q-86 -6 -118.5 -35.5t-32.5 -97.5q0 -121 153 -121q107 0 166.5 47.5t59.5 139.5zM936 254q0 -76 65 -76h39v-178h-254l-26 123q-72 -86 -156 -120t-240 -34t-242.5 71.5t-86.5 213.5q0 276 379 297l252 16v121q0 78 -35 110.5t-123 32.5t-154 -36
v-80h-231v188q178 111 396 111t317.5 -94.5t99.5 -257.5v-408zM164 1399h188q0 -80 43 -124t127 -44q174 0 174 168h187q0 -152 -102.5 -239t-256.5 -87t-257 88t-103 238zM410 1536q-64 0 -64 -74h-133q0 106 43 155.5t135 49.5q57 0 139 -39t112 -39q56 0 56 72h133
q0 -106 -38.5 -155.5t-113.5 -49.5t-156 40t-113 40z" />
    <glyph glyph-name="uni1EB6" unicode="&#x1eb6;" horiz-adv-x="1468" 
d="M631 -125h213v-225h-213v225zM877 551l-140 424l-143 -424h283zM55 178h60q49 0 73.5 15.5t38.5 58.5l379 1073h260l373 -1073q14 -43 40 -58.5t77 -15.5h57v-178h-512v178h94l-73 225h-373l-76 -225h94v-178h-512v178zM391 1739h223q0 -68 32 -105t91 -37q123 0 123 142
h223q0 -139 -92 -223t-254 -84t-254 83.5t-92 223.5z" />
    <glyph glyph-name="uni1EB7" unicode="&#x1eb7;" horiz-adv-x="1075" 
d="M418 -125h213v-225h-213v225zM666 330v84l-228 -17q-86 -6 -118.5 -35.5t-32.5 -97.5q0 -121 153 -121q107 0 166.5 47.5t59.5 139.5zM936 254q0 -76 65 -76h39v-178h-254l-26 123q-72 -86 -156 -120t-240 -34t-242.5 71.5t-86.5 213.5q0 276 379 297l252 16v121
q0 78 -35 110.5t-123 32.5t-154 -36v-80h-231v188q178 111 396 111t317.5 -94.5t99.5 -257.5v-408zM180 1380h223q0 -68 32 -104.5t91 -36.5q123 0 123 141h223q0 -139 -92 -223t-253.5 -84t-254 84t-92.5 223z" />
    <glyph glyph-name="uni1EB8" unicode="&#x1eb8;" horiz-adv-x="1118" 
d="M430 -125h213v-225h-213v225zM737 178q80 0 80 78v37h246v-293h-1008v178h54q43 0 61 19.5t18 60.5v813q0 39 -18 57.5t-61 18.5h-54v178h1008v-291h-246v37q0 76 -80 76h-278v-393h315v-181h-315v-395h278z" />
    <glyph glyph-name="uni1EB9" unicode="&#x1eb9;" horiz-adv-x="1107" 
d="M461 -125h213v-225h-213v225zM786 582q0 249 -223 249q-117 0 -179 -64.5t-62 -184.5h464zM322 428q0 -276 194.5 -276t269.5 32v72h232v-156q-156 -131 -419 -131t-403.5 130t-140.5 389t133.5 392.5t375.5 133.5t365.5 -132t123.5 -358v-96h-731z" />
    <glyph glyph-name="uni1EBA" unicode="&#x1eba;" horiz-adv-x="1118" 
d="M737 178q80 0 80 78v37h246v-293h-1008v178h54q43 0 61 19.5t18 60.5v813q0 39 -18 57.5t-61 18.5h-54v178h1008v-291h-246v37q0 76 -80 76h-278v-393h315v-181h-315v-395h278zM434 1567q117 0 117 80q0 35 -20.5 50t-72.5 15t-93 -18v139q63 25 165 25q250 0 250 -175
q0 -127 -127 -165v-84h-219v133z" />
    <glyph glyph-name="uni1EBB" unicode="&#x1ebb;" horiz-adv-x="1107" 
d="M786 582q0 249 -223 249q-117 0 -179 -64.5t-62 -184.5h464zM322 428q0 -276 194.5 -276t269.5 32v72h232v-156q-156 -131 -419 -131t-403.5 130t-140.5 389t133.5 392.5t375.5 133.5t365.5 -132t123.5 -358v-96h-731zM457 1204q117 0 116 80q0 35 -20.5 50.5t-72.5 15.5
t-93 -19v139q63 25 166 25q250 0 250 -174q0 -127 -127 -166v-84h-219v133z" />
    <glyph glyph-name="uni1EBC" unicode="&#x1ebc;" horiz-adv-x="1118" 
d="M737 178q80 0 80 78v37h246v-293h-1008v178h54q43 0 61 19.5t18 60.5v813q0 39 -18 57.5t-61 18.5h-54v178h1008v-291h-246v37q0 76 -80 76h-278v-393h315v-181h-315v-395h278zM715 1640q90 0 90 107h190q0 -164 -55 -238.5t-161 -74.5t-200 51t-140 51t-68.5 -23.5
t-22.5 -78.5h-192q0 159 58 236t183 77q55 0 96.5 -15.5t90.5 -41.5t75.5 -38t55.5 -12z" />
    <glyph glyph-name="uni1EBD" unicode="&#x1ebd;" horiz-adv-x="1107" 
d="M786 582q0 249 -223 249q-117 0 -179 -64.5t-62 -184.5h464zM322 428q0 -276 194.5 -276t269.5 32v72h232v-156q-156 -131 -419 -131t-403.5 130t-140.5 389t133.5 392.5t375.5 133.5t365.5 -132t123.5 -358v-96h-731zM721 1280q90 0 90 106h190q0 -164 -55 -238.5
t-178 -74.5q-85 -1 -181 51t-142 52q-91 0 -91 -103h-192q0 160 58.5 236.5t182.5 76.5q84 0 180 -53t138 -53z" />
    <glyph glyph-name="uni1EBE" unicode="&#x1ebe;" horiz-adv-x="1118" 
d="M737 178q80 0 80 78v37h246v-293h-1008v178h54q43 0 61 19.5t18 60.5v813q0 39 -18 57.5t-61 18.5h-54v178h1008v-291h-246v37q0 76 -80 76h-278v-393h315v-181h-315v-395h278zM430 1716h238l225 -282h-231l-113 159l-119 -159h-227zM889 1933h268l-205 -272h-192z" />
    <glyph glyph-name="uni1EBF" unicode="&#x1ebf;" horiz-adv-x="1107" 
d="M786 582q0 249 -223 249q-117 0 -179 -64.5t-62 -184.5h464zM322 428q0 -276 194.5 -276t269.5 32v72h232v-156q-156 -131 -419 -131t-403.5 130t-140.5 389t133.5 392.5t375.5 133.5t365.5 -132t123.5 -358v-96h-731zM442 1356h238l225 -283h-231l-113 160l-119 -160
h-227zM922 1573h268l-205 -273h-192z" />
    <glyph glyph-name="uni1EC0" unicode="&#x1ec0;" horiz-adv-x="1118" 
d="M737 178q80 0 80 78v37h246v-293h-1008v178h54q43 0 61 19.5t18 60.5v813q0 39 -18 57.5t-61 18.5h-54v178h1008v-291h-246v37q0 76 -80 76h-278v-393h315v-181h-315v-395h278zM449 1716h237l227 -282h-227l-119 159l-112 -159h-232zM-88 1933h268l129 -272h-192z" />
    <glyph glyph-name="uni1EC1" unicode="&#x1ec1;" horiz-adv-x="1107" 
d="M786 582q0 249 -223 249q-117 0 -179 -64.5t-62 -184.5h464zM322 428q0 -276 194.5 -276t269.5 32v72h232v-156q-156 -131 -419 -131t-403.5 130t-140.5 389t133.5 392.5t375.5 133.5t365.5 -132t123.5 -358v-96h-731zM426 1356h238l227 -283h-227l-119 160l-113 -160
h-231zM-78 1573h268l129 -273h-192z" />
    <glyph glyph-name="uni1EC2" unicode="&#x1ec2;" horiz-adv-x="1118" 
d="M737 178q80 0 80 78v37h246v-293h-1008v178h54q43 0 61 19.5t18 60.5v813q0 39 -18 57.5t-61 18.5h-54v178h1008v-291h-246v37q0 76 -80 76h-278v-393h315v-181h-315v-395h278zM424 1716h240l225 -282h-227l-119 159l-113 -159h-229zM991 1878q0 -100 -108 -127v-47h-172
v88q57 0 79.5 14.5t22.5 46.5q0 50 -65 50q-35 0 -76 -17v115q51 18 131 18q188 0 188 -141z" />
    <glyph glyph-name="uni1EC3" unicode="&#x1ec3;" horiz-adv-x="1107" 
d="M786 582q0 249 -223 249q-117 0 -179 -64.5t-62 -184.5h464zM322 428q0 -276 194.5 -276t269.5 32v72h232v-156q-156 -131 -419 -131t-403.5 130t-140.5 389t133.5 392.5t375.5 133.5t365.5 -132t123.5 -358v-96h-731zM449 1356h239l225 -283h-227l-119 160l-112 -160
h-230zM907 1343h-172v89q57 0 80 14t23 47q0 49 -66 49q-35 0 -76 -16v114q51 18 131 19q188 0 189 -141q0 -100 -109 -127v-48z" />
    <glyph glyph-name="uni1EC4" unicode="&#x1ec4;" horiz-adv-x="1118" 
d="M737 178q80 0 80 78v37h246v-293h-1008v178h54q43 0 61 19.5t18 60.5v813q0 39 -18 57.5t-61 18.5h-54v178h1008v-291h-246v37q0 76 -80 76h-278v-393h315v-181h-315v-395h278zM436 1716h240l225 -282h-227l-119 159l-113 -159h-229zM442 1829q-63 0 -63 -74h-133
q0 106 43 155.5t119 49.5t156.5 -39t107.5 -39q63 0 63 72h133q0 -106 -40 -155.5t-130 -49.5q-52 0 -139 40t-117 40z" />
    <glyph glyph-name="uni1EC5" unicode="&#x1ec5;" horiz-adv-x="1107" 
d="M786 582q0 249 -223 249q-117 0 -179 -64.5t-62 -184.5h464zM322 428q0 -276 194.5 -276t269.5 32v72h232v-156q-156 -131 -419 -131t-403.5 130t-140.5 389t133.5 392.5t375.5 133.5t365.5 -132t123.5 -358v-96h-731zM440 1356h240l225 -283h-227l-119 160l-113 -160
h-229zM446 1468q-63 0 -63 -73h-133q0 106 43 155t119 49t156.5 -38.5t107.5 -38.5q63 0 63 71h133q0 -106 -39.5 -155t-130.5 -49q-52 -1 -138 39q-85 40 -118 40z" />
    <glyph glyph-name="uni1EC6" unicode="&#x1ec6;" horiz-adv-x="1118" 
d="M449 -125h213v-225h-213v225zM737 178q80 0 80 78v37h246v-293h-1008v178h54q43 0 61 19.5t18 60.5v813q0 39 -18 57.5t-61 18.5h-54v178h1008v-291h-246v37q0 76 -80 76h-278v-393h315v-181h-315v-395h278zM430 1829h246l266 -395h-248l-143 245l-143 -245h-246z" />
    <glyph glyph-name="uni1EC7" unicode="&#x1ec7;" horiz-adv-x="1107" 
d="M453 -125h213v-225h-213v225zM786 582q0 249 -223 249q-117 0 -179 -64.5t-62 -184.5h464zM322 428q0 -276 194.5 -276t269.5 32v72h232v-156q-156 -131 -419 -131t-403.5 130t-140.5 389t133.5 392.5t375.5 133.5t365.5 -132t123.5 -358v-96h-731zM440 1466h246
l266 -395h-247l-144 246l-143 -246h-246z" />
    <glyph glyph-name="uni1EC8" unicode="&#x1ec8;" horiz-adv-x="641" 
d="M55 178h54q43 0 61 19.5t18 60.5v813q0 39 -18 57.5t-61 18.5h-54v178h531v-178h-54q-41 0 -58 -18.5t-17 -57.5v-817q0 -39 17.5 -57.5t57.5 -18.5h54v-178h-531v178zM201 1565q117 0 116 80q0 35 -20.5 50t-72.5 15t-93 -18v139q63 25 166 24q250 0 250 -174
q0 -127 -127 -165v-84h-219v133z" />
    <glyph glyph-name="uni1EC9" unicode="&#x1ec9;" horiz-adv-x="600" 
d="M35 178h53q43 0 61.5 19.5t18.5 60.5v461q0 45 -15.5 65.5t-60.5 20.5h-57v178h401v-729q0 -39 17.5 -57.5t58.5 -18.5h53v-178h-530v178zM158 1182q117 0 116 80q0 35 -20.5 50t-73.5 15t-92 -18v139q63 25 166 25q250 0 250 -175q0 -127 -127 -165v-84h-219v133z" />
    <glyph glyph-name="uni1ECA" unicode="&#x1eca;" horiz-adv-x="641" 
d="M213 -125h213v-225h-213v225zM55 178h54q43 0 61 19.5t18 60.5v813q0 39 -18 57.5t-61 18.5h-54v178h531v-178h-54q-41 0 -58 -18.5t-17 -57.5v-817q0 -39 17.5 -57.5t57.5 -18.5h54v-178h-531v178z" />
    <glyph glyph-name="uni1ECB" unicode="&#x1ecb;" horiz-adv-x="600" 
d="M193 -125h213v-225h-213v225zM35 178h53q43 0 61.5 19.5t18.5 60.5v461q0 45 -15.5 65.5t-60.5 20.5h-57v178h401v-729q0 -39 17.5 -57.5t58.5 -18.5h53v-178h-530v178zM158 1348h282v-218h-282v218z" />
    <glyph glyph-name="uni1ECC" unicode="&#x1ecc;" horiz-adv-x="1357" 
d="M571 -125h213v-225h-213v225zM1036 660q0 276 -85 395t-271 119q-127 0 -242.5 -75t-115.5 -442q0 -274 85 -389.5t272 -115.5t272 116t85 392zM55 659q0 348 149.5 522.5t473.5 174.5t474.5 -174t150.5 -522t-154.5 -519.5t-470.5 -171.5t-469.5 171t-153.5 519z" />
    <glyph glyph-name="uni1ECD" unicode="&#x1ecd;" horiz-adv-x="1142" 
d="M463 -125h213v-225h-213v225zM821 490q0 175 -60.5 258t-189.5 83t-189 -82.5t-60 -258.5t60 -257t189 -81t189.5 81.5t60.5 256.5zM55 490q0 250 131 387t386 137t385 -136.5t130 -387.5t-132 -386t-384 -135t-384 135.5t-132 385.5z" />
    <glyph glyph-name="uni1ECE" unicode="&#x1ece;" horiz-adv-x="1357" 
d="M1036 660q0 276 -85 395t-271 119q-127 0 -242.5 -75t-115.5 -442q0 -274 85 -389.5t272 -115.5t272 116t85 392zM55 659q0 348 149.5 522.5t473.5 174.5t474.5 -174t150.5 -522t-154.5 -519.5t-470.5 -171.5t-469.5 171t-153.5 519zM549 1567q117 0 117 80q0 35 -21 50
t-73 15t-93 -18v139q63 25 166 25q250 0 250 -175q0 -127 -127 -165v-84h-219v133z" />
    <glyph glyph-name="uni1ECF" unicode="&#x1ecf;" horiz-adv-x="1142" 
d="M821 490q0 175 -60.5 258t-189.5 83t-189 -82.5t-60 -258.5t60 -257t189 -81t189.5 81.5t60.5 256.5zM55 490q0 250 131 387t386 137t385 -136.5t130 -387.5t-132 -386t-384 -135t-384 135.5t-132 385.5zM455 1204q117 0 116 80q0 35 -20.5 50.5t-73.5 15.5t-92 -19v139
q63 25 166 25q250 0 250 -174q0 -127 -127 -166v-84h-219v133z" />
    <glyph glyph-name="uni1ED0" unicode="&#x1ed0;" horiz-adv-x="1357" 
d="M1036 660q0 276 -85 395t-271 119q-127 0 -242.5 -75t-115.5 -442q0 -274 85 -389.5t272 -115.5t272 116t85 392zM55 659q0 348 149.5 522.5t473.5 174.5t474.5 -174t150.5 -522t-154.5 -519.5t-470.5 -171.5t-469.5 171t-153.5 519zM580 1716h237l225 -282h-231
l-113 159l-118 -159h-228zM1038 1933h269l-205 -272h-193z" />
    <glyph glyph-name="uni1ED1" unicode="&#x1ed1;" horiz-adv-x="1142" 
d="M821 490q0 175 -60.5 258t-189.5 83t-189 -82.5t-60 -258.5t60 -257t189 -81t189.5 81.5t60.5 256.5zM55 490q0 250 131 387t386 137t385 -136.5t130 -387.5t-132 -386t-384 -135t-384 135.5t-132 385.5zM455 1356h237l226 -283h-232l-113 160l-118 -160h-228zM934 1573
h268l-205 -273h-192z" />
    <glyph glyph-name="uni1ED2" unicode="&#x1ed2;" horiz-adv-x="1357" 
d="M1036 660q0 276 -85 395t-271 119q-127 0 -242.5 -75t-115.5 -442q0 -274 85 -389.5t272 -115.5t272 116t85 392zM55 659q0 348 149.5 522.5t473.5 174.5t474.5 -174t150.5 -522t-154.5 -519.5t-470.5 -171.5t-469.5 171t-153.5 519zM565 1716h238l227 -282h-227
l-119 159l-113 -159h-231zM76 1933h268l129 -272h-192z" />
    <glyph glyph-name="uni1ED3" unicode="&#x1ed3;" horiz-adv-x="1142" 
d="M821 490q0 175 -60.5 258t-189.5 83t-189 -82.5t-60 -258.5t60 -257t189 -81t189.5 81.5t60.5 256.5zM55 490q0 250 131 387t386 137t385 -136.5t130 -387.5t-132 -386t-384 -135t-384 135.5t-132 385.5zM471 1356h238l227 -283h-227l-119 160l-113 -160h-231zM-31 1573
h269l129 -273h-193z" />
    <glyph glyph-name="uni1ED4" unicode="&#x1ed4;" horiz-adv-x="1357" 
d="M1036 660q0 276 -85 395t-271 119q-127 0 -242.5 -75t-115.5 -442q0 -274 85 -389.5t272 -115.5t272 116t85 392zM55 659q0 348 149.5 522.5t473.5 174.5t474.5 -174t150.5 -522t-154.5 -519.5t-470.5 -171.5t-469.5 171t-153.5 519zM567 1716h240l225 -282h-227
l-119 159l-113 -159h-229zM1026 1704h-172v88q57 0 79.5 14.5t22.5 46.5q0 50 -65 50q-35 0 -76 -17v115q51 18 131 18q188 0 189 -141q0 -99 -109 -127v-47z" />
    <glyph glyph-name="uni1ED5" unicode="&#x1ed5;" horiz-adv-x="1142" 
d="M821 490q0 175 -60.5 258t-189.5 83t-189 -82.5t-60 -258.5t60 -257t189 -81t189.5 81.5t60.5 256.5zM55 490q0 250 131 387t386 137t385 -136.5t130 -387.5t-132 -386t-384 -135t-384 135.5t-132 385.5zM475 1356h240l225 -283h-227l-119 160l-113 -160h-229zM1042 1518
q0 -100 -108 -127v-48h-172v89q57 0 79.5 14t22.5 47q0 49 -65 49q-35 0 -76 -16v114q51 18 131 19q188 0 188 -141z" />
    <glyph glyph-name="uni1ED6" unicode="&#x1ed6;" horiz-adv-x="1357" 
d="M1036 660q0 276 -85 395t-271 119q-127 0 -242.5 -75t-115.5 -442q0 -274 85 -389.5t272 -115.5t272 116t85 392zM55 659q0 348 149.5 522.5t473.5 174.5t474.5 -174t150.5 -522t-154.5 -519.5t-470.5 -171.5t-469.5 171t-153.5 519zM319 1757h189q0 -80 43 -124t127 -44
q174 0 174 168h186q0 -152 -102 -238.5t-257 -86.5t-257.5 88t-102.5 237zM502 1821h-133q0 106 43 155t135 49q56 -1 137 -39t112 -38q32 0 45 17t13 54h133q0 -106 -38.5 -155t-122.5 -49t-156 45q-70 34 -105 34q-63 0 -63 -73z" />
    </font>
</defs>
</svg>
