<svg id="Capa_1" data-name="Capa 1" xmlns="http://www.w3.org/2000/svg" viewBox="0 0 555.12 1790.97"><defs><style>.cls-1,.cls-7{fill:none;stroke-miterlimit:10;}.cls-1{stroke:#3056de;stroke-width:4px;}.cls-12,.cls-2,.cls-24,.cls-5,.cls-8,.cls-9{fill:#4058da;}.cls-3{fill:#fff;}.cls-4{fill:#3056de;}.cls-5{font-size:33px;letter-spacing:0.1em;}.cls-24,.cls-5,.cls-8,.cls-9{font-family:Lato-Bold, Lato;font-weight:700;}.cls-6{letter-spacing:0.09em;}.cls-7{stroke:#fff;stroke-width:3px;}.cls-8{font-size:22px;}.cls-9{font-size:15px;}.cls-10{letter-spacing:-0.02em;}.cls-11{letter-spacing:-0.03em;}.cls-12{font-size:18px;font-family:Pridi-Regular, Pridi;}.cls-13{letter-spacing:-0.01em;}.cls-14{letter-spacing:-0.03em;}.cls-15{letter-spacing:-0.03em;}.cls-16{letter-spacing:-0.03em;}.cls-17{letter-spacing:-0.02em;}.cls-18{letter-spacing:-0.01em;}.cls-19{letter-spacing:-0.06em;}.cls-20{letter-spacing:-0.02em;}.cls-21{letter-spacing:-0.02em;}.cls-22{letter-spacing:0em;}.cls-23{letter-spacing:-0.04em;}.cls-24{font-size:21px;}.cls-25{letter-spacing:0.5em;}</style></defs><title>1marzo</title><path class="cls-1" d="M280.25,134c2,143-86,138-86,215.43,0,107.71,176,107.71,176,215.42s-176,137.44-176,245.15,176,78,176,185.7-176,107.71-176,215.43,145,106.15,145,213.87c0,9-7,46-45.88,65.69-42.24,21.39-54.44,30.25-59,52.93s28.73,42.35,59,43.86,43.86-15.12,43.86-22.69-7.56-21.17-46.88-21.17-59,37.81-49.91,65,34.78,40.83,56,37.81,30.25-13.61,28.73-24.2-19.12-18.75-42.35-10.59C256.25,1621,249.25,1651,249.25,1651"/><circle class="cls-2" cx="342.47" cy="1407.85" r="75"/><path class="cls-3" d="M383.54,1403.44l-34.64-8.2a.3.3,0,0,1-.2-.18L335.11,1363a1.3,1.3,0,0,0-1.25-.74L300.62,1364a1.23,1.23,0,0,0-1,.56,1.29,1.29,0,0,0-.13,1.07l11.2,34.09a.43.43,0,0,1,0,.12,1.24,1.24,0,0,0,0,.33l6.57,41.6a1.25,1.25,0,0,0,.61.88l29.43,16.52a1.27,1.27,0,0,0,.44.13h.1a1.38,1.38,0,0,0,.29,0l28.44-9.49c.51-.18.51-.18,7.83-44.92A1.24,1.24,0,0,0,383.54,1403.44Zm-36.9,8.36c-4.36-1.59-24-8.74-30.06-11.21,6.31-.92,26-2.76,30-3.12Zm-33.75-13.31-10.42-31.71a.36.36,0,0,1,0-.31.27.27,0,0,1,.22-.13l30.31-1.58h0a.29.29,0,0,1,.26.18l12.63,29.83a.35.35,0,0,1,0,.31.28.28,0,0,1-.21.15l-32.56,3.45A.28.28,0,0,1,312.89,1398.48Zm33.67,57.24h0a.28.28,0,0,1-.26,0l-24.94-14a4.39,4.39,0,0,1-1.65-1.69l-6-37.61a.35.35,0,0,1,.11-.32.26.26,0,0,1,.17-.06l.09,0,32.47,12.34a.33.33,0,0,1,.2.31v40.73A.32.32,0,0,1,346.56,1455.72Zm31.67-51.24h0l.09,0-.18.05c-6.2,1.74-24.86,6.28-28.92,7.26l-.17-14.26C353.16,1398.49,372.09,1402.79,378.23,1404.48Zm-3.06,42.24h0c-.14,1-1.63,1.47-1.7,1.5l-24,8a.26.26,0,0,1-.16-.06.33.33,0,0,1-.12-.27l0-41.05a.31.31,0,0,1,.22-.31l31.83-8.12h.06a.27.27,0,0,1,.19.08.33.33,0,0,1,.1.3Z"/><path class="cls-2" d="M247.39,112.39l-1.12-.08a17,17,0,0,0-1.73-.07c-1,0-2.78,0-6.26.15-6.55.21-11.28,5.12-12.7,6.79,1-.13,3-1.37,4.38-2.22a19.82,19.82,0,0,1,3.82-2,44,44,0,0,1,13.15-1.39,16,16,0,0,1,5.95,1.43,3.31,3.31,0,0,0,1,.35C253.83,114.62,249.86,112.53,247.39,112.39Z"/><path class="cls-2" d="M212.66,105a1.34,1.34,0,0,1,.25-.48c-.1-1.54-.25-3.8-.42-6.48-.7-1.27-1.74-2.6-2.29-2.64,0,0-.12,0-.26.18-.67.92-.59,7,.36,10.75.46,1.83.87,2,.87,2a2.61,2.61,0,0,0,1.4-1.52A5.83,5.83,0,0,1,212.66,105Z"/><path class="cls-2" d="M264.17,72.81c-.29-2.54-.54-4.8-.72-6.63-1-10.3-11.86-11-28.33-10.85-16.89.14-20.61,8.73-21.84,11.55s.07,26.84.84,37.86h0v0l0,.45a25.83,25.83,0,0,0,8.15,15.83c7.68,7.31,11.53,11,13.83,9.84,1.91-1,1.66-3.46,1.38-6.12,0-.43-.09-.86-.12-1.28a.6.6,0,0,1,.49-.64c6-1.08,6.55-.59,6.74-.43a.83.83,0,0,1,.26.54c0,.7.51,5.11,1.85,6.16a.73.73,0,0,0,.68.16c2.38-.59,10.08-6.09,17.49-18.55C267.75,104.65,265.51,84.72,264.17,72.81Zm-27.5,13.29,1.19.1c-.88,10.46-1.23,21.91-.3,23,1,.36,4.36-1.65,6.37-3.21l.73.94c-.81.62-4.59,3.44-6.89,3.44a2.05,2.05,0,0,1-.71-.11C235.12,109.51,235.78,96.71,236.67,86.09ZM218.2,83.42a9.24,9.24,0,0,0-3.52,3.05l-1-.66a10.36,10.36,0,0,1,4.07-3.5c2.29-.93,11.6-1.28,14.84,0l-.44,1.11C229.26,82.28,220.24,82.58,218.2,83.42Zm10,5.09a2.06,2.06,0,1,1-2.06-2.06A2.06,2.06,0,0,1,228.15,88.5Zm11,32.44a24.55,24.55,0,0,1-5.18-.57l.27-1.16c.11,0,11,2.52,13-3.68l1.13.37C247,120,242.69,120.94,239.11,120.94Zm15.81-5.21a1.18,1.18,0,0,1-.63.72c-.52.22-1.06,0-1.88-.36a14.66,14.66,0,0,0-5.53-1.34,42.65,42.65,0,0,0-12.76,1.34,19.87,19.87,0,0,0-3.53,1.89c-2.39,1.46-4,2.41-5.18,2.41a1.72,1.72,0,0,1-.48-.06,1.28,1.28,0,0,1-.81-.67l-.16-.33.21-.29c.23-.31,5.63-7.57,14.07-7.83,6.56-.21,7-.17,8.13-.08l1.09.08c2,.11,6.23,1.7,7.27,3.3A1.32,1.32,0,0,1,254.92,115.73Zm-.52-26.36a2.06,2.06,0,1,1,2.06-2.06A2.06,2.06,0,0,1,254.4,89.37Zm8-7.87a5.46,5.46,0,0,0-2-1.47c-.5-.17-.94,0-1.89.39a18.12,18.12,0,0,1-2.21.79c-2.34.65-9,2.21-9.06,2.22L247,82.28c.07,0,6.69-1.57,9-2.21a16.71,16.71,0,0,0,2.08-.74,3.68,3.68,0,0,1,2.72-.42,6.6,6.6,0,0,1,2.49,1.83Z"/><path class="cls-2" d="M291.95,34.92H180.87a14.35,14.35,0,0,0-14.31,14.31V160.29a14.34,14.34,0,0,0,13.71,14.28c0-.66.48-18.48,19.19-22.65a29.28,29.28,0,0,0,9.31-3.82l-.12-.16-.4-.54.58-.33c4.19-2.37,7.71-7.12,8.11-7.67,1.33-3.25,1.84-9.43,1.91-10.22a101.44,101.44,0,0,1-6.08-20.53,3.3,3.3,0,0,1-1.29.83,1.09,1.09,0,0,1-.35.06,1.31,1.31,0,0,1-1.06-.62,6,6,0,0,1-.76-1.73,5.5,5.5,0,0,1-4.56,2.39,3.91,3.91,0,0,1-.65,0l-1.28-.24,1-.81c1.11-.89.92-4.62.46-7.52-2.34,3.53-3.52,3.81-4.23,3.69a1.54,1.54,0,0,1-1.15-1.25l-.14-.75.76,0a.47.47,0,0,0,.4-.17c.65-.65.91-2.65,1-4.41A4.24,4.24,0,0,1,198,99.84a2.13,2.13,0,0,1-1.75-.77l-.44-.57.65-.32c1.28-.64,1.6-3.71,2-8a84.6,84.6,0,0,1,4.6-21.82C209.66,50.71,227,43.89,235.3,42.76S249.78,49,251.66,51.6c1.46-2.62,4.54-6,8.43-4.36,5.08,2.14,9.06,4.18,10.17,9.32l.05.25c1,4.75,3.15,14.62,12.21,15l.56,0v.56s.07,4.27-3.23,6a3.28,3.28,0,0,0,1.79.08.58.58,0,0,0,.16-.09l.17-.28,1.07.52a1.66,1.66,0,0,1-.3.5c-.85,1.32-3.72,5.32-7.09,5.57.1,1.2.38,2.7.84,3.06a.13.13,0,0,0,.13,0l3.6-.65L277,88.92c-.43.24-3.86,2.05-6.18,1.32.34,3.12-1.22,9.46-3,10.56a1.29,1.29,0,0,1-.37.15c-.05,4.4-.47,8.07-1.48,10.25a80.8,80.8,0,0,1-9.6,19.48,42.22,42.22,0,0,0,2.26,8.42l4.56,5.53c.66.2,1.66.42,2.93.69,9.42,2,31.16,6.75,32.16,27.77a14.33,14.33,0,0,0,8-12.79V49.22A14.35,14.35,0,0,0,291.95,34.92Z"/><path class="cls-2" d="M237.13,144.55c4,.14,7.91-1.91,11.69-6.06A80.34,80.34,0,0,0,262.93,116c-6.65,9.6-12.94,13.86-15.24,14.44a1.92,1.92,0,0,1-1.7-.37c-1.67-1.31-2.16-5.41-2.28-6.7a32.51,32.51,0,0,0-5.08.58l.07.72c.29,2.81.62,6-2,7.31-3,1.51-6.85-2.11-15.19-10a28.46,28.46,0,0,1-7-10.22c1.7,7.67,5.7,19.9,9.54,24.73C226.94,140,231.53,144.37,237.13,144.55Z"/><path class="cls-2" d="M212.19,66.41c1.3-3,5.26-12.13,22.92-12.27,16.59-.13,28.44.65,29.52,11.93.18,1.82.43,4.07.71,6.61.54,4.75,1.17,10.4,1.61,16a3,3,0,0,1,2.43-.77A1.8,1.8,0,0,1,270.54,89l.13-.17c1,.84,3.28.17,4.76-.47-.87-1.18-1-3.69-1-4.23l0-.66.66.05c2.26.19,4.47-2.09,5.75-3.75a9.64,9.64,0,0,1-3-.8l-1.7-.76,1.83-.37c3.23-.65,3.84-3.63,3.95-4.88-9.48-.79-11.67-11-12.74-15.89l-.05-.25c-1-4.59-4.55-6.41-9.46-8.48-4.38-1.85-7.31,4.6-7.34,4.67l-.45,1-.6-.94c-.07-.1-6.72-10.4-15.78-9.15-8,1.1-24.88,7.71-31.19,24.87a83.57,83.57,0,0,0-4.53,21.53c-.43,4.18-.72,7-1.92,8.3H198c.48,0,1.5-.4,3-2.63l1-1.51.1,1.8c0,.53.24,5.07-1.09,6.82a15.8,15.8,0,0,0,3.13-4.09l.78-1.28.31,1.46c.16.73,1.32,6.39.15,9.12a4.53,4.53,0,0,0,3.57-2.85c-.76-3.84-.9-9.34.07-10.65a1.45,1.45,0,0,1,1.31-.66,3.43,3.43,0,0,1,2.06,1.46C211.72,84.67,211.06,69,212.19,66.41Z"/><path class="cls-2" d="M265.88,146.48c-1.16-.25-2.09-.46-2.79-.65-3.42,4.43-17.56,22.46-21.56,22.46h0a1.27,1.27,0,0,1-1.05-.54.58.58,0,0,1-.07-.13L236,156.2c-1.85.89-2.87,6.47-3.08,10l0,.31-.26.16a3.92,3.92,0,0,1-2.11.57c-6.71,0-17.75-13.84-21.09-18.24a30.33,30.33,0,0,1-9.76,4c-18,4-18.26,21.34-18.26,21.51H291.95a14.15,14.15,0,0,0,5.17-1C296.45,153.1,275.09,148.47,265.88,146.48Z"/><path class="cls-2" d="M237.36,156.32l4.09,10.75h0c2.75,0,13.78-13,20.47-21.67a10.2,10.2,0,0,1-3.94-4.85C245.59,154.46,239.75,156.4,237.36,156.32Z"/><path class="cls-2" d="M269.61,90c-.06-.33-.22-.89-.54-1-.49-.14-1.41.52-2,1.1.24,3.31.4,6.56.41,9.53C268.47,98.54,270.16,92.78,269.61,90Z"/><path class="cls-2" d="M236.57,154.91l.72.2c1.58.1,7.08-1,20.19-15.78a40.48,40.48,0,0,1-2-7.24,72.56,72.56,0,0,1-5.73,7.2c-3.9,4.29-8,6.46-12.21,6.46h-.4c-6-.2-10.92-4.77-14-8.57a29.49,29.49,0,0,1-3.3-5.75,37.87,37.87,0,0,1-1.67,8.12C231.84,153.45,236.52,154.9,236.57,154.91Z"/><path class="cls-2" d="M231.8,165.85c.13-1.75.76-8.32,3.19-10.36-2.17-1.17-7.36-4.66-17.33-14.77a23,23,0,0,1-7.17,7.67C215.52,155,226.93,168.16,231.8,165.85Z"/><path class="cls-3" d="M237.06,110.22a2.05,2.05,0,0,0,.71.11c2.29,0,6.08-2.82,6.89-3.44l-.73-.94c-2,1.55-5.34,3.57-6.37,3.21-.93-1-.58-12.5.3-23l-1.19-.1C235.78,96.71,235.12,109.51,237.06,110.22Z"/><path class="cls-3" d="M214.16,105.23l0-.45S214.13,105,214.16,105.23Z"/><path class="cls-3" d="M266.52,100.75l.73-.95a.62.62,0,0,0,.23-.18c0-3-.17-6.21-.41-9.53l-.18.18-.87-.81a7.69,7.69,0,0,1,.94-.85c-.44-5.55-1.07-11.2-1.61-16-.29-2.53-.54-4.79-.71-6.61C263.55,54.78,251.71,54,235.11,54.14c-17.67.14-21.62,9.27-22.92,12.27-1.13,2.62-.47,18.26.17,29.26a13,13,0,0,1,1.3,2l-1.06.55-.1-.19c.16,2.68.31,4.94.42,6.48a1,1,0,0,1,.43-.31.6.6,0,0,1,.78.55c-.76-11-2.11-34.92-.84-37.86s4.95-11.42,21.84-11.55c16.46-.13,27.33.55,28.33,10.85.18,1.82.43,4.09.72,6.63,1.34,11.91,3.59,31.84.73,37.93l0,0a.6.6,0,0,1,1.08.47v0c1-2.18,1.43-5.85,1.48-10.25a1.11,1.11,0,0,1-.28,0A1.1,1.1,0,0,1,266.52,100.75Z"/><path class="cls-3" d="M212.66,105a5.83,5.83,0,0,0-.09,1.86,5.73,5.73,0,0,0,.4-1.41l-.06-.92A1.34,1.34,0,0,0,212.66,105Z"/><path class="cls-3" d="M214.12,104.75h0v0Z"/><path class="cls-3" d="M220.05,129.18c0,.1-.07,1-.21,2.24a29.49,29.49,0,0,0,3.3,5.75c3,3.8,7.91,8.38,14,8.57h.4c4.21,0,8.31-2.17,12.21-6.46a72.56,72.56,0,0,0,5.73-7.2c-.15-.82-.23-1.36-.25-1.46l1.18-.17,0,.22A80.8,80.8,0,0,0,266,111.2l0,.06-1.08-.51v0c-7.41,12.46-15.11,18-17.49,18.55a.73.73,0,0,1-.68-.16c-1.34-1-1.85-5.46-1.85-6.16a.83.83,0,0,0-.26-.54c-.19-.16-.77-.64-6.74.43a.6.6,0,0,0-.49.64c0,.42.08.85.12,1.28.27,2.66.53,5.17-1.38,6.12-2.3,1.14-6.15-2.53-13.83-9.84a25.83,25.83,0,0,1-8.15-15.83l.09,1.29-.3,0a5.1,5.1,0,0,1-1.17,2.11,101.44,101.44,0,0,0,6.08,20.53v-.09ZM243.7,123s0,0,0-.06S243.69,123,243.7,123Zm-22.21-1.11c8.34,7.94,12.14,11.56,15.19,10,2.65-1.32,2.33-4.5,2-7.31l-.07-.72a32.51,32.51,0,0,1,5.08-.58c.11,1.29.6,5.4,2.28,6.7a1.92,1.92,0,0,0,1.7.37c2.29-.57,8.58-4.84,15.24-14.44a80.34,80.34,0,0,1-14.12,22.49c-3.77,4.15-7.69,6.2-11.69,6.06-5.59-.18-10.19-4.52-13.06-8.12-3.85-4.83-7.85-17.06-9.54-24.73A28.46,28.46,0,0,0,221.49,121.92Z"/><path class="cls-3" d="M214.12,104.74a.6.6,0,0,0-.78-.55,1,1,0,0,0-.43.31l.06.92v0l1.19.12a6.2,6.2,0,0,1-.22,1l.3,0-.09-1.29c0-.26,0-.4,0-.45Z"/><path class="cls-3" d="M265.67,110.46a.59.59,0,0,0-.75.24l0,0v0l1.08.51,0-.06v0A.6.6,0,0,0,265.67,110.46Z"/><path class="cls-3" d="M247.45,111.2l-1.09-.08c-1.11-.09-1.57-.13-8.13.08-8.44.27-13.85,7.53-14.07,7.83l-.21.29.16.33a1.28,1.28,0,0,0,.81.67,1.72,1.72,0,0,0,.48.06c1.15,0,2.78-.94,5.18-2.41a19.87,19.87,0,0,1,3.53-1.89,42.65,42.65,0,0,1,12.76-1.34,14.66,14.66,0,0,1,5.53,1.34c.82.35,1.36.59,1.88.36a1.18,1.18,0,0,0,.63-.72,1.32,1.32,0,0,0-.19-1.23C253.69,112.9,249.46,111.31,247.45,111.2Zm5.42,3.79a16,16,0,0,0-5.95-1.43,44,44,0,0,0-13.15,1.39,19.82,19.82,0,0,0-3.82,2c-1.39.85-3.42,2.09-4.38,2.22,1.43-1.67,6.15-6.59,12.7-6.79,3.48-.11,5.22-.15,6.26-.15a17,17,0,0,1,1.73.07l1.12.08c2.48.14,6.44,2.23,6.46,2.95A3.31,3.31,0,0,1,252.87,115Z"/><path class="cls-3" d="M234.21,119.21l-.27,1.16a24.55,24.55,0,0,0,5.18.57c3.58,0,7.92-.91,9.27-5l-1.13-.37C245.22,121.73,234.32,119.24,234.21,119.21Z"/><path class="cls-3" d="M260.83,78.91a3.68,3.68,0,0,0-2.72.42,16.71,16.71,0,0,1-2.08.74c-2.32.64-8.94,2.19-9,2.21l.27,1.16c.07,0,6.71-1.57,9.06-2.22a18.12,18.12,0,0,0,2.21-.79c.95-.39,1.39-.56,1.89-.39a5.46,5.46,0,0,1,2,1.47l.92-.76A6.6,6.6,0,0,0,260.83,78.91Z"/><path class="cls-3" d="M232.15,83.42l.44-1.11c-3.24-1.27-12.55-.93-14.84,0a10.36,10.36,0,0,0-4.07,3.5l1,.66a9.24,9.24,0,0,1,3.52-3.05C220.24,82.58,229.26,82.28,232.15,83.42Z"/><circle class="cls-3" cx="226.09" cy="88.5" r="2.06"/><circle class="cls-3" cx="254.4" cy="87.31" r="2.06"/><path class="cls-3" d="M270.54,89a1.8,1.8,0,0,0-1.15-1.13,3,3,0,0,0-2.43.77q.06.74.11,1.48c.59-.58,1.51-1.24,2-1.1.32.09.48.66.54,1,.55,2.79-1.14,8.55-2.13,9.64q0,.67,0,1.32a1.29,1.29,0,0,0,.37-.15c1.78-1.1,3.34-7.44,3-10.56a2.77,2.77,0,0,1-.92-.48Z"/><path class="cls-3" d="M266,89.47l.87.81.18-.18q-.05-.74-.11-1.48A7.69,7.69,0,0,0,266,89.47Z"/><path class="cls-3" d="M267.48,99.63a.62.62,0,0,1-.23.18l-.73.95a1.1,1.1,0,0,0,.67.24,1.11,1.11,0,0,0,.28,0Q267.48,100.3,267.48,99.63Z"/><path class="cls-3" d="M211.18,108.36s-.41-.22-.87-2c-1-3.8-1-9.83-.36-10.75.14-.19.22-.17.26-.18.55,0,1.59,1.36,2.29,2.64,0-.76-.09-1.55-.14-2.36a3.43,3.43,0,0,0-2.06-1.46,1.45,1.45,0,0,0-1.31.66c-1,1.32-.83,6.82-.07,10.65l.08-.15,1.09.48a7.45,7.45,0,0,1-.76,1.35,6,6,0,0,0,.76,1.73,1.31,1.31,0,0,0,1.06.62,1.09,1.09,0,0,0,.35-.06,3.3,3.3,0,0,0,1.29-.83c-.1-.67-.17-1.28-.2-1.81A2.61,2.61,0,0,1,211.18,108.36Z"/><path class="cls-3" d="M213.66,97.67a13,13,0,0,0-1.3-2c0,.82.09,1.61.14,2.36l.1.19Z"/><path class="cls-3" d="M213.06,106.61c0-.13,0-.55-.08-1.18a5.73,5.73,0,0,1-.4,1.41c0,.53.1,1.13.2,1.81a5.1,5.1,0,0,0,1.17-2.11Z"/><path class="cls-3" d="M213,105.39v0c0,.63.07,1,.08,1.18l.89-.06a6.2,6.2,0,0,0,.22-1Z"/><path class="cls-3" d="M205.35,108.36c1.17-2.73,0-8.39-.15-9.12l-.31-1.46-.78,1.28a15.8,15.8,0,0,1-3.13,4.09c1.33-1.75,1.12-6.29,1.09-6.82l-.1-1.8L201,96c-1.46,2.22-2.48,2.6-3,2.63h-.21c1.19-1.33,1.48-4.12,1.92-8.3a83.57,83.57,0,0,1,4.53-21.53c6.32-17.16,23.17-23.78,31.19-24.87,9.05-1.25,15.71,9,15.78,9.15l.6.94.45-1c0-.07,3-6.51,7.34-4.67,4.92,2.07,8.47,3.89,9.46,8.48l.05.25C270.21,62,272.4,72.17,281.88,73c-.11,1.25-.72,4.23-3.95,4.88l-1.83.37,1.7.76a9.64,9.64,0,0,0,3,.8c-1.29,1.65-3.49,3.93-5.75,3.75l-.66-.05,0,.66c0,.54.13,3.06,1,4.23-1.48.64-3.72,1.31-4.76.47l-.13.17a3.89,3.89,0,0,1,.23.77c0,.15,0,.31.07.47,2.32.73,5.75-1.08,6.18-1.32l3.21-1.76-3.6.65a.13.13,0,0,1-.13,0c-.45-.37-.74-1.87-.84-3.06,3.37-.25,6.23-4.25,7.09-5.57a1.66,1.66,0,0,0,.3-.5L282,78.12l-.17.28a.58.58,0,0,1-.16.09,3.28,3.28,0,0,1-1.79-.08c3.3-1.75,3.23-6,3.23-6v-.56l-.56,0c-9.06-.37-11.19-10.24-12.21-15l-.05-.25c-1.11-5.14-5.09-7.18-10.17-9.32-3.88-1.64-7,1.74-8.43,4.36-1.88-2.58-8-10-16.36-8.85s-25.64,8-32.15,25.64a84.6,84.6,0,0,0-4.6,21.82c-.44,4.25-.76,7.32-2,8l-.65.32.44.57a2.13,2.13,0,0,0,1.75.77,4.24,4.24,0,0,0,2.86-1.73c0,1.77-.31,3.76-1,4.41a.47.47,0,0,1-.4.17l-.76,0,.14.75a1.54,1.54,0,0,0,1.15,1.25c.71.12,1.89-.15,4.23-3.69.46,2.9.65,6.63-.46,7.52l-1,.81,1.28.24a3.91,3.91,0,0,0,.65,0,5.5,5.5,0,0,0,4.56-2.39c-.15-.5-.29-1.06-.41-1.67A4.53,4.53,0,0,1,205.35,108.36Z"/><path class="cls-3" d="M270.54,89l-.62.76a2.77,2.77,0,0,0,.92.48c0-.16,0-.33-.07-.47A3.89,3.89,0,0,0,270.54,89Z"/><path class="cls-3" d="M209,105.36l-.08.15c.12.61.26,1.17.41,1.67a7.45,7.45,0,0,0,.76-1.35Z"/><path class="cls-3" d="M261.93,145.39l.18-.23-4-4.8-.16.17A10.2,10.2,0,0,0,261.93,145.39Z"/><path class="cls-3" d="M266.13,145.32c-1.26-.27-2.26-.49-2.93-.69l.12.14a.6.6,0,0,1,0,.74l-.25.32c.7.19,1.64.4,2.79.65,9.21,2,30.57,6.62,31.24,27.13q.6-.24,1.18-.52C297.29,152.06,275.55,147.35,266.13,145.32Z"/><path class="cls-3" d="M257.47,139.33l.25-.28a.55.55,0,0,1,.46-.2.6.6,0,0,1,.45.22l0,0a42.22,42.22,0,0,1-2.26-8.42c-.31.47-.64.94-1,1.41A40.48,40.48,0,0,0,257.47,139.33Z"/><path class="cls-3" d="M255.18,130.64c0,.1.09.64.25,1.46.33-.47.65-.94,1-1.41l0-.22Z"/><path class="cls-3" d="M180.28,174.6h.59c-.2,0-.39,0-.59,0Z"/><path class="cls-3" d="M217.65,140.72l-.11-.11a31.42,31.42,0,0,1-7.53,7.16l.47.62A23,23,0,0,0,217.65,140.72Z"/><path class="cls-3" d="M199.73,153.09a30.33,30.33,0,0,0,9.76-4l-.71-.95a29.28,29.28,0,0,1-9.31,3.82c-18.71,4.17-19.18,22-19.19,22.65.2,0,.39,0,.59,0h.6C181.47,174.42,181.68,157.11,199.73,153.09Z"/><path class="cls-3" d="M217.41,138.76l.5.51.27.27a37.87,37.87,0,0,0,1.67-8.12c-.33-.72-.66-1.47-1-2.24-.06.79-.57,7-1.91,10.22l0-.06Z"/><path class="cls-3" d="M220.05,129.18l-1.19-.08v.09c.32.77.65,1.52,1,2.24C220,130.16,220,129.28,220.05,129.18Z"/><path class="cls-3" d="M263,144.58l.16,0-4.56-5.53C259.69,141.67,261.13,144,263,144.58Z"/><path class="cls-3" d="M261.93,145.39c-6.69,8.65-17.72,21.67-20.47,21.67h0l-4.09-10.75c2.39.08,8.22-1.86,20.63-15.78-.18-.4-.36-.8-.52-1.21-13.1,14.79-18.6,15.88-20.19,15.78l2.43.69-3.25.28a1.2,1.2,0,0,0-.42.12l4.34,11.42a.58.58,0,0,0,.07.13,1.27,1.27,0,0,0,1.05.54h0c4,0,18.14-18,21.56-22.46l-.41-.12A4.67,4.67,0,0,1,261.93,145.39Z"/><path class="cls-3" d="M258.17,138.85a.55.55,0,0,0-.46.2l-.25.28c.16.41.34.81.52,1.21l.16-.17,4,4.8-.18.23a4.67,4.67,0,0,0,.76.33l.41.12.25-.32a.6.6,0,0,0,0-.74l-.12-.14-.16,0c-1.91-.61-3.35-2.91-4.4-5.48l0,0A.6.6,0,0,0,258.17,138.85Z"/><path class="cls-3" d="M216.93,139.46l0-.06c-.39.54-3.92,5.29-8.11,7.67l-.58.33.4.54.12.16C213.17,145.32,215.93,141.86,216.93,139.46Z"/><path class="cls-3" d="M236,155a.59.59,0,0,1,.71,0,1.42,1.42,0,0,0,.52.11l-.72-.2s-4.73-1.46-18.39-15.37c0,.13-.09.26-.14.38s-.23.52-.37.8c10,10.11,15.16,13.6,17.33,14.77-2.43,2-3.06,8.61-3.19,10.36-4.87,2.31-16.27-10.84-21.32-17.46-.32.23-.65.45-1,.67,3.34,4.4,14.38,18.24,21.09,18.24a3.92,3.92,0,0,0,2.11-.57l.26-.16,0-.31c.21-3.58,1.23-9.16,3.08-10l-.19-.5A.6.6,0,0,1,236,155Z"/><path class="cls-3" d="M210.48,148.38l-.47-.62a31.42,31.42,0,0,0,7.53-7.16l.11.11c.14-.28.27-.54.37-.8s.1-.25.14-.38l-.27-.27-.5-.51-.41.58,0,.06,0,.06c-1,2.4-3.75,5.86-8.15,8.64l.71.95C209.83,148.83,210.16,148.61,210.48,148.38Z"/><path class="cls-3" d="M239.71,155.8l-2.43-.69a1.42,1.42,0,0,1-.52-.11.6.6,0,0,0-.91.69l.19.5a1.2,1.2,0,0,1,.42-.12Z"/><path class="cls-4" d="M340.7,1646.23l-56-13.24a.48.48,0,0,1-.32-.29l-22-51.83a2.1,2.1,0,0,0-2-1.19l-53.71,2.8a2,2,0,0,0-1.54.9,2.09,2.09,0,0,0-.21,1.74l18.09,55.08a.69.69,0,0,1,0,.2,2,2,0,0,0,0,.54l10.62,67.2a2,2,0,0,0,1,1.42l47.54,26.69a2.06,2.06,0,0,0,.71.21h.17a2.24,2.24,0,0,0,.47-.06l45.95-15.34c.82-.29.82-.29,12.64-72.56A2,2,0,0,0,340.7,1646.23Zm-59.62,13.5c-7-2.56-38.77-14.11-48.57-18.12,10.2-1.49,42.08-4.45,48.48-5Zm-54.52-21.51L209.73,1587a.59.59,0,0,1,.06-.5.44.44,0,0,1,.35-.21l49-2.55h0a.46.46,0,0,1,.41.3L280,1632.25a.57.57,0,0,1,0,.51.45.45,0,0,1-.35.24l-52.6,5.57A.46.46,0,0,1,226.56,1638.23Zm54.39,92.47h0a.45.45,0,0,1-.41,0l-40.3-22.62c-1.13-.74-2.46-1.95-2.67-2.73l-9.76-60.76a.57.57,0,0,1,.18-.51.42.42,0,0,1,.27-.1l.15,0L280.85,1664a.53.53,0,0,1,.32.49l0,65.8A.52.52,0,0,1,280.95,1730.7Zm51.17-82.78h0l.14,0-.28.08c-10,2.81-40.17,10.15-46.72,11.73l-.28-23C291.62,1638.25,322.2,1645.19,332.12,1647.92Zm-4.95,68.24v0c-.22,1.59-2.64,2.38-2.75,2.42l-38.85,12.93a.43.43,0,0,1-.26-.09.53.53,0,0,1-.2-.43l.05-66.32a.51.51,0,0,1,.36-.5l51.43-13.11H337a.43.43,0,0,1,.3.13.54.54,0,0,1,.15.48Z"/><text class="cls-5" transform="translate(325.8 77.14)">Mattia<tspan x="0" y="39.6">B</tspan><tspan class="cls-6" x="24.8" y="39.6">r</tspan><tspan x="41.1" y="39.6">ambilla</tspan></text><circle class="cls-2" cx="361.25" cy="633.42" r="53"/><path class="cls-7" d="M345.93,599.86s30.65,41,49.55,49.36c0,0,5.77,19.7-18.51,18.11,0,0-22.89-34.23-48.76-49.36C328.21,618,321.25,597.87,345.93,599.86Z"/><path class="cls-7" d="M350.21,652.11s-1.08-23.56,15.38-28.5c0,0,5,5.43,7.55,8,0,0-9,.39-17.56,10.74,0,0-8.56-2.19-12.34,4.18"/><circle class="cls-2" cx="212.25" cy="834.03" r="53"/><path class="cls-7" d="M196.93,800.47s30.65,41,49.55,49.36c0,0,5.77,19.7-18.51,18.11,0,0-22.89-34.23-48.76-49.36C179.21,818.58,172.25,798.48,196.93,800.47Z"/><path class="cls-7" d="M201.21,852.71s-1.08-23.56,15.38-28.5c0,0,5,5.43,7.55,8,0,0-9,.39-17.56,10.74,0,0-8.56-2.19-12.34,4.18"/><circle class="cls-2" cx="203.38" cy="1205.24" r="53"/><rect class="cls-7" x="174.5" y="1184.75" width="57.81" height="41.49" rx="1.82" ry="1.82"/><path class="cls-7" d="M186.38,1174.24H220.7a.54.54,0,0,1,.54.54v10a0,0,0,0,1,0,0h-35.4a0,0,0,0,1,0,0v-10A.54.54,0,0,1,186.38,1174.24Z"/><path class="cls-7" d="M194.69,1205.44v2.39c0,1.38.33,2.49.73,2.49h15.42c.4,0,.73-1.12.73-2.49v-2.39"/><line class="cls-7" x1="174.5" y1="1204.26" x2="232.3" y2="1204.26"/><circle class="cls-2" cx="351.44" cy="1024.64" r="53"/><rect class="cls-7" x="322.56" y="1005.15" width="57.81" height="41.49" rx="1.82" ry="1.82"/><path class="cls-7" d="M334.44,994.64h34.32a.54.54,0,0,1,.54.54v10a0,0,0,0,1,0,0H333.9a0,0,0,0,1,0,0v-10A.54.54,0,0,1,334.44,994.64Z"/><path class="cls-7" d="M342.75,1025.83v2.39c0,1.38.33,2.49.73,2.49H358.9c.4,0,.73-1.12.73-2.49v-2.39"/><line class="cls-7" x1="322.56" y1="1024.65" x2="380.37" y2="1024.65"/><circle class="cls-2" cx="327.44" cy="482.81" r="53"/><rect class="cls-7" x="298.56" y="462.32" width="57.81" height="41.49" rx="1.82" ry="1.82"/><path class="cls-7" d="M310.44,451.81h34.32a.54.54,0,0,1,.54.54v10a0,0,0,0,1,0,0H309.9a0,0,0,0,1,0,0v-10A.54.54,0,0,1,310.44,451.81Z"/><path class="cls-7" d="M318.75,483v2.39c0,1.38.33,2.49.73,2.49H334.9c.4,0,.73-1.12.73-2.49V483"/><line class="cls-7" x1="298.56" y1="481.83" x2="356.37" y2="481.83"/><circle class="cls-2" cx="189.35" cy="302.21" r="53"/><path class="cls-7" d="M191,290c13,.24,24.25,7,25.85,8H217l12.52-10.22-37.55-18.64-39.59,18.64,14.25,10.28C167.59,297.37,177.7,289.78,191,290Z"/><path class="cls-7" d="M191,290c-13.34-.24-23.46,7.35-24.44,8.11l-.08.06v17.88s13-6.9,25.29-7.15,25.29,7.15,25.29,7.15V298.2l-.2-.13C215.3,297.06,204,290.26,191,290Z"/><polyline class="cls-7" points="161.1 294.17 161.1 320.29 158.22 327.95 163.67 328.21 161.24 320.12"/><text class="cls-8" transform="translate(312.61 802.78)">2013</text><text class="cls-9" transform="translate(312.61 846.19)"><tspan class="cls-10">W</tspan><tspan x="15.39" y="0" xml:space="preserve">orkshop  </tspan><tspan class="cls-11" x="76.2" y="0">P</tspan><tspan x="85.2" y="0">aisaje with Arq. </tspan><tspan x="0" y="18">Michelle Desvigne</tspan></text><text class="cls-12" transform="translate(312.61 824.55)">Ber<tspan class="cls-13" x="27.29" y="0">g</tspan><tspan x="37.53" y="0">am</tspan><tspan class="cls-14" x="62.35" y="0">o</tspan><tspan x="71.77" y="0">, Ita</tspan><tspan class="cls-15" x="104.83" y="0">l</tspan><tspan x="109.69" y="0">y</tspan></text><text class="cls-8" transform="translate(214.4 996.78)">2013</text><text class="cls-9" transform="translate(83.63 1040.19)"><tspan class="cls-10">W</tspan><tspan x="15.39" y="0">or</tspan><tspan class="cls-16" x="30.04" y="0">k</tspan><tspan x="37.87" y="0">ed for Mario Bonicelli </tspan><tspan x="25.91" y="18">architetto and partners</tspan></text><text class="cls-12" transform="translate(145.56 1018.55)">Ber<tspan class="cls-13" x="27.29" y="0">g</tspan><tspan x="37.53" y="0">am</tspan><tspan class="cls-14" x="62.35" y="0">o</tspan><tspan x="71.77" y="0">, Ita</tspan><tspan class="cls-15" x="104.83" y="0">l</tspan><tspan x="109.69" y="0">y</tspan></text><text class="cls-8" transform="translate(233.4 599.78)">2013</text><text class="cls-9" transform="translate(65.51 643.19)">Master of science in architecture<tspan x="1.3" y="18">Uni</tspan><tspan class="cls-17" x="24.82" y="18">v</tspan><tspan x="32.57" y="18">ersità della Svizze</tspan><tspan class="cls-18" x="151.55" y="18">r</tspan><tspan x="157.46" y="18">a Italiana </tspan></text><text class="cls-12" transform="translate(99.04 621.55)"><tspan class="cls-14">M</tspan><tspan x="13.32" y="0">endrisi</tspan><tspan class="cls-14" x="69.91" y="0">o</tspan><tspan x="79.32" y="0">, </tspan><tspan class="cls-19" x="89.69" y="0">S</tspan><tspan class="cls-20" x="98.13" y="0">wi</tspan><tspan x="116.17" y="0">tze</tspan><tspan class="cls-21" x="142.63" y="0">r</tspan><tspan class="cls-22" x="149.31" y="0">land</tspan></text><text class="cls-8" transform="translate(284.61 291.78)">2006</text><text class="cls-9" transform="translate(284.61 335.19)"><tspan xml:space="preserve">Started studying  architecture</tspan><tspan x="0" y="18">Accademia di Architettu</tspan><tspan class="cls-18" x="162.81" y="18">r</tspan><tspan x="168.72" y="18">a </tspan><tspan x="0" y="36">Mendrisio, CH</tspan></text><text class="cls-12" transform="translate(284.61 313.55)"><tspan class="cls-14">M</tspan><tspan x="13.32" y="0">endrisi</tspan><tspan class="cls-14" x="69.91" y="0">o</tspan><tspan x="79.32" y="0">, </tspan><tspan class="cls-19" x="89.69" y="0">S</tspan><tspan class="cls-20" x="98.13" y="0">wi</tspan><tspan x="116.17" y="0">tze</tspan><tspan class="cls-21" x="142.63" y="0">r</tspan><tspan class="cls-22" x="149.31" y="0">land</tspan></text><text class="cls-8" transform="translate(187.21 458.78)">2008</text><text class="cls-9" transform="translate(65.21 502.19)">Completed an intership at <tspan x="98.83" y="18">Archikubik</tspan></text><text class="cls-12" transform="translate(101.94 480.55)">Ba<tspan class="cls-23" x="20.05" y="0">r</tspan><tspan x="26.19" y="0">celona, S</tspan><tspan class="cls-15" x="100.78" y="0">p</tspan><tspan x="110.92" y="0">ain</tspan></text><text class="cls-8" transform="translate(294.61 1184.78)">2014/17</text><text class="cls-9" transform="translate(294.61 1228.19)"><tspan class="cls-10">W</tspan><tspan x="15.39" y="0">or</tspan><tspan class="cls-16" x="30.04" y="0">k</tspan><tspan x="37.87" y="0">ed at Bandada!studio </tspan></text><text class="cls-12" transform="translate(294.61 1206.55)"><tspan class="cls-14">M</tspan><tspan class="cls-15" x="13.32" y="0">e</tspan><tspan x="22.57" y="0">xi</tspan><tspan class="cls-13" x="37.93" y="0">c</tspan><tspan x="46.94" y="0">o C</tspan><tspan class="cls-15" x="74.07" y="0">i</tspan><tspan class="cls-23" x="78.75" y="0">t</tspan><tspan class="cls-19" x="85.77" y="0">y</tspan><tspan x="94.79" y="0">, </tspan><tspan class="cls-14" x="105.16" y="0">M</tspan><tspan class="cls-15" x="118.48" y="0">e</tspan><tspan x="127.73" y="0">xi</tspan><tspan class="cls-13" x="143.08" y="0">c</tspan><tspan x="152.1" y="0">o</tspan></text><text class="cls-8" transform="translate(182.4 1373.78)">2015</text><text class="cls-24" transform="translate(171.5 1421.65)">Joined<tspan x="-38.83" y="25.2">TI+IINKER</tspan></text><text class="cls-12" transform="translate(134.59 1395.55)"><tspan class="cls-14">M</tspan><tspan class="cls-15" x="13.32" y="0">e</tspan><tspan x="22.57" y="0">xi</tspan><tspan class="cls-13" x="37.93" y="0">c</tspan><tspan x="46.94" y="0">o C</tspan><tspan class="cls-15" x="74.07" y="0">i</tspan><tspan class="cls-23" x="78.75" y="0">t</tspan><tspan class="cls-19" x="85.77" y="0">y</tspan><tspan x="94.79" y="0">, </tspan></text><text class="cls-12" transform="translate(325.8 146.55)">Milan, Ita<tspan class="cls-15" x="77.72" y="0">l</tspan><tspan x="82.58" y="0">y</tspan><tspan class="cls-25" x="92.77" y="0">	</tspan><tspan x="108" y="0">1988</tspan></text></svg>