<svg id="Capa_1" data-name="Capa 1" xmlns="http://www.w3.org/2000/svg" xmlns:xlink="http://www.w3.org/1999/xlink" viewBox="0 0 188.66 57"><defs><style>.cls-1,.cls-4{fill:none;}.cls-2{clip-path:url(#clip-path);}.cls-3{fill:#3055dd;}.cls-4{stroke:#4058da;stroke-miterlimit:10;}.cls-5{opacity:0.79;}.cls-6{clip-path:url(#clip-path-4);}.cls-7{font-size:8.07px;fill:#bebebe;font-family:Lato-Bold, Lato;font-weight:700;}.cls-8{letter-spacing:0.3em;}.cls-9{letter-spacing:0.3em;}.cls-10{letter-spacing:0.3em;}.cls-11{letter-spacing:0.3em;}</style><clipPath id="clip-path"><rect class="cls-1" x="-398.7" width="984.85" height="57"/></clipPath><clipPath id="clip-path-4"><rect class="cls-1" x="25.94" y="31.64" width="136.56" height="18.36"/></clipPath></defs><title>1marzo</title><g class="cls-2"><polygon class="cls-3" points="49.85 14.39 35.44 14.39 35.44 14.98 42.3 14.98 42.3 33.88 42.99 33.88 42.99 14.98 49.85 14.98 49.85 14.39"/><polygon class="cls-4" points="49.85 14.39 35.44 14.39 35.44 14.98 42.3 14.98 42.3 33.88 42.99 33.88 42.99 14.98 49.85 14.98 49.85 14.39"/><polygon class="cls-3" points="100.86 34.07 100.86 14.39 100.23 14.39 100.23 33.41 88.03 14.39 86.98 14.39 86.98 33.88 87.61 33.88 87.61 14.89 99.91 34.07 100.86 34.07"/><polygon class="cls-4" points="100.86 34.07 100.86 14.39 100.23 14.39 100.23 33.41 88.03 14.39 86.98 14.39 86.98 33.88 87.61 33.88 87.61 14.89 99.91 34.07 100.86 34.07"/><polygon class="cls-3" points="108.33 24.27 118.28 33.88 119.13 33.88 109.09 24.12 118.94 14.39 118.09 14.39 108.24 24.11 108.42 24.11 108.39 23.79 108.39 14.39 107.69 14.39 107.69 33.88 108.39 33.88 108.39 24.19 108.2 24.19 108.33 24.27"/><polygon class="cls-4" points="108.33 24.27 118.28 33.88 119.13 33.88 109.09 24.12 118.94 14.39 118.09 14.39 108.24 24.11 108.42 24.11 108.39 23.79 108.39 14.39 107.69 14.39 107.69 33.88 108.39 33.88 108.39 24.19 108.2 24.19 108.33 24.27"/><polygon class="cls-3" points="135.18 14.98 135.18 14.39 124.65 14.39 124.65 33.88 135.18 33.88 135.18 33.29 125.34 33.29 125.34 24.41 133.56 24.41 133.56 23.82 125.34 23.82 125.34 14.98 135.18 14.98"/><polygon class="cls-4" points="135.18 14.98 135.18 14.39 124.65 14.39 124.65 33.88 135.18 33.88 135.18 33.29 125.34 33.29 125.34 24.41 133.56 24.41 133.56 23.82 125.34 23.82 125.34 14.98 135.18 14.98"/><g class="cls-2"><path class="cls-3" d="M140.65,23.77l0-8.78h3.47c8.35,0,7.47,8.78.65,8.78Zm10.07,10.12h.83s-4.84-8.42-5.39-9.46c6.27-1,6.54-10-1.92-10h-4.32V33.89h.7V24.45h4.75Z"/><path class="cls-4" d="M140.65,23.77l0-8.78h3.47c8.35,0,7.47,8.78.65,8.78Zm10.07,10.12h.83s-4.84-8.42-5.39-9.46c6.27-1,6.54-10-1.92-10h-4.32V33.89h.7V24.45h4.75Z"/></g><rect class="cls-3" x="69.82" y="14.39" width="0.82" height="19.49"/><rect class="cls-4" x="69.82" y="14.39" width="0.82" height="19.49"/><rect class="cls-3" x="53.7" y="14.39" width="0.82" height="19.49"/><rect class="cls-4" x="53.7" y="14.39" width="0.82" height="19.49"/><rect class="cls-3" x="61.92" y="18.96" width="0.5" height="10.44"/><rect class="cls-4" x="61.92" y="18.96" width="0.5" height="10.44"/><rect class="cls-3" x="56.95" y="23.88" width="10.44" height="0.5"/><rect class="cls-4" x="56.95" y="23.88" width="10.44" height="0.5"/><rect class="cls-3" x="78.41" y="14.39" width="0.82" height="19.49"/><rect class="cls-4" x="78.41" y="14.39" width="0.82" height="19.49"/><g class="cls-2"><g class="cls-5"><g class="cls-6"><text class="cls-7" transform="translate(35.08 45.14)"><tspan class="cls-8">© </tspan><tspan class="cls-9" x="12.77" y="0">2017</tspan><tspan class="cls-8" x="41.18" y="0"> </tspan><tspan class="cls-10" x="45.15" y="0">THI</tspan><tspan class="cls-11" x="65.85" y="0">N</tspan><tspan class="cls-10" x="74.36" y="0">K</tspan><tspan class="cls-8" x="82.42" y="0">ER</tspan><tspan class="cls-9" x="97.15" y="0">LA</tspan><tspan x="111.9" y="0">B</tspan></text></g></g></g></g></svg>