<svg id="Capa_1" data-name="Capa 1" xmlns="http://www.w3.org/2000/svg" viewBox="0 0 555.12 1790.97"><defs><style>.cls-1,.cls-37,.cls-5,.cls-7{fill:none;}.cls-1{stroke:#3056de;stroke-width:4px;}.cls-1,.cls-37,.cls-7{stroke-miterlimit:10;}.cls-2{fill:#3056de;}.cls-3{font-size:33px;letter-spacing:0.1em;}.cls-13,.cls-3,.cls-35,.cls-38,.cls-4,.cls-8,.cls-9{fill:#4058da;}.cls-3,.cls-35,.cls-38,.cls-8,.cls-9{font-family:Lato-Bold, Lato;font-weight:700;}.cls-37,.cls-5,.cls-7{stroke:#fff;}.cls-5{stroke-linecap:round;stroke-linejoin:round;stroke-width:1.5px;}.cls-6{fill:#fff;}.cls-7{stroke-width:3px;}.cls-8{font-size:22px;}.cls-9{font-size:15px;}.cls-10{letter-spacing:-0.02em;}.cls-11{letter-spacing:-0.02em;}.cls-12{letter-spacing:-0.06em;}.cls-13{font-size:18px;font-family:Pridi-Regular, Pridi;}.cls-14{letter-spacing:-0.13em;}.cls-15{letter-spacing:-0.03em;}.cls-16{letter-spacing:-0.02em;}.cls-17{letter-spacing:-0.03em;}.cls-18{letter-spacing:-0.02em;}.cls-19{letter-spacing:-0.01em;}.cls-20{letter-spacing:-0.01em;}.cls-21{letter-spacing:-0.06em;}.cls-22{letter-spacing:-0.04em;}.cls-23{letter-spacing:0em;}.cls-24{letter-spacing:-0.01em;}.cls-25{letter-spacing:-0.03em;}.cls-26{letter-spacing:-0.11em;}.cls-27{letter-spacing:-0.03em;}.cls-28{letter-spacing:-0.02em;}.cls-29{letter-spacing:-0.02em;}.cls-30{letter-spacing:-0.1em;}.cls-31{letter-spacing:-0.02em;}.cls-32{letter-spacing:-0.01em;}.cls-33{letter-spacing:-0.01em;}.cls-34{letter-spacing:-0.06em;}.cls-35{font-size:21px;}.cls-36{letter-spacing:-0.03em;}.cls-38{font-size:14.5px;}.cls-39{letter-spacing:-0.02em;}.cls-40{letter-spacing:-0.06em;}.cls-41{letter-spacing:-0.01em;}.cls-42{letter-spacing:0.45em;}</style></defs><title>1marzo</title><path class="cls-1" d="M280.23,134c2,143-86,138-86,215.43,0,107.71,176,107.71,176,215.42s-176,137.44-176,245.15,176,78,176,185.7-176,107.71-176,215.43,145,106.15,145,213.87c0,9-7,46-45.88,65.69-42.24,21.39-54.44,30.25-59,52.93s28.73,42.35,59,43.86,43.86-15.12,43.86-22.69-7.56-21.17-46.88-21.17-59,37.81-49.91,65,34.78,40.83,56,37.81,30.25-13.61,28.73-24.2-19.12-18.75-42.35-10.59C256.23,1621,249.23,1651,249.23,1651"/><path class="cls-2" d="M343.68,1650.23l-56-13.24a.48.48,0,0,1-.32-.29l-22-51.83a2.1,2.1,0,0,0-2-1.19l-53.71,2.8a2,2,0,0,0-1.54.9,2.09,2.09,0,0,0-.21,1.74L226,1644.19a.69.69,0,0,1,0,.2,2,2,0,0,0,0,.54l10.62,67.2a2,2,0,0,0,1,1.42l47.54,26.69a2.06,2.06,0,0,0,.71.21h.17a2.24,2.24,0,0,0,.47-.06l45.95-15.34c.82-.29.82-.29,12.64-72.56A2,2,0,0,0,343.68,1650.23Zm-59.62,13.5c-7-2.56-38.77-14.11-48.57-18.12,10.2-1.49,42.08-4.45,48.48-5Zm-54.52-21.51L212.71,1591a.59.59,0,0,1,.06-.5.44.44,0,0,1,.35-.21l49-2.55h0a.46.46,0,0,1,.41.3l20.41,48.19a.57.57,0,0,1,0,.51.45.45,0,0,1-.35.24l-52.6,5.57A.46.46,0,0,1,229.54,1642.23Zm54.39,92.47h0a.45.45,0,0,1-.41,0l-40.3-22.62c-1.13-.74-2.46-1.95-2.67-2.73l-9.76-60.76a.57.57,0,0,1,.18-.51.42.42,0,0,1,.27-.1l.15,0L283.83,1668a.53.53,0,0,1,.32.49l0,65.8A.52.52,0,0,1,283.93,1734.7Zm51.17-82.78h0l.14,0-.28.08c-10,2.81-40.17,10.15-46.72,11.73l-.28-23C294.6,1642.25,325.18,1649.19,335.1,1651.92Zm-4.95,68.24v0c-.22,1.59-2.64,2.38-2.75,2.42l-38.85,12.93a.43.43,0,0,1-.26-.09.53.53,0,0,1-.2-.43l.05-66.32a.51.51,0,0,1,.36-.5l51.43-13.11H340a.43.43,0,0,1,.3.13.54.54,0,0,1,.15.48Z"/><text class="cls-3" transform="translate(305.79 79.14)">Alessandro <tspan x="0" y="39.6">Sperdutti</tspan></text><rect class="cls-4" x="146.68" y="33.51" width="144.27" height="144.27" rx="12" ry="12"/><path class="cls-5" d="M195.93,119.74c-1.93,5,1.05,10.9-1.71,15.52-2.52,4.19-7.86,6.92-12.22,8.71-9.71,4-24.69,6-30.55,15.78"/><path class="cls-5" d="M284.62,166.22c-9.57-15.12-29.27-11.43-44-20-6.16-4.92-1.23-12.31,1.12-19.06"/><path class="cls-5" d="M226.79,85.94s9.72-3.6,12.73-2.79a7.37,7.37,0,0,1,4.36,3.6"/><path class="cls-5" d="M198.65,86.76a12,12,0,0,1,7-3.6c4.36-.53,8.71,2.79,8.71,2.79"/><path class="cls-5" d="M189.6,76.26c-.16,3.36-1,17.67,2,28.6s7.71,29.36,14.91,34.05,16.63,6.73,24.29,0S245.2,128,246.56,106.39c1.41-22.54,1.47-39-2.68-41.18-10.39-5.36-32.94-2.81-39-.8S189.89,70.24,189.6,76.26Z"/><path class="cls-5" d="M247.42,89.93s3.81-5.07,5.48-3.17,1.33,14.83-1.33,15.57S247,99.51,247,99.51"/><path class="cls-5" d="M189.37,88s-3.79-4.14-5.13-2.1-1.11,13.51,2.56,13.57,3.25-2.83,3.25-2.83"/><path class="cls-5" d="M189.37,83s-14.18-11.47-9.15-16.16,9.92.34,9.15-2.68-5.46-5.7,4.92-11.06,3.35-15.41,9-13.74,6.7,8.38,9.72,8.38,6.37-11.43,10.39-8.56-2,6.34,0,6.61S242,35,247,43.76s-11.45,11.11-6.09,13.93,14.07-.9,11.39,4.31.33,6.55.5,8.56-5.68,1.65-6.4-.7"/><path class="cls-5" d="M194.33,114.59s5.11,7.16,7.77,10.62,10.16,10.37,13.85,6.38,2.45-7.9,2.45-7.9h3.37s.8,7.11,3.19,9.1,14.34-2.11,18.34-9.1"/><path class="cls-5" d="M220.7,90.91s-3.78,17.28-1.89,18.08,8,0,8,0"/><circle class="cls-6" cx="206.89" cy="95" r="2.13"/><circle class="cls-6" cx="236.13" cy="93.76" r="2.13"/><path class="cls-5" d="M219.4,111.86s7.47-2.4,11.7-1.41,6.52,3.47,5,4.13-6.15-3.48-10.38-2.19-6.34,1-6.34,1a12.44,12.44,0,0,0-6.34,2.4c-3,2.26-7.57,5.19-8.3,3.93s5.48-6.75,8-7.6A9.86,9.86,0,0,1,219.4,111.86Z"/><path class="cls-5" d="M214.39,121.31s12.06,4.23,16.28-5.5"/><path class="cls-5" d="M214.39,162.75s23.9-15.78,25.73-19.52c0,0,.14,7.26-.7,11.34s-5.07,17.2-5.07,17.2-1.41-10.71-8.18-10.85A33.37,33.37,0,0,0,214.39,162.75Z"/><path class="cls-5" d="M193.67,136.48l20.73,26.28s-5.56-3.95-8.95-2.4-4.23,4.23-3.67,6.06-17.21-23.14-17.21-23.14Z"/><path class="cls-5" d="M214.39,162.75c-.8,3-1.44,6.15-1.93,9.26"/><circle class="cls-4" cx="214.23" cy="843.2" r="53"/><path class="cls-7" d="M198.91,809.65s30.65,41,49.55,49.36c0,0,5.77,19.7-18.51,18.11,0,0-22.89-34.23-48.76-49.36C181.2,827.76,174.23,807.66,198.91,809.65Z"/><path class="cls-7" d="M203.19,861.89s-1.08-23.56,15.38-28.5c0,0,5,5.43,7.55,8,0,0-9,.39-17.56,10.74,0,0-8.56-2.19-12.34,4.18"/><circle class="cls-4" cx="196.36" cy="1216.93" r="53"/><rect class="cls-7" x="167.48" y="1196.44" width="57.81" height="41.49" rx="1.82" ry="1.82"/><path class="cls-7" d="M179.36,1185.93h34.32a.54.54,0,0,1,.54.54v10a0,0,0,0,1,0,0h-35.4a0,0,0,0,1,0,0v-10A.54.54,0,0,1,179.36,1185.93Z"/><path class="cls-7" d="M187.67,1217.12v2.39c0,1.38.33,2.49.73,2.49h15.42c.4,0,.73-1.12.73-2.49v-2.39"/><line class="cls-7" x1="167.48" y1="1215.94" x2="225.29" y2="1215.94"/><circle class="cls-4" cx="370.42" cy="1020.82" r="53"/><rect class="cls-7" x="341.54" y="1001.33" width="57.81" height="41.49" rx="1.82" ry="1.82"/><path class="cls-7" d="M353.43,990.82h34.32a.54.54,0,0,1,.54.54v10a0,0,0,0,1,0,0h-35.4a0,0,0,0,1,0,0v-10A.54.54,0,0,1,353.43,990.82Z"/><path class="cls-7" d="M361.73,1022v2.39c0,1.38.33,2.49.73,2.49h15.42c.4,0,.73-1.12.73-2.49V1022"/><line class="cls-7" x1="341.54" y1="1020.83" x2="399.35" y2="1020.83"/><circle class="cls-4" cx="336.42" cy="489.23" r="53"/><rect class="cls-7" x="307.54" y="468.74" width="57.81" height="41.49" rx="1.82" ry="1.82"/><path class="cls-7" d="M319.43,458.23h34.32a.54.54,0,0,1,.54.54v10a0,0,0,0,1,0,0h-35.4a0,0,0,0,1,0,0v-10A.54.54,0,0,1,319.43,458.23Z"/><path class="cls-7" d="M327.73,489.43v2.39c0,1.38.33,2.49.73,2.49h15.42c.4,0,.73-1.12.73-2.49v-2.39"/><line class="cls-7" x1="307.54" y1="488.25" x2="365.35" y2="488.25"/><circle class="cls-4" cx="204.33" cy="307.01" r="53"/><path class="cls-7" d="M206,294.82c13,.24,24.25,7,25.85,8H232l12.52-10.22L206.92,274l-39.59,18.64,14.25,10.28C182.57,302.17,192.68,294.58,206,294.82Z"/><path class="cls-7" d="M206,294.82c-13.34-.24-23.46,7.35-24.44,8.11l-.08.06v17.88s13-6.9,25.29-7.15,25.29,7.15,25.29,7.15V303l-.2-.13C230.28,301.86,219,295.06,206,294.82Z"/><polyline class="cls-7" points="176.09 298.96 176.09 325.09 173.21 332.75 178.65 333.01 176.22 324.93"/><circle class="cls-4" cx="317.95" cy="1407.96" r="75"/><path class="cls-6" d="M359,1403.54l-34.64-8.2a.3.3,0,0,1-.2-.18l-13.59-32.08a1.3,1.3,0,0,0-1.25-.74l-33.25,1.73a1.23,1.23,0,0,0-1,.56,1.29,1.29,0,0,0-.13,1.07l11.2,34.09a.43.43,0,0,1,0,.12,1.24,1.24,0,0,0,0,.33l6.57,41.6a1.25,1.25,0,0,0,.61.88l29.43,16.52a1.27,1.27,0,0,0,.44.13h.1a1.38,1.38,0,0,0,.29,0l28.44-9.49c.51-.18.51-.18,7.83-44.92A1.24,1.24,0,0,0,359,1403.54Zm-36.9,8.36c-4.36-1.59-24-8.74-30.06-11.21,6.31-.92,26-2.76,30-3.12Zm-33.75-13.31L278,1366.88a.36.36,0,0,1,0-.31.27.27,0,0,1,.22-.13l30.31-1.58h0a.29.29,0,0,1,.26.18l12.63,29.83a.35.35,0,0,1,0,.31.28.28,0,0,1-.21.15l-32.56,3.45A.28.28,0,0,1,288.37,1398.59ZM322,1455.83h0a.28.28,0,0,1-.26,0l-24.94-14a4.39,4.39,0,0,1-1.65-1.69l-6-37.61a.35.35,0,0,1,.11-.32.26.26,0,0,1,.17-.06l.09,0L322,1414.51a.33.33,0,0,1,.2.31v40.73A.32.32,0,0,1,322,1455.83Zm31.67-51.24h0l.09,0-.18.05c-6.2,1.74-24.86,6.28-28.92,7.26l-.17-14.26C328.64,1398.6,347.57,1402.9,353.71,1404.59Zm-3.06,42.24h0c-.14,1-1.63,1.47-1.7,1.5l-24,8a.26.26,0,0,1-.16-.06.33.33,0,0,1-.12-.27l0-41.05a.31.31,0,0,1,.22-.31l31.83-8.12h.06a.27.27,0,0,1,.19.08.33.33,0,0,1,.1.3Z"/><text class="cls-8" transform="translate(287.59 814.26)">2010</text><text class="cls-9" transform="translate(287.59 857.67)">Master in architecture for city<tspan x="0" y="18">Uni</tspan><tspan class="cls-10" x="23.51" y="18">v</tspan><tspan x="31.27" y="18">ersità Iu</tspan><tspan class="cls-11" x="85.82" y="18">a</tspan><tspan x="93.4" y="18">v di </tspan><tspan class="cls-12" x="119.81" y="18">V</tspan><tspan x="129.54" y="18">enezia</tspan></text><text class="cls-13" transform="translate(287.59 836.02)"><tspan class="cls-14">V</tspan><tspan x="10.48" y="0">enice, Ita</tspan><tspan class="cls-15" x="88.22" y="0">l</tspan><tspan x="93.08" y="0">y</tspan></text><text class="cls-8" transform="translate(194.39 463.78)">2007</text><text class="cls-9" transform="translate(42.47 507.19)"><tspan class="cls-16">W</tspan><tspan x="15.39" y="0">or</tspan><tspan class="cls-17" x="30.04" y="0">k</tspan><tspan x="37.87" y="0">ed for ma</tspan><tspan class="cls-18" x="100.62" y="0">n</tspan><tspan x="108.88" y="0">y architecture </tspan><tspan x="151" y="18">studios. </tspan></text><text class="cls-13" transform="translate(207.68 485.55)">Ita<tspan class="cls-15" x="22.7" y="0">l</tspan><tspan x="27.56" y="0">y</tspan></text><text class="cls-8" transform="translate(291.59 295.78)">2006</text><text class="cls-9" transform="translate(291.59 339.19)">G<tspan class="cls-19" x="10.84" y="0">r</tspan><tspan x="16.75" y="0">aduated in architecture</tspan><tspan x="0" y="18">Uni</tspan><tspan class="cls-10" x="23.51" y="18">v</tspan><tspan x="31.27" y="18">ersità Architettu</tspan><tspan class="cls-20" x="143.07" y="18">r</tspan><tspan x="148.98" y="18">a </tspan><tspan class="cls-21" x="159.72" y="18">V</tspan><tspan x="169.45" y="18">alle </tspan><tspan x="0" y="36">Giulia</tspan></text><text class="cls-13" transform="translate(291.59 317.55)"><tspan class="cls-22">R</tspan><tspan x="10.39" y="0">ome, Ita</tspan><tspan class="cls-15" x="78.61" y="0">l</tspan><tspan x="83.47" y="0">y</tspan></text><text class="cls-8" transform="translate(197.35 991.87)">2010/12</text><text class="cls-9" transform="translate(111.06 1035.28)"><tspan class="cls-16">W</tspan><tspan x="15.39" y="0">or</tspan><tspan class="cls-17" x="30.04" y="0">k</tspan><tspan class="cls-23" x="37.87" y="0">ed for Go Haseg</tspan><tspan class="cls-24" x="143.93" y="0">a</tspan><tspan x="151.65" y="0">wa</tspan><tspan x="55.45" y="18">and Suo </tspan><tspan class="cls-25" x="111.28" y="18">F</tspan><tspan x="119.25" y="18">ujimoto</tspan></text><text class="cls-13" transform="translate(176.69 1013.64)"><tspan class="cls-26">T</tspan><tspan class="cls-15" x="8.17" y="0">ok</tspan><tspan x="27.74" y="0">y</tspan><tspan class="cls-27" x="37.93" y="0">o</tspan><tspan x="47.34" y="0">, </tspan><tspan class="cls-28" x="57.71" y="0">J</tspan><tspan class="cls-29" x="66.19" y="0">a</tspan><tspan class="cls-15" x="75.33" y="0">p</tspan><tspan x="85.46" y="0">an</tspan></text><text class="cls-8" transform="translate(261.59 1172.98)">2012/17</text><text class="cls-9" transform="translate(261.59 1216.4)"><tspan class="cls-16">W</tspan><tspan x="15.39" y="0">or</tspan><tspan class="cls-17" x="30.04" y="0">k</tspan><tspan x="37.87" y="0">ed for </tspan><tspan class="cls-30" x="80.14" y="0">T</tspan><tspan x="87.53" y="0">eodoro Gonzáles </tspan><tspan x="0" y="18">de </tspan><tspan class="cls-31" x="19.46" y="18">L</tspan><tspan x="26.93" y="18">eón</tspan><tspan class="cls-16" x="0" y="36">W</tspan><tspan x="15.39" y="36">or</tspan><tspan class="cls-17" x="30.04" y="36">k</tspan><tspan x="37.87" y="36">ed for Es</tspan><tspan class="cls-32" x="95.28" y="36">r</tspan><tspan class="cls-24" x="101.19" y="36">a</tspan><tspan x="108.91" y="36">we Studio </tspan></text><text class="cls-13" transform="translate(261.59 1194.75)"><tspan class="cls-27">M</tspan><tspan class="cls-15" x="13.32" y="0">e</tspan><tspan x="22.57" y="0">xi</tspan><tspan class="cls-33" x="37.93" y="0">c</tspan><tspan x="46.94" y="0">o C</tspan><tspan class="cls-15" x="74.07" y="0">i</tspan><tspan class="cls-22" x="78.75" y="0">t</tspan><tspan class="cls-34" x="85.77" y="0">y</tspan><tspan x="94.79" y="0">, </tspan><tspan class="cls-27" x="105.16" y="0">M</tspan><tspan class="cls-15" x="118.48" y="0">e</tspan><tspan x="127.73" y="0">xi</tspan><tspan class="cls-33" x="143.08" y="0">c</tspan><tspan x="152.1" y="0">o</tspan></text><text class="cls-8" transform="translate(174.39 1378.17)">2013</text><text class="cls-35" transform="translate(143.33 1426.04)"><tspan class="cls-36">F</tspan><tspan x="11.12" y="0">ounded </tspan><tspan x="-18.67" y="25.2">TI+IINKER</tspan></text><text class="cls-13" transform="translate(63.28 1399.94)"><tspan class="cls-27">M</tspan><tspan class="cls-15" x="13.32" y="0">e</tspan><tspan x="22.57" y="0">xi</tspan><tspan class="cls-33" x="37.93" y="0">c</tspan><tspan x="46.94" y="0">o C</tspan><tspan class="cls-15" x="74.07" y="0">i</tspan><tspan class="cls-22" x="78.75" y="0">t</tspan><tspan class="cls-34" x="85.77" y="0">y</tspan><tspan x="94.79" y="0">, </tspan><tspan class="cls-27" x="105.16" y="0">M</tspan><tspan class="cls-15" x="118.48" y="0">e</tspan><tspan x="127.73" y="0">xi</tspan><tspan class="cls-33" x="143.08" y="0">c</tspan><tspan x="152.1" y="0">o</tspan></text><circle class="cls-4" cx="344.23" cy="644.46" r="48"/><path class="cls-6" d="M335.15,660l.3.93a3.17,3.17,0,0,0,5.16,1.32l.73-.68.53.83a3.18,3.18,0,0,0,5.33,0l.53-.83.73.68a3.17,3.17,0,0,0,5.16-1.31l.31-.93.67.36v17.77l-9.6-5-.46-.24-.46.24-9.6,5V660.39l.67-.36m18.21-1.45-.68,2.07a2.17,2.17,0,0,1-3.53.89L347.55,660l-1.18,1.84a2.18,2.18,0,0,1-3.64,0L341.55,660l-1.61,1.49a2.17,2.17,0,0,1-1.48.58,2.15,2.15,0,0,1-2.06-1.47l-.68-2.07-1.93,1a2.24,2.24,0,0,1-.31.14v20.05L344.55,674l11.06,5.77V659.76a2.24,2.24,0,0,1-.31-.14l-1.93-1Z"/><path class="cls-6" d="M329.4,654.73l-.15,0v25.69l1.58-.83V658.71a2.12,2.12,0,0,1-1.3-1.81l-.14-2.17Z"/><path class="cls-6" d="M359.69,654.73l-.14,2.17a2.12,2.12,0,0,1-1.3,1.81v20.92l1.58.83V654.77l-.15,0Z"/><path class="cls-37" d="M344.33,652.18a18.29,18.29,0,1,0-18.58-18.29,18.44,18.44,0,0,0,18.58,18.29m-24.91-17.53L321.7,633a.81.81,0,0,0,.08-1.26l-2.05-1.89a.81.81,0,0,1,.26-1.36l2.62-1a.81.81,0,0,0,.39-1.2L321.49,624a.82.82,0,0,1,.6-1.25l2.79-.34a.82.82,0,0,0,.68-1.06l-.87-2.63a.82.82,0,0,1,.89-1.06l2.79.35a.82.82,0,0,0,.93-.86l-.18-2.76a.83.83,0,0,1,1.14-.81l2.61,1A.83.83,0,0,0,334,614l.52-2.72a.83.83,0,0,1,1.3-.5l2.27,1.63a.84.84,0,0,0,1.24-.31l1.19-2.5a.83.83,0,0,1,1.39-.17l1.79,2.13a.84.84,0,0,0,1.28,0l1.79-2.13a.84.84,0,0,1,1.39.17l1.19,2.5a.84.84,0,0,0,1.24.31l2.27-1.63a.83.83,0,0,1,1.3.5l.52,2.72a.83.83,0,0,0,1.12.61l2.61-1a.82.82,0,0,1,1.13.81l-.18,2.76a.83.83,0,0,0,.93.86l2.79-.35a.82.82,0,0,1,.89,1.06l-.87,2.63a.82.82,0,0,0,.69,1.06l2.79.34a.82.82,0,0,1,.6,1.25l-1.51,2.33a.81.81,0,0,0,.39,1.2l2.62,1a.81.81,0,0,1,.26,1.36l-2,1.89A.81.81,0,0,0,367,633l2.28,1.62a.81.81,0,0,1-.09,1.38l-2.46,1.33a.81.81,0,0,0-.24,1.24l1.79,2.13a.81.81,0,0,1-.43,1.31l-2.72.69a.81.81,0,0,0-.54,1.14l1.2,2.5a.82.82,0,0,1-.75,1.17h-2.81a.82.82,0,0,0-.82,1l.53,2.72a.83.83,0,0,1-1,.95l-2.72-.69a.82.82,0,0,0-1,.74L357,655a.83.83,0,0,1-1.23.67l-2.46-1.34a.83.83,0,0,0-1.19.46l-.86,2.63a.83.83,0,0,1-1.36.34l-2-1.9a.84.84,0,0,0-1.27.16l-1.5,2.34a.84.84,0,0,1-1.4,0l-1.5-2.34a.84.84,0,0,0-1.27-.16l-2,1.9a.84.84,0,0,1-1.36-.34l-.86-2.63a.83.83,0,0,0-1.19-.46l-2.46,1.34a.83.83,0,0,1-1.23-.67l-.17-2.76a.83.83,0,0,0-1-.74l-2.72.69a.82.82,0,0,1-1-.95l.53-2.72a.82.82,0,0,0-.82-1h-2.81a.82.82,0,0,1-.75-1.17l1.2-2.5a.82.82,0,0,0-.55-1.14l-2.72-.69a.81.81,0,0,1-.43-1.31l1.8-2.13a.81.81,0,0,0-.24-1.24L319.51,636a.81.81,0,0,1-.09-1.38"/><text class="cls-8" transform="translate(211.19 586.43)">2008</text><text class="cls-38" transform="translate(123.24 629.47)"><tspan class="cls-39">W</tspan><tspan x="14.88" y="0">on the 2008 </tspan><tspan class="cls-40" x="95" y="0">V</tspan><tspan x="104.41" y="0">enice </tspan><tspan x="-73.14" y="17.4">Architecture Biennale Out There</tspan><tspan x="-28.28" y="34.8">Completed an intership at </tspan><tspan x="-65.73" y="52.2">Labo</tspan><tspan class="cls-41" x="-34.13" y="52.2">r</tspan><tspan x="-28.42" y="52.2">atorio Material di </tspan><tspan class="cls-40" x="87.52" y="52.2">V</tspan><tspan x="96.93" y="52.2">enezia</tspan></text><text class="cls-13" transform="translate(158.97 608.19)"><tspan class="cls-14">V</tspan><tspan x="10.48" y="0">enice, Ita</tspan><tspan class="cls-15" x="88.22" y="0">l</tspan><tspan x="93.08" y="0">y</tspan></text><text class="cls-13" transform="translate(305.79 146.55)"><tspan class="cls-22">R</tspan><tspan x="10.39" y="0">ome, Ita</tspan><tspan class="cls-15" x="78.61" y="0">l</tspan><tspan x="83.47" y="0">y</tspan><tspan class="cls-42" x="93.65" y="0">	</tspan><tspan x="108" y="0">1983</tspan></text></svg>