<svg id="Capa_1" data-name="Capa 1" xmlns="http://www.w3.org/2000/svg" viewBox="0 0 205.3 210.56"><defs><style>.cls-1{fill:#3056de;}</style></defs><title>barras</title><path class="cls-1" d="M175.07,92.54,114.81,78.28a.52.52,0,0,1-.35-.31L90.83,22.16a2.27,2.27,0,0,0-2.17-1.28l-57.83,3a2.14,2.14,0,0,0-1.66,1,2.25,2.25,0,0,0-.23,1.87L48.4,86a.74.74,0,0,1,0,.22,2.16,2.16,0,0,0,0,.58l11.43,72.36a2.18,2.18,0,0,0,1.06,1.53l51.19,28.74a2.22,2.22,0,0,0,.76.23h.18a2.41,2.41,0,0,0,.51-.06L163,173.11c.88-.31.88-.31,13.62-78.13A2.15,2.15,0,0,0,175.07,92.54Zm-64.2,14.54c-7.59-2.76-41.74-15.2-52.3-19.51,11-1.61,45.31-4.79,52.21-5.43ZM52.16,83.92,34,28.77a.63.63,0,0,1,.07-.53.47.47,0,0,1,.38-.22l52.73-2.74h0a.5.5,0,0,1,.44.32l22,51.89a.61.61,0,0,1,0,.55.49.49,0,0,1-.37.26l-56.63,6A.49.49,0,0,1,52.16,83.92Zm58.57,99.56h0a.48.48,0,0,1-.44,0L66.88,159.15c-1.22-.8-2.65-2.1-2.87-2.94L53.49,90.78a.61.61,0,0,1,.19-.55.45.45,0,0,1,.3-.11l.16,0,56.48,21.47a.57.57,0,0,1,.34.53L111,183A.56.56,0,0,1,110.73,183.49Zm55.1-89.13h0l.15,0-.3.09c-10.55,3-42.93,10.85-50.3,12.64l-.3-24.8C122.22,83.94,155.14,91.42,165.83,94.35Zm-5.33,73.48v0c-.24,1.71-2.84,2.56-3,2.6L115.7,184.38a.46.46,0,0,1-.29-.1.58.58,0,0,1-.22-.46l.06-71.41a.55.55,0,0,1,.39-.54L171,97.75h.1a.46.46,0,0,1,.32.14.58.58,0,0,1,.17.52Z"/></svg>