<?xml version="1.0" encoding="utf-8"?>
<!-- Generator: Adobe Illustrator 16.0.0, SVG Export Plug-In . SVG Version: 6.00 Build 0)  -->
<!DOCTYPE svg PUBLIC "-//W3C//DTD SVG 1.1//EN" "http://www.w3.org/Graphics/SVG/1.1/DTD/svg11.dtd">
<svg version="1.1" id="Capa_1" xmlns="http://www.w3.org/2000/svg" xmlns:xlink="http://www.w3.org/1999/xlink" x="0px" y="0px"
	 width="800px" height="194.793px" viewBox="0 200.792 800 194.793" enable-background="new 0 200.792 800 194.793"
	 xml:space="preserve">
<title>barras</title>
<polygon fill="#0054E2" points="212.479,219.359 140.972,219.359 140.972,222.283 175.022,222.283 175.022,316.104 178.428,316.104 
	178.428,222.283 212.479,222.283 "/>
<polygon fill="#0054E2" stroke="#0054E2" stroke-width="4" stroke-miterlimit="10" points="212.479,219.359 140.972,219.359 
	140.972,222.283 175.022,222.283 175.022,316.104 178.428,316.104 178.428,222.283 212.479,222.283 "/>
<polygon fill="#0054E2" stroke="#0054E2" stroke-width="4" stroke-miterlimit="10" points="430.445,317.025 430.445,219.359 
	427.321,219.359 427.321,313.74 366.79,219.359 361.542,219.359 361.542,316.064 364.667,316.064 364.667,221.843 425.719,317.025 
	"/>
<polygon fill="#0054E2" stroke="#0054E2" stroke-width="4" stroke-miterlimit="10" points="430.445,317.025 430.445,219.359 
	427.321,219.359 427.321,313.74 366.79,219.359 361.542,219.359 361.542,316.064 364.667,316.064 364.667,221.843 425.719,317.025 
	"/>
<polygon fill="#0054E2" stroke="#0054E2" stroke-width="4" stroke-miterlimit="10" points="463.976,268.433 513.37,316.104 
	517.576,316.104 467.781,267.671 516.655,219.359 512.448,219.359 463.535,267.631 464.457,267.631 464.297,266.069 
	464.297,219.359 460.852,219.359 460.852,316.104 464.297,316.104 464.297,267.992 463.375,267.992 "/>
<polygon fill="#0054E2" stroke="#0054E2" stroke-width="4" stroke-miterlimit="10" points="463.976,268.433 513.37,316.104 
	517.576,316.104 467.781,267.671 516.655,219.359 512.448,219.359 463.535,267.631 464.457,267.631 464.297,266.069 
	464.297,219.359 460.852,219.359 460.852,316.104 464.297,316.104 464.297,267.992 463.375,267.992 "/>
<polygon fill="#0054E2" stroke="#0054E2" stroke-width="4" stroke-miterlimit="10" points="590.205,222.283 590.205,219.359 
	537.927,219.359 537.927,316.104 590.205,316.104 590.205,313.18 541.372,313.18 541.372,269.114 582.153,269.114 582.153,266.189 
	541.372,266.189 541.372,222.283 "/>
<polygon fill="#0054E2" stroke="#0054E2" stroke-width="4" stroke-miterlimit="10" points="590.205,222.283 590.205,219.359 
	537.927,219.359 537.927,316.104 590.205,316.104 590.205,313.18 541.372,313.18 541.372,269.114 582.153,269.114 582.153,266.189 
	541.372,266.189 541.372,222.283 "/>
<path fill="#0054E2" stroke="#0054E2" stroke-width="4" stroke-miterlimit="10" d="M606.83,265.949v-43.585h17.226
	c41.463,0,37.056,43.585,3.205,43.585H606.83z M656.985,315.984h4.006c0,0-24.036-41.783-26.72-46.951
	c31.127-4.767,32.448-49.755-9.534-49.755h-21.433v96.706h3.445v-46.71h23.556L656.985,315.984z"/>
<path fill="#0054E2" stroke="#0054E2" stroke-width="4" stroke-miterlimit="10" d="M606.83,265.949v-43.585h17.226
	c41.463,0,37.056,43.585,3.205,43.585H606.83z M656.985,315.984h4.006c0,0-24.036-41.783-26.72-46.951
	c31.127-4.767,32.448-49.755-9.534-49.755h-21.433v96.706h3.445v-46.71h23.556L656.985,315.984z"/>
<rect x="297.486" y="219.359" fill="#0054E2" stroke="#0054E2" stroke-width="4" stroke-miterlimit="10" width="4.046" height="96.706"/>
<rect x="297.486" y="219.359" fill="#0054E2" stroke="#0054E2" stroke-width="4" stroke-miterlimit="10" width="4.046" height="96.706"/>
<rect x="231.587" y="219.359" fill="#0054E2" stroke="#0054E2" stroke-width="4" stroke-miterlimit="10" width="4.046" height="96.706"/>
<rect x="231.587" y="219.359" fill="#0054E2" stroke="#0054E2" stroke-width="4" stroke-miterlimit="10" width="4.046" height="96.706"/>
<rect x="265.358" y="242.073" fill="#0054E2" stroke="#0054E2" stroke-width="4" stroke-miterlimit="10" width="2.484" height="51.797"/>
<rect x="265.358" y="242.073" fill="#0054E2" stroke="#0054E2" stroke-width="4" stroke-miterlimit="10" width="2.484" height="51.797"/>
<rect x="240.681" y="266.51" fill="#0054E2" stroke="#0054E2" stroke-width="4" stroke-miterlimit="10" width="51.797" height="2.484"/>
<rect x="240.681" y="266.51" fill="#0054E2" stroke="#0054E2" stroke-width="4" stroke-miterlimit="10" width="51.797" height="2.484"/>
<rect x="329.574" y="219.359" fill="#0054E2" stroke="#0054E2" stroke-width="4" stroke-miterlimit="10" width="4.046" height="96.706"/>
<rect x="329.574" y="219.359" fill="#0054E2" stroke="#0054E2" stroke-width="4" stroke-miterlimit="10" width="4.046" height="96.706"/>
<path fill="#878787" stroke="#878787" stroke-miterlimit="10" d="M234.472,370.186c-0.006-2.252,0.588-4.465,1.723-6.41
	c0.552-0.939,1.225-1.801,2.003-2.563c0.768-0.772,1.629-1.445,2.564-2.003c0.941-0.557,1.951-0.988,3.004-1.282
	c3.298-0.911,6.824-0.448,9.775,1.282c0.935,0.558,1.796,1.23,2.563,2.003c0.776,0.764,1.45,1.626,2.003,2.563
	c0.558,0.955,0.988,1.979,1.282,3.045c0.599,2.203,0.599,4.526,0,6.73c-0.293,1.065-0.725,2.089-1.282,3.044
	c-0.554,0.938-1.227,1.8-2.003,2.564c-0.769,0.77-1.63,1.442-2.564,2.003c-3.955,2.332-8.864,2.332-12.819,0
	c-0.934-0.561-1.795-1.233-2.564-2.003c-0.777-0.764-1.451-1.625-2.003-2.564c-0.555-0.941-0.986-1.952-1.282-3.004
	C234.583,372.479,234.448,371.333,234.472,370.186z M236.194,370.186c0.004,1.001,0.139,1.998,0.4,2.964
	c0.243,0.938,0.607,1.84,1.082,2.685c0.463,0.816,1.028,1.569,1.682,2.243c2.048,2.083,4.85,3.253,7.772,3.245
	c1.474,0.006,2.934-0.295,4.286-0.882c1.304-0.556,2.487-1.357,3.485-2.363c1.005-1.014,1.807-2.211,2.363-3.525
	c0.573-1.384,0.86-2.869,0.841-4.366c0.002-1.016-0.133-2.025-0.4-3.005c-0.243-0.938-0.606-1.84-1.082-2.684
	c-0.476-0.831-1.054-1.599-1.723-2.284c-0.654-0.681-1.395-1.273-2.203-1.762c-0.83-0.487-1.718-0.864-2.644-1.122
	c-0.965-0.271-1.962-0.405-2.964-0.4c-1.475-0.008-2.935,0.293-4.287,0.881c-1.307,0.566-2.491,1.383-3.485,2.403
	c-2.068,2.15-3.205,5.029-3.165,8.013L236.194,370.186z M251.177,374.592h0.24h0.441l0,0l1.042,1.122
	c-0.672,0.764-1.507,1.366-2.444,1.763c-1.091,0.45-2.265,0.669-3.445,0.641c-1.058,0.005-2.106-0.199-3.085-0.601
	c-0.907-0.374-1.726-0.934-2.403-1.643c-0.683-0.729-1.214-1.588-1.563-2.524c-0.379-1.025-0.569-2.111-0.561-3.204
	c-0.008-1.098,0.196-2.186,0.601-3.205c0.745-1.818,2.188-3.262,4.006-4.006c1.006-0.402,2.081-0.606,3.165-0.602
	c1.098-0.021,2.189,0.184,3.205,0.602c0.86,0.38,1.647,0.909,2.324,1.563l-0.801,1.121l-0.24,0.2c-0.117,0.04-0.244,0.04-0.361,0
	c-0.17,0.051-0.351,0.051-0.521,0l-0.721-0.44c-0.345-0.182-0.708-0.33-1.082-0.44c-1.304-0.412-2.703-0.412-4.006,0
	c-0.637,0.244-1.211,0.628-1.682,1.121c-0.463,0.512-0.817,1.111-1.042,1.763c-0.256,0.762-0.378,1.562-0.36,2.364
	c-0.018,0.815,0.104,1.629,0.36,2.403c0.223,0.652,0.578,1.252,1.042,1.763c0.433,0.473,0.967,0.843,1.562,1.082
	c0.638,0.25,1.318,0.373,2.003,0.36c0.467,0.041,0.936,0.041,1.402,0l1.001-0.28l0.761-0.361L251.177,374.592z"/>
<path fill="#878787" stroke="#878787" stroke-miterlimit="10" d="M278.177,357.446c1.008-0.007,2.01,0.155,2.964,0.48
	c0.873,0.288,1.677,0.752,2.364,1.362c0.668,0.602,1.201,1.339,1.562,2.163c0.39,0.925,0.581,1.921,0.561,2.925
	c0.013,0.871-0.123,1.737-0.4,2.563c-0.28,0.804-0.657,1.57-1.122,2.283c-0.49,0.751-1.039,1.461-1.642,2.123l-1.963,2.083
	l-6.57,6.65l1.402-0.32h1.362h8.333c0.294-0.02,0.583,0.082,0.801,0.28c0.192,0.205,0.294,0.479,0.281,0.761v1.883h-16.585v-1.041
	c-0.042-0.226-0.042-0.456,0-0.681c0.101-0.242,0.25-0.461,0.44-0.642l8.012-8.012l1.803-1.923c0.518-0.588,0.987-1.218,1.402-1.883
	c0.373-0.602,0.669-1.248,0.881-1.923c0.213-0.66,0.322-1.35,0.321-2.043c0.01-0.659-0.112-1.313-0.361-1.923
	c-0.214-0.521-0.543-0.986-0.961-1.362c-0.42-0.364-0.911-0.637-1.442-0.801c-0.511-0.213-1.051-0.348-1.603-0.401
	c-0.586-0.002-1.168,0.093-1.723,0.28c-0.506,0.176-0.979,0.433-1.402,0.762c-0.408,0.328-0.76,0.721-1.042,1.161
	c-0.284,0.456-0.487,0.958-0.601,1.482c-0.058,0.275-0.198,0.526-0.401,0.722c-0.205,0.161-0.46,0.246-0.721,0.24h-0.401
	l-1.603-0.28c0.132-1.048,0.444-2.063,0.921-3.005c0.434-0.845,1.034-1.595,1.763-2.203c0.722-0.604,1.551-1.065,2.444-1.362
	C276.2,357.559,277.188,357.423,278.177,357.446z"/>
<path fill="#878787" stroke="#878787" stroke-miterlimit="10" d="M306.98,370.186c0.03,1.907-0.213,3.81-0.721,5.648
	c-0.386,1.443-1.039,2.802-1.923,4.006c-0.758,0.998-1.748,1.796-2.884,2.323c-2.254,1.019-4.837,1.019-7.091,0
	c-1.12-0.536-2.095-1.333-2.844-2.323c-0.89-1.201-1.542-2.561-1.923-4.006c-0.921-3.71-0.921-7.588,0-11.297
	c0.387-1.443,1.039-2.802,1.923-4.006c0.749-0.991,1.724-1.788,2.844-2.324c2.255-1.013,4.836-1.013,7.091,0
	c1.136,0.528,2.126,1.326,2.884,2.324c0.884,1.204,1.537,2.563,1.923,4.006C306.768,366.376,307.01,368.277,306.98,370.186z
	 M303.775,370.186c0.029-1.616-0.132-3.229-0.48-4.808c-0.24-1.108-0.674-2.166-1.282-3.125c-0.468-0.717-1.118-1.298-1.883-1.682
	c-1.39-0.682-3.017-0.682-4.407,0c-0.753,0.387-1.389,0.968-1.843,1.682c-0.607,0.959-1.042,2.017-1.282,3.125
	c-0.642,3.159-0.642,6.415,0,9.574c0.24,1.109,0.674,2.167,1.282,3.125c0.454,0.715,1.09,1.295,1.843,1.683
	c1.39,0.681,3.017,0.681,4.407,0c0.766-0.383,1.416-0.964,1.883-1.683c0.609-0.957,1.043-2.016,1.282-3.125
	C303.642,373.388,303.803,371.788,303.775,370.186L303.775,370.186z"/>
<path fill="#878787" stroke="#878787" stroke-miterlimit="10" d="M313.029,380.08h5.368v-16.825c0-0.521,0-1.042,0-1.563
	l-4.446,3.806h-0.361h-0.32c-0.158,0.041-0.323,0.041-0.481,0c-0.129-0.064-0.239-0.161-0.32-0.28l-0.921-1.162l7.411-6.409h2.524
	v22.434h4.887v2.363h-13.34V380.08z"/>
<path fill="#878787" stroke="#878787" stroke-miterlimit="10" d="M347,357.727v1.402c0.05,0.318,0.05,0.643,0,0.961
	c-0.077,0.221-0.171,0.435-0.28,0.642l-10.295,20.791c-0.155,0.298-0.374,0.558-0.641,0.761c-0.313,0.229-0.695,0.342-1.082,0.32
	h-2.204l10.456-20.511l0.44-0.801l0.521-0.681h-13.06c-0.198-0.01-0.385-0.096-0.521-0.241c-0.148-0.133-0.236-0.321-0.24-0.521
	v-2.123H347z"/>
<path fill="#878787" stroke="#878787" stroke-miterlimit="10" d="M375.002,357.727v2.845h-8.012v22.072h-3.365v-22.112h-8.012
	v-2.845L375.002,357.727z"/>
<path fill="#878787" stroke="#878787" stroke-miterlimit="10" d="M398.718,382.604h-3.365v-11.337h-13.42v11.337h-3.405v-24.877
	h3.405v11.097h13.42v-11.097h3.365V382.604z"/>
<path fill="#878787" stroke="#878787" stroke-miterlimit="10" d="M408.613,382.604h-3.365v-24.877h3.365V382.604z"/>
<path fill="#878787" stroke="#878787" stroke-miterlimit="10" d="M417.867,357.807c0.186,0.116,0.349,0.266,0.48,0.44l14.422,18.748
	c0-0.32,0-0.601,0-0.881s0-0.561,0-0.842v-17.626h2.964v24.877h-1.683c-0.224,0.055-0.457,0.055-0.681,0
	c-0.206-0.121-0.384-0.285-0.521-0.48l-14.382-18.748c0,0.28,0,0.561,0,0.841c0,0.281,0,0.521,0,0.762v17.746h-2.965v-24.917h1.723
	C417.442,357.708,417.661,357.735,417.867,357.807z"/>
<path fill="#878787" stroke="#878787" stroke-miterlimit="10" d="M445.428,368.623h1.282c0.344,0.066,0.697,0.066,1.042,0
	c0.351-0.103,0.669-0.296,0.921-0.561l8.012-9.535c0.214-0.246,0.473-0.449,0.762-0.601c0.303-0.071,0.618-0.071,0.921,0h2.845
	l-9.494,10.696l-0.682,0.681c-0.205,0.178-0.435,0.326-0.681,0.44c0.31,0.104,0.596,0.268,0.842,0.481l0.761,0.761l9.895,11.777
	h-3.485h-0.4l-0.32-0.24l-0.28-0.28l-8.453-10.175l-0.24-0.4l-0.4-0.241h-0.48h-2.243v11.378h-3.365v-25.078h3.365L445.428,368.623z
	"/>
<path fill="#878787" stroke="#878787" stroke-miterlimit="10" d="M480.721,357.727v2.725h-12.018v8.252h9.694v2.644h-9.694v8.493
	h12.018v2.724h-15.343v-24.837H480.721z"/>
<path fill="#878787" stroke="#878787" stroke-miterlimit="10" d="M489.254,372.068v10.375h-3.365v-24.717h7.051
	c1.351-0.018,2.698,0.144,4.006,0.48c1.032,0.252,2.001,0.716,2.845,1.362c0.719,0.573,1.283,1.316,1.643,2.163
	c0.36,0.904,0.537,1.871,0.521,2.845c0.016,0.845-0.12,1.686-0.4,2.483c-0.272,0.749-0.68,1.441-1.202,2.043
	c-0.545,0.629-1.195,1.158-1.923,1.563c-0.803,0.445-1.667,0.77-2.563,0.961c0.444,0.263,0.827,0.618,1.121,1.042l7.251,9.895
	h-3.005c-0.553,0.033-1.078-0.245-1.361-0.721l-6.45-8.894c-0.164-0.247-0.384-0.452-0.641-0.601c-0.343-0.079-0.699-0.079-1.042,0
	L489.254,372.068z M489.254,369.624h3.485c0.881,0.015,1.76-0.106,2.604-0.36c0.69-0.2,1.331-0.541,1.883-1.001
	c0.495-0.422,0.881-0.958,1.122-1.563c0.27-0.633,0.406-1.315,0.4-2.003c0.08-1.296-0.472-2.55-1.482-3.365
	c-1.295-0.839-2.827-1.232-4.366-1.122h-3.686L489.254,369.624z"/>
<path fill="#878787" stroke="#878787" stroke-miterlimit="10" d="M511.287,379.76h10.776v2.844h-14.142v-24.877h3.365V379.76z"/>
<path fill="#878787" stroke="#878787" stroke-miterlimit="10" d="M546.26,382.604h-2.604c-0.261,0.007-0.516-0.078-0.721-0.24
	c-0.18-0.149-0.317-0.343-0.4-0.561l-2.324-6.009h-11.177l-2.323,6.009c-0.083,0.218-0.221,0.411-0.4,0.561
	c-0.205,0.162-0.46,0.247-0.721,0.24h-2.604l9.814-24.877h3.445L546.26,382.604z M529.955,373.35h9.294l-4.006-10.135
	c-0.307-0.77-0.562-1.56-0.762-2.363l-0.36,1.321c0,0.401-0.24,0.762-0.36,1.042L529.955,373.35z"/>
<path fill="#878787" stroke="#878787" stroke-miterlimit="10" d="M549.424,382.604v-24.877h8.013
	c1.349-0.032,2.696,0.116,4.006,0.44c0.983,0.243,1.909,0.679,2.724,1.282c0.687,0.537,1.224,1.24,1.563,2.043
	c0.355,0.863,0.532,1.79,0.521,2.725c0.004,0.599-0.091,1.194-0.28,1.762c-0.199,0.569-0.497,1.099-0.881,1.563
	c-0.406,0.517-0.894,0.963-1.442,1.322c-0.636,0.398-1.323,0.709-2.043,0.922c1.5,0.244,2.894,0.927,4.006,1.963
	c0.96,1.012,1.467,2.371,1.402,3.766c0.006,0.993-0.199,1.976-0.602,2.884c-0.381,0.867-0.956,1.635-1.682,2.243
	c-0.807,0.653-1.731,1.143-2.725,1.442c-1.208,0.364-2.464,0.54-3.726,0.521H549.424z M552.829,368.863h4.447
	c0.839,0.015,1.676-0.093,2.483-0.32c0.627-0.177,1.212-0.477,1.723-0.882c0.441-0.363,0.786-0.831,1.001-1.361
	c0.22-0.548,0.328-1.133,0.321-1.723c0.067-1.214-0.419-2.393-1.322-3.205c-1.19-0.765-2.594-1.129-4.006-1.042h-4.647V368.863z
	 M552.829,371.267v8.813h5.368c0.84,0.02,1.677-0.089,2.483-0.32c0.62-0.185,1.193-0.499,1.683-0.922
	c0.435-0.394,0.765-0.89,0.962-1.441c0.216-0.577,0.324-1.188,0.32-1.803c0.051-1.173-0.454-2.302-1.362-3.045
	c-1.173-0.809-2.583-1.203-4.006-1.122L552.829,371.267z"/>
</svg>
