<svg id="Capa_1" data-name="Capa 1" xmlns="http://www.w3.org/2000/svg" viewBox="0 0 136.05 139.53"><defs><style>.cls-1{fill:#4058da;}.cls-2{fill:#fff;}</style></defs><title>iconos</title><path class="cls-1" d="M76.67,77.59l-.88-.06a13.4,13.4,0,0,0-1.36-.06c-.81,0-2.19,0-4.93.12-5.16.16-8.88,4-10,5.35a14.1,14.1,0,0,0,3.45-1.75,15.61,15.61,0,0,1,3-1.59,34.62,34.62,0,0,1,10.36-1.09A12.56,12.56,0,0,1,81,79.64a2.61,2.61,0,0,0,.77.28C81.74,79.35,78.62,77.7,76.67,77.59Z"/><path class="cls-1" d="M49.32,71.75a1.06,1.06,0,0,1,.2-.38c-.08-1.21-.2-3-.33-5.1-.55-1-1.37-2-1.8-2.08,0,0-.1,0-.2.14-.53.73-.47,5.48.29,8.47.36,1.44.68,1.61.69,1.61a2.06,2.06,0,0,0,1.1-1.19A4.59,4.59,0,0,1,49.32,71.75Z"/><path class="cls-1" d="M89.89,46.41c-.23-2-.43-3.78-.56-5.22C88.54,33.08,80,32.54,67,32.64c-13.3.11-16.24,6.87-17.2,9.1s.06,21.14.66,29.82h0v0l0,.35a20.34,20.34,0,0,0,6.42,12.47c6,5.76,9.09,8.65,10.9,7.75,1.51-.75,1.3-2.73,1.09-4.82,0-.34-.07-.68-.1-1a.47.47,0,0,1,.38-.5c4.7-.85,5.16-.47,5.31-.34a.65.65,0,0,1,.2.43c0,.55.4,4,1.45,4.85a.58.58,0,0,0,.53.12c1.87-.47,7.94-4.8,13.78-14.61C92.71,71.49,90.94,55.79,89.89,46.41ZM68.23,56.87l.94.08c-.69,8.24-1,17.26-.24,18.08.81.28,3.43-1.3,5-2.53l.57.74c-.64.49-3.62,2.71-5.43,2.71a1.62,1.62,0,0,1-.56-.09C67,75.32,67.52,65.23,68.23,56.87ZM53.68,54.77a7.28,7.28,0,0,0-2.77,2.41l-.78-.52a8.16,8.16,0,0,1,3.2-2.76c1.81-.74,9.14-1,11.69,0l-.34.87C62.39,53.87,55.29,54.11,53.68,54.77Zm7.84,4a1.62,1.62,0,1,1-1.62-1.62A1.62,1.62,0,0,1,61.52,58.77Zm8.63,25.55a19.34,19.34,0,0,1-4.08-.45l.22-.91c.09,0,8.67,2,10.27-2.9l.89.29C76.39,83.61,73,84.32,70.15,84.32ZM82.6,80.22a.93.93,0,0,1-.5.56c-.41.18-.84,0-1.48-.28a11.55,11.55,0,0,0-4.36-1.05A33.59,33.59,0,0,0,66.21,80.5,15.65,15.65,0,0,0,63.43,82c-1.88,1.15-3.17,1.89-4.08,1.89a1.35,1.35,0,0,1-.38,0,1,1,0,0,1-.64-.53l-.13-.26.17-.23c.18-.24,4.44-6,11.09-6.17a51.67,51.67,0,0,1,6.4-.06l.86.06c1.58.09,4.91,1.34,5.73,2.6A1,1,0,0,1,82.6,80.22Zm-.41-20.76a1.62,1.62,0,1,1,1.62-1.62A1.62,1.62,0,0,1,82.19,59.46Zm6.31-6.2A4.3,4.3,0,0,0,87,52.1c-.4-.13-.74,0-1.49.31a14.28,14.28,0,0,1-1.74.62c-1.84.51-7.08,1.74-7.13,1.75l-.21-.91c.05,0,5.27-1.23,7.09-1.74a13.17,13.17,0,0,0,1.63-.59,2.9,2.9,0,0,1,2.14-.33,5.2,5.2,0,0,1,2,1.44Z"/><path class="cls-1" d="M111.77,16.56H24.28A11.3,11.3,0,0,0,13,27.83v87.49a11.29,11.29,0,0,0,10.8,11.24c0-.52.37-14.55,15.12-17.84a23.06,23.06,0,0,0,7.33-3l-.1-.13-.31-.43.46-.26a24,24,0,0,0,6.38-6c1-2.56,1.45-7.43,1.5-8.05a79.9,79.9,0,0,1-4.79-16.17,2.6,2.6,0,0,1-1,.66.85.85,0,0,1-.28,0,1,1,0,0,1-.83-.49,4.7,4.7,0,0,1-.6-1.36,4.33,4.33,0,0,1-3.59,1.88,3.09,3.09,0,0,1-.51,0l-1-.19.8-.64c.88-.7.73-3.64.36-5.92-1.84,2.78-2.78,3-3.33,2.91a1.22,1.22,0,0,1-.91-1l-.11-.59.6,0a.37.37,0,0,0,.31-.13c.51-.51.72-2.09.76-3.48a3.34,3.34,0,0,1-2.25,1.36,1.68,1.68,0,0,1-1.38-.61l-.35-.45.51-.25c1-.51,1.26-2.92,1.61-6.27a66.64,66.64,0,0,1,3.62-17.19C47,29,60.63,23.63,67.15,22.74s11.41,4.94,12.89,7c1.15-2.06,3.58-4.72,6.64-3.43,4,1.69,7.13,3.3,8,7.34l0,.2c.81,3.74,2.48,11.52,9.62,11.81l.44,0v.44s.05,3.37-2.55,4.75a2.58,2.58,0,0,0,1.41.06l.12-.07.14-.22.84.41a1.31,1.31,0,0,1-.23.39c-.67,1-2.93,4.19-5.58,4.39a4.68,4.68,0,0,0,.66,2.41.11.11,0,0,0,.1,0l2.83-.51L100,59.1c-.34.19-3,1.62-4.87,1,.26,2.46-1,7.45-2.36,8.32a1,1,0,0,1-.29.12c0,3.47-.37,6.36-1.17,8.08A63.65,63.65,0,0,1,83.76,92a33.25,33.25,0,0,0,1.78,6.63L89.13,103c.52.16,1.31.33,2.31.54,7.42,1.6,24.54,5.31,25.33,21.87A11.29,11.29,0,0,0,123,115.32V27.83A11.3,11.3,0,0,0,111.77,16.56Z"/><path class="cls-1" d="M68.59,102.92c3.15.11,6.23-1.5,9.21-4.77A63.28,63.28,0,0,0,88.91,80.43c-5.24,7.56-10.2,10.92-12,11.37a1.51,1.51,0,0,1-1.34-.29c-1.32-1-1.7-4.26-1.79-5.28a25.62,25.62,0,0,0-4,.46l.06.56c.23,2.21.49,4.72-1.6,5.76-2.4,1.19-5.4-1.66-12-7.92A22.42,22.42,0,0,1,50.78,77c1.34,6,4.49,15.68,7.52,19.48C60.56,99.36,64.18,102.78,68.59,102.92Z"/><path class="cls-1" d="M48.95,41.37C50,39,53.09,31.81,67,31.7c13.07-.11,22.4.51,23.26,9.39.14,1.43.34,3.21.56,5.2.42,3.74.92,8.19,1.27,12.57a2.34,2.34,0,0,1,1.92-.6,1.42,1.42,0,0,1,.91.89L95,59c.82.67,2.59.13,3.75-.37A7.25,7.25,0,0,1,98,55.32V54.8l.52,0c1.78.15,3.52-1.65,4.53-3a7.59,7.59,0,0,1-2.39-.63l-1.34-.6,1.44-.29a4,4,0,0,0,3.11-3.84c-7.47-.62-9.19-8.63-10-12.52l0-.2c-.78-3.61-3.58-5-7.46-6.68-3.45-1.45-5.76,3.62-5.78,3.68l-.36.8-.47-.74c-.05-.08-5.3-8.19-12.43-7.21-6.32.87-19.6,6.08-24.57,19.59a65.83,65.83,0,0,0-3.57,17c-.34,3.29-.57,5.49-1.51,6.54h.16c.38,0,1.18-.32,2.33-2.07l.78-1.19L41,64.93c0,.42.19,4-.86,5.38a12.45,12.45,0,0,0,2.46-3.22l.61-1,.25,1.15c.12.57,1,5,.12,7.19a3.56,3.56,0,0,0,2.81-2.24c-.6-3-.71-7.35.05-8.39a1.14,1.14,0,0,1,1-.52,2.7,2.7,0,0,1,1.62,1.15C48.58,55.75,48.05,43.43,48.95,41.37Z"/><path class="cls-1" d="M91.24,104.44c-.91-.2-1.65-.36-2.2-.51-2.69,3.49-13.84,17.69-17,17.69h0a1,1,0,0,1-.83-.43.46.46,0,0,1-.05-.1l-3.42-9c-1.46.7-2.26,5.1-2.43,7.92v.24l-.21.13a3.09,3.09,0,0,1-1.66.45c-5.29,0-14-10.9-16.61-14.37a23.89,23.89,0,0,1-7.69,3.18c-14.22,3.17-14.38,16.81-14.38,16.95h87a11.15,11.15,0,0,0,4.08-.78C115.31,109.66,98.49,106,91.24,104.44Z"/><path class="cls-1" d="M68.77,112.19,72,120.65h0c2.17,0,10.85-10.26,16.12-17.07A8,8,0,0,1,85,99.76C75.25,110.72,70.65,112.26,68.77,112.19Z"/><path class="cls-1" d="M94.17,59.94c-.05-.26-.17-.7-.43-.78s-1.11.41-1.57.86c.19,2.61.31,5.17.32,7.5C93.28,66.68,94.61,62.14,94.17,59.94Z"/><path class="cls-1" d="M68.15,111.08l.56.16c1.25.08,5.58-.78,15.9-12.43A31.88,31.88,0,0,1,83,93.11a57.16,57.16,0,0,1-4.51,5.67c-3.07,3.38-6.3,5.09-9.62,5.09h-.32c-4.76-.16-8.61-3.76-11-6.75A23.22,23.22,0,0,1,55,92.58,29.83,29.83,0,0,1,53.66,99C64.42,109.93,68.11,111.07,68.15,111.08Z"/><path class="cls-1" d="M64.39,119.7c.1-1.38.6-6.55,2.51-8.16-1.71-.92-5.79-3.67-13.65-11.64a18.1,18.1,0,0,1-5.65,6C51.57,111.16,60.56,121.52,64.39,119.7Z"/><path class="cls-2" d="M68.53,75.88a1.62,1.62,0,0,0,.56.09c1.81,0,4.79-2.22,5.43-2.71l-.57-.74c-1.59,1.22-4.21,2.81-5,2.53-.73-.83-.45-9.84.24-18.08l-.94-.08C67.52,65.23,67,75.32,68.53,75.88Z"/><path class="cls-2" d="M50.49,71.95l0-.35S50.48,71.74,50.49,71.95Z"/><path class="cls-2" d="M91.74,68.42l.57-.74a.49.49,0,0,0,.18-.14c0-2.34-.13-4.9-.32-7.5l-.14.14-.69-.64a6.06,6.06,0,0,1,.74-.67c-.34-4.38-.84-8.83-1.27-12.57-.22-2-.43-3.77-.56-5.2C89.4,32.21,80.07,31.6,67,31.7c-13.92.11-17,7.3-18.06,9.66-.89,2.06-.37,14.38.13,23a10.28,10.28,0,0,1,1,1.58l-.83.43-.08-.15c.13,2.11.25,3.89.33,5.1a.75.75,0,0,1,.34-.25.47.47,0,0,1,.61.44c-.6-8.68-1.66-27.51-.66-29.82s3.9-9,17.2-9.1c13-.1,21.53.44,22.31,8.54.14,1.44.34,3.22.56,5.22,1.06,9.38,2.83,25.08.58,29.87v0a.47.47,0,0,1,.85.37v0c.8-1.72,1.13-4.61,1.17-8.08a.88.88,0,0,1-.22,0A.86.86,0,0,1,91.74,68.42Z"/><path class="cls-2" d="M49.32,71.75a4.59,4.59,0,0,0-.07,1.46,4.51,4.51,0,0,0,.31-1.11l-.05-.73A1.06,1.06,0,0,0,49.32,71.75Z"/><path class="cls-2" d="M50.47,71.57h0v0Z"/><path class="cls-2" d="M55.14,90.81c0,.08-.06.78-.17,1.77a23.22,23.22,0,0,0,2.6,4.53c2.38,3,6.23,6.6,11,6.75h.32c3.31,0,6.55-1.71,9.62-5.09A57.16,57.16,0,0,0,83,93.11c-.12-.64-.18-1.07-.19-1.15l.93-.13,0,.17a63.65,63.65,0,0,0,7.56-15.35l0,0-.85-.4v0c-5.84,9.81-11.9,14.14-13.78,14.61a.58.58,0,0,1-.53-.12c-1.05-.82-1.45-4.3-1.45-4.85a.65.65,0,0,0-.2-.43c-.15-.13-.61-.51-5.31.34a.47.47,0,0,0-.38.5c0,.33.06.67.1,1,.22,2.09.42,4.07-1.09,4.82-1.81.9-4.85-2-10.9-7.75a20.34,20.34,0,0,1-6.42-12.47l.07,1-.23,0a4,4,0,0,1-.92,1.66A79.9,79.9,0,0,0,54.2,90.81v-.07ZM73.76,86s0,0,0,0S73.76,85.95,73.76,86Zm-17.49-.87c6.57,6.25,9.56,9.11,12,7.92,2.09-1,1.83-3.55,1.6-5.76l-.06-.56a25.62,25.62,0,0,1,4-.46c.09,1,.47,4.25,1.79,5.28a1.51,1.51,0,0,0,1.34.29c1.81-.45,6.76-3.81,12-11.37A63.28,63.28,0,0,1,77.79,98.15c-3,3.27-6.06,4.88-9.21,4.77-4.4-.14-8-3.56-10.29-6.4-3-3.8-6.18-13.44-7.52-19.48A22.42,22.42,0,0,0,56.27,85.09Z"/><path class="cls-2" d="M50.47,71.57a.47.47,0,0,0-.61-.44.75.75,0,0,0-.34.25l.05.73v0l.93.09a4.88,4.88,0,0,1-.17.82l.23,0-.07-1c0-.2,0-.32,0-.35Z"/><path class="cls-2" d="M91.07,76.07a.47.47,0,0,0-.59.19v0l.85.4,0,0v0A.47.47,0,0,0,91.07,76.07Z"/><path class="cls-2" d="M76.72,76.65l-.86-.06a51.67,51.67,0,0,0-6.4.06c-6.65.21-10.91,5.93-11.09,6.17l-.17.23.13.26a1,1,0,0,0,.64.53,1.35,1.35,0,0,0,.38,0c.9,0,2.19-.74,4.08-1.89a15.65,15.65,0,0,1,2.78-1.49,33.59,33.59,0,0,1,10.05-1.06,11.55,11.55,0,0,1,4.36,1.05c.64.28,1.07.46,1.48.28a.93.93,0,0,0,.5-.56,1,1,0,0,0-.15-1C81.63,78,78.3,76.74,76.72,76.65Zm4.27,3a12.56,12.56,0,0,0-4.68-1.13A34.62,34.62,0,0,0,65.95,79.6a15.61,15.61,0,0,0-3,1.59,14.1,14.1,0,0,1-3.45,1.75c1.12-1.32,4.85-5.19,10-5.35,2.74-.09,4.12-.12,4.93-.12a13.4,13.4,0,0,1,1.36.06l.88.06c2,.11,5.07,1.76,5.09,2.32A2.61,2.61,0,0,1,81,79.64Z"/><path class="cls-2" d="M66.29,83l-.22.91a19.34,19.34,0,0,0,4.08.45c2.82,0,6.24-.72,7.3-4l-.89-.29C75,84.95,66.37,83,66.29,83Z"/><path class="cls-2" d="M87.26,51.21a2.9,2.9,0,0,0-2.14.33,13.17,13.17,0,0,1-1.63.59c-1.83.51-7,1.73-7.09,1.74l.21.91c.05,0,5.29-1.24,7.13-1.75a14.28,14.28,0,0,0,1.74-.62c.75-.31,1.09-.44,1.49-.31a4.3,4.3,0,0,1,1.54,1.15l.72-.6A5.2,5.2,0,0,0,87.26,51.21Z"/><path class="cls-2" d="M64.67,54.77l.34-.87c-2.55-1-9.88-.73-11.69,0a8.16,8.16,0,0,0-3.2,2.76l.78.52a7.28,7.28,0,0,1,2.77-2.41C55.29,54.11,62.39,53.87,64.67,54.77Z"/><circle class="cls-2" cx="59.89" cy="58.77" r="1.62"/><circle class="cls-2" cx="82.19" cy="57.83" r="1.62"/><path class="cls-2" d="M94.91,59.16a1.42,1.42,0,0,0-.91-.89,2.34,2.34,0,0,0-1.92.6q0,.58.09,1.16c.46-.45,1.19-1,1.57-.86s.38.52.43.78c.43,2.2-.9,6.73-1.68,7.59q0,.53,0,1a1,1,0,0,0,.29-.12c1.4-.87,2.63-5.86,2.36-8.32a2.18,2.18,0,0,1-.72-.38Z"/><path class="cls-2" d="M91.35,59.54l.69.64.14-.14q0-.58-.09-1.16A6.06,6.06,0,0,0,91.35,59.54Z"/><path class="cls-2" d="M92.5,67.54a.49.49,0,0,1-.18.14l-.57.74a.86.86,0,0,0,.53.19.88.88,0,0,0,.22,0Q92.5,68.06,92.5,67.54Z"/><path class="cls-2" d="M48.15,74.41s-.32-.17-.69-1.61c-.75-3-.82-7.74-.29-8.47.11-.15.17-.14.2-.14.43,0,1.25,1.07,1.8,2.08,0-.6-.07-1.22-.11-1.86a2.7,2.7,0,0,0-1.62-1.15,1.14,1.14,0,0,0-1,.52c-.76,1-.65,5.37-.05,8.39l.06-.12.86.38a5.87,5.87,0,0,1-.6,1.06,4.7,4.7,0,0,0,.6,1.36,1,1,0,0,0,.83.49.85.85,0,0,0,.28,0,2.6,2.6,0,0,0,1-.66c-.08-.53-.13-1-.16-1.42A2.06,2.06,0,0,1,48.15,74.41Z"/><path class="cls-2" d="M50.1,66a10.28,10.28,0,0,0-1-1.58c0,.64.07,1.26.11,1.86l.08.15Z"/><path class="cls-2" d="M49.63,73l-.07-.93a4.51,4.51,0,0,1-.31,1.11c0,.42.08.89.16,1.42A4,4,0,0,0,50.33,73Z"/><path class="cls-2" d="M49.57,72.07v0l.07.93.7-.05a4.88,4.88,0,0,0,.17-.82Z"/><path class="cls-2" d="M43.56,74.42c.92-2.15,0-6.61-.12-7.19l-.25-1.15-.61,1a12.45,12.45,0,0,1-2.46,3.22c1-1.38.88-5,.86-5.38l-.08-1.42-.78,1.19c-1.15,1.75-2,2-2.33,2.07h-.16c.94-1.05,1.17-3.25,1.51-6.54a65.83,65.83,0,0,1,3.57-17c5-13.52,18.25-18.73,24.57-19.59,7.13-1,12.37,7.13,12.43,7.21l.47.74.36-.8c0-.05,2.33-5.13,5.78-3.68,3.87,1.63,6.67,3.06,7.46,6.68l0,.2c.84,3.89,2.57,11.89,10,12.52a4,4,0,0,1-3.11,3.84l-1.44.29,1.34.6a7.59,7.59,0,0,0,2.39.63c-1,1.3-2.75,3.1-4.53,3l-.52,0v.52a7.25,7.25,0,0,0,.79,3.33c-1.16.5-2.93,1-3.75.37l-.11.13a3.06,3.06,0,0,1,.18.61c0,.11,0,.24.05.37,1.83.58,4.53-.85,4.87-1l2.53-1.39-2.83.51a.11.11,0,0,1-.1,0,4.68,4.68,0,0,1-.66-2.41c2.66-.2,4.91-3.35,5.58-4.39a1.31,1.31,0,0,0,.23-.39l-.84-.41-.14.22-.12.07a2.58,2.58,0,0,1-1.41-.06c2.6-1.38,2.55-4.71,2.55-4.75v-.44l-.44,0c-7.14-.29-8.81-8.07-9.62-11.81l0-.2c-.88-4-4-5.66-8-7.34C83.62,25,81.18,27.65,80,29.71c-1.48-2-6.34-7.86-12.89-7S47,29,41.82,42.94A66.64,66.64,0,0,0,38.2,60.12c-.35,3.34-.6,5.76-1.61,6.27l-.51.25.35.45a1.68,1.68,0,0,0,1.38.61,3.34,3.34,0,0,0,2.25-1.36c0,1.39-.24,3-.76,3.48A.37.37,0,0,1,39,70l-.6,0,.11.59a1.22,1.22,0,0,0,.91,1c.56.1,1.49-.12,3.33-2.91.37,2.28.52,5.22-.36,5.92l-.8.64,1,.19a3.09,3.09,0,0,0,.51,0,4.33,4.33,0,0,0,3.59-1.88c-.12-.39-.23-.84-.32-1.32A3.56,3.56,0,0,1,43.56,74.42Z"/><path class="cls-2" d="M94.91,59.16l-.49.6a2.18,2.18,0,0,0,.72.38c0-.13,0-.26-.05-.37A3.06,3.06,0,0,0,94.91,59.16Z"/><path class="cls-2" d="M46.43,72.05l-.06.12c.1.48.2.92.32,1.32a5.87,5.87,0,0,0,.6-1.06Z"/><path class="cls-2" d="M88.12,103.58l.14-.18-3.12-3.78-.12.14A8,8,0,0,0,88.12,103.58Z"/><path class="cls-2" d="M91.44,103.53c-1-.22-1.78-.39-2.31-.54l.09.11a.47.47,0,0,1,0,.58l-.19.25c.55.15,1.29.31,2.2.51,7.25,1.57,24.08,5.21,24.61,21.37.32-.12.62-.26.93-.41C116,108.84,98.85,105.13,91.44,103.53Z"/><path class="cls-2" d="M84.61,98.81l.2-.22a.43.43,0,0,1,.36-.16.47.47,0,0,1,.35.17l0,0A33.25,33.25,0,0,1,83.76,92L83,93.11A31.88,31.88,0,0,0,84.61,98.81Z"/><path class="cls-2" d="M82.81,92c0,.08.07.5.19,1.15L83.76,92l0-.17Z"/><path class="cls-2" d="M23.81,126.59h.46l-.46,0Z"/><path class="cls-2" d="M53.25,99.9l-.09-.09a24.75,24.75,0,0,1-5.93,5.64l.37.49A18.1,18.1,0,0,0,53.25,99.9Z"/><path class="cls-2" d="M39.13,109.64a23.89,23.89,0,0,0,7.69-3.18l-.56-.75a23.06,23.06,0,0,1-7.33,3C24.18,112,23.82,126,23.81,126.57l.46,0h.47C24.75,126.45,24.91,112.81,39.13,109.64Z"/><path class="cls-2" d="M53.05,98.36l.39.4.21.21A29.83,29.83,0,0,0,55,92.58c-.26-.56-.52-1.15-.77-1.76,0,.62-.45,5.49-1.5,8.05l0,0Z"/><path class="cls-2" d="M55.14,90.81l-.94-.07v.07c.25.61.51,1.2.77,1.76C55.08,91.59,55.13,90.89,55.14,90.81Z"/><path class="cls-2" d="M89,102.95l.13,0-3.59-4.35C86.36,100.65,87.5,102.46,89,102.95Z"/><path class="cls-2" d="M88.12,103.58c-5.27,6.81-14,17.07-16.12,17.07h0l-3.22-8.46c1.88.07,6.48-1.47,16.25-12.43-.15-.31-.28-.63-.41-1C74.29,110.46,70,111.32,68.71,111.24l1.92.54-2.56.22a1,1,0,0,0-.33.1l3.42,9a.46.46,0,0,0,.05.1,1,1,0,0,0,.83.43h0c3.15,0,14.29-14.2,17-17.69l-.32-.09A3.68,3.68,0,0,1,88.12,103.58Z"/><path class="cls-2" d="M85.17,98.43a.43.43,0,0,0-.36.16l-.2.22c.13.32.27.64.41,1l.12-.14,3.12,3.78-.14.18a3.68,3.68,0,0,0,.6.26l.32.09.19-.25a.47.47,0,0,0,0-.58l-.09-.11-.13,0c-1.51-.48-2.64-2.29-3.46-4.32l0,0A.47.47,0,0,0,85.17,98.43Z"/><path class="cls-2" d="M52.68,98.91l0,0a24,24,0,0,1-6.38,6l-.46.26.31.43.1.13A16.67,16.67,0,0,0,52.68,98.91Z"/><path class="cls-2" d="M67.74,111.16a.47.47,0,0,1,.56,0,1.12,1.12,0,0,0,.41.08l-.56-.16S64.42,109.93,53.66,99l-.11.3c-.08.2-.18.41-.3.63,7.86,8,11.94,10.71,13.65,11.64-1.91,1.61-2.41,6.78-2.51,8.16-3.83,1.82-12.82-8.54-16.79-13.76l-.78.53c2.63,3.47,11.32,14.37,16.61,14.37a3.09,3.09,0,0,0,1.66-.45l.21-.13V120c.17-2.82,1-7.22,2.43-7.92l-.15-.4A.47.47,0,0,1,67.74,111.16Z"/><path class="cls-2" d="M47.6,105.94l-.37-.49a24.75,24.75,0,0,0,5.93-5.64l.09.09c.11-.22.21-.43.3-.63l.11-.3-.21-.21-.39-.4-.33.46,0,0,0,0a16.67,16.67,0,0,1-6.42,6.81l.56.75Z"/><path class="cls-2" d="M70.63,111.78l-1.92-.54a1.12,1.12,0,0,1-.41-.08.47.47,0,0,0-.72.55l.15.4a1,1,0,0,1,.33-.1Z"/></svg>