<svg id="Capa_1" data-name="Capa 1" xmlns="http://www.w3.org/2000/svg" viewBox="0 0 136.05 139.53"><defs><style>.cls-1{fill:#4058da;}.cls-2{fill:none;stroke:#fff;stroke-miterlimit:10;stroke-width:3px;}</style></defs><title>iconos</title><circle class="cls-1" cx="67.06" cy="71.58" r="57.07"/><rect class="cls-2" x="35.96" y="49.51" width="62.24" height="44.67" rx="1.82" ry="1.82"/><path class="cls-2" d="M48.72,38.2h37a.54.54,0,0,1,.54.54V49.51a0,0,0,0,1,0,0H48.18a0,0,0,0,1,0,0V38.74A.54.54,0,0,1,48.72,38.2Z"/><path class="cls-2" d="M57.71,71.79v2.58c0,1.48.35,2.68.78,2.68h16.6c.43,0,.78-1.2.78-2.68V71.79"/><line class="cls-2" x1="35.96" y1="70.52" x2="98.21" y2="70.52"/></svg>