<svg id="Capa_1" data-name="Capa 1" xmlns="http://www.w3.org/2000/svg" viewBox="0 0 136.05 139.53"><defs><style>.cls-1{fill:#4058da;}.cls-2{fill:none;stroke:#fff;stroke-miterlimit:10;stroke-width:3px;}</style></defs><title>iconos</title><circle class="cls-1" cx="66.85" cy="71.58" r="57.07"/><path class="cls-2" d="M68.68,58.46c14,.25,26.11,7.58,27.84,8.66h.07l13.48-11L69.64,36,27,56.12,42.36,67.19C43.42,66.37,54.31,58.2,68.68,58.46Z"/><path class="cls-2" d="M68.68,58.46c-14.37-.26-25.26,7.91-26.32,8.73l-.09.07V86.51s14-7.43,27.23-7.7,27.23,7.7,27.23,7.7V67.26l-.21-.14C94.79,66,82.68,58.71,68.68,58.46Z"/><polyline class="cls-2" points="36.44 62.92 36.44 91.05 33.34 99.3 39.2 99.57 36.59 90.87"/></svg>