<svg id="Capa_1" data-name="Capa 1" xmlns="http://www.w3.org/2000/svg" viewBox="0 0 136.05 139.53"><defs><style>.cls-1{fill:#4058da;}.cls-2{fill:none;stroke:#fff;stroke-linecap:round;stroke-linejoin:round;stroke-width:1.5px;}.cls-3{fill:#fff;}</style></defs><title>iconos</title><rect class="cls-1" x="12.26" y="16.39" width="110.38" height="110.38" rx="12" ry="12"/><path class="cls-2" d="M49.94,82.36c-1.48,3.86.81,8.34-1.31,11.87-1.92,3.21-6,5.29-9.35,6.67C31.84,104,20.39,105.52,15.9,113"/><path class="cls-2" d="M117.8,117.92c-7.32-11.57-22.39-8.74-33.7-15.34-4.71-3.77-.94-9.42.86-14.58"/><path class="cls-2" d="M73.55,56.5s7.43-2.75,9.74-2.13a5.64,5.64,0,0,1,3.33,2.76"/><path class="cls-2" d="M52,57.12a9.21,9.21,0,0,1,5.38-2.76c3.33-.4,6.67,2.13,6.67,2.13"/><path class="cls-2" d="M45.09,49.09C45,51.66,44.33,62.61,46.63,71S52.53,93.44,58,97s12.73,5.15,18.59,0,11-8.33,12-24.89c1.08-17.25,1.12-29.87-2.05-31.51-7.95-4.1-25.21-2.15-29.82-.61S45.32,44.49,45.09,49.09Z"/><path class="cls-2" d="M89.34,59.55s2.91-3.88,4.19-2.43,1,11.35-1,11.91S89,66.88,89,66.88"/><path class="cls-2" d="M44.92,58.1S42,54.93,41,56.5s-.85,10.34,2,10.38,2.49-2.16,2.49-2.16"/><path class="cls-2" d="M44.92,54.27s-10.85-8.77-7-12.36,7.59.26,7-2.05-4.18-4.36,3.77-8.46,2.56-11.79,6.92-10.51S60.73,27.3,63,27.3s4.87-8.74,7.95-6.55-1.54,4.85,0,5.06,14.19-8.25,18-1.58-8.76,8.5-4.66,10.66,10.77-.69,8.72,3.3.25,5,.38,6.55S89.07,46,88.52,44.2"/><path class="cls-2" d="M48.72,78.41s3.91,5.48,5.94,8.12,7.77,7.93,10.6,4.88a6.45,6.45,0,0,0,1.87-6h2.58s.61,5.44,2.44,7,11-1.61,14-7"/><path class="cls-2" d="M68.89,60.3S66,73.52,67.45,74.13s6.1,0,6.1,0"/><circle class="cls-3" cx="58.32" cy="63.42" r="1.63"/><circle class="cls-3" cx="80.69" cy="62.48" r="1.63"/><path class="cls-2" d="M67.9,76.33s5.72-1.83,9-1.08,5,2.66,3.84,3.16S76,75.75,72.75,76.74a12.85,12.85,0,0,1-4.85.78A9.52,9.52,0,0,0,63,79.35c-2.26,1.73-5.8,4-6.35,3s4.19-5.17,6.13-5.81A7.55,7.55,0,0,1,67.9,76.33Z"/><path class="cls-2" d="M64.07,83.56s9.22,3.24,12.46-4.21"/><path class="cls-2" d="M64.07,115.27s18.28-12.07,19.69-14.93a51.72,51.72,0,0,1-.54,8.68c-.65,3.13-3.88,13.16-3.88,13.16s-1.08-8.2-6.26-8.3A25.53,25.53,0,0,0,64.07,115.27Z"/><path class="cls-2" d="M48.21,95.16l15.86,20.1s-4.26-3-6.85-1.83-3.24,3.24-2.8,4.64-13.17-17.71-13.17-17.71Z"/><path class="cls-2" d="M64.07,115.27c-.61,2.33-1.1,4.7-1.48,7.08"/></svg>