<svg id="Capa_1" data-name="Capa 1" xmlns="http://www.w3.org/2000/svg" viewBox="0 0 136.05 139.53"><defs><style>.cls-1{fill:#4058da;}.cls-2{fill:#fff;}</style></defs><title>iconos</title><circle class="cls-1" cx="67.06" cy="71.58" r="59.05"/><path class="cls-2" d="M99.4,68.1,72.13,61.65a.23.23,0,0,1-.16-.14L61.27,36.25a1,1,0,0,0-1-.58L34.11,37a1,1,0,0,0-.75.44,1,1,0,0,0-.1.85l8.82,26.84a.34.34,0,0,1,0,.1,1,1,0,0,0,0,.26l5.18,32.75a1,1,0,0,0,.48.69l23.17,13a1,1,0,0,0,.35.1h.08l.23,0L94,104.57c.4-.14.4-.14,6.16-35.36A1,1,0,0,0,99.4,68.1ZM70.35,74.68c-3.43-1.25-18.89-6.88-23.67-8.83,5-.73,20.51-2.17,23.63-2.46ZM43.77,64.2l-8.2-25a.29.29,0,0,1,0-.24.21.21,0,0,1,.17-.1l23.87-1.24h0a.23.23,0,0,1,.2.14L69.8,61.28a.28.28,0,0,1,0,.25.22.22,0,0,1-.17.12L44,64.36A.22.22,0,0,1,43.77,64.2Zm26.51,45.06h0a.22.22,0,0,1-.2,0l-19.64-11a3.45,3.45,0,0,1-1.3-1.33L44.38,67.31a.28.28,0,0,1,.09-.25A.21.21,0,0,1,44.6,67h.07l25.56,9.72a.26.26,0,0,1,.15.24V109A.26.26,0,0,1,70.28,109.26ZM95.22,68.92h0l.07,0-.14,0c-4.88,1.37-19.58,4.94-22.77,5.72l-.14-11.22C75.48,64.21,90.38,67.59,95.22,68.92Zm-2.41,33.26h0c-.11.78-1.29,1.16-1.34,1.18l-18.93,6.3a.21.21,0,0,1-.13,0,.26.26,0,0,1-.1-.21l0-32.32a.25.25,0,0,1,.18-.25l25.06-6.39h0a.21.21,0,0,1,.15.06.26.26,0,0,1,.07.24Z"/></svg>