<svg id="Capa_1" data-name="Capa 1" xmlns="http://www.w3.org/2000/svg" xmlns:xlink="http://www.w3.org/1999/xlink" viewBox="0 0 136.05 139.53"><defs><style>.cls-1,.cls-4{fill:none;}.cls-2{clip-path:url(#clip-path);}.cls-3{fill:#65b251;}.cls-4{stroke:#fff;stroke-miterlimit:10;}</style><clipPath id="clip-path"><rect class="cls-1" x="12.26" y="17.13" width="109.62" height="109.62"/></clipPath></defs><title>proyecto</title><g class="cls-2"><path class="cls-3" d="M113.65,126.74H20.48a8.25,8.25,0,0,1-8.23-8.23V25.35a8.25,8.25,0,0,1,8.23-8.23h93.16a8.25,8.25,0,0,1,8.23,8.23v93.17a8.25,8.25,0,0,1-8.23,8.23"/><path class="cls-4" d="M63,80.73h7.24v-25H63Zm7.54.65H62.74a.31.31,0,0,1-.29-.32V55.38a.31.31,0,0,1,.29-.33h7.83a.31.31,0,0,1,.29.33V81.06A.31.31,0,0,1,70.57,81.38Z"/><path class="cls-4" d="M87.8,80.73H95v-25H87.8Zm7.54.65H87.51a.31.31,0,0,1-.29-.32V55.38a.31.31,0,0,1,.29-.33h7.83a.31.31,0,0,1,.29.33V81.06A.31.31,0,0,1,95.34,81.38Z"/><path class="cls-4" d="M38.27,80.73h7.24v-25H38.27Zm7.54.65H38a.31.31,0,0,1-.29-.32V55.38a.31.31,0,0,1,.29-.33H45.8a.31.31,0,0,1,.29.33V81.06A.31.31,0,0,1,45.8,81.38Z"/><path class="cls-4" d="M87.8,109.74H95v-25H87.8Zm7.54.65H87.51a.31.31,0,0,1-.29-.32V84.4a.31.31,0,0,1,.29-.33h7.83a.31.31,0,0,1,.29.33v25.67A.31.31,0,0,1,95.34,110.39Z"/><path class="cls-4" d="M63,109.74h7.24v-25H63Zm7.54.65H62.74a.31.31,0,0,1-.29-.32V84.4a.31.31,0,0,1,.29-.33h7.83a.31.31,0,0,1,.29.33v25.67A.31.31,0,0,1,70.57,110.39Z"/><path class="cls-4" d="M38.27,109.74h7.24v-25H38.27Zm7.54.65H38a.31.31,0,0,1-.29-.32V84.4a.31.31,0,0,1,.29-.33H45.8a.31.31,0,0,1,.29.33v25.67A.31.31,0,0,1,45.8,110.39Z"/><path class="cls-4" d="M99.13,83.68H34.18c-.19,0-.34,0-.34-.07s.15-.07.34-.07H99.13c.19,0,.34,0,.34.07S99.31,83.68,99.13,83.68Z"/><path class="cls-4" d="M99.13,81.7H34.18c-.19,0-.34,0-.34-.07s.15-.07.34-.07H99.13c.19,0,.34,0,.34.07S99.31,81.7,99.13,81.7Z"/><path class="cls-4" d="M99.8,83.37s-.07-.07-.07-.17v-1c0-.09,0-.17.07-.17s.07.07.07.17v1C99.87,83.3,99.84,83.37,99.8,83.37Z"/><path class="cls-4" d="M33.54,83.37s-.07-.07-.07-.17v-1c0-.09,0-.17.07-.17s.07.07.07.17v1C33.61,83.3,33.58,83.37,33.54,83.37Z"/><path class="cls-4" d="M99.13,54.71H34.18c-.19,0-.34,0-.34-.07s.15-.07.34-.07H99.13c.19,0,.34,0,.34.07S99.31,54.71,99.13,54.71Z"/><path class="cls-4" d="M99.13,52.73H34.18c-.19,0-.34,0-.34-.07s.15-.07.34-.07H99.13c.19,0,.34,0,.34.07S99.31,52.73,99.13,52.73Z"/><path class="cls-4" d="M99.8,54.36s-.07-.07-.07-.17v-1c0-.09,0-.17.07-.17s.07.07.07.17v1C99.87,54.29,99.84,54.36,99.8,54.36Z"/><path class="cls-4" d="M33.54,54.36s-.07-.07-.07-.17v-1c0-.09,0-.17.07-.17s.07.07.07.17v1C33.61,54.29,33.58,54.36,33.54,54.36Z"/><path class="cls-4" d="M94.15,36.17h-55c-.19,0-.33,0-.33-.07S39,36,39.15,36h55c.19,0,.33,0,.33.07S94.34,36.17,94.15,36.17Z"/><path class="cls-4" d="M99.8,52.37s-.07-.14-.07-.3V41.77c0-.17,0-.3.07-.3s.07.14.07.3v10.3C99.87,52.23,99.84,52.37,99.8,52.37Z"/><path class="cls-4" d="M99.2,40.77a.26.26,0,0,1-.26-.26,3.51,3.51,0,0,0-3.5-3.5.26.26,0,1,1,0-.52,4,4,0,0,1,4,4A.26.26,0,0,1,99.2,40.77Z"/><path class="cls-4" d="M33.54,52.37s-.07-.14-.07-.3V41.77c0-.17,0-.3.07-.3s.07.14.07.3v10.3C33.61,52.23,33.58,52.37,33.54,52.37Z"/><path class="cls-4" d="M34.11,40.77a.26.26,0,0,1-.26-.26,4,4,0,0,1,4-4,.26.26,0,1,1,0,.52,3.51,3.51,0,0,0-3.5,3.5A.26.26,0,0,1,34.11,40.77Z"/></g></svg>