<?xml version="1.0" standalone="no"?>
<!DOCTYPE svg PUBLIC "-//W3C//DTD SVG 1.1//EN" "http://www.w3.org/Graphics/SVG/1.1/DTD/svg11.dtd" >
<svg xmlns="http://www.w3.org/2000/svg">
<metadata>
Created by FontPrep 20130207 at Mon Jan 30 15:22:53 2017
 By Gamol
Copyright 2014 Pria Ravichandran (pria.ravichandran@gmail.com)
</metadata>
<defs>
<font id="8c748898400d76a7445883047f8d7c40" horiz-adv-x='1024' >
  <font-face 
    font-family="Catamaran-Bold"
    font-weight="700"
    font-stretch="normal"
    units-per-em="2048"
    panose-1="0 0 8 0 0 0 0 0 0 0"
    ascent="1577"
    descent="-471"
    x-height="993"
    cap-height="1393"
    bbox="-1198 -788 5317 2703"
    underline-thickness="102"
    underline-position="-153"
    unicode-range="U+000D-FB02"
  />
<missing-glyph horiz-adv-x="1427" 
d="M461 209h504l-2 1005h-502v-1005zM1233 0h-1040v1425h1040v-1425z" />
    <glyph glyph-name=".notdef" horiz-adv-x="1427" 
d="M461 209h504l-2 1005h-502v-1005zM1233 0h-1040v1425h1040v-1425z" />
    <glyph glyph-name="uni0000" horiz-adv-x="0" 
 />
    <glyph glyph-name="uni0000" horiz-adv-x="0" 
 />
    <glyph glyph-name="nonmarkingreturn" unicode="&#xd;" horiz-adv-x="0" 
 />
    <glyph glyph-name="space" unicode=" " horiz-adv-x="460" 
 />
    <glyph glyph-name="exclam" unicode="!" horiz-adv-x="423" 
d="M212 299q62 0 106 -43t44 -106.5t-44 -106.5t-106 -43t-106.5 43t-44.5 106.5t44.5 106.5t106.5 43zM350 1438l-31 -1037l-213 99l-34 938h278z" />
    <glyph glyph-name="quotedbl" unicode="&#x22;" horiz-adv-x="806" 
d="M594 1520q62 0 106.5 -52t44.5 -150t-76.5 -221.5t-191.5 -189.5l-59 125q68 59 97.5 95t41.5 96q-39 0 -77 46t-38 100t45 102.5t107 48.5zM216 1520q64 0 108.5 -52t44.5 -150t-77 -221.5t-194 -189.5l-57 125q66 57 95.5 94t41.5 97q-37 0 -76 46t-39 100t44.5 102.5
t108.5 48.5z" />
    <glyph glyph-name="numbersign" unicode="#" horiz-adv-x="1196" 
d="M453 408h241l54 229h-244zM547 836h246l51 229l229 -6l-49 -223h90l21 -199h-156l-53 -229h188l21 -197h-254l-54 -242l-227 11l51 231h-245l-56 -242l-225 11l51 231h-92l-23 197h160l51 229h-188l-23 199h258l54 229l227 -6z" />
    <glyph glyph-name="dollar" unicode="$" horiz-adv-x="1079" 
d="M156 307q192 -98 370 -98q102 0 165 39t63 101t-50.5 104.5t-154.5 99.5l-62 37q-137 82 -276 184t-139 279q0 113 63.5 201.5t181.5 131.5v240l181 29v-232l53 2q23 0 63 -4v205l183 29v-275q63 -20 147 -59l-88 -213q-84 41 -152.5 63.5t-154.5 22.5t-144.5 -36
t-58.5 -100t46 -104.5t151 -101.5l125 -72q121 -70 240.5 -157t119.5 -267q0 -115 -65.5 -204t-186.5 -136v-278h-182v239q-53 -4 -86 -4h-31v-235h-180v272q-131 39 -201 82z" />
    <glyph glyph-name="percent" unicode="%" horiz-adv-x="1908" 
d="M1403 346q0 -74 32.5 -116t82.5 -42t85 43t35 115t-33.5 114t-81.5 42t-84 -41t-36 -115zM1182 346.5q0 104.5 48 183t126 120.5t166 42t164.5 -41t124 -119t47.5 -182t-47.5 -184t-125 -123t-164.5 -43t-165 42t-126 121t-48 183.5zM274 1090q0 -74 32 -115t82 -41
t86 42t36 115t-34 113.5t-83 40.5t-84 -40.5t-35 -114.5zM51 1090q0 104 48 183t126 122t166 43t167 -42t126 -121t47 -182t-48 -183.5t-126 -123.5t-166 -43t-166 42t-126 121.5t-48 183.5zM778 -8l-268 8l610 1454l269 -8z" />
    <glyph glyph-name="ampersand" unicode="&#x26;" horiz-adv-x="1398" 
d="M624 217q121 0 218 70l-406 370q-82 -93 -83 -207t74.5 -173.5t196.5 -59.5zM645 1194q-74 0 -117 -43t-43 -105t40 -120t128 -135l328 -297q51 125 59 297l240 -97q-12 -203 -94 -385l162 -141l-160 -199l-156 144q-161 -136 -416 -136q-154 2 -277.5 56.5t-195 160
t-71.5 234.5q0 246 196 416q-57 84 -57 190.5t54 195.5t152.5 142t210.5 53q211 0 396 -104l-90 -213q-155 86 -289 86z" />
    <glyph glyph-name="quotesingle" unicode="'" horiz-adv-x="430" 
d="M216 1520q64 0 108.5 -52t44.5 -150t-77 -221.5t-194 -189.5l-57 125q66 57 95.5 94t41.5 97q-37 0 -76 46t-39 100t44.5 102.5t108.5 48.5z" />
    <glyph glyph-name="parenleft" unicode="(" horiz-adv-x="630" 
d="M362 -80q-260 341 -260 723t260 754l207 -76q-90 -125 -155.5 -318t-65.5 -347t65.5 -353t153.5 -305z" />
    <glyph glyph-name="parenright" unicode=")" horiz-adv-x="630" 
d="M268 1397q260 -351 260 -725t-262 -752l-205 76q88 123 153 316.5t65 347.5t-64.5 354t-151.5 303z" />
    <glyph glyph-name="asterisk" unicode="*" horiz-adv-x="794" 
d="M289 1368l4 203h209l2 -203l209 45l61 -186l-207 -41l142 -201l-160 -125l-152 203l-149 -203l-162 125l141 199l-207 43l62 186z" />
    <glyph glyph-name="plus" unicode="+" horiz-adv-x="1101" 
d="M686 664h334l20 -203h-354v-453l-250 8v445h-358l-17 203h375v430l250 -7v-423z" />
    <glyph glyph-name="comma" unicode="," horiz-adv-x="432" 
d="M217 299q61 0 107.5 -51.5t46.5 -149.5t-78 -223t-193 -190l-59 127q66 55 96.5 92t42.5 96q-37 0 -74.5 47t-37.5 103t44 102.5t105 46.5z" />
    <glyph glyph-name="hyphen" unicode="-" horiz-adv-x="679" 
d="M84 457l-23 209h537l20 -209h-534z" />
    <glyph glyph-name="period" unicode="." horiz-adv-x="421" 
d="M213 0q-63 0 -107.5 43t-44.5 106.5t44.5 106.5t107.5 43t105 -43t42 -106.5t-42 -106.5t-105 -43z" />
    <glyph glyph-name="slash" unicode="/" horiz-adv-x="929" 
d="M297 -8l-277 8l611 1454l278 -8z" />
    <glyph glyph-name="zero" unicode="0" horiz-adv-x="1241" 
d="M295 588q0 -108 42 -197.5t116.5 -139.5t169 -50t169 49t116.5 135t42 194.5t-43 195.5t-117.5 136.5t-167.5 49.5t-168 -48.5t-117 -132.5t-42 -192zM51 583q0 173 74 310t204 215t293 78t292.5 -77t202.5 -214t73 -310t-74 -313.5t-204 -219.5t-291.5 -79t-291.5 79
t-204 218.5t-74 312.5z" />
    <glyph glyph-name="one" unicode="1" horiz-adv-x="753" 
d="M621 1159v-1159h-267v864l-233 -90l-101 199l422 186h179z" />
    <glyph glyph-name="two" unicode="2" horiz-adv-x="997" 
d="M670 815q0 156 -242 156q-121 0 -303 -105l-47 213q178 106 395 107q129 0 223.5 -47t145.5 -129t51 -201t-63.5 -215t-221.5 -229l-194 -162h518l24 -203h-905v178l414 352q205 174 205 285z" />
    <glyph glyph-name="three" unicode="3" horiz-adv-x="991" 
d="M475 1186q137 0 234.5 -48t146.5 -129t49 -175t-51 -170t-115 -105q41 -10 85 -53t75 -110.5t31 -163.5t-59.5 -188.5t-170 -146t-234.5 -53.5q-222 0 -466 129l135 179q82 -49 153.5 -71t165.5 -22t163 51.5t69 141.5t-75.5 144.5t-231.5 54.5h-86l-37 206h135
q123 0 197 46.5t74 114.5t-53.5 110.5t-139.5 42.5q-152 0 -305 -107l-125 178q218 144 436 144z" />
    <glyph glyph-name="four" unicode="4" horiz-adv-x="1146" 
d="M623 340v403l-316 -403h316zM891 1169v-829h215l-27 -219h-188v-262h-268v262h-568l-35 219l672 829h199z" />
    <glyph glyph-name="five" unicode="5" horiz-adv-x="1048" 
d="M568 731q120 0 272.5 -87t156.5 -343q0 -133 -61.5 -237.5t-174.5 -162t-243 -57.5q-233 0 -467 127l131 187q86 -47 158 -68.5t172 -21.5t172 63.5t72 165.5t-57.5 161.5t-135.5 59.5t-125 -29.5t-63 -66.5h-236l37 737h750l-29 -215h-496l-12 -244q59 31 179 31z" />
    <glyph glyph-name="six" unicode="6" horiz-adv-x="1075" 
d="M786 396q0 89 -61 153.5t-156 64.5q-158 0 -270 -84q2 -172 75.5 -254.5t181.5 -82.5t169 57t61 146zM1024 395q0 -121 -57.5 -217t-157 -150.5t-241.5 -54.5t-262 62.5t-187.5 184.5t-67.5 296q0 225 125 394t309.5 267.5t364.5 120.5l37 -219q-381 -104 -516 -303
q99 47 215 47t218.5 -57t161 -153.5t58.5 -217.5z" />
    <glyph glyph-name="seven" unicode="7" horiz-adv-x="970" 
d="M852 1159l78 -106l-402 -1194l-247 71l356 1014h-584l-33 215h832z" />
    <glyph glyph-name="eight" unicode="8" horiz-adv-x="1052" 
d="M291 372q0 -81 69.5 -132.5t164.5 -51.5t167 51.5t72 132.5t-62.5 140t-173.5 78q-115 -18 -176 -77.5t-61 -140.5zM711 958q0 58 -54.5 100t-131.5 42t-130 -43t-53 -107q0 -131 186 -162q183 28 183 170zM528 1317q127 0 222.5 -48t147.5 -129.5t52 -173.5t-49 -162.5
t-129 -107.5q90 -31 159.5 -123.5t69.5 -198.5t-57 -199t-164.5 -147.5t-251.5 -54.5t-253 54.5t-166.5 146.5t-57.5 198t69.5 200t160.5 124q-80 35 -128.5 106.5t-48.5 162.5t52.5 173.5t148.5 130.5t223 48z" />
    <glyph glyph-name="nine" unicode="9" horiz-adv-x="1075" 
d="M506 545q158 0 270 84q-2 172 -75.5 255t-198.5 83q-90 0 -151.5 -57.5t-61.5 -146.5t61.5 -153.5t155.5 -64.5zM1024 643q0 -225 -125 -394t-309 -267.5t-365 -120.5l-37 219q381 104 517 303q-98 -47 -215 -47t-219.5 57.5t-161 153.5t-58.5 217t57.5 217t158 150.5
t241.5 54.5t261 -62.5t187.5 -184.5t67.5 -296z" />
    <glyph glyph-name="colon" unicode=":" horiz-adv-x="421" 
d="M213 0q-63 0 -107.5 43t-44.5 106.5t44.5 106.5t107.5 43t105 -43t42 -106.5t-42 -106.5t-105 -43zM213 670q-63 0 -107.5 44t-44.5 106t44.5 106.5t106.5 44.5t105 -44.5t43 -106.5t-42 -106t-105 -44z" />
    <glyph glyph-name="semicolon" unicode=";" horiz-adv-x="434" 
d="M217 299q61 0 107.5 -51.5t46.5 -149.5t-78 -223t-193 -190l-59 127q66 55 96.5 92t42.5 96q-37 0 -74.5 47t-37.5 103t44 102.5t105 46.5zM223.5 971q63.5 0 106.5 -44.5t43 -106.5t-43 -106t-106.5 -44t-108.5 44t-45 106t45 106.5t108.5 44.5z" />
    <glyph glyph-name="less" unicode="&#x3c;" horiz-adv-x="712" 
d="M672 743l-344 -241l344 -242l-47 -221l-564 403v119l564 402z" />
    <glyph glyph-name="equal" unicode="=" horiz-adv-x="1056" 
d="M84 211l-23 197h916l18 -197h-911zM84 637l-23 199h916l18 -199h-911z" />
    <glyph glyph-name="greater" unicode="&#x3e;" horiz-adv-x="712" 
d="M41 743l47 220l563 -402v-119l-563 -403l-47 221l344 242z" />
    <glyph glyph-name="question" unicode="?" horiz-adv-x="890" 
d="M348.5 299q63.5 0 106.5 -43t43 -106.5t-43 -106.5t-106.5 -43t-107.5 43t-44 106.5t44 106.5t107.5 43zM409 1436q208 0 314 -99.5t106 -267.5q0 -109 -96 -227.5t-241 -194.5l-35 -280l-189 79l-16 338q150 49 242 124t92 150t-50 115.5t-122 40.5q-167 0 -359 -131
l-35 238q181 115 389 115z" />
    <glyph glyph-name="at" unicode="@" horiz-adv-x="1566" 
d="M662 457q0 -51 31.5 -88t80.5 -37t72.5 27.5t27.5 66.5l35 264q-104 0 -175.5 -63.5t-71.5 -169.5zM1094 397q0 -65 56 -65q28 0 86 56.5t58 229.5q0 117 -56 209.5t-155.5 143.5t-234.5 51t-267 -69.5t-213 -197t-81 -277.5t63.5 -251.5t170 -156t231.5 -54.5
q199 0 342 74l65 -203q-100 -51 -202.5 -68.5t-250.5 -17.5t-304 83t-253.5 233.5t-97.5 351.5t100.5 379t284.5 282.5t396 104.5t363 -79t236 -217t85 -306t-50.5 -281.5t-138 -172t-191.5 -58.5t-171 51q-96 -49 -172 -49q-180 0 -272.5 90.5t-92.5 230.5t66.5 238
t175 152.5t233.5 54.5h164l74 -92z" />
    <glyph glyph-name="A" unicode="A" horiz-adv-x="1349" 
d="M670 1028l-183 -485h369zM287 0h-267l543 1393h225l541 -1377l-266 -36l-125 348h-528z" />
    <glyph glyph-name="B" unicode="B" horiz-adv-x="1288" 
d="M743 610h-305v-391h287q109 0 172.5 48.5t63.5 142.5t-58.5 147t-159.5 53zM676 1171h-238v-346h197q117 0 186.5 44.5t69.5 134.5t-54.5 128.5t-160.5 38.5zM745 0h-571v1393h541q215 0 335.5 -94.5t120.5 -294.5q0 -131 -149 -248q215 -113 215 -346
q0 -191 -133 -300.5t-359 -109.5z" />
    <glyph glyph-name="C" unicode="C" horiz-adv-x="1155" 
d="M714 1198q-90 0 -177.5 -61.5t-138 -176t-50.5 -260.5t44 -259t128 -179.5t218 -66.5t286 63l100 -197q-78 -41 -189.5 -65.5t-201.5 -24.5q-211 0 -360.5 94.5t-225 257t-75.5 371.5t83 375t235.5 259t352.5 93q74 0 180.5 -22.5t188.5 -67.5l-82 -190l-51 14
q-80 25 -127.5 34t-137.5 9z" />
    <glyph glyph-name="D" unicode="D" horiz-adv-x="1415" 
d="M713 1167h-275v-944h260q176 0 273.5 116.5t97.5 352.5q0 476 -356 475zM174 0v1393h528q211 0 426 -129.5t215 -558.5q0 -330 -166.5 -515.5t-474.5 -189.5h-528z" />
    <glyph glyph-name="E" unicode="E" horiz-adv-x="1189" 
d="M438 207h668l43 -207h-975v1393h832l41 -209h-609v-375h455l43 -211h-498v-391z" />
    <glyph glyph-name="F" unicode="F" horiz-adv-x="1044" 
d="M438 1184v-387h436l39 -207h-475v-590h-264v1393h789l41 -209h-566z" />
    <glyph glyph-name="G" unicode="G" horiz-adv-x="1290" 
d="M1094 1141q-181 57 -300 57q-120 0 -222.5 -57.5t-163 -171t-60.5 -270.5t51.5 -270.5t144 -174t200.5 -60.5t217 23v340h-293l22 205h508v-688q-197 -103 -421 -103t-380.5 95.5t-240.5 259t-84 368.5t93 372t259 261t373 94q76 0 186.5 -22.5t194.5 -67.5z" />
    <glyph glyph-name="H" unicode="H" horiz-adv-x="1425" 
d="M987 1393h264v-1393h-264v590h-549v-590h-264v1393l264 10v-600h549v590z" />
    <glyph glyph-name="I" unicode="I" horiz-adv-x="612" 
d="M174 1393h264v-1393h-264v1393z" />
    <glyph glyph-name="J" unicode="J" horiz-adv-x="602" 
d="M180 178v1215h269v-1254q0 -96 -30 -157.5t-98.5 -105.5t-193.5 -85l-107 197q76 27 108 48t42 51t10 91z" />
    <glyph glyph-name="K" unicode="K" horiz-adv-x="1347" 
d="M440 0h-266v1393h266v-584l604 614l197 -151l-479 -500l565 -772h-330l-419 580l-138 -144v-436z" />
    <glyph glyph-name="L" unicode="L" horiz-adv-x="1114" 
d="M438 1393v-1186h615l41 -207h-920v1393h264z" />
    <glyph glyph-name="M" unicode="M" horiz-adv-x="1576" 
d="M1135 0v803l-261 -367l-102 -14l-334 428v-850h-264v1393h168l471 -643l428 643h162v-1393h-268z" />
    <glyph glyph-name="N" unicode="N" horiz-adv-x="1523" 
d="M438 0h-264v1393h264l645 -930v930h267v-1393h-267l-645 932v-932z" />
    <glyph glyph-name="O" unicode="O" horiz-adv-x="1509" 
d="M348 696q0 -148 49 -262.5t140.5 -176.5t210.5 -62t212 56t147 172.5t54 270.5t-49 266.5t-141 176t-208 63.5t-209 -62.5t-149.5 -178t-56.5 -263.5zM1438 700q0 -208 -86 -373t-241 -258.5t-357 -97.5q-211 0 -366 95.5t-235.5 258t-80.5 369.5t85 373t240.5 260
t356.5 98q211 0 366.5 -95t236.5 -258.5t81 -371.5z" />
    <glyph glyph-name="P" unicode="P" horiz-adv-x="1212" 
d="M606 705q257 0 275 225q0 129 -71 185t-208 56h-164v-466h168zM592 485h-154v-485h-264v1393h436q246 0 398.5 -109.5t152.5 -337.5q0 -152 -78.5 -256t-207.5 -154.5t-283 -50.5z" />
    <glyph glyph-name="Q" unicode="Q" horiz-adv-x="1509" 
d="M1161 677q0 171 -49 283.5t-141 176t-208 63.5t-209 -62.5t-149.5 -178t-56.5 -263.5t49 -262.5t140 -177t197 -62.5t186 35l-168 156l180 137l149 -145q80 129 80 300zM1438 705q0 -309 -174 -508l137 -134l-156 -137l-145 135q-156 -88 -356 -89t-355.5 94.5t-236 258
t-80.5 369.5t85 373t240.5 260t356.5 98q211 0 366.5 -95t236.5 -259t81 -366z" />
    <glyph glyph-name="R" unicode="R" horiz-adv-x="1286" 
d="M881 952q0 219 -279 219h-164v-426h168q125 0 200 50.5t75 156.5zM438 0h-264v1393h436q242 0 396.5 -109.5t154.5 -318.5q0 -125 -64.5 -219.5t-172.5 -147.5l342 -598h-283l-295 528h-250v-528z" />
    <glyph glyph-name="S" unicode="S" horiz-adv-x="1079" 
d="M754 349q0 62 -50.5 104.5t-154.5 99.5l-62 37q-137 82 -276 184t-139 279q0 106 57 191t164.5 133t270.5 48t380 -104l-88 -213q-84 41 -152.5 63.5t-154.5 22.5t-144.5 -36t-58.5 -100t46 -104.5t151 -101.5l125 -72q121 -70 240.5 -157t119.5 -267q0 -233 -178 -308
t-342 -75q-86 0 -214 38t-198 81l60 215q192 -98 370 -98q102 0 165 39t63 101z" />
    <glyph glyph-name="T" unicode="T" horiz-adv-x="1210" 
d="M20 1184v209h1127l43 -209h-477v-1184h-269v1184h-424z" />
    <glyph glyph-name="U" unicode="U" horiz-adv-x="1454" 
d="M422 1393v-867q0 -166 83 -248.5t222 -82.5t222 85t83 246v867h268v-887q0 -152 -71.5 -271.5t-202.5 -188.5t-302 -69t-300 69t-198.5 189.5t-69.5 270.5l-2 887h268z" />
    <glyph glyph-name="V" unicode="V" horiz-adv-x="1349" 
d="M561 0l-541 1376l267 37l393 -1048l383 1028h266l-543 -1393h-225z" />
    <glyph glyph-name="W" unicode="W" horiz-adv-x="1894" 
d="M1229 0l-283 1016l-282 -1016h-226l-418 1376l267 37l270 -1048l260 1028h266l265 -1028l260 1028h266l-420 -1393h-225z" />
    <glyph glyph-name="X" unicode="X" horiz-adv-x="1304" 
d="M979 0l-336 524l-350 -524h-273l488 705l-463 638l231 91l390 -557l342 516h276l-485 -699l458 -694h-278z" />
    <glyph glyph-name="Y" unicode="Y" horiz-adv-x="1245" 
d="M741 0h-266v543l-455 803l263 75l323 -610l338 582h281l-484 -861v-532z" />
    <glyph glyph-name="Z" unicode="Z" horiz-adv-x="1181" 
d="M1135 1184l-818 -977h803l31 -207h-1090l-30 207l794 977h-704l-31 209h1014z" />
    <glyph glyph-name="bracketleft" unicode="[" horiz-adv-x="741" 
d="M205 -180v1605h516l-41 -208h-211v-1190h211l41 -207h-516z" />
    <glyph glyph-name="backslash" unicode="\" horiz-adv-x="929" 
d="M20 1446l277 8l612 -1454l-278 -8z" />
    <glyph glyph-name="bracketright" unicode="]" horiz-adv-x="741" 
d="M537 1425v-1605h-517l37 207h211v1190h-211l-37 208h517z" />
    <glyph glyph-name="asciicircum" unicode="^" horiz-adv-x="929" 
d="M909 293h-274l-170 235l-168 -235h-277l365 506h162z" />
    <glyph glyph-name="underscore" unicode="_" horiz-adv-x="905" 
d="M84 0l-23 207h762l21 -207h-760z" />
    <glyph glyph-name="grave" unicode="`" horiz-adv-x="419" 
d="M295 1542l104 -285l-184 -51l-195 336h275z" />
    <glyph glyph-name="a" unicode="a" horiz-adv-x="1030" 
d="M313 303q0 -51 36 -84t91 -33q119 0 219 99v151h-200q-66 0 -106 -41t-40 -92zM518 1020q94 0 192.5 -47t157 -131t58.5 -189v-653h-174l-45 106q-125 -131 -263 -131q-178 0 -268 87.5t-90 237.5t102.5 232t274.5 82h194q-2 76 -44.5 118t-112.5 42t-152 -19.5
t-139 -45.5l-72 221q53 35 170 62.5t211 27.5z" />
    <glyph glyph-name="b" unicode="b" horiz-adv-x="1134" 
d="M809 500q0 131 -62.5 212t-160.5 81t-189 -60v-473q85 -57 185 -57t163.5 83t63.5 214zM594 -25q-139 0 -272 95l-54 -70h-135v1423l264 23v-471q90 45 187 45q231 0 365 -140.5t134 -379.5q0 -156 -60 -275t-175 -184.5t-254 -65.5z" />
    <glyph glyph-name="c" unicode="c" horiz-adv-x="966" 
d="M584 793q-113 0 -185.5 -84t-72.5 -213t71.5 -211t184.5 -82t266 67l76 -192q-63 -49 -166 -76t-178 -27q-160 0 -280 63.5t-184.5 181.5t-64.5 275.5t64.5 276.5t184.5 183.5t280 64.5q69 0 171.5 -28.5t172.5 -76.5l-76 -190q-151 68 -264 68z" />
    <glyph glyph-name="d" unicode="d" horiz-adv-x="1171" 
d="M562 793q-110 0 -173 -83t-63 -214t63 -212t167 -81t214 82v424q-98 84 -208 84zM559 1020q102 0 211 -66v469l268 23v-1446h-139l-61 90q-131 -115 -287 -115q-231 0 -365.5 140.5t-134.5 380.5q0 156 60.5 274.5t175 184t272.5 65.5z" />
    <glyph glyph-name="e" unicode="e" horiz-adv-x="1054" 
d="M752 596q-40 197 -164.5 197t-180 -50.5t-71.5 -146.5h416zM627 -25q-283 0 -429.5 138.5t-146.5 382.5q0 158 60.5 276.5t173 183t264.5 64.5t254 -69.5t151.5 -187.5t49.5 -263v-82h-670q20 -104 89 -159.5t210 -55.5q82 0 147.5 22.5t141.5 65.5l77 -193
q-158 -123 -372 -123z" />
    <glyph glyph-name="f" unicode="f" horiz-adv-x="763" 
d="M444 1030v-39h189l84 -205h-273v-786h-266v786h-153v205h153v76q0 174 102.5 272.5t284.5 98.5q47 0 106.5 -18.5t92.5 -45.5l-76 -192q-68 27 -110 26q-134 0 -134 -178z" />
    <glyph glyph-name="g" unicode="g" 
d="M562 793q-110 0 -173 -83t-63 -214t63 -212t167 -81t214 82v424q-98 84 -208 84zM770 -45v84q-102 -63 -219 -64q-231 0 -365.5 140.5t-134.5 380.5q0 156 60.5 274.5t175 184t272.5 65.5q68 0 144.5 -33t136.5 -84l59 90h139v-1040q0 -205 -143 -314.5t-385 -109.5
q-76 0 -205 31.5t-201 81.5l80 188q172 -84 320 -88q121 2 193.5 59.5t72.5 153.5z" />
    <glyph glyph-name="h" unicode="h" horiz-adv-x="1177" 
d="M748 1026q174 0 249.5 -106.5t75.5 -296.5v-623h-266v610q0 92 -38.5 143.5t-106.5 51.5t-129.5 -32t-135.5 -85v-688h-264v1423l264 23v-528q177 108 351 108z" />
    <glyph glyph-name="i" unicode="i" horiz-adv-x="491" 
d="M113 993h266v-993h-266v993zM245 1135q-62 0 -105.5 43t-43.5 106.5t43 106.5t105 43t106.5 -43t44.5 -106.5t-44 -106.5t-106 -43z" />
    <glyph glyph-name="j" unicode="j" horiz-adv-x="534" 
d="M145 41v952h269v-1016q0 -100 -27 -166.5t-95.5 -116.5t-197.5 -91l-104 202q127 45 141 106.5t14 129.5zM129 1284.5q0 63.5 43 106.5t106.5 43t107.5 -43t44 -106.5t-44 -106.5t-107.5 -43t-106.5 43t-43 106.5z" />
    <glyph glyph-name="k" unicode="k" horiz-adv-x="1058" 
d="M397 0h-264v1423l264 23v-815l426 391l150 -188l-279 -244l365 -590h-305l-250 420l-107 -94v-326z" />
    <glyph glyph-name="l" unicode="l" horiz-adv-x="530" 
d="M397 0h-264v1423l264 23v-1446z" />
    <glyph glyph-name="m" unicode="m" horiz-adv-x="1751" 
d="M748 610q0 195 -123 195q-61 0 -112.5 -28.5t-133.5 -88.5v-688h-266v993h174l45 -106q92 66 190.5 102.5t171.5 36.5q203 0 275 -135q92 63 188 99t170 36q170 0 245 -91t75 -271v-664h-267v610q0 195 -123 195q-61 0 -112 -28.5t-131 -86.5v-690h-266v610z" />
    <glyph glyph-name="n" unicode="n" horiz-adv-x="1159" 
d="M379 0h-266v993h174l45 -106q92 66 196.5 102.5t186.5 36.5q188 0 264 -106.5t76 -296.5v-623h-267v610q0 92 -37.5 143.5t-106.5 51.5t-130 -32t-135 -85v-688z" />
    <glyph glyph-name="o" unicode="o" 
d="M838 500q0 129 -72 211t-184 82t-184 -84t-72 -213t71 -211t183 -82t185 84t73 213zM581.5 -25q-159.5 0 -279.5 63.5t-185.5 181.5t-65.5 275.5t65.5 276.5t185.5 183.5t279.5 64.5t279.5 -63.5t185.5 -181.5t65.5 -275.5t-65.5 -276.5t-185.5 -183.5t-279.5 -64.5z" />
    <glyph glyph-name="p" unicode="p" horiz-adv-x="1126" 
d="M801 500q0 131 -62.5 212t-160.5 81t-189 -60v-473q85 -57 185 -57t163.5 83t63.5 214zM1075 500q0 -156 -60.5 -275t-175 -184.5t-272.5 -65.5q-84 0 -178 48v-451l-264 -21v1442h135l53 -67q121 94 262 94q232 0 366 -140.5t134 -379.5z" />
    <glyph glyph-name="q" unicode="q" 
d="M562 793q-110 0 -173 -83t-63 -214t63 -212t167 -81t214 82v424q-98 84 -208 84zM51 496q0 156 60.5 274.5t175 184t272.5 65.5q68 0 144.5 -33t136.5 -84l59 90h139v-1421l-268 -21v488q-102 -63 -219 -64q-231 0 -365.5 140.5t-134.5 380.5z" />
    <glyph glyph-name="r" unicode="r" horiz-adv-x="751" 
d="M379 0h-266v993h139l88 -166q72 63 168 114.5t170 51.5l53 -213q-67 0 -166.5 -49t-185.5 -125v-606z" />
    <glyph glyph-name="s" unicode="s" horiz-adv-x="864" 
d="M438 805q-51 0 -85 -25.5t-34 -56.5t40.5 -52t150.5 -61t206.5 -122t96.5 -216t-106.5 -215.5t-307.5 -81.5q-75 0 -177.5 27t-166.5 76l80 180q152 -68 260 -68q61 0 112.5 23t51.5 63q0 80 -174 134q-141 47 -235.5 120.5t-94.5 200.5t104.5 208t282.5 81
q70 0 170.5 -28.5t169.5 -76.5l-80 -178q-152 68 -264 68z" />
    <glyph glyph-name="t" unicode="t" horiz-adv-x="780" 
d="M418 991h180l82 -205h-262v-421q0 -80 38 -129.5t99 -49.5t117 27l78 -193q-31 -25 -91.5 -43t-109.5 -18q-186 0 -290.5 94t-104.5 264v469h-134v205h134v236l264 47v-283z" />
    <glyph glyph-name="u" unicode="u" horiz-adv-x="1159" 
d="M780 993h267v-993h-175l-45 106q-92 -66 -196.5 -102.5t-186.5 -36.5q-188 0 -264 106.5t-76 297.5v622h267v-610q0 -92 37.5 -143.5t106.5 -51.5t130.5 32t134.5 85v688z" />
    <glyph glyph-name="v" unicode="v" horiz-adv-x="1028" 
d="M727 993h281l-392 -993h-229l-367 952l261 78l229 -639z" />
    <glyph glyph-name="w" unicode="w" horiz-adv-x="1468" 
d="M1167 993h281l-318 -993h-223l-186 608l-178 -608h-226l-297 952l263 78l153 -614l144 577h292l154 -577z" />
    <glyph glyph-name="x" unicode="x" horiz-adv-x="1044" 
d="M698 0l-184 299l-199 -299h-295l338 506l-303 444l248 76l225 -350l205 317h291l-338 -526l305 -467h-293z" />
    <glyph glyph-name="y" unicode="y" horiz-adv-x="1030" 
d="M226.5 -149.5q66.5 40.5 88.5 102.5l47 117l-342 882l263 78l229 -639l217 602h281l-445 -1124q-45 -117 -161.5 -204t-253.5 -120l-95 219q105 46 171.5 86.5z" />
    <glyph glyph-name="z" unicode="z" horiz-adv-x="907" 
d="M102 774l-51 219h795l14 -151l-500 -627h500l21 -215h-820l-34 141l493 633h-418z" />
    <glyph glyph-name="braceleft" unicode="{" horiz-adv-x="602" 
d="M463 836q0 -135 -72 -203q72 -72 72 -205q1 -53 -27 -111q-28 -59 -36.5 -85t-8.5 -52t21.5 -43.5t56.5 -17.5h86l27 -205h-119q-147 0 -219 69.5t-72 190.5q0 37 16.5 87t23.5 74t17.5 59.5t10.5 66.5t-26 56.5t-60 25.5h-93v176h93q35 0 60.5 25.5t25.5 60.5t-29 113
q-39 121 -39 174q0 121 71.5 189.5t219.5 68.5h119l-27 -205h-86q-35 0 -56.5 -17.5t-21.5 -53.5q1 -36 27 -87t35.5 -80.5t9.5 -70.5z" />
    <glyph glyph-name="bar" unicode="|" horiz-adv-x="612" 
d="M438 -20l-264 20v1460l264 -20v-1460z" />
    <glyph glyph-name="braceright" unicode="}" horiz-adv-x="598" 
d="M135 836q-1 61 27 115q28 55 36.5 81t8.5 52t-21.5 43.5t-56.5 17.5h-86l-27 205h119q147 0 219 -69t72 -189q0 -53 -39 -174q-29 -78 -29 -113t26 -60.5t60 -25.5h93v-176h-93q-35 0 -60.5 -25.5t-25.5 -61.5t18 -90t34 -104.5t16 -87.5q0 -121 -71.5 -190.5
t-219.5 -69.5h-119l27 205h86q35 0 56.5 17.5t21.5 50.5q-1 33 -27 91t-35.5 86.5t-9.5 63.5q0 133 72 205q-72 68 -72 203z" />
    <glyph glyph-name="asciitilde" unicode="~" horiz-adv-x="980" 
d="M61 352q0 172 74 257t173 85t181 -35q78 -28 138 -28q20 0 36.5 19.5t18.5 58.5h238q0 -174 -74 -259t-172 -85t-158 25q-98 40 -150 40q-62 0 -67 -78h-238z" />
    <glyph glyph-name="uni00A0" unicode="&#xa0;" horiz-adv-x="483" 
 />
    <glyph glyph-name="exclamdown" unicode="&#xa1;" horiz-adv-x="423" 
d="M72 0l32 1034l215 -96l29 -938h-276zM212 1137q-62 0 -106.5 44t-44.5 106t44.5 106.5t106.5 44.5t106 -44t44 -106t-44 -106.5t-106 -44.5z" />
    <glyph glyph-name="cent" unicode="&#xa2;" horiz-adv-x="966" 
d="M582 203q113 0 266 67l76 -192q-66 -53 -189 -82v-232h-266v220q-195 33 -306.5 168t-111.5 344t110.5 345t303.5 169v215l266 26v-254q123 -33 193 -82l-76 -190q-152 68 -264 68q-113 0 -185.5 -84t-72.5 -213t71.5 -211t184.5 -82z" />
    <glyph glyph-name="sterling" unicode="&#xa3;" horiz-adv-x="1036" 
d="M514 995v-196h242l88 -203h-330v-186q0 -125 -43 -203h504l41 -207h-899l-21 207q86 2 118 46t32 130v213h-154v203h154v231q0 172 102.5 271.5t286.5 99.5q51 0 110.5 -18.5t90.5 -47.5l-78 -188q-57 25 -111 24q-133 0 -133 -176z" />
    <glyph glyph-name="currency" unicode="&#xa4;" horiz-adv-x="1435" 
d="M979 497q0 73 -37 133t-96.5 96t-125.5 36t-123.5 -36t-93.5 -97.5t-36 -133t36 -133t93 -98.5t124 -37t126 36t96 98.5t37 135.5zM722 1018q144 0 271 -70l217 217l164 -196l-196 -199q71 -116 75 -272q-2 -160 -75 -277l196 -198l-164 -197l-217 217q-123 -68 -269 -68
t-282 72l-217 -221l-164 197l201 204q-70 123 -70 270t72 265l-203 207l164 196l217 -219q136 72 280 72z" />
    <glyph glyph-name="yen" unicode="&#xa5;" horiz-adv-x="1245" 
d="M741 332h328l21 -197h-349v-135h-266v135h-299l-22 197h321v114h-299l-22 197h264l-398 703l263 75l323 -610l338 582h281l-422 -750h266l21 -197h-349v-114z" />
    <glyph glyph-name="brokenbar" unicode="&#xa6;" horiz-adv-x="612" 
d="M438 -20l-264 20v608l264 -18v-610zM438 831l-264 23v606l264 -20v-609z" />
    <glyph glyph-name="section" unicode="&#xa7;" horiz-adv-x="1230" 
d="M905 528q0 55 -50 97.5t-155 99.5l-61 37q-170 100 -250 168q-43 -38 -43 -96t46 -98t151 -101l131 -76q127 -74 190 -123q41 37 41 92zM156 90q192 -98 370 -98q102 0 165 39t63 101t-50.5 104.5t-154.5 99.5l-62 37q-137 82 -276 183t-139 285q0 183 166 289
q-14 51 -15 95q0 106 57.5 191t165.5 133t270 48t380 -104l-88 -213q-84 41 -153 63.5t-155 22.5t-144 -36t-58 -100t46 -104.5t150 -101.5l125 -72q121 -70 241 -157.5t120 -270.5q0 -184 -164 -291q12 -43 12 -94q0 -233 -178 -308t-342 -75q-86 0 -214 38t-198 81z" />
    <glyph glyph-name="dieresis" unicode="&#xa8;" horiz-adv-x="698" 
d="M546 1235q-56 0 -95 38t-39 93t40 94t95 39t93 -39t38 -94t-38 -93t-94 -38zM155 1235q-56 0 -95.5 38t-39.5 93t39 94t95 39t93.5 -39t37.5 -94t-37 -93t-93 -38z" />
    <glyph glyph-name="copyright" unicode="&#xa9;" horiz-adv-x="1685" 
d="M888 940q-97 0 -151.5 -66.5t-54.5 -185.5t54.5 -185.5t148.5 -66.5q59 0 107 15.5t122 50.5l72 -199q-58 -45 -148 -69.5t-157 -24.5q-219 0 -346 130t-127 351q0 143 61 252t168.5 168t243.5 59q63 0 152 -25.5t153 -66.5l-72 -200q-129 63 -226 63zM221 690
q0 -180 76 -323.5t216.5 -225.5t328.5 -82t328.5 82t216 225.5t75.5 323.5t-75.5 323.5t-216 225.5t-327.5 82t-328.5 -82t-217.5 -225.5t-76 -323.5zM1634 689q0 -218 -98 -397t-277.5 -282.5t-417 -103.5t-416.5 103.5t-276.5 282.5t-97.5 397t97.5 397.5t276.5 283
t416.5 103.5t417 -103.5t277.5 -283t98 -397.5z" />
    <glyph glyph-name="ordfeminine" unicode="&#xaa;" horiz-adv-x="669" 
d="M248 960.5q0 -32.5 49 -32.5q72 0 125 37v55h-111q-30 0 -46.5 -13.5t-16.5 -46zM332 1438q133 0 209.5 -67.5t76.5 -176.5v-434h-100l-49 53q-94 -70 -196 -70q-101 0 -161.5 59.5t-60.5 159.5t71 160t181 58h113q-12 74 -91 74t-192 -44l-47 168q113 60 246 60z" />
    <glyph glyph-name="guillemotleft" unicode="&#xab;" horiz-adv-x="821" 
d="M780 346l-43 -176l-329 283v98l329 285l43 -179l-172 -155zM436 346l-47 -176l-328 283v98l328 285l47 -179l-174 -155z" />
    <glyph glyph-name="logicalnot" unicode="&#xac;" horiz-adv-x="1052" 
d="M768 623h-731l-17 208h955l16 -102v-500l-223 11v383z" />
    <glyph glyph-name="softhyphen" unicode="&#xad;" horiz-adv-x="245" 
 />
    <glyph glyph-name="registered" unicode="&#xae;" horiz-adv-x="1501" 
d="M725 1239h-70v-172h72q74 0 113 18.5t39 68.5t-37 67.5t-117 17.5zM1075 1159q0 -140 -133 -207l162 -329h-211l-127 292h-111v-292h-188v772h307q133 0 217 -59.5t84 -176.5zM211 1001q0 -158 64.5 -281.5t186.5 -195t287 -71.5t287.5 71.5t188 195.5t65.5 282
t-65.5 281.5t-189 193t-287.5 69.5t-286 -69.5t-186.5 -193.5t-64.5 -282zM1450 999q0 -195 -86 -352.5t-244.5 -248.5t-368.5 -91t-369 91t-245 249.5t-86 352.5t86 352.5t245 250t369 91.5t368.5 -91.5t244.5 -250t86 -353.5z" />
    <glyph glyph-name="macron" unicode="&#xaf;" horiz-adv-x="577" 
d="M20 1255v211h517l20 -211h-537z" />
    <glyph glyph-name="degree" unicode="&#xb0;" horiz-adv-x="530" 
d="M346 1244q0 32 -23.5 57.5t-55.5 25.5t-56.5 -23.5t-24.5 -55.5t25 -58.5t57 -26.5t55 24.5t23 56.5zM266 1483q63 0 119.5 -32t90.5 -85t34 -117q0 -98 -72 -164.5t-172 -66.5t-173 66t-73 164t73 166.5t173 68.5z" />
    <glyph glyph-name="plusminus" unicode="&#xb1;" horiz-adv-x="960" 
d="M82 0l-14 184h823l8 -184h-817zM600 793h281l18 -183h-299v-323l-227 10v313h-291l-21 183h312v301l227 -7v-294z" />
    <glyph glyph-name="twosuperior" unicode="&#xb2;" horiz-adv-x="761" 
d="M358 1579q111 0 187 -41t113.5 -104.5t37.5 -141.5t-49 -155.5t-164 -173.5l-108 -89h317l29 -184h-670v168l281 229q61 51 89 99.5t28 116.5q0 33 -29 56t-76 23q-104 0 -227 -63l-90 172q156 88 331 88z" />
    <glyph glyph-name="threesuperior" unicode="&#xb3;" horiz-adv-x="759" 
d="M357 1579q157 0 241 -77t84 -193q0 -66 -40 -124.5t-87 -78.5q31 -8 87 -61.5t56 -154.5q0 -102 -45 -170.5t-127 -108.5t-180 -40q-206 0 -346 97l102 170q68 -41 110 -56.5t102 -15.5t98.5 30.5t38.5 75.5q0 138 -168 138h-64l-26 184h100q141 0 141 113q0 74 -115 73
q-59 0 -102 -19.5t-90 -57.5l-96 165q169 111 326 111z" />
    <glyph glyph-name="acute" unicode="&#xb4;" horiz-adv-x="419" 
d="M125 1542h274l-194 -336l-185 51z" />
    <glyph glyph-name="mu" unicode="&#xb5;" horiz-adv-x="1179" 
d="M1067 0h-174l-45 106q-92 -66 -196 -102.5t-160 -36.5t-101 4v-399l-266 -21v1442h266v-610q0 -92 38 -143.5t107 -51.5t130 32t135 85v688h266v-993z" />
    <glyph glyph-name="paragraph" unicode="&#xb6;" horiz-adv-x="1863" 
d="M1352 1184h-414v-1184h-268v485h-47q-156 0 -286 50.5t-208 155t-78 255.5q0 227 152.5 337t396.5 110h1212v-209h-192v-1184h-268v1184z" />
    <glyph glyph-name="periodcentered" unicode="&#xb7;" horiz-adv-x="421" 
d="M213 387q-63 0 -107.5 43t-44.5 106.5t44.5 106.5t107.5 43t105 -43t42 -106.5t-42 -106.5t-105 -43z" />
    <glyph glyph-name="cedilla" unicode="&#xb8;" horiz-adv-x="493" 
d="M226 -281q59 0 59 36t-52.5 59.5t-128.5 31.5l72 181h191l-37 -86q61 -25 102 -77t41 -106q0 -102 -74.5 -156.5t-183.5 -54.5q-43 0 -103.5 16.5t-91.5 41.5l62 155q85 -41 144 -41z" />
    <glyph glyph-name="onesuperior" unicode="&#xb9;" horiz-adv-x="632" 
d="M500 1563v-873h-242v627l-143 -66l-95 170l322 142h158z" />
    <glyph glyph-name="ordmasculine" unicode="&#xba;" horiz-adv-x="788" 
d="M397 1253q-121 0 -121 -161q0 -84 26 -125t85 -41q125 0 125 159q0 84 -25.5 126t-89.5 42zM396 1438q160 0 250.5 -94.5t90.5 -254.5t-96 -252t-256 -92t-247 92.5t-87 252.5t92.5 254t252.5 94z" />
    <glyph glyph-name="guillemotright" unicode="&#xbb;" horiz-adv-x="825" 
d="M389 657l45 179l330 -285v-98l-330 -283l-45 176l174 156zM41 657l47 179l326 -285v-98l-326 -283l-47 176l174 156z" />
    <glyph glyph-name="onequarter" unicode="&#xbc;" horiz-adv-x="1878" 
d="M1407 31v219l-182 -219h182zM1651 31h186l-22 -197h-164v-172h-244v172h-406l-24 197l506 628h168v-628zM1561 1434l-1203 -1708h-286l1200 1708h289zM500 1563v-873h-242v627l-143 -66l-95 170l322 142h158z" />
    <glyph glyph-name="onehalf" unicode="&#xbd;" horiz-adv-x="1898" 
d="M1833 376q0 -79 -49 -156t-164 -173l-109 -88h318l29 -184h-670v168l280 229q66 55 91.5 94.5t25.5 89.5t-29.5 80.5t-74.5 30.5q-104 0 -228 -64l-90 172q156 88 332 89q111 0 186.5 -41t113.5 -104.5t38 -142.5zM358 -274h-286l1200 1708h289zM500 1563v-873h-242v627
l-143 -66l-95 170l322 142h158z" />
    <glyph glyph-name="threequarters" unicode="&#xbe;" horiz-adv-x="1845" 
d="M1376 31v219l-186 -219h186zM1620 659v-628h184l-20 -197h-164v-172h-244v172h-405l-27 197l508 628h168zM438 -274h-286l1200 1708h288zM357 1579q157 0 241 -77t84 -193q0 -66 -40 -124.5t-87 -78.5q31 -8 87 -61.5t56 -154.5q0 -102 -45 -170.5t-127 -108.5t-180 -40
q-206 0 -346 97l102 170q68 -41 110 -56.5t102 -15.5t98.5 30.5t38.5 75.5q0 138 -168 138h-64l-26 184h100q141 0 141 113q0 74 -115 73q-59 0 -102 -19.5t-90 -57.5l-96 165q169 111 326 111z" />
    <glyph glyph-name="questiondown" unicode="&#xbf;" horiz-adv-x="888" 
d="M61 291q0 109 95.5 226.5t240.5 197.5l35 278l189 -78l18 -337q-152 -49 -244 -125t-92 -151t49 -116t125 -41q171 0 357 134l34 -240q-179 -115 -388 -115q-208 0 -313.5 100.5t-105.5 266.5zM540.5 1059q-63.5 0 -106.5 44t-43 106t43 106.5t106.5 44.5t107.5 -44
t44 -106t-44 -106.5t-107.5 -44.5z" />
    <glyph glyph-name="Agrave" unicode="&#xc0;" horiz-adv-x="1349" 
d="M670 1028l-183 -485h369zM287 0h-267l543 1393h225l541 -1377l-266 -36l-125 348h-528zM666 1849l104 -284l-184 -52l-195 336h275z" />
    <glyph glyph-name="Aacute" unicode="&#xc1;" horiz-adv-x="1349" 
d="M670 1028l-183 -485h369zM287 0h-267l543 1393h225l541 -1377l-266 -36l-125 348h-528zM629 1849h274l-194 -336l-185 52z" />
    <glyph glyph-name="Acircumflex" unicode="&#xc2;" horiz-adv-x="1349" 
d="M670 1028l-183 -485h369zM287 0h-267l543 1393h225l541 -1377l-266 -36l-125 348h-528zM1044 1546l-243 -33l-135 134l-138 -134l-252 33l312 303h145z" />
    <glyph glyph-name="Atilde" unicode="&#xc3;" horiz-adv-x="1349" 
d="M670 1028l-183 -485h369zM287 0h-267l543 1393h225l541 -1377l-266 -36l-125 348h-528zM821 1774h166q0 -128 -63 -188t-141 -60t-128 39q-59 34 -93 34q-34 1 -51 -21t-17 -42h-177q-1 127 63 186q64 60 142 60t133 -37q109 -63 150 -15q16 19 16 44z" />
    <glyph glyph-name="Adieresis" unicode="&#xc4;" horiz-adv-x="1349" 
d="M670 1028l-183 -485h369zM287 0h-267l543 1393h225l541 -1377l-266 -36l-125 348h-528zM865 1542q-56 0 -95 38t-39 93t40 94t95 39t93 -39t38 -94t-38 -93t-94 -38zM474 1542q-56 0 -95 38t-39 93t39 94t95 39t93 -39t37 -94t-37 -93t-93 -38z" />
    <glyph glyph-name="Aring" unicode="&#xc5;" horiz-adv-x="1349" 
d="M670 1028l-183 -485h369zM287 0h-267l543 1393h225l541 -1377l-266 -36l-125 348h-528zM666 1642q32 0 56 25t24 57t-24 57q-24 23 -56 23t-58 -24q-25 -24 -25 -56t25 -57t58 -25zM666 1931q88 0 154 -60q66 -61 65 -147q0 -86 -65 -143q-64 -57 -154 -57t-155 57
t-65 143t66 147q66 60 154 60z" />
    <glyph glyph-name="AE" unicode="&#xc6;" horiz-adv-x="1970" 
d="M954 543v485l-331 -485h331zM954 328h-475l-225 -348l-254 36l928 1377h862l39 -209h-606v-375h454l43 -211h-497v-391h665l41 -207h-975v328z" />
    <glyph glyph-name="Ccedilla" unicode="&#xc7;" horiz-adv-x="1155" 
d="M756 -245q0 36 -52.5 59.5t-128.5 31.5l54 131q-178 23 -304 122.5t-189.5 252t-63.5 352.5t83 365.5t235.5 258.5t352.5 93q74 0 180.5 -22.5t188.5 -67.5l-82 -190l-51 14q-80 25 -127.5 34t-137.5 9t-177.5 -61.5t-138 -176t-50.5 -260.5t44 -259t128 -179.5
t218 -66.5t286 63l100 -197q-119 -61 -309 -86l-14 -34q61 -25 102 -77t41 -106q0 -102 -74.5 -156.5t-183.5 -54.5q-43 0 -103.5 16.5t-90.5 41.5l61 155q85 -41 144 -41t59 36z" />
    <glyph glyph-name="Egrave" unicode="&#xc8;" horiz-adv-x="1189" 
d="M438 207h668l43 -207h-975v1393h832l41 -209h-609v-375h455l43 -211h-498v-391zM614 1849l105 -284l-184 -52l-195 336h274z" />
    <glyph glyph-name="Eacute" unicode="&#xc9;" horiz-adv-x="1189" 
d="M438 207h668l43 -207h-975v1393h832l41 -209h-609v-375h455l43 -211h-498v-391zM578 1849h274l-195 -336l-184 52z" />
    <glyph glyph-name="Ecircumflex" unicode="&#xca;" horiz-adv-x="1189" 
d="M438 207h668l43 -207h-975v1393h832l41 -209h-609v-375h455l43 -211h-498v-391zM993 1546l-243 -33l-136 134l-137 -134l-252 33l312 303h145z" />
    <glyph glyph-name="Edieresis" unicode="&#xcb;" horiz-adv-x="1189" 
d="M438 207h668l43 -207h-975v1393h832l41 -209h-609v-375h455l43 -211h-498v-391zM814 1542q-56 0 -95 38t-39 93t40 94t95 39t93 -39t38 -94t-38 -93t-94 -38zM423 1542q-56 0 -95 38t-39 93t39 94t95 39t93 -39t37 -94t-37 -93t-93 -38z" />
    <glyph glyph-name="Igrave" unicode="&#xcc;" horiz-adv-x="612" 
d="M174 1393h264v-1393h-264v1393zM307 1849l105 -284l-185 -52l-194 336h274z" />
    <glyph glyph-name="Iacute" unicode="&#xcd;" horiz-adv-x="612" 
d="M174 1393h264v-1393h-264v1393zM270 1849h275l-195 -336l-184 52z" />
    <glyph glyph-name="Icircumflex" unicode="&#xce;" horiz-adv-x="612" 
d="M174 1393h264v-1393h-264v1393zM686 1546l-244 -33l-135 134l-137 -134l-252 33l311 303h146z" />
    <glyph glyph-name="Idieresis" unicode="&#xcf;" horiz-adv-x="612" 
d="M174 1393h264v-1393h-264v1393zM507 1542q-56 0 -95 38t-39 93t40 94t95 39t93 -39t38 -94t-38 -93t-94 -38zM116 1542q-56 0 -96 38q-39 38 -38 93q0 55 38 94q40 39 96 39t93 -39t37 -94t-37 -93t-93 -38z" />
    <glyph glyph-name="Eth" unicode="&#xd0;" horiz-adv-x="1415" 
d="M1069 692q0 476 -356 475h-275v-364h148l18 -207h-166v-373h260q176 0 273.5 116.5t97.5 352.5zM1343 705q0 -326 -167.5 -513.5t-473.5 -193.5l-528 2v596h-115l-22 207h137v590h528q211 0 426 -129.5t215 -558.5z" />
    <glyph glyph-name="Ntilde" unicode="&#xd1;" horiz-adv-x="1523" 
d="M438 0h-264v1393h264l645 -930v930h267v-1393h-267l-645 932v-932zM1092 1774q0 -128 -64 -188t-141 -60q-78 0 -127 39q-59 34 -93 34q-35 1 -52 -21t-17 -42h-176q0 127 63 186q63 60 142 60t133 -37q109 -63 149 -15q16 19 17 44h166z" />
    <glyph glyph-name="Ograve" unicode="&#xd2;" horiz-adv-x="1509" 
d="M348 695q0 -148 49 -262t141 -176t210 -62q251 0 359 228q54 117 54 271t-49 267t-141 176t-208 63q-115 0 -209 -62t-150 -179q-56 -116 -56 -264zM1438 700q0 -208 -86 -373t-241 -258t-357 -98q-211 -1 -366 95t-235 259q-81 163 -81 369t85 373q84 166 240 260
t357 98q210 0 366 -95t237 -259q81 -163 81 -371zM750 1849l104 -284l-184 -52l-195 336h275z" />
    <glyph glyph-name="Oacute" unicode="&#xd3;" horiz-adv-x="1509" 
d="M348 695q0 -148 49 -262t141 -176t210 -62q251 0 359 228q54 117 54 271t-49 267t-141 176t-208 63q-115 0 -209 -62t-150 -179q-56 -116 -56 -264zM1438 700q0 -208 -86 -373t-241 -258t-357 -98q-211 -1 -366 95t-235 259q-81 163 -81 369t85 373q84 166 240 260
t357 98q210 0 366 -95t237 -259q81 -163 81 -371zM713 1849h274l-194 -336l-185 52z" />
    <glyph glyph-name="Ocircumflex" unicode="&#xd4;" horiz-adv-x="1509" 
d="M348 695q0 -148 49 -262t141 -176t210 -62q251 0 359 228q54 117 54 271t-49 267t-141 176t-208 63q-115 0 -209 -62t-150 -179q-56 -116 -56 -264zM1438 700q0 -208 -86 -373t-241 -258t-357 -98q-211 -1 -366 95t-235 259q-81 163 -81 369t85 373q84 166 240 260
t357 98q210 0 366 -95t237 -259q81 -163 81 -371zM1128 1546l-243 -33l-135 134l-138 -134l-252 33l312 303h145z" />
    <glyph glyph-name="Otilde" unicode="&#xd5;" horiz-adv-x="1509" 
d="M348 695q0 -148 49 -262t141 -176t210 -62q251 0 359 228q54 117 54 271t-49 267t-141 176t-208 63q-115 0 -209 -62t-150 -179q-56 -116 -56 -264zM1438 700q0 -208 -86 -373t-241 -258t-357 -98q-211 -1 -366 95t-235 259q-81 163 -81 369t85 373q84 166 240 260
t357 98q210 0 366 -95t237 -259q81 -163 81 -371zM905 1774h166q0 -128 -63 -188t-141 -60t-128 39q-59 34 -93 34q-34 1 -51 -21t-17 -42h-177q-1 127 63 186q64 60 142 60t133 -37q109 -63 150 -15q16 19 16 44z" />
    <glyph glyph-name="Odieresis" unicode="&#xd6;" horiz-adv-x="1509" 
d="M348 695q0 -148 49 -262t141 -176t210 -62q251 0 359 228q54 117 54 271t-49 267t-141 176t-208 63q-115 0 -209 -62t-150 -179q-56 -116 -56 -264zM1438 700q0 -208 -86 -373t-241 -258t-357 -98q-211 -1 -366 95t-235 259q-81 163 -81 369t85 373q84 166 240 260
t357 98q210 0 366 -95t237 -259q81 -163 81 -371zM949 1542q-56 0 -95 38t-39 93t40 94t95 39t93 -39t38 -94t-38 -93t-94 -38zM558 1542q-56 0 -95 38t-39 93t39 94t95 39t93 -39t37 -94t-37 -93t-93 -38z" />
    <glyph glyph-name="multiply" unicode="&#xd7;" horiz-adv-x="1165" 
d="M799 59l-219 281l-244 -281h-275l396 467l-363 465h273l219 -280l243 280h275l-395 -467l362 -465h-272z" />
    <glyph glyph-name="Oslash" unicode="&#xd8;" horiz-adv-x="1509" 
d="M1161 728q0 190 -102 327l-361 -856q33 -4 54 -4q114 0 207.5 56t147.5 171.5t54 305.5zM348 710q0 -256 121 -391l365 875q-37 6 -76 6q-111 0 -204 -62.5t-149.5 -178t-56.5 -249.5zM1438 700q0 -208 -86 -373t-241 -258.5t-357 -97.5q-211 0 -366 95.5t-235.5 258
t-80.5 369.5t85 373t240.5 260t356.5 98q211 0 366.5 -95t236.5 -258.5t81 -371.5z" />
    <glyph glyph-name="Ugrave" unicode="&#xd9;" horiz-adv-x="1454" 
d="M422 1393v-867q0 -166 83 -248t222 -83q139 0 222 85t83 246v867h268v-887q0 -152 -72 -272t-202 -188q-131 -68 -302 -69q-171 0 -300 69q-128 70 -198 190t-70 270l-2 887h268zM723 1849l104 -284l-184 -52l-194 336h274z" />
    <glyph glyph-name="Uacute" unicode="&#xda;" horiz-adv-x="1454" 
d="M422 1393v-867q0 -166 83 -248t222 -83q139 0 222 85t83 246v867h268v-887q0 -152 -72 -272t-202 -188q-131 -68 -302 -69q-171 0 -300 69q-128 70 -198 190t-70 270l-2 887h268zM686 1849h275l-195 -336l-184 52z" />
    <glyph glyph-name="Ucircumflex" unicode="&#xdb;" horiz-adv-x="1454" 
d="M422 1393v-867q0 -166 83 -248t222 -83q139 0 222 85t83 246v867h268v-887q0 -152 -72 -272t-202 -188q-131 -68 -302 -69q-171 0 -300 69q-128 70 -198 190t-70 270l-2 887h268zM1102 1546l-244 -33l-135 134l-137 -134l-252 33l311 303h146z" />
    <glyph glyph-name="Udieresis" unicode="&#xdc;" horiz-adv-x="1454" 
d="M422 1393v-867q0 -166 83 -248t222 -83q139 0 222 85t83 246v867h268v-887q0 -152 -72 -272t-202 -188q-131 -68 -302 -69q-171 0 -300 69q-128 70 -198 190t-70 270l-2 887h268zM923 1542q-56 0 -96 38q-39 38 -39 93t40 94t96 39t93 -39q38 -39 38 -94t-38 -93t-94 -38
zM532 1542q-56 0 -96 38q-39 38 -39 93t39 94t95 39q55 0 93 -39t38 -94t-37 -93t-93 -38z" />
    <glyph glyph-name="Yacute" unicode="&#xdd;" horiz-adv-x="1245" 
d="M741 0h-266v543l-455 803l263 75l323 -610l338 582h281l-484 -861v-532zM565 1849h275l-195 -336l-184 52z" />
    <glyph glyph-name="Thorn" unicode="&#xde;" horiz-adv-x="1243" 
d="M606 541q257 0 275 225q0 129 -71 185.5t-208 56.5h-164v-467h168zM1161 782q0 -152 -78.5 -256t-208 -154t-282.5 -50h-154v-322h-264v1393h264v-164h172q246 0 398.5 -109.5t152.5 -337.5z" />
    <glyph glyph-name="germandbls" unicode="&#xdf;" horiz-adv-x="1282" 
d="M397 965v-965h-264v969q0 213 128 341t352 128t365.5 -103.5t141.5 -294.5q0 -82 -48 -163.5t-118 -114.5q66 -16 127.5 -68.5t100.5 -130t39 -181.5t-61.5 -194t-174.5 -139t-260 -49h-205v219h187q96 0 164.5 54.5t68.5 137.5t-63.5 142t-151.5 59h-193v213h72
q106 0 172 57.5t66 140.5t-62.5 134t-157.5 51t-160 -66t-65 -177z" />
    <glyph glyph-name="agrave" unicode="&#xe0;" horiz-adv-x="1030" 
d="M313 303q0 -51 36 -84t91 -33q119 0 219 99v151h-200q-66 0 -106 -41t-40 -92zM518 1020q94 0 193 -47q98 -47 156 -131t59 -189v-653h-174l-45 106q-125 -131 -263 -131q-178 0 -268 87t-90 237q0 151 102 233t275 82h194q-2 76 -44 118q-43 42 -113 42t-152 -19
t-139 -46l-72 221q53 34 170 62t211 28zM563 1542l105 -285l-185 -51l-194 336h274z" />
    <glyph glyph-name="aacute" unicode="&#xe1;" horiz-adv-x="1030" 
d="M313 303q0 -51 36 -84t91 -33q119 0 219 99v151h-200q-66 0 -106 -41t-40 -92zM518 1020q94 0 193 -47q98 -47 156 -131t59 -189v-653h-174l-45 106q-125 -131 -263 -131q-178 0 -268 87t-90 237q0 151 102 233t275 82h194q-2 76 -44 118q-43 42 -113 42t-152 -19
t-139 -46l-72 221q53 34 170 62t211 28zM461 1542h274l-194 -336l-185 51z" />
    <glyph glyph-name="acircumflex" unicode="&#xe2;" horiz-adv-x="1030" 
d="M313 303q0 -51 36 -84t91 -33q119 0 219 99v151h-200q-66 0 -106 -41t-40 -92zM518 1020q94 0 193 -47q98 -47 156 -131t59 -189v-653h-174l-45 106q-125 -131 -263 -131q-178 0 -268 87t-90 237q0 151 102 233t275 82h194q-2 76 -44 118q-43 42 -113 42t-152 -19
t-139 -46l-72 221q53 34 170 62t211 28zM891 1239l-244 -33l-135 133l-137 -133l-252 33l311 303h146z" />
    <glyph glyph-name="atilde" unicode="&#xe3;" horiz-adv-x="1030" 
d="M313 303q0 -51 36 -84t91 -33q119 0 219 99v151h-200q-66 0 -106 -41t-40 -92zM518 1020q94 0 193 -47q98 -47 156 -131t59 -189v-653h-174l-45 106q-125 -131 -263 -131q-178 0 -268 87t-90 237q0 151 102 233t275 82h194q-2 76 -44 118q-43 42 -113 42t-152 -19
t-139 -46l-72 221q53 34 170 62t211 28zM680 1466h166q0 -129 -64 -188t-140 -59q-77 0 -128 38q-31 19 -50 27t-48 8t-46 -22t-18 -41h-176q0 127 64 186t140 59q77 0 121 -26q45 -28 67 -36t51 -9q29 0 45 19t16 44z" />
    <glyph glyph-name="adieresis" unicode="&#xe4;" horiz-adv-x="1030" 
d="M313 303q0 -51 36 -84t91 -33q119 0 219 99v151h-200q-66 0 -106 -41t-40 -92zM518 1020q94 0 193 -47q98 -47 156 -131t59 -189v-653h-174l-45 106q-125 -131 -263 -131q-178 0 -268 87t-90 237q0 151 102 233t275 82h194q-2 76 -44 118q-43 42 -113 42t-152 -19
t-139 -46l-72 221q53 34 170 62t211 28zM696 1235q-56 0 -96 38q-39 38 -39 93t40 94t95 39q56 0 94 -39t38 -94t-38 -93t-94 -38zM304 1235q-56 0 -95 38t-39 93t39 94t95 39t93 -39t37 -94t-37 -93t-93 -38z" />
    <glyph glyph-name="aring" unicode="&#xe5;" horiz-adv-x="1030" 
d="M313 303q0 -51 36 -84t91 -33q119 0 219 99v151h-200q-66 0 -106 -41t-40 -92zM518 1020q94 0 193 -47q98 -47 156 -131t59 -189v-653h-174l-45 106q-125 -131 -263 -131q-178 0 -268 87t-90 237q0 151 102 233t275 82h194q-2 76 -44 118q-43 42 -113 42t-152 -19
t-139 -46l-72 221q53 34 170 62t211 28zM504 1335q32 0 56 25q24 26 24 58t-24 56t-56 24t-58 -24q-25 -24 -25 -56t25 -58q25 -25 58 -25zM504 1624q88 0 154 -60t65 -146q0 -86 -65 -144q-64 -57 -154 -57t-155 57q-65 58 -65 144t66 146t154 60z" />
    <glyph glyph-name="ae" unicode="&#xe6;" horiz-adv-x="1665" 
d="M459 436q-66 0 -106 -41t-40 -92t36.5 -84t108.5 -33q134 0 234 109q-23 68 -28 141h-205zM1362 596q-42 197 -165.5 197t-178.5 -50.5t-72 -146.5h416zM494 1020q196 0 325 -121q131 121 342 121q150 0 301.5 -102.5t151.5 -417.5v-82h-670q20 -104 89 -159.5t210 -55.5
q82 0 147.5 22.5t141.5 65.5l78 -193q-158 -123 -373 -123q-295 0 -444 154q-72 -70 -151 -112t-198 -42q-178 0 -268 87.5t-90 237.5t102.5 232t274.5 82h194q-2 76 -44.5 118t-112.5 42t-152 -19.5t-139 -45.5l-72 221q53 35 170 62.5t187 27.5z" />
    <glyph glyph-name="ccedilla" unicode="&#xe7;" horiz-adv-x="966" 
d="M582 203q113 0 266 67l76 -192q-105 -79 -285 -98l-16 -39q61 -25 102 -77t41 -106q0 -102 -75 -156.5t-183 -54.5q-43 0 -103.5 16.5t-91.5 41.5l62 155q85 -41 144 -41t59 36t-52.5 59.5t-128.5 31.5l56 142q-186 35 -294 169t-108 339q0 158 64.5 276.5t184.5 183
t280 64.5q70 0 172 -28.5t172 -76.5l-76 -190q-152 68 -264 68q-113 0 -185.5 -84t-72.5 -213t71.5 -211t184.5 -82z" />
    <glyph glyph-name="egrave" unicode="&#xe8;" horiz-adv-x="1054" 
d="M752 596q-40 195 -207 197q-82 -1 -137 -51t-72 -146h416zM627 -25q-283 1 -429 139t-147 382q1 158 61 276t173 184q113 64 265 64t253 -70q199 -135 201 -450v-82h-670q20 -104 89 -160t210 -55q81 1 147 23t142 65l77 -193q-158 -123 -372 -123zM588 1542l104 -285
l-184 -51l-195 336h275z" />
    <glyph glyph-name="eacute" unicode="&#xe9;" horiz-adv-x="1054" 
d="M752 596q-40 195 -207 197q-82 -1 -137 -51t-72 -146h416zM627 -25q-283 1 -429 139t-147 382q1 158 61 276t173 184q113 64 265 64t253 -70q199 -135 201 -450v-82h-670q20 -104 89 -160t210 -55q81 1 147 23t142 65l77 -193q-158 -123 -372 -123zM485 1542h275
l-195 -336l-184 51z" />
    <glyph glyph-name="ecircumflex" unicode="&#xea;" horiz-adv-x="1054" 
d="M752 596q-40 195 -207 197q-82 -1 -137 -51t-72 -146h416zM627 -25q-283 1 -429 139t-147 382q1 158 61 276t173 184q113 64 265 64t253 -70q199 -135 201 -450v-82h-670q20 -104 89 -160t210 -55q81 1 147 23t142 65l77 -193q-158 -123 -372 -123zM915 1239l-243 -33
l-135 133l-138 -133l-252 33l312 303h145z" />
    <glyph glyph-name="edieresis" unicode="&#xeb;" horiz-adv-x="1054" 
d="M752 596q-40 195 -207 197q-82 -1 -137 -51t-72 -146h416zM627 -25q-283 1 -429 139t-147 382q1 158 61 276t173 184q113 64 265 64t253 -70q199 -135 201 -450v-82h-670q20 -104 89 -160t210 -55q81 1 147 23t142 65l77 -193q-158 -123 -372 -123zM720 1235
q-56 0 -95 38t-39 93t40 94t95 39t93 -39t38 -94t-38 -93t-94 -38zM329 1235q-56 0 -96 38q-39 38 -38 93q0 55 38 94q39 39 95 39t94 -39q37 -39 37 -94t-37 -93t-93 -38z" />
    <glyph glyph-name="igrave" unicode="&#xec;" horiz-adv-x="491" 
d="M113 993h266v-993h-266v993zM287 1542l104 -285l-184 -51l-195 336h275z" />
    <glyph glyph-name="iacute" unicode="&#xed;" horiz-adv-x="491" 
d="M113 993h266v-993h-266v993zM184 1542h275l-195 -336l-184 51z" />
    <glyph glyph-name="icircumflex" unicode="&#xee;" horiz-adv-x="491" 
d="M113 993h266v-993h-266v993zM614 1239l-243 -33l-135 133l-138 -133l-252 33l312 303h145z" />
    <glyph glyph-name="idieresis" unicode="&#xef;" horiz-adv-x="491" 
d="M113 993h266v-993h-266v993zM419 1235q-56 0 -95 38t-39 93t40 94t95 39t93 -39t38 -94t-38 -93t-94 -38zM28 1235q-56 0 -96 38q-39 38 -38 93q0 55 38 94q40 39 96 39t93 -39t37 -94t-37 -93t-93 -38z" />
    <glyph glyph-name="eth" unicode="&#xf0;" 
d="M838 501q0 130 -47 249q-92 43 -206 43t-186.5 -84t-72.5 -213t71 -211t183 -82t185 84t73 214zM1112 557q0 -182 -65.5 -313t-185.5 -200t-279.5 -69t-279.5 63.5t-185.5 181.5t-65.5 275t64.5 276.5t180.5 184t265 64.5q18 0 55 -4q-55 61 -133 123l-268 -146l-104 189
l168 88q-55 31 -148 71l102 193q152 -43 297 -131l222 117l102 -183l-133 -71q178 -152 284.5 -339.5t106.5 -369.5z" />
    <glyph glyph-name="ntilde" unicode="&#xf1;" horiz-adv-x="1159" 
d="M379 0h-266v993h174l45 -106q92 67 196 103t187 36q188 0 264 -106t76 -297v-623h-267v610q0 92 -37 144q-38 51 -107 51t-130 -32t-135 -85v-688zM764 1466h166q0 -129 -64 -188t-140 -59q-77 0 -128 38q-31 19 -50 27t-48 8t-46 -22t-18 -41h-176q0 127 64 186t140 59
q77 0 121 -26q45 -28 67 -36t51 -9q29 0 45 19t16 44z" />
    <glyph glyph-name="ograve" unicode="&#xf2;" 
d="M838 500q0 129 -72 211t-184 82t-184 -84t-72 -213t72 -211t182 -82q112 0 185 84t73 213zM582 -25q-160 -1 -280 63t-186 182t-65 276q0 158 66 276q65 118 185 184q120 64 280 64t280 -64t185 -181q66 -117 66 -275t-66 -277t-186 -183q-119 -64 -279 -65zM621 1542
l104 -285l-184 -51l-195 336h275z" />
    <glyph glyph-name="oacute" unicode="&#xf3;" 
d="M838 500q0 129 -72 211t-184 82t-184 -84t-72 -213t72 -211t182 -82q112 0 185 84t73 213zM582 -25q-160 -1 -280 63t-186 182t-65 276q0 158 66 276q65 118 185 184q120 64 280 64t280 -64t185 -181q66 -117 66 -275t-66 -277t-186 -183q-119 -64 -279 -65zM518 1542
h275l-195 -336l-184 51z" />
    <glyph glyph-name="ocircumflex" unicode="&#xf4;" 
d="M838 500q0 129 -72 211t-184 82t-184 -84t-72 -213t72 -211t182 -82q112 0 185 84t73 213zM582 -25q-160 -1 -280 63t-186 182t-65 276q0 158 66 276q65 118 185 184q120 64 280 64t280 -64t185 -181q66 -117 66 -275t-66 -277t-186 -183q-119 -64 -279 -65zM948 1239
l-243 -33l-136 133l-137 -133l-252 33l312 303h145z" />
    <glyph glyph-name="otilde" unicode="&#xf5;" 
d="M838 500q0 129 -72 211t-184 82t-184 -84t-72 -213t72 -211t182 -82q112 0 185 84t73 213zM582 -25q-160 -1 -280 63t-186 182t-65 276q0 158 66 276q65 118 185 184q120 64 280 64t280 -64t185 -181q66 -117 66 -275t-66 -277t-186 -183q-119 -64 -279 -65zM737 1466
h166q0 -129 -63 -188t-140 -59t-129 38q-31 19 -50 27t-48 8t-46 -22t-17 -41h-177q-1 127 63 186t141 59t121 -26q44 -28 67 -36t51 -9q28 0 45 19q16 19 16 44z" />
    <glyph glyph-name="odieresis" unicode="&#xf6;" 
d="M838 500q0 129 -72 211t-184 82t-184 -84t-72 -213t72 -211t182 -82q112 0 185 84t73 213zM582 -25q-160 -1 -280 63t-186 182t-65 276q0 158 66 276q65 118 185 184q120 64 280 64t280 -64t185 -181q66 -117 66 -275t-66 -277t-186 -183q-119 -64 -279 -65zM753 1235
q-56 0 -96 38q-39 38 -39 93t40 94t96 39t93 -39q38 -39 38 -94t-38 -93t-94 -38zM362 1235q-56 0 -96 38q-39 38 -39 93t39 94t95 39q55 0 93 -39t38 -94t-37 -93t-93 -38z" />
    <glyph glyph-name="divide" unicode="&#xf7;" horiz-adv-x="1042" 
d="M518.5 49q-65.5 0 -112 47t-46.5 113t46.5 112t112 46t112.5 -46.5t47 -112.5t-47 -112.5t-112.5 -46.5zM80 457l-19 209h897l23 -209h-901zM518.5 737q-65.5 0 -112 46t-46.5 112t46.5 112t112 46t112.5 -46t47 -112t-47 -112t-112.5 -46z" />
    <glyph glyph-name="oslash" unicode="&#xf8;" 
d="M838 500q0 84 -33 153l-266 -446q29 -4 43 -4q110 0 183 84t73 213zM326 512q0 -112 41 -184l262 460q-29 4 -47 5q-111 0 -183.5 -84.5t-72.5 -196.5zM1112 499.5q0 -157.5 -65.5 -276.5t-185.5 -183.5t-279.5 -64.5t-279.5 63.5t-185.5 181.5t-65.5 275.5t65.5 276.5
t185.5 183.5t279.5 64.5t279.5 -63.5t185.5 -181.5t65.5 -275.5z" />
    <glyph glyph-name="ugrave" unicode="&#xf9;" horiz-adv-x="1159" 
d="M780 993h267v-993h-175l-45 106q-92 -66 -196 -102t-187 -37q-188 1 -264 107t-76 297v622h267v-610q0 -92 38 -143q39 -52 107 -52t129 32t135 85v688zM629 1542l104 -285l-184 -51l-195 336h275z" />
    <glyph glyph-name="uacute" unicode="&#xfa;" horiz-adv-x="1159" 
d="M780 993h267v-993h-175l-45 106q-92 -66 -196 -102t-187 -37q-188 1 -264 107t-76 297v622h267v-610q0 -92 38 -143q39 -52 107 -52t129 32t135 85v688zM526 1542h275l-195 -336l-184 51z" />
    <glyph glyph-name="ucircumflex" unicode="&#xfb;" horiz-adv-x="1159" 
d="M780 993h267v-993h-175l-45 106q-92 -66 -196 -102t-187 -37q-188 1 -264 107t-76 297v622h267v-610q0 -92 38 -143q39 -52 107 -52t129 32t135 85v688zM956 1239l-243 -33l-135 133l-138 -133l-252 33l312 303h145z" />
    <glyph glyph-name="udieresis" unicode="&#xfc;" horiz-adv-x="1159" 
d="M780 993h267v-993h-175l-45 106q-92 -66 -196 -102t-187 -37q-188 1 -264 107t-76 297v622h267v-610q0 -92 38 -143q39 -52 107 -52t129 32t135 85v688zM761 1235q-56 0 -95 38t-39 93t40 94t95 39t93 -39t38 -94t-38 -93t-94 -38zM370 1235q-56 0 -96 38q-39 38 -38 93
q0 55 38 94q40 39 96 39t93 -39t37 -94t-37 -93t-93 -38z" />
    <glyph glyph-name="yacute" unicode="&#xfd;" horiz-adv-x="1030" 
d="M226 -150q67 41 89 103l47 117l-342 882l263 78l229 -639l217 602h281l-445 -1124q-45 -117 -162 -204t-253 -120l-95 219q104 45 171 86zM444 1544h275l-195 -336l-184 52z" />
    <glyph glyph-name="thorn" unicode="&#xfe;" horiz-adv-x="1126" 
d="M801 500q0 131 -62.5 212t-160.5 81t-189 -60v-473q85 -57 185 -57t163.5 83t63.5 214zM1075 500q0 -156 -60.5 -275t-175 -184.5t-272.5 -65.5q-78 0 -178 54v-457l-264 -21v1872l264 23v-475q98 49 186 49q232 0 366 -140.5t134 -379.5z" />
    <glyph glyph-name="ydieresis" unicode="&#xff;" horiz-adv-x="1030" 
d="M226 -150q67 41 89 103l47 117l-342 882l263 78l229 -639l217 602h281l-445 -1124q-45 -117 -162 -204t-253 -120l-95 219q104 45 171 86zM679 1237q-56 0 -95 38t-39 93t40 94t95 39t93 -39t38 -94t-38 -93t-94 -38zM288 1237q-56 0 -95 38t-39 93t39 94t95 39t93 -39
t37 -94t-37 -93t-93 -38z" />
    <glyph glyph-name="Amacron" unicode="&#x100;" horiz-adv-x="1349" 
d="M670 1028l-183 -485h369zM287 0h-267l543 1393h225l541 -1377l-266 -36l-125 348h-528zM391 1563v211h516l21 -211h-537z" />
    <glyph glyph-name="amacron" unicode="&#x101;" horiz-adv-x="1030" 
d="M313 303q0 -51 36 -84t91 -33q119 0 219 99v151h-200q-66 0 -106 -41t-40 -92zM518 1020q94 0 193 -47q98 -47 156 -131t59 -189v-653h-174l-45 106q-125 -131 -263 -131q-178 0 -268 87t-90 237q0 151 102 233t275 82h194q-2 76 -44 118q-43 42 -113 42t-152 -19
t-139 -46l-72 221q53 34 170 62t211 28zM240 1255v211h516l20 -211h-536z" />
    <glyph glyph-name="Abreve" unicode="&#x102;" horiz-adv-x="1349" 
d="M670 1028l-183 -485h369zM287 0h-267l543 1393h225l541 -1377l-266 -36l-125 348h-528zM791 1849h178q0 -139 -78 -236t-223 -100q-146 1 -224 99t-77 237h182q0 -61 29 -103t90 -42t92 43t31 102z" />
    <glyph glyph-name="abreve" unicode="&#x103;" horiz-adv-x="1030" 
d="M313 303q0 -51 36 -84t91 -33q119 0 219 99v151h-200q-66 0 -106 -41t-40 -92zM518 1020q94 0 193 -47q98 -47 156 -131t59 -189v-653h-174l-45 106q-125 -131 -263 -131q-178 0 -268 87t-90 237q0 151 102 233t275 82h194q-2 76 -44 118q-43 42 -113 42t-152 -19
t-139 -46l-72 221q53 34 170 62t211 28zM643 1542h178q0 -139 -78 -236t-223 -100q-145 2 -223 100t-78 236h182q0 -61 29 -103t90 -42t92 43t31 102z" />
    <glyph glyph-name="Aogonek" unicode="&#x104;" horiz-adv-x="1349" 
d="M670 1028l-183 -485h369zM1249 -162q0 -65 66 -65q33 0 82 34l76 -163q-89 -68 -201 -68t-179 67.5t-67 163.5q0 35 17.5 86.5t41.5 88.5l-22 -2l-125 348h-528l-123 -328h-267l543 1393h225l541 -1377l-45 -6h55q-31 -29 -60.5 -84t-29.5 -88z" />
    <glyph glyph-name="aogonek" unicode="&#x105;" horiz-adv-x="1030" 
d="M459 436q-66 0 -106 -41t-40 -92t36 -84t91 -33q117 0 219 99v151h-200zM911 -162q0 -65 66 -65q33 0 82 34l76 -163q-89 -68 -201 -68t-179 67.5t-67 163.5q0 39 21.5 98.5t48.5 94.5h-6l-45 106q-125 -131 -263 -131q-178 0 -268 87.5t-90 237.5t102.5 232t274.5 82
h194q-2 76 -44.5 118t-112.5 42t-152 -19.5t-139 -45.5l-72 221q53 35 170 62.5t211 27.5t192.5 -47t157 -131t58.5 -189v-643h75q-31 -29 -60.5 -84t-29.5 -88z" />
    <glyph glyph-name="Cacute" unicode="&#x106;" horiz-adv-x="1155" 
d="M714 1198q-90 0 -178 -61t-138 -176t-50 -261q0 -304 172 -439q84 -67 218 -67t286 64l100 -197q-78 -41 -190 -65t-201 -25q-211 1 -361 95t-225 257t-75 371t83 375q83 166 235 259q153 93 353 93q75 1 181 -22t188 -68l-82 -190l-51 14q-80 25 -127 34q-48 9 -138 9z
M705 1849h274l-195 -336l-184 52z" />
    <glyph glyph-name="cacute" unicode="&#x107;" horiz-adv-x="966" 
d="M584 203q115 0 264 67l76 -192q-64 -49 -166 -76t-178 -27q-160 -1 -280 63t-184 182t-65 276q0 158 65 276q64 118 184 184q120 64 280 64q70 0 172 -29t172 -76l-76 -190q-314 141 -450 -16q-72 -84 -72 -213t72 -211t186 -82zM473 1542h275l-195 -336l-184 51z" />
    <glyph glyph-name="Ccaron" unicode="&#x10c;" horiz-adv-x="1155" 
d="M714 1198q-90 0 -178 -61t-138 -176t-50 -261q0 -304 172 -439q84 -67 218 -67t286 64l100 -197q-78 -41 -190 -65t-201 -25q-211 1 -361 95t-225 257t-75 371t83 375q83 166 235 259q153 93 353 93q75 1 181 -22t188 -68l-82 -190l-51 14q-80 25 -127 34q-48 9 -138 9z
M365 1817l251 32l138 -133l135 133l244 -32l-312 -304h-145z" />
    <glyph glyph-name="ccaron" unicode="&#x10d;" horiz-adv-x="966" 
d="M584 203q115 0 264 67l76 -192q-64 -49 -166 -76t-178 -27q-160 -1 -280 63t-184 182t-65 276q0 158 65 276q64 118 184 184q120 64 280 64q70 0 172 -29t172 -76l-76 -190q-314 141 -450 -16q-72 -84 -72 -213t72 -211t186 -82zM150 1509l251 33l138 -133l135 133
l244 -33l-312 -303h-145z" />
    <glyph glyph-name="Dcaron" unicode="&#x10e;" horiz-adv-x="1415" 
d="M438 1167v-944h260q176 0 274 116q97 117 97 353q0 477 -356 475h-275zM174 0v1393h528q212 0 356 -87t215 -242t70 -359q1 -331 -166 -516t-475 -189h-528zM289 1817l252 32l137 -133l135 133l244 -32l-312 -304h-145z" />
    <glyph glyph-name="dcaron" unicode="&#x10f;" horiz-adv-x="1570" 
d="M562 793q-110 0 -173 -83t-63 -214t63 -212t167 -81t214 82v424q-98 84 -208 84zM559 1020q102 0 211 -66v469l268 23v-1446h-139l-61 90q-131 -115 -287 -115q-231 0 -365.5 140.5t-134.5 380.5q0 156 60.5 274.5t175 184t272.5 65.5zM1509 1318q0 -98 -76.5 -221.5
t-193.5 -189.5l-57 125q66 57 95.5 94t41.5 97q-37 0 -76 46t-39 100t44 102.5t108 48.5t108.5 -52t44.5 -150z" />
    <glyph glyph-name="Dcroat" unicode="&#x110;" horiz-adv-x="1415" 
d="M1069 692q0 476 -356 475h-275v-364h148l18 -207h-166v-373h260q176 0 273.5 116.5t97.5 352.5zM1343 705q0 -330 -166.5 -515.5t-474.5 -189.5h-528v596h-115l-22 207h137v590h528q211 0 426 -129.5t215 -558.5z" />
    <glyph glyph-name="dcroat" unicode="&#x111;" horiz-adv-x="1171" 
d="M562 793q-110 0 -173 -83t-63 -214t63 -212t167 -81t214 82v424q-98 84 -208 84zM559 1020q87 0 211 -70v166h-123l-24 195h147v112l268 23v-135h121l23 -195h-144v-1116h-139l-63 92q-140 -117 -285 -117q-231 0 -365.5 140.5t-134.5 380.5q0 156 60.5 274.5t175 184
t272.5 65.5z" />
    <glyph glyph-name="Emacron" unicode="&#x112;" horiz-adv-x="1189" 
d="M438 207h668l43 -207h-975v1393h832l41 -209h-609v-375h455l43 -211h-498v-391zM340 1563v211h516l21 -211h-537z" />
    <glyph glyph-name="emacron" unicode="&#x113;" horiz-adv-x="1054" 
d="M752 596q-40 195 -207 197q-82 -1 -137 -51t-72 -146h416zM627 -25q-283 1 -429 139t-147 382q1 158 61 276t173 184q113 64 265 64t253 -70q199 -135 201 -450v-82h-670q20 -104 89 -160t210 -55q81 1 147 23t142 65l77 -193q-158 -123 -372 -123zM264 1255v211h516
l21 -211h-537z" />
    <glyph glyph-name="Edotaccent" unicode="&#x116;" horiz-adv-x="1189" 
d="M438 207h668l43 -207h-975v1393h832l41 -209h-609v-375h455l43 -211h-498v-391zM618 1524q-64 0 -107 43q-44 43 -44 106t44 107t107 45q64 0 106 -44q42 -43 42 -107t-42 -107t-106 -43z" />
    <glyph glyph-name="edotaccent" unicode="&#x117;" horiz-adv-x="1054" 
d="M752 596q-40 195 -207 197q-82 -1 -137 -51t-72 -146h416zM627 -25q-283 1 -429 139t-147 382q1 158 61 276t173 184q113 64 265 64t253 -70q199 -135 201 -450v-82h-670q20 -104 89 -160t210 -55q81 1 147 23t142 65l77 -193q-158 -123 -372 -123zM543 1217
q-63 0 -108 43q-44 43 -44 106q0 64 44 108q43 44 107 44t106 -44t42 -108t-42 -106q-42 -43 -105 -43z" />
    <glyph glyph-name="Eogonek" unicode="&#x118;" horiz-adv-x="1189" 
d="M942 -164q0 -63 66 -63q33 0 82 34l75 -163q-89 -68 -201 -68t-178.5 67.5t-66.5 163.5q0 39 21.5 98.5t47.5 94.5h-614v1393h832l41 -209h-609v-375h455l43 -211h-498v-391h668l43 -207h-127q-31 -31 -55.5 -82t-24.5 -82z" />
    <glyph glyph-name="eogonek" unicode="&#x119;" horiz-adv-x="1054" 
d="M752 596q-42 197 -165.5 197t-179 -50.5t-71.5 -146.5h416zM555 -204q0 84 55 179q-274 4 -416.5 142.5t-142.5 378.5q0 158 60.5 276.5t173 183t264.5 64.5t254 -69.5t151.5 -187.5t49.5 -263v-82h-670q20 -104 89 -159.5t210 -55.5q82 0 147.5 22.5t141.5 65.5l77 -193
q-74 -57 -155 -88h24q-31 -29 -60.5 -84t-29.5 -88q0 -65 64 -65q35 0 84 34l75 -163q-90 -68 -201 -68t-178 68t-67 152z" />
    <glyph glyph-name="Ecaron" unicode="&#x11a;" horiz-adv-x="1189" 
d="M438 207h668l43 -207h-975v1393h832l41 -209h-609v-375h455l43 -211h-498v-391zM238 1817l251 32l138 -133l135 133l244 -32l-312 -304h-145z" />
    <glyph glyph-name="ecaron" unicode="&#x11b;" horiz-adv-x="1054" 
d="M752 596q-40 195 -207 197q-82 -1 -137 -51t-72 -146h416zM627 -25q-283 1 -429 139t-147 382q1 158 61 276t173 184q113 64 265 64t253 -70q199 -135 201 -450v-82h-670q20 -104 89 -160t210 -55q81 1 147 23t142 65l77 -193q-158 -123 -372 -123zM162 1509l252 33
l137 -133l135 133l244 -33l-312 -303h-145z" />
    <glyph glyph-name="Gbreve" unicode="&#x11e;" horiz-adv-x="1290" 
d="M1094 1141q-181 57 -300 57q-120 0 -222 -57t-163 -171t-61 -271t51 -271t145 -173q94 -61 200 -61q108 0 217 23v340h-293l22 205h508v-688q-197 -103 -421 -103q-224 -1 -381 95t-240 260q-84 164 -84 368t93 372q93 167 259 261t373 94q77 -1 187 -23t194 -67z
M918 1849h178q0 -139 -78 -236t-223 -100q-145 1 -223 99t-78 237h182q0 -61 29 -103t90 -42t92 43t31 102z" />
    <glyph glyph-name="gbreve" unicode="&#x11f;" 
d="M326 496q0 -131 62 -212t168 -81t214 82v424q-97 82 -207 83q-111 1 -174 -82t-63 -214zM770 -45v84q-102 -63 -219 -64q-231 1 -365 141t-135 380q1 156 61 274t175 184t272 66q69 0 145 -33t136 -84l59 90h139v-1040q0 -205 -143 -315t-385 -109q-76 0 -205 32t-201 81
l80 188q172 -84 320 -88q122 2 194 59t72 154zM834 1542q0 -139 -78 -236t-224 -100q-145 2 -223 100t-78 236h183q0 -61 28 -103t90 -42t93 43t30 102h179z" />
    <glyph glyph-name="Gcommaaccent" unicode="&#x122;" horiz-adv-x="1290" 
d="M1094 1141q-181 57 -300 57q-120 0 -222 -57t-163 -171t-61 -271t51 -271t145 -173q94 -61 200 -61q108 0 217 23v340h-293l22 205h508v-688q-197 -103 -421 -103q-224 -1 -381 95t-240 260q-84 164 -84 368t93 372q93 167 259 261t373 94q77 -1 187 -23t194 -67z
M771 -43q63 0 107 -52q44 -51 44 -147t-68 -193t-170 -147l-57 125q31 12 63 44t43 71q-39 0 -77 46t-38 102t46 104q45 47 107 47z" />
    <glyph glyph-name="gcommaaccent" unicode="&#x123;" 
d="M562 793q-110 0 -173 -83t-63 -214t63 -212t167 -81t214 82v424q-98 84 -208 84zM770 -45v88q-109 -68 -219 -68q-231 0 -365.5 140.5t-134.5 380.5q0 156 60.5 274.5t175 184t272.5 65.5q59 0 139 -34t142 -83l59 90h139v-1040q0 -205 -143 -314.5t-385 -109.5
q-76 0 -205 31.5t-201 81.5l80 188q172 -84 320 -88q121 2 193.5 59.5t72.5 153.5zM399 1305q0 93 69 190.5t169 151.5l57 -127q-29 -8 -60.5 -40t-43.5 -73q23 0 49.5 -21.5t46 -56.5t19.5 -81t-45.5 -94t-107.5 -48t-107.5 53t-45.5 146z" />
    <glyph glyph-name="Imacron" unicode="&#x12a;" horiz-adv-x="612" 
d="M174 1393h264v-1393h-264v1393zM33 1563v211h516l20 -211h-536z" />
    <glyph glyph-name="imacron" unicode="&#x12b;" horiz-adv-x="491" 
d="M113 993h266v-993h-266v993zM-37 1255v211h516l21 -211h-537z" />
    <glyph glyph-name="Iogonek" unicode="&#x12e;" horiz-adv-x="612" 
d="M352 -164q0 -63 66 -63q33 0 82 34l75 -163q-89 -68 -201 -68t-178.5 67.5t-66.5 163.5q0 39 21.5 98.5t48.5 94.5h-25v1393h264v-1383h4l-4 -4v-6h-6q-31 -31 -55.5 -82t-24.5 -82z" />
    <glyph glyph-name="iogonek" unicode="&#x12f;" horiz-adv-x="491" 
d="M244 -170q0 -57 66 -57q34 0 81 34l76 -163q-89 -68 -201 -68t-179 67.5t-67 163.5q0 43 26 106.5t52 96.5h15v983h266v-993h-55q-31 -31 -55.5 -82t-24.5 -88zM90 1366.5q0 63.5 44 107.5t107.5 44t105.5 -44t42 -107.5t-42 -106.5t-105.5 -43t-107.5 43t-44 106.5z" />
    <glyph glyph-name="Idotaccent" unicode="&#x130;" horiz-adv-x="612" 
d="M174 1393h264v-1393h-264v1393zM312 1524q-64 0 -108 43t-44 106t44 107t107 45q63 0 105 -44q42 -43 43 -107q0 -64 -42 -107q-41 -43 -105 -43z" />
    <glyph glyph-name="dotlessi" unicode="&#x131;" horiz-adv-x="491" 
d="M113 993h266v-993h-266v993z" />
    <glyph glyph-name="Kcommaaccent" unicode="&#x136;" horiz-adv-x="1347" 
d="M440 0h-266v1393h266v-584l604 614l197 -151l-479 -500l565 -772h-330l-419 580l-138 -144v-436zM734 -43q62 0 106 -52q44 -51 45 -147q0 -96 -68 -193t-170 -147l-57 125q30 12 62 44t44 71q-38 0 -76 46t-38 102t45 104q45 47 107 47z" />
    <glyph glyph-name="kcommaaccent" unicode="&#x137;" horiz-adv-x="1058" 
d="M397 0h-264v1423l264 23v-815l426 391l150 -188l-279 -244l365 -590h-305l-250 420l-107 -94v-326zM568 -43q62 0 106 -52q44 -51 45 -147q0 -96 -68 -193t-170 -147l-57 125q30 12 62 44t44 71q-38 0 -76 46t-38 102t45 104q45 47 107 47z" />
    <glyph glyph-name="Lacute" unicode="&#x139;" horiz-adv-x="1114" 
d="M438 1393v-1186h615l41 -207h-920v1393h264zM449 1849h274l-195 -336l-184 52z" />
    <glyph glyph-name="lacute" unicode="&#x13a;" horiz-adv-x="530" 
d="M397 0h-264v1378l264 25v-1403zM283 1849h274l-195 -336l-184 52z" />
    <glyph glyph-name="Lcommaaccent" unicode="&#x13b;" horiz-adv-x="1114" 
d="M438 1393v-1186h615l41 -207h-920v1393h264zM760 -43q62 0 107 -52q44 -51 44 -147q1 -96 -67 -193t-170 -147l-58 125q31 12 63 44t44 71q-39 0 -77 46t-38 102t45 104q45 47 107 47z" />
    <glyph glyph-name="lcommaaccent" unicode="&#x13c;" horiz-adv-x="530" 
d="M397 0h-264v1423l264 23v-1446zM284 -43q62 0 106 -52q44 -51 44 -147t-68 -193t-169 -147l-58 125q31 12 63 44t44 71q-39 0 -77 46t-38 102t45 104q46 47 108 47z" />
    <glyph glyph-name="Lcaron" unicode="&#x13d;" horiz-adv-x="1114" 
d="M438 1393v-1186h615l41 -207h-920v1393h264zM1018 1318q0 -98 -77 -222t-193 -189l-58 125q66 57 96 94t41 97q-37 0 -75 46t-39 100q0 54 44 102q43 49 107 49t109 -52t45 -150z" />
    <glyph glyph-name="lcaron" unicode="&#x13e;" horiz-adv-x="925" 
d="M397 0h-264v1423l264 23v-1446zM711 1520q64 0 108.5 -52t44.5 -150t-76.5 -221.5t-193.5 -189.5l-57 125q66 57 95.5 94t41.5 97q-37 0 -76 46t-39 100t44 102.5t108 48.5z" />
    <glyph glyph-name="Lslash" unicode="&#x141;" horiz-adv-x="1138" 
d="M174 1393h264v-504l217 164l103 -187l-320 -239v-420h615l41 -207h-920v426l-63 -47l-101 186l164 123v705z" />
    <glyph glyph-name="lslash" unicode="&#x142;" horiz-adv-x="749" 
d="M508 0h-264v526l-142 -104l-102 184l244 185v632l264 23v-455l137 105l105 -185l-242 -182v-729z" />
    <glyph glyph-name="Nacute" unicode="&#x143;" horiz-adv-x="1523" 
d="M438 0h-264v1393h264l645 -930v930h267v-1393h-267l-645 932v-932zM733 1849h275l-195 -336l-184 52z" />
    <glyph glyph-name="nacute" unicode="&#x144;" horiz-adv-x="1159" 
d="M379 0h-266v993h174l45 -106q92 67 196 103t187 36q188 0 264 -106t76 -297v-623h-267v610q0 92 -37 144q-38 51 -107 51t-130 -32t-135 -85v-688zM545 1542h274l-194 -336l-185 51z" />
    <glyph glyph-name="Ncommaaccent" unicode="&#x145;" horiz-adv-x="1523" 
d="M438 0h-264v1393h264l645 -930v930h267v-1393h-267l-645 932v-932zM785 -43q63 0 107 -52q44 -51 44 -147t-68 -193t-170 -147l-57 125q31 12 63 44t44 71q-39 0 -77 46t-38 102t45 104q45 47 107 47z" />
    <glyph glyph-name="ncommaaccent" unicode="&#x146;" horiz-adv-x="1159" 
d="M379 0h-266v993h174l45 -106q92 67 196 103t187 36q188 0 264 -106t76 -297v-623h-267v610q0 92 -37 144q-38 51 -107 51t-130 -32t-135 -85v-688zM605 -43q63 0 107 -52q44 -51 44 -147t-68 -193t-170 -147l-57 125q31 12 63 44t43 71q-39 0 -77 46t-38 102t46 104
q45 47 107 47z" />
    <glyph glyph-name="Ncaron" unicode="&#x147;" horiz-adv-x="1523" 
d="M438 0h-264v1393h264l645 -930v930h267v-1393h-267l-645 932v-932zM393 1817l252 32l137 -133l136 133l243 -32l-311 -304h-145z" />
    <glyph glyph-name="ncaron" unicode="&#x148;" horiz-adv-x="1159" 
d="M379 0h-266v993h174l45 -106q92 67 196 103t187 36q188 0 264 -106t76 -297v-623h-267v610q0 92 -37 144q-38 51 -107 51t-130 -32t-135 -85v-688zM221 1509l252 33l137 -133l135 133l244 -33l-311 -303h-146z" />
    <glyph glyph-name="Omacron" unicode="&#x14c;" horiz-adv-x="1509" 
d="M348 695q0 -148 49 -262t141 -176t210 -62q251 0 359 228q54 117 54 271t-49 267t-141 176t-208 63q-115 0 -209 -62t-150 -179q-56 -116 -56 -264zM1438 700q0 -208 -86 -373t-241 -258t-357 -98q-211 -1 -366 95t-235 259q-81 163 -81 369t85 373q84 166 240 260
t357 98q210 0 366 -95t237 -259q81 -163 81 -371zM475 1563v211h516l21 -211h-537z" />
    <glyph glyph-name="omacron" unicode="&#x14d;" 
d="M838 500q0 129 -72 211t-184 82t-184 -84t-72 -213t72 -211t182 -82q112 0 185 84t73 213zM582 -25q-160 -1 -280 63t-186 182t-65 276q0 158 66 276q65 118 185 184q120 64 280 64t280 -64t185 -181q66 -117 66 -275t-66 -277t-186 -183q-119 -64 -279 -65zM297 1255
v211h516l21 -211h-537z" />
    <glyph glyph-name="Ohungarumlaut" unicode="&#x150;" horiz-adv-x="1509" 
d="M348 695q0 -148 49 -262t141 -176t210 -62q251 0 359 228q54 117 54 271t-49 267t-141 176t-208 63q-115 0 -209 -62t-150 -179q-56 -116 -56 -264zM1438 700q0 -208 -86 -373t-241 -258t-357 -98q-211 -1 -366 95t-235 259q-81 163 -81 369t85 373q84 166 240 260
t357 98q210 0 366 -95t237 -259q81 -163 81 -371zM952 1849h275l-195 -336l-184 52zM543 1849h274l-194 -336l-185 52z" />
    <glyph glyph-name="ohungarumlaut" unicode="&#x151;" 
d="M838 500q0 129 -72 211t-184 82t-184 -84t-72 -213t72 -211t182 -82q112 0 185 84t73 213zM582 -25q-160 -1 -280 63t-186 182t-65 276q0 158 66 276q65 118 185 184q120 64 280 64t280 -64t185 -181q66 -117 66 -275t-66 -277t-186 -183q-119 -64 -279 -65zM780 1542
h275l-195 -336l-184 51zM371 1542h274l-194 -336l-185 51z" />
    <glyph glyph-name="OE" unicode="&#x152;" horiz-adv-x="2019" 
d="M716 1198q-92 0 -179.5 -61.5t-138 -176t-50.5 -260.5t44 -259t128 -179.5t212 -66.5t272 55v899q-96 29 -146 39t-142 10zM743 1421q128 0 261 -45v17h831l41 -209h-608v-375h454l43 -211h-497v-391h667l43 -207h-974v14q-145 -43 -271 -43q-211 0 -360.5 94.5t-225 257
t-75.5 371.5t83 375t235.5 259t352.5 93z" />
    <glyph glyph-name="oe" unicode="&#x153;" horiz-adv-x="1724" 
d="M1421 596q-40 197 -164 197t-179.5 -50.5t-71.5 -146.5h415zM572 203q104 0 202 37q-53 113 -53 258t53 258q-98 37 -200 37t-175 -84t-73 -213t71 -211t175 -82zM1287 -25q-224 0 -369 99q-63 -47 -164 -73t-174 -26q-160 0 -280 63.5t-184.5 181.5t-64.5 275.5
t64.5 276.5t184.5 183.5t280 64.5q66 0 163 -25.5t166 -68.5q125 94 293 94t270.5 -69.5t151.5 -187.5t49 -263v-82h-669q20 -104 88.5 -159.5t210.5 -55.5q82 0 147.5 22.5t140.5 65.5l78 -193q-158 -123 -382 -123z" />
    <glyph glyph-name="Racute" unicode="&#x154;" horiz-adv-x="1286" 
d="M881 952q0 219 -279 219h-164v-426h168q125 1 200 51t75 156zM438 0h-264v1393h436q242 0 397 -110t154 -318q0 -125 -64 -220q-65 -94 -173 -147l342 -598h-283l-295 528h-250v-528zM571 1849h275l-195 -336l-184 52z" />
    <glyph glyph-name="racute" unicode="&#x155;" horiz-adv-x="751" 
d="M379 0h-266v993h139l88 -166q72 63 168 115t170 51l53 -213q-68 0 -167 -49t-185 -125v-606zM346 1542h275l-195 -336l-184 51z" />
    <glyph glyph-name="Rcommaaccent" unicode="&#x156;" horiz-adv-x="1286" 
d="M881 952q0 219 -279 219h-164v-426h168q125 1 200 51t75 156zM438 0h-264v1393h436q242 0 397 -110t154 -318q0 -125 -64 -220q-65 -94 -173 -147l342 -598h-283l-295 528h-250v-528zM718 -43q62 0 106 -52q44 -51 44 -147t-68 -193t-169 -147l-58 125q31 12 63 44t44 71
q-39 0 -77 46t-38 102t45 104q46 47 108 47z" />
    <glyph glyph-name="rcommaaccent" unicode="&#x157;" horiz-adv-x="751" 
d="M379 0h-266v993h139l88 -166q72 63 168 115t170 51l53 -213q-68 0 -167 -49t-185 -125v-606zM252 -43q62 0 107 -52q44 -51 44 -147q1 -96 -67 -193t-170 -147l-57 125q31 12 63 44t43 71q-39 0 -77 46t-38 102t45 104q45 47 107 47z" />
    <glyph glyph-name="Rcaron" unicode="&#x158;" horiz-adv-x="1286" 
d="M881 952q0 219 -279 219h-164v-426h168q125 1 200 51t75 156zM438 0h-264v1393h436q242 0 397 -110t154 -318q0 -125 -64 -220q-65 -94 -173 -147l342 -598h-283l-295 528h-250v-528zM231 1817l252 32l138 -133l135 133l243 -32l-311 -304h-145z" />
    <glyph glyph-name="rcaron" unicode="&#x159;" horiz-adv-x="751" 
d="M379 0h-266v993h139l88 -166q72 63 168 115t170 51l53 -213q-68 0 -167 -49t-185 -125v-606zM23 1509l251 33l138 -133l135 133l244 -33l-312 -303h-145z" />
    <glyph glyph-name="Sacute" unicode="&#x15a;" horiz-adv-x="1079" 
d="M571 1194q-109 0 -167 -36t-58 -100t46 -104t151 -102l125 -72q120 -70 192 -122q168 -122 168 -302q0 -234 -238 -333q-118 -49 -282 -50q-86 0 -214 38t-198 81l60 215q76 -39 172 -69t176 -29q248 0 250 151q0 52 -50 94t-155 99l-62 37q-137 82 -218 141
q-197 143 -197 322q0 106 57 191t165 133t270 48t380 -104l-88 -213q-177 86 -285 86zM510 1849h274l-194 -336l-184 52z" />
    <glyph glyph-name="sacute" unicode="&#x15b;" horiz-adv-x="864" 
d="M319 722q0 -30 40 -52q41 -22 151 -60q110 -40 206 -122t97 -201q0 -150 -106 -231t-308 -81q-76 0 -178 27t-166 76l80 180q152 -68 260 -68q61 0 113 23q51 23 51 63q0 80 -174 134q-141 46 -235 120t-95 187q1 141 105 222t282 81q70 0 170 -29t170 -76l-80 -178
q-148 66 -264 68q-51 0 -85 -26q-34 -27 -34 -57zM385 1542h274l-194 -336l-184 51z" />
    <glyph glyph-name="Scedilla" unicode="&#x15e;" horiz-adv-x="1079" 
d="M156 307q192 -98 370 -98q102 0 165 39t63 101t-50.5 104.5t-154.5 99.5l-62 37q-137 82 -276 184t-139 279q0 106 57 191t164.5 133t270.5 48t380 -104l-88 -213q-84 41 -152.5 63.5t-154.5 22.5t-144.5 -36t-58.5 -100t46 -104.5t151 -101.5l125 -72
q121 -70 240.5 -157t119.5 -267q0 -153 -113.5 -256.5t-320.5 -122.5l-16 -36q61 -25 102 -77t41 -106q0 -102 -75 -156.5t-183 -54.5q-43 0 -103.5 16.5t-91.5 41.5l62 155q85 -41 143 -41q59 0 59 36t-52 59.5t-128 31.5l56 138q-82 14 -171.5 45.5t-140.5 62.5z" />
    <glyph glyph-name="scedilla" unicode="&#x15f;" horiz-adv-x="864" 
d="M438 805q-51 0 -85 -25.5t-34 -56.5t40.5 -52t150.5 -61t206.5 -122t96.5 -207t-84 -205t-244 -96l-16 -39q61 -25 102 -77t41 -106q0 -102 -74.5 -156.5t-183.5 -54.5q-43 0 -103.5 16.5t-90.5 41.5l61 155q85 -41 144 -41t59 36t-52.5 59.5t-127.5 31.5l55 140
q-162 29 -244 92l80 180q152 -68 260 -68q61 0 112.5 23t51.5 63q0 80 -174 134q-141 47 -235.5 120.5t-94.5 200.5t104.5 208t282.5 81q70 0 170.5 -28.5t169.5 -76.5l-80 -178q-152 68 -264 68z" />
    <glyph glyph-name="Scaron" unicode="&#x160;" horiz-adv-x="1079" 
d="M571 1194q-109 0 -167 -36t-58 -100t46 -104t151 -102l125 -72q120 -70 192 -122q168 -122 168 -302q0 -234 -238 -333q-118 -49 -282 -50q-86 0 -214 38t-198 81l60 215q76 -39 172 -69t176 -29q248 0 250 151q0 52 -50 94t-155 99l-62 37q-137 82 -218 141
q-197 143 -197 322q0 106 57 191t165 133t270 48t380 -104l-88 -213q-177 86 -285 86zM170 1817l252 32l137 -133l135 133l244 -32l-311 -304h-146z" />
    <glyph glyph-name="scaron" unicode="&#x161;" horiz-adv-x="864" 
d="M319 722q0 -30 40 -52q41 -22 151 -60q110 -40 206 -122t97 -201q0 -150 -106 -231t-308 -81q-76 0 -178 27t-166 76l80 180q152 -68 260 -68q61 0 113 23q51 23 51 63q0 80 -174 134q-141 46 -235 120t-95 187q1 141 105 222t282 81q70 0 170 -29t170 -76l-80 -178
q-148 66 -264 68q-51 0 -85 -26q-34 -27 -34 -57zM61 1509l252 33l138 -133l135 133l243 -33l-311 -303h-145z" />
    <glyph glyph-name="Tcedilla" unicode="&#x162;" horiz-adv-x="1210" 
d="M545 -281q59 0 59 36t-52 59.5t-128 31.5l61 154h-41v1184h-424v209h1127l43 -209h-477v-1184h-39l-25 -59q62 -25 103 -77t41 -106q0 -102 -75 -156.5t-183 -54.5q-43 0 -103.5 16.5t-91.5 41.5l61 155q85 -41 144 -41z" />
    <glyph glyph-name="tcedilla" unicode="&#x163;" horiz-adv-x="780" 
d="M430 -281q59 0 59 36t-52 59.5t-128 31.5l58 144q-102 37 -157.5 121t-55.5 206v469h-134v205h134v236l264 47v-283h180l82 -205h-262v-421q0 -80 38 -129.5t99 -49.5t117 27l78 -193q-31 -25 -91.5 -43t-109.5 -18h-6l-8 -18q61 -25 102 -77t41 -106q0 -102 -75 -156.5
t-183 -54.5q-43 0 -103.5 16.5t-91.5 41.5l62 155q84 -41 143 -41z" />
    <glyph glyph-name="Tcaron" unicode="&#x164;" horiz-adv-x="1210" 
d="M20 1184v209h1127l43 -209h-477v-1184h-269v1184h-424zM201 1817l252 32l137 -133l135 133l244 -32l-312 -304h-145z" />
    <glyph glyph-name="tcaron" unicode="&#x165;" horiz-adv-x="1126" 
d="M418 991h180l82 -205h-262v-421q0 -80 38 -129.5t99 -49.5t117 27l78 -193q-31 -25 -91.5 -43t-109.5 -18q-186 0 -290.5 94t-104.5 264v469h-134v205h134v236l264 47v-283zM912 1520q64 0 108.5 -52t44.5 -150t-77 -221.5t-193 -189.5l-58 125q66 57 95.5 94t41.5 97
q-37 0 -75.5 46t-38.5 100t44 102.5t108 48.5z" />
    <glyph glyph-name="Umacron" unicode="&#x16a;" horiz-adv-x="1454" 
d="M422 1393v-867q0 -166 83 -248t222 -83q139 0 222 85t83 246v867h268v-887q0 -152 -72 -272t-202 -188q-131 -68 -302 -69q-171 0 -300 69q-128 70 -198 190t-70 270l-2 887h268zM449 1563v211h516l20 -211h-536z" />
    <glyph glyph-name="umacron" unicode="&#x16b;" horiz-adv-x="1159" 
d="M780 993h267v-993h-175l-45 106q-92 -66 -196 -102t-187 -37q-188 1 -264 107t-76 297v622h267v-610q0 -92 38 -143q39 -52 107 -52t129 32t135 85v688zM305 1255v211h516l21 -211h-537z" />
    <glyph glyph-name="Uring" unicode="&#x16e;" horiz-adv-x="1454" 
d="M422 1393v-867q0 -166 83 -248t222 -83q139 0 222 85t83 246v867h268v-887q0 -152 -72 -272t-202 -188q-131 -68 -302 -69q-171 0 -300 69q-128 70 -198 190t-70 270l-2 887h268zM724 1642q32 0 56 25t23 57q0 32 -24 57q-25 23 -57 23t-56 -24t-25 -56q0 -32 25 -57
q26 -25 58 -25zM723 1931q88 0 154 -60q65 -61 65 -147t-64 -143t-155 -57q-90 0 -155 57t-65 143t66 147q66 60 154 60z" />
    <glyph glyph-name="uring" unicode="&#x16f;" horiz-adv-x="1159" 
d="M780 993h267v-993h-175l-45 106q-92 -66 -196 -102t-187 -37q-188 1 -264 107t-76 297v622h267v-610q0 -92 38 -143q39 -52 107 -52t129 32t135 85v688zM570 1335q32 0 56 25q24 26 24 58t-24 56t-57 24t-57 -24t-25 -56q0 -32 25 -58q26 -25 58 -25zM570 1624
q88 0 153 -60t65 -146t-64 -144q-64 -57 -155 -57t-155 57q-64 58 -64 144t66 146t154 60z" />
    <glyph glyph-name="Uhungarumlaut" unicode="&#x170;" horiz-adv-x="1454" 
d="M422 1393v-867q0 -166 83 -248t222 -83q139 0 222 85t83 246v867h268v-887q0 -152 -72 -272t-202 -188q-131 -68 -302 -69q-171 0 -300 69q-128 70 -198 190t-70 270l-2 887h268zM926 1849h274l-194 -336l-185 52zM516 1849h275l-195 -336l-184 52z" />
    <glyph glyph-name="uhungarumlaut" unicode="&#x171;" horiz-adv-x="1159" 
d="M780 993h267v-993h-175l-45 106q-92 -66 -196 -102t-187 -37q-188 1 -264 107t-76 297v622h267v-610q0 -92 38 -143q39 -52 107 -52t129 32t135 85v688zM788 1542h275l-195 -336l-184 51zM379 1542h274l-194 -336l-185 51z" />
    <glyph glyph-name="Uogonek" unicode="&#x172;" horiz-adv-x="1454" 
d="M835 -227q34 0 80 34l76 -163q-89 -68 -201 -68t-178.5 67.5t-66.5 163.5q0 35 18.5 88.5t42.5 90.5q-209 35 -329.5 177t-120.5 343l-2 887h268v-867q0 -166 83 -248.5t222 -82.5t222 85t83 246v867h268v-887q0 -133 -56 -243.5t-161.5 -183.5t-246.5 -93
q-68 -93 -68 -156q0 -25 16.5 -41t50.5 -16z" />
    <glyph glyph-name="uogonek" unicode="&#x173;" horiz-adv-x="1159" 
d="M999 -162q0 -65 66 -65q33 0 82 34l76 -163q-89 -68 -201 -68t-179 67.5t-67 163.5q0 43 25.5 106.5t52.5 96.5h14l-41 96q-92 -66 -196.5 -102.5t-186.5 -36.5q-188 0 -264 106.5t-76 297.5v622h267v-610q0 -92 37.5 -143.5t106.5 -51.5t130.5 32t134.5 85v688h267v-983
h43q-31 -29 -61 -84t-30 -88z" />
    <glyph glyph-name="Ydieresis" unicode="&#x178;" horiz-adv-x="1245" 
d="M741 0h-266v543l-455 803l263 75l323 -610l338 582h281l-484 -861v-532zM802 1542q-56 0 -95 38t-39 93t40 94t95 39t93 -39t38 -94t-38 -93t-94 -38zM411 1542q-56 0 -96 38q-39 38 -39 93t39 94t95 39t94 -39q37 -39 37 -94t-37 -93t-93 -38z" />
    <glyph glyph-name="Zacute" unicode="&#x179;" horiz-adv-x="1181" 
d="M1135 1184l-818 -977h803l31 -207h-1090l-30 207l794 977h-704l-31 209h1014zM532 1849h275l-195 -336l-184 52z" />
    <glyph glyph-name="zacute" unicode="&#x17a;" horiz-adv-x="907" 
d="M102 774l-51 219h795l14 -151l-500 -627h500l21 -215h-820l-34 141l493 633h-418zM379 1542h274l-194 -336l-185 51z" />
    <glyph glyph-name="Zdotaccent" unicode="&#x17b;" horiz-adv-x="1181" 
d="M1135 1184l-818 -977h803l31 -207h-1090l-30 207l794 977h-704l-31 209h1014zM574 1524q-64 0 -108 43t-44 106t44 107t107 45q63 0 105 -44q42 -43 43 -107q0 -64 -42 -107q-41 -43 -105 -43z" />
    <glyph glyph-name="zdotaccent" unicode="&#x17c;" horiz-adv-x="907" 
d="M102 774l-51 219h795l14 -151l-500 -627h500l21 -215h-820l-34 141l493 633h-418zM436 1217q-64 0 -107 43q-44 43 -44 106q0 64 44 108t107 44q64 0 106 -44t42 -108t-42 -106q-42 -43 -106 -43z" />
    <glyph glyph-name="Zcaron" unicode="&#x17d;" horiz-adv-x="1181" 
d="M1135 1184l-818 -977h803l31 -207h-1090l-30 207l794 977h-704l-31 209h1014zM193 1817l251 32l138 -133l135 133l244 -32l-312 -304h-145z" />
    <glyph glyph-name="zcaron" unicode="&#x17e;" horiz-adv-x="907" 
d="M102 774l-51 219h795l14 -151l-500 -627h500l21 -215h-820l-34 141l493 633h-418zM55 1509l252 33l137 -133l136 133l243 -33l-311 -303h-145z" />
    <glyph glyph-name="florin" unicode="&#x192;" horiz-adv-x="905" 
d="M186 -23q133 0 133 179v630h-153v205h153v76q0 174 102.5 272.5t285.5 98.5q47 0 106 -18.5t92 -45.5l-76 -192q-66 27 -110 26q-133 0 -133 -178v-39h188l84 -205h-272v-667q0 -174 -102.5 -272.5t-284.5 -98.5q-47 0 -106.5 18.5t-92.5 45.5l76 192q68 -27 110 -27z
" />
    <glyph glyph-name="Scommaaccent" unicode="&#x218;" horiz-adv-x="1079" 
d="M571 1194q-109 0 -167 -36t-58 -100t46 -104t151 -102l125 -72q120 -70 192 -122q168 -122 168 -302q0 -234 -238 -333q-118 -49 -282 -50q-86 0 -214 38t-198 81l60 215q76 -39 172 -69t176 -29q248 0 250 151q0 52 -50 94t-155 99l-62 37q-137 82 -218 141
q-197 143 -197 322q0 106 57 191t165 133t270 48t380 -104l-88 -213q-177 86 -285 86zM513 -43q63 0 107 -52q44 -51 44 -147t-68 -193t-170 -147l-57 125q31 12 63 44t43 71q-39 0 -77 46t-38 102t46 104q45 47 107 47z" />
    <glyph glyph-name="scommaaccent" unicode="&#x219;" horiz-adv-x="864" 
d="M319 722q0 -30 40 -52q41 -22 151 -60q110 -40 206 -122t97 -201q0 -150 -106 -231t-308 -81q-76 0 -178 27t-166 76l80 180q152 -68 260 -68q61 0 113 23q51 23 51 63q0 80 -174 134q-141 46 -235 120t-95 187q1 141 105 222t282 81q70 0 170 -29t170 -76l-80 -178
q-148 66 -264 68q-51 0 -85 -26q-34 -27 -34 -57zM404 -43q62 0 106 -52q44 -51 45 -147q0 -96 -68 -193t-170 -147l-57 125q31 12 63 44t44 71q-39 0 -77 46t-38 102t45 104q45 47 107 47z" />
    <glyph glyph-name="Tcommaaccent" unicode="&#x21a;" horiz-adv-x="1210" 
d="M20 1184v209h1127l43 -209h-477v-1184h-269v1184h-424zM584 -43q62 0 107 -52q44 -51 44 -147q1 -96 -67 -193t-170 -147l-58 125q31 12 63 44t44 71q-39 0 -77 46t-38 102t45 104q45 47 107 47z" />
    <glyph glyph-name="tcommaaccent" unicode="&#x21b;" horiz-adv-x="780" 
d="M418 991h180l82 -205h-262v-421q0 -80 38 -129q38 -50 99 -50t117 27l78 -193q-32 -25 -92 -43t-109 -18q-186 0 -291 94q-104 94 -104 264v469h-134v205h134v236l264 47v-283zM470 -43q62 0 106 -52q44 -51 45 -147q0 -96 -68 -193t-170 -147l-57 125q30 12 62 44t44 71
q-39 0 -77 46t-38 102t45 104q46 47 108 47z" />
    <glyph glyph-name="circumflex" unicode="&#x2c6;" horiz-adv-x="808" 
d="M788 1239l-243 -33l-135 133l-138 -133l-252 33l312 303h145z" />
    <glyph glyph-name="caron" unicode="&#x2c7;" horiz-adv-x="808" 
d="M20 1509l252 33l138 -133l135 133l243 -33l-311 -303h-145z" />
    <glyph glyph-name="uni02C9" unicode="&#x2c9;" horiz-adv-x="577" 
d="M20 1255v211h517l20 -211h-537z" />
    <glyph glyph-name="breve" unicode="&#x2d8;" horiz-adv-x="643" 
d="M444 1542h179q0 -139 -78 -236.5t-223 -97.5t-223.5 97.5t-78.5 236.5h183q0 -61 28.5 -103t90 -42t92 43t30.5 102z" />
    <glyph glyph-name="dotaccent" unicode="&#x2d9;" horiz-adv-x="339" 
d="M172.5 1217q-63.5 0 -108 43t-44.5 106.5t44.5 107.5t108 44t105 -44t41.5 -107.5t-41.5 -106.5t-105 -43z" />
    <glyph glyph-name="ring" unicode="&#x2da;" horiz-adv-x="479" 
d="M239.5 1335q32.5 0 56 24.5t23.5 57.5t-23.5 56.5t-56 23.5t-57 -23.5t-24.5 -56.5t24.5 -57.5t57 -24.5zM240 1624q88 0 153.5 -60.5t65.5 -146.5t-64.5 -143t-154.5 -57t-155 57t-65 143t66 146.5t154 60.5z" />
    <glyph glyph-name="ogonek" unicode="&#x2db;" horiz-adv-x="487" 
d="M244 -170q0 -57 66 -57q34 0 81 34l76 -163q-89 -68 -201 -68t-179 67.5t-67 163.5q0 43 26 106.5t52 96.5h236q-31 -29 -60.5 -84t-29.5 -96z" />
    <glyph glyph-name="tilde" unicode="&#x2dc;" horiz-adv-x="710" 
d="M524 1466h166q0 -129 -63.5 -188t-139.5 -59t-129 38q-31 18 -50 26.5t-48 8.5t-46 -21.5t-17 -41.5h-177q0 127 63.5 186.5t140.5 59.5q77 1 121 -27t66.5 -36.5t51.5 -8.5t45 19.5t16 43.5z" />
    <glyph glyph-name="hungarumlaut" unicode="&#x2dd;" horiz-adv-x="829" 
d="M535 1542h274l-195 -336l-184 51zM125 1542h274l-194 -336l-185 51z" />
    <glyph glyph-name="pi" unicode="&#x3c0;" horiz-adv-x="1347" 
d="M846 786h-346v-786h-264v786h-216v207h1307v-207h-215v-786h-266v786z" />
    <glyph glyph-name="tm_Anusvara" unicode="&#xb82;" horiz-adv-x="0" 
d="M-1 1479q36 0 59.5 23.5t23.5 59.5t-23.5 59.5t-59.5 23.5t-59.5 -24t-23.5 -59.5t23.5 -59t59.5 -23.5zM0 1307q-68 0 -128 34.5t-97 93t-37 126.5t37 127t97 94t129 35t130.5 -35t98 -94.5t36.5 -127t-36.5 -126t-99 -93t-130.5 -34.5z" />
    <glyph glyph-name="tm_Visarga" unicode="&#xb83;" horiz-adv-x="1388" 
d="M1033 143q36 0 59.5 23.5t23.5 59.5t-23.5 59.5t-59.5 23.5t-59.5 -23.5t-23.5 -59.5t23.5 -59.5t59.5 -23.5zM355 143q36 0 59.5 23.5t23.5 59.5t-23.5 59.5t-59.5 23.5t-59.5 -23.5t-23.5 -59.5t23.5 -59.5t59.5 -23.5zM1032.5 -29q-67.5 0 -128 35t-97.5 93.5t-37 126
t37 127t98 94t129 34.5t128.5 -34.5t97 -94t36.5 -127t-36.5 -126t-98 -93.5t-129 -35zM353 -29q-69 0 -128 35t-96 93.5t-37 126t37 127t97 94t128 34.5t129.5 -34.5t98 -94t36.5 -127t-36.5 -126t-98 -93.5t-130.5 -35zM693 741q36 0 59.5 23.5t23.5 59.5t-23.5 59.5
t-59.5 23.5t-59.5 -23.5t-23.5 -59.5t23.5 -59.5t59.5 -23.5zM692.5 569q-67.5 0 -128 35t-97.5 93.5t-37 126.5t37 127t98 93.5t129 34.5t129.5 -34.5t98 -94t36.5 -127.5t-36.5 -126t-99 -93t-130 -35z" />
    <glyph glyph-name="tm_A" unicode="&#xb85;" horiz-adv-x="2246" 
d="M367 104q-68 0 -68 -51q0 -63 99.5 -107t263.5 -44t291.5 53t205.5 149h-792zM770 673q0 40 -25.5 64.5t-65.5 24.5t-66.5 -24.5t-26.5 -63.5t25.5 -65.5t66.5 -26.5t66.5 25.5t25.5 65.5zM981 683q0 -130 -84 -211t-216 -81t-218 80t-86 201t66.5 215t185.5 147t285 53
t308 -81.5t222 -225t80 -321.5q0 -82 -17 -168h328v760h238v-1309h-238v362h-395q-98 -188 -301 -293.5t-482 -105.5q-174 0 -312 45t-216 123.5t-78 184.5t79 169.5t247 63.5h876q20 88 21 168q0 193 -102.5 312.5t-274.5 119.5l-35 -2q119 -76 119 -206z" />
    <glyph glyph-name="tm_Aa" unicode="&#xb86;" horiz-adv-x="2660" 
d="M367 104q-68 0 -68 -51q0 -63 99.5 -107t263.5 -44t291.5 53t205.5 149h-792zM770 673q0 40 -25.5 64.5t-65.5 24.5t-66.5 -24.5t-26.5 -63.5t25.5 -65.5t66.5 -26.5t66.5 25.5t25.5 65.5zM981 683q0 -130 -84 -211t-216 -81t-218 80t-86 201t66.5 215t185.5 147t285 53
t308 -81.5t222 -225t80 -321.5q0 -82 -17 -168h328v760h238v-875q90 51 198 51q166 0 267.5 -101t101.5 -275t-106.5 -317.5t-295 -224.5t-423.5 -81q-158 0 -277 42t-182.5 116.5t-63.5 183.5t89 185.5t245 76.5h43v-186h-43q-45 0 -74.5 -26t-29.5 -64q0 -55 84 -93
t230 -38t277.5 55t205 153.5t73.5 223.5q0 74 -40 123t-110 49t-119.5 -48.5t-49.5 -115.5v-123h-238v362h-395q-98 -188 -301 -293.5t-482 -105.5q-174 0 -312 45t-216 123.5t-78 184.5t79 169.5t247 63.5h876q20 88 21 168q0 193 -102.5 312.5t-274.5 119.5l-35 -2
q119 -76 119 -206z" />
    <glyph glyph-name="tm_I" unicode="&#xb87;" horiz-adv-x="2183" 
d="M299 -139q0 -29 34.5 -49.5t116.5 -20.5t193 29q-125 90 -217 203q-127 -68 -127 -162zM1266 -209q84 0 116.5 20.5t32.5 49.5q0 102 -127 170q-94 -119 -217 -209q111 -31 195 -31zM637 92q98 -111 223 -182q129 74 225 188q-218 37 -448 -6zM938 673q0 48 -32 78.5
t-80 30.5t-80.5 -30.5t-32.5 -78.5t31.5 -80t80.5 -32t81 32t32 80zM51 -158q0 207 260 344q-131 240 -131 486t113 418t328 269t493 97t477 -93t308.5 -257t109.5 -373v-1036h-237v1032q0 154 -79 274.5t-225 188.5t-356 68t-373.5 -72t-246 -199t-82.5 -293
q0 -231 106 -432q176 47 360 47t324 -37q82 168 82 363q0 115 -66.5 184.5t-189.5 69.5h-18q120 -74 120 -206t-84 -213t-216 -81t-218 80t-86 201t62.5 215t177 147t264.5 53t259.5 -57t166.5 -159.5t57 -233.5q0 -225 -110 -436q264 -139 264 -359q0 -109 -88 -178.5
t-223 -69.5q-256 0 -494 105q-236 -104 -498 -105q-137 0 -224 70t-87 178z" />
    <glyph glyph-name="tm_Ii" unicode="&#xb88;" horiz-adv-x="1648" 
d="M1394 287q-62 0 -102.5 40t-40.5 102t40.5 103t102.5 41t103 -40.5t41 -102.5t-41 -102.5t-103 -40.5zM658 287q-62 0 -102 40t-40 102t40 103t102 41t103.5 -40.5t41.5 -102.5t-41.5 -102.5t-103.5 -40.5zM412 864v-864h-238v1051h1417l37 -189h-481v-862h-238v864h-497
z" />
    <glyph glyph-name="tm_U" unicode="&#xb89;" horiz-adv-x="2062" 
d="M383 698q-57 0 -95 -38t-38 -96t38 -95t96 -37t96 37t38 95t-39 96t-96 38zM1245 559q0 -220 -151 -373h948v-186h-1897v186h453q182 0 289.5 103t107.5 259t-94.5 249.5t-236.5 93.5t-232 -47q131 -2 208 -81t77 -200q0 -82 -42 -147.5t-117 -103.5t-170 -38t-173 40
t-121 112t-43 162q0 141 80 255.5t216 179t306 64.5t306.5 -67.5t211 -188t74.5 -272.5z" />
    <glyph glyph-name="tm_Uu" unicode="&#xb8a;" horiz-adv-x="3321" 
d="M1776 526q0 -39 25.5 -65.5t65.5 -26.5t64.5 25.5t24.5 65.5t-24.5 64.5t-64.5 24.5t-65.5 -24.5t-25.5 -63.5zM383 698q-57 0 -95 -38t-38 -96t38 -95t96 -37t96 37t38 95t-39 96t-96 38zM1902 1087q178 0 318 -108v72h967l37 -187h-246v-575h-238v575h-282v-575h-238
v327q0 78 -43 140.5t-120 98.5t-189 36t-188 -69.5t-76 -180.5q0 -47 18 -90q4 96 74.5 156.5t186.5 60.5t193.5 -65.5t77.5 -177.5t-87 -187.5t-228 -75.5t-250.5 49t-171 135t-61.5 205t64.5 220.5t184 158.5t297.5 57zM1245 559q0 -224 -151 -373h2207v-186h-3156v186
h453q182 0 289.5 103t107.5 259t-94.5 249.5t-236.5 93.5t-232 -47q131 -2 208 -81t77 -200q0 -82 -42 -147.5t-117 -103.5t-170 -38t-173 40t-121 112t-43 162q0 141 80 255.5t216 179t306 64.5t306.5 -67.5t211 -188t74.5 -272.5z" />
    <glyph glyph-name="tm_E" unicode="&#xb8e;" horiz-adv-x="1875" 
d="M584 298q0 -64 41 -105t104.5 -41t105.5 40.5t42 104t-42 106.5t-105.5 43t-104.5 -42t-41 -106zM1485 862v-862h-238v864h-418q-250 0 -369.5 -102.5t-119.5 -276.5q0 -88 37 -155q10 135 107.5 220t223.5 85t213 -44t136 -121t49 -173t-52.5 -172t-145 -119t-238.5 -43
t-284 67.5t-216 186.5t-78 277t81 285.5t243 199.5t395 72h1008l36 -189h-370z" />
    <glyph glyph-name="tm_Ee" unicode="&#xb8f;" horiz-adv-x="1875" 
d="M584 298q0 -64 41 -105t104.5 -41t105.5 40.5t42 104t-42 106.5t-105.5 43t-104.5 -42t-41 -106zM1485 862v-827q0 -131 -25.5 -205t-113.5 -102l-797 -240l-90 182l684 215q68 20 86 68.5t18 159.5v751h-418q-250 0 -369.5 -102.5t-119.5 -276.5q0 -88 37 -155
q10 135 107.5 220t223.5 85t213 -44t136 -121t49 -173t-52.5 -172t-145 -119t-238.5 -43t-284 67.5t-216 186.5t-78 277t81 285.5t243 199.5t395 72h1008l36 -189h-370z" />
    <glyph glyph-name="tm_Ai" unicode="&#xb90;" horiz-adv-x="1658" 
d="M436 639q0 35 -21.5 58.5t-56 23.5t-58.5 -23.5t-24 -57.5t24 -56.5t58 -22.5t56 21.5t22 56.5zM1538 -55q0 -113 -49 -193t-139 -126t-207 -46q-191 0 -301 131q-122 -131 -326 -131q-121 0 -218 48t-151.5 133t-54.5 192q0 387 553 461l369 49q166 23 234.5 90.5
t69.5 155.5t-39 135t-118 47t-125 -53.5t-47 -135.5v-141h-237v141q0 84 -54.5 136.5t-139.5 52.5t-140 -31q84 -16 134 -77.5t50 -150.5t-74.5 -152.5t-183 -63.5t-180.5 73.5t-72 187.5t57.5 209t160 148t231.5 53q199 0 327 -147q120 147 303 147q113 0 203 -46
t141.5 -129t51.5 -185q0 -396 -553 -471l-369 -49q-168 -23 -236.5 -89.5t-68.5 -154.5t48 -137t131 -49t141.5 54t58.5 134v141h239v-141q0 -80 52.5 -134t126.5 -54t113.5 46.5t39.5 106.5q0 136 -73 265l243 12q78 -149 78 -262z" />
    <glyph glyph-name="tm_O" unicode="&#xb92;" horiz-adv-x="1705" 
d="M354 444.5q0 -47.5 32 -79t81 -31.5t81 31.5t32 78.5t-32 78t-80 31t-81 -30.5t-33 -78zM920 309v242h219q2 -57 36.5 -93t84.5 -36t83 44t33 123t-70.5 151.5t-195 113.5t-300.5 41t-319 -68.5t-190 -181.5q73 61 189 61t198 -72.5t82 -189.5t-87 -194.5t-220 -77.5
q-174 0 -277.5 102.5t-103.5 265.5t94 287.5t265 195.5t394 71t403.5 -66.5t283 -184.5t102.5 -265q0 -100 -46 -181.5t-127 -126.5t-164 -45t-142 27q14 -76 72.5 -106.5t166.5 -30.5h170v-187h-170q-37 0 -55 2v-14q0 -106 -55 -188t-159.5 -129.5t-246 -47.5t-246 47.5
t-159.5 129.5t-55 188v84h237v-84q0 -76 57.5 -121t166 -45t166 45t57.5 121v80q-172 100 -172 313z" />
    <glyph glyph-name="tm_Oo" unicode="&#xb93;" horiz-adv-x="1705" 
d="M354 444.5q0 -47.5 32 -79t81 -31.5t81 31.5t32 78.5t-32 78t-80 31t-81 -30.5t-33 -78zM920 309v242h219q2 -57 36.5 -93t84.5 -36t83 44t33 123t-70.5 151.5t-195 113.5t-300.5 41t-319 -68.5t-190 -181.5q73 61 189 61t198 -72.5t82 -189.5t-87 -194.5t-220 -77.5
q-174 0 -277.5 102.5t-103.5 265.5t94 287.5t265 195.5t394 71t403.5 -66.5t283 -184.5t102.5 -265q0 -100 -46 -181.5t-127 -126.5t-164 -45t-142 27q14 -76 72.5 -106.5t166.5 -30.5h170v-187h-170l-43 2v-14q0 -104 -66.5 -187t-183.5 -130.5t-259 -47.5t-248.5 38
t-167 106.5t-60.5 154.5q0 121 88 196t244 75h43v-187h-43q-37 0 -60.5 -24.5t-23.5 -63.5t63 -67.5t171 -28.5t187 47t79 119v74q-184 102 -184 319z" />
    <glyph glyph-name="tm_Au" unicode="&#xb94;" horiz-adv-x="4298" 
d="M354 444q0 -46 32 -78t81 -32t81 32t32 78t-32 78q-32 31 -80 31t-81 -31t-33 -78zM920 309v242h219q2 -57 37 -93t85 -36q51 0 83 44t32 123t-70 151t-195 114q-125 41 -301 41t-318 -69t-191 -181q73 61 189 61t198 -72q82 -73 82 -190q0 -116 -87 -194t-220 -78
q-174 0 -278 102q-103 102 -103 266t94 288t265 195t394 71t403 -67t284 -184q102 -118 102 -265q0 -100 -46 -182t-127 -126q-81 -45 -164 -45t-142 27q15 -76 73 -107t166 -30h170v-187h-170q-37 0 -55 2v-14q0 -106 -55 -188q-56 -82 -160 -129t-246 -47t-245 46
q-104 48 -160 130q-55 82 -55 188v84h237v-84q0 -76 57 -121t166 -45t166 45t58 121v80q-172 100 -172 313zM2290 298q0 -64 41 -105t104 -41t106 41q42 41 42 104t-42 106q-41 43 -105 43t-105 -42t-41 -106zM2998 1051h1243l37 -187h-370v-864h-238v864h-434v-864h-238
v467q0 121 -62 218t-174 151t-254 55q-142 0 -246 -53q-104 -54 -160 -146t-56 -194t37 -168q10 135 107 220q98 85 224 85t213 -44t136 -121t49 -173t-52 -172t-146 -119t-238 -43q-146 0 -284 68q-138 69 -216 187t-78 280t88 298q88 138 249 215t374 76q303 0 489 -190
v154z" />
    <glyph glyph-name="tm_Ka" unicode="&#xb95;" horiz-adv-x="1579" 
d="M510 449q-90 0 -140.5 -39t-50.5 -104.5t52.5 -105.5t164 -40t183.5 71.5t72 188.5v29h-281zM541 637h250v227h-250v-227zM1063 152q217 0 217 148.5t-193 148.5h-57v-29q0 -131 -63.5 -235.5t-179 -163t-261 -58.5t-246 44t-154.5 121t-54 178t60.5 181t170.5 119v445
h1069l37 -187h-379v-227h55q205 0 324 -93t119 -245q0 -98 -56.5 -174t-162 -119t-246.5 -43v189z" />
    <glyph glyph-name="tm_Nga" unicode="&#xb99;" horiz-adv-x="2127" 
d="M1954 0h-1245v186h309q121 0 183.5 56.5t62.5 140.5t-40 133t-111 49t-119 -48t-48 -116v-73h-237v536h-297v-864h-238v1051h1106l37 -189h-371v-147q92 49 199 49q166 0 267 -101.5t101 -269.5q0 -117 -61 -207h264v865h238v-1051z" />
    <glyph glyph-name="tm_Ca" unicode="&#xb9a;" horiz-adv-x="1460" 
d="M510 449q-90 0 -140.5 -39t-50.5 -104.5t52.5 -105.5t164.5 -40t183.5 71.5t71.5 188.5v29h-281zM541 637h250v227h-250v-227zM1030 449v-29q0 -131 -63.5 -235.5t-179 -163t-261.5 -58.5t-246 44t-154 121t-54 178t60.5 181t170.5 119v445h1069l37 -187h-379v-227h342
l37 -188h-379z" />
    <glyph glyph-name="tm_Ja" unicode="&#xb9c;" horiz-adv-x="1658" 
d="M436 639q0 35 -21.5 58.5t-56 23.5t-58.5 -23.5t-24 -57.5t24 -56.5t57.5 -22.5t56 21.5t22.5 56.5zM1171 1087q113 0 203 -46t141.5 -129t51.5 -185q0 -396 -553 -471l-369 -49q-168 -23 -236.5 -88.5t-68.5 -153.5t48 -138t124 -50t137.5 46t145.5 135t140 138
q138 121 299 121t247 -87t86 -228t-104.5 -228.5t-282.5 -87.5h-176v187h176q59 0 99 34.5t40 89t-29.5 89t-85.5 34.5t-104.5 -40.5t-119.5 -128t-127 -140.5q-138 -131 -337 -131q-121 0 -218 48t-151.5 133t-54.5 192q0 387 553 461l369 49q166 23 234.5 90.5t69.5 155.5
t-39 135t-118 47t-125 -53.5t-47 -135.5v-141h-237v141q0 84 -54.5 136.5t-139.5 52.5t-140 -31q84 -16 134 -77.5t50 -150.5t-74.5 -152.5t-183 -63.5t-180.5 73.5t-72 187.5t57.5 209t160 148t231.5 53q199 0 327 -147q120 147 303 147z" />
    <glyph glyph-name="tm_Nya" unicode="&#xb9e;" horiz-adv-x="2666" 
d="M1124 298q0 -64 41 -105t104.5 -41t105.5 40.5t42 104t-42 106.5t-105.5 43t-104.5 -42t-41 -106zM2574 216.5q0 -227.5 -144 -406.5t-416.5 -277t-642.5 -98t-649.5 110.5t-434 317.5t-154.5 485q0 195 84 399.5t213 323.5l244 -20q-127 -106 -210 -304t-83 -410
t129 -373t354.5 -247t508 -86t498.5 71t336 205t120 322q0 127 -45.5 204t-127.5 77t-133 -56.5t-51 -125.5v-328h-237v864h-365q-250 0 -368.5 -102.5t-118.5 -276.5q0 -88 37 -155q10 135 107 220t223.5 85t212 -44t135 -121t49.5 -173t-52.5 -172t-144.5 -119t-237.5 -43
t-284 67.5t-217 186.5t-78.5 276.5t82 285.5t242.5 200t394.5 72h954l37 -189h-371v-209q88 55 191 56q198 0 305.5 -132.5t107.5 -360z" />
    <glyph glyph-name="tm_Tta" unicode="&#xb9f;" horiz-adv-x="1495" 
d="M412 186h1026l37 -186h-1301v1051l238 10v-875z" />
    <glyph glyph-name="tm_Nna" unicode="&#xba3;" horiz-adv-x="3674" 
d="M584 298q0 -64 41 -105t104.5 -41t105.5 40.5t42 104t-42 106.5t-105.5 43t-104.5 -42t-41 -106zM1421 369q0 -90 40 -149.5t110.5 -59.5t109.5 58t39 152q0 188 -168 328q-131 -146 -131 -329zM2296 369q0 -92 39 -150.5t110.5 -58.5t110.5 58t39 156q0 202 -144 345
q-155 -139 -155 -350zM990 1087q290 0 546 -131q217 131 477 131t465 -116q176 80 387 80h752l37 -187h-371v-864h-238v864h-180q-115 0 -209 -30q187 -195 187 -465q0 -117 -50.5 -209t-140.5 -144.5t-206.5 -52.5t-207 52.5t-141.5 144.5t-51 217t58.5 246.5t164.5 216.5
q-121 51 -265.5 51t-272.5 -62q239 -200 239 -460q0 -117 -51 -209t-141 -144.5t-207 -52.5t-207 52.5t-140 144.5t-50 209q0 248 188 444q-188 78 -388.5 78t-342.5 -53.5t-216.5 -147.5t-74.5 -194.5t35 -169.5q10 135 108.5 222t224.5 87t213 -44t136 -121t49 -173
t-52.5 -172t-145.5 -119t-238.5 -43t-283.5 65.5t-216 182.5t-78 278.5t106.5 301t304 218t487.5 78.5z" />
    <glyph glyph-name="tm_Ta" unicode="&#xba4;" horiz-adv-x="1617" 
d="M510 449q-90 0 -140.5 -39t-50.5 -104.5t52.5 -105.5t164 -40t183.5 71.5t72 188.5v29h-281zM541 637h250v227h-250v-227zM1546 144.5q0 -146.5 -77.5 -268.5t-216 -190.5t-310.5 -68.5h-319q-281 0 -357 -115l-194 121q39 82 175 131t349 49h346q102 0 183 45.5t127 124
t46 193.5t-69.5 199t-177.5 84h-21v-29q0 -131 -63.5 -235.5t-179 -163t-261 -58.5t-246 44t-154.5 121t-54 178t60.5 181t170.5 119v445h1069l37 -187h-379v-227h19q143 0 256.5 -62.5t177 -173t63.5 -257z" />
    <glyph glyph-name="tm_Na" unicode="&#xba8;" horiz-adv-x="1648" 
d="M1556 182.5q0 -157.5 -64.5 -288t-186 -204t-289.5 -73.5h-291q-279 0 -358 -115l-193 121q47 94 167 137t355 43h320q143 0 218 106.5t75 264.5t-51.5 244t-133.5 86t-130 -45t-48 -113v-346h-237v864h-297v-864h-238v1051h1106l37 -189h-371v-205q86 51 204 51.5
t212 -66.5t144 -184.5t50 -275z" />
    <glyph glyph-name="tm_Nnna" unicode="&#xba9;" horiz-adv-x="2801" 
d="M584 298q0 -64 41 -105t104.5 -41t105.5 40.5t42 104t-42 106.5t-105.5 43t-104.5 -42t-41 -106zM1421 369q0 -90 40 -149.5t110.5 -59.5t109.5 58t39 150q0 188 -166 328q-133 -139 -133 -327zM963 1087q324 0 591 -141q197 104 437 105h753l37 -187h-371v-864h-237v864
h-182q-131 0 -250 -45q229 -197 229 -450q0 -117 -51 -209t-141 -144.5t-207 -52.5t-207 52.5t-140 144.5t-50 209q0 254 192 442q-184 80 -388.5 80t-346.5 -53.5t-216.5 -147.5t-74.5 -194.5t35 -169.5q10 135 108.5 222t224.5 87t213 -44t136 -121t49 -173t-52.5 -172
t-145.5 -119t-238.5 -43t-283.5 65.5t-216 182.5t-78 278.5t106.5 301t304 218t460.5 78.5z" />
    <glyph glyph-name="tm_Pa" unicode="&#xbaa;" horiz-adv-x="1529" 
d="M174 0v1051l238 10v-875h706v865h238v-1051h-1182z" />
    <glyph glyph-name="tm_Ma" unicode="&#xbae;" horiz-adv-x="1832" 
d="M1493 502.5q0 164.5 -69.5 276.5t-188.5 112q-205 0 -205 -309v-396h248q127 0 171 76t44 240.5zM1741 489q0 -225 -116 -357t-347 -132h-1104v1051l238 10v-875h381v412q0 219 114.5 354t327.5 135q151 0 266 -76.5t177.5 -212.5t62.5 -309z" />
    <glyph glyph-name="tm_Ya" unicode="&#xbaf;" horiz-adv-x="1986" 
d="M1812 0h-972v63q-111 -100 -258 -100q-213 0 -320.5 125t-107.5 334v629l237 10v-627q0 -131 46 -202.5t164 -71.5t178.5 90t60.5 244v557h237v-865h496v865h239v-1051z" />
    <glyph glyph-name="tm_Ra" unicode="&#xbb0;" horiz-adv-x="1472" 
d="M1081 35q0 -85 -8 -141q-18 -123 -131 -166l-612 -240l-90 201l499 196q85 33 99 113q6 39 6 115v751h-432v-864h-238v1051h1241l37 -189h-371v-827z" />
    <glyph glyph-name="tm_Rra" unicode="&#xbb1;" horiz-adv-x="1855" 
d="M901 909q130 178 387 178q135 0 248 -76.5t170 -214t57 -315.5q0 -397 -177 -630.5t-544 -233.5h-337q-279 0 -359 -115l-192 121q41 82 176 131t348 49h364q240 0 357 183.5t117 494.5q0 190 -60.5 300t-180.5 110q-235 0 -235 -309v-582h-237v557q0 139 -59.5 236.5
t-168.5 97.5q-184 0 -184 -297v-594h-237v635q0 201 106.5 326.5t290.5 125.5q111 0 201 -47t149 -131z" />
    <glyph glyph-name="tm_La" unicode="&#xbb2;" horiz-adv-x="2238" 
d="M584 298q0 -64 41 -105t104.5 -41t105.5 40.5t42 104t-42 106.5t-105.5 43t-104.5 -42t-41 -106zM1681 160q217 0 217 336q0 127 -44 282.5t-123 272.5l241 28q88 -141 131 -297.5t43 -285.5q0 -244 -117.5 -388.5t-339 -144.5t-337 124t-115.5 341v94
q0 168 -113.5 268.5t-312.5 100.5q-145 0 -251.5 -53.5t-163 -145.5t-56.5 -193.5t37 -168.5q10 135 107.5 220t223.5 85t213 -44t136 -121t49 -173t-52.5 -172t-145.5 -119t-238.5 -43t-283.5 67.5t-216 186.5t-78 280.5t89 299t252 214t370 76.5t357.5 -70.5t232.5 -199.5
t82 -295v-94q0 -129 54 -198.5t152 -69.5z" />
    <glyph glyph-name="tm_Lla" unicode="&#xbb3;" horiz-adv-x="2592" 
d="M584 298q0 -64 41 -105t104.5 -41t105.5 40.5t42 104t-42 106.5t-105.5 43t-104.5 -42t-41 -106zM803 1087q303 0 489 -190v154h1243l37 -187h-370v-864h-238v864h-434v-864h-238v467q0 121 -62.5 218t-174 151.5t-253.5 54.5t-246.5 -53.5t-160 -145.5t-55.5 -193.5
t37 -168.5q10 135 107.5 220t223.5 85t213 -44t136 -121t49 -173t-52.5 -172t-145.5 -119t-238.5 -43t-283.5 67.5t-216 186.5t-78 280.5t88 299t249 214t374 76.5z" />
    <glyph glyph-name="tm_Llla" unicode="&#xbb4;" horiz-adv-x="1832" 
d="M1278 186q127 0 171 76t44 240.5t-69.5 276.5t-188.5 112q-205 0 -205 -309v-396h248zM1030 -47q0 -148 139 -148h306l36 -186h-360q-51 -106 -169 -171.5t-257 -65.5t-240.5 48t-160 136t-58.5 203h240q0 -84 59.5 -136.5t148.5 -52.5t143 31t69 78q-61 31 -97 90
t-36 139v82h-619v1051l238 10v-875h381v412q0 219 114.5 354t327.5 135q152 0 266.5 -76.5t177 -212.5t62.5 -309q0 -225 -116 -357t-347 -132h-248v-47z" />
    <glyph glyph-name="tm_Va" unicode="&#xbb5;" horiz-adv-x="2242" 
d="M584 298q0 -64 41 -105t104.5 -41t105.5 40.5t42 104t-42 106.5t-105.5 43t-104.5 -42t-41 -106zM2068 0h-870v186q94 158 94 330t-118.5 273.5t-352.5 101.5q-145 0 -254.5 -53.5t-168 -145.5t-58.5 -193.5t37 -168.5q10 133 109.5 219t223.5 86t211 -44t136 -121
t49 -173t-52.5 -172t-145.5 -119t-238.5 -43t-283.5 67.5t-216 186.5t-78 280.5t92 299t258 214t376 76.5t374 -72.5t257 -201.5t93 -296t-82 -331h371v865h237v-1051z" />
    <glyph glyph-name="tm_Sha" unicode="&#xbb6;" horiz-adv-x="2320" 
d="M1978 548q0 165 -44 240.5t-171 75.5h-245v-393q0 -311 202 -311q121 0 189.5 111.5t68.5 276.5zM2228 563q0 -174 -62.5 -310t-178 -213t-267.5 -77q-213 0 -327.5 135t-114.5 355v411h-240v-442q0 -207 -113.5 -333t-328.5 -126t-328.5 126t-113.5 333v629l237 10v-627
q0 -131 46 -202.5t158 -71.5t158 71.5t46 202.5v617h964q232 0 348.5 -132.5t116.5 -355.5z" />
    <glyph glyph-name="tm_Ssa" unicode="&#xbb7;" horiz-adv-x="3020" 
d="M584 298q0 -64 41 -105t104.5 -41t105.5 40.5t42 104t-42 106.5t-105.5 43t-104.5 -42t-41 -106zM2363 186h246v392q-113 -92 -246 -142v-250zM2126 727q0 76 -34 120t-97.5 44t-101.5 -41t-38 -110t53.5 -114.5t153.5 -45.5q23 0 64 4v143zM2363 0v-498h-237v498h-928
v186q94 158 94 330t-118.5 273.5t-352.5 101.5q-145 0 -254.5 -53.5t-168 -145.5t-58.5 -193.5t37 -168.5q10 135 107.5 220t223.5 85t213 -44t136 -121t49 -173t-52.5 -172t-145.5 -119t-238.5 -43t-283.5 67.5t-216 186.5t-78 280.5t92 299t258 214t376 76.5t374 -72.5
t257 -201.5t93 -299t-82 -328h666v197q-20 -2 -64 -2q-135 0 -238.5 47t-160.5 130t-57 184t50 180t138 122t201 43q170 0 269 -95t99 -255v-86q160 78 246 213h238v-864h-484z" />
    <glyph glyph-name="tm_Sa" unicode="&#xbb8;" horiz-adv-x="2889" 
d="M584 298q0 -64 41 -105t104.5 -41t105.5 40.5t42 104t-42 106.5t-105.5 43t-104.5 -42t-41 -106zM2333 160q215 0 215 336q0 129 -43 283.5t-125 271.5l243 28q89 -141 132 -297.5t43 -285.5q0 -244 -118 -388.5t-340 -144.5t-337 123t-115 342v190q0 272 -186 273
q-113 0 -170 -100.5t-57 -268.5v-522h-238v522q0 168 -113.5 268.5t-312.5 100.5q-145 0 -251.5 -53.5t-163 -145.5t-56.5 -193.5t37 -168.5q10 135 107.5 220t223.5 85t213 -44t136 -121t49 -173t-52.5 -172t-145.5 -119t-238.5 -43t-283.5 67.5t-216 186.5t-78 280.5
t89 299t252 214t359 76.5q388 0 566 -221q57 104 148 162.5t208 58.5q201 0 306.5 -125.5t105.5 -332.5v-201q0 -129 54 -198.5t153 -69.5z" />
    <glyph glyph-name="tm_Ha" unicode="&#xbb9;" horiz-adv-x="3461" 
d="M584 298q0 -64 41 -105t104.5 -41t105.5 40.5t42 104t-42 106.5t-105.5 43t-104.5 -42t-41 -106zM2157 1087q226 0 350 -178q63 86 157.5 132t204.5 46q160 0 272.5 -76.5t170 -214t57.5 -315.5q0 -397 -177 -630.5t-544 -233.5h-2005q-281 0 -356 -115l-195 121
q41 82 176 131t348 49h2032q240 0 355.5 183.5t115.5 494.5q0 410 -250 410q-109 0 -166 -81t-57 -228v-582h-238v557q0 139 -60 236.5t-169 97.5q-184 0 -184 -297v-594h-797v186q94 158 94 330t-118.5 273.5t-352.5 101.5q-145 0 -254.5 -53.5t-168 -145.5t-58.5 -193.5
t37 -168.5q10 135 107.5 220t223.5 85t213 -44t136 -121t49 -173t-52.5 -172t-145.5 -119t-238.5 -43t-283.5 67.5t-216 186.5t-78 280.5t92 299t258 214t376 76.5t374 -72.5t257 -201.5t93 -300t-84 -327h299v449q0 131 48 233.5t138.5 160.5t213.5 58z" />
    <glyph glyph-name="tm_VowelAa" unicode="&#xbbe;" horiz-adv-x="1431" 
d="M803 0v864h-391v-864h-238v1051h1200l37 -187h-371v-864h-237z" />
    <glyph glyph-name="tm_VowelI" unicode="&#xbbf;" horiz-adv-x="585" 
d="M412 1030v-1030h-238v1030q0 184 -112.5 295t-307.5 111q-139 0 -216 -52.5t-77 -141.5t43 -140t131 -51v-166q-188 0 -297.5 99t-111.5 257q0 113 64.5 202t184 139t297.5 50t328 -76.5t231 -214t81 -311.5z" />
    <glyph glyph-name="tm_VowelIi" unicode="&#xbc0;" horiz-adv-x="0" 
d="M37 1392q0 44 -30 73.5t-75 29.5t-74.5 -29.5t-29.5 -73.5t29.5 -74t74.5 -30t75 30t30 74zM-354 1401q0 121 100 198h-35q-152 0 -238.5 -76.5t-86.5 -199.5t75.5 -197.5t192.5 -74.5v-181q-147 0 -265 57.5t-184.5 160t-66.5 236.5t70.5 242.5t200.5 170t285.5 61.5
t272.5 -52t185.5 -143.5t68.5 -206t-82 -190.5t-206 -76t-205.5 75t-81.5 196z" />
    <glyph glyph-name="tm_VowelU" unicode="&#xbc1;" horiz-adv-x="954" 
d="M688 716.5q0 63.5 -42 105.5t-106 42t-106.5 -41t-42.5 -106.5t42.5 -107.5t106.5 -42t106 43t42 106.5zM913 717q0 -96 -49 -173t-135 -121t-191 -44t-187.5 43t-128.5 119.5t-46 166.5t41 156h-629v187h920q117 0 209 -43t144 -119t52 -172z" />
    <glyph glyph-name="tm_VowelUu" unicode="&#xbc2;" horiz-adv-x="1415" 
d="M514 864h-96q-27 -63 -27 -134t39.5 -117t105.5 -46t109 43.5t43 107.5t-47 105t-127 41zM289 1051q167 202 493 202q162 0 299.5 -71.5t215 -198.5t77.5 -292t-90 -299t-254 -210t-379 -76h-153v187h153q143 0 251 52t165 143.5t57 207.5q0 164 -96 266.5t-258 102.5
q-74 0 -145 -23q127 -23 207.5 -111.5t80.5 -198.5t-49 -187.5t-135 -121.5t-194 -44q-162 0 -260.5 99.5t-98.5 254.5q0 66 17 131h-605v187h701z" />
    <glyph glyph-name="tm_VowelE" unicode="&#xbc6;" horiz-adv-x="1703" 
d="M584 298q0 -64 41 -105t104.5 -41t105.5 40.5t42 104t-42 106.5t-105.5 43t-104.5 -42t-41 -106zM1530 688v-688h-238v688q0 225 -122.5 361.5t-333.5 136.5q-150 0 -262.5 -66.5t-173 -184t-60.5 -275.5t55 -281q27 115 120 185.5t212 70.5t203 -44t130 -121t46 -173
t-52.5 -172t-145.5 -119t-210 -43q-174 0 -312 91t-216 252t-78 365t92 365.5t261 253.5t384 92t372 -87t243 -244.5t86 -362.5z" />
    <glyph glyph-name="tm_VowelEe" unicode="&#xbc7;" horiz-adv-x="1419" 
d="M889 304q0 -50 32.5 -82t82.5 -32t81 32t31 83t-32 83t-82 32t-81.5 -33t-31.5 -83zM1116 1040.5q0 51.5 -31.5 83t-80.5 31.5t-82 -31.5t-33 -81.5t31.5 -83t81.5 -33t82 31.5t32 83zM1327 304q0 -91 -60.5 -171t-171 -125t-253.5 -45q-215 0 -386 91t-267.5 254
t-96.5 366t96.5 364.5t267.5 252.5t386 91q143 0 253.5 -45t171 -124t60.5 -171t-43 -160.5t-118.5 -106.5t-170.5 -38q-137 0 -224 84t-87 217q0 84 47 144q-174 -23 -280.5 -161t-110.5 -347q4 -209 110.5 -348.5t280.5 -161.5q-47 59 -47 143q0 133 87 217t224 84
q95 0 170.5 -38t118.5 -106.5t43 -159.5z" />
    <glyph glyph-name="tm_VowelAi" unicode="&#xbc8;" horiz-adv-x="2619" 
d="M584 298q0 -64 41 -105t104.5 -41t105.5 40.5t42 104t-42 106.5t-105.5 43t-104.5 -42t-41 -106zM1421 369q0 -90 40.5 -149.5t110.5 -59.5t109 58t39 152q0 188 -170 330q-129 -148 -129 -331zM1932 1087q202 0 331 -67.5t196.5 -188.5t67.5 -263q0 -310 -172 -597
l-244 29q82 117 125 271.5t43 296.5t-81.5 232.5t-243.5 90.5q-117 0 -232 -55q117 -96 182.5 -217t65.5 -244t-51 -215t-141 -144.5t-207 -52.5t-207 52.5t-140 144.5t-50 209q0 245 184 446q-180 76 -382 76t-344.5 -53.5t-217 -147.5t-74.5 -194t35 -170
q10 135 108.5 222t224.5 87t213 -44t136 -121t49 -173t-52.5 -172t-145 -119t-238.5 -43t-284 65.5t-216 182.5t-78 279t106.5 301t304 217.5t482.5 78.5t545 -126q200 126 402 126z" />
    <glyph glyph-name="tm_VowelO" unicode="&#xbca;" horiz-adv-x="4153" 
d="M584 298q0 -64 41 -105t104 -41t106 41q42 41 42 104t-42 106q-41 43 -105 43t-105 -42t-41 -106zM1530 688v-688h-238v688q0 226 -123 362t-333 136q-150 0 -263 -67t-173 -183t-60 -276q0 -158 55 -281q27 115 120 185t212 71q119 0 203 -44t130 -121t46 -173t-52 -172
t-146 -119t-210 -43q-174 0 -312 91t-216 252t-78 365q0 203 92 365t261 254t384 92t372 -87t243 -245t86 -362zM3484 0v864h-392v-864h-237v1051h1200l37 -187h-371v-864h-237zM2189 0q-27 0 -43 16t-16 43t16 44t43 17t43 -16q16 -18 16 -45t-16 -43t-43 -16zM2374 31
q-27 0 -43 16t-17 43q0 27 16 44q16 18 44 18q27 0 43 -18t16 -44q0 -27 -16 -43t-43 -16zM2066 90q0 -27 -16 -43t-43 -16t-43 16t-16 43t16 44q16 18 43 18t43 -18t16 -44zM2472 193q0 27 16 43t43 16t44 -16t17 -43t-17 -43t-44 -16t-43 16t-16 43zM1849 252q27 0 43 -16
t16 -43t-16 -43t-43 -16t-44 16t-17 43t17 43t44 16zM2628 297q-27 0 -43 16t-17 43q0 27 16 43q16 17 44 17q27 0 43 -16t16 -44q0 -27 -16 -43t-43 -16zM1812 356q0 -27 -16 -43t-43 -16t-44 16t-17 43t17 43q17 17 44 17t43 -16t16 -44zM2656 469q-27 0 -43 15t-16 42
t16 44q16 18 43 18t44 -18t17 -44q0 -27 -17 -42t-44 -15zM1724 469q-27 0 -44 15t-17 42t17 44q17 18 44 18t43 -18q17 -18 17 -44q0 -27 -16 -42t-44 -15zM2628 643q-27 0 -43 16t-17 43q0 27 16 44q16 18 44 18q27 0 43 -18t16 -44q0 -27 -16 -43t-43 -16zM1812 702
q0 -27 -16 -43t-43 -16t-44 16t-17 43t17 44q17 18 44 18t43 -18t16 -44zM2529 805q-27 0 -43 16t-16 43t16 44q16 18 43 18t44 -18t17 -44q0 -27 -17 -43t-44 -16zM1851 805q-27 0 -44 16t-17 43t17 44q17 18 44 18t43 -18t16 -44q0 -27 -16 -43t-43 -16zM2374 1028
q27 0 43 -16t16 -43t-16 -43t-43 -16t-43 16t-17 43q0 27 16 43t44 16zM2007 1028q27 0 43 -16t16 -43t-16 -43t-43 -16t-43 16t-16 43t16 43t43 16zM2189 940q-27 0 -43 16t-16 43t16 44t43 17t43 -16q16 -18 16 -45t-16 -43t-43 -16z" />
    <glyph glyph-name="tm_VowelOo" unicode="&#xbcb;" horiz-adv-x="3964" 
d="M889 304q0 -50 33 -82t82 -32q48 0 80 32t32 83t-33 83t-81 32t-81 -33q-32 -33 -32 -83zM1116 1040q0 51 -32 83t-80 32t-82 -32q-33 -32 -33 -82t32 -83q33 -33 81 -33t81 32t33 83zM1327 304q0 -91 -60 -171t-171 -125t-254 -45q-215 0 -386 91t-268 254
q-96 163 -96 366q0 202 96 364t268 253t386 91q143 0 254 -45t171 -125t60 -171t-43 -159t-119 -107q-76 -38 -170 -38q-137 0 -224 84t-87 217q0 84 47 144q-174 -23 -280 -161t-111 -347q4 -209 110 -348t281 -162q-47 59 -47 143q0 133 87 217t224 84q94 0 170 -38
t119 -106t43 -160zM3295 0v864h-391v-864h-238v1051h1201l36 -187h-370v-864h-238zM1993 0q-27 0 -43 16t-17 43q1 27 17 44t43 17t43 -16q16 -18 16 -45t-16 -43t-43 -16zM2177 31q-27 0 -43 16t-16 43t16 44q16 18 43 18t43 -18t16 -44q0 -27 -16 -43t-43 -16zM1810 31
q-27 0 -43 16t-16 43t16 44q16 18 43 18t43 -18q17 -18 17 -44q0 -27 -16 -43t-44 -16zM2335 252q27 0 44 -16t17 -43t-17 -43t-44 -16t-43 16t-17 43q1 27 17 43t43 16zM1653 252q27 0 43 -16t16 -43t-16 -43t-43 -16t-44 16t-18 43q1 27 18 43t44 16zM2431 297
q-27 0 -43 16t-16 43t16 43q16 17 43 17t43 -16t16 -44q0 -27 -16 -43t-43 -16zM1556 297q-27 0 -44 16t-17 43t17 43q17 17 44 17t43 -16q17 -16 17 -44q0 -27 -16 -43t-44 -16zM2460 469q-58 0 -60 57q0 27 16 44q16 18 44 18q27 0 44 -18t17 -44q0 -27 -17 -42t-44 -15z
M1587 526q0 -27 -16 -42t-43 -15t-44 15t-18 42q1 27 18 44q17 18 44 18t43 -18t16 -44zM2431 643q-27 0 -43 16t-16 43t16 44q16 18 43 18t43 -18t16 -44q0 -27 -16 -43t-43 -16zM1556 643q-27 0 -44 16t-17 43t17 44q17 18 44 18t43 -18q17 -18 17 -44q0 -27 -16 -43
t-44 -16zM2333 805q-27 0 -43 16t-17 43q1 27 17 44q16 18 43 18t44 -18t17 -44q0 -27 -17 -43t-44 -16zM1714 864q0 -27 -16 -43t-43 -16t-44 16t-18 43q1 27 18 44q17 18 44 18t43 -18t16 -44zM2118 969q0 27 16 43t43 16t43 -16t16 -43t-16 -43t-43 -16t-43 16t-16 43z
M1810 1028q27 0 43 -16q17 -16 17 -43t-16 -43t-44 -16q-27 0 -43 16t-16 43t16 43t43 16zM1993 940q-27 0 -43 16t-17 43q1 27 17 44t43 17t43 -16q16 -18 16 -45t-16 -43t-43 -16z" />
    <glyph glyph-name="tm_VowelAu" unicode="&#xbcc;" horiz-adv-x="5337" 
d="M592 298q0 -64 41 -105t104 -41t106 41q42 41 42 104t-42 106q-41 43 -105 43t-105 -42t-41 -106zM1538 688v-688h-238v688q0 225 -122 362q-123 136 -334 136q-150 0 -262 -67t-173 -183t-61 -276q0 -158 55 -281q27 115 120 185t212 71q119 0 203 -44t130 -121t46 -173
t-52 -172t-146 -119t-209 -43q-174 0 -313 91q-138 91 -216 252t-78 365q0 203 92 365t262 254t384 92t371 -87t243 -245t86 -362zM3328 298q0 -64 41 -105t104 -41t106 41q42 41 42 104t-42 106q-41 43 -105 43t-105 -42t-41 -106zM4037 1051h1243l37 -187h-371v-864h-238
v864h-434v-864h-237v467q-1 121 -63 218t-174 151t-254 55q-142 0 -246 -53q-104 -54 -160 -146t-56 -194t37 -168q9 135 107 220t224 85t213 -44t136 -121t49 -173t-52 -172t-145 -119t-239 -43t-284 68q-138 69 -216 187t-78 280t88 298q88 138 250 215q160 77 373 76
q304 0 490 -190v154zM2208 0q-27 0 -43 16t-17 43q0 27 16 44t44 17q27 0 43 -16q16 -18 16 -45t-16 -43t-43 -16zM2392 31q-27 0 -43 16t-16 43t16 44q16 18 43 18t43 -18t16 -44q0 -27 -16 -43t-43 -16zM2025 31q-27 0 -43 16t-16 43t16 44q16 18 43 18t43 -18t16 -44
q0 -27 -16 -43t-43 -16zM2550 252q27 0 44 -16t17 -43t-17 -43t-44 -16t-43 16t-17 43q0 27 16 43t44 16zM1868 252q27 0 43 -16t16 -43t-16 -43t-43 -16t-44 16t-18 43q1 27 18 43t44 16zM2646 297q-27 0 -43 16t-16 43t16 43q16 17 43 17t43 -16t16 -44q0 -27 -16 -43
t-43 -16zM1831 356q0 -27 -16 -43t-43 -16t-45 16q-17 16 -17 43t17 43q17 17 45 17t43 -16q16 -16 16 -44zM2675 469q-58 0 -60 57q1 27 17 44q16 18 43 18t44 -18t17 -44q0 -27 -17 -42t-44 -15zM1802 526q0 -27 -16 -42t-43 -15t-44 15t-18 42q1 27 18 44q17 18 44 18
t43 -18t16 -44zM2646 643q-27 0 -43 16t-16 43t16 44q16 18 43 18t43 -18t16 -44q0 -27 -16 -43t-43 -16zM1831 702q0 -27 -16 -43t-43 -16t-45 16q-17 16 -17 43t17 44q17 18 45 18t43 -18q16 -18 16 -44zM2548 805q-27 0 -43 16t-17 43q0 27 16 44q16 18 44 18
q27 0 44 -18t17 -44q0 -27 -17 -43t-44 -16zM1929 864q0 -27 -16 -43t-43 -16t-44 16t-18 43q1 27 18 44q17 18 44 18t43 -18t16 -44zM2333 969q0 27 16 43t43 16t43 -16t16 -43t-16 -43t-43 -16t-43 16t-16 43zM2025 1028q27 0 43 -16t16 -43t-16 -43t-43 -16t-43 16
t-16 43t16 43t43 16zM2208 940q-27 0 -43 16t-17 43q0 27 16 44t44 17q27 0 43 -16q16 -18 16 -45t-16 -43t-43 -16z" />
    <glyph glyph-name="tm_Virama" unicode="&#xbcd;" horiz-adv-x="0" 
d="M1 1307q-62 0 -102 41t-40 103t40 103t102 41t103 -41t41 -103t-41 -103t-103 -41z" />
    <glyph glyph-name="tm_Om" unicode="&#xbd0;" horiz-adv-x="1726" 
d="M936 -96q22 0 22 37t-20 36q-16 0 -16 -24v-49h14zM829 -96h31v51q0 35 19.5 56.5t57.5 21.5t60.5 -26.5t22.5 -67.5t-23.5 -67t-64.5 -26h-164v183h61v-125zM884 47q-15 0 -25.5 10.5t-10.5 26.5t10 27.5t26 11.5t26 -11.5t10 -27.5t-10.5 -26.5t-25.5 -10.5zM354 444.5
q0 -47.5 32 -79t81 -31.5t81 31.5t32 78.5t-32 78t-80 31t-81 -30.5t-33 -78zM920 309v242h219q2 -57 36.5 -93t84.5 -36t83 44t33 123t-70.5 151.5t-195 113.5t-300.5 41t-319 -68.5t-190 -181.5q73 61 189 61t198 -72.5t82 -189.5t-87 -194.5t-220 -77.5
q-174 0 -277.5 102.5t-103.5 265.5t94 287.5t265 195.5t394 71t403.5 -66.5t283 -184.5t102.5 -265q0 -100 -46 -181.5t-127 -126.5t-164 -45t-142 27q14 -76 72.5 -106.5t166.5 -30.5h170v-187h-170q-37 0 -55 2v-14q0 -106 -55 -188t-159.5 -129.5t-246 -47.5t-246 47.5
t-159.5 129.5t-55 188v84h237v-84q0 -76 57.5 -121t166 -45t166 45t57.5 121v80q-172 100 -172 313z" />
    <glyph glyph-name="tm_AuLengthMark" unicode="&#xbd7;" horiz-adv-x="2592" 
d="M584 298q0 -64 41 -105t104.5 -41t105.5 40.5t42 104t-42 106.5t-105.5 43t-104.5 -42t-41 -106zM803 1087q303 0 489 -190v154h1243l37 -187h-370v-864h-238v864h-434v-864h-238v467q0 121 -62.5 218t-174 151.5t-253.5 54.5t-246.5 -53.5t-160 -145.5t-55.5 -194
t37 -168q10 135 107.5 220t223.5 85t213 -44t136 -121t49 -173t-52.5 -172t-145 -119t-238.5 -43t-284 67.5t-216 186.5t-78 281t88 299t249 213.5t374 76.5z" />
    <glyph glyph-name="tm_Zero" unicode="&#xbe6;" horiz-adv-x="1456" 
d="M1114 526.5q0 104.5 -50 187.5t-138 130t-199 47t-199 -47t-138 -130t-50 -187.5t50 -188.5t138 -131t199 -47t199 47t138 131t50 188.5zM727 -37q-180 0 -324.5 73t-227.5 201.5t-83 288.5t83 288t227.5 200.5t324.5 72.5t324.5 -72.5t227.5 -200.5t83 -289t-83 -288.5
t-227.5 -200.5t-324.5 -73z" />
    <glyph glyph-name="tm_One" unicode="&#xbe7;" horiz-adv-x="1579" 
d="M510 449q-90 0 -140.5 -39t-50.5 -104.5t52.5 -105.5t164.5 -40t183.5 71.5t71.5 188.5v29h-281zM541 637h250v227h-250v-227zM1063 152q217 0 217 148t-193 149h-57v-29q0 -131 -63.5 -235.5t-179 -163t-261.5 -58.5t-246 44t-154 121t-54 178t60.5 181t170.5 119v445
h1069l37 -187h-379v-227h55q205 0 324 -93t119 -245q0 -98 -56.5 -174t-162 -119t-246.5 -43v189z" />
    <glyph glyph-name="tm_Two" unicode="&#xbe8;" horiz-adv-x="1601" 
d="M383 698q-57 0 -95 -38t-38 -96t38 -95t96 -37t96 37t38 95t-39 96t-96 38zM1245 559q0 -220 -151 -373h487v-186h-1436v186h453q182 0 289.5 103t107.5 259t-94.5 249.5t-236.5 93.5t-232 -47q131 -2 208 -81t77 -200q0 -82 -42 -147.5t-117 -103.5t-170 -38t-173 40
t-121 112t-43 162q0 141 80 255.5t216 179t306 64.5t306.5 -67.5t211 -188t74.5 -272.5z" />
    <glyph glyph-name="tm_Three" unicode="&#xbe9;" horiz-adv-x="1773" 
d="M1753 0h-1044v186h309q121 0 183.5 56.5t62.5 140.5t-40 133t-111 49t-119 -48t-48 -116v-73h-237v536h-297v-864h-238v1051h1106l37 -189h-371v-147q92 49 199 49q166 0 267 -101.5t101 -269.5q0 -119 -63 -207h303v-186z" />
    <glyph glyph-name="tm_Four" unicode="&#xbea;" horiz-adv-x="1882" 
d="M510 449q-90 0 -140.5 -39t-50.5 -104.5t52.5 -105.5t164.5 -40t183.5 71.5t71.5 188.5v29h-281zM541 637h250v227h-250v-227zM1030 449v-29q0 -131 -63.5 -235.5t-179 -163t-261.5 -58.5t-246 44t-154 121t-54 178t60.5 181t170.5 119v445h1069l37 -187h-379v-227h543
v414h237v-602h-780z" />
    <glyph glyph-name="tm_Five" unicode="&#xbeb;" horiz-adv-x="2781" 
d="M2370 565q0 264 -129.5 454.5t-357.5 290t-525 99.5t-518.5 -121t-340 -334.5t-118.5 -463.5t97 -438.5t287.5 -300t434.5 -111.5t409 70.5t256 196t91 275.5t-51.5 236t-133.5 86t-130 -45t-48 -113v-346h-237v864h-320v-864h-237v1051h1128l37 -187h-371v-207
q86 51 204 51t212 -66.5t145.5 -184t51.5 -264.5q0 -219 -123 -391.5t-345 -269.5t-536 -97t-562.5 138t-377.5 374.5t-129 546.5t150.5 568.5t428.5 405t644 146.5t649 -125t442.5 -361.5t159.5 -558.5v-569h-237v565z" />
    <glyph glyph-name="tm_Six" unicode="&#xbec;" horiz-adv-x="2246" 
d="M791 420v29h-281q-90 0 -140.5 -39t-50.5 -104.5t52.5 -105.5t164.5 -40t183.5 71.5t71.5 188.5zM541 637h250v227h-250v-227zM2042 356q0 -90 -51 -170h235v-186h-606v186q82 0 127 42t45 108t-39 105.5t-117 39.5t-130 -51t-52 -131v-299h-237v299q0 68 -47.5 107.5
t-139.5 42.5v-29q0 -131 -63.5 -235.5t-179 -163t-261.5 -58.5t-246 44t-154 121t-54 178t60.5 181t170.5 119v445h1069l37 -187h-379v-227q188 -6 301 -90q114 131 309 131t298.5 -89t103.5 -233z" />
    <glyph glyph-name="tm_Seven" unicode="&#xbed;" horiz-adv-x="1658" 
d="M584 298q0 -64 41 -105t104.5 -41t105.5 40.5t42 104t-42 106.5t-105.5 43t-104.5 -42t-41 -106zM1485 0h-238v864h-418q-250 0 -369.5 -102.5t-119.5 -276.5q0 -88 37 -155q10 135 107.5 220t223.5 85t213 -44t136 -121t49 -173t-52.5 -172t-145 -119t-238.5 -43
t-284 67.5t-216 186.5t-78 277t81 285.5t243 199.5t395 72h674v-1051z" />
    <glyph glyph-name="tm_Eight" unicode="&#xbee;" horiz-adv-x="2246" 
d="M367 104q-68 0 -68 -51q0 -63 99.5 -107t263.5 -44q329 0 497 202h-792zM1274 459q0 195 -94.5 313.5t-264.5 118.5q-125 0 -207.5 -82t-82.5 -212t72.5 -218t181.5 -88h374q21 76 21 168zM377 602q0 139 69.5 250t192.5 173t291 62t306 -81.5t213 -225t75 -321.5
q0 -88 -19 -168h330v760h238v-1309h-238v362h-395q-98 -188 -301 -293.5t-482 -105.5q-174 0 -312 45t-216 123.5t-78 184.5t79 169.5t247 63.5h112q-112 124 -112 311z" />
    <glyph glyph-name="tm_Nine" unicode="&#xbef;" horiz-adv-x="2209" 
d="M1362 250q0 -47 27.5 -78t68.5 -31t68.5 31t27.5 84t-26.5 98t-75.5 70q-90 -66 -90 -174zM510 449q-90 0 -140.5 -39t-50.5 -104.5t52.5 -105.5t164.5 -40t183.5 71.5t71.5 188.5v29h-281zM541 637h250v227h-250v-227zM1911 297q0 92 -51.5 145.5t-139.5 53.5l-49 -2
q103 -109 103 -239t-89.5 -211t-226.5 -81t-226 81.5t-89 195.5t61 209h-174v-29q0 -131 -63.5 -235.5t-179 -163t-261.5 -58.5t-246 44t-154 121t-54 178t60.5 181t170.5 119v445h1069l37 -187h-379v-227h301q33 0 90 -8q139 63 281 63t243 -51t157.5 -141t56.5 -190
t-18.5 -168t-59.5 -154l-242 12q72 148 72 297z" />
    <glyph glyph-name="tm_Ten" unicode="&#xbf0;" horiz-adv-x="1763" 
d="M1206 160q215 0 215 336q0 129 -43 283.5t-125 271.5l244 28q88 -141 131 -297.5t43 -285.5q0 -244 -113.5 -388.5t-333.5 -144.5t-343 131q-119 -131 -340 -131t-335 143.5t-114 389.5q0 129 43 284.5t129 298.5l244 -28q-82 -117 -125 -271.5t-43 -283.5
q0 -336 215 -336q98 0 152.5 69.5t54.5 198.5v264h237v-264q0 -129 54.5 -198.5t152.5 -69.5z" />
    <glyph glyph-name="tm_Hundred" unicode="&#xbf1;" horiz-adv-x="2140" 
d="M1749 0h-238v864h-434v-864h-237v557q0 154 -60.5 244t-178.5 90t-164 -71.5t-46 -201.5v-618h-237v629q0 209 107.5 333.5t320.5 124.5q150 0 258 -102v66h1243l37 -187h-371v-864z" />
    <glyph glyph-name="tm_Thousand" unicode="&#xbf2;" horiz-adv-x="2342" 
d="M1395 100q-45 0 -66.5 -19t-21.5 -45t30.5 -49.5t98.5 -23.5t124 37t70 100h-235zM510 449q-90 0 -140.5 -39t-50.5 -104.5t52.5 -105.5t164.5 -40t183.5 71.5t71.5 188.5v29h-281zM541 637h250v227h-250v-227zM2292 -98q0 -116 -57.5 -212t-165 -149t-252.5 -53h-334
q-215 0 -266 -72l-148 138q35 66 127 94t274 28h347q117 0 180 63t63 157t-45 149t-127 55h-20q-6 -106 -68.5 -182t-161 -113.5t-211.5 -37.5q-178 0 -273 77.5t-95 196.5t91 191.5t249 72.5h235v144h-604v-29q0 -131 -63.5 -235.5t-179 -163t-261.5 -58.5t-246 44
t-154 121t-54 178t60.5 181t170.5 119v445h1069l37 -187h-379v-227h1155l37 -188h-354v-144q127 -2 223 -54t148.5 -142.5t52.5 -206.5z" />
    <glyph glyph-name="tm_Naal" unicode="&#xbf3;" horiz-adv-x="1851" 
d="M584 298q0 -64 41 -105t104.5 -41t105.5 40.5t42 104t-42 106.5t-105.5 43t-104.5 -42t-41 -106zM1831 0h-633v186q94 158 94 330t-118.5 273.5t-352.5 101.5q-145 0 -254.5 -53.5t-168 -145.5t-58.5 -194t37 -168q10 135 107.5 220t223.5 85t213 -44t136 -121t49 -173
t-52.5 -172t-145 -119t-238.5 -43t-284 67.5t-216 186.5t-78 281t92 299t258 213.5t376 76.5t374 -72.5t257 -201.5t93 -299t-82 -328h371v-186z" />
    <glyph glyph-name="tm_Maatham" unicode="&#xbf4;" horiz-adv-x="2719" 
d="M1235 891q-205 0 -205 -309v-396h248q127 0 171 76t44 241t-69.5 276.5t-188.5 111.5zM1651 1374q0 -45 26.5 -73.5t67.5 -28.5t68.5 28.5t27.5 73.5q0 115 -86 170q-104 -57 -104 -170zM2720 1104h-588v186q63 0 98 39t35 107t-59.5 115.5t-161.5 47.5q-47 0 -72 -2
q88 -109 88 -229t-89 -201.5t-226 -81.5t-226 82t-89 203t104 229h-37q-139 0 -223 -76.5t-84 -201.5q0 -84 38 -147.5t103 -94.5q188 -35 299 -195t111 -390t-116 -362t-347 -132h-1104v1051l238 10v-875h381v412q0 160 62.5 277.5t180.5 173.5q-94 115 -94 262t69.5 255.5
t196 170t278.5 61.5t281 -53q143 53 283 53t244 -48t162.5 -132t58.5 -174t-35 -154h240v-186z" />
    <glyph glyph-name="tm_Varudam" unicode="&#xbf5;" horiz-adv-x="3801" 
d="M1124 298q0 -64 41 -105t104.5 -41t105.5 40.5t42 104t-42 106.5t-105.5 43t-104.5 -42t-41 -106zM3709 193q0 -238 -132 -413t-376 -270.5t-573 -95.5h-1422q-317 0 -561 116t-378 328t-134 490q0 195 84 399.5t213 323.5l244 -20q-127 -106 -210 -304t-83 -411
t102.5 -381t290 -260t432.5 -92h1422q256 0 444 72.5t287.5 205.5t99.5 292t-51 245t-133 86t-130 -45t-48 -113v-346h-238v864h-317v-864h-805v186q96 160 96 331t-119 272.5t-352 101.5q-145 0 -255 -53.5t-168 -145.5t-58 -194t37 -168q10 135 107 220t223 85t212 -44
t135.5 -121t49.5 -173t-52.5 -172t-144.5 -119t-238 -43t-284 67.5t-216.5 186.5t-78.5 281t92 299t258 213.5t377 76.5t374.5 -72.5t257 -201.5t93.5 -299t-82 -328h303v865h1126l37 -187h-370v-207q85 51 203 51t212.5 -66.5t145.5 -184t51 -264.5z" />
    <glyph glyph-name="tm_Patru" unicode="&#xbf6;" horiz-adv-x="2121" 
d="M422 -424q0 -102 244 -102q127 0 244.5 50t170.5 138h-553q-106 0 -106 -86zM660 -725q-156 0 -261.5 38t-165 106.5t-59.5 156.5q0 123 89 197.5t259 74.5h596v152h-944v1051l238 10v-875h706v865h238v-1203h354v1203h238v-1389h-611q-35 -117 -132 -204t-243 -135
t-302 -48z" />
    <glyph glyph-name="tm_Varavu" unicode="&#xbf7;" horiz-adv-x="2963" 
d="M1872 250q0 -43 27.5 -71.5t68.5 -28.5t68.5 28.5t27.5 71.5q0 125 -104 168q-88 -63 -88 -168zM584 298q0 -64 41 -105t104.5 -41t105.5 40.5t42 104t-42 106.5t-105.5 43t-104.5 -42t-41 -106zM2284 257q0 -132 -89.5 -213t-227.5 -81t-226 78t-88 198t59 210h-227
v-449h-238v864h-418q-250 0 -369.5 -102.5t-119.5 -276.5q0 -88 37 -155q10 135 107.5 220t223.5 85t213 -44t136 -121t49 -173t-52.5 -172t-145 -119t-238.5 -43t-284 67.5t-216 186.5t-78 277t81 285.5t243 199.5t395 72h1008l36 -189h-370v-225h233q96 0 195 -21
q158 76 373 76q137 0 238.5 -47t156.5 -131t55 -176t-33 -152h240v-186h-588v186q63 0 98 39t35 109t-55 116t-166 46q-49 0 -96 -7q113 -100 113 -232z" />
    <glyph glyph-name="tm_Merpadi" unicode="&#xbf8;" horiz-adv-x="4030" 
d="M584 298q0 -64 41 -105t104.5 -41t105.5 40.5t42 104t-42 106.5t-105.5 43t-104.5 -42t-41 -106zM3373 186h246v392q-113 -92 -246 -142v-250zM1421 369q0 -90 40.5 -149.5t110.5 -59.5t109 58t39 152q0 188 -170 330q-129 -148 -129 -331zM3135 727q0 76 -32.5 120
t-96.5 44t-102.5 -41t-38.5 -110t53.5 -114.5t153.5 -45.5q22 0 63 4v143zM1932 1087q202 0 331 -67.5t196.5 -188t67.5 -285.5t-69 -360h677v197q-20 -2 -63 -2q-135 0 -238.5 47t-160 130t-56.5 184t50.5 180t138.5 122t198 43q170 0 269.5 -95t99.5 -255v-86
q160 78 246 213h237v-864h-483v-498h-238v498h-927v186q71 187 71 355t-81.5 259t-243.5 91q-117 0 -232 -55q117 -96 182.5 -217t65.5 -244t-51 -215t-141 -144.5t-207 -52.5t-207 52.5t-140 144.5t-50 209q0 245 184 446q-180 76 -382 76t-344.5 -53.5t-217 -147.5
t-74.5 -194t35 -170q10 135 108.5 222t224.5 87t213 -44t136 -121t49 -173t-52.5 -172t-145 -119t-238.5 -43t-284 65.5t-216 182.5t-78 279t106.5 301t304 217.5t482.5 78.5t545 -126q200 126 402 126z" />
    <glyph glyph-name="tm_Rupee" unicode="&#xbf9;" horiz-adv-x="2379" 
d="M2005 1376q0 41 -27.5 69t-69.5 28t-70 -28t-28 -69t28 -67.5t70 -26.5t69.5 26.5t27.5 67.5zM2288 193q0 -231 -130 -403.5t-354.5 -263.5t-500.5 -91q-358 0 -621.5 139t-406 401.5t-142.5 611.5t153.5 627.5t433 435t640.5 148.5q534 -16 678.5 -160.5t144.5 -261.5
t-77.5 -188.5t-197.5 -71.5t-200 72t-81 186t71 187q-139 33 -338 32q-295 0 -517 -131t-342 -359.5t-120 -518.5t110.5 -504.5t317.5 -327t494 -112.5q205 0 371.5 65.5t265 190t98.5 280.5t-51.5 242t-133.5 86t-130 -45t-48 -113v-346h-237v864h-361v-864h-237v1051h1169
l37 -187h-371v-207q90 51 206 51t210 -66.5t145.5 -184t51.5 -264.5z" />
    <glyph glyph-name="tm_Enn" unicode="&#xbfa;" horiz-adv-x="2254" 
d="M1184 1374q0 -45 27.5 -73.5t68.5 -28.5t67.5 28.5t26.5 73.5q0 115 -86 170q-104 -57 -104 -170zM2255 1104h-588v186q63 0 97 39t34 107t-59.5 115.5t-161.5 47.5q-47 0 -70 -2q88 -109 88 -229t-89 -201.5t-226 -81.5t-226 82t-89 203t104 229h-39q-139 0 -222 -76.5
t-83 -199.5t74.5 -197.5t191.5 -74.5h289l37 -189h-371v-205q86 51 204 51t212 -66.5t144 -184t50 -275.5t-64.5 -288t-186 -203.5t-289.5 -73.5h-291q-281 0 -358 -115l-193 121q47 94 167 137t355 43h320q143 0 218 106.5t75 264.5t-51.5 244t-133.5 86t-130 -45t-48 -113
v-346h-237v864h-297v-864h-238v1051h393q-92 115 -92 261t69.5 254.5t195.5 170t278 61.5t282 -53q144 53 284 53t243.5 -48t162 -132t58.5 -176t-33 -152h240v-186z" />
    <glyph glyph-name="uni200C" unicode="&#x200c;" horiz-adv-x="0" 
d="M61 2533v-2672h-122v2672h122z" />
    <glyph glyph-name="uni200D" unicode="&#x200d;" horiz-adv-x="0" 
d="M61 -139h-122v2466l-91 -89l-79 80l151 152l-151 151l81 82l150 -151l152 151l81 -82l-151 -151l151 -152l-79 -80l-93 91v-2468z" />
    <glyph glyph-name="endash" unicode="&#x2013;" horiz-adv-x="905" 
d="M84 457l-23 209h762l21 -209h-760z" />
    <glyph glyph-name="emdash" unicode="&#x2014;" horiz-adv-x="1124" 
d="M84 457l-23 209h983l19 -209h-979z" />
    <glyph glyph-name="quoteleft" unicode="&#x2018;" horiz-adv-x="432" 
d="M194 907q-62 0 -107.5 52.5t-45.5 150.5t78 223t192 187l60 -123q-66 -55 -96.5 -92t-43.5 -99q37 0 75 -46t38 -101t-44 -103.5t-106 -48.5z" />
    <glyph glyph-name="quoteright" unicode="&#x2019;" horiz-adv-x="430" 
d="M216 1520q64 0 108.5 -52t44.5 -150t-77 -221.5t-194 -189.5l-57 125q66 57 95.5 94t41.5 97q-37 0 -76 46t-39 100t44.5 102.5t108.5 48.5z" />
    <glyph glyph-name="quotesinglbase" unicode="&#x201a;" horiz-adv-x="430" 
d="M214 299q62 0 108.5 -51.5t46.5 -149.5t-78 -223t-193 -190l-57 127q66 59 95.5 94t41.5 94q-37 0 -76 47t-39 103t44.5 102.5t106.5 46.5z" />
    <glyph glyph-name="quotedblleft" unicode="&#x201c;" horiz-adv-x="811" 
d="M593 907q-62 0 -107.5 52.5t-45.5 150.5t77 223t192 187l61 -123q-66 -55 -96.5 -92t-42.5 -99q23 0 49.5 -21.5t45.5 -56t19 -79.5t-45 -93.5t-107 -48.5zM214 907q-62 0 -107.5 52.5t-45.5 150.5t78 223t193 187l59 -123q-66 -55 -96.5 -92t-42.5 -99q37 0 75 -46
t38 -101t-44.5 -103.5t-106.5 -48.5z" />
    <glyph glyph-name="quotedblright" unicode="&#x201d;" horiz-adv-x="806" 
d="M594 1520q62 0 106.5 -52t44.5 -150t-76.5 -221.5t-191.5 -189.5l-59 125q68 59 97.5 95t41.5 96q-39 0 -77 46t-38 100t45 102.5t107 48.5zM216 1520q64 0 108.5 -52t44.5 -150t-77 -221.5t-194 -189.5l-57 125q66 57 95.5 94t41.5 97q-37 0 -76 46t-39 100t44.5 102.5
t108.5 48.5z" />
    <glyph glyph-name="quotedblbase" unicode="&#x201e;" horiz-adv-x="806" 
d="M594 299q62 0 106.5 -51.5t44.5 -149.5t-76.5 -223t-191.5 -190l-59 127q70 59 98.5 94t40.5 94q-39 0 -77 47t-38 103t45 102.5t107 46.5zM214 299q62 0 108.5 -51.5t46.5 -149.5t-78 -223t-193 -190l-57 127q66 59 95.5 94t41.5 94q-37 0 -76 47t-39 103t44.5 102.5
t106.5 46.5z" />
    <glyph glyph-name="dagger" unicode="&#x2020;" horiz-adv-x="913" 
d="M317 1280v324l287 -7v-317h211l37 -250h-248l-22 -1038l-244 8l-21 1030h-217l-39 250h256z" />
    <glyph glyph-name="daggerdbl" unicode="&#x2021;" horiz-adv-x="940" 
d="M621 1030v-465h221l37 -250h-265l11 -313l-312 -14l11 327h-224l-39 250h256l7 465h-224l-39 250h267l-11 324l312 -7l-8 -317h221l37 -250h-258z" />
    <glyph glyph-name="bullet" unicode="&#x2022;" horiz-adv-x="567" 
d="M282.5 457q-92.5 0 -157 63.5t-64.5 154.5t64.5 156.5t157 65.5t158 -65.5t65.5 -156.5t-65.5 -154.5t-158 -63.5z" />
    <glyph glyph-name="ellipsis" unicode="&#x2026;" horiz-adv-x="1103" 
d="M906 0q-56 0 -96 39t-40 96.5t40 98t96 40.5t96 -40.5t40 -98t-40 -96.5t-96 -39zM555 0q-57 0 -97 39t-40 96.5t40 98t97 40.5t97 -40.5t40 -98t-40 -96.5t-97 -39zM200.5 0q-57.5 0 -98.5 39t-41 96.5t41 98t98.5 40.5t97.5 -40.5t40 -98t-40 -96.5t-97.5 -39z" />
    <glyph glyph-name="perthousand" unicode="&#x2030;" horiz-adv-x="2699" 
d="M2311 502q-48 0 -85 -41t-37 -116t33 -116t84 -41t85 43t34 116t-33 114t-81 41zM1523 502q-48 0 -84 -41t-36 -115t32.5 -116t82.5 -42t85 43t35 115t-33.5 114t-81.5 42zM2310 692q88 0 165 -41t125 -119t48 -182t-49 -183t-127 -123t-164 -44t-165 42t-127 121
t-48 183.5t48 183t127 120.5t167 42zM1522 692q88 0 164.5 -41t124 -119t47.5 -182t-47.5 -184t-125 -123t-164.5 -43t-165 42t-126 121t-48 183.5t48 183t126 120.5t166 42zM393 1245q-49 0 -84 -40.5t-35 -114.5t32 -115t82 -41t86 42t36 114t-34 113.5t-83 41.5z
M391 1438q88 0 167 -42t126 -121t47 -182t-48 -183.5t-126 -123.5t-166 -43t-166 42t-126 121.5t-48 183.5t48 183t126 122t166 43zM782 -8l-268 8l608 1454l271 -8z" />
    <glyph glyph-name="guilsinglleft" unicode="&#x2039;" horiz-adv-x="477" 
d="M436 356l-47 -186l-328 283v98l328 285l47 -189l-166 -145z" />
    <glyph glyph-name="guilsinglright" unicode="&#x203a;" horiz-adv-x="475" 
d="M41 647l45 189l328 -285v-98l-328 -283l-45 186l160 146z" />
    <glyph glyph-name="fraction" unicode="&#x2044;" horiz-adv-x="929" 
d="M297 -8l-277 8l611 1454l278 -8z" />
    <glyph glyph-name="Euro" unicode="&#x20ac;" horiz-adv-x="1273" 
d="M522 414q100 -219 338 -219q130 0 283 63l100 -197q-78 -41 -189.5 -65.5t-201.5 -24.5q-238 0 -397.5 119t-223.5 324h-206l-25 196h195q-7 89 0 166h-170l-25 197h233q70 209 235 328.5t394 119.5q74 0 180.5 -22.5t188.5 -67.5l-82 -190l-51 14q-80 25 -127 34t-137 9
t-175.5 -59.5t-136.5 -165.5h391l21 -197h-463q-4 -53 -4 -83t4 -83h442l21 -196h-412z" />
    <glyph glyph-name="Turkishlira" unicode="&#x20ba;" horiz-adv-x="1118" 
d="M442 0h-266v610l-137 -47l-39 205l176 61v86l-137 -51l-39 207l176 62v290l266 23v-217l308 106l36 -205l-344 -120v-84l308 106l36 -205l-344 -122v-453q104 0 187.5 50t129.5 140t46 203h272q0 -190 -83 -336.5t-227 -227.5t-325 -81z" />
    <glyph glyph-name="Ruble" unicode="&#x20bd;" horiz-adv-x="1212" 
d="M606 705q257 0 275 225q0 129 -71 185t-208 56h-164v-466h168zM438 410h514l23 -209h-537v-201h-264v201h-100l-23 209h123v79h-100l-23 209h123v695h436q246 0 398.5 -109.5t152.5 -337.5q0 -152 -78.5 -256t-208 -154.5t-282.5 -50.5h-154v-75z" />
    <glyph glyph-name="litre" unicode="&#x2113;" horiz-adv-x="849" 
d="M465 1204q-35 0 -35 -94v-223q96 117 96 235q0 37 -13 59.5t-48 22.5zM498 -20q-336 0 -336 362v14q-10 -6 -33 -20t-43 -23l-66 242q86 53 142 94v475q0 94 44 166t118.5 110t162.5 38q129 0 215 -82t86 -218t-99 -289t-259 -292v-190q0 -160 96 -160q76 0 136 49
l90 -170q-118 -106 -254 -106z" />
    <glyph glyph-name="trademark" unicode="&#x2122;" horiz-adv-x="1566" 
d="M1305 625v352l-119 -141l-58 -11l-159 176v-376h-191v768h94l281 -334l254 334h88v-768h-190zM20 1245v148h668l27 -148h-269v-620h-186v620h-240z" />
    <glyph glyph-name="Ohm" unicode="&#x2126;" horiz-adv-x="1447" 
d="M1090 705q0 229 -99.5 362t-266.5 133t-266.5 -133t-99.5 -362q0 -170 57.5 -305.5t157.5 -184.5v-215h-491l-10 215h176q-78 84 -122 220t-44 278q0 215 75.5 375.5t220 248.5t345.5 88t346 -88t221 -248.5t76 -375.5q0 -141 -44 -277.5t-122 -220.5h176l-12 -215h-490
v215q103 49 159.5 183t56.5 307z" />
    <glyph glyph-name="estimated" unicode="&#x212e;" horiz-adv-x="1054" 
d="M752 596q-40 197 -164.5 197t-180 -50.5t-71.5 -146.5h416zM627 -25q-283 0 -429.5 138.5t-146.5 382.5q0 158 60.5 276.5t173 183t264.5 64.5t254 -69.5t151.5 -187.5t49.5 -263v-82h-670q20 -104 89 -159.5t210 -55.5q82 0 147.5 22.5t141.5 65.5l77 -193
q-158 -123 -372 -123z" />
    <glyph glyph-name="partialdiff" unicode="&#x2202;" 
d="M838 501q0 130 -47 249q-92 43 -206 43t-186.5 -84t-72.5 -213t71 -211t183 -82t185 84t73 214zM1112 564q0 -190 -65.5 -320.5t-185.5 -199.5t-279.5 -69t-279.5 63.5t-185.5 181.5t-65.5 275t64.5 276.5t180.5 184t265 64.5q18 0 55 -4q-184 199 -485 325l102 193
q224 -64 426.5 -218.5t327.5 -358t125 -393.5z" />
    <glyph glyph-name="Delta" unicode="&#x2206;" horiz-adv-x="1349" 
d="M670 1028l-305 -815h616zM1329 0h-1309l543 1393h225l541 -1356v-37z" />
    <glyph glyph-name="product" unicode="&#x220f;" horiz-adv-x="1370" 
d="M438 1186v-1186h-264v1393h1022v-1393h-268v1186h-490z" />
    <glyph glyph-name="summation" unicode="&#x2211;" horiz-adv-x="1011" 
d="M68 1393h766l43 -209h-519l297 -432v-88l-307 -457h582l41 -207h-910v207l347 498l-340 479v209z" />
    <glyph glyph-name="minus" unicode="&#x2212;" horiz-adv-x="980" 
d="M80 457l-19 209h834l25 -209h-840z" />
    <glyph glyph-name="divisionslash" unicode="&#x2215;" horiz-adv-x="929" 
d="M297 -8l-277 8l611 1454l278 -8z" />
    <glyph glyph-name="bulletmath" unicode="&#x2219;" horiz-adv-x="567" 
d="M282.5 457q-92.5 0 -157 63.5t-64.5 154.5t64.5 156.5t157 65.5t158 -65.5t65.5 -156.5t-65.5 -154.5t-158 -63.5z" />
    <glyph glyph-name="radical" unicode="&#x221a;" horiz-adv-x="1290" 
d="M297 657l205 -372l493 1169l275 -8l-611 -1454l-290 8l-349 649z" />
    <glyph glyph-name="infinity" unicode="&#x221e;" horiz-adv-x="1689" 
d="M285 504q0 -92 62.5 -154.5t154.5 -62.5t158.5 78.5t93.5 224.5q-39 63 -106.5 104t-152.5 42t-147.5 -69.5t-62.5 -162.5zM1405 527q0 93 -62.5 154.5t-154.5 61.5t-158.5 -78.5t-93.5 -220.5q39 -68 105.5 -108.5t152.5 -41.5t148.5 69.5t62.5 163.5zM860 797
q131 164 340 164q113 0 217.5 -54.5t162.5 -153t58 -224.5t-58 -230t-161.5 -164.5t-230.5 -60.5q-208 0 -357 162q-137 -166 -325 -166q-129 0 -233.5 55t-163 153.5t-58.5 223.5t58.5 230.5t162.5 165.5t218 60q222 0 370 -161z" />
    <glyph glyph-name="integral" unicode="&#x222b;" horiz-adv-x="864" 
d="M174 -137q68 0 95.5 46t27.5 130v1198q0 174 97.5 270.5t279.5 96.5q49 0 103 -17.5t87 -44.5l-80 -190q-51 24 -98 24q-123 0 -123 -174v-1198q0 -174 -96 -272.5t-279 -98.5q-49 0 -103 18.5t-85 45.5l74 190q72 -24 100 -24z" />
    <glyph glyph-name="approxequal" unicode="&#x2248;" horiz-adv-x="1085" 
d="M754 180q-96 0 -201 42q-104 42 -213 42q-29 0 -52.5 -20.5t-25.5 -65.5l-201 41q0 147 87.5 205.5t195.5 58.5q62 0 158 -34q149 -53 230 -51t89 91l203 -43q0 -152 -87 -209t-183 -57zM754 596q-98 0 -201 42q-104 42 -213 42q-29 0 -52.5 -22.5t-25.5 -67.5l-201 43
q0 262 283 262q62 0 158 -34q149 -53 230 -51t89 91l203 -43q0 -152 -86 -207t-184 -55z" />
    <glyph glyph-name="notequal" unicode="&#x2260;" horiz-adv-x="1056" 
d="M61 836h490l102 229l242 -6l-100 -223h182l18 -199h-286l-101 -229h369l18 -197h-477l-108 -242l-238 11l102 231h-190l-23 197h299l107 229h-383z" />
    <glyph glyph-name="lessequal" unicode="&#x2264;" horiz-adv-x="753" 
d="M76 0l-13 184h635l11 -184h-633zM713 827l-351 -186l351 -186l-43 -224l-609 328v164l609 330z" />
    <glyph glyph-name="greaterequal" unicode="&#x2265;" horiz-adv-x="755" 
d="M55 0l-12 184h633l12 -184h-633zM41 827l45 226l608 -330v-164l-608 -328l-45 224l350 186z" />
    <glyph glyph-name="lozenge" unicode="&#x25ca;" horiz-adv-x="1189" 
d="M594 293l268 321l-268 322l-266 -322zM1128 651v-76l-479 -575h-106l-482 575v76l482 578h106z" />
    <glyph glyph-name="uni25CC" unicode="&#x25cc;" horiz-adv-x="1239" 
d="M618.5 0q-26.5 0 -43 16.5t-16.5 43t16.5 44t43 17.5t43 -17.5t16.5 -44t-16.5 -43t-43 -16.5zM802.5 31q-26.5 0 -43 16t-16.5 43t16.5 44.5t43 17.5t43 -17.5t16.5 -44.5t-16.5 -43t-43 -16zM436.5 152q26.5 0 43 -17.5t16.5 -44.5t-16.5 -43t-43 -16t-43 16t-16.5 43
t16.5 44.5t43 17.5zM960.5 133q-26.5 0 -43 16.5t-16.5 43t16.5 43t43 16.5t44 -16.5t17.5 -43t-17.5 -43t-44 -16.5zM278.5 252q26.5 0 43 -16.5t16.5 -43t-16.5 -43t-43 -16.5t-44 16.5t-17.5 43t17.5 43t44 16.5zM1056.5 297q-26.5 0 -43 16.5t-16.5 43t16.5 43t43 16.5
t43 -16.5t16.5 -43t-16.5 -43t-43 -16.5zM182.5 416q26.5 0 43 -16.5t16.5 -43t-16.5 -43t-43 -16.5t-44 16.5t-17.5 43t17.5 43t44 16.5zM1085.5 469q-26.5 0 -43 15.5t-16.5 42t16.5 44t43 17.5t44 -17.5t17.5 -44t-17.5 -42t-44 -15.5zM153.5 588q26.5 0 43 -17.5
t16.5 -44t-16.5 -42t-43 -15.5t-44 15.5t-17.5 42t17.5 44t44 17.5zM1056.5 643q-26.5 0 -43 16.5t-16.5 43t16.5 44t43 17.5t43 -17.5t16.5 -44t-16.5 -43t-43 -16.5zM182.5 764q26.5 0 43 -17.5t16.5 -44t-16.5 -43t-43 -16.5t-44 16.5t-17.5 43t17.5 44t44 17.5z
M958.5 805q-26.5 0 -43 16.5t-16.5 43t16.5 44t43 17.5t44 -17.5t17.5 -44t-17.5 -43t-44 -16.5zM280.5 926q26.5 0 43 -17.5t16.5 -44t-16.5 -43t-43 -16.5t-44 16.5t-17.5 43t17.5 44t44 17.5zM802.5 909q-26.5 0 -43 16.5t-16.5 43t16.5 43t43 16.5t43 -16.5t16.5 -43
t-16.5 -43t-43 -16.5zM436.5 1028q26.5 0 43 -16.5t16.5 -43t-16.5 -43t-43 -16.5t-43 16.5t-16.5 43t16.5 43t43 16.5zM618.5 940q-26.5 0 -43 16.5t-16.5 43t16.5 44t43 17.5t43 -17.5t16.5 -44t-16.5 -43t-43 -16.5z" />
    <glyph glyph-name="commaaccent" unicode="&#xf6c3;" horiz-adv-x="0" 
d="M173 -43q62 0 106.5 -51.5t44.5 -147.5t-68 -193t-170 -147l-57 125q31 12 62.5 44t43.5 71q-39 0 -77 46t-38 102t45.5 103.5t107.5 47.5z" />
    <glyph glyph-name="fi" unicode="&#xfb01;" horiz-adv-x="1255" 
d="M444 1030v-39h189l84 -205h-273v-786h-266v786h-153v205h153v76q0 174 102 272t285 99q47 0 107 -18t92 -46l-76 -192q-68 27 -110 26q-134 0 -134 -178zM877 993h266v-993h-266v993zM1009 1135q-62 0 -106 43q-43 43 -43 106q0 62 43 106t105 44t107 -43q44 -43 44 -107
t-44 -106q-44 -43 -106 -43z" />
    <glyph glyph-name="fl" unicode="&#xfb02;" horiz-adv-x="1294" 
d="M444 1030v-39h189l84 -205h-273v-786h-266v786h-153v205h153v76q0 174 102 272t285 99q47 0 107 -18t92 -46l-76 -192q-68 27 -110 26q-134 0 -134 -178zM1161 0h-264v1423l264 23v-1446z" />
    <glyph glyph-name="grave.case" horiz-adv-x="419" 
d="M295 1849l104 -284l-184 -52l-195 336h275z" />
    <glyph glyph-name="dieresis.case" horiz-adv-x="698" 
d="M546 1542q-56 0 -95 38t-39 93.5t40 94t95 38.5t93 -38.5t38 -94t-38 -93.5t-94 -38zM155 1542q-56 0 -95.5 38t-39.5 93.5t39 94t95 38.5t93.5 -38.5t37.5 -94t-37 -93.5t-93 -38z" />
    <glyph glyph-name="macron.case" horiz-adv-x="577" 
d="M20 1563v211h517l20 -211h-537z" />
    <glyph glyph-name="acute.case" horiz-adv-x="419" 
d="M125 1849h274l-194 -336l-185 52z" />
    <glyph glyph-name="circumflex.case" horiz-adv-x="808" 
d="M788 1546l-243 -33l-135 134l-138 -134l-252 33l312 303h145z" />
    <glyph glyph-name="caron.case" horiz-adv-x="808" 
d="M20 1817l252 32l138 -133l135 133l243 -32l-311 -304h-145z" />
    <glyph glyph-name="breve.case" horiz-adv-x="643" 
d="M444 1849h179q0 -139 -78 -236t-223 -100q-145 2 -223.5 99.5t-78.5 236.5h183q0 -61 28.5 -103t90 -42t92 43t30.5 102z" />
    <glyph glyph-name="dotaccent.case" horiz-adv-x="339" 
d="M172.5 1524q-63.5 0 -108 43t-44.5 106.5t44.5 107.5t108 44t105 -44t41.5 -107.5t-41.5 -106.5t-105 -43z" />
    <glyph glyph-name="ring.case" horiz-adv-x="479" 
d="M239.5 1642q32.5 0 56 25t23.5 57.5t-23.5 56t-56 23.5t-57 -23.5t-24.5 -56t24.5 -57.5t57 -25zM240 1931q88 0 153.5 -60.5t65.5 -146.5t-64.5 -143t-154.5 -57t-155 57t-65 143t66 146.5t154 60.5z" />
    <glyph glyph-name="tilde.case" horiz-adv-x="710" 
d="M524 1774h166q0 -129 -63.5 -188.5t-140.5 -59.5t-128 39q-59 34 -93 34t-51 -21.5t-17 -41.5h-177q0 127 63.5 186.5t140.5 59.5t121 -28t66.5 -36t51.5 -8t45 19.5t16 44.5z" />
    <glyph glyph-name="hungarumlaut.case" horiz-adv-x="829" 
d="M535 1849h274l-195 -336l-184 52zM125 1849h274l-194 -336l-185 52z" />
    <glyph glyph-name="tm_VowelAi.alt" horiz-adv-x="808" 
d="M367 868q0 26 -15.5 43t-42 17t-44 -17.5t-17.5 -43.5t17.5 -42t44 -16t42 16.5t15.5 42.5zM700 -37q-120 0 -205 39t-133.5 108.5t-48.5 155.5t36 153.5t132 180.5l140 158q79 93 79 207q0 68 -49 109.5t-127 41.5t-135 -31q78 -20 125 -81.5t47 -147.5t-74.5 -149.5
t-183 -63.5t-180.5 72.5t-72 187.5t58.5 210t165 148.5t234.5 53.5t227.5 -45t156.5 -125t57 -176t-40 -172t-119 -164l-140 -158q-88 -102 -88 -188q0 -55 40 -91t102 -36q94 0 148 86t50 221h213q0 -145 -51 -260t-148 -179.5t-217 -64.5z" />
    <glyph glyph-name="tm_VowelI.alt1" horiz-adv-x="585" 
d="M-226 1632q177 0 326.5 -76.5t230.5 -214t81 -311.5v-1030h-238v1030q0 184 -112.5 295t-307.5 111q-137 0 -215 -61.5t-78 -153.5q0 -143 95 -181l-213 -88q-113 96 -117 269q0 115 65.5 208t185.5 148t297 55z" />
    <glyph glyph-name="tm_VowelU.alt1" horiz-adv-x="0" 
d="M-412 94h238v-479l-238 -18v497z" />
    <glyph glyph-name="tm_VowelUu.alt1" horiz-adv-x="888" 
d="M260 -338v1202h-672v187h1243l37 -187h-370v-1202h-238z" />
    <glyph glyph-name="tm_VowelI.alt2" horiz-adv-x="585" 
d="M-490 1632q242 0 455 -76.5t330 -214t117 -311.5v-1030h-238v1030q0 121 -86 212t-243.5 142.5t-367.5 51.5t-325 -59.5t-115 -153.5q0 -132 89 -172l-152 -129q-168 96 -172 301q0 115 81 208t233 147t394 54z" />
    <glyph glyph-name="tm_VowelI.alt3" horiz-adv-x="585" 
d="M412 1030v-1030h-238v1030q0 186 -133 296t-379 110q-139 0 -216 -52.5t-77 -141.5t43 -140t131 -51v-166q-188 0 -297.5 99t-111.5 257q0 113 64.5 202t184 139t315.5 50t364.5 -76.5t259 -213t90.5 -312.5z" />
    <glyph glyph-name="tm_VowelI.alt4" horiz-adv-x="585" 
d="M412 1030v-1030h-238v1030q0 184 -138 295t-392 111q-195 0 -299.5 -59.5t-104.5 -153.5q0 -172 174 -172v-166q-190 0 -298.5 91t-110.5 247q0 115 75.5 208t220 147t361.5 54t391 -76.5t266.5 -213t92.5 -312.5z" />
    <glyph glyph-name="tm_KU" horiz-adv-x="2258" 
d="M1413 420v29h-283q-88 0 -138 -40t-50 -105t53 -104.5t163 -39.5t182.5 71.5t72.5 188.5zM1163 637h250v227h-250v-227zM2167 81q0 -171 -120 -322.5t-338 -237.5t-520 -86t-545 110.5t-377 317.5t-134 485q0 195 84 399.5t213 323.5l244 -20q-127 -106 -210 -304
t-83 -410t102.5 -371t288.5 -242.5t416 -83.5t392.5 59t250.5 163t88 246t-76 239t-192 102v-29q0 -131 -62.5 -235.5t-178.5 -163t-261 -58.5t-246.5 44t-156 122t-54.5 179t60.5 180t173.5 118v445h1069l37 -187h-381v-227q147 -2 265 -72.5t184.5 -191.5t66.5 -292z" />
    <glyph glyph-name="tm_CU" horiz-adv-x="1718" 
d="M510 449q-90 0 -140.5 -39t-50.5 -104.5t52.5 -105.5t164.5 -40t183.5 71.5t71.5 188.5v29h-281zM541 637h250v227h-250v-227zM1477 0h-238v449h-209v-29q0 -131 -63.5 -235.5t-179 -163t-261.5 -58.5t-246 44t-154 121t-54 178t60.5 181t170.5 119v445h1069l37 -187
h-379v-227h600l37 -188h-190v-449z" />
    <glyph glyph-name="tm_NyU" horiz-adv-x="2680" 
d="M416 -420q0 -106 362 -106q457 0 731 188h-968q-59 0 -92 -21.5t-33 -60.5zM584 298q0 -64 41 -105t104.5 -41t105.5 40.5t42 104t-42 106.5t-105.5 43t-104.5 -42t-41 -106zM2507 -338h-672q-166 -182 -439.5 -284.5t-589.5 -102.5q-620 0 -620 305q0 123 91.5 195.5
t257.5 72.5h1159q98 156 98 345q0 139 -51 225t-133 86t-130 -45t-48 -113v-346h-238v864h-363q-250 0 -369.5 -102.5t-119.5 -276.5q0 -88 37 -155q10 135 107.5 220t223.5 85t213 -44t136 -121t49 -173t-52.5 -172t-145 -119t-238.5 -43t-284 67.5t-216 186.5t-78 277
t81 285.5t243 199.5t395 72h952l37 -189h-370v-205q90 51 206 51t209.5 -66.5t145 -184t51.5 -283.5t-80 -326h307v1203h238v-1389z" />
    <glyph glyph-name="tm_TtU" horiz-adv-x="1808" 
d="M1716 193q0 -236 -94 -407t-268 -261t-411 -90t-421 101.5t-286.5 290.5t-102.5 447q0 129 39 286t106.5 295t151.5 216l244 -20q-82 -68 -148.5 -200t-105.5 -287.5t-39 -323.5t70.5 -309.5t197.5 -216t297 -74.5q246 0 383 144t137 409q0 139 -51 225t-133 86t-130 -45
t-48 -113v-346h-238v1051h238v-394q86 51 204 51t212 -66.5t145 -184t51 -264.5z" />
    <glyph glyph-name="tm_NnU" horiz-adv-x="4151" 
d="M416 -401q0 -125 620 -125q918 0 1438 188h-1933q-59 0 -92 -17.5t-33 -45.5zM584 298q0 -64 41 -105t104.5 -41t105.5 40.5t42 104t-42 106.5t-105.5 43t-104.5 -42t-41 -106zM1421 369q0 -90 40.5 -149.5t110.5 -59.5t109 58t39 152q0 188 -168 328
q-131 -146 -131 -329zM2296 369q0 -90 40 -149.5t110 -59.5t109.5 58t39.5 156q0 205 -150 351q-149 -158 -149 -356zM990 1087q290 0 546 -131q217 131 465 131t448 -100q182 100 379 100q276 0 425 -159.5t149 -454.5q0 -365 -236 -625h574v1203h237v-1389h-1032
q-592 -387 -1909 -387q-438 0 -644 86t-206 238q0 113 91.5 181t257.5 68h2299q319 238 320 625q0 209 -79 313.5t-247 104.5q-96 0 -190 -39q205 -201 205 -483q0 -117 -50.5 -209t-140.5 -144.5t-206.5 -52.5t-207 52.5t-140.5 144.5t-50 215t56.5 245.5t156.5 223.5
q-117 47 -259 47t-271 -62q239 -200 239 -460q0 -117 -51 -209t-141 -144.5t-207 -52.5t-207 52.5t-140 144.5t-50 209q0 248 188 444q-188 78 -388 78t-342.5 -53.5t-217 -147.5t-74.5 -194t35 -170q10 135 108.5 222t224.5 87t213 -44t136 -121t49 -173t-52.5 -172
t-145 -119t-238.5 -43t-284 65.5t-216 182.5t-78 279t106.5 301t304 217.5t487.5 78.5z" />
    <glyph glyph-name="tm_TU" horiz-adv-x="2230" 
d="M426 -338q-59 0 -92 -21.5t-33 -60.5q0 -51 85 -78.5t241 -27.5q379 0 557 188h-758zM807 420v29h-281q-90 0 -140 -39t-50 -104.5t52 -105.5t164 -40t183.5 71.5t71.5 188.5zM557 637h250v227h-250v-227zM72 -420q0 123 91 195.5t257 72.5h872q31 96 31 207t-36 200
t-98.5 140t-141.5 54v-29q0 -131 -63.5 -235.5t-179.5 -163t-262 -58.5t-245.5 44t-154 121t-54.5 178t60.5 181t170.5 119v445h1070l36 -187h-378v-227q152 -2 271.5 -78t187 -208.5t67.5 -268.5t-25 -234h271v1203h237v-1389h-581q-104 -184 -320.5 -285.5t-545.5 -101.5
t-433 107.5t-104 197.5z" />
    <glyph glyph-name="tm_NU" horiz-adv-x="2215" 
d="M530 -338q-59 0 -91.5 -21.5t-32.5 -60.5q0 -49 73.5 -77.5t214.5 -28.5q315 0 469 188h-633zM696 -725q-256 0 -388 83t-132 214t91 203.5t257 72.5h738q47 144 47 314t-51.5 256t-133.5 86t-130 -45t-48 -113v-346h-237v864h-297v-864h-238v1051h1106l37 -189h-371
v-203q92 49 207 49t209 -66.5t144 -184t50 -283.5t-47 -326h295v1203h238v-1389h-610q-104 -186 -292 -286.5t-444 -100.5z" />
    <glyph glyph-name="tm_NnnU" horiz-adv-x="3276" 
d="M541 -338q-125 0 -125 -74q0 -53 112.5 -83.5t341.5 -30.5q541 0 897 188h-1226zM584 298q0 -64 41 -105t104.5 -41t105.5 40.5t42 104t-42 106.5t-105.5 43t-104.5 -42t-41 -106zM1421 369q0 -90 40.5 -149.5t110.5 -59.5t109 58t39 152q0 188 -170 330
q-129 -148 -129 -331zM1954 1087q276 0 424.5 -159.5t148.5 -454.5q0 -352 -200 -625h538v1203h238v-1389h-949q-215 -184 -539.5 -285.5t-754.5 -101.5t-552 110.5t-122 216.5t91.5 176t257.5 70h1488q256 256 256 625q0 209 -78.5 313.5t-246.5 104.5q-117 0 -232 -55
q117 -96 182.5 -217t65.5 -244t-51 -215t-141 -144.5t-207 -52.5t-207 52.5t-140 144.5t-50 209q0 245 184 446q-180 76 -382 76t-344.5 -53.5t-217 -147.5t-74.5 -194t35 -170q10 135 108.5 222t224.5 87t213 -44t136 -121t49 -173t-52.5 -172t-145 -119t-238.5 -43
t-284 65.5t-216 182.5t-78 279t106.5 301t304 217.5t482.5 78.5t545 -126q201 126 424 126z" />
    <glyph glyph-name="tm_MU" horiz-adv-x="2500" 
d="M2161 504q0 164 -70 275.5t-188 111.5q-205 0 -205 -309v-396h246q127 0 172 77t45 241zM2408 489q0 -225 -115.5 -357t-348.5 -132h-250q-20 -174 -124 -302t-267.5 -195.5t-371.5 -67.5t-392.5 95t-295 285.5t-110.5 458.5q0 133 36 286t102.5 289t158.5 222l244 -20
q-133 -115 -213 -339.5t-80 -437.5t78 -357t205 -215t274 -71q221 0 367.5 97.5t154.5 271.5h-620v1051l237 10v-875h383v412q0 219 114 354t329 135q151 0 266 -76.5t177 -212.5t62 -309z" />
    <glyph glyph-name="tm_RU" horiz-adv-x="2379" 
d="M2288 193q0 -238 -127 -408t-366 -260t-563 -90t-573 110.5t-387.5 317.5t-138.5 485q0 195 84 399.5t213 323.5l244 -20q-127 -106 -210 -304t-83 -410t106.5 -371t298 -242.5t441.5 -83.5q391 0 601 143t210 410q0 139 -51.5 225t-133.5 86t-130 -45t-48 -113v-346
h-237v864h-361v-864h-237v1051h1169l37 -187h-371v-207q86 51 204 51t212 -66.5t145.5 -184t51.5 -264.5z" />
    <glyph glyph-name="tm_RrU" horiz-adv-x="2439" 
d="M383 -420q1 -106 363 -106t550 188h-788q-59 0 -92 -21.5t-33 -60.5zM571 1087q224 0 351 -178q63 86 157.5 132t204.5 46q160 0 272.5 -76.5t170 -214t57.5 -315.5q0 -373 -103 -633h347v1203h237v-1389h-680q-256 -387 -876 -387q-346 0 -450.5 107.5t-104.5 197.5
q0 123 91 195.5t257 72.5h923q111 235 111 633q0 190 -60.5 300t-180.5 110q-234 0 -234 -309v-582h-238v557q0 139 -59 236.5t-168 97.5q-184 0 -184 -297v-594h-240v635q0 131 48 233.5t138.5 160.5t212.5 58z" />
    <glyph glyph-name="tm_LU" horiz-adv-x="2764" 
d="M532 -338q-59 0 -91.5 -21.5t-32.5 -60.5q0 -51 85 -78.5t240 -27.5q416 0 649 188h-850zM584 298q0 -64 41 -105t104.5 -41t105.5 40.5t42 104t-42 106.5t-105.5 43t-104.5 -42t-41 -106zM1681 160q217 0 217 336q0 127 -44 282.5t-123 272.5l241 28q88 -141 131 -297.5
t43 -285.5q0 -203 -82 -339.5t-245 -176.5q-14 -80 -35 -132h569v1203h238v-1389h-908q-139 -182 -387.5 -284.5t-578.5 -102.5t-434.5 107.5t-104.5 197.5q0 123 91 195.5t257 72.5h1006q27 51 45 123q-164 29 -252 148t-88 309v94q0 168 -113.5 268.5t-312.5 100.5
q-145 0 -251.5 -53.5t-163 -145.5t-56.5 -194t37 -168q10 135 107.5 220t223.5 85t213 -44t136 -121t49 -173t-52.5 -172t-145 -119t-238.5 -43t-284 67.5t-216 186.5t-78 281t89 299t252 213.5t370 76.5t357.5 -70.5t232.5 -199.5t82 -295v-94q0 -129 54 -198.5t152 -69.5z
" />
    <glyph glyph-name="tm_LlU" horiz-adv-x="3446" 
d="M1133 298q0 -64 40.5 -105t104 -41t105.5 40.5t42 104t-42 106.5t-105.5 43t-104 -42t-40.5 -106zM1352 1087q303 0 489 -190v154h1243l37 -187h-371v-200q86 45 200 45t208 -67t145.5 -184.5t51.5 -264.5q0 -238 -132.5 -413t-376 -270.5t-573.5 -95.5h-1067
q-317 0 -561 116t-378 328t-134 490q0 195 84 399.5t213 323.5l244 -20q-127 -106 -210 -304t-83 -410t102.5 -378t288.5 -259t434 -97h1067q256 0 444.5 72.5t288 205.5t99.5 292t-51.5 245t-139.5 86q-59 0 -103 -30t-61 -77v-397h-237v864h-434v-864h-238v467
q0 121 -62.5 218t-174 151.5t-253.5 54.5t-247 -53.5t-160 -145.5t-55 -194t37 -168q10 135 107 220t223 85t213 -44t136.5 -121t49.5 -173t-52.5 -172t-145.5 -119t-239 -43t-283.5 67.5t-215.5 186.5t-78 281t88 299t249 213.5t374 76.5z" />
    <glyph glyph-name="tm_LllU" horiz-adv-x="2500" 
d="M1944 186q127 0 172 77t45 241t-70 275.5t-188 111.5q-205 0 -205 -309v-396h246zM1698 -27q0 -80 34.5 -113.5t102.5 -33.5h307l37 -186h-321q-104 -102 -294 -153.5t-413 -51.5q-313 0 -542.5 100t-352.5 289.5t-123 449.5q0 133 36 286t102.5 289t158.5 222l244 -20
q-133 -115 -213 -339.5t-80 -433.5t91 -353t264 -219t378 -75t307.5 15.5t169.5 62.5q-59 31 -95 90.5t-36 139.5v61h-620v1051l237 10v-875h383v412q0 221 114 355t329 134q152 0 266.5 -76.5t176.5 -212.5t62 -309q0 -225 -115.5 -357t-348.5 -132h-246v-27z" />
    <glyph glyph-name="tm_KUu" horiz-adv-x="2478" 
d="M1362 250q0 -47 27.5 -78t68.5 -31t68.5 31t27.5 84t-26.5 98t-75.5 70q-90 -66 -90 -174zM510 449q-90 0 -140.5 -39t-50.5 -104.5t52.5 -105.5t164.5 -40t183.5 71.5t71.5 188.5v29h-281zM541 637h250v227h-250v-227zM1911 297q0 92 -51.5 145.5t-139.5 53.5l-49 -2
q103 -109 103 -239t-89.5 -211t-226.5 -81t-226 81.5t-89 195.5t61 209h-174v-29q0 -131 -63.5 -235.5t-179 -163t-261.5 -58.5t-246 44t-154 121t-54 178t60.5 181t170.5 119v445h1069l37 -187h-379v-227h301q33 0 90 -8q139 63 281 63t243 -51t157.5 -141t56.5 -180
t-9 -134h308v-186h-619q72 148 72 297z" />
    <glyph glyph-name="tm_NgUu" horiz-adv-x="2541" 
d="M2521 -186q0 -174 -105.5 -312.5t-294 -214t-425.5 -75.5h-1053q-240 0 -380 81t-140 215t88 210.5t244 76.5h1095v-186h-1095q-45 0 -75 -25.5t-30 -64.5q0 -53 82 -87t211 -34h1055q166 0 297 53t204.5 148.5t73.5 220.5q0 74 -40.5 123t-110.5 49t-119 -48t-49 -116
v-219h-238v391h-1007v186h309q121 0 183.5 56.5t62.5 140.5t-40 133t-111 49t-119 -48t-48 -116v-73h-237v536h-297v-864h-238v1051h1106l37 -189h-371v-147q92 49 199 49q166 0 267 -101.5t101 -269.5q0 -117 -61 -207h264v865h238v-912q90 51 198 51q166 0 267.5 -101
t101.5 -275z" />
    <glyph glyph-name="tm_CUu" horiz-adv-x="2670" 
d="M1112 449q-88 0 -138 -40t-50 -105t52 -104.5t162 -39.5t183.5 71.5t73.5 188.5v29h-283zM1145 637h250v227h-250v-227zM2578 43q0 -193 -142 -329t-406 -207.5t-642 -71.5t-664 110.5t-438.5 316.5t-152.5 486q0 195 84 398.5t213 324.5l244 -20q-127 -109 -210 -306.5
t-83 -409.5t118.5 -370t347 -241.5t556.5 -83.5q446 0 686 102t240 301q0 59 -31 96t-84 37t-93 -43t-40 -96v-37h-238v449h-211v-29q0 -131 -62.5 -235.5t-178 -163t-261.5 -58.5t-247 44t-155 122t-54 179t60.5 180t172.5 118v445h1069l37 -187h-381v-227h602l37 -188
h-190v-113q78 37 155 37q160 0 251 -92.5t91 -237.5z" />
    <glyph glyph-name="tm_TtUu" horiz-adv-x="1961" 
d="M1491 1023q0 -44 28.5 -73.5t73.5 -29.5t76 29.5t31 73.5t-31 73.5t-76 29.5t-73.5 -29.5t-28.5 -73.5zM381 454q0 -264 69.5 -444t196.5 -275t299 -95q246 0 383 144t137 409q0 139 -51 225t-133 86t-130 -45t-48 -113v-346h-238v1051h238v-394q90 51 206 51t210 -66.5
t145 -184t51 -264.5q0 -236 -94 -407t-268 -261t-412 -90t-422 123t-285.5 350.5t-101.5 549.5t118 588.5t337 417t514 150.5q205 0 381 -72t281.5 -201t105.5 -274t-73 -225t-199 -80t-205.5 74t-79.5 184t69.5 183t178.5 81q-161 125 -412 125q-250 0 -419 -124
t-259 -345.5t-90 -485.5z" />
    <glyph glyph-name="tm_PUu" horiz-adv-x="1945" 
d="M1925 -186q0 -174 -106.5 -312.5t-295 -214t-425.5 -75.5h-455q-240 0 -380 81t-140 215t88 210.5t244 76.5h497v-186h-497q-45 0 -75 -25.5t-30 -64.5q0 -53 82 -87t211 -34h457q166 0 297 53t204.5 148.5t73.5 220.5q0 74 -40.5 123t-110.5 49t-119 -48t-49 -116v-219
h-238v391h-944v1051l238 10v-875h706v865h238v-912q90 51 200 51q166 0 267.5 -101t101.5 -275z" />
    <glyph glyph-name="tm_MUu" horiz-adv-x="2781" 
d="M2439 502q0 164 -68.5 276.5t-189.5 112.5q-205 0 -205 -309v-396h248q127 0 171 76t44 240zM746 918q-40 0 -68.5 -28t-28.5 -69t28 -67.5t70 -26.5t67.5 26.5t25.5 67.5t-27 69t-67 28zM381 374q0 -219 94 -383.5t259.5 -257.5t401.5 -93t396 91t197 269h-609v1051
l238 10v-875h381v412q0 219 114.5 354t327.5 135q152 0 267.5 -76.5t178 -212.5t62.5 -309q0 -225 -115.5 -357t-349.5 -132h-256q-39 -268 -265 -416.5t-593 -148.5q-274 0 -497.5 120.5t-351.5 333.5t-128 478q0 193 79 358.5t216.5 263.5t283.5 98t225 -73.5t79 -188.5
t-76 -188.5t-183 -73.5t-176 53.5t-89 139.5q-111 -163 -111 -382z" />
    <glyph glyph-name="tm_YUu" horiz-adv-x="2400" 
d="M2380 -186q0 -174 -105.5 -312.5t-294 -214t-426.5 -75.5h-911q-240 0 -380 81t-140 215t88 210.5t244 76.5h952v-186h-952q-45 0 -75 -25.5t-30 -64.5q0 -53 82 -87t211 -34h911q166 0 297 53t205 148.5t74 220.5q0 74 -40 123t-111 49t-119 -48t-48 -116v-219h-239v391
h-733v63q-111 -100 -258 -100q-213 0 -320.5 125t-107.5 334v629l237 10v-627q0 -131 46 -202.5t164 -71.5t178.5 90t60.5 244v557h237v-865h496v865h239v-912q86 51 199 51q166 0 267.5 -101t101.5 -275z" />
    <glyph glyph-name="tm_RUu" horiz-adv-x="2658" 
d="M746 918q-40 0 -68.5 -28t-28.5 -69t28 -67.5t70 -26.5t67.5 26.5t25.5 67.5t-27 69t-67 28zM381 362q0 -354 265 -538t740 -184q272 0 483.5 64.5t330 189t118.5 299.5q0 139 -51 225t-133 86t-130 -45t-48 -113v-346h-238v864h-360v-864h-238v1051h1170l37 -187h-371
v-205q92 49 206 49t209 -66.5t145 -184t50 -264.5q0 -233 -150.5 -404.5t-417.5 -262.5t-631 -91t-646.5 108.5t-435 317.5t-152.5 506q0 193 79 358.5t216.5 263.5t283.5 98t225 -73.5t79 -188.5t-76 -188.5t-183 -73.5t-176 53.5t-89 139.5q-111 -163 -111 -394z" />
    <glyph glyph-name="tm_LlUu" horiz-adv-x="3815" 
d="M1501 298q0 -64 41 -105t104.5 -41t105.5 40.5t42 104t-42 106.5t-105.5 43t-104.5 -42t-41 -106zM727 897q-33 0 -55.5 -21.5t-22.5 -54.5t22.5 -53t55.5 -20t52.5 20t19.5 54t-19.5 54.5t-52.5 20.5zM1720 1087q304 0 490 -190v154h1243l37 -187h-371v-200
q85 45 199 45t208.5 -67t145.5 -184.5t51 -264.5q0 -238 -132 -413t-375.5 -270.5t-573.5 -95.5h-1421q-313 0 -561 110.5t-387.5 313t-139.5 446.5t74 422.5t204.5 279.5t278.5 101t226.5 -73.5t78.5 -188.5t-75.5 -188.5t-181.5 -73.5t-175 51.5t-92 137.5
q-90 -152 -90 -451q0 -211 107.5 -369.5t298 -243.5t434.5 -85h1421q256 0 444.5 72.5t287.5 205.5t99 292t-51 245t-139 86q-59 0 -103.5 -30t-60.5 -77v-397h-237v864h-435v-864h-237v467q0 121 -62.5 218t-174 151.5t-253.5 54.5t-247 -53.5t-160.5 -145.5t-55.5 -194
t37 -168q10 135 107.5 220t223.5 85t213 -44t136 -121t49 -173t-52 -172t-144.5 -119t-238.5 -43t-284.5 67.5t-216 186.5t-77.5 281t88 299t248.5 213.5t373.5 76.5z" />
    <glyph glyph-name="tm_LllUu" horiz-adv-x="2781" 
d="M2224 186q127 0 171 76t44 240t-68.5 276.5t-189.5 112.5q-205 0 -205 -309v-396h248zM746 918q-40 0 -68.5 -28t-28.5 -69t28 -67.5t70 -26.5t67.5 26.5t25.5 67.5t-27 69t-67 28zM381 374q0 -219 116.5 -384.5t317.5 -257.5t451 -92t384 23.5t222 66.5q-61 31 -97 90
t-36 139v41h-619v1051l238 10v-875h381v412q0 219 114.5 354t327.5 135q152 0 267.5 -76.5t178 -212.5t62.5 -309q0 -225 -115.5 -357t-349.5 -132h-248v-6q0 -148 140 -148h305l37 -186h-322q-121 -102 -338 -163.5t-534 -61.5t-575.5 120.5t-407 332.5t-148.5 479
q0 193 79 358.5t216.5 263.5t283.5 98t225 -73.5t79 -188.5t-76 -188.5t-183 -73.5t-176 53.5t-89 139.5q-111 -163 -111 -382z" />
    <glyph glyph-name="tm_VUu" horiz-adv-x="2656" 
d="M584 298q0 -64 41 -105t104.5 -41t105.5 40.5t42 104t-42 106.5t-105.5 43t-104.5 -42t-41 -106zM2636 -186q0 -174 -105.5 -312.5t-294 -214t-426.5 -75.5h-1208q-240 0 -380 81t-140 215t88 210.5t244 76.5h1251v-186h-1251q-45 0 -75 -25.5t-30 -64.5q0 -53 82 -87
t211 -34h1210q166 0 297.5 53t205 148.5t73.5 220.5q0 74 -40 123t-110 49t-120 -48t-50 -116v-219h-237v391h-633v186q94 158 94 330t-118.5 273.5t-352.5 101.5q-145 0 -254.5 -53.5t-168 -145.5t-58.5 -194t37 -168q10 133 109.5 219t223.5 86t211 -44t136 -121t49 -173
t-52.5 -172t-145 -119t-238.5 -43t-284 67.5t-216 186.5t-78 281t92 299t258 213.5t376 76.5t374 -72.5t257 -201.5t93 -296t-82 -331h371v865h237v-912q90 51 199 51q166 0 267.5 -101t101.5 -275z" />
    <glyph glyph-name="tm_KSsa" horiz-adv-x="3569" 
d="M1362 250q0 -47 27.5 -78t68.5 -31t68.5 31t27.5 84t-26.5 98t-75.5 70q-90 -66 -90 -174zM510 449q-90 0 -140.5 -39t-50.5 -104.5t52.5 -105.5t164 -40t183.5 71.5t72 188.5v29h-281zM2912 186h246v392q-113 -92 -246 -142v-250zM541 637h250v227h-250v-227zM2675 727
q0 76 -33 120t-97 44t-102.5 -41t-38.5 -110t53.5 -114.5t153.5 -45.5q23 0 64 4v143zM1911 297q0 92 -51.5 145.5t-139.5 53.5l-49 -2q102 -109 102.5 -239t-89 -211t-226.5 -81t-226 81t-89 195.5t61 209.5h-174v-29q0 -131 -63.5 -235.5t-179 -163t-261 -58.5t-246 44
t-154.5 121t-54 178t60.5 181t170.5 119v445h1069l37 -187h-379v-227h301q33 0 90 -8q139 63 281.5 63t243 -51t157 -141t56.5 -180.5t-9 -133.5h525v197q-20 -2 -64 -2q-135 0 -238.5 47t-161 130t-57.5 184t50.5 180t139.5 122t200 43q170 0 269 -95t99 -255v-86
q160 78 246 213h238v-864h-484v-498h-237v498h-836q72 148 72 297z" />
    <glyph glyph-name="tm_TtI" horiz-adv-x="1826" 
d="M1255 672q0 219 -177 219q-93 0 -148.5 -87.5t-55.5 -213.5t42 -214.5t114 -139t160 -50.5h65v486zM1079 1087q133 0 224.5 -53t140.5 -146t49 -214v-488h276l37 -186h-313v-498h-238v498h-1081v1051l238 10v-875h366q-149 153 -153 389q0 147 56 264t160.5 182.5
t237.5 65.5z" />
    <glyph glyph-name="tm_TtIi" horiz-adv-x="1789" 
d="M1495 527q0 44 -29.5 74t-74.5 30t-75 -30t-30 -74t30 -73.5t75 -29.5t74.5 29.5t29.5 73.5zM1104 535q0 121 100 200h-35q-152 0 -238.5 -76.5t-86.5 -199.5t75.5 -198t192.5 -75h621l36 -186h-1595v1051l238 10v-875h276q-92 116 -92 262t70.5 254.5t201 169
t284.5 60.5t271 -51.5t186.5 -143t69.5 -205.5t-81.5 -190t-206.5 -76t-206 74t-81 195z" />
    <glyph glyph-name="tm_Shree" horiz-adv-x="3930" 
d="M3643 1392q0 44 -29.5 73.5t-74.5 29.5t-75 -29.5t-30 -73.5t30 -74t75 -30t74.5 30t29.5 74zM3252 1402q0 122 101 197h-35q-152 0 -239 -76.5t-87 -199.5t76 -197.5t192 -74.5h299l37 -187h-370v-205q92 49 206 49t209 -66.5t146 -184t51 -264.5q0 -238 -132 -413
t-376 -270.5t-573 -95.5h-1551q-317 0 -561 116t-378 328t-134 490q0 195 84 399.5t213 323.5l244 -20q-127 -106 -210 -304t-83 -410t102.5 -379t288.5 -260t434 -95h1551q256 0 444 72.5t287.5 205.5t99.5 292t-51 245t-133 86t-130 -45t-48 -113v-346h-238v864h-434v-864
h-238v557q0 154 -60 244t-178 90t-165 -71.5t-47 -201.5v-618h-1071v1051l237 10v-875h596v443q0 209 108.5 333.5t321.5 124.5q150 0 258 -102v66h520q-92 115 -92 261t71 254.5t201 170t286 61.5t272 -52t185 -144t69 -206t-82 -190t-206 -76t-206 75t-82 197z" />
    </font>
</defs>
</svg>
