<?xml version="1.0" standalone="no"?>
<!DOCTYPE svg PUBLIC "-//W3C//DTD SVG 1.1//EN" "http://www.w3.org/Graphics/SVG/1.1/DTD/svg11.dtd" >
<svg xmlns="http://www.w3.org/2000/svg">
<metadata>
Created by FontPrep 20130207 at Mon Jan 30 15:23:13 2017
 By Gamol
Copyright 2014 Pria Ravichandran (pria.ravichandran@gmail.com)
</metadata>
<defs>
<font id="d8571b4a443387ada0c3b42edef83a94" horiz-adv-x='1024' >
  <font-face 
    font-family="Catamaran-Regular"
    font-weight="400"
    font-stretch="normal"
    units-per-em="2048"
    panose-1="0 0 5 0 0 0 0 0 0 0"
    ascent="1577"
    descent="-471"
    x-height="993"
    cap-height="1393"
    bbox="-1105.01 -772 5157 2703"
    underline-thickness="102"
    underline-position="-153"
    unicode-range="U+000D-FB02"
  />
<missing-glyph horiz-adv-x="1347" 
d="M356 129h633l-2 1165h-631v-1165zM1153 0h-960v1425h960v-1425z" />
    <glyph glyph-name=".notdef" horiz-adv-x="1347" 
d="M356 129h633l-2 1165h-631v-1165zM1153 0h-960v1425h960v-1425z" />
    <glyph glyph-name="uni0000" horiz-adv-x="0" 
 />
    <glyph glyph-name="uni0000" horiz-adv-x="0" 
 />
    <glyph glyph-name="nonmarkingreturn" unicode="&#xd;" horiz-adv-x="0" 
 />
    <glyph glyph-name="space" unicode=" " horiz-adv-x="477" 
 />
    <glyph glyph-name="exclam" unicode="!" horiz-adv-x="346" 
d="M174 219q45 0 78 -31.5t33 -76.5t-32 -78t-78 -33t-80 33t-34 78t34 76.5t79 31.5zM266 1438l-33 -1037l-116 58l-35 979h184z" />
    <glyph glyph-name="quotedbl" unicode="&#x22;" horiz-adv-x="671" 
d="M500 1458q45 0 77.5 -36t32.5 -114t-60.5 -175t-146.5 -142l-43 76q55 39 85 78t38 92q-39 2 -66.5 36t-27.5 76t33 75.5t78 33.5zM180 1458q45 0 79 -36t34 -114t-61.5 -175t-147.5 -142l-43 76q55 39 85 78t36 92q-39 2 -66.5 36t-27.5 76t33.5 75.5t78.5 33.5z" />
    <glyph glyph-name="numbersign" unicode="#" horiz-adv-x="1062" 
d="M365 393h270l61 260h-268zM455 778h272l59 260l138 -2l-62 -258h123l16 -125h-170l-61 -260h215l16 -125h-260l-63 -274l-133 10l61 264h-270l-66 -274l-133 10l62 264h-119l-19 125h168l60 260h-209l-19 125h261l61 260l135 -2z" />
    <glyph glyph-name="dollar" unicode="$" horiz-adv-x="1050" 
d="M485 111q167 0 253.5 62.5t86.5 162.5q0 133 -117.5 200.5t-279.5 137.5t-251 166t-89 222t70.5 213t195.5 126v219l117 20v-217l61 2q25 0 70 -4v201l119 20v-241q86 -23 168 -62l-55 -125q-76 35 -139 53.5t-175 18.5t-193 -55t-81 -141t40 -138.5t113.5 -95.5
t209.5 -105t256 -146.5t120 -266.5q0 -115 -68.5 -202t-195.5 -130v-242h-119v218q-47 -8 -108 -9h-23v-209h-117v224q-167 28 -243 80l39 127q168 -84 335 -84z" />
    <glyph glyph-name="percent" unicode="%" horiz-adv-x="1765" 
d="M1372 516q-37 0 -72 -47q-43 -66 -43 -117q-1 -51 19 -96q35 -80 88 -80t90 49q41 59 41 115t-22 106q-28 70 -101 70zM1147 347q0 91 65 173q72 80 166 80t161 -83t67 -174t-69 -171t-162 -80t-156 82q-72 82 -72 173zM387 1260q-37 0 -72 -48q-43 -66 -43 -117t20 -95
q35 -78 88 -78q54 0 89 47q43 66 43 116t-25 105q-28 70 -100 70zM162 1095q0 91 65 169q74 82 167 82t157 -82q72 -84 72 -174t-66 -172q-76 -82 -170 -82t-156 82q-69 86 -69 177zM647 -8l-158 8l627 1454l158 -8z" />
    <glyph glyph-name="ampersand" unicode="&#x26;" horiz-adv-x="1368" 
d="M614 115q207 0 324 133l-459 420q-55 51 -76 75q-70 -45 -109.5 -125.5t-41.5 -183.5q0 -156 106 -237.5t256 -81.5zM246 1048q0 108 46 192.5t134 134.5t194 50t182.5 -22.5t158.5 -63.5l-58 -125q-14 6 -85.5 40t-179.5 34q-107 0 -169.5 -65.5t-62.5 -154.5t45 -153.5
t161 -173.5l404 -379q72 141 88 357l131 -51q-12 -244 -100 -410l168 -154l-86 -112l-166 151q-158 -170 -437 -170q-150 2 -269.5 54.5t-188 155t-67.5 239.5t61.5 248.5t158.5 177.5q-63 92 -63 200z" />
    <glyph glyph-name="quotesingle" unicode="'" horiz-adv-x="354" 
d="M180 1458q45 0 79 -36t34 -114t-61.5 -175t-147.5 -142l-43 76q55 39 85 78t36 92q-39 2 -66.5 36t-27.5 76t33.5 75.5t78.5 33.5z" />
    <glyph glyph-name="parenleft" unicode="(" horiz-adv-x="542" 
d="M102 654q0 181 62.5 377t185.5 355l131 -47q-57 -66 -108 -189.5t-82 -258.5t-31 -235t31 -237.5t82 -261.5t108 -188l-131 -47q-121 158 -184.5 354.5t-63.5 377.5z" />
    <glyph glyph-name="parenright" unicode=")" horiz-adv-x="542" 
d="M440 658q0 -180 -63.5 -375t-183.5 -361l-132 47q55 66 106.5 190t83.5 261t32 235.5t-32 235.5t-83 261t-107 187l132 47q121 -158 184 -353t63 -375z" />
    <glyph glyph-name="asterisk" unicode="*" horiz-adv-x="718" 
d="M293 1354l4 227h125l2 -227l240 51l34 -107l-239 -47l168 -239l-95 -72l-172 231l-172 -231l-96 72l170 239l-242 47l35 107z" />
    <glyph glyph-name="plus" unicode="+" horiz-adv-x="1097" 
d="M625 625h391l20 -129h-411v-488l-150 8v480h-397l-17 129h414v469l150 -7v-462z" />
    <glyph glyph-name="comma" unicode="," horiz-adv-x="354" 
d="M182 219q47 0 79 -34.5t32 -112.5t-60.5 -175.5t-148.5 -142.5l-43 76q57 41 88 80t35 92q-37 2 -65.5 35t-28.5 75t32.5 74.5t79.5 32.5z" />
    <glyph glyph-name="hyphen" unicode="-" horiz-adv-x="655" 
d="M80 496l-19 129h517l16 -129h-514z" />
    <glyph glyph-name="period" unicode="." horiz-adv-x="344" 
d="M173 0q-46 0 -79 32t-33 78t33 77.5t79 31.5t78 -31.5t32 -76.5t-32 -78t-78 -33z" />
    <glyph glyph-name="slash" unicode="/" horiz-adv-x="823" 
d="M176 -8l-156 8l627 1454l156 -8z" />
    <glyph glyph-name="zero" unicode="0" horiz-adv-x="1214" 
d="M227 591q0 -134 49.5 -243.5t136.5 -172t195.5 -62.5t195.5 60t135 168t48 242t-48 240.5t-135 166t-195.5 59.5t-195.5 -58.5t-136.5 -162t-49.5 -237.5zM68 586q0 174 69.5 310t193 213t277.5 77t277 -77t192.5 -212t69.5 -308t-69.5 -314.5t-192.5 -221.5t-278 -80
t-277.5 79t-192 219.5t-69.5 314.5z" />
    <glyph glyph-name="one" unicode="1" horiz-adv-x="638" 
d="M492 1159v-1159h-164v971l-236 -111l-72 131l363 168h109z" />
    <glyph glyph-name="two" unicode="2" horiz-adv-x="980" 
d="M449 1186q197 0 312.5 -89t115.5 -241q0 -117 -70 -225.5t-236 -247.5l-305 -256h647l27 -127h-889v117l434 377q127 109 180.5 184.5t53.5 170.5t-73.5 149.5t-185.5 54.5t-179.5 -28t-155.5 -77l-47 131q78 47 165 77t206 30z" />
    <glyph glyph-name="three" unicode="3" horiz-adv-x="948" 
d="M84 70q154 -95 314 -95q180 0 246.5 86t66.5 160q0 127 -92.5 196.5t-286.5 69.5h-49l-25 121h86q158 0 250 64t92 162t-70.5 159.5t-187.5 61.5q-173 0 -322 -103l-79 107q199 127 407 127q133 0 226.5 -46t140.5 -124t47 -174t-62.5 -177t-154.5 -114
q104 -25 172.5 -114t68.5 -203t-58 -201.5t-164.5 -138t-228.5 -50.5q-213 0 -421 111z" />
    <glyph glyph-name="four" unicode="4" horiz-adv-x="1073" 
d="M657 276v611l-462 -611h462zM819 1169v-893h213l-18 -133h-195v-284h-162v284h-614l-23 133l687 893h112z" />
    <glyph glyph-name="five" unicode="5" horiz-adv-x="1015" 
d="M514 690q215 0 323.5 -116.5t110.5 -299.5q0 -119 -56 -217t-165 -155.5t-235 -57.5q-216 0 -424 111l82 115q82 -47 154.5 -70t170.5 -23q141 0 226 81t85 215t-71.5 210t-190.5 76q-71 0 -131.5 -31.5t-97.5 -68.5h-156l33 700h698l-18 -133h-533l-18 -401
q103 65 213 65z" />
    <glyph glyph-name="six" unicode="6" horiz-adv-x="1046" 
d="M539 664q-164 0 -314 -150q6 -197 89.5 -300t219.5 -103t214.5 76.5t78.5 198.5t-77.5 200t-210.5 78zM981 387q0 -115 -56.5 -210t-155.5 -149.5t-229 -54.5t-238.5 63.5t-171 188.5t-62.5 323t110.5 365.5t280.5 265t346 119.5l37 -127q-125 -14 -251 -74.5
t-222.5 -168t-128.5 -250.5q136 115 286 115t249 -53.5t152.5 -145.5t53.5 -207z" />
    <glyph glyph-name="seven" unicode="7" horiz-adv-x="901" 
d="M807 1159l53 -72l-452 -1228l-154 47l426 1120h-639l-21 133h787z" />
    <glyph glyph-name="eight" unicode="8" horiz-adv-x="1056" 
d="M225 351q0 -110 87 -177.5t215 -67.5t217.5 68t89.5 178t-79 186t-225 95q-150 -18 -227.5 -95t-77.5 -187zM526 1186q-119 0 -183 -61.5t-64 -146.5t66.5 -147.5t184.5 -80.5q117 18 183.5 80.5t66.5 148.5t-67.5 146.5t-186.5 60.5zM530 1317q127 0 218.5 -47
t139.5 -124t48 -169t-61.5 -167t-149.5 -116q70 -18 131.5 -67t98 -121t36.5 -163t-54 -178t-158.5 -139.5t-248.5 -52.5t-249 51.5t-159 137.5t-54 175t36.5 161.5t98 126t131.5 69.5q-92 39 -151.5 115t-59.5 168t48 169t140 124t219 47z" />
    <glyph glyph-name="nine" unicode="9" horiz-adv-x="1046" 
d="M508 498q166 0 315 149q-8 197 -91 300.5t-218 103.5t-214 -78t-79 -199t77 -198.5t210 -77.5zM981 612q0 -198 -110.5 -366t-280.5 -265.5t-346 -119.5l-37 127q125 14 251 75.5t222 169t129 250.5q-143 -117 -291 -117t-247 53.5t-151 145.5t-52 208t56 210
t155.5 148.5t229.5 54.5t238.5 -63.5t171 -188t62.5 -322.5z" />
    <glyph glyph-name="colon" unicode=":" horiz-adv-x="344" 
d="M173 55q-46 0 -79 33t-33 79t33 79t79 33t78 -33t32 -79t-32 -79t-78 -33zM172 713q-45 0 -78 32.5t-33 77.5t33 79t78 34t78 -34t33 -79t-33 -77.5t-78 -32.5z" />
    <glyph glyph-name="semicolon" unicode=";" horiz-adv-x="356" 
d="M182 279q47 0 79 -37t32 -115t-60.5 -175t-148.5 -142l-43 75q57 41 88 80t35 92q-39 4 -66.5 35t-27.5 75t32.5 78t79.5 34zM197 823q1 -12 -13 -12t-14 13t14 14q4 0 8.5 -4.5t4.5 -10.5z" />
    <glyph glyph-name="less" unicode="&#x3c;" horiz-adv-x="673" 
d="M633 840l-418 -338l418 -338l-47 -125l-525 412v102l525 410z" />
    <glyph glyph-name="equal" unicode="=" horiz-adv-x="1028" 
d="M80 268l-19 125h889l17 -125h-887zM80 653l-19 125h889l17 -125h-887z" />
    <glyph glyph-name="greater" unicode="&#x3e;" horiz-adv-x="673" 
d="M41 840l47 123l524 -410v-102l-524 -412l-47 125l418 338z" />
    <glyph glyph-name="question" unicode="?" horiz-adv-x="843" 
d="M335 219q46 0 78.5 -31.5t32.5 -76.5t-32.5 -78t-78.5 -33t-78 32t-32 78t32 77.5t78 31.5zM621 1141.5q0 156.5 -236 156.5q-94 0 -173 -30.5t-171 -93.5l-21 141q99 63 180 93t191 30q195 0 293 -93.5t98 -250.5q0 -115 -99 -230.5t-263 -191.5l-21 -367l-118 47
l-17 402q162 51 259.5 141t97.5 246.5z" />
    <glyph glyph-name="at" unicode="@" horiz-adv-x="1564" 
d="M928 359q0 17 2 28l45 350h-64q-84 0 -154.5 -35.5t-112.5 -103.5t-42 -150t46 -137t143 -55t141 66q-4 20 -4 37zM451 428q0 131 64.5 225.5t169.5 145.5t226 51h150l51 -62l-49 -413q-6 -61 25.5 -90t74.5 -29q86 0 141.5 96.5t55.5 247.5t-61.5 261t-175 171.5
t-273.5 61.5t-306.5 -80t-234.5 -228t-88 -324t70.5 -295.5t191.5 -183t295 -63.5t307 72l41 -121q-166 -86 -399 -86q-170 0 -321.5 83t-244.5 233.5t-93 352.5t97 380t278 282.5t393 104.5t356.5 -77t225.5 -213t81 -306q0 -240 -94 -367t-256 -127q-106 0 -166 66
q-97 -64 -192 -64q-168 0 -254 82t-86 213z" />
    <glyph glyph-name="A" unicode="A" horiz-adv-x="1247" 
d="M612 1180l-243 -654h495zM178 0h-158l517 1393h155l535 -1381l-160 -26l-156 409h-587z" />
    <glyph glyph-name="B" unicode="B" horiz-adv-x="1208" 
d="M645 655h-293v-520h273q354 0 354 252q0 137 -88 202.5t-246 65.5zM903 1022q0 135 -83 184t-249 49h-219v-469h189q362 4 362 236zM1143 391q0 -203 -141.5 -297t-374.5 -94h-437v1393h388q231 0 360 -85t129 -284q0 -168 -193 -279q269 -91 269 -354z" />
    <glyph glyph-name="C" unicode="C" horiz-adv-x="1140" 
d="M741 113q159 0 291 61l62 -123q-63 -33 -169 -56.5t-194 -23.5q-205 0 -350 96.5t-219 260.5t-74 366t80 368.5t229.5 262.5t345.5 96q76 0 182.5 -21.5t166.5 -58.5l-52 -116q-82 31 -141 44t-175 13t-227.5 -76t-175 -211t-63.5 -300t55.5 -297t162 -208.5t265.5 -76.5
z" />
    <glyph glyph-name="D" unicode="D" horiz-adv-x="1374" 
d="M686 1255h-334v-1120h316q137 0 240.5 68.5t160.5 196.5t57 302q0 250 -111.5 401.5t-328.5 151.5zM666 0h-476v1393h488q307 0 458.5 -190.5t151.5 -497.5q0 -203 -71.5 -362t-212 -251t-338.5 -92z" />
    <glyph glyph-name="E" unicode="E" horiz-adv-x="1071" 
d="M352 129h658l20 -129h-840v1393h760l19 -121h-617v-500h482l18 -121h-500v-522z" />
    <glyph glyph-name="F" unicode="F" horiz-adv-x="985" 
d="M352 1272v-508h461l18 -121h-479v-643h-162v1393h734l20 -121h-592z" />
    <glyph glyph-name="G" unicode="G" horiz-adv-x="1284" 
d="M1022 596h-307l14 121h449l-2 -649q-66 -41 -176.5 -69t-213.5 -28q-209 0 -367.5 94.5t-244.5 257t-86 370.5t94 375t258 260t365 93q76 0 183.5 -21.5t166.5 -58.5l-51 -116q-82 31 -141 44t-179 13t-246 -70.5t-203 -205t-77 -312.5t68.5 -309t188.5 -201.5t256 -70.5
t251 41v442z" />
    <glyph glyph-name="H" unicode="H" horiz-adv-x="1357" 
d="M1006 1393h161v-1393h-161v637h-654v-637h-162v1393l162 10v-635h654v625z" />
    <glyph glyph-name="I" unicode="I" horiz-adv-x="540" 
d="M190 1393h162v-1393h-162v1393z" />
    <glyph glyph-name="J" unicode="J" horiz-adv-x="522" 
d="M193 135v1258h161v-1293q0 -88 -24.5 -144t-82 -94t-163.5 -71l-64 113q76 27 110 51.5t48.5 63t14.5 116.5z" />
    <glyph glyph-name="K" unicode="K" horiz-adv-x="1247" 
d="M352 0h-162v1393h162v-676l672 706l111 -96l-519 -543l611 -784h-195l-522 670l-158 -166v-504z" />
    <glyph glyph-name="L" unicode="L" horiz-adv-x="1036" 
d="M352 1393v-1264h647l17 -129h-826v1393h162z" />
    <glyph glyph-name="M" unicode="M" horiz-adv-x="1562" 
d="M1208 0v1049l-389 -580l-55 -10l-412 594v-1053h-162v1393h97l499 -711l484 711h102v-1393h-164z" />
    <glyph glyph-name="N" unicode="N" horiz-adv-x="1433" 
d="M352 0h-162v1393h129l678 -942l84 -138v1080h164v-1393h-131l-708 1001l-54 93v-1094z" />
    <glyph glyph-name="O" unicode="O" horiz-adv-x="1484" 
d="M258 694q0 -168 61.5 -300t169 -206.5t246.5 -74.5t251 75.5t175.5 211t63.5 303.5t-61.5 300t-169 206.5t-246.5 74.5t-251 -77t-175.5 -211t-63.5 -302zM1399 706.5q0 -206.5 -85 -373.5t-236.5 -263.5t-339.5 -97.5t-335 91.5t-231 256t-84 370.5t85 373t234.5 262
t336.5 98t337 -90t234 -256t84 -370.5z" />
    <glyph glyph-name="P" unicode="P" horiz-adv-x="1150" 
d="M571 1255h-219v-591h203q162 0 260 72.5t103 224.5q0 161 -88.5 227.5t-258.5 66.5zM549 526h-197v-526h-162v1393h379q236 0 375 -103.5t138 -321.5t-150.5 -330t-382.5 -112z" />
    <glyph glyph-name="Q" unicode="Q" horiz-adv-x="1484" 
d="M1225 705q0 166 -61.5 298t-169 206.5t-246.5 74.5t-251 -77t-175.5 -211t-63.5 -302t61.5 -300t169 -207t246.5 -75t250 76l-207 195l113 84l192 -188q142 167 142 426zM88 690q0 207 85 373t234.5 262t336.5 98t337 -90t234 -256t84 -348q0 -350 -203 -561l129 -125
l-96 -84l-131 125q-162 -111 -354 -112t-340 91.5t-232 256t-84 370.5z" />
    <glyph glyph-name="R" unicode="R" horiz-adv-x="1212" 
d="M571 1255h-219v-550h203q359 -1 361 279q2 150 -88.5 210.5t-256.5 60.5zM352 0h-162v1393h379q236 0 375 -98.5t139 -307.5q-2 -135 -67.5 -226t-177.5 -138l354 -623h-178l-320 580q-74 -8 -145 -9h-197v-571z" />
    <glyph glyph-name="S" unicode="S" horiz-adv-x="1050" 
d="M485 111q167 0 253.5 62.5t86.5 162.5q0 133 -117.5 200.5t-279.5 137.5t-251 166t-89 235q0 98 54.5 178t155 126t216.5 46q207 0 375 -86l-55 -125q-76 35 -139 53.5t-175 18.5t-193 -55t-81 -141t40 -138.5t113.5 -95.5t209.5 -105t256 -146.5t120 -266.5
q0 -106 -58.5 -188t-170 -129.5t-232.5 -47.5t-239.5 29t-173.5 66l39 127q168 -84 335 -84z" />
    <glyph glyph-name="T" unicode="T" horiz-adv-x="1153" 
d="M20 1266v127h1094l19 -127h-482v-1266h-164v1266h-467z" />
    <glyph glyph-name="U" unicode="U" horiz-adv-x="1396" 
d="M170 494v899h162v-881q0 -178 100 -288.5t267 -110.5t265.5 110.5t98.5 288.5v881h164v-899q0 -147 -64.5 -266t-184.5 -186t-279.5 -67t-279.5 68t-184.5 184.5t-64.5 266.5z" />
    <glyph glyph-name="V" unicode="V" horiz-adv-x="1247" 
d="M555 0l-535 1382l160 25l455 -1192l434 1178h158l-516 -1393h-156z" />
    <glyph glyph-name="W" unicode="W" horiz-adv-x="1755" 
d="M1198 0l-319 1151l-301 -1151h-156l-402 1382l160 25l322 -1186l301 1172h158l315 -1172l303 1172h156l-381 -1393h-156z" />
    <glyph glyph-name="X" unicode="X" horiz-adv-x="1206" 
d="M981 0l-375 588l-411 -588h-175l500 705l-446 655l135 67l424 -628l379 594h174l-469 -711l440 -682h-176z" />
    <glyph glyph-name="Y" unicode="Y" horiz-adv-x="1153" 
d="M481 0v559l-461 801l152 65l391 -706l395 674h175l-488 -826l-2 -567h-162z" />
    <glyph glyph-name="Z" unicode="Z" horiz-adv-x="1150" 
d="M1104 1266l-879 -1137h846l14 -129h-1022l-16 129l877 1137h-797l-25 127h988z" />
    <glyph glyph-name="bracketleft" unicode="[" horiz-adv-x="606" 
d="M205 -180v1605h381l-23 -120h-205v-1366h205l23 -119h-381z" />
    <glyph glyph-name="backslash" unicode="\" horiz-adv-x="823" 
d="M20 1446l158 8l625 -1454l-156 -8z" />
    <glyph glyph-name="bracketright" unicode="]" horiz-adv-x="604" 
d="M399 1425v-1605h-379l23 119h201v1366h-201l-23 120h379z" />
    <glyph glyph-name="asciicircum" unicode="^" horiz-adv-x="864" 
d="M844 293h-162l-250 369l-250 -369h-162l347 506h131z" />
    <glyph glyph-name="underscore" unicode="_" horiz-adv-x="901" 
d="M80 0l-19 129h760l19 -129h-760z" />
    <glyph glyph-name="grave" unicode="`" horiz-adv-x="329" 
d="M199 1526l110 -289l-108 -31l-181 320h179z" />
    <glyph glyph-name="a" unicode="a" horiz-adv-x="999" 
d="M252 288q0 -77 47 -130.5t133 -53.5q164 0 287 148v225h-262q-97 0 -151 -56t-54 -133zM717 641q0 238 -217 238q-88 0 -150.5 -17.5t-136.5 -50.5l-47 123q53 37 156.5 61.5t193.5 24.5t178 -43t137.5 -119t49.5 -172v-686h-121l-21 100q-55 -51 -137 -89t-160 -38
q-166 0 -253 86.5t-87 226.5t98.5 220t260.5 80h256v55z" />
    <glyph glyph-name="b" unicode="b" 
d="M550 883q-144 0 -239 -92v-592q100 -88 240 -88q139 0 219 106.5t81 278.5t-78 279.5t-223 107.5zM543 1020q221 0 347 -144.5t126 -381.5q0 -152 -58.5 -270t-166 -184.5t-246.5 -66.5t-264 99l-35 -72h-96v1425l161 21v-502q113 76 232 76z" />
    <glyph glyph-name="c" unicode="c" horiz-adv-x="937" 
d="M547 -27q-147 0 -256 66.5t-166 186.5t-57 273t60 270.5t171 184t258 66.5q68 0 165 -25.5t157 -64.5l-50 -115q-82 35 -136 51.5t-140 16.5q-147 0 -233.5 -107.5t-87.5 -277.5t81 -278.5t232 -108.5q90 0 147.5 16t128.5 53l51 -117q-61 -39 -159.5 -64.5t-165.5 -25.5
z" />
    <glyph glyph-name="d" unicode="d" horiz-adv-x="1085" 
d="M534 111q144 0 240 96v588q-98 88 -239 88t-221.5 -105.5t-81.5 -278.5t78.5 -280.5t223.5 -107.5zM527 1020q128 0 247 -76v481l164 19v-1444h-98l-31 76q-128 -103 -268 -103q-221 0 -347 144.5t-126 384.5q0 152 58 269.5t165.5 183t235.5 65.5z" />
    <glyph glyph-name="e" unicode="e" horiz-adv-x="1021" 
d="M524 883q-127 0 -199.5 -81t-86.5 -220h557q-35 301 -271 301zM68 500q0 152 54 269.5t159.5 184t248.5 66.5q218 0 321 -151.5t103 -397.5h-721q6 -168 91.5 -265t261.5 -97q80 0 146.5 20.5t158.5 65.5l51 -119q-184 -103 -354 -103q-254 0 -387 143.5t-133 383.5z" />
    <glyph glyph-name="f" unicode="f" horiz-adv-x="612" 
d="M485 1292q-139 0 -139 -170v-145h182l54 -123h-236v-854h-162v854h-149l-2 123h151v156q0 139 75 222t204 83q84 0 149 -35l-37 -131q-40 20 -90 20z" />
    <glyph glyph-name="g" unicode="g" horiz-adv-x="1077" 
d="M534 111q144 0 240 96v588q-98 88 -239 88t-221.5 -105.5t-81.5 -278.5t78.5 -280.5t223.5 -107.5zM537 1020q138 0 268 -98l35 71h98v-1102q0 -104 -53.5 -186t-155.5 -129t-206 -47t-211 25.5t-169 64.5l50 119q80 -39 141.5 -57.5t169.5 -18.5t189 59.5t81 172.5v157
q-116 -78 -233 -78q-221 0 -347 144.5t-126 384.5q0 152 58 269.5t165.5 183t245.5 65.5z" />
    <glyph glyph-name="h" unicode="h" horiz-adv-x="1103" 
d="M821 651q0 234 -167 234q-85 0 -178 -51.5t-165 -128.5v-705h-161v1425l161 21v-580q72 70 171.5 114t189.5 44q157 0 234 -95t77 -255v-672h-162v649z" />
    <glyph glyph-name="i" unicode="i" horiz-adv-x="419" 
d="M129 993h164v-993h-164v993zM208 1192q-46 0 -77 30.5t-31 78t31 79t77 31.5t78.5 -32.5t32.5 -78t-32.5 -77t-78.5 -31.5z" />
    <glyph glyph-name="j" unicode="j" horiz-adv-x="466" 
d="M154 993h163v-1054q0 -113 -17 -178.5t-71.5 -112.5t-165.5 -84l-63 117q70 25 102.5 55.5t43 75.5t8.5 127v1054zM125 1300.5q0 47.5 31.5 79t77.5 31.5t79 -32.5t33 -78t-33 -77t-79 -31.5t-77.5 30.5t-31.5 78z" />
    <glyph glyph-name="k" unicode="k" horiz-adv-x="966" 
d="M311 0h-161v1425l161 21v-879l451 453l98 -102l-303 -302l410 -616h-191l-327 510l-138 -137v-373z" />
    <glyph glyph-name="l" unicode="l" horiz-adv-x="458" 
d="M311 0h-161v1425l161 21v-1446z" />
    <glyph glyph-name="m" unicode="m" horiz-adv-x="1675" 
d="M770 651q0 234 -152 234q-78 0 -167 -51.5t-160 -128.5v-705h-162v993h121l26 -141q72 74 171.5 123t187.5 49q197 0 266 -172q72 74 170 123t186 49q152 0 225.5 -95t73.5 -255v-672h-161v649q-1 234 -151 234q-76 0 -159.5 -46t-154.5 -118l2 -47v-672h-162v649z" />
    <glyph glyph-name="n" unicode="n" 
d="M801 651q0 234 -167 234q-85 0 -178.5 -51.5t-164.5 -128.5v-705h-162v993h121l26 -141q72 74 176.5 123t198.5 49q158 0 235 -95t77 -255v-672h-162v649z" />
    <glyph glyph-name="o" unicode="o" horiz-adv-x="1097" 
d="M554 883q-148 0 -234.5 -107.5t-87.5 -277.5t81.5 -278.5t230.5 -108.5t234 107.5t87 278.5t-81 278.5t-230 107.5zM540 -27q-146 0 -253 66.5t-163 186.5t-55 273t59 270.5t169 184t258 66.5q223 0 350 -142.5t127 -383.5q0 -152 -60.5 -270t-173 -184.5t-258.5 -66.5z
" />
    <glyph glyph-name="p" unicode="p" horiz-adv-x="1075" 
d="M543 111q139 0 219 106.5t81 278.5t-78 279.5t-223 107.5t-239 -92v-592q101 -88 240 -88zM535 1020q221 0 347 -144.5t126 -381.5q0 -152 -58.5 -270t-166 -184.5t-235.5 -66.5t-245 76v-475l-162 -23v1442h97l34 -69q130 96 263 96z" />
    <glyph glyph-name="q" unicode="q" horiz-adv-x="1077" 
d="M534 111q144 0 240 96v588q-98 88 -239 88t-221.5 -105.5t-81.5 -278.5t78.5 -280.5t223.5 -107.5zM68 502q0 152 58 269.5t165.5 183t245.5 65.5t266 -96l37 69h98v-1421l-164 -21v500q-116 -78 -233 -78q-221 0 -347 144.5t-126 384.5z" />
    <glyph glyph-name="r" unicode="r" horiz-adv-x="663" 
d="M291 0h-162v993h96l51 -159q68 57 162 108t166 51l39 -129q-82 0 -182.5 -54t-169.5 -126v-684z" />
    <glyph glyph-name="s" unicode="s" horiz-adv-x="860" 
d="M389 104q121 0 186.5 39t65.5 109q0 111 -246 192q-143 47 -233 116.5t-90 189.5t99 195t271 75q70 0 163 -24.5t147 -63.5l-52 -111q-68 31 -127 49.5t-143 18.5t-142.5 -40.5t-57.5 -98.5t60.5 -97t170.5 -75q334 -123 334 -316q0 -137 -103.5 -213t-296.5 -76
q-69 0 -165.5 22.5t-151.5 61.5l51 117q139 -70 260 -70z" />
    <glyph glyph-name="t" unicode="t" horiz-adv-x="655" 
d="M340 281q0 -170 141 -170q39 0 90 20l37 -127q-74 -35 -151 -35q-129 0 -204 75t-75 214v596h-143l-2 123h145v254l162 45v-299h180l53 -123h-233v-573z" />
    <glyph glyph-name="u" unicode="u" 
d="M283 344q0 -233 167 -233q85 0 178 51t165 129v704h161v-995h-120l-27 143q-72 -74 -176.5 -123t-198.5 -49q-158 0 -234.5 95.5t-76.5 255.5v671h162v-649z" />
    <glyph glyph-name="v" unicode="v" horiz-adv-x="933" 
d="M750 993h163l-370 -993h-158l-365 965l148 61l297 -807z" />
    <glyph glyph-name="w" unicode="w" horiz-adv-x="1376" 
d="M1192 993h164l-293 -993h-160l-225 756l-211 -756h-158l-289 963l148 61l221 -793l209 762h164l221 -762z" />
    <glyph glyph-name="x" unicode="x" horiz-adv-x="921" 
d="M692 0l-246 383l-243 -383h-183l334 504l-299 457l146 61l268 -422l254 393h178l-342 -516l311 -477h-178z" />
    <glyph glyph-name="y" unicode="y" horiz-adv-x="933" 
d="M259 -257q46 32 69 93l61 170l-369 957l144 61l301 -799l285 768h163l-438 -1198q-35 -92 -118 -157.5t-191 -88.5l-49 117q96 45 142 77z" />
    <glyph glyph-name="z" unicode="z" horiz-adv-x="886" 
d="M131 864l-39 129h744l8 -86l-602 -780h577l21 -127h-777l-20 84l592 780h-504z" />
    <glyph glyph-name="braceleft" unicode="{" horiz-adv-x="557" 
d="M418 414q0 -56 -37 -144t-37 -134t34 -73.5t95 -27.5h49l15 -121h-54q-279 0 -278 227q0 61 36 147q35 86 35 147q0 60 -43 101.5t-98 41.5h-74v106h74q55 0 95 44t40 111.5t-30 149.5q-33 78 -33 146q0 104 70.5 159.5t205.5 55.5h54l-15 -121h-49q-63 0 -96 -27.5
t-33 -72.5t37 -132t37 -159q0 -151 -115 -201q115 -61 115 -223z" />
    <glyph glyph-name="bar" unicode="|" horiz-adv-x="540" 
d="M350 -12l-160 12v1456l160 -12v-1456z" />
    <glyph glyph-name="braceright" unicode="}" horiz-adv-x="555" 
d="M137 852q0 55 37 141q39 85 39 133t-34 75.5t-95 27.5h-49l-15 121h54q279 0 278 -228q0 -61 -37 -146q-37 -86 -37 -146t43.5 -102t98.5 -42h74v-104h-74q-55 0 -95 -45t-40 -113t32.5 -147.5t32.5 -145.5q0 -106 -70.5 -162.5t-205.5 -56.5h-54l15 123h49q63 0 96 28.5
t33 73.5t-38 130t-38 145q0 162 119 215q-119 61 -119 225z" />
    <glyph glyph-name="asciitilde" unicode="~" horiz-adv-x="833" 
d="M279 485q-80 0 -89 -82h-129q0 117 57.5 170.5t152.5 53.5t162 -45t111 -45q91 0 95 86h133q0 -119 -58.5 -172.5t-146.5 -53.5q-89 0 -161 44t-127 44z" />
    <glyph glyph-name="uni00A0" unicode="&#xa0;" horiz-adv-x="483" 
 />
    <glyph glyph-name="exclamdown" unicode="&#xa1;" horiz-adv-x="346" 
d="M82 0l33 1034l118 -55l33 -979h-184zM174 1214q-45 0 -79 34t-34 79t34 78t79 33t78 -33t33 -78t-33 -79t-78 -34z" />
    <glyph glyph-name="cent" unicode="&#xa2;" horiz-adv-x="937" 
d="M641 -229h-143v204q-201 16 -315.5 158.5t-113.5 362.5t115.5 360.5t313.5 161.5v205l141 20v-231q149 -23 240 -82l-50 -115q-82 35 -136 51.5t-140 16.5q-147 0 -233.5 -107.5t-87.5 -277.5t81 -278.5t232 -108.5q90 0 147.5 16t128.5 53l51 -117q-87 -56 -231 -79
v-213z" />
    <glyph glyph-name="sterling" unicode="&#xa3;" horiz-adv-x="921" 
d="M258 301v354h-147l-2 123h149v299q0 150 74 237t205 87q82 0 151 -37l-37 -127q-55 23 -90 23q-139 0 -139 -175v-307h270l56 -123h-326v-280q0 -170 -64 -246h523l20 -129h-772l-14 129q143 0 143 172z" />
    <glyph glyph-name="currency" unicode="&#xa4;" horiz-adv-x="1378" 
d="M1032 493q0 108 -41 194.5t-117.5 136.5t-175 50t-177.5 -49t-125 -134t-46 -189q0 -166 91 -274.5t241 -108.5q98 0 178 48t126 133t46 193zM184 498q0 169 90 299l-213 215l95 114l219 -221q141 113 321 114t314 -110l215 217l92 -114l-207 -213q88 -131 87 -303
t-89 -301l209 -218l-92 -112l-219 221q-141 -113 -322 -112q-182 1 -313 110l-215 -219l-95 112l209 213q-86 139 -86 308z" />
    <glyph glyph-name="yen" unicode="&#xa5;" horiz-adv-x="1153" 
d="M643 154v-154h-162v154h-340l-18 125h358v280l-461 801l152 65l391 -706l395 674h175l-488 -826l-2 -288h369l18 -125h-387z" />
    <glyph glyph-name="brokenbar" unicode="&#xa6;" horiz-adv-x="540" 
d="M350 -12l-160 12v600l160 -10v-602zM350 831l-160 13v612l160 -12v-613z" />
    <glyph glyph-name="section" unicode="&#xa7;" horiz-adv-x="1173" 
d="M946 504q0 78 -41 131t-118 97t-235 113t-243 156q-63 -53 -63 -133t40 -132t114.5 -96t241.5 -120t243 -153q61 59 61 137zM1106 499q0 -156 -139 -257q18 -53 18 -139t-58.5 -169.5t-170.5 -130.5t-232 -47t-239 29t-174 65l39 127q166 -83 334 -83t254.5 62t86.5 165
q0 131 -117.5 198t-279.5 137t-251 167.5t-89 249.5t141 251q-20 55 -20 139t55 164t156.5 126t215.5 46q200 0 376 -86l-56 -127q-70 35 -135 53.5t-179 18.5t-194.5 -55t-80.5 -141t41 -137.5t114.5 -96t242.5 -120.5t255 -164.5t86 -244.5z" />
    <glyph glyph-name="dieresis" unicode="&#xa8;" horiz-adv-x="579" 
d="M281 1456h18q43 0 71.5 -28.5t28.5 -69.5t-28.5 -71t-71.5 -30h-18q-41 0 -70 30t-29 71t30 69.5t69 28.5z" />
    <glyph glyph-name="copyright" unicode="&#xa9;" horiz-adv-x="1636" 
d="M848 215q-213 0 -329 133t-116 350q0 139 54.5 247t157 168.5t241.5 60.5q70 0 158 -23t143 -64l-49 -118q-76 39 -122 53t-132 14q-141 0 -214 -92t-73 -255t66.5 -251t214.5 -88q84 0 131 15.5t121 54.5l49 -117q-57 -41 -145.5 -64.5t-155.5 -23.5zM201 690
q0 -180 75.5 -323.5t216 -225.5t327 -82t327.5 82t217 225.5t76 323.5t-76 323.5t-217 225.5t-327.5 82t-327 -82t-216 -225.5t-75.5 -323.5zM1571 688q0 -207 -93.5 -377t-263.5 -268t-395 -98t-395 98t-263 268t-93 377t92 377t263 269.5t396 99.5t396 -99.5t263.5 -269.5
t92.5 -377z" />
    <glyph glyph-name="ordfeminine" unicode="&#xaa;" horiz-adv-x="677" 
d="M327.5 862q69.5 0 149.5 94v95h-141q-57 0 -96 -26t-39 -67t28.5 -68.5t98 -27.5zM315 1317q-86 0 -176 -45l-28 106q35 25 103 42.5t132 17.5t129.5 -34t101 -91.5t35.5 -122.5v-428h-90l-28 67q-35 -35 -86.5 -60.5t-104.5 -25.5q-104 0 -169.5 59.5t-65.5 151.5
t68.5 145.5t178.5 53.5h160v23q0 63 -37 102t-123 39z" />
    <glyph glyph-name="guillemotleft" unicode="&#xab;" horiz-adv-x="763" 
d="M723 279l-43 -107l-299 285v92l299 285l43 -109l-217 -223zM403 279l-45 -107l-297 285v92l297 285l45 -109l-217 -223z" />
    <glyph glyph-name="logicalnot" unicode="&#xac;" horiz-adv-x="1052" 
d="M846 702h-809l-17 129h955l16 -102v-500l-145 11v462z" />
    <glyph glyph-name="softhyphen" unicode="&#xad;" horiz-adv-x="245" 
 />
    <glyph glyph-name="registered" unicode="&#xae;" horiz-adv-x="1458" 
d="M682 1292h-70v-256h62q94 0 146 27t52 105t-46 101t-144 23zM999 1169q0 -143 -131 -200l193 -346h-141l-170 317q-14 -2 -58 -2h-80v-315h-123v770h226q131 0 207.5 -54.5t76.5 -169.5zM190 1001q0 -158 66 -281.5t187.5 -195t286.5 -71.5t287 71.5t187.5 195.5
t65.5 280t-65.5 281.5t-187.5 195t-287 69.5t-286.5 -69.5t-187.5 -193.5t-66 -282zM1393 998q0 -184 -81 -333t-231.5 -235t-350.5 -86t-350.5 86t-231 235.5t-80.5 332.5t80.5 334t231 237t350.5 86t350.5 -86t231.5 -236.5t81 -334.5z" />
    <glyph glyph-name="macron" unicode="&#xaf;" horiz-adv-x="544" 
d="M20 1296v129h490l14 -129h-504z" />
    <glyph glyph-name="degree" unicode="&#xb0;" horiz-adv-x="491" 
d="M245 1118q48 0 81.5 34t33.5 80t-33.5 78.5t-81.5 32.5t-80 -31.5t-32 -78.5t32 -81t80 -34zM246 1450q92 0 158.5 -63.5t66.5 -154.5t-65.5 -151.5t-158.5 -60.5t-160 60.5t-67 151.5t67 154.5t159 63.5z" />
    <glyph glyph-name="plusminus" unicode="&#xb1;" horiz-adv-x="995" 
d="M80 2l-17 119h857l14 -119h-854zM569 735h349l16 -119h-365v-378l-143 10v368h-346l-19 119h365v359l143 -7v-352z" />
    <glyph glyph-name="twosuperior" unicode="&#xb2;" horiz-adv-x="731" 
d="M329 1460q-101 0 -227 -78l-55 111q157 86 285 86t198 -39t102 -98.5t32 -131.5t-52.5 -150.5t-171.5 -180.5l-209 -178h443l16 -113h-639v109l309 266q82 74 119 133.5t37 119.5t-43 102t-144 42z" />
    <glyph glyph-name="threesuperior" unicode="&#xb3;" horiz-adv-x="733" 
d="M325 1579q153 0 233.5 -71.5t80.5 -165.5t-47 -155t-115 -83q78 -16 129 -84t51 -156t-44 -153.5t-123.5 -103.5t-202.5 -38t-287 86l63 101q61 -35 112.5 -51.5t134.5 -16.5t142.5 45t59.5 131q0 180 -262 180h-37l-16 115h63q117 0 175.5 44.5t58.5 112.5t-46.5 107
t-147.5 39t-220 -78l-57 101q149 94 302 94z" />
    <glyph glyph-name="acute" unicode="&#xb4;" horiz-adv-x="329" 
d="M131 1526h178l-180 -320l-109 31z" />
    <glyph glyph-name="mu" unicode="&#xb5;" horiz-adv-x="1103" 
d="M303 344q0 -233 167 -233q85 0 178 51t165 129v704h162v-993h-121l-27 141q-72 -74 -176 -123t-195 -49t-153 31v-428l-162 -23v1442h162v-649z" />
    <glyph glyph-name="paragraph" unicode="&#xb6;" horiz-adv-x="1714" 
d="M1286 1266h-450v-1266h-162v526h-72q-233 0 -383.5 112t-150.5 330t138 321.5t374 103.5h1069v-127h-201v-1266h-162v1266z" />
    <glyph glyph-name="periodcentered" unicode="&#xb7;" horiz-adv-x="344" 
d="M173 426q-46 0 -79 33t-33 79t33 77.5t79 31.5t78 -32.5t32 -77.5t-32 -78t-78 -33z" />
    <glyph glyph-name="cedilla" unicode="&#xb8;" horiz-adv-x="440" 
d="M180 -338q43 0 76 18.5t33 54.5t-52.5 64.5t-130.5 36.5l74 191h129l-49 -125q66 -12 113 -61.5t47 -104.5q0 -92 -68.5 -140.5t-169.5 -48.5q-37 0 -85 12.5t-77 30.5l39 103q78 -31 121 -31z" />
    <glyph glyph-name="onesuperior" unicode="&#xb9;" horiz-adv-x="538" 
d="M389 1567v-879h-145v727l-164 -84l-60 101l275 135h94z" />
    <glyph glyph-name="ordmasculine" unicode="&#xba;" horiz-adv-x="784" 
d="M394 1315q-75 0 -127 -56.5t-52 -166.5t50 -169t124 -59t126 56t52 168t-49 169.5t-124 57.5zM394 1438q146 0 235.5 -93t89.5 -253t-93.5 -254.5t-238.5 -94.5t-232 92.5t-87 252.5t90 255t236 95z" />
    <glyph glyph-name="guillemotright" unicode="&#xbb;" horiz-adv-x="765" 
d="M362 725l46 109l297 -285v-92l-297 -285l-46 107l218 223zM41 725l47 109l297 -285v-92l-297 -285l-47 107l217 223z" />
    <glyph glyph-name="onequarter" unicode="&#xbc;" horiz-adv-x="1581" 
d="M1235 -41v442l-322 -442h322zM1376 -158v-178h-141v178h-459l-14 117l516 698h98v-698h164l-10 -117h-154zM266 -274h-164l1037 1708h159zM389 1567v-879h-145v727l-164 -84l-60 101l275 135h94z" />
    <glyph glyph-name="onehalf" unicode="&#xbd;" horiz-adv-x="1624" 
d="M1226 666q126 0 195.5 -39t101 -98t31.5 -133t-52 -151t-169 -179l-211 -179h445l16 -112h-639v108l309 267q82 74 119 133t37 119t-42.5 102.5t-116.5 42.5q-136 0 -255 -78l-57 111q162 86 288 86zM236 -274h-164l1036 1708h160zM389 1567v-879h-145v727l-164 -84
l-60 101l275 135h94z" />
    <glyph glyph-name="threequarters" unicode="&#xbe;" horiz-adv-x="1628" 
d="M1280 -41v442l-322 -442h322zM1421 657v-698h166l-12 -117h-154v-178h-141v178h-459l-12 117l514 698h98zM393 -274h-164l1037 1708h159zM325 1579q153 0 233.5 -71.5t80.5 -165.5t-47 -155t-115 -83q78 -16 129 -84t51 -156t-44 -153.5t-123.5 -103.5t-202.5 -38
t-287 86l63 101q61 -35 112.5 -51.5t134.5 -16.5t142.5 45t59.5 131q0 180 -262 180h-37l-16 115h63q104 0 169 41.5t65 111.5t-46.5 110t-147.5 40t-220 -78l-57 101q149 94 302 94z" />
    <glyph glyph-name="questiondown" unicode="&#xbf;" horiz-adv-x="843" 
d="M223 152.5q0 -156.5 236 -156.5q92 0 172 30.5t172 96.5l20 -146q-94 -61 -177 -90.5t-193 -29.5q-197 0 -294.5 92t-97.5 250q0 117 100.5 233.5t264.5 192.5l18 366l119 -49l17 -401q-162 -51 -259.5 -141.5t-97.5 -247zM510 1071q-45 0 -79 34t-34 79t34 78.5t79 33.5
t78 -33.5t33 -79.5t-33 -79t-78 -33z" />
    <glyph glyph-name="Agrave" unicode="&#xc0;" horiz-adv-x="1247" 
d="M612 1180l-243 -654h495zM178 0h-158l517 1393h155l535 -1381l-160 -26l-156 409h-587zM604 1833l111 -289l-109 -31l-180 320h178z" />
    <glyph glyph-name="Aacute" unicode="&#xc1;" horiz-adv-x="1247" 
d="M612 1180l-243 -654h495zM178 0h-158l517 1393h155l535 -1381l-160 -26l-156 409h-587zM610 1833h178l-180 -320l-108 31z" />
    <glyph glyph-name="Acircumflex" unicode="&#xc2;" horiz-adv-x="1247" 
d="M612 1180l-243 -654h495zM178 0h-158l517 1393h155l535 -1381l-160 -26l-156 409h-587zM905 1534l-147 -21l-154 201l-153 -201l-146 21l234 299h129z" />
    <glyph glyph-name="Atilde" unicode="&#xc3;" horiz-adv-x="1247" 
d="M612 1180l-243 -654h495zM178 0h-158l517 1393h155l535 -1381l-160 -26l-156 409h-587zM899 1747q0 -105 -50 -153t-129 -48t-129 46q-51 46 -91 46t-62 -22t-24 -62h-113q0 201 182 201q86 0 132 -45q45 -45 87 -45q79 0 84 82h113z" />
    <glyph glyph-name="Adieresis" unicode="&#xc4;" horiz-adv-x="1247" 
d="M612 1180l-243 -654h495zM178 0h-158l517 1393h155l535 -1381l-160 -26l-156 409h-587zM715 1665q0 -41 -29 -71t-72 -29h-18q-41 -1 -70 29t-28 71q0 41 29 70q30 29 69 28h18q43 1 72 -28t29 -70z" />
    <glyph glyph-name="Aring" unicode="&#xc5;" horiz-adv-x="1247" 
d="M612 1180l-243 -654h495zM178 0h-158l517 1393h155l535 -1381l-160 -26l-156 409h-587zM612 1786q-36 0 -62 -25t-26 -61t26 -62q26 -24 62 -24t61 24t25 62t-24 62t-62 24zM611 1880q79 0 134 -52t55 -128t-54 -126q-56 -50 -135 -50t-135 50t-56 126t56 128t135 52z
" />
    <glyph glyph-name="AE" unicode="&#xc6;" horiz-adv-x="1792" 
d="M911 526v645l-405 -645h405zM911 0v395h-489l-250 -411l-152 26l871 1383h784l19 -121h-619v-500h481l19 -121h-500v-522h660l16 -129h-840z" />
    <glyph glyph-name="Ccedilla" unicode="&#xc7;" horiz-adv-x="1140" 
d="M741 113q159 0 291 61l62 -123q-112 -61 -312 -78l-28 -71q65 -13 112 -62t47 -104q0 -92 -68.5 -140.5t-168.5 -48.5q-37 0 -85 12.5t-77 30.5l39 103q78 -31 121 -31t75.5 18.5t32.5 54.5t-52 64.5t-130 36.5l53 139q-180 18 -308 118t-192.5 255.5t-64.5 351.5
t80 362.5t229.5 262.5t345.5 96q76 0 182.5 -21.5t166.5 -58.5l-52 -116q-82 31 -141 44t-175 13t-227.5 -76t-175 -211t-63.5 -300t55.5 -297t162 -208.5t265.5 -76.5z" />
    <glyph glyph-name="Egrave" unicode="&#xc8;" horiz-adv-x="1071" 
d="M352 129h658l20 -129h-840v1393h760l19 -121h-617v-500h482l18 -121h-500v-522zM578 1833l110 -289l-108 -31l-181 320h179z" />
    <glyph glyph-name="Eacute" unicode="&#xc9;" horiz-adv-x="1071" 
d="M352 129h658l20 -129h-840v1393h760l19 -121h-617v-500h482l18 -121h-500v-522zM586 1833h178l-180 -320l-109 31z" />
    <glyph glyph-name="Ecircumflex" unicode="&#xca;" horiz-adv-x="1071" 
d="M352 129h658l20 -129h-840v1393h760l19 -121h-617v-500h482l18 -121h-500v-522zM879 1534l-148 -21l-153 201l-154 -201l-145 21l233 299h129z" />
    <glyph glyph-name="Edieresis" unicode="&#xcb;" horiz-adv-x="1071" 
d="M352 129h658l20 -129h-840v1393h760l19 -121h-617v-500h482l18 -121h-500v-522zM688 1665q0 -41 -29 -71t-71 -29h-19q-41 -1 -69 29t-29 71q0 41 30 70t68 28h19q42 1 71 -28t29 -70z" />
    <glyph glyph-name="Igrave" unicode="&#xcc;" horiz-adv-x="540" 
d="M190 1393h162v-1393h-162v1393zM264 1833l111 -289l-109 -31l-180 320h178z" />
    <glyph glyph-name="Iacute" unicode="&#xcd;" horiz-adv-x="540" 
d="M190 1393h162v-1393h-162v1393zM272 1833h179l-181 -320l-108 31z" />
    <glyph glyph-name="Icircumflex" unicode="&#xce;" horiz-adv-x="540" 
d="M190 1393h162v-1393h-162v1393zM565 1534l-147 -21l-154 201l-153 -201l-146 21l234 299h129z" />
    <glyph glyph-name="Idieresis" unicode="&#xcf;" horiz-adv-x="540" 
d="M190 1393h162v-1393h-162v1393zM375 1665q0 -41 -29 -71t-72 -29h-18q-41 -1 -70 29t-28 71q0 41 29 70q30 29 69 28h18q43 1 72 -28t29 -70z" />
    <glyph glyph-name="Eth" unicode="&#xd0;" horiz-adv-x="1374" 
d="M1126 702q0 250 -111.5 401.5t-328.5 151.5h-334v-503h207l19 -127h-226v-490h316q137 0 240.5 68.5t160.5 196.5t57 302zM1288 705q0 -203 -71.5 -362t-212 -251t-338.5 -92h-476v625h-131l-18 127h149v641h488q307 0 458.5 -190.5t151.5 -497.5z" />
    <glyph glyph-name="Ntilde" unicode="&#xd1;" horiz-adv-x="1433" 
d="M352 0h-162v1393h129l678 -942l84 -138v1080h164v-1393h-131l-708 1001l-54 93v-1094zM1008 1747q0 -105 -50 -153t-130 -48q-79 0 -129 46t-90 46q-41 0 -63 -22t-24 -62h-112q0 201 182 201q86 0 132 -45t87 -45q78 0 84 82h113z" />
    <glyph glyph-name="Ograve" unicode="&#xd2;" horiz-adv-x="1484" 
d="M748 1284q-138 0 -251 -77q-112 -77 -175 -211q-64 -134 -64 -302t61 -300t169 -207t247 -75t251 76t175 211t63 303t-60 300q-62 132 -170 207t-246 75zM1399 706q0 -206 -85 -373t-237 -263t-339 -98t-335 91q-147 92 -231 256t-84 371t85 373t235 262t336 98t337 -90
q150 -92 234 -256q84 -165 84 -371zM735 1833l111 -289l-109 -31l-180 320h178z" />
    <glyph glyph-name="Oacute" unicode="&#xd3;" horiz-adv-x="1484" 
d="M748 1284q-138 0 -251 -77q-112 -77 -175 -211q-64 -134 -64 -302t61 -300t169 -207t247 -75t251 76t175 211t63 303t-60 300q-62 132 -170 207t-246 75zM1399 706q0 -206 -85 -373t-237 -263t-339 -98t-335 91q-147 92 -231 256t-84 371t85 373t235 262t336 98t337 -90
q150 -92 234 -256q84 -165 84 -371zM743 1833h179l-181 -320l-108 31z" />
    <glyph glyph-name="Ocircumflex" unicode="&#xd4;" horiz-adv-x="1484" 
d="M748 1284q-138 0 -251 -77q-112 -77 -175 -211q-64 -134 -64 -302t61 -300t169 -207t247 -75t251 76t175 211t63 303t-60 300q-62 132 -170 207t-246 75zM1399 706q0 -206 -85 -373t-237 -263t-339 -98t-335 91q-147 92 -231 256t-84 371t85 373t235 262t336 98t337 -90
q150 -92 234 -256q84 -165 84 -371zM1036 1534l-147 -21l-154 201l-153 -201l-146 21l234 299h129z" />
    <glyph glyph-name="Otilde" unicode="&#xd5;" horiz-adv-x="1484" 
d="M748 1284q-138 0 -251 -77q-112 -77 -175 -211q-64 -134 -64 -302t61 -300t169 -207t247 -75t251 76t175 211t63 303t-60 300q-62 132 -170 207t-246 75zM1399 706q0 -206 -85 -373t-237 -263t-339 -98t-335 91q-147 92 -231 256t-84 371t85 373t235 262t336 98t337 -90
q150 -92 234 -256q84 -165 84 -371zM1032 1747q0 -105 -50 -153t-129 -48t-129 46t-90 46t-63 -22t-24 -62h-113q0 201 182 201q86 0 132 -45t88 -45q78 0 84 82h112z" />
    <glyph glyph-name="Odieresis" unicode="&#xd6;" horiz-adv-x="1484" 
d="M748 1284q-138 0 -251 -77q-112 -77 -175 -211q-64 -134 -64 -302t61 -300t169 -207t247 -75t251 76t175 211t63 303t-60 300q-62 132 -170 207t-246 75zM1399 706q0 -206 -85 -373t-237 -263t-339 -98t-335 91q-147 92 -231 256t-84 371t85 373t235 262t336 98t337 -90
q150 -92 234 -256q84 -165 84 -371zM846 1665q0 -41 -29 -71t-72 -29h-18q-41 -1 -70 29t-28 71q0 41 29 70q30 29 69 28h18q43 1 72 -28t29 -70z" />
    <glyph glyph-name="multiply" unicode="&#xd7;" horiz-adv-x="1040" 
d="M782 63l-262 334l-293 -334h-166l381 451l-348 447h166l262 -334l293 334h164l-381 -451l348 -447h-164z" />
    <glyph glyph-name="Oslash" unicode="&#xd8;" horiz-adv-x="1484" 
d="M1225 694q0 317 -187 482l-452 -1039q68 -25 147 -24q141 0 253 75.5t175.5 211.5t63.5 294zM750 1284q-141 0 -253 -77t-175.5 -211t-63.5 -296t52 -287.5t147 -201.5l450 1044q-74 29 -157 29zM1399 706.5q0 -206.5 -85 -373.5t-236.5 -263.5t-339.5 -97.5t-335 91.5
t-231 256t-84 370.5t85 373t234 262t337 98t337.5 -90t233.5 -256t84 -370.5z" />
    <glyph glyph-name="Ugrave" unicode="&#xd9;" horiz-adv-x="1396" 
d="M170 494v899h162v-881q0 -178 100 -289t267 -111t266 111q98 111 98 289v881h164v-899q0 -146 -65 -266q-64 -120 -184 -186t-280 -67q-160 0 -280 68q-120 69 -184 185t-64 266zM688 1833l111 -289l-109 -31l-180 320h178z" />
    <glyph glyph-name="Uacute" unicode="&#xda;" horiz-adv-x="1396" 
d="M170 494v899h162v-881q0 -178 100 -289t267 -111t266 111q98 111 98 289v881h164v-899q0 -146 -65 -266q-64 -120 -184 -186t-280 -67q-160 0 -280 68q-120 69 -184 185t-64 266zM696 1833h178l-180 -320l-108 31z" />
    <glyph glyph-name="Ucircumflex" unicode="&#xdb;" horiz-adv-x="1396" 
d="M170 494v899h162v-881q0 -178 100 -289t267 -111t266 111q98 111 98 289v881h164v-899q0 -146 -65 -266q-64 -120 -184 -186t-280 -67q-160 0 -280 68q-120 69 -184 185t-64 266zM989 1534l-147 -21l-154 201l-153 -201l-146 21l234 299h129z" />
    <glyph glyph-name="Udieresis" unicode="&#xdc;" horiz-adv-x="1396" 
d="M170 494v899h162v-881q0 -178 100 -289t267 -111t266 111q98 111 98 289v881h164v-899q0 -146 -65 -266q-64 -120 -184 -186t-280 -67q-160 0 -280 68q-120 69 -184 185t-64 266zM799 1665q0 -41 -29 -71t-72 -29h-18q-41 -1 -70 29t-28 71q0 41 29 70q30 29 69 28h18
q43 1 72 -28t29 -70z" />
    <glyph glyph-name="Yacute" unicode="&#xdd;" horiz-adv-x="1153" 
d="M481 0v559l-461 801l152 65l391 -706l395 674h175l-488 -826l-2 -567h-162zM561 1833h178l-180 -320l-108 31z" />
    <glyph glyph-name="Thorn" unicode="&#xde;" horiz-adv-x="1150" 
d="M571 1092h-219v-592h203q162 0 260 72.5t103 224.5q0 162 -88.5 228.5t-258.5 66.5zM549 362h-197v-362h-162v1393h162v-164h217q236 0 375 -103.5t138 -321.5t-150.5 -330t-382.5 -112z" />
    <glyph glyph-name="germandbls" unicode="&#xdf;" horiz-adv-x="1177" 
d="M543 786q313 0 313 240q0 117 -73.5 178.5t-197.5 61.5t-199 -81t-75 -216v-969h-161v969q0 205 121 320.5t315 115.5t315 -96.5t121 -276.5q0 -100 -45 -177t-127 -118q113 -43 181.5 -132t68.5 -216q0 -201 -140.5 -295t-375.5 -94h-127v135h125q160 0 256 59.5
t96 193.5t-89 200.5t-243 66.5h-119v131h60z" />
    <glyph glyph-name="agrave" unicode="&#xe0;" horiz-adv-x="999" 
d="M252 288q0 -77 47 -130q47 -54 133 -54q163 -1 287 148v225h-262q-97 0 -151 -56t-54 -133zM717 641q0 236 -217 238q-89 -1 -151 -18t-136 -50l-47 123q52 38 156 62t194 24t178 -43t137 -119t50 -172v-686h-121l-21 100q-55 -51 -137 -89t-160 -38q-166 0 -253 86
q-87 87 -87 227t98 220t261 80h256v55zM492 1526l110 -289l-108 -31l-181 320h179z" />
    <glyph glyph-name="aacute" unicode="&#xe1;" horiz-adv-x="999" 
d="M252 288q0 -77 47 -130q47 -54 133 -54q163 -1 287 148v225h-262q-97 0 -151 -56t-54 -133zM717 641q0 236 -217 238q-89 -1 -151 -18t-136 -50l-47 123q52 38 156 62t194 24t178 -43t137 -119t50 -172v-686h-121l-21 100q-55 -51 -137 -89t-160 -38q-166 0 -253 86
q-87 87 -87 227t98 220t261 80h256v55zM498 1526h178l-180 -320l-109 31z" />
    <glyph glyph-name="acircumflex" unicode="&#xe2;" horiz-adv-x="999" 
d="M252 288q0 -77 47 -130q47 -54 133 -54q163 -1 287 148v225h-262q-97 0 -151 -56t-54 -133zM717 641q0 236 -217 238q-89 -1 -151 -18t-136 -50l-47 123q52 38 156 62t194 24t178 -43t137 -119t50 -172v-686h-121l-21 100q-55 -51 -137 -89t-160 -38q-166 0 -253 86
q-87 87 -87 227t98 220t261 80h256v55zM797 1227l-148 -21l-153 201l-154 -201l-145 21l233 299h129z" />
    <glyph glyph-name="atilde" unicode="&#xe3;" horiz-adv-x="999" 
d="M252 288q0 -77 47 -130q47 -54 133 -54q163 -1 287 148v225h-262q-97 0 -151 -56t-54 -133zM717 641q0 236 -217 238q-89 -1 -151 -18t-136 -50l-47 123q52 38 156 62t194 24t178 -43t137 -119t50 -172v-686h-121l-21 100q-55 -51 -137 -89t-160 -38q-166 0 -253 86
q-87 87 -87 227t98 220t261 80h256v55zM786 1440q0 -106 -50 -154t-129 -47q-79 0 -129 46t-90 46q-40 -1 -62 -23t-25 -61h-113q0 201 183 201q86 0 132 -45t87 -45q78 -1 84 82h112z" />
    <glyph glyph-name="adieresis" unicode="&#xe4;" horiz-adv-x="999" 
d="M252 288q0 -77 47 -130q47 -54 133 -54q163 -1 287 148v225h-262q-97 0 -151 -56t-54 -133zM717 641q0 236 -217 238q-89 -1 -151 -18t-136 -50l-47 123q52 38 156 62t194 24t178 -43t137 -119t50 -172v-686h-121l-21 100q-55 -51 -137 -89t-160 -38q-166 0 -253 86
q-87 87 -87 227t98 220t261 80h256v55zM475 1456h19q42 0 71 -29t29 -69t-29 -71q-29 -30 -71 -30h-19q-41 0 -69 30t-29 71q0 42 30 70t68 28z" />
    <glyph glyph-name="aring" unicode="&#xe5;" horiz-adv-x="999" 
d="M252 288q0 -77 47 -130q47 -54 133 -54q163 -1 287 148v225h-262q-97 0 -151 -56t-54 -133zM717 641q0 236 -217 238q-89 -1 -151 -18t-136 -50l-47 123q52 38 156 62t194 24t178 -43t137 -119t50 -172v-686h-121l-21 100q-55 -51 -137 -89t-160 -38q-166 0 -253 86
q-87 87 -87 227t98 220t261 80h256v55zM588 1393q0 37 -25 61t-61 25q-36 0 -63 -25q-26 -26 -26 -62t26 -61t62 -25q35 0 61 26q26 24 26 61zM501 1573q79 0 134 -52t55 -128t-55 -126t-134 -50t-135 50t-56 126t56 128t135 52z" />
    <glyph glyph-name="ae" unicode="&#xe6;" horiz-adv-x="1669" 
d="M457 477q-96 0 -150.5 -56t-54.5 -133t47 -130.5t153 -53.5t174 44.5t128 121.5q-35 90 -39 207h-258zM1171 885q-127 0 -199.5 -81t-86.5 -220h557q-35 301 -271 301zM422 -27q-146 0 -233 86.5t-87 226.5t98.5 220t260.5 80h256v53q0 111 -52.5 175.5t-152.5 64.5
t-162.5 -17.5t-136.5 -50.5l-47 123q53 37 156.5 61.5t193.5 24.5t175 -42t136 -114q123 158 345 158q223 0 326.5 -151.5t103.5 -397.5h-721q6 -168 91 -266t261 -98q80 0 146.5 21.5t158.5 66.5l51 -119q-184 -103 -354 -103q-283 0 -418 179q-72 -78 -160.5 -129.5
t-234.5 -51.5z" />
    <glyph glyph-name="ccedilla" unicode="&#xe7;" horiz-adv-x="937" 
d="M490 -338q43 0 75.5 18.5t32.5 54.5t-52 64.5t-130 36.5l55 141q-188 27 -295.5 167.5t-107.5 355.5q0 152 60 269.5t171 184t258 66.5q68 0 165 -25.5t157 -64.5l-50 -115q-82 35 -136 51.5t-140 16.5q-147 0 -233.5 -107.5t-87.5 -277.5t81 -278.5t232 -108.5
q90 0 147.5 16t128.5 53l51 -117q-98 -64 -274 -86l-29 -75q66 -12 113 -61.5t47 -104.5q0 -92 -68.5 -140.5t-168.5 -48.5q-37 0 -85.5 12.5t-76.5 30.5l39 103q78 -31 121 -31z" />
    <glyph glyph-name="egrave" unicode="&#xe8;" horiz-adv-x="1021" 
d="M524 883q-126 0 -199 -81t-87 -220h557q-35 301 -271 301zM68 500q0 152 54 270t160 184t248 66q218 0 321 -152t103 -397h-721q5 -168 91 -265t262 -97q80 0 146 20t159 66l51 -119q-184 -103 -354 -103q-254 -1 -387 143t-133 384zM520 1526l111 -289l-109 -31
l-180 320h178z" />
    <glyph glyph-name="eacute" unicode="&#xe9;" horiz-adv-x="1021" 
d="M524 883q-126 0 -199 -81t-87 -220h557q-35 301 -271 301zM68 500q0 152 54 270t160 184t248 66q218 0 321 -152t103 -397h-721q5 -168 91 -265t262 -97q80 0 146 20t159 66l51 -119q-184 -103 -354 -103q-254 -1 -387 143t-133 384zM524 1526h178l-180 -320l-108 31z
" />
    <glyph glyph-name="ecircumflex" unicode="&#xea;" horiz-adv-x="1021" 
d="M524 883q-126 0 -199 -81t-87 -220h557q-35 301 -271 301zM68 500q0 152 54 270t160 184t248 66q218 0 321 -152t103 -397h-721q5 -168 91 -265t262 -97q80 0 146 20t159 66l51 -119q-184 -103 -354 -103q-254 -1 -387 143t-133 384zM823 1227l-147 -21l-154 201
l-153 -201l-146 21l234 299h129z" />
    <glyph glyph-name="edieresis" unicode="&#xeb;" horiz-adv-x="1021" 
d="M524 883q-126 0 -199 -81t-87 -220h557q-35 301 -271 301zM68 500q0 152 54 270t160 184t248 66q218 0 321 -152t103 -397h-721q5 -168 91 -265t262 -97q80 0 146 20t159 66l51 -119q-184 -103 -354 -103q-254 -1 -387 143t-133 384zM504 1456h18q43 0 72 -29t29 -69
t-29 -71q-29 -30 -72 -30h-18q-41 0 -70 30t-28 71q0 42 30 70t68 28z" />
    <glyph glyph-name="igrave" unicode="&#xec;" horiz-adv-x="419" 
d="M129 993h164v-993h-164v993zM203 1526l110 -289l-108 -31l-180 320h178z" />
    <glyph glyph-name="iacute" unicode="&#xed;" horiz-adv-x="419" 
d="M129 993h164v-993h-164v993zM209 1526h178l-180 -320l-109 31z" />
    <glyph glyph-name="icircumflex" unicode="&#xee;" horiz-adv-x="419" 
d="M129 993h164v-993h-164v993zM506 1227l-148 -21l-153 201l-154 -201l-145 21l233 299h129z" />
    <glyph glyph-name="idieresis" unicode="&#xef;" horiz-adv-x="419" 
d="M129 993h164v-993h-164v993zM186 1456h19q42 0 71 -29t29 -69t-29 -71q-29 -30 -71 -30h-19q-42 0 -70 30t-28 71q0 42 30 70t68 28z" />
    <glyph glyph-name="eth" unicode="&#xf0;" horiz-adv-x="1097" 
d="M566 883q-160 0 -246.5 -107.5t-87.5 -277.5t81.5 -278.5t230.5 -108.5t234 107.5t87 266.5t-27 281q-112 117 -272 117zM1032 504q0 -154 -58.5 -273.5t-170 -188.5t-260.5 -69t-256 66.5t-163 186.5t-55 273t59 270.5t169 184t239 66.5t228 -55q-92 172 -277 301
l-254 -129l-61 106l195 96q-72 39 -179 82l48 115q158 -57 274 -127l223 111l60 -101l-168 -86q407 -298 407 -829z" />
    <glyph glyph-name="ntilde" unicode="&#xf1;" 
d="M291 0h-162v993h121l26 -141q72 74 176 123t199 49q158 0 235 -95t77 -255v-672h-162v649q0 233 -167 233q-85 0 -178 -50q-93 -51 -165 -129v-705zM850 1440q0 -106 -50 -154t-129 -47q-79 0 -129 46t-90 46q-40 -1 -64 -23q-22 -22 -23 -61h-113q0 201 182 201
q86 0 132 -45t88 -45q79 -1 83 82h113z" />
    <glyph glyph-name="ograve" unicode="&#xf2;" horiz-adv-x="1097" 
d="M554 883q-148 0 -234 -108q-86 -107 -88 -277q-1 -170 81 -279q83 -109 231 -109t234 108t87 279t-81 279t-230 107zM540 -27q-146 0 -253 67q-107 66 -163 186t-55 273t59 271t169 184t258 66q223 0 350 -142t127 -384q0 -152 -60 -270t-173 -184t-259 -67zM543 1526
l110 -289l-108 -31l-180 320h178z" />
    <glyph glyph-name="oacute" unicode="&#xf3;" horiz-adv-x="1097" 
d="M554 883q-148 0 -234 -108q-86 -107 -88 -277q-1 -170 81 -279q83 -109 231 -109t234 108t87 279t-81 279t-230 107zM540 -27q-146 0 -253 67q-107 66 -163 186t-55 273t59 271t169 184t258 66q223 0 350 -142t127 -384q0 -152 -60 -270t-173 -184t-259 -67zM549 1526
h178l-180 -320l-109 31z" />
    <glyph glyph-name="ocircumflex" unicode="&#xf4;" horiz-adv-x="1097" 
d="M554 883q-148 0 -234 -108q-86 -107 -88 -277q-1 -170 81 -279q83 -109 231 -109t234 108t87 279t-81 279t-230 107zM540 -27q-146 0 -253 67q-107 66 -163 186t-55 273t59 271t169 184t258 66q223 0 350 -142t127 -384q0 -152 -60 -270t-173 -184t-259 -67zM848 1227
l-148 -21l-153 201l-154 -201l-145 21l233 299h129z" />
    <glyph glyph-name="otilde" unicode="&#xf5;" horiz-adv-x="1097" 
d="M554 883q-148 0 -234 -108q-86 -107 -88 -277q-1 -170 81 -279q83 -109 231 -109t234 108t87 279t-81 279t-230 107zM540 -27q-146 0 -253 67q-107 66 -163 186t-55 273t59 271t169 184t258 66q223 0 350 -142t127 -384q0 -152 -60 -270t-173 -184t-259 -67zM838 1440
q0 -106 -50 -154t-130 -47q-79 0 -129 46t-90 46q-41 -1 -63 -23t-24 -61h-112q0 201 182 201q86 0 132 -45t87 -45q78 -1 84 82h113z" />
    <glyph glyph-name="odieresis" unicode="&#xf6;" horiz-adv-x="1097" 
d="M554 883q-148 0 -234 -108q-86 -107 -88 -277q-1 -170 81 -279q83 -109 231 -109t234 108t87 279t-81 279t-230 107zM540 -27q-146 0 -253 67q-107 66 -163 186t-55 273t59 271t169 184t258 66q223 0 350 -142t127 -384q0 -152 -60 -270t-173 -184t-259 -67zM526 1456h19
q42 0 71 -29t29 -69t-29 -71q-29 -30 -71 -30h-19q-42 0 -70 30t-28 71q0 42 30 70t68 28z" />
    <glyph glyph-name="divide" unicode="&#xf7;" horiz-adv-x="1024" 
d="M515 100q-52 0 -89 37t-37 90.5t37 89t89 35.5t89 -36.5t37 -88t-37 -89.5t-89 -38zM80 496l-19 129h885l17 -129h-883zM511 737q-52 0 -89 38t-37 89t37 88t89 37t88 -37t36 -88t-36 -89t-88 -38z" />
    <glyph glyph-name="oslash" unicode="&#xf8;" horiz-adv-x="1112" 
d="M545 111q147 0 233 107.5t87 277.5t-74 272l-338 -645q43 -12 92 -12zM553 883q-147 0 -233.5 -107.5t-87.5 -287.5t100 -291l346 661q-55 25 -125 25zM1032 494q0 -152 -60.5 -270t-173 -184.5t-258.5 -66.5t-253 66.5t-163 186.5t-55 273t59 270.5t169 184t258 66.5
q223 0 350 -142.5t127 -383.5z" />
    <glyph glyph-name="ugrave" unicode="&#xf9;" 
d="M283 344q0 -233 167 -233q85 0 178 51t165 129v704h161v-995h-120l-27 143q-72 -74 -176 -123t-199 -49q-158 -1 -234 95t-77 256v671h162v-649zM522 1526l111 -289l-109 -31l-180 320h178z" />
    <glyph glyph-name="uacute" unicode="&#xfa;" 
d="M283 344q0 -233 167 -233q85 0 178 51t165 129v704h161v-995h-120l-27 143q-72 -74 -176 -123t-199 -49q-158 -1 -234 95t-77 256v671h162v-649zM528 1526h179l-181 -320l-108 31z" />
    <glyph glyph-name="ucircumflex" unicode="&#xfb;" 
d="M283 344q0 -233 167 -233q85 0 178 51t165 129v704h161v-995h-120l-27 143q-72 -74 -176 -123t-199 -49q-158 -1 -234 95t-77 256v671h162v-649zM827 1227l-147 -21l-154 201l-153 -201l-146 21l234 299h129z" />
    <glyph glyph-name="udieresis" unicode="&#xfc;" 
d="M283 344q0 -233 167 -233q85 0 178 51t165 129v704h161v-995h-120l-27 143q-72 -74 -176 -123t-199 -49q-158 -1 -234 95t-77 256v671h162v-649zM506 1456h18q43 0 72 -29t29 -69t-29 -71q-29 -30 -72 -30h-18q-41 0 -70 30t-28 71q0 42 30 70t68 28z" />
    <glyph glyph-name="yacute" unicode="&#xfd;" horiz-adv-x="933" 
d="M259 -257q46 32 69 93l61 170l-369 957l144 61l301 -799l285 768h163l-438 -1198q-35 -91 -118 -157t-191 -89l-49 117q96 45 142 77zM455 1526h178l-180 -320l-109 31z" />
    <glyph glyph-name="thorn" unicode="&#xfe;" horiz-adv-x="1075" 
d="M543 883q-143 0 -240 -95v-591q103 -86 241 -86t218 106.5t81 278.5t-78 279.5t-222 107.5zM535 1020q221 0 347 -144.5t126 -381.5q0 -152 -58.5 -270t-166 -184.5t-235.5 -66.5t-245 78v-477l-162 -23v1874l162 21v-504q116 78 232 78z" />
    <glyph glyph-name="ydieresis" unicode="&#xff;" horiz-adv-x="933" 
d="M259 -257q46 32 69 93l61 170l-369 957l144 61l301 -799l285 768h163l-438 -1198q-35 -91 -118 -157t-191 -89l-49 117q96 45 142 77zM434 1456h19q42 0 71 -29t29 -69t-29 -71q-29 -30 -71 -30h-19q-42 0 -70 30t-28 71q0 42 30 70t68 28z" />
    <glyph glyph-name="Amacron" unicode="&#x100;" horiz-adv-x="1247" 
d="M612 1180l-243 -654h495zM178 0h-158l517 1393h155l535 -1381l-160 -26l-156 409h-587zM352 1604v129h488l16 -129h-504z" />
    <glyph glyph-name="amacron" unicode="&#x101;" horiz-adv-x="999" 
d="M252 288q0 -77 47 -130q47 -54 133 -54q163 -1 287 148v225h-262q-97 0 -151 -56t-54 -133zM717 641q0 236 -217 238q-89 -1 -151 -18t-136 -50l-47 123q52 38 156 62t194 24t178 -43t137 -119t50 -172v-686h-121l-21 100q-55 -51 -137 -89t-160 -38q-166 0 -253 86
q-87 87 -87 227t98 220t261 80h256v55zM236 1296v129h489l14 -129h-503z" />
    <glyph glyph-name="Abreve" unicode="&#x102;" horiz-adv-x="1247" 
d="M612 1180l-243 -654h495zM178 0h-158l517 1393h155l535 -1381l-160 -26l-156 409h-587zM772 1817h117q0 -121 -70 -202t-206 -81q-135 0 -205 81t-70 202h117q0 -63 42 -113q41 -50 115 -51q74 0 117 50t43 114z" />
    <glyph glyph-name="abreve" unicode="&#x103;" horiz-adv-x="999" 
d="M252 288q0 -77 47 -130q47 -54 133 -54q163 -1 287 148v225h-262q-97 0 -151 -56t-54 -133zM717 641q0 236 -217 238q-89 -1 -151 -18t-136 -50l-47 123q52 38 156 62t194 24t178 -43t137 -119t50 -172v-686h-121l-21 100q-55 -51 -137 -89t-160 -38q-166 0 -253 86
q-87 87 -87 227t98 220t261 80h256v55zM653 1509h117q0 -121 -70 -201t-206 -81q-136 0 -205 81q-70 81 -70 201h117q0 -63 42 -113t116 -50t116 50q43 50 43 113z" />
    <glyph glyph-name="Aogonek" unicode="&#x104;" horiz-adv-x="1247" 
d="M612 1180l-243 -654h495zM1108 -230.5q0 -72.5 101 -72.5q48 0 100 41l53 -100q-68 -62 -170 -62t-163.5 57.5t-61.5 147.5q0 49 27.5 107.5t70.5 101.5l-154 405h-587l-146 -395h-158l517 1393h155l535 -1381l-41 -6l43 -2q-49 -35 -85 -98.5t-36 -136z" />
    <glyph glyph-name="aogonek" unicode="&#x105;" horiz-adv-x="999" 
d="M457 477q-96 0 -150.5 -56t-54.5 -133t47 -130.5t133 -53.5q164 0 287 148v225h-262zM788 -230.5q0 -72.5 102 -72.5q48 0 99 41l53 -100q-68 -62 -170 -62t-163.5 57.5t-61.5 147.5q0 51 33 115.5t80 107.5l-21 96q-55 -51 -137 -89t-160 -38q-166 0 -253 86.5
t-87 226.5t98.5 220t260.5 80h256v55q0 238 -217 238q-88 0 -150.5 -17.5t-136.5 -50.5l-47 123q53 37 156.5 61.5t193.5 24.5t178 -43t137.5 -119t49.5 -172v-682h28q-49 -35 -85 -98.5t-36 -136z" />
    <glyph glyph-name="Cacute" unicode="&#x106;" horiz-adv-x="1140" 
d="M731 -29q-205 1 -350 97t-219 260t-74 366t80 368q80 167 229 263q150 96 346 96q77 1 183 -21t166 -59l-52 -116q-82 31 -141 44t-175 13t-228 -76t-174 -211q-64 -135 -64 -300t55 -297t161 -209t266 -77q159 0 292 62l62 -123q-62 -33 -168 -57t-195 -23zM741 1833
h179l-181 -320l-108 31z" />
    <glyph glyph-name="cacute" unicode="&#x107;" horiz-adv-x="937" 
d="M547 -27q-147 0 -256 67q-109 66 -166 186t-57 273t60 271t171 184t258 66q68 0 165 -26t157 -64l-50 -115q-82 35 -136 51t-140 17q-147 0 -233 -108q-86 -107 -88 -277q-1 -170 81 -279t232 -108q90 0 147 16t129 53l51 -117q-61 -39 -159 -65t-166 -25zM522 1526h178
l-180 -320l-108 31z" />
    <glyph glyph-name="Ccaron" unicode="&#x10c;" horiz-adv-x="1140" 
d="M731 -29q-205 1 -350 97t-219 260t-74 366t80 368q80 167 229 263q150 96 346 96q77 1 183 -21t166 -59l-52 -116q-82 31 -141 44t-175 13t-228 -76t-174 -211q-64 -135 -64 -300t55 -297t161 -209t266 -77q159 0 292 62l62 -123q-62 -33 -168 -57t-195 -23zM444 1812
l148 21l153 -201l154 201l145 -21l-233 -299h-129z" />
    <glyph glyph-name="ccaron" unicode="&#x10d;" horiz-adv-x="937" 
d="M547 -27q-147 0 -256 67q-109 66 -166 186t-57 273t60 271t171 184t258 66q68 0 165 -26t157 -64l-50 -115q-82 35 -136 51t-140 17q-147 0 -233 -108q-86 -107 -88 -277q-1 -170 81 -279t232 -108q90 0 147 16t129 53l51 -117q-61 -39 -159 -65t-166 -25zM229 1505
l148 21l153 -201l154 201l145 -21l-233 -299h-129z" />
    <glyph glyph-name="Dcaron" unicode="&#x10e;" horiz-adv-x="1374" 
d="M352 1255v-1120h316q137 0 240 69q102 68 160 196t58 302q1 250 -111 402t-329 151h-334zM666 0h-476v1393h488q307 -1 459 -191t151 -497q0 -203 -72 -362t-211 -251q-140 -92 -339 -92zM358 1812l148 21l153 -201l154 201l145 -21l-233 -299h-129z" />
    <glyph glyph-name="dcaron" unicode="&#x10f;" horiz-adv-x="1386" 
d="M534 111q144 0 240 96v588q-98 88 -239 88t-221.5 -105.5t-81.5 -278.5t78.5 -280.5t223.5 -107.5zM527 1020q128 0 247 -76v481l164 19v-1444h-98l-31 76q-128 -103 -268 -103q-221 0 -347 144.5t-126 384.5q0 152 58 269.5t165.5 183t235.5 65.5zM1325 1308
q0 -78 -61.5 -175t-147.5 -142l-43 76q55 39 85 78t36 92q-39 2 -66.5 36t-27.5 76t33.5 75.5t78.5 33.5t79 -36t34 -114z" />
    <glyph glyph-name="Dcroat" unicode="&#x110;" horiz-adv-x="1374" 
d="M1126 702q0 250 -111.5 401.5t-328.5 151.5h-334v-503h207l19 -127h-226v-490h316q137 0 240.5 68.5t160.5 196.5t57 302zM1288 705q0 -203 -71.5 -362t-212 -251t-338.5 -92h-476v625h-131l-18 127h149v641h488q307 0 458.5 -190.5t151.5 -497.5z" />
    <glyph glyph-name="dcroat" unicode="&#x111;" horiz-adv-x="1085" 
d="M534 111q144 0 240 96v588q-98 88 -239 88t-221.5 -105.5t-81.5 -278.5t78.5 -280.5t223.5 -107.5zM527 1020q128 0 247 -76v205h-190l-19 117h209v159l164 19v-178h143l17 -117h-160v-1149h-98l-31 76q-128 -103 -268 -103q-221 0 -347 144.5t-126 384.5q0 152 58 269.5
t165.5 183t235.5 65.5z" />
    <glyph glyph-name="Emacron" unicode="&#x112;" horiz-adv-x="1071" 
d="M352 129h658l20 -129h-840v1393h760l19 -121h-617v-500h482l18 -121h-500v-522zM328 1604v129h487l16 -129h-503z" />
    <glyph glyph-name="emacron" unicode="&#x113;" horiz-adv-x="1021" 
d="M524 883q-126 0 -199 -81t-87 -220h557q-35 301 -271 301zM68 500q0 152 54 270t160 184t248 66q218 0 321 -152t103 -397h-721q5 -168 91 -265t262 -97q80 0 146 20t159 66l51 -119q-184 -103 -354 -103q-254 -1 -387 143t-133 384zM262 1296v129h490l14 -129h-504z" />
    <glyph glyph-name="Edotaccent" unicode="&#x116;" horiz-adv-x="1071" 
d="M352 129h658l20 -129h-840v1393h760l19 -121h-617v-500h482l18 -121h-500v-522zM473 1671q0 45 34 79t79 34t77 -34t32 -79t-32 -78t-78 -33t-79 34q-33 32 -33 77z" />
    <glyph glyph-name="edotaccent" unicode="&#x117;" horiz-adv-x="1021" 
d="M524 883q-126 0 -199 -81t-87 -220h557q-35 301 -271 301zM68 500q0 152 54 270t160 184t248 66q218 0 321 -152t103 -397h-721q5 -168 91 -265t262 -97q80 0 146 20t159 66l51 -119q-184 -103 -354 -103q-254 -1 -387 143t-133 384zM527 1253q-47 0 -79 33t-32 78t34 79
t78 34t77 -34q32 -34 32 -79t-32 -78t-78 -33z" />
    <glyph glyph-name="Eogonek" unicode="&#x118;" horiz-adv-x="1071" 
d="M782 -230.5q0 -72.5 102 -72.5q48 0 99 41l53 -100q-68 -62 -170 -62t-163.5 57.5t-61.5 147.5q0 51 30.5 113.5t78.5 105.5h-560v1393h760l19 -121h-617v-500h482l18 -121h-500v-522h658l20 -129h-133q-47 -37 -81 -97.5t-34 -133z" />
    <glyph glyph-name="eogonek" unicode="&#x119;" horiz-adv-x="1021" 
d="M524 883q-127 0 -199.5 -81t-86.5 -220h557q-35 301 -271 301zM651 -208q-1 -95 101 -95q48 0 100 41l53 -100q-68 -62 -170 -62t-163.5 57.5t-61.5 148.5t82 191h-4q-254 0 -387 143.5t-133 383.5q0 152 54 269.5t159.5 184t248.5 66.5q217 0 320.5 -151.5t103.5 -397.5
h-721q6 -168 91.5 -265t261.5 -97q80 0 146.5 20.5t158.5 65.5l51 -119q-94 -53 -178 -78q-45 -37 -79 -97.5t-34 -108.5z" />
    <glyph glyph-name="Ecaron" unicode="&#x11a;" horiz-adv-x="1071" 
d="M352 129h658l20 -129h-840v1393h760l19 -121h-617v-500h482l18 -121h-500v-522zM287 1812l147 21l154 -201l153 201l146 -21l-234 -299h-129z" />
    <glyph glyph-name="ecaron" unicode="&#x11b;" horiz-adv-x="1021" 
d="M524 883q-126 0 -199 -81t-87 -220h557q-35 301 -271 301zM68 500q0 152 54 270t160 184t248 66q218 0 321 -152t103 -397h-721q5 -168 91 -265t262 -97q80 0 146 20t159 66l51 -119q-184 -103 -354 -103q-254 -1 -387 143t-133 384zM231 1505l148 21l153 -201l154 201
l145 -21l-233 -299h-129z" />
    <glyph glyph-name="Gbreve" unicode="&#x11e;" horiz-adv-x="1284" 
d="M1022 596h-307l14 121h449l-2 -649q-66 -41 -177 -69t-213 -28q-210 1 -368 95t-244 257t-86 371t94 374q94 167 258 260t365 93q75 1 183 -21t167 -59l-51 -116q-82 31 -141 44t-179 13t-246 -71t-203 -205t-77 -312t69 -309t189 -202t255 -71q136 0 251 42v442z
M913 1817h117q0 -121 -70 -202t-205 -81q-136 0 -206 81t-70 202h117q0 -63 42 -113t116 -51q74 0 116 50q43 50 43 114z" />
    <glyph glyph-name="gbreve" unicode="&#x11f;" horiz-adv-x="1077" 
d="M535 883q-141 1 -221 -105t-82 -279q-1 -173 78 -281t223 -108t241 97v588q-98 88 -239 88zM68 502q0 152 58 270t166 182q108 66 245 66t268 -98l35 71h98v-1102q0 -104 -53 -186t-155 -129t-207 -47q-103 0 -211 26t-169 64l50 119q80 -39 142 -57q61 -19 169 -19
t189 59t81 173v157q-113 -76 -233 -78q-221 1 -347 145t-126 384zM682 1509h117q0 -121 -70 -201t-206 -81q-136 0 -206 81t-69 201h117q0 -63 42 -113q41 -50 115 -50t117 50t43 113z" />
    <glyph glyph-name="Gcommaaccent" unicode="&#x122;" horiz-adv-x="1284" 
d="M1022 596h-307l14 121h449l-2 -649q-66 -41 -177 -69t-213 -28q-210 1 -368 95t-244 257t-86 371t94 374q94 167 258 260t365 93q75 1 183 -21t167 -59l-51 -116q-82 31 -141 44t-179 13t-246 -71t-203 -205t-77 -312t69 -309t189 -202t255 -71q136 0 251 42v442z
M790 -43q46 0 78 -36q33 -37 33 -113t-58 -167t-143 -133l-43 78q106 66 115 150q-38 2 -66 35t-28 75t33 77q33 34 79 34z" />
    <glyph glyph-name="gcommaaccent" unicode="&#x123;" horiz-adv-x="1077" 
d="M534 111q144 0 240 96v588q-98 88 -239 88t-221.5 -105.5t-81.5 -278.5t78.5 -280.5t223.5 -107.5zM537 1020q138 0 268 -98l35 71h98v-1102q0 -104 -53.5 -186t-155.5 -129t-206 -47t-211 25.5t-169 64.5l50 119q80 -39 141.5 -57.5t169.5 -18.5t189 59.5t81 172.5v157
q-116 -78 -233 -78q-221 0 -347 144.5t-126 384.5q0 152 58 269.5t165.5 183t245.5 65.5zM428 1296q0 78 57.5 167t141.5 132l43 -77q-104 -63 -115 -150q37 -4 65.5 -37t28.5 -75t-32.5 -75.5t-78.5 -33.5t-78 35.5t-32 113.5z" />
    <glyph glyph-name="Imacron" unicode="&#x12a;" horiz-adv-x="540" 
d="M190 1393h162v-1393h-162v1393zM12 1604v129h488l16 -129h-504z" />
    <glyph glyph-name="imacron" unicode="&#x12b;" horiz-adv-x="419" 
d="M129 993h164v-993h-164v993zM-55 1296v129h489l15 -129h-504z" />
    <glyph glyph-name="Iogonek" unicode="&#x12e;" horiz-adv-x="540" 
d="M236 -230.5q0 -72.5 101 -72.5q48 0 99 41l53 -100q-67 -62 -169 -62t-164 57.5t-62 147.5q0 51 31 113.5t78 105.5h-13v1393h162v-1389h4l-4 -4h-2q-47 -37 -80.5 -97.5t-33.5 -133z" />
    <glyph glyph-name="iogonek" unicode="&#x12f;" horiz-adv-x="419" 
d="M162 -230.5q0 -72.5 101 -72.5q48 0 99 41l54 -100q-68 -62 -170 -62t-164 57.5t-62 147.5q0 51 31 113.5t78 105.5v993h164v-993h-17q-47 -37 -80.5 -97.5t-33.5 -133zM98 1364q0 45 34 79t79 34t76.5 -34t31.5 -79t-31.5 -78t-77.5 -33t-79 33t-33 78z" />
    <glyph glyph-name="Idotaccent" unicode="&#x130;" horiz-adv-x="540" 
d="M190 1393h162v-1393h-162v1393zM160 1671q0 45 34 79t78 34t77 -34q32 -34 32 -79t-32 -78t-78 -33q-47 0 -79 34q-32 32 -32 77z" />
    <glyph glyph-name="dotlessi" unicode="&#x131;" horiz-adv-x="419" 
d="M129 993h164v-993h-164v993z" />
    <glyph glyph-name="Kcommaaccent" unicode="&#x136;" horiz-adv-x="1247" 
d="M352 0h-162v1393h162v-676l672 706l111 -96l-519 -543l611 -784h-195l-522 670l-158 -166v-504zM695 -43q46 0 79 -36q33 -37 33 -113t-58 -167t-143 -133l-43 78q106 66 115 150q-39 2 -67 35t-28 75t33 77q33 34 79 34z" />
    <glyph glyph-name="kcommaaccent" unicode="&#x137;" horiz-adv-x="966" 
d="M311 0h-161v1425l161 21v-879l451 453l98 -102l-303 -302l410 -616h-191l-327 510l-138 -137v-373zM542 -43q46 0 79 -36t32 -93q0 -96 -58 -187t-142 -133l-43 78q106 66 114 150q-38 2 -66 35t-28 75t33 77q33 34 79 34z" />
    <glyph glyph-name="Lacute" unicode="&#x139;" horiz-adv-x="1036" 
d="M352 1393v-1264h647l17 -129h-826v1393h162zM416 1833h178l-180 -320l-109 31z" />
    <glyph glyph-name="lacute" unicode="&#x13a;" horiz-adv-x="458" 
d="M311 0h-161v1378l161 25v-1403zM287 1833h176l-178 -320l-109 31z" />
    <glyph glyph-name="Lcommaaccent" unicode="&#x13b;" horiz-adv-x="1036" 
d="M352 1393v-1264h647l17 -129h-826v1393h162zM708 -43q46 0 78 -36q32 -37 33 -113q0 -76 -58 -167t-143 -133l-43 78q106 66 115 150q-38 2 -66 35t-28 75t33 77q33 34 79 34z" />
    <glyph glyph-name="lcommaaccent" unicode="&#x13c;" horiz-adv-x="458" 
d="M311 0h-161v1425l161 21v-1446zM234 -43q46 0 79 -36q33 -37 33 -113t-58 -167t-143 -133l-43 78q106 66 115 150q-39 2 -67 35t-27 75q0 42 33 77q32 34 78 34z" />
    <glyph glyph-name="Lcaron" unicode="&#x13d;" horiz-adv-x="1036" 
d="M352 1393v-1264h647l17 -129h-826v1393h162zM813 1458q45 0 79 -36t34 -114t-62 -174q-62 -97 -147 -143l-43 76q55 39 85 78t36 92q-39 2 -67 36q-28 33 -28 75t34 76t79 34z" />
    <glyph glyph-name="lcaron" unicode="&#x13e;" horiz-adv-x="759" 
d="M311 0h-161v1425l161 21v-1446zM586 1458q45 0 78.5 -36t33.5 -114t-61.5 -175t-147.5 -142l-43 76q55 39 85 78t36 92q-39 2 -66.5 36t-27.5 76t34 75.5t79 33.5z" />
    <glyph glyph-name="Lslash" unicode="&#x141;" horiz-adv-x="1026" 
d="M180 1393h162v-600l233 196l72 -104l-305 -258v-498h647l17 -129h-826v492l-78 -66l-71 106l149 125v736z" />
    <glyph glyph-name="lslash" unicode="&#x142;" horiz-adv-x="612" 
d="M389 0h-162v602l-155 -133l-72 106l227 191v659l162 21v-547l154 133l69 -104l-223 -193v-735z" />
    <glyph glyph-name="Nacute" unicode="&#x143;" horiz-adv-x="1433" 
d="M352 0h-162v1393h129l678 -942l84 -138v1080h164v-1393h-131l-708 1001l-54 93v-1094zM719 1833h178l-180 -320l-109 31z" />
    <glyph glyph-name="nacute" unicode="&#x144;" 
d="M291 0h-162v993h121l26 -141q72 74 176 123t199 49q158 0 235 -95t77 -255v-672h-162v649q0 233 -167 233q-85 0 -178 -50q-93 -51 -165 -129v-705zM561 1526h178l-180 -320l-108 31z" />
    <glyph glyph-name="Ncommaaccent" unicode="&#x145;" horiz-adv-x="1433" 
d="M352 0h-162v1393h129l678 -942l84 -138v1080h164v-1393h-131l-708 1001l-54 93v-1094zM734 -43q46 0 79 -36q33 -37 33 -113t-58 -167t-143 -133l-43 78q106 66 115 150q-39 2 -67 35t-28 75t33 77q33 34 79 34z" />
    <glyph glyph-name="ncommaaccent" unicode="&#x146;" 
d="M291 0h-162v993h121l26 -141q72 74 176 123t199 49q158 0 235 -95t77 -255v-672h-162v649q0 233 -167 233q-85 0 -178 -50q-93 -51 -165 -129v-705zM564 -43q46 0 79 -36q33 -37 33 -113t-58 -167t-143 -133l-43 78q106 66 115 150q-39 2 -67 35t-28 75t33 77
q33 34 79 34z" />
    <glyph glyph-name="Ncaron" unicode="&#x147;" horiz-adv-x="1433" 
d="M352 0h-162v1393h129l678 -942l84 -138v1080h164v-1393h-131l-708 1001l-54 93v-1094zM420 1812l147 21l154 -201l153 201l146 -21l-234 -299h-129z" />
    <glyph glyph-name="ncaron" unicode="&#x148;" 
d="M291 0h-162v993h121l26 -141q72 74 176 123t199 49q158 0 235 -95t77 -255v-672h-162v649q0 233 -167 233q-85 0 -178 -50q-93 -51 -165 -129v-705zM268 1505l148 21l153 -201l154 201l145 -21l-233 -299h-129z" />
    <glyph glyph-name="Omacron" unicode="&#x14c;" horiz-adv-x="1484" 
d="M748 1284q-138 0 -251 -77q-112 -77 -175 -211q-64 -134 -64 -302t61 -300t169 -207t247 -75t251 76t175 211t63 303t-60 300q-62 132 -170 207t-246 75zM1399 706q0 -206 -85 -373t-237 -263t-339 -98t-335 91q-147 92 -231 256t-84 371t85 373t235 262t336 98t337 -90
q150 -92 234 -256q84 -165 84 -371zM485 1604v129h488l16 -129h-504z" />
    <glyph glyph-name="omacron" unicode="&#x14d;" horiz-adv-x="1097" 
d="M554 883q-148 0 -234 -108q-86 -107 -88 -277q-1 -170 81 -279q83 -109 231 -109t234 108t87 279t-81 279t-230 107zM540 -27q-146 0 -253 67q-107 66 -163 186t-55 273t59 271t169 184t258 66q223 0 350 -142t127 -384q0 -152 -60 -270t-173 -184t-259 -67zM287 1296
v129h489l15 -129h-504z" />
    <glyph glyph-name="Ohungarumlaut" unicode="&#x150;" horiz-adv-x="1484" 
d="M748 1284q-138 0 -251 -77q-112 -77 -175 -211q-64 -134 -64 -302t61 -300t169 -207t247 -75t251 76t175 211t63 303t-60 300q-62 132 -170 207t-246 75zM1399 706q0 -206 -85 -373t-237 -263t-339 -98t-335 91q-147 92 -231 256t-84 371t85 373t235 262t336 98t337 -90
q150 -92 234 -256q84 -165 84 -371zM928 1833h178l-180 -320l-109 31zM614 1833h179l-181 -320l-108 31z" />
    <glyph glyph-name="ohungarumlaut" unicode="&#x151;" horiz-adv-x="1097" 
d="M554 883q-148 0 -234 -108q-86 -107 -88 -277q-1 -170 81 -279q83 -109 231 -109t234 108t87 279t-81 279t-230 107zM540 -27q-146 0 -253 67q-107 66 -163 186t-55 273t59 271t169 184t258 66q223 0 350 -142t127 -384q0 -152 -60 -270t-173 -184t-259 -67zM735 1526
h178l-180 -320l-108 31zM422 1526h178l-180 -320l-109 31z" />
    <glyph glyph-name="OE" unicode="&#x152;" horiz-adv-x="1908" 
d="M739 113q157 0 289 59v1057q-74 29 -133 41t-173 12t-225.5 -76t-175 -211t-63.5 -300t55.5 -297t162 -208.5t263.5 -76.5zM88 694q0 202 80 368.5t229.5 262.5t320.5 96t310 -49v21h760l18 -121h-616v-500h481l19 -121h-500v-522h657l21 -129h-840v23q-149 -52 -297 -52
q-205 0 -350 96.5t-219 260.5t-74 366z" />
    <glyph glyph-name="oe" unicode="&#x153;" horiz-adv-x="1626" 
d="M1128 883q-127 0 -199.5 -81t-86.5 -220h557q-35 301 -271 301zM672 498q0 207 96 344q-104 41 -215 41q-147 0 -233.5 -107.5t-87.5 -277.5t81 -278.5t222 -108.5t235 45q-98 135 -98 342zM547 -27q-147 0 -256 66.5t-166 186.5t-57 273t60 270.5t171 184t258 66.5
q63 0 154.5 -22.5t152.5 -59.5q111 82 271 82q217 0 320.5 -151.5t103.5 -397.5h-721q6 -168 91 -265t261 -97q80 0 146.5 20.5t158.5 65.5l51 -119q-184 -103 -369 -103q-184 0 -309 88q-61 -37 -158.5 -62.5t-162.5 -25.5z" />
    <glyph glyph-name="Racute" unicode="&#x154;" horiz-adv-x="1212" 
d="M555 705q357 0 363 276q-1 154 -91 214t-256 60h-219v-550h203zM352 0h-162v1393h379q236 -1 375 -99t139 -307q-1 -135 -67 -226t-178 -138l354 -623h-178l-320 580q-74 -8 -145 -9h-197v-571zM569 1833h179l-181 -320l-108 31z" />
    <glyph glyph-name="racute" unicode="&#x155;" horiz-adv-x="663" 
d="M291 0h-162v993h96l51 -159q68 57 162 108t166 51l39 -129q-82 0 -182 -54t-170 -126v-684zM332 1526h178l-180 -320l-109 31z" />
    <glyph glyph-name="Rcommaaccent" unicode="&#x156;" horiz-adv-x="1212" 
d="M555 705q357 0 363 276q-1 154 -91 214t-256 60h-219v-550h203zM352 0h-162v1393h379q236 -1 375 -99t139 -307q-1 -135 -67 -226t-178 -138l354 -623h-178l-320 580q-74 -8 -145 -9h-197v-571zM671 -43q46 0 79 -36t32 -93q0 -96 -58 -187t-142 -133l-43 78
q106 66 114 150q-39 2 -67 35t-27 75q0 42 33 77q33 34 79 34z" />
    <glyph glyph-name="rcommaaccent" unicode="&#x157;" horiz-adv-x="663" 
d="M291 0h-162v993h96l51 -159q68 57 162 108t166 51l39 -129q-82 0 -182 -54t-170 -126v-684zM216 -43q46 0 79 -36q33 -37 33 -113t-58 -167t-143 -133l-43 78q106 66 115 150q-39 2 -67 35t-28 75t33 77q33 34 79 34z" />
    <glyph glyph-name="Rcaron" unicode="&#x158;" horiz-adv-x="1212" 
d="M555 705q357 0 363 276q-1 154 -91 214t-256 60h-219v-550h203zM352 0h-162v1393h379q236 -1 375 -99t139 -307q-1 -135 -67 -226t-178 -138l354 -623h-178l-320 580q-74 -8 -145 -9h-197v-571zM272 1812l148 21l153 -201l154 201l145 -21l-233 -299h-129z" />
    <glyph glyph-name="rcaron" unicode="&#x159;" horiz-adv-x="663" 
d="M291 0h-162v993h96l51 -159q68 57 162 108t166 51l39 -129q-82 0 -182 -54t-170 -126v-684zM39 1505l147 21l154 -201l154 201l145 -21l-233 -299h-130z" />
    <glyph glyph-name="Sacute" unicode="&#x15a;" horiz-adv-x="1050" 
d="M825 336q0 133 -158 224q-77 44 -239 114t-251 166t-89 235q0 98 54 178t156 126t216 46q207 0 375 -86l-55 -125q-76 36 -138 54t-176 18q-112 0 -193 -55t-81 -141t40 -139q40 -52 114 -95t209 -105q136 -61 215 -117q161 -113 161 -296q0 -106 -58 -188t-170 -130
q-113 -48 -233 -47q-120 0 -239 29t-174 66l39 127q172 -86 337 -85t251 63t87 163zM530 1833h179l-181 -320l-108 31z" />
    <glyph glyph-name="sacute" unicode="&#x15b;" horiz-adv-x="860" 
d="M389 104q121 0 187 39t65 109q0 111 -246 192q-143 47 -233 117q-90 69 -90 189t99 195t271 75q70 0 163 -25t147 -63l-52 -111q-68 31 -127 49t-143 18t-142 -39q-58 -41 -58 -99t60 -97t171 -75q334 -123 334 -316q1 -137 -103 -213t-297 -76q-70 0 -166 23t-151 61
l51 117q139 -70 260 -70zM436 1526h178l-180 -320l-108 31z" />
    <glyph glyph-name="Scedilla" unicode="&#x15e;" horiz-adv-x="1050" 
d="M485 111q167 0 253.5 62.5t86.5 162.5q0 133 -117.5 200.5t-279.5 137.5t-251 166t-89 235q0 98 54.5 178t155 126t216.5 46q207 0 375 -86l-55 -125q-76 35 -139 53.5t-175 18.5t-193 -55t-81 -141t40 -138.5t113.5 -95.5t209.5 -105t256 -146.5t120 -266.5
q0 -152 -116.5 -251t-323.5 -112l-29 -73q66 -12 113 -61.5t47 -104.5q0 -92 -68.5 -140.5t-169.5 -48.5q-37 0 -85 12.5t-77 30.5l39 103q78 -31 121 -31t76 18.5t33 54.5t-52.5 64.5t-130.5 36.5l56 141q-88 10 -176 36t-131 55l39 127q168 -84 335 -84z" />
    <glyph glyph-name="scedilla" unicode="&#x15f;" horiz-adv-x="860" 
d="M344 -338q43 0 76 18.5t33 54.5t-52.5 64.5t-130.5 36.5l56 141q-160 19 -248 80l51 117q139 -70 260 -70t186.5 39t65.5 109q0 111 -246 192q-143 47 -233 116.5t-90 189.5t99 195t271 75q70 0 163 -24.5t147 -63.5l-52 -111q-68 31 -127 49.5t-143 18.5t-142.5 -40.5
t-57.5 -98.5t60.5 -97t170.5 -75q334 -123 334 -316q0 -125 -89.5 -200.5t-252.5 -86.5l-29 -73q66 -12 113 -61.5t47 -104.5q0 -92 -69 -140.5t-169 -48.5q-37 0 -85 12.5t-77 30.5l39 103q78 -31 121 -31z" />
    <glyph glyph-name="Scaron" unicode="&#x160;" horiz-adv-x="1050" 
d="M825 336q0 133 -158 224q-77 44 -239 114t-251 166t-89 235q0 98 54 178t156 126t216 46q207 0 375 -86l-55 -125q-76 36 -138 54t-176 18q-112 0 -193 -55t-81 -141t40 -139q40 -52 114 -95t209 -105q136 -61 215 -117q161 -113 161 -296q0 -106 -58 -188t-170 -130
q-113 -48 -233 -47q-120 0 -239 29t-174 66l39 127q172 -86 337 -85t251 63t87 163zM233 1812l148 21l154 -201l153 201l146 -21l-234 -299h-129z" />
    <glyph glyph-name="scaron" unicode="&#x161;" horiz-adv-x="860" 
d="M389 104q121 0 187 39t65 109q0 111 -246 192q-143 47 -233 117q-90 69 -90 189t99 195t271 75q70 0 163 -25t147 -63l-52 -111q-68 31 -127 49t-143 18t-142 -39q-58 -41 -58 -99t60 -97t171 -75q334 -123 334 -316q1 -137 -103 -213t-297 -76q-70 0 -166 23t-151 61
l51 117q139 -70 260 -70zM143 1505l148 21l153 -201l154 201l145 -21l-233 -299h-129z" />
    <glyph glyph-name="Tcedilla" unicode="&#x162;" horiz-adv-x="1153" 
d="M520 -338q43 0 76 18.5t33 54.5t-52.5 64.5t-130.5 36.5l64 164h-23v1266h-467v127h1094l19 -127h-482v-1266h-12l-39 -98q66 -13 113 -62t47 -104q0 -92 -68.5 -140.5t-169.5 -48.5q-37 0 -85 12.5t-77 30.5l39 103q78 -31 121 -31z" />
    <glyph glyph-name="tcedilla" unicode="&#x163;" horiz-adv-x="655" 
d="M340 281q0 -170 141 -170q39 0 90 20l37 -127q-74 -35 -151 -35h-13l-26 -67q65 -13 112.5 -62t47.5 -104q0 -92 -69 -140.5t-169 -48.5q-37 0 -85 12.5t-77 30.5l39 103q78 -31 121 -31t75.5 18.5t32.5 54.5t-52 64.5t-130 36.5l62 158q-148 66 -148 264v596h-143
l-2 123h145v254l162 45v-299h180l53 -123h-233v-573z" />
    <glyph glyph-name="Tcaron" unicode="&#x164;" horiz-adv-x="1153" 
d="M20 1266v127h1094l19 -127h-482v-1266h-164v1266h-467zM272 1812l148 21l153 -201l154 201l145 -21l-233 -299h-129z" />
    <glyph glyph-name="tcaron" unicode="&#x165;" horiz-adv-x="901" 
d="M340 281q0 -170 141 -170q39 0 90 20l37 -127q-74 -35 -151 -35q-129 0 -204 75t-75 214v596h-143l-2 123h145v254l162 45v-299h180l53 -123h-233v-573zM727 1458q45 0 79 -36t34 -114t-61.5 -175t-147.5 -142l-43 76q55 39 84.5 78t36.5 92q-39 2 -67 36t-28 76t34 75.5
t79 33.5z" />
    <glyph glyph-name="Umacron" unicode="&#x16a;" horiz-adv-x="1396" 
d="M170 494v899h162v-881q0 -178 100 -289t267 -111t266 111q98 111 98 289v881h164v-899q0 -146 -65 -266q-64 -120 -184 -186t-280 -67q-160 0 -280 68q-120 69 -184 185t-64 266zM438 1604v129h488l16 -129h-504z" />
    <glyph glyph-name="umacron" unicode="&#x16b;" 
d="M283 344q0 -233 167 -233q85 0 178 51t165 129v704h161v-995h-120l-27 143q-72 -74 -176 -123t-199 -49q-158 -1 -234 95t-77 256v671h162v-649zM266 1296v129h490l14 -129h-504z" />
    <glyph glyph-name="Uring" unicode="&#x16e;" horiz-adv-x="1396" 
d="M170 494v899h162v-881q0 -178 100 -289t267 -111t266 111q98 111 98 289v881h164v-899q0 -146 -65 -266q-64 -120 -184 -186t-280 -67q-160 0 -280 68q-120 69 -184 185t-64 266zM698 1786q-36 0 -62 -25t-26 -61t26 -62q26 -24 62 -24t61 24t25 62t-24 62t-62 24z
M697 1880q79 0 134 -52t55 -128t-54 -126q-56 -50 -135 -50t-135 50t-56 126t56 128t135 52z" />
    <glyph glyph-name="uring" unicode="&#x16f;" 
d="M283 344q0 -233 167 -233q85 0 178 51t165 129v704h161v-995h-120l-27 143q-72 -74 -176 -123t-199 -49q-158 -1 -234 95t-77 256v671h162v-649zM532 1479q-36 0 -62 -25q-26 -26 -26 -62t26 -61t62 -25t61 26q25 24 25 61t-24 61t-62 25zM531 1573q79 0 135 -52t55 -128
q0 -76 -55 -126q-54 -50 -134 -50t-136 50t-56 126t56 128t135 52z" />
    <glyph glyph-name="Uhungarumlaut" unicode="&#x170;" horiz-adv-x="1396" 
d="M170 494v899h162v-881q0 -178 100 -289t267 -111t266 111q98 111 98 289v881h164v-899q0 -146 -65 -266q-64 -120 -184 -186t-280 -67q-160 0 -280 68q-120 69 -184 185t-64 266zM881 1833h178l-180 -320l-109 31zM567 1833h178l-180 -320l-108 31z" />
    <glyph glyph-name="uhungarumlaut" unicode="&#x171;" 
d="M283 344q0 -233 167 -233q85 0 178 51t165 129v704h161v-995h-120l-27 143q-72 -74 -176 -123t-199 -49q-158 -1 -234 95t-77 256v671h162v-649zM715 1526h178l-180 -320l-109 31zM401 1526h179l-181 -320l-108 31z" />
    <glyph glyph-name="Uogonek" unicode="&#x172;" horiz-adv-x="1396" 
d="M657 -211q0 -92 102 -92q48 0 99 41l53 -100q-68 -62 -170 -62t-163.5 57.5t-61.5 147.5q0 45 25.5 101.5t64.5 99.5q-201 29 -318.5 168t-117.5 344v899h162v-881q0 -178 100 -288.5t267 -110.5t265.5 110.5t98.5 288.5v881h164v-899q0 -141 -58.5 -255t-167 -182.5
t-253.5 -79.5q-39 -39 -65 -91t-26 -97z" />
    <glyph glyph-name="uogonek" unicode="&#x173;" 
d="M850 -230.5q0 -72.5 101 -72.5q48 0 100 41l53 -100q-68 -62 -170 -62t-163.5 57.5t-61.5 147.5q0 53 33.5 118.5t82.5 108.5h6l-24 135q-72 -74 -176.5 -123t-198.5 -49q-158 0 -234.5 95.5t-76.5 255.5v671h162v-649q0 -233 167 -233q85 0 178 51t165 129v704h161v-991
h17q-49 -35 -85 -98.5t-36 -136z" />
    <glyph glyph-name="Ydieresis" unicode="&#x178;" horiz-adv-x="1153" 
d="M481 0v559l-461 801l152 65l391 -706l395 674h175l-488 -826l-2 -567h-162zM664 1665q0 -41 -29 -71t-72 -29h-18q-41 -1 -70 29t-29 71t30 70t69 28h18q43 1 72 -28t29 -70z" />
    <glyph glyph-name="Zacute" unicode="&#x179;" horiz-adv-x="1150" 
d="M1104 1266l-879 -1137h846l14 -129h-1022l-16 129l877 1137h-797l-25 127h988zM608 1833h178l-180 -320l-108 31z" />
    <glyph glyph-name="zacute" unicode="&#x17a;" horiz-adv-x="886" 
d="M131 864l-39 129h744l8 -86l-602 -780h577l21 -127h-777l-20 84l592 780h-504zM459 1526h178l-180 -320l-109 31z" />
    <glyph glyph-name="Zdotaccent" unicode="&#x17b;" horiz-adv-x="1150" 
d="M1104 1266l-879 -1137h846l14 -129h-1022l-16 129l877 1137h-797l-25 127h988zM608 1784q45 0 77 -34t32 -79t-32 -78t-78 -33t-79 34q-33 32 -32 77q0 45 33 79q34 34 79 34z" />
    <glyph glyph-name="zdotaccent" unicode="&#x17c;" horiz-adv-x="886" 
d="M131 864l-39 129h744l8 -86l-602 -780h577l21 -127h-777l-20 84l592 780h-504zM460 1253q-46 0 -79 33t-33 78t34 79t79 34t77 -34t32 -79t-32 -78t-78 -33z" />
    <glyph glyph-name="Zcaron" unicode="&#x17d;" horiz-adv-x="1150" 
d="M1104 1266l-879 -1137h846l14 -129h-1022l-16 129l877 1137h-797l-25 127h988zM309 1812l148 21l153 -201l154 201l145 -21l-233 -299h-129z" />
    <glyph glyph-name="zcaron" unicode="&#x17e;" horiz-adv-x="886" 
d="M131 864l-39 129h744l8 -86l-602 -780h577l21 -127h-777l-20 84l592 780h-504zM166 1505l147 21l154 -201l154 201l145 -21l-234 -299h-129z" />
    <glyph glyph-name="florin" unicode="&#x192;" horiz-adv-x="696" 
d="M127 -20q139 0 139 170v700h-147l-2 123h149v160q0 139 75 222t204 83q91 0 151 -35l-37 -131q-45 20 -92 20q-139 0 -139 -170v-149h182l54 -123h-236v-709q0 -139 -73.5 -222t-200.5 -83q-92 0 -154 35l37 129q40 -20 90 -20z" />
    <glyph glyph-name="Scommaaccent" unicode="&#x218;" horiz-adv-x="1050" 
d="M825 336q0 133 -158 224q-77 44 -239 114t-251 166t-89 235q0 98 54 178t156 126t216 46q207 0 375 -86l-55 -125q-76 36 -138 54t-176 18q-112 0 -193 -55t-81 -141t40 -139q40 -52 114 -95t209 -105q136 -61 215 -117q161 -113 161 -296q0 -106 -58 -188t-170 -130
q-113 -48 -233 -47q-120 0 -239 29t-174 66l39 127q172 -86 337 -85t251 63t87 163zM497 -43q47 0 79 -36q32 -37 32 -113t-58 -167t-142 -133l-43 78q106 66 114 150q-39 2 -67 35t-27 75q0 42 33 77q33 34 79 34z" />
    <glyph glyph-name="scommaaccent" unicode="&#x219;" horiz-adv-x="860" 
d="M389 104q121 0 187 39t65 109q0 111 -246 192q-143 47 -233 117q-90 69 -90 189t99 195t271 75q70 0 163 -25t147 -63l-52 -111q-68 31 -127 49t-143 18t-142 -39q-58 -41 -58 -99t60 -97t171 -75q334 -123 334 -316q1 -137 -103 -213t-297 -76q-70 0 -166 23t-151 61
l51 117q139 -70 260 -70zM404 -43q46 0 79 -36q33 -37 33 -113t-58 -167t-143 -133l-43 78q106 66 115 150q-39 2 -67 35t-27 75q0 42 33 77q32 34 78 34z" />
    <glyph glyph-name="Tcommaaccent" unicode="&#x21a;" horiz-adv-x="1153" 
d="M20 1266v127h1094l19 -127h-482v-1266h-164v1266h-467zM581 -43q47 0 79 -36q32 -37 32 -113t-58 -167t-142 -133l-43 78q106 66 114 150q-39 2 -67 35t-27 75q0 42 33 77q33 34 79 34z" />
    <glyph glyph-name="tcommaaccent" unicode="&#x21b;" horiz-adv-x="655" 
d="M340 281q0 -170 141 -170q39 0 90 20l37 -127q-74 -35 -151 -35q-129 0 -204 75t-75 214v596h-143l-2 123h145v254l162 45v-299h180l53 -123h-233v-573zM398 -43q46 0 79 -36q33 -37 33 -113t-58 -167t-143 -133l-43 78q106 66 115 150q-39 2 -67 35t-28 75t33 77
q33 34 79 34z" />
    <glyph glyph-name="circumflex" unicode="&#x2c6;" horiz-adv-x="641" 
d="M621 1227l-148 -21l-154 201l-153 -201l-146 21l234 299h129z" />
    <glyph glyph-name="caron" unicode="&#x2c7;" horiz-adv-x="641" 
d="M20 1505l148 21l154 -201l153 201l146 -21l-234 -299h-129z" />
    <glyph glyph-name="uni02C9" unicode="&#x2c9;" horiz-adv-x="544" 
d="M20 1296v129h490l14 -129h-504z" />
    <glyph glyph-name="breve" unicode="&#x2d8;" horiz-adv-x="591" 
d="M455 1509h116q0 -121 -69.5 -201.5t-205.5 -80.5t-206 81t-70 201h117q0 -63 42 -113t116 -50t117 50t43 113z" />
    <glyph glyph-name="dotaccent" unicode="&#x2d9;" horiz-adv-x="262" 
d="M132 1253q-46 0 -79 33t-33 78t34 79t79 34t77 -34t32 -79t-32 -78t-78 -33z" />
    <glyph glyph-name="ring" unicode="&#x2da;" horiz-adv-x="421" 
d="M212 1307q36 0 61.5 24.5t25.5 61.5t-24.5 61.5t-61.5 24.5t-62.5 -24.5t-25.5 -61.5t25.5 -61.5t61.5 -24.5zM212 1573q79 0 134 -52.5t55 -128.5t-55 -125.5t-134 -49.5t-135.5 49.5t-56.5 125.5t56.5 128.5t135.5 52.5z" />
    <glyph glyph-name="ogonek" unicode="&#x2db;" horiz-adv-x="436" 
d="M162 -230.5q0 -72.5 101 -72.5q48 0 99 41l54 -100q-68 -62 -170 -62t-164 57.5t-62 147.5q0 53 34 118.5t83 108.5l146 -4q-49 -35 -85 -98.5t-36 -136z" />
    <glyph glyph-name="tilde" unicode="&#x2dc;" horiz-adv-x="643" 
d="M618 1440q0 -106 -50 -153.5t-129 -47.5t-129 46t-90 46t-62.5 -22.5t-24.5 -61.5h-113q0 201 183 201q86 0 132 -45t87 -45q80 0 84 82h112z" />
    <glyph glyph-name="hungarumlaut" unicode="&#x2dd;" horiz-adv-x="643" 
d="M444 1526h179l-181 -320l-108 31zM131 1526h178l-180 -320l-109 31z" />
    <glyph glyph-name="pi" unicode="&#x3c0;" horiz-adv-x="1216" 
d="M831 864h-446v-864h-164v864h-201v129h1176v-129h-203v-864h-162v864z" />
    <glyph glyph-name="tm_Anusvara" unicode="&#xb82;" horiz-adv-x="0" 
d="M0 1419q51 0 84 32t33 82t-33 83t-84 33t-84 -33t-33 -83t33 -82t84 -32zM1 1307q-97 0 -168 64.5t-71 161.5t70 161.5t168 64.5t169 -64.5t71 -161.5t-71 -161.5t-168 -64.5z" />
    <glyph glyph-name="tm_Visarga" unicode="&#xb83;" horiz-adv-x="1392" 
d="M1048 84q50 0 82.5 32t32.5 82t-32.5 82.5t-82.5 32.5t-83 -32.5t-33 -82.5t33 -82t83 -32zM345 84q50 0 84 32t34 82t-34 82.5t-84 32.5t-83 -32.5t-33 -82.5t33 -82t83 -32zM1048 -29q-97 0 -168 64.5t-71 162.5t70.5 162t168.5 64t168 -64t70 -162t-70.5 -162.5
t-167.5 -64.5zM345 -29q-97 0 -166.5 64.5t-69.5 162.5t69.5 162t166.5 64t168 -64t71 -162t-71 -162.5t-168 -64.5zM697 739q50 0 83 32t33 82t-32.5 83t-82.5 33t-83 -33t-33 -83t32.5 -82t82.5 -32zM696.5 629q-98.5 0 -168 63.5t-69.5 160.5t70.5 161.5t167.5 64.5
t167 -64.5t70 -161.5t-69.5 -160.5t-168 -63.5z" />
    <glyph glyph-name="tm_A" unicode="&#xb85;" horiz-adv-x="2187" 
d="M315 141q-94 0 -94 -88q0 -57 57.5 -108t161 -82t234.5 -31q211 0 371.5 82t250.5 227h-981zM714.5 799q-55.5 0 -92 -35t-36.5 -89t36 -90t92 -36t92 36t36 90t-36 89t-91.5 35zM1997 -258h-146v399h-383q-98 -203 -307 -319.5t-487 -116.5q-176 0 -314.5 45t-215 125
t-76.5 175t63.5 150.5t179.5 55.5h1039q34 100 34 228t-52 239t-150.5 174.5t-224.5 63.5t-216 -46q104 -6 171 -71.5t67 -169.5t-74 -175t-188.5 -71t-191 69.5t-76.5 181.5t66.5 207t180.5 148t272 53t292.5 -78.5t207 -219t72.5 -318.5q0 -111 -29 -215h340v795h146
v-1309z" />
    <glyph glyph-name="tm_Aa" unicode="&#xb86;" horiz-adv-x="2609" 
d="M315 141q-94 0 -94 -88q0 -57 57.5 -108t161 -82t234.5 -31q211 0 371.5 82t250.5 227h-981zM714.5 799q-55.5 0 -92 -35t-36.5 -89t36 -90t92 -36t92 36t36 90t-36 89t-91.5 35zM2589 -169q0 -169 -98.5 -307t-274.5 -217t-399 -79q-135 0 -243 38t-168 105.5t-60 162.5
t75.5 160.5t196.5 65.5h43v-114h-43q-53 0 -86 -34t-33 -87q0 -74 89 -123t248 -49t299 62.5t219 172.5t79 230t-56.5 188t-154.5 68t-161.5 -71t-63.5 -179v-82h-146v399h-383q-98 -203 -307 -319.5t-487 -116.5q-176 0 -314.5 45t-215 125t-76.5 175t63.5 150.5
t179.5 55.5h1039q34 100 34 228t-52 239t-150.5 174.5t-224.5 63.5t-216 -46q104 -6 171 -71.5t67 -169.5t-74 -175t-188.5 -71t-191 69.5t-76.5 181.5t66.5 207t180.5 148t272 53t292.5 -78.5t207 -219t72.5 -318.5q0 -111 -29 -215h340v795h146v-949q93 98 245 98
t249.5 -100t97.5 -269z" />
    <glyph glyph-name="tm_I" unicode="&#xb87;" horiz-adv-x="2134" 
d="M221 -176q0 -47 39 -75t109 -28q163 0 333 80q-162 117 -280 285q-201 -109 -201 -262zM1315 -279q70 0 109.5 28t39.5 75q0 80 -55 150.5t-149 121.5q-129 -170 -302 -293q174 -82 357 -82zM559 141q109 -158 272 -266q170 113 293 275q-118 36 -268 36t-297 -45z
M798.5 809q-59.5 0 -99.5 -38t-40 -97.5t39.5 -97t99.5 -37.5t99 37.5t39 97t-39 97.5t-98.5 38zM1944 707v-1010h-146v1005q0 184 -90 326.5t-247.5 221.5t-362.5 79t-370 -76.5t-257 -220t-92 -355.5t110 -423q179 57 369 57t340 -49q106 186 107 375q0 143 -80.5 233.5
t-210.5 90.5t-215 -46h10q111 0 182.5 -67.5t71.5 -173.5t-73.5 -176t-189.5 -70t-192 69.5t-76 182.5t58.5 207t165 147t244.5 53t242 -57t160 -159.5t56 -233.5q0 -209 -125 -430q131 -68 208 -165.5t77 -209.5t-83 -175t-220 -63q-248 0 -486 127q-238 -127 -460 -127
q-135 0 -218 62.5t-83 172.5t75.5 206t210.5 164q-129 236 -129 480t113 416.5t313.5 266.5t444.5 94t436 -95t302 -265t110 -389z" />
    <glyph glyph-name="tm_Ii" unicode="&#xb88;" horiz-adv-x="1542" 
d="M1294 360q-41 0 -68.5 29t-27.5 71t27.5 70.5t68.5 28.5t71 -28.5t30 -70.5t-30 -71t-71 -29zM606 360q-41 0 -69.5 29t-28.5 71t28.5 70.5t69.5 28.5t71 -29.5t30 -70.5t-30 -70t-71 -29zM879 936h-545v-936h-144v1051h1313l19 -115h-498v-936h-145v936z" />
    <glyph glyph-name="tm_U" unicode="&#xb89;" horiz-adv-x="2019" 
d="M209 555q0 -76 51 -127t131 -51t129 50t49 126t-50 125t-129 49t-130 -48t-51 -124zM1999 0h-1839v117h467q131 0 235.5 56t163.5 157.5t59 222.5t-54 212t-152.5 143.5t-215.5 52.5q-224 0 -352 -132q45 10 84 11q137 0 226.5 -82t89.5 -208t-89.5 -209t-229.5 -83
t-232 85t-92 227t75.5 262t209.5 187.5t303 67.5t302.5 -68.5t207 -188.5t73.5 -266t-59.5 -261t-169.5 -186h989v-117z" />
    <glyph glyph-name="tm_Uu" unicode="&#xb8a;" horiz-adv-x="3358" 
d="M1722 462.5q0 -65.5 43 -108.5t108.5 -43t108.5 43t43 108.5t-43 107.5t-108.5 42t-108.5 -42t-43 -107.5zM209 555q0 -76 51 -127t131 -51t129 50t49 126t-50 125t-129 49t-130 -48t-51 -124zM1403 622q0 124 66.5 232.5t185.5 168.5t254 60q263 0 403 -176v144h914
l16 -115h-264v-700h-146v700h-374v-700h-146v364q0 100 -50 181t-139 128t-199 47t-194.5 -45t-132 -121.5t-47.5 -182.5t62 -183q-4 25 -4 39q0 115 74.5 187.5t194.5 72.5t200 -72.5t80 -186.5t-82 -188.5t-211 -74.5t-235.5 53t-166 148.5t-59.5 219.5zM3338 0h-3178v117
h467q131 0 235.5 56t163.5 157.5t59 222.5t-54 212t-152.5 143.5t-215.5 52.5q-224 0 -352 -132q45 10 84 11q137 0 226.5 -82t89.5 -208t-89.5 -209t-229.5 -83t-232 85t-92 227t75.5 262t209.5 187.5t303 67.5t302.5 -68.5t207 -187.5t73.5 -267t-60.5 -263t-172.5 -184
h2332v-117z" />
    <glyph glyph-name="tm_E" unicode="&#xb8e;" horiz-adv-x="1773" 
d="M471 291q0 -92 59.5 -151.5t151.5 -59.5t152.5 59.5t60.5 151.5t-60.5 151.5t-152.5 59.5t-151.5 -59.5t-59.5 -151.5zM1368 936v-936h-147v936h-424q-268 0 -401.5 -121t-133.5 -315t103 -303q-45 139 12 238.5t134 141t174 41.5t178 -41.5t126 -116.5t45 -168t-46 -168
t-128 -118t-184 -43q-174 0 -302 68.5t-196.5 187.5t-68.5 277t74.5 284.5t225 198.5t369.5 72h959l16 -115h-385z" />
    <glyph glyph-name="tm_Ee" unicode="&#xb8f;" horiz-adv-x="1773" 
d="M471 291q0 -92 59.5 -151.5t151.5 -59.5t152.5 59.5t60.5 151.5t-60.5 151.5t-152.5 59.5t-151.5 -59.5t-59.5 -151.5zM1368 936v-901q0 -127 -26.5 -192.5t-114.5 -96.5l-705 -258l-57 106l651 246q66 23 85.5 72t19.5 156v868h-424q-268 0 -401.5 -121t-133.5 -315
t103 -303q-45 139 12 238.5t134 141t174 41.5t178 -41.5t126 -116.5t45 -168t-46 -168t-128 -118t-184 -43q-174 0 -302 68.5t-196.5 187.5t-68.5 277t74.5 284.5t225 198.5t369.5 72h959l16 -115h-385z" />
    <glyph glyph-name="tm_Ai" unicode="&#xb90;" horiz-adv-x="1691" 
d="M246 685q0 -44 30.5 -72.5t75.5 -28.5t74 28.5t30 72.5t-28 72.5t-75 28.5t-76.5 -28.5t-30.5 -72.5zM1554 -62q0 -118 -48 -195t-132 -120t-188 -43q-219 0 -328 166q-113 -166 -344 -166q-117 0 -209 46t-144 129t-52 188q0 176 130 283.5t423 146.5l368 49
q201 29 298.5 109.5t99.5 190.5t-57.5 174.5t-162.5 64.5t-175 -74t-72 -185v-141h-146v141q0 111 -79.5 185t-199.5 74t-200 -70h16q96 0 157.5 -56.5t61.5 -146.5t-62.5 -150.5t-159.5 -60.5t-161.5 61.5t-64.5 163.5t53 191.5t148.5 141.5t214.5 52q221 0 346 -180
q123 180 329 180q109 0 193 -45t130 -125.5t46 -185.5q0 -168 -137 -282.5t-416 -151.5l-368 -51q-400 -54 -400 -294q0 -114 72 -180.5t184 -66.5t189 75t77 185v141h146v-141q0 -111 72 -185.5t178 -74.5t163.5 61.5t57.5 153.5q0 55 -19.5 132t-52.5 143l148 12
q77 -151 77 -269z" />
    <glyph glyph-name="tm_O" unicode="&#xb92;" horiz-adv-x="1677" 
d="M299 454.5q0 -55.5 35 -90t88 -34.5h2q55 0 91 34t37 90t-35 91t-91 35t-91 -35t-36 -90.5zM967 272v279h133q2 -80 47 -131t116 -51t109.5 55.5t38.5 157.5t-75.5 192t-208 141.5t-293.5 51.5t-288.5 -46.5t-207.5 -127t-96 -187.5q70 90 186 90t189 -67t73 -175
t-75 -176.5t-179 -68.5t-178 44t-115 122t-41 176q0 156 93.5 279.5t259 193.5t375.5 70t378 -68t262.5 -187t94.5 -267t-83 -239t-218 -91q-94 0 -164 51v-21q0 -112 63.5 -170.5t186.5 -58.5h141v-115h-141q-55 0 -113 11v-41q0 -100 -49 -179t-138 -123.5t-206 -44.5
t-208 44.5t-141.5 123t-50.5 179.5v102h146v-102q0 -96 70.5 -158t185.5 -62t184.5 60.5t69.5 159.5v98q-133 95 -133 276z" />
    <glyph glyph-name="tm_Oo" unicode="&#xb93;" horiz-adv-x="1677" 
d="M299 454.5q0 -55.5 35 -90t88 -34.5h2q55 0 91 34t37 90t-35 91t-91 35t-91 -35t-36 -90.5zM967 272v279h133q2 -80 47 -131t116 -51t109.5 55.5t38.5 157.5t-75.5 192t-208 141.5t-293.5 51.5t-288.5 -46.5t-207.5 -127t-96 -187.5q70 90 186 90t189 -67t73 -175
t-75 -176.5t-179 -68.5t-178 44t-115 122t-41 176q0 156 93.5 279.5t259 193.5t375.5 70t378 -68t262.5 -187t94.5 -267t-83 -239t-218 -91q-94 0 -164 51v-21q0 -112 63.5 -170.5t186.5 -58.5h141v-115h-141q-68 0 -119 13v-43q0 -98 -53.5 -177t-147.5 -124.5t-210 -45.5
t-208 36t-144 100.5t-52 157.5t76.5 163t195.5 70h43v-117h-43q-53 0 -88 -36.5t-35 -98.5t71.5 -105t187.5 -43t193 61.5t77 158.5v102q-127 98 -127 272z" />
    <glyph glyph-name="tm_Au" unicode="&#xb94;" horiz-adv-x="4169" 
d="M299 455q0 -55 35 -90t88 -35h2q55 0 91 35t38 90q0 55 -36 90t-91 35t-91 -35t-36 -90zM1100 272q0 -229 250 -229h141v-115h-141q-55 0 -113 11v-41q0 -100 -49 -180t-138 -122q-89 -44 -206 -44t-208 44t-141 122t-51 180v102h146v-102q0 -96 70 -158q71 -62 186 -62
q114 0 184 60t70 160v98q-135 96 -133 276v279h133q2 -80 47 -131t116 -51t109 55q38 56 39 158q0 102 -76 192t-208 141t-293 51q-160 0 -288 -45q-128 -46 -208 -127t-96 -188q70 90 186 90t190 -68q72 -68 72 -174q0 -108 -75 -176t-179 -69q-104 0 -178 44t-115 122
t-41 176q0 155 94 279t259 194t375 70t378 -68t262 -186t94 -268q0 -148 -82 -239q-83 -91 -218 -91q-94 0 -164 51v-21zM2359 80q92 0 153 59q60 59 60 151t-60 152q-60 59 -152 59t-152 -59t-60 -151q0 -91 60 -151t151 -60zM3764 936v-936h-145v936h-512v-936h-146v467
q0 141 -66 254q-67 113 -183 176t-266 63t-266 -60t-178 -168t-62 -268t102 -267q-45 139 26 263q43 75 120 117q77 41 174 41q96 0 178 -42t126 -116q44 -75 46 -168q0 -93 -46 -168t-129 -118q-82 -43 -184 -43q-174 0 -302 69q-128 70 -197 188q-68 118 -68 278t82 298
t234 215t330 77q350 -1 529 -252v215h1172l16 -115h-385z" />
    <glyph glyph-name="tm_Ka" unicode="&#xb95;" horiz-adv-x="1538" 
d="M512 496q-129 0 -199.5 -56.5t-70.5 -147.5t69.5 -146.5t184.5 -55.5q158 0 246.5 89t88.5 241v76h-319zM481 610h350v326h-350v-326zM1473 287q0 -94 -53.5 -167t-154 -115t-237.5 -42v117q139 0 214 56.5t75 150.5t-67.5 151.5t-194.5 57.5h-78v-76
q0 -135 -58.5 -238.5t-168 -161t-241.5 -57.5t-225.5 42t-144.5 116t-51 174.5t64.5 180t183.5 112.5v463h979l18 -115h-356v-326h76q196 0 308 -90t112 -233z" />
    <glyph glyph-name="tm_Nga" unicode="&#xb99;" horiz-adv-x="2007" 
d="M1442 390q0 -169 -129 -273h360v934h146v-1051h-1114v117h278q150 0 227.5 77.5t77.5 192t-54 179.5t-154.5 65t-165 -71t-64.5 -179v-70h-145v625h-371v-936h-144v1051h1031l16 -115h-387v-274q98 94 251 94t247 -98.5t94 -267.5z" />
    <glyph glyph-name="tm_Ca" unicode="&#xb9a;" horiz-adv-x="1398" 
d="M512 496q-129 0 -199.5 -56.5t-70.5 -147.5t69.5 -146.5t184.5 -55.5q158 0 246.5 89t88.5 241v76h-319zM481 610h350v326h-350v-326zM977 496v-76q0 -135 -58.5 -238.5t-168 -161t-241.5 -57.5t-225.5 42t-144.5 116t-51 174.5t64.5 180t183.5 112.5v463h979l18 -115
h-356v-326h338l18 -114h-356z" />
    <glyph glyph-name="tm_Ja" unicode="&#xb9c;" horiz-adv-x="1691" 
d="M246 685q0 -44 30.5 -72.5t75.5 -28.5t74 28.5t30 72.5t-28 72.5t-75 28.5t-76.5 -28.5t-30.5 -72.5zM1583 -127q0 -82 -46 -146.5t-129 -102.5t-185 -38h-228v115h228q92 0 149.5 49t57.5 123t-39 119t-119 45t-150.5 -49t-167 -143.5t-156.5 -144.5
q-145 -120 -302 -120q-117 0 -204 46t-135 129t-48 188q0 176 130 283.5t423 146.5l368 49q201 29 299 109.5t99.5 190t-58 174.5t-162.5 65t-175 -74t-72 -185v-141h-146v141q0 111 -79 185t-199.5 74t-200.5 -70h16q96 0 157.5 -56.5t61.5 -146.5t-62.5 -150.5
t-159.5 -60.5t-161.5 61.5t-64.5 164t53 191.5t148.5 141t214.5 52q221 0 346 -180q123 180 329 180q109 0 193 -45t130 -125.5t46 -185.5q0 -168 -137 -282.5t-416 -151.5l-368 -51q-215 -29 -307.5 -104.5t-92.5 -190t63.5 -180.5t161 -66t174 53.5t193.5 166t211 175
t223 62.5t212 -80t83 -209z" />
    <glyph glyph-name="tm_Nya" unicode="&#xb9e;" horiz-adv-x="2527" 
d="M967 291q0 -92 60 -151.5t152.5 -59.5t152 59.5t59.5 151.5t-59.5 151.5t-152 59.5t-152.5 -59.5t-60 -151.5zM2419 270q0 -246 -134.5 -425t-381 -274t-588.5 -95t-608.5 107.5t-411.5 309t-145 476.5q0 193 82.5 387t213.5 315l150 -20q-129 -106 -211 -295t-82 -409
t126 -391t357.5 -262t529.5 -91t509 78.5t325.5 228t114.5 360.5q0 150 -53 240t-161.5 90t-175.5 -75.5t-67 -192.5v-332h-143v936h-371q-270 0 -403 -121t-133 -317.5t104 -302.5q-16 49 -16 96q0 143 94 235t240 92q100 0 180 -41.5t125 -116.5t45 -168t-46 -168
t-127 -118t-183 -43q-174 0 -303.5 68.5t-198 187.5t-68.5 275.5t76 284.5t226.5 200t369.5 72h903l16 -115h-387v-313q96 102 238 102q178 0 275.5 -127t97.5 -328z" />
    <glyph glyph-name="tm_Tta" unicode="&#xb9f;" horiz-adv-x="1474" 
d="M334 117h1104l16 -117h-1264v1051l144 10v-944z" />
    <glyph glyph-name="tm_Nna" unicode="&#xba3;" horiz-adv-x="3477" 
d="M682 80q92 0 152.5 59.5t60.5 151.5t-60.5 151.5t-152.5 59.5t-151.5 -59.5t-59.5 -151.5t59.5 -151.5t151.5 -59.5zM1309 356q0 -119 48 -192.5t135 -73.5t134 74t47 197.5t-53 234.5t-152 192q-159 -167 -159 -432zM2114 362q0 -125 47 -198.5t134 -73.5t134 74t47 198
q0 260 -170 431q-92 -80 -142 -193t-50 -238zM1575 874q252 -208 252 -530q0 -164 -90 -272.5t-246 -108.5t-246 108.5t-90 284.5q0 305 195 510q-182 94 -400.5 94.5t-370 -63t-234.5 -176.5t-83 -271.5t107 -263.5q-20 47 -20.5 123t42.5 151t120 116.5t174 41.5
t178 -41.5t126 -116.5t45 -168t-46 -168t-128 -118t-184 -43q-174 0 -302 65.5t-196.5 180.5t-68.5 275.5t102 302t289.5 221t431.5 79.5q301 0 524 -131q186 131 435 131t438 -131q178 94 395 95h715l18 -115h-387v-936h-145v936h-201q-162 0 -295 -64q201 -205 201 -516
q0 -176 -90.5 -284.5t-245 -108.5t-244.5 108.5t-90 273.5t64.5 300t179.5 229q-137 86 -314.5 86.5t-314.5 -86.5z" />
    <glyph glyph-name="tm_Ta" unicode="&#xba4;" horiz-adv-x="1568" 
d="M512 496q-129 0 -199.5 -56.5t-70.5 -147.5t69.5 -146.5t184.5 -55.5q158 0 246.5 89t88.5 241v76h-319zM481 610h350v326h-350v-326zM535 -350q-232 0 -330 -150l-117 66q47 90 160.5 144t273.5 54h375q129 0 227.5 50.5t150.5 138.5t52 219.5t-81 227.5t-214 96h-55
v-76q0 -135 -58.5 -238.5t-168 -161t-241.5 -57.5t-225.5 42t-144.5 116t-51 174.5t64.5 180t183.5 112.5v463h979l18 -115h-356v-326h53q133 0 235.5 -58t159 -161.5t56.5 -242.5t-73 -254t-205 -179.5t-306 -64.5h-362z" />
    <glyph glyph-name="tm_Na" unicode="&#xba8;" horiz-adv-x="1566" 
d="M1460 268.5q0 -192.5 -64.5 -329t-187.5 -212t-290 -75.5h-279q-233 0 -332 -150l-117 64q49 90 162 145.5t273 55.5h293q184 0 286.5 133t102.5 350q0 160 -56.5 255t-163 95t-172 -75.5t-65.5 -192.5v-332h-145v936h-371v-936h-144v1051h1031l16 -115h-387v-313
q90 102 251 102t260 -132t99 -324.5z" />
    <glyph glyph-name="tm_Nnna" unicode="&#xba9;" horiz-adv-x="2672" 
d="M682 80q92 0 152.5 59.5t60.5 151.5t-60.5 151.5t-152.5 59.5t-151.5 -59.5t-59.5 -151.5t59.5 -151.5t151.5 -59.5zM1309 356q0 -119 48 -192.5t135 -73.5t134 74t47 196q0 251 -190 416q-174 -166 -174 -420zM932 1087q319 0 557 -149q190 113 430 113h717l16 -115
h-385v-936h-147v936h-201q-178 0 -324 -78q232 -209 232 -502q0 -176 -90 -284.5t-246 -108.5t-246 108.5t-90 268.5q0 314 219 512q-184 109 -442 109q-201 0 -352.5 -63.5t-234.5 -176.5t-83 -271.5t107 -263.5q-20 47 -20.5 123t42.5 151t120 116.5t174 41.5t178 -41.5
t126 -116.5t45 -168t-46 -168t-128 -118t-184 -43q-174 0 -302 65.5t-196.5 180.5t-68.5 275.5t102 302t289.5 221t431.5 79.5z" />
    <glyph glyph-name="tm_Pa" unicode="&#xbaa;" horiz-adv-x="1470" 
d="M190 0v1051l144 10v-944h801v934h145v-1051h-1090z" />
    <glyph glyph-name="tm_Ma" unicode="&#xbae;" horiz-adv-x="1697" 
d="M1438 500.5q0 191.5 -78 326t-221 134.5q-102 0 -161.5 -68t-59.5 -205v-571h241q144 0 211.5 96t67.5 287.5zM1591 455.5q0 -197.5 -109.5 -326.5t-322.5 -129h-969v1051l144 10v-944h436v567q0 197 99.5 300t254 103t258 -78.5t156.5 -217t53 -336z" />
    <glyph glyph-name="tm_Ya" unicode="&#xbaf;" horiz-adv-x="1894" 
d="M170 387v664l143 10v-674q0 -297 232 -297q127 0 194.5 89t67.5 237v635h145v-934h607v934h145v-1051h-897v86q-102 -123 -268 -123t-267.5 108.5t-101.5 315.5z" />
    <glyph glyph-name="tm_Ra" unicode="&#xbb0;" horiz-adv-x="1398" 
d="M993 35q0 -84 -9 -133q-18 -98 -132 -156l-520 -258l-58 117l467 235q66 33 85.5 78t19.5 150v868h-512v-936h-144v1051h1172l16 -115h-385v-901z" />
    <glyph glyph-name="tm_Rra" unicode="&#xbb1;" horiz-adv-x="1687" 
d="M170 664q0 423 368 423q186 0 285 -182q49 86 131 134t185 48q215 0 328.5 -167.5t113.5 -428t-80 -445.5t-233.5 -289.5t-370.5 -104.5h-279q-233 0 -331 -150l-117 64q49 90 161.5 145.5t272.5 55.5h293q172 0 291 90q239 181 239 616q0 225 -68.5 356.5t-217.5 131.5
q-98 0 -167 -69t-69 -204v-688h-145v641q0 145 -59.5 232.5t-174.5 87.5q-213 0 -213 -297v-664h-143v664z" />
    <glyph glyph-name="tm_La" unicode="&#xbb2;" horiz-adv-x="2091" 
d="M471 291q0 -92 59.5 -151.5t151.5 -59.5t152.5 59.5t60.5 151.5t-60.5 151.5t-152.5 59.5t-151.5 -59.5t-59.5 -151.5zM1985 479q0 -242 -100.5 -379t-293 -137t-291 121t-98.5 346v96q0 205 -120.5 320t-333.5 115q-147 0 -257 -60.5t-169.5 -167t-59.5 -244.5
q0 -182 105 -292q-45 139 26 261q43 74 119 116t173 42t178 -42t126 -116.5t45 -166.5t-46 -167t-128 -118t-184 -43q-174 0 -302 69.5t-196.5 189.5t-68.5 278.5t78.5 295t223 214t331 77.5t322.5 -68.5t210 -194.5t74 -298v-96q0 -168 58 -253t183 -85q244 0 244 385
q0 131 -43 295t-125 279l145 28q86 -141 130.5 -305t44.5 -295z" />
    <glyph glyph-name="tm_Lla" unicode="&#xbb3;" horiz-adv-x="2492" 
d="M471 291q0 -92 59.5 -151.5t151.5 -59.5t152.5 59.5t60.5 151.5t-60.5 151.5t-152.5 59.5t-151.5 -59.5t-59.5 -151.5zM2087 936v-936h-145v936h-512v-936h-146v467q0 141 -66.5 254t-182 176.5t-266.5 63.5t-266.5 -60.5t-178 -168t-62.5 -247.5q0 -180 103 -288
q-45 139 26 263q43 75 120 116.5t174 41.5t178 -41.5t126 -116.5t45 -168t-46 -168t-128 -118t-184 -43q-174 0 -302 68.5t-196.5 187.5t-68.5 279.5t81.5 298t233.5 213.5q150 76 330 77q351 0 530 -251v215h1172l16 -115h-385z" />
    <glyph glyph-name="tm_Llla" unicode="&#xbb4;" horiz-adv-x="1697" 
d="M1159 117q143 0 211 96t68 287.5t-78 326t-221 134.5q-102 0 -161.5 -68t-59.5 -205v-571h241zM918 -78q0 -84 31.5 -121t97.5 -37h333l15 -114h-357q-45 -121 -158.5 -194.5t-270 -73.5t-262 94t-105.5 245h145q0 -94 65.5 -153.5t165.5 -59.5q204 0 279 168
q-127 57 -127 238v86h-580v1051l144 10v-944h436v567q0 197 100 300t254 103q154 -1 258 -79q210 -159 209 -535q0 -215 -109.5 -344t-322.5 -129h-241v-78z" />
    <glyph glyph-name="tm_Va" unicode="&#xbb5;" horiz-adv-x="2115" 
d="M471 291q0 -92 59.5 -151.5t151.5 -59.5t152.5 59.5t60.5 151.5t-60.5 151.5t-152.5 59.5t-151.5 -59.5t-59.5 -151.5zM1430 522q0 -224 -127 -405h477v934h145v-1051h-795l3 117q141 171 141 405q0 127 -60.5 226.5t-172 156t-264.5 56.5t-271.5 -60.5t-181 -168
t-62.5 -247.5q0 -180 103 -288q-45 139 26 263q43 75 120 116.5t174 41.5t178 -41.5t126 -116.5t45 -168t-46 -168t-128 -118t-184 -43q-174 0 -302 68.5t-196.5 187.5t-68.5 279.5t82.5 298t235.5 214t348 76.5t343 -72.5t230 -201.5t82 -291z" />
    <glyph glyph-name="tm_Sha" unicode="&#xbb6;" horiz-adv-x="2148" 
d="M1886 551q0 193 -67.5 289t-210.5 96h-242v-571q0 -137 59.5 -206t161.5 -69q144 0 221.5 134t77.5 327zM2040 595.5q0 -197.5 -53.5 -336t-157 -217.5t-258 -79t-252.5 103.5t-98 300.5v569h-299v-549q0 -209 -102.5 -316.5t-273.5 -107.5t-273.5 107.5t-102.5 316.5
v664l143 10v-674q0 -154 61.5 -225.5t170 -71.5t170 71.5t61.5 225.5v664h832q213 0 322.5 -129t109.5 -326.5z" />
    <glyph glyph-name="tm_Ssa" unicode="&#xbb7;" horiz-adv-x="2822" 
d="M471 291q0 -92 59.5 -151.5t151.5 -59.5t152.5 59.5t60.5 151.5t-60.5 151.5t-152.5 59.5t-151.5 -59.5t-59.5 -151.5zM2212 117h276v573q-115 -154 -276 -225v-348zM2066 745q0 98 -51 157t-144 59t-144.5 -56.5t-51.5 -150.5t72 -156.5t190 -62.5q68 0 129 18v192z
M1430 522q0 -221 -125 -405h761v303q-61 -12 -155.5 -12t-188.5 45t-147 124.5t-53 178.5q0 147 95 239t253 92t250 -91t92 -240v-138q158 102 276 318h146v-936h-422v-498h-146v498h-936l3 117q141 171 141 405q0 127 -61.5 226.5t-173 156t-263.5 56.5t-270.5 -60.5
t-181 -168t-62.5 -247.5q0 -180 103 -288q-45 139 26 263q43 75 120 116.5t174 41.5t178 -41.5t126 -116.5t45 -168t-46 -168t-128 -118t-184 -43q-174 0 -302 68.5t-196.5 187.5t-68.5 279.5t82.5 298t235.5 214t348 76.5t343 -72.5t230 -201.5t82 -291z" />
    <glyph glyph-name="tm_Sa" unicode="&#xbb8;" horiz-adv-x="2684" 
d="M471 291q0 -92 59.5 -151.5t151.5 -59.5t152.5 59.5t60.5 151.5t-60.5 151.5t-152.5 59.5t-151.5 -59.5t-59.5 -151.5zM2578 479q0 -242 -100 -379t-293.5 -137t-291 121t-97.5 346v250q0 279 -197 278q-119 0 -185 -119.5t-66 -312.5v-526h-146v526q0 205 -120.5 320
t-333.5 115q-147 0 -257 -60.5t-169.5 -167t-59.5 -244.5q0 -182 105 -292q-45 139 26 261q43 74 119 116t173 42t178 -42t126 -116.5t45 -166.5t-46 -167t-128 -118t-184 -43q-174 0 -302 69.5t-196.5 189.5t-68.5 278.5t78.5 295t223 214t332 77.5t322.5 -67.5t207 -192.5
q43 123 126 191.5t201 68.5q166 0 254.5 -110.5t88.5 -294.5v-252q0 -168 58 -253t183 -85q242 0 242 385q0 131 -43 295t-125 279l147 28q86 -141 130 -305t44 -295z" />
    <glyph glyph-name="tm_Ha" unicode="&#xbb9;" horiz-adv-x="3233" 
d="M471 291q0 -92 59.5 -151.5t151.5 -59.5t152.5 59.5t60.5 151.5t-60.5 151.5t-152.5 59.5t-151.5 -59.5t-59.5 -151.5zM2082 1087q184 0 283 -172q45 82 126 127t184 45q217 0 334.5 -168.5t117.5 -428t-79.5 -444.5t-233.5 -289.5t-371 -104.5h-1886q-233 0 -332 -150
l-116 64q49 90 161.5 145.5t272.5 55.5h1900q258 0 394.5 193.5t136.5 512.5q0 221 -73 353t-222 132q-104 0 -166 -66.5t-62 -203.5v-688h-145v641q0 143 -59.5 231.5t-173.5 88.5q-211 0 -211 -297v-664h-732l3 117q141 171 141 405q0 127 -61.5 226.5t-173 156
t-263.5 56.5t-270.5 -60.5t-181 -168t-62.5 -247.5q0 -180 103 -288q-45 139 26 263q43 75 120 116.5t174 41.5t178 -41.5t126 -116.5t45 -168t-46 -168t-128 -118t-184 -43q-174 0 -302 68.5t-196.5 187.5t-68.5 279.5t82.5 298t235.5 214t348 76.5t343 -72.5t230 -201.5
t82 -291q0 -224 -127 -405h413v547q0 205 91 314t275 109z" />
    <glyph glyph-name="tm_VowelAa" unicode="&#xbbe;" horiz-adv-x="1357" 
d="M805 0v936h-471v-936h-144v1051h1131l16 -115h-385v-936h-147z" />
    <glyph glyph-name="tm_VowelI" unicode="&#xbbf;" horiz-adv-x="524" 
d="M334 1030v-1030h-144v1030q0 139 -58 247.5t-165.5 169t-257.5 60.5t-235.5 -63.5t-85.5 -168t59 -164.5t182 -60h90v-101h-90q-186 0 -288.5 90t-104.5 236q0 102 58.5 183t167 127t273.5 46t305 -76.5t217 -214t77 -311.5z" />
    <glyph glyph-name="tm_VowelIi" unicode="&#xbc0;" horiz-adv-x="0" 
d="M4 1393q0 43 -28.5 70.5t-71.5 27.5t-72 -27.5t-29 -70.5t29 -72t72 -29t71.5 29t28.5 72zM127 1414q0 -99 -63.5 -163.5t-160.5 -64.5t-161 59.5t-64 149.5t61.5 147t158.5 57h12q-92 72 -230 72t-229.5 -87t-91.5 -222t73.5 -223t192.5 -88v-109q-121 0 -216 54.5
t-149.5 150.5t-54.5 219t61.5 221.5t170 154.5t236.5 56t230.5 -53t163 -142.5t60.5 -188.5z" />
    <glyph glyph-name="tm_VowelU" unicode="&#xbc1;" horiz-adv-x="964" 
d="M752 725q0 92 -58.5 151.5t-150.5 59.5t-151.5 -59.5t-59.5 -151.5t59.5 -152.5t151.5 -60.5t150.5 60.5t58.5 152.5zM899 724q0 -93 -46 -168t-127 -117t-181.5 -42t-181 42t-125.5 116.5t-45 184.5t81 196h-610v115h875q102 0 185 -42t129 -117t46 -168z" />
    <glyph glyph-name="tm_VowelUu" unicode="&#xbc2;" horiz-adv-x="1363" 
d="M532 936h-149q-45 -86 -45 -187t60.5 -166t151.5 -65t146.5 57.5t55.5 150.5t-59.5 151.5t-160.5 58.5zM303 1051q157 202 457 202q150 0 272.5 -68.5t193 -190.5t70.5 -276t-79.5 -281.5t-222 -199t-320.5 -71.5h-119v115h119q135 0 241.5 56t167 156.5t60.5 222.5
t-50.5 215t-139.5 146t-197 53q-162 0 -271 -79h54q102 0 185 -42t129 -117t46 -167q0 -141 -97 -231.5t-249 -90.5q-100 0 -180 44.5t-125 123t-45 177.5t35 188h-574v115h639z" />
    <glyph glyph-name="tm_VowelE" unicode="&#xbc6;" horiz-adv-x="1611" 
d="M471 291q0 -92 59.5 -151.5t151.5 -59.5t152.5 59.5t60.5 151.5t-60.5 151.5t-152.5 59.5t-151.5 -59.5t-59.5 -151.5zM1421 707v-707h-145v707q0 260 -129 404t-363 144q-160 0 -277.5 -76.5t-181 -213.5t-63.5 -337t86 -349v12q0 94 43 169t120 116.5t174 41.5
t178 -41.5t126 -116.5t45 -168t-46 -168t-128 -118t-184 -43q-164 0 -293 88t-201.5 245.5t-72.5 361.5t82.5 370t236.5 260t354 94t343 -80.5t219.5 -233.5t76.5 -361z" />
    <glyph glyph-name="tm_VowelEe" unicode="&#xbc7;" horiz-adv-x="1376" 
d="M803 286.5q0 -71.5 47 -117.5t118 -46t118 46t47 117t-47.5 118t-117.5 47t-117.5 -46.5t-47.5 -118zM1133 1060q0 71 -47.5 118t-117.5 47t-117.5 -46t-47.5 -118t47.5 -118t117.5 -46t117.5 46t47.5 117zM668 285q0 127 84 206.5t214 79.5t216 -79.5t86 -187.5
t-54.5 -182.5t-158 -116.5t-244.5 -42q-215 0 -373.5 92t-243.5 253t-85 365t85 365.5t243.5 252.5t373.5 91q141 0 244.5 -41t158 -115t54.5 -182t-86 -189t-216 -81t-214 81t-84 206t102 203q-154 -6 -268.5 -84t-177 -210t-62.5 -296t62.5 -296t179.5 -211t270 -85
q-106 76 -106 203z" />
    <glyph glyph-name="tm_VowelAi" unicode="&#xbc8;" horiz-adv-x="2500" 
d="M682 80q92 0 152.5 59.5t60.5 151.5t-60.5 151.5t-152.5 59.5t-151.5 -59.5t-59.5 -151.5t59.5 -151.5t151.5 -59.5zM1309 356q0 -119 48 -192.5t135 -73.5t134 74t47 198t-54 236.5t-155 194.5q-155 -172 -155 -437zM1569 881q258 -210 258 -536q0 -165 -90 -273.5
t-246 -108.5t-246 108.5t-90 270.5q0 313 197 522q-180 96 -400 96t-372 -63t-235 -176t-83 -271t107 -264q-21 47 -21 123t43 151t120 116.5t174 41.5t178 -41.5t126 -116.5t45 -168t-46 -168t-128 -118t-184 -43q-174 0 -302 65.5t-196.5 180.5t-68.5 275t102 302
t289.5 221.5t431.5 79.5q301 0 524 -131q179 131 395 131q172 0 294 -67.5t184.5 -187.5t62.5 -264q0 -312 -174 -597l-145 29q82 117 125 271.5t43 283.5q0 182 -99.5 294t-273.5 112t-299 -80z" />
    <glyph glyph-name="tm_VowelO" unicode="&#xbca;" horiz-adv-x="3966" 
d="M471 291q0 -91 59 -151q60 -60 152 -60t153 59q60 59 60 151t-60 152q-60 59 -153 59t-152 -59t-59 -151zM1421 0h-145v707q0 260 -129 404t-363 144q-160 -1 -278 -77t-180 -213q-64 -137 -64 -337t86 -349v12q0 94 43 169t120 117q77 41 174 41t178 -42t126 -116
q45 -75 45 -168t-46 -168t-128 -118t-184 -43q-164 0 -293 88t-202 245q-73 158 -73 362t83 370t237 260t354 94t342 -80q142 -81 220 -234t77 -361v-707zM3383 0v936h-471v-936h-143v1051h1130l17 -115h-385v-936h-148zM2089 0q-27 0 -43 16t-16 43t16 44t43 17t43 -16
q16 -18 16 -45t-16 -43t-43 -16zM2273 31q-27 0 -43 16t-16 43t16 44q16 18 43 18t43 -18t16 -44q0 -27 -16 -43t-43 -16zM1966 90q0 -27 -16 -43t-43 -16t-43 16t-17 43q1 27 17 44q16 18 43 18t43 -18t16 -44zM2372 193q0 27 16 43t43 16t44 -16t17 -43t-17 -43t-44 -16
t-43 16t-16 43zM1749 252q27 0 43 -16t16 -43t-16 -43t-43 -16t-44 16t-17 43t17 43t44 16zM2527 297q-27 0 -43 16t-16 43t16 43q16 17 43 17t43 -16t16 -44q0 -27 -16 -43t-43 -16zM1712 356q0 -27 -16 -43t-43 -16t-44 16t-18 43q1 27 18 43q17 17 44 17t43 -16t16 -44z
M2556 469q-27 0 -43 15t-16 42t16 44q16 18 43 18t44 -18t17 -44q0 -27 -17 -42t-44 -15zM1683 526q0 -27 -16 -42t-43 -15t-44 15t-17 42t17 44q17 18 44 18t43 -18t16 -44zM2527 643q-27 0 -43 16t-16 43t16 44q16 18 43 18t43 -18t16 -44q0 -27 -16 -43t-43 -16z
M1712 702q0 -27 -16 -43t-43 -16t-44 16t-18 43q1 27 18 44q17 18 44 18t43 -18t16 -44zM2429 805q-27 0 -43 16t-16 43t16 44q16 18 43 18t44 -18t17 -44q0 -27 -17 -43t-44 -16zM1810 864q0 -27 -16 -43t-43 -16t-44 16t-17 43t17 44q17 18 44 18t43 -18t16 -44zM2214 969
q0 27 16 43t43 16t43 -16t17 -43q-2 -58 -60 -60q-27 1 -43 17t-16 43zM1907 1028q27 0 43 -16t16 -43t-16 -43t-43 -16t-43 16t-17 43q1 27 17 43t43 16zM2089 940q-27 0 -43 16t-16 43t16 44t43 17t43 -16q16 -18 16 -45t-16 -43t-43 -16z" />
    <glyph glyph-name="tm_VowelOo" unicode="&#xbcb;" horiz-adv-x="3772" 
d="M803 286q0 -72 47 -117q47 -46 118 -46q72 0 118 46t46 117q0 72 -46 118q-48 46 -118 46t-118 -46q-47 -46 -47 -118zM968 1225q-70 0 -118 -46q-47 -46 -47 -118t47 -118q48 -46 118 -46t117 46t47 117t-46 118q-48 47 -118 47zM966 572q130 0 216 -80t86 -188
t-54 -183q-54 -74 -158 -116q-103 -42 -245 -42q-215 0 -374 92t-243 253q-85 161 -85 365q0 203 85 365t243 253q159 91 374 91q141 0 245 -41t157 -115q55 -74 55 -182t-86 -189t-216 -81t-214 81t-84 206t102 203q-154 -6 -268 -84t-177 -210t-63 -296t62 -296t180 -211
q117 -79 270 -85q-108 78 -107 204t85 206t214 80zM3189 0v936h-471v-936h-144v1051h1131l16 -115h-385v-936h-147zM1892 0q-27 0 -43 16t-16 43t16 44t43 17t43 -16q16 -18 16 -45t-16 -43t-43 -16zM2077 31q-27 0 -43 16t-17 43q1 27 17 44q16 18 43 18t43 -18t16 -44
q0 -27 -16 -43t-43 -16zM1769 90q0 -27 -16 -43t-43 -16t-43 16t-16 43t16 44q16 18 43 18t43 -18t16 -44zM2175 193q0 27 16 43t43 16t44 -16t17 -43t-17 -43t-44 -16t-43 16t-16 43zM1552 252q27 0 43 -16q17 -16 17 -43t-16 -43t-44 -16q-27 0 -44 16t-17 43t17 43t44 16
zM2331 297q-27 0 -43 16t-17 43q1 27 17 43q16 17 43 17t43 -16t16 -44q0 -27 -16 -43t-43 -16zM1456 297q-27 0 -44 16t-17 43t17 43q17 17 44 17t43 -16q17 -16 17 -44q0 -27 -16 -43t-44 -16zM2359 469q-27 0 -43 15t-16 42t16 44q16 18 43 18t44 -18t17 -44
q0 -27 -17 -42t-44 -15zM1427 469q-27 0 -44 15t-17 42t17 44q17 18 44 18t43 -18t16 -44q0 -27 -16 -42t-43 -15zM2331 643q-27 0 -43 16t-17 43q1 27 17 44q16 18 43 18t43 -18t16 -44q0 -27 -16 -43t-43 -16zM1456 643q-27 0 -44 16t-17 43t17 44q17 18 44 18t43 -18
q17 -18 17 -44q0 -27 -16 -43t-44 -16zM2232 805q-27 0 -43 16t-16 43t16 44q16 18 43 18t44 -18t17 -44q0 -27 -17 -43t-44 -16zM1554 805q-27 0 -44 16t-17 43t17 44q17 18 44 18t43 -18q17 -18 17 -44q0 -27 -16 -43t-44 -16zM2077 1028q27 0 43 -16t16 -43t-16 -43
t-43 -16t-43 16t-17 43q1 27 17 43t43 16zM1710 1028q27 0 43 -16t16 -43t-16 -43t-43 -16t-43 16t-16 43t16 43t43 16zM1892 940q-27 0 -43 16t-16 43t16 44t43 17t43 -16q16 -18 16 -45t-16 -43t-43 -16z" />
    <glyph glyph-name="tm_VowelAu" unicode="&#xbcc;" horiz-adv-x="5177" 
d="M692 80q92 0 153 59q60 59 60 151t-60 152q-61 59 -153 59t-151 -59t-59 -151q0 -91 58 -151q60 -60 152 -60zM1432 707v-707h-146v707q0 260 -129 404t-362 144q-160 -1 -278 -77t-181 -213q-64 -137 -64 -337t86 -349v12q0 94 43 169t120 117q77 41 174 41t178 -42
t126 -116q45 -75 45 -168t-46 -168t-128 -118t-184 -43q-164 0 -293 88t-202 245q-73 158 -73 362t84 370q83 166 236 260q154 94 354 94t343 -80q143 -81 220 -234t77 -361zM3156 291q0 -91 59 -151t151 -60t153 59t61 151t-60 152q-60 59 -154 59q-92 0 -151 -59t-59 -151
zM4772 936v-936h-146v936h-512v-936h-145v467q0 141 -67 254q-66 113 -182 176t-266 63t-266 -60t-178 -168t-62 -268t101 -267q-16 49 -16 119t43 144q43 75 120 117q77 41 174 41t178 -42t126 -116q45 -75 45 -168t-46 -168t-128 -118t-184 -43q-174 0 -302 69
q-128 70 -197 188t-69 278t82 298t234 215t332 77q350 -1 528 -252v215h1171l17 -115h-385zM2126 0q-27 0 -43 16t-17 43q0 27 16 44t44 17q27 0 43 -16q16 -18 16 -45t-16 -43t-43 -16zM2310 31q-27 0 -43 16t-16 43t16 44q16 18 43 18t43 -18t16 -44q0 -27 -16 -43
t-43 -16zM2003 90q0 -27 -16 -43t-43 -16t-43 16t-17 43q1 27 17 44q16 18 43 18t43 -18t16 -44zM2468 252q27 0 44 -16t17 -43t-17 -43t-44 -16t-43 16t-17 43q0 27 16 43t44 16zM1786 252q27 0 43 -16t16 -43t-16 -43t-43 -16t-44 16t-18 43q1 27 18 43t44 16zM2564 297
q-27 0 -43 16t-16 43t16 43q16 17 43 17t43 -16t16 -44q0 -27 -16 -43t-43 -16zM1749 356q0 -27 -16 -43t-43 -16t-44 16t-18 43q1 27 18 43q17 17 44 17t43 -16t16 -44zM2593 469q-58 0 -60 57q1 27 17 44q16 18 43 18t44 -18t17 -44q0 -27 -17 -42t-44 -15zM1720 526
q0 -27 -16 -42t-43 -15t-44 15t-18 42q1 27 18 44q17 18 44 18t43 -18t16 -44zM2564 643q-27 0 -43 16t-16 43t16 44q16 18 43 18t43 -18t16 -44q0 -27 -16 -43t-43 -16zM1749 702q0 -27 -16 -43t-43 -16t-44 16t-18 43q1 27 18 44q17 18 44 18t43 -18t16 -44zM2466 805
q-27 0 -43 16t-17 43q0 27 16 44q16 18 44 18q27 0 44 -18t17 -44q0 -27 -17 -43t-44 -16zM1847 864q0 -27 -16 -43t-43 -16t-44 16t-18 43q1 27 18 44q17 18 44 18t43 -18t16 -44zM2251 969q0 27 16 43t43 16t43 -16t17 -43q-2 -58 -60 -60q-27 1 -43 17t-16 43zM1944 1028
q27 0 43 -16t16 -43t-16 -43t-43 -16t-43 16t-17 43q1 27 17 43t43 16zM2126 940q-27 0 -43 16t-17 43q0 27 16 44t44 17q27 0 43 -16q16 -18 16 -45t-16 -43t-43 -16z" />
    <glyph glyph-name="tm_Virama" unicode="&#xbcd;" horiz-adv-x="0" 
d="M-1 1307q-42 0 -69.5 28.5t-27.5 70.5t27.5 70.5t69.5 28.5t71.5 -28.5t29.5 -69.5t-29.5 -70.5t-71.5 -29.5z" />
    <glyph glyph-name="tm_Om" unicode="&#xbd0;" horiz-adv-x="1677" 
d="M952 -80q0 68 -43 68q-37 0 -37 -49v-78h31q20 0 34.5 17.5t14.5 41.5zM762 -139h61v80q0 39 20.5 64.5t63.5 25.5t68.5 -30t25.5 -79t-26.5 -77.5t-75.5 -28.5h-186v207l49 2v-164zM848 63q-31 0 -31 32t31 32q12 0 21.5 -9t9.5 -23.5t-9.5 -23t-21.5 -8.5zM299 454.5
q0 -55.5 35 -90t88 -34.5h2q55 0 91 34t37 90t-35 91t-91 35t-91 -35t-36 -90.5zM967 272v279h133q2 -80 47 -131t116 -51t109.5 55.5t38.5 157.5t-75.5 192t-208 141.5t-293.5 51.5t-288.5 -46.5t-207.5 -127t-96 -187.5q70 90 186 90t189 -67t73 -175t-75 -176.5
t-179 -68.5t-178 44t-115 122t-41 176q0 156 93.5 279.5t259 193.5t375.5 70t378 -68t262.5 -187t94.5 -267t-83 -239t-218 -91q-94 0 -164 51v-21q0 -112 63.5 -170.5t186.5 -58.5h141v-115h-141q-55 0 -113 11v-41q0 -100 -49 -179t-138 -123.5t-206 -44.5t-208 44.5
t-141.5 123t-50.5 179.5v102h146v-102q0 -96 70.5 -158t185.5 -62t184.5 60.5t69.5 159.5v98q-133 95 -133 276z" />
    <glyph glyph-name="tm_AuLengthMark" unicode="&#xbd7;" horiz-adv-x="2492" 
d="M471 291q0 -92 59.5 -151.5t151.5 -59.5t152.5 59.5t60.5 151.5t-60.5 151.5t-152.5 59.5t-151.5 -59.5t-59.5 -151.5zM2087 936v-936h-145v936h-512v-936h-146v467q0 141 -66.5 254t-182 176.5t-266.5 63.5t-266.5 -60.5t-178 -168t-62.5 -247.5q0 -180 103 -288
q-45 139 12 238.5t134 141t174 41.5t178 -41.5t126 -116.5t45 -168t-46 -168t-128 -118t-184 -43q-174 0 -302 68.5t-196.5 187.5t-68.5 279t81.5 298t233.5 214.5t332 76.5q350 0 528 -251v215h1172l16 -115h-385z" />
    <glyph glyph-name="tm_Zero" unicode="&#xbe6;" horiz-adv-x="1456" 
d="M1194 526q0 125 -60.5 224.5t-167 155t-238.5 55.5t-237.5 -55.5t-167 -155t-61.5 -224.5t61.5 -224t167 -155.5t237.5 -56.5t238.5 56.5t167 155.5t60.5 224zM1348 525q0 -161 -81 -288.5t-222.5 -200.5t-316.5 -73t-316.5 73t-222 201.5t-80.5 288.5t80.5 288
t222 200.5t316.5 72.5t316.5 -72.5t222.5 -200.5t81 -289z" />
    <glyph glyph-name="tm_One" unicode="&#xbe7;" horiz-adv-x="1538" 
d="M512 496q-129 0 -199.5 -56.5t-70.5 -147.5t69.5 -146.5t184.5 -55.5q158 0 246.5 89t88.5 241v76h-319zM481 610h350v326h-350v-326zM1473 287q0 -94 -53.5 -167t-154 -115t-237.5 -42v117q139 0 214 56.5t75 150.5t-67.5 151.5t-194.5 57.5h-78v-76
q0 -135 -58.5 -238.5t-168 -161t-241.5 -57.5t-225.5 42t-144.5 116.5t-51 174.5t64.5 179.5t183.5 112.5v463h979l18 -115h-356v-326h76q196 0 308 -90t112 -233z" />
    <glyph glyph-name="tm_Two" unicode="&#xbe8;" horiz-adv-x="1593" 
d="M209 555q0 -76 51 -127t131 -51t129 50t49 126t-50 125t-129 49t-130 -48t-51 -124zM1573 0h-1413v117h467q131 0 235.5 56t163.5 157.5t59 222.5t-54 212t-152.5 143.5t-215.5 52.5q-224 0 -352 -132q45 10 84 11q137 0 226.5 -82t89.5 -208t-89.5 -209t-229.5 -83
t-232 85t-92 227t75.5 262t209.5 187.5t303 67.5t302.5 -68.5t207 -188.5t73.5 -266t-59.5 -261t-169.5 -186h563v-117z" />
    <glyph glyph-name="tm_Three" unicode="&#xbe9;" horiz-adv-x="1693" 
d="M1442 389q0 -170 -131 -272h362v-117h-968v117h278q150 0 227.5 77.5t77.5 191.5t-54 179.5t-154 65.5t-165 -71t-65 -179v-70h-145v625h-371v-936h-144v1051h1031l16 -115h-387v-274q98 94 251 94t247 -98.5t94 -268.5z" />
    <glyph glyph-name="tm_Four" unicode="&#xbea;" horiz-adv-x="1693" 
d="M512 496q-129 0 -199.5 -56.5t-70.5 -147.5t69.5 -146.5t184.5 -55.5q158 0 246.5 89t88.5 241v76h-319zM481 610h350v326h-350v-326zM977 496v-76q0 -135 -58.5 -238.5t-168 -161t-241.5 -57.5t-225.5 42t-144.5 116.5t-51 174.5t64.5 179.5t183.5 112.5v463h979
l18 -115h-356v-326h498v441h133v-555h-631z" />
    <glyph glyph-name="tm_Five" unicode="&#xbeb;" horiz-adv-x="2603" 
d="M2267 688q0 233 -112.5 414.5t-326.5 283t-518 101.5t-534.5 -126t-351.5 -350.5t-121 -502.5t104.5 -481t299.5 -313.5t441 -110.5t418.5 78.5t266.5 225.5t94 325q0 368 -223 368q-100 0 -167 -75.5t-67 -192.5v-332h-143v936h-397v-936h-146v1051h1057l17 -115h-388
v-313q96 102 238 102q174 0 274.5 -132t100.5 -354t-115 -397.5t-322.5 -270.5t-497.5 -95t-520.5 127t-354 359t-123.5 548t141 567.5t406.5 394t611.5 142.5t593.5 -118t379 -326.5t131.5 -477.5v-692h-146v688z" />
    <glyph glyph-name="tm_Six" unicode="&#xbec;" horiz-adv-x="2213" 
d="M831 420v76h-319q-129 0 -199.5 -56.5t-70.5 -147.5t69.5 -146.5t184.5 -55.5q157 0 246 89t89 241zM481 610h350v326h-350v-326zM1622 645q150 0 245 -90t95 -224t-90 -214h321v-117h-634v117q117 0 183 58.5t66 146.5t-54 141t-150 53t-162 -66.5t-66 -170.5v-279h-145
v279q0 98 -63.5 156.5t-190.5 60.5v-76q0 -135 -58.5 -238.5t-168 -161t-241.5 -57.5t-225.5 42t-144.5 116.5t-51 174.5t64.5 179.5t183.5 112.5v463h979l18 -115h-356v-326q226 -4 328 -127q51 76 134 119t183 43z" />
    <glyph glyph-name="tm_Seven" unicode="&#xbed;" horiz-adv-x="1552" 
d="M471 291q0 -92 59.5 -151.5t151.5 -59.5t152.5 59.5t60.5 151.5t-60.5 151.5t-152.5 59.5t-151.5 -59.5t-59.5 -151.5zM1368 0h-147v936h-424q-268 0 -401.5 -121t-133.5 -315t103 -303q-45 139 12 238.5t134 141t174 41.5t178 -41.5t126 -116.5t45 -168t-46 -168
t-128 -118t-184 -43q-174 0 -302 68.5t-196.5 187.5t-68.5 277t74.5 284.5t225 198.5t369.5 72l590 2v-1053z" />
    <glyph glyph-name="tm_Eight" unicode="&#xbee;" horiz-adv-x="2187" 
d="M315 141q-94 0 -94 -88q0 -57 57.5 -108t161 -82t234.5 -31q211 0 371.5 82t248.5 227h-979zM1384 482q0 130 -51 242t-147 174.5t-215 62.5t-201 -45.5t-128 -125.5t-46 -182t44 -182t123 -125t179 -45h408q34 96 34 226zM610 256q-170 130 -170 368q0 124 66.5 232.5
t184 169.5t279.5 61t294.5 -78.5t204 -219t71.5 -318.5q0 -111 -29 -215h340v795h146v-1309h-146v399h-385q-96 -203 -304 -319.5t-488 -116.5q-176 0 -314.5 45t-215 125t-76.5 175t63.5 150.5t179.5 55.5h299z" />
    <glyph glyph-name="tm_Nine" unicode="&#xbef;" horiz-adv-x="1982" 
d="M1243 219q0 -57 30 -94t76 -37t75.5 37t29.5 101t-29.5 123t-83.5 95q-98 -85 -98 -225zM512 496q-129 0 -199.5 -56.5t-70.5 -147.5t69.5 -146.5t184.5 -55.5q158 0 246.5 89t88.5 241v76h-319zM481 610h350v326h-350v-326zM1597 219q0 -111 -70.5 -183.5t-178.5 -72.5
t-178 71.5t-70 184.5q0 160 100 277h-223v-76q0 -135 -58.5 -238.5t-168 -161t-241.5 -57.5t-225.5 42t-144.5 116.5t-51 174.5t64.5 179.5t183.5 112.5v463h979l18 -115h-356v-326h215q70 0 131 -18q100 53 218 53t201 -45t128 -124t45 -172t-18.5 -160.5t-57.5 -155.5
l-149 12q71 142 71 297q0 102 -56 161.5t-153 59.5q-37 0 -82 -10q127 -114 127 -289z" />
    <glyph glyph-name="tm_Ten" unicode="&#xbf0;" horiz-adv-x="1632" 
d="M1526 479q0 -242 -100.5 -379t-305.5 -137t-303 160q-98 -160 -304 -160t-305 137.5t-99 378.5q0 131 43 295t129 305l147 -28q-82 -115 -125 -279t-43 -295q0 -385 242 -385q125 0 183 85t58 253v262h146v-262q0 -338 241.5 -338t241.5 385q0 131 -43 295t-125 279
l148 28q86 -141 130 -305t44 -295z" />
    <glyph glyph-name="tm_Hundred" unicode="&#xbf1;" horiz-adv-x="2015" 
d="M540 1087q169 0 267 -124v88h1171l17 -115h-385v-936h-146v936h-512v-936h-145v635q0 147 -67.5 236.5t-194.5 89.5q-231 0 -232 -297v-664h-143v664q0 209 100.5 316t269.5 107z" />
    <glyph glyph-name="tm_Thousand" unicode="&#xbf2;" horiz-adv-x="2232" 
d="M1364 176q-88 0 -135 -37t-47 -98t51 -99t149 -38t167 63.5t69 169.5v39h-254zM512 496q-129 0 -199.5 -56.5t-70.5 -147.5t69.5 -146.5t184.5 -55.5q158 0 246.5 89t88.5 241v76h-319zM481 610h350v326h-350v-326zM2165 -88q0 -113 -56.5 -204t-158 -142t-232.5 -51
h-305q-117 0 -179.5 -25t-94.5 -74l-115 70q72 143 387 143h307q133 0 214 81t81 199t-61.5 192.5t-155.5 74.5h-31v-39q0 -168 -109.5 -264t-272.5 -96t-259 74.5t-96 188.5t90 182.5t242 68.5h258v205h-641v-76q0 -135 -58.5 -238.5t-168 -161t-241.5 -57.5t-225.5 42
t-144.5 116.5t-51 174.5t64.5 179.5t183.5 112.5v463h979l18 -115h-356v-326h1104l8 -114h-324v-205h29q109 0 193 -48t131 -133t47 -198z" />
    <glyph glyph-name="tm_Naal" unicode="&#xbf3;" horiz-adv-x="1800" 
d="M471 291q0 -92 59.5 -151.5t151.5 -59.5t152.5 59.5t60.5 151.5t-60.5 151.5t-152.5 59.5t-151.5 -59.5t-59.5 -151.5zM1430 522q0 -221 -125 -405h475v-117h-650l3 117q141 171 141 405q0 127 -61.5 226.5t-173 156t-263.5 56.5t-270.5 -60.5t-181 -168t-62.5 -247.5
q0 -180 103 -288q-45 139 12 238.5t134 141t174 41.5t178 -41.5t126 -116.5t45 -168t-46 -168t-128 -118t-184 -43q-174 0 -302 68.5t-196.5 187.5t-68.5 279t82.5 298t235.5 214.5t348 76.5t343 -72.5t230 -201.5t82 -291z" />
    <glyph glyph-name="tm_Maatham" unicode="&#xbf4;" horiz-adv-x="2473" 
d="M1139 961q-102 0 -161.5 -68t-59.5 -205v-571h241q143 0 211 95.5t68 287.5t-78 326.5t-221 134.5zM1479 1370q0 -57 30.5 -94t78.5 -37t78 37.5t30 101.5q0 141 -97 221q-120 -86 -120 -229zM1841 1370q0 -113 -71.5 -183.5t-181.5 -70.5t-182.5 70.5t-72.5 183.5
q0 168 137 293q-53 8 -86 8q-139 0 -226 -86t-87 -221q0 -98 39 -173t107 -112q178 -31 276 -196t98 -395t-109.5 -359t-322.5 -129h-969v1051l144 10v-944h436v567q0 160 66.5 259t185.5 130q-104 115 -104 291q0 125 58 224.5t164.5 154.5t233.5 55t230 -51q116 51 240 51
t215 -43t141.5 -117.5t50.5 -183.5t-78 -186h301v-115h-561v115q84 0 135 56t51 144t-67.5 145.5t-178.5 57.5q-66 0 -127 -16q115 -115 115 -285z" />
    <glyph glyph-name="tm_Varudam" unicode="&#xbf5;" horiz-adv-x="3598" 
d="M967 291q0 -92 60 -151.5t152.5 -59.5t152 59.5t59.5 151.5t-59.5 151.5t-152 59.5t-152.5 -59.5t-60 -151.5zM3492 230q0 -230 -133 -404t-378 -262t-579 -88h-1073q-362 0 -628.5 107.5t-408.5 304t-142 460.5q0 195 83.5 398.5t212.5 324.5l150 -20
q-127 -104 -210 -303t-83 -415t124 -386t356.5 -263.5t545.5 -93.5h1073q285 -4 496 72t325.5 224.5t114.5 363.5q0 160 -57 255t-163 95t-171 -75.5t-65 -192.5v-332h-146v936h-387v-936h-721v117q144 175 144 405q0 127 -60.5 226.5t-173 156t-264.5 56.5t-270.5 -60.5
t-182 -168t-63.5 -247.5q0 -184 104 -290q-16 49 -16 96q0 143 94 235t240 92q100 0 180 -41.5t125 -116.5t45 -168t-46 -168t-127 -118t-183 -43q-174 0 -303.5 68.5t-198 187.5t-68.5 279t83 298t236 214.5t349 76.5t342.5 -72.5t228.5 -201.5t82 -291q0 -224 -125 -405
h404v934h1046l17 -115h-385v-313q90 102 249 102q160 0 260.5 -132.5t100.5 -362.5z" />
    <glyph glyph-name="tm_Patru" unicode="&#xbf6;" horiz-adv-x="2007" 
d="M477 -301q-133 0 -133 -121q0 -60 82 -102.5t242 -42.5t289.5 72.5t164.5 193.5h-645zM624 -694q-188 0 -311 77t-123 191t76 177t211 63h658v186h-945v1051l144 10v-944h801v934h145v-1237h391v1237h146v-1352h-545q-23 -117 -108 -206t-218.5 -138t-321.5 -49z" />
    <glyph glyph-name="tm_Varavu" unicode="&#xbf7;" horiz-adv-x="2729" 
d="M1696 219q0 -57 29.5 -94t74.5 -37t75 37t30 99t-27 117.5t-74 92.5q-108 -83 -108 -215zM471 291q0 -92 59.5 -151.5t151.5 -59.5t152.5 59.5t60.5 151.5t-60.5 151.5t-152.5 59.5t-151.5 -59.5t-59.5 -151.5zM2050 219q0 -113 -70.5 -184.5t-179 -71.5t-179.5 71.5
t-71 184.5q0 156 121 273q-29 4 -43 4h-260v-496h-147v936h-424q-268 0 -401.5 -121t-133.5 -315t103 -303q-45 139 12 238.5t134 141t174 41.5t178 -41.5t126 -116.5t45 -168t-46 -168t-128 -118t-184 -43q-174 0 -302 68.5t-196.5 187.5t-68.5 277t74.5 284.5t225 198.5
t369.5 72h959l16 -115h-385v-326h277q82 0 155 -28q124 63 262 63t231 -43t144 -117.5t51 -183.5t-80 -184h302v-117h-562v117q84 0 135.5 54t51.5 143t-70 146.5t-169 57.5t-163 -20q117 -108 117 -279z" />
    <glyph glyph-name="tm_Merpadi" unicode="&#xbf8;" horiz-adv-x="3815" 
d="M682 80q92 0 152.5 59.5t60.5 151.5t-60.5 151.5t-152.5 59.5t-151.5 -59.5t-59.5 -151.5t59.5 -151.5t151.5 -59.5zM3205 117h277v573q-115 -154 -277 -225v-348zM1309 356q0 -119 48 -192.5t135 -73.5t134 74t47 198t-54 236.5t-155 194.5q-155 -172 -155 -437z
M3060 745q0 98 -51.5 157t-144.5 59t-144 -56.5t-51 -150.5t71.5 -156.5t190.5 -62.5q68 0 129 18v192zM1569 881q258 -210 258 -536q0 -165 -90 -273.5t-246 -108.5t-246 108.5t-90 270.5q0 313 197 522q-180 96 -400 96t-372 -63t-235 -176t-83 -271t107 -264
q-21 47 -21 123t43 151t120 116.5t174 41.5t178 -41.5t126 -116.5t45 -168t-46 -168t-128 -118t-184 -43q-174 0 -302 65.5t-196.5 180.5t-68.5 275t102 302t289.5 221.5t431.5 79.5q301 0 524 -131q179 131 395 131q172 0 294 -67.5t184.5 -187.5t62.5 -306t-98 -409h766
v303q-62 -12 -156 -12t-188.5 45t-147.5 124.5t-53 178.5q0 147 95 239t253 92t250 -91t92 -240v-138q158 102 277 318h145v-936h-422v-498h-145v498h-922v117q103 223 103 421q0 199 -99.5 311t-273.5 112t-299 -80z" />
    <glyph glyph-name="tm_Rupee" unicode="&#xbf9;" horiz-adv-x="2230" 
d="M1894 1383q0 44 -29.5 74t-74.5 30t-74.5 -30t-29.5 -74t29.5 -73.5t74.5 -29.5t74.5 29.5t29.5 73.5zM2124 236q0 -224 -114 -399t-323 -268t-515 -93t-541.5 134t-358 380t-122.5 588t139 623.5t390 439t574 157.5q221 0 393.5 -56t266.5 -149.5t94 -193.5
t-61.5 -160.5t-157.5 -60.5t-159.5 59t-63.5 141t43 135.5t116 71.5q-180 84 -465 84t-500.5 -141.5t-335.5 -391.5t-120 -558t103.5 -525t303.5 -333.5t462 -116.5t436 76.5t267 221.5t93 327t-56.5 277t-161.5 95t-172 -75.5t-67 -192.5v-332h-143v936h-438v-936h-146
v1051h1098l16 -115h-387v-313q92 102 252 102t260.5 -132.5t100.5 -356.5z" />
    <glyph glyph-name="tm_Enn" unicode="&#xbfa;" horiz-adv-x="2041" 
d="M1047 1370q0 -57 31.5 -94t78.5 -37t78 37.5t31 101.5q0 141 -97 221q-122 -88 -122 -229zM487 1364q0 125 58.5 224.5t165 154.5t232.5 55t228 -51q115 51 240 51t216 -43t142.5 -118.5t51.5 -182.5t-80 -186h301v-115h-559v115q84 0 134 55t50 144t-68.5 146.5
t-177.5 57.5q-66 0 -127 -16q115 -115 115 -285q0 -115 -70.5 -184.5t-181 -69.5t-182.5 69.5t-72 184.5q0 171 137 291q-47 10 -88 10q-139 0 -225 -86t-86 -222t72.5 -224t191.5 -88h316l16 -115h-387v-313q90 102 250 102q161 0 260.5 -132.5t99.5 -324.5t-64.5 -328.5
t-187.5 -212t-290 -75.5h-279q-233 0 -332 -150l-117 64q49 90 162 145.5t273 55.5h293q184 0 286.5 133t102.5 350q0 160 -56.5 255t-162.5 95t-172 -75.5t-66 -192.5v-332h-145v936h-371v-936h-144v1051h422q-125 117 -125 313z" />
    <glyph glyph-name="uni200C" unicode="&#x200c;" horiz-adv-x="0" 
d="M61 2533v-2672h-122v2672h122z" />
    <glyph glyph-name="uni200D" unicode="&#x200d;" horiz-adv-x="0" 
d="M61 -139h-122v2466l-91 -89l-79 80l151 152l-151 151l81 82l150 -151l152 151l81 -82l-151 -151l151 -152l-79 -80l-93 91v-2468z" />
    <glyph glyph-name="endash" unicode="&#x2013;" horiz-adv-x="901" 
d="M80 496l-19 129h760l19 -129h-760z" />
    <glyph glyph-name="emdash" unicode="&#x2014;" horiz-adv-x="1101" 
d="M80 496l-19 129h963l16 -129h-960z" />
    <glyph glyph-name="quoteleft" unicode="&#x2018;" horiz-adv-x="354" 
d="M171 991q-46 0 -78 35.5t-32 113.5t60.5 175.5t146.5 142.5l45 -78q-57 -41 -87.5 -77.5t-37.5 -90.5q39 -2 67 -34.5t28 -75.5t-33 -77t-79 -34z" />
    <glyph glyph-name="quoteright" unicode="&#x2019;" horiz-adv-x="354" 
d="M180 1458q45 0 79 -36t34 -114t-61.5 -175t-147.5 -142l-43 76q55 39 85 78t36 92q-39 2 -66.5 36t-27.5 76t33.5 75.5t78.5 33.5z" />
    <glyph glyph-name="quotesinglbase" unicode="&#x201a;" horiz-adv-x="354" 
d="M181 219q46 0 79 -34.5t33 -112.5t-60.5 -175.5t-148.5 -142.5l-43 76q110 78 121 172q-37 2 -65.5 35t-28.5 75t33.5 74.5t79.5 32.5z" />
    <glyph glyph-name="quotedblleft" unicode="&#x201c;" horiz-adv-x="673" 
d="M491.5 991q-45.5 0 -77 37t-31.5 92q0 98 59.5 195.5t147.5 142.5l43 -78q-57 -39 -87 -76.5t-34 -91.5q37 -4 64.5 -36.5t27.5 -74.5t-33.5 -76t-79 -34zM171 991q-46 0 -78 35.5t-32 113.5t60.5 175.5t146.5 142.5l45 -78q-57 -41 -87.5 -77.5t-37.5 -90.5
q39 -2 67 -34.5t28 -75.5t-33 -77t-79 -34z" />
    <glyph glyph-name="quotedblright" unicode="&#x201d;" horiz-adv-x="671" 
d="M500 1458q45 0 77.5 -36t32.5 -114t-60.5 -175t-146.5 -142l-43 76q55 39 85 78t38 92q-39 2 -66.5 36t-27.5 76t33 75.5t78 33.5zM180 1458q45 0 79 -36t34 -114t-61.5 -175t-147.5 -142l-43 76q55 39 85 78t36 92q-39 2 -66.5 36t-27.5 76t33.5 75.5t78.5 33.5z" />
    <glyph glyph-name="quotedblbase" unicode="&#x201e;" horiz-adv-x="671" 
d="M461 72q0 -78 -60.5 -175.5t-146.5 -142.5l-4 8l-17 -8l-40 78q55 41 84.5 79t35.5 91q-37 2 -65.5 35t-28.5 75t33 74.5t78 32.5q6 2 20 2q45 0 78 -35.5t33 -113.5z" />
    <glyph glyph-name="dagger" unicode="&#x2020;" horiz-adv-x="802" 
d="M317 1280v324l172 -7v-317h213l39 -135h-252l-20 -1153l-131 8l-21 1145h-217l-39 135h256z" />
    <glyph glyph-name="daggerdbl" unicode="&#x2021;" horiz-adv-x="813" 
d="M752 365h-265l11 -363l-185 -14l11 377h-224l-39 137h256l7 575h-224l-39 140h267l-11 387l183 -7l-11 -380h224l39 -140h-256l-7 -575h224z" />
    <glyph glyph-name="bullet" unicode="&#x2022;" horiz-adv-x="485" 
d="M243.5 492q-75.5 0 -129 52t-53.5 127t53.5 128t129 53t128 -54t52.5 -128t-52.5 -126t-128 -52z" />
    <glyph glyph-name="ellipsis" unicode="&#x2026;" horiz-adv-x="950" 
d="M461 207h28q43 0 74 -30t31 -74t-31 -73.5t-74 -29.5h-28q-43 0 -74 29.5t-31 73.5t31 74t74 30z" />
    <glyph glyph-name="perthousand" unicode="&#x2030;" horiz-adv-x="2525" 
d="M2136 567q-72 0 -123 -54t-51 -164.5t50 -167t122 -56.5t123 56.5t51 165t-50 164.5t-122 56zM1378.5 567q-71.5 0 -123 -54t-51.5 -164.5t50 -167t122 -56.5t122 56.5t50 165t-49 164.5t-120.5 56zM2134 692q145 0 235.5 -92t90.5 -254q0 -104 -44 -182t-118 -121
t-162 -43q-145 0 -235.5 92t-90.5 254q0 104 43 182t117 121t164 43zM1378 692q141 0 231.5 -92t90.5 -254q0 -104 -43 -182t-117 -121t-162 -43q-143 0 -234 92t-91 254q0 104 43 182t117.5 121t164.5 43zM393 1311q-72 0 -123 -55.5t-51 -165.5t49 -165t122 -55t123 54.5
t50 165t-49 166t-121 55.5zM391 1438q143 0 234.5 -93.5t91.5 -254.5q0 -104 -44 -182.5t-118 -121.5t-162 -43q-145 0 -235 92.5t-90 254.5q0 104 44 183t117.5 122t161.5 43zM647 -8l-155 8l624 1454l158 -8z" />
    <glyph glyph-name="guilsinglleft" unicode="&#x2039;" horiz-adv-x="444" 
d="M403 285l-45 -115l-297 283v98l297 285l45 -117l-208 -217z" />
    <glyph glyph-name="guilsinglright" unicode="&#x203a;" horiz-adv-x="446" 
d="M41 719l47 117l297 -285v-98l-297 -283l-47 115l213 217z" />
    <glyph glyph-name="fraction" unicode="&#x2044;" horiz-adv-x="823" 
d="M176 -8l-156 8l627 1454l156 -8z" />
    <glyph glyph-name="Euro" unicode="&#x20ac;" horiz-adv-x="1224" 
d="M817 -29q-242 0 -399.5 130t-214.5 345h-183l-20 125h178q-6 59 -6 125t8 121h-160l-20 123h207q61 219 225 350t397 131q76 0 181.5 -21.5t165.5 -58.5l-52 -116q-82 31 -141 44t-156 13q-150 0 -268.5 -92t-175.5 -250h506l18 -123h-555q-10 -67 -10 -131t8 -115h539
l18 -125h-528q53 -154 164.5 -243.5t276.5 -89.5t296 61l64 -123q-64 -33 -169.5 -56.5t-193.5 -23.5z" />
    <glyph glyph-name="Turkishlira" unicode="&#x20ba;" horiz-adv-x="1017" 
d="M315 0h-139v717l-153 -55l-23 120l176 64v102l-153 -55l-23 121l176 61v350l162 21v-311l367 129l24 -119l-391 -137v-107l367 129l24 -119l-391 -137v-633q117 0 227.5 73t179 195.5t68.5 260.5h164q0 -188 -93 -342t-246 -241t-323 -87z" />
    <glyph glyph-name="Ruble" unicode="&#x20bd;" horiz-adv-x="1150" 
d="M555 664q162 0 260 72.5t103 224.5q0 162 -88.5 228t-258.5 66h-219v-591h203zM352 414h594l15 -123h-609v-291h-162v291h-108l-14 123h122v121h-108l-14 122h122v736h379q236 0 375 -103.5t138 -321.5t-150.5 -330t-382.5 -112h-197v-112z" />
    <glyph glyph-name="litre" unicode="&#x2113;" horiz-adv-x="749" 
d="M324 1147v-387q203 229 202 399q0 141 -94 141q-47 -2 -77.5 -37.5t-30.5 -115.5zM160 1151q0 133 76.5 210t193.5 77t187.5 -74t70.5 -204t-102.5 -290.5t-261.5 -308.5v-225q0 -109 27 -165t99 -56t148 39l55 -101q-81 -78 -223 -78t-206 88.5t-64 251.5v117
q-43 -37 -101 -70l-39 132q70 49 140 110v547z" />
    <glyph glyph-name="trademark" unicode="&#x2122;" horiz-adv-x="1495" 
d="M1284 627v479l-190 -270l-33 -7l-201 281v-483h-127v766h53l291 -385l275 385h57v-766h-125zM20 1288v105h594l13 -105h-242v-661h-129v661h-236z" />
    <glyph glyph-name="Ohm" unicode="&#x2126;" horiz-adv-x="1466" 
d="M1204 695q0 171 -60.5 305.5t-168 209t-242.5 74.5t-243.5 -74.5t-169 -209t-60.5 -305.5t71.5 -336.5t184.5 -227.5l8 -131h-424l-12 131h227q-104 84 -164.5 240.5t-60.5 344.5t77 351.5t223.5 258.5t342.5 99q197 -4 343.5 -99t223 -258.5t76.5 -351.5t-60.5 -344.5
t-164.5 -240.5h227l-12 -131h-424l6 131q113 62 184.5 227.5t71.5 336.5z" />
    <glyph glyph-name="estimated" unicode="&#x212e;" horiz-adv-x="1021" 
d="M524 883q-127 0 -199.5 -81t-86.5 -220h557q-35 301 -271 301zM68 500q0 152 54 269.5t159.5 184t248.5 66.5q218 0 321 -151.5t103 -397.5h-721q6 -168 91.5 -265t261.5 -97q80 0 146.5 20.5t158.5 65.5l51 -119q-184 -103 -354 -103q-254 0 -387 143.5t-133 383.5z" />
    <glyph glyph-name="partialdiff" unicode="&#x2202;" horiz-adv-x="1097" 
d="M566 883q-160 0 -246.5 -107.5t-87.5 -277.5t81.5 -278.5t230.5 -108.5t234 107.5t87 266.5t-27 281q-112 117 -272 117zM1032 504q0 -154 -58.5 -273.5t-170 -188.5t-260.5 -69t-256 66.5t-163 186.5t-56 273t59 270.5t170 184t239 66.5t228 -55q-156 290 -576 456
l48 115q403 -143 599.5 -409.5t196.5 -622.5z" />
    <glyph glyph-name="Delta" unicode="&#x2206;" horiz-adv-x="1247" 
d="M612 1180l-387 -1049h791zM1227 0h-1207l517 1393h155l535 -1368v-25z" />
    <glyph glyph-name="product" unicode="&#x220f;" horiz-adv-x="1271" 
d="M344 1274v-1274h-154v1393h893v-1393h-155v1274h-584z" />
    <glyph glyph-name="summation" unicode="&#x2211;" horiz-adv-x="925" 
d="M63 1393h746l18 -121h-594l369 -531v-67l-371 -545h635l19 -129h-824v129l402 578l-400 565v121z" />
    <glyph glyph-name="minus" unicode="&#x2212;" horiz-adv-x="978" 
d="M78 496l-17 129h834l23 -129h-840z" />
    <glyph glyph-name="divisionslash" unicode="&#x2215;" horiz-adv-x="823" 
d="M176 -8l-156 8l627 1454l156 -8z" />
    <glyph glyph-name="bulletmath" unicode="&#x2219;" horiz-adv-x="485" 
d="M243.5 492q-75.5 0 -129 52t-53.5 127t53.5 128t129 53t128 -54t52.5 -128t-52.5 -126t-128 -52z" />
    <glyph glyph-name="radical" unicode="&#x221a;" horiz-adv-x="1142" 
d="M182 657l262 -493l527 1290l151 -8l-594 -1454l-168 8l-340 649z" />
    <glyph glyph-name="infinity" unicode="&#x221e;" horiz-adv-x="1673" 
d="M472 805q-110 0 -182.5 -88t-72.5 -209t73.5 -201t187.5 -80t183.5 88t108.5 217l21 68q-49 92 -129 148.5t-190 56.5zM1458 526q0 120 -73.5 201.5t-186.5 81.5t-183.5 -91t-109.5 -214l-20 -70q115 -205 319 -205q110 0 182 88.5t72 208.5zM1194 92q-217 0 -377 215
q-135 -215 -332 -215q-123 0 -218 52.5t-147 146.5t-52 215t53 221t147 158.5t213 58.5q212 0 373 -213q135 213 336 213q123 0 218 -52t147.5 -147.5t52.5 -216t-52.5 -220t-146.5 -158t-215 -58.5z" />
    <glyph glyph-name="integral" unicode="&#x222b;" horiz-adv-x="686" 
d="M559 1464q-135 0 -135 -172v-1353q0 -141 -72.5 -223.5t-201.5 -82.5q-76 0 -150 33l37 129q51 -18 88 -18q137 0 137 170v1353q0 141 73 222.5t202 81.5q83 0 149 -33l-39 -129q-63 22 -88 22z" />
    <glyph glyph-name="approxequal" unicode="&#x2248;" horiz-adv-x="1036" 
d="M735 229q-86 0 -213 45q-126 45 -192 45q-144 0 -148 -81l-121 24q0 111 79.5 151t173.5 40t219 -45q125 -46 185 -46q130 -1 134 84l123 -28q0 -109 -77 -149t-163 -40zM719 598q-76 0 -199 45t-219 45q-37 0 -77 -20.5t-42 -63.5l-121 27q0 109 78.5 148.5t172.5 39.5
t220 -44t186 -44q130 0 134 84l123 -29q0 -188 -256 -188z" />
    <glyph glyph-name="notequal" unicode="&#x2260;" horiz-adv-x="1028" 
d="M61 778h488l127 287l141 -6l-123 -281h256l17 -125h-328l-117 -260h428l17 -125h-498l-135 -299l-141 11l129 288h-242l-19 125h316l115 260h-412z" />
    <glyph glyph-name="lessequal" unicode="&#x2264;" horiz-adv-x="684" 
d="M80 0l-17 123h562l12 -123h-557zM643 862l-420 -260l420 -260l-47 -125l-535 326v114l535 328z" />
    <glyph glyph-name="greaterequal" unicode="&#x2265;" horiz-adv-x="686" 
d="M59 0l-16 123h559l14 -123h-557zM41 862l47 123l537 -328v-114l-537 -326l-47 125l420 260z" />
    <glyph glyph-name="lozenge" unicode="&#x25ca;" horiz-adv-x="1095" 
d="M547 180l332 432l-332 439l-328 -439zM1034 637v-45l-454 -592h-64l-455 592v45l455 590h64z" />
    <glyph glyph-name="uni25CC" unicode="&#x25cc;" horiz-adv-x="1239" 
d="M618.5 0q-26.5 0 -43 16.5t-16.5 43t16.5 44t43 17.5t43 -17.5t16.5 -44t-16.5 -43t-43 -16.5zM802.5 31q-26.5 0 -43 16t-16.5 43t16.5 44.5t43 17.5t43 -17.5t16.5 -44.5t-16.5 -43t-43 -16zM436.5 152q26.5 0 43 -17.5t16.5 -44.5t-16.5 -43t-43 -16t-43 16t-16.5 43
t16.5 44.5t43 17.5zM960.5 133q-26.5 0 -43 16.5t-16.5 43t16.5 43t43 16.5t44 -16.5t17.5 -43t-17.5 -43t-44 -16.5zM278.5 252q26.5 0 43 -16.5t16.5 -43t-16.5 -43t-43 -16.5t-44 16.5t-17.5 43t17.5 43t44 16.5zM1056.5 297q-26.5 0 -43 16.5t-16.5 43t16.5 43t43 16.5
t43 -16.5t16.5 -43t-16.5 -43t-43 -16.5zM182.5 416q26.5 0 43 -16.5t16.5 -43t-16.5 -43t-43 -16.5t-44 16.5t-17.5 43t17.5 43t44 16.5zM1085.5 469q-26.5 0 -43 15.5t-16.5 42t16.5 44t43 17.5t44 -17.5t17.5 -44t-17.5 -42t-44 -15.5zM153.5 588q26.5 0 43 -17.5
t16.5 -44t-16.5 -42t-43 -15.5t-44 15.5t-17.5 42t17.5 44t44 17.5zM1056.5 643q-26.5 0 -43 16.5t-16.5 43t16.5 44t43 17.5t43 -17.5t16.5 -44t-16.5 -43t-43 -16.5zM182.5 764q26.5 0 43 -17.5t16.5 -44t-16.5 -43t-43 -16.5t-44 16.5t-17.5 43t17.5 44t44 17.5z
M958.5 805q-26.5 0 -43 16.5t-16.5 43t16.5 44t43 17.5t44 -17.5t17.5 -44t-17.5 -43t-44 -16.5zM280.5 926q26.5 0 43 -17.5t16.5 -44t-16.5 -43t-43 -16.5t-44 16.5t-17.5 43t17.5 44t44 17.5zM802.5 909q-26.5 0 -43 16.5t-16.5 43t16.5 43t43 16.5t43 -16.5t16.5 -43
t-16.5 -43t-43 -16.5zM436.5 1028q26.5 0 43 -16.5t16.5 -43t-16.5 -43t-43 -16.5t-43 16.5t-16.5 43t16.5 43t43 16.5zM618.5 940q-26.5 0 -43 16.5t-16.5 43t16.5 44t43 17.5t43 -17.5t16.5 -44t-16.5 -43t-43 -16.5z" />
    <glyph glyph-name="commaaccent" unicode="&#xf6c3;" horiz-adv-x="0" 
d="M152 -43q46 0 79 -36.5t33 -112.5t-58.5 -167.5t-142.5 -132.5l-43 78q106 66 115 150q-39 2 -66.5 34.5t-27.5 75.5t32.5 77t78.5 34z" />
    <glyph glyph-name="fi" unicode="&#xfb01;" horiz-adv-x="1032" 
d="M485 1292q-139 0 -139 -170v-145h182l54 -123h-236v-854h-162v854h-149l-2 123h151v156q0 139 75 222t204 83q84 0 149 -35l-37 -131q-40 20 -90 20zM741 993h164v-993h-164v993zM820 1192q-46 0 -77 31t-31 77t31 79q31 32 77 32t79 -33q33 -34 33 -78t-33 -76t-79 -32z
" />
    <glyph glyph-name="fl" unicode="&#xfb02;" horiz-adv-x="1071" 
d="M485 1292q-139 0 -139 -170v-145h182l54 -123h-236v-854h-162v854h-149l-2 123h151v156q0 139 75 222t204 83q84 0 149 -35l-37 -131q-40 20 -90 20zM924 0h-162v1425l162 21v-1446z" />
    <glyph glyph-name="grave.case" horiz-adv-x="329" 
d="M199 1833l110 -289l-108 -31l-181 320h179z" />
    <glyph glyph-name="dieresis.case" horiz-adv-x="579" 
d="M281 1763h18q43 0 71.5 -28.5t28.5 -69.5t-28.5 -70.5t-71.5 -29.5h-18q-41 0 -70 29.5t-29 70.5t30 69.5t69 28.5z" />
    <glyph glyph-name="macron.case" horiz-adv-x="544" 
d="M20 1604v129h488l16 -129h-504z" />
    <glyph glyph-name="acute.case" horiz-adv-x="329" 
d="M131 1833h178l-180 -320l-109 31z" />
    <glyph glyph-name="circumflex.case" horiz-adv-x="641" 
d="M621 1534l-148 -21l-154 201l-153 -201l-146 21l234 299h129z" />
    <glyph glyph-name="caron.case" horiz-adv-x="641" 
d="M20 1812l148 21l154 -201l153 201l146 -21l-234 -299h-129z" />
    <glyph glyph-name="breve.case" horiz-adv-x="591" 
d="M455 1817h116q0 -121 -69.5 -202t-205.5 -81t-206 81t-70 202h117q0 -63 42 -113.5t116 -50.5t117 50t43 114z" />
    <glyph glyph-name="dotaccent.case" horiz-adv-x="262" 
d="M132 1561q-46 0 -79 32.5t-33 77.5t34 79t79 34t77 -34t32 -79t-32 -77.5t-78 -32.5z" />
    <glyph glyph-name="ring.case" horiz-adv-x="421" 
d="M212 1614q36 0 61.5 24.5t25.5 61.5t-24.5 61.5t-61.5 24.5t-62.5 -24.5t-25.5 -61.5t25.5 -61.5t61.5 -24.5zM212 1880q79 0 134 -52t55 -128t-55 -126t-134 -50t-135.5 50t-56.5 126t56.5 128t135.5 52z" />
    <glyph glyph-name="tilde.case" horiz-adv-x="638" 
d="M618 1747q0 -106 -50 -153.5t-129 -47.5t-129 46t-90 46t-62.5 -22.5t-24.5 -61.5h-113q0 201 183 201q86 0 132 -45t87 -45q80 0 84 82h112z" />
    <glyph glyph-name="hungarumlaut.case" horiz-adv-x="643" 
d="M444 1833h179l-181 -320l-108 31zM131 1833h178l-180 -320l-109 31z" />
    <glyph glyph-name="tm_VowelAi.alt" horiz-adv-x="737" 
d="M291 1014q-39 0 -65.5 -26.5t-26.5 -65.5t25.5 -65t64.5 -26t65.5 26t26.5 65t-25.5 65.5t-64.5 26.5zM532 -37q-138 0 -234.5 83t-96.5 212q0 82 49 154.5t160 185.5l125 125q84 80 121.5 136t37.5 137t-59 136.5t-165 55.5t-183 -64h4q94 0 154.5 -56t60.5 -143
t-59.5 -145.5t-154.5 -58.5t-159.5 59.5t-64.5 158.5t53 186t147 138.5t206 51.5t196 -42t130 -117t46 -170t-57.5 -180t-159.5 -185l-127 -125q-80 -78 -114 -131t-34 -117t53.5 -111t140.5 -47t156.5 46t107.5 127t36 181h127q0 -137 -55.5 -246.5t-152.5 -172t-235 -62.5
z" />
    <glyph glyph-name="tm_VowelI.alt1" horiz-adv-x="524" 
d="M334 1030v-1030h-144v1030q0 139 -58 247.5t-165.5 169t-257.5 60.5t-235.5 -63.5t-85.5 -157.5t48 -159.5t134 -84.5l-170 -49q-76 45 -119 120t-44 170t57.5 176t167 127t273.5 46t305 -76.5t217 -214t77 -311.5z" />
    <glyph glyph-name="tm_VowelU.alt1" horiz-adv-x="0" 
d="M-334 72l144 8v-463l-144 -20v475z" />
    <glyph glyph-name="tm_VowelUu.alt1" horiz-adv-x="874" 
d="M322 -301v1237h-658v115h1172l18 -115h-387v-1237h-145z" />
    <glyph glyph-name="tm_VowelI.alt2" horiz-adv-x="524" 
d="M334 1030v-1030h-144v1030q0 139 -85 247.5t-243.5 169t-374.5 60.5t-328.5 -66.5t-112.5 -174.5q0 -76 38.5 -132.5t114.5 -80.5l-92 -80q-98 39 -154.5 117t-57.5 180t67.5 185t204 130t356.5 47t412.5 -76.5t295 -214t103.5 -311.5z" />
    <glyph glyph-name="tm_VowelI.alt3" horiz-adv-x="524" 
d="M334 1030v-1030h-144v1030q0 139 -67.5 247.5t-194.5 169t-289 60.5t-248.5 -63.5t-86.5 -165.5t69.5 -164.5t194.5 -62.5v-101q-188 0 -300 91.5t-114 234.5q0 102 58.5 183t166 127t250.5 46q215 0 374 -76.5t245 -214t86 -311.5z" />
    <glyph glyph-name="tm_VowelI.alt4" horiz-adv-x="524" 
d="M334 1030v-1030h-144v1030q0 139 -70.5 247.5t-204.5 169t-334 60.5t-312.5 -66.5t-112.5 -169.5t68.5 -161.5t195.5 -58.5v-101q-190 0 -300.5 86t-112.5 230q0 106 68.5 189t200.5 130t339 47t374 -76.5t256 -213t89 -312.5z" />
    <glyph glyph-name="tm_KU" horiz-adv-x="2174" 
d="M1085 496q-129 0 -199.5 -56.5t-70.5 -147.5t70.5 -146.5t183.5 -55.5q158 0 247 89t89 241v76h-320zM1055 610h350v326h-350v-326zM2068 141q0 -203 -109.5 -353t-316 -231t-505.5 -81t-525.5 108.5t-344 302t-117.5 443.5q0 197 84.5 409.5t211.5 331.5l150 -20
q-127 -104 -210 -311.5t-83 -415.5t98.5 -372.5t290 -256.5t445.5 -92t426 64.5t261 186t89 280.5t-84 260.5t-250 101.5h-29v-76q0 -135 -58 -238.5t-166 -161t-242 -57.5t-227 42t-144 116.5t-51 174.5t64.5 179.5t182.5 112.5v463h981l17 -115h-357v-326h27
q158 0 268.5 -63.5t166.5 -170t56 -235.5z" />
    <glyph glyph-name="tm_CU" horiz-adv-x="1656" 
d="M512 496q-129 0 -199.5 -56.5t-70.5 -147.5t69.5 -146.5t184.5 -55.5q158 0 246.5 89t88.5 241v76h-319zM481 610h350v326h-350v-326zM1366 0h-147v496h-242v-76q0 -135 -58.5 -238.5t-168 -161t-241.5 -57.5t-225.5 42t-144.5 116.5t-51 174.5t64.5 179.5t183.5 112.5
v463h979l18 -115h-356v-326h604l10 -114h-225v-496z" />
    <glyph glyph-name="tm_NyU" horiz-adv-x="2527" 
d="M326 -403q0 -164 432 -164q217 0 421.5 69.5t346.5 196.5h-1051q-74 0 -111.5 -27.5t-37.5 -74.5zM471 291q0 -92 59.5 -151.5t151.5 -59.5t152.5 59.5t60.5 151.5t-60.5 151.5t-152.5 59.5t-151.5 -59.5t-59.5 -151.5zM757 -694q-585 0 -585 291q0 98 81 157.5t222 59.5
h1153q139 190 139 436q0 160 -55.5 255t-161.5 95t-171.5 -75.5t-65.5 -192.5v-332h-148v936h-368q-268 0 -401.5 -121t-133.5 -315t103 -303q-45 139 12 238.5t134 141t174 41.5t178 -41.5t126 -116.5t45 -168t-46 -168t-128 -118t-184 -43q-174 0 -302 68.5t-196.5 187.5
t-68.5 277t74.5 284.5t225 198.5t369.5 72h903l17 -115h-385v-313q92 102 235 102q174 0 273.5 -130.5t99.5 -358.5t-115 -422h385v1237h146v-1352h-611q-154 -186 -411.5 -289.5t-557.5 -103.5z" />
    <glyph glyph-name="tm_TtU" horiz-adv-x="1677" 
d="M1571 195q0 -211 -84 -374t-243 -254t-381 -91t-384 102.5t-245.5 282.5t-83.5 413q0 131 36.5 286t102 292t149.5 219l146 -20q-82 -72 -145.5 -203t-99.5 -285.5t-36 -322.5t64.5 -317.5t191.5 -234.5t304 -85t301 74.5t187.5 208.5t63.5 308t-58.5 288t-164.5 114
t-170 -73.5t-64 -190.5v-332h-143v1051h143v-424q94 98 222 98t214.5 -71.5t131.5 -192.5t45 -266z" />
    <glyph glyph-name="tm_NnU" horiz-adv-x="3936" 
d="M459 -301q-63 0 -98 -23.5t-35 -62.5q0 -82 192.5 -132t538.5 -50q938 0 1456 268h-2054zM682 80q92 0 152.5 59.5t60.5 151.5t-60.5 151.5t-152.5 59.5t-151.5 -59.5t-59.5 -151.5t59.5 -151.5t151.5 -59.5zM1309 356q0 -119 48 -192.5t135 -73.5t134 74t47 198
t-53 234.5t-152 191.5q-159 -167 -159 -432zM2114 356q0 -119 48 -192.5t134 -73.5t133 74t47 203t-49 245.5t-139 198.5q-174 -174 -174 -455zM1575 874q252 -208 252 -530q0 -164 -90 -272.5t-246 -108.5t-246 108.5t-90 284.5q0 305 195 510q-182 94 -400 94t-370 -63
t-235 -176t-83 -271t107 -264q-21 47 -21 123t43 151t120 116.5t174 41.5t178 -41.5t126 -116.5t45 -168t-46 -168t-128 -118t-184 -43q-174 0 -302 65.5t-196.5 180.5t-68.5 275t102 302t289.5 221.5t431.5 79.5q301 0 524 -131q186 131 424 131t414 -108q166 109 362 108
q260 0 400.5 -156.5t140.5 -438.5q0 -397 -293 -678h696v1237h148v-1352h-985q-272 -190 -701.5 -291.5t-943.5 -101.5t-730 83t-216 224q0 90 75 145.5t212 55.5h2236q350 264 350 680q0 225 -97 346t-292 121q-137 0 -254 -64q228 -205 228 -547q0 -170 -91 -278.5
t-245 -108.5t-244 108.5t-90 274.5q0 328 221 543q-127 72 -298 72t-308 -87z" />
    <glyph glyph-name="tm_TU" horiz-adv-x="2084" 
d="M373 -301q-63 0 -97 -26.5t-34 -69.5q0 -76 90 -122t292 -46t356.5 70.5t238.5 193.5h-846zM512 496q-129 0 -199.5 -56.5t-70.5 -147.5t69.5 -146.5t184.5 -55.5q158 0 246.5 89t88.5 241v76h-319zM481 610h350v326h-350v-326zM616 -694q-264 0 -396 82t-132 215
q0 94 75 152.5t210 58.5h907q47 120 47 286t-84 281t-231 115h-35v-76q0 -135 -58.5 -238.5t-168 -161t-241.5 -57.5t-225.5 42t-144.5 116.5t-51 174.5t64.5 179.5t183.5 112.5v463h979l18 -115h-356v-326h33q143 0 249.5 -67.5t164 -188.5t57.5 -269t-41 -271h309v1237
h147v-1352h-505q-102 -188 -306.5 -290.5t-468.5 -102.5z" />
    <glyph glyph-name="tm_NU" horiz-adv-x="2064" 
d="M485 -301q-141 0 -141 -117q0 -66 78 -107.5t211 -41.5q377 0 545 266h-693zM1341 -301q-207 -393 -723 -393q-265 0 -346.5 99t-81.5 193t75 155t220 61h750q72 176 72 436q0 162 -54.5 256t-162.5 94t-174 -75.5t-66 -192.5v-332h-145v936h-371v-936h-144v1051h1031
l16 -115h-387v-313q96 102 237 102q180 0 276.5 -129.5t96.5 -361.5t-69 -420h340v1237h143v-1352h-533z" />
    <glyph glyph-name="tm_NnnU" horiz-adv-x="3131" 
d="M469 -301q-143 0 -143 -96q0 -78 132 -124t414 -46t530.5 68.5t428.5 197.5h-1362zM682 80q92 0 152.5 59.5t60.5 151.5t-60.5 151.5t-152.5 59.5t-151.5 -59.5t-59.5 -151.5t59.5 -151.5t151.5 -59.5zM1309 356q0 -119 48 -192.5t135 -73.5t134 74t47 198t-54 236.5
t-155 194.5q-155 -172 -155 -437zM1569 881q258 -210 258 -536q0 -165 -90 -273.5t-246 -108.5t-246 108.5t-90 270.5q0 313 197 522q-180 96 -400 96t-372 -63t-235 -176t-83 -271t107 -264q-21 47 -21 123t43 151t120 116.5t174 41.5t178 -41.5t126 -116.5t45 -168
t-46 -168t-128 -118t-184 -43q-174 0 -302 65.5t-196.5 180.5t-68.5 275t102 302t289.5 221.5t431.5 79.5q301 0 524 -131q179 131 395 131q260 0 400.5 -156.5t140.5 -438.5q0 -387 -238 -678h642v1237h145v-1352h-893q-205 -186 -509.5 -289.5t-668.5 -103.5t-531 79.5
t-167 217.5q0 94 73.5 152.5t223.5 58.5h1497q275 275 275 680q0 225 -97.5 346t-292.5 121q-158 0 -282 -80z" />
    <glyph glyph-name="tm_MU" horiz-adv-x="2293" 
d="M1751 117q281 -1 281 383q0 192 -78 326.5t-221 134.5q-102 0 -162 -68t-60 -205v-571h240zM2185 454q0 -196 -110.5 -325t-323.5 -129h-244q-25 -240 -191.5 -382t-447.5 -142q-225 0 -387 103.5t-246.5 289t-84.5 411.5t73.5 446t186.5 345l147 -20
q-109 -113 -181.5 -327t-72.5 -433q0 -315 147.5 -501.5t417.5 -186.5q223 0 350.5 107.5t145.5 289.5h-580v1051l146 10v-944h436v567q0 197 98 300t252 103t257.5 -78.5t157.5 -218.5t54 -336z" />
    <glyph glyph-name="tm_RU" horiz-adv-x="2230" 
d="M2124 243q0 -218 -120 -393.5t-342 -274.5t-523 -99t-525.5 110.5t-344 306t-119.5 447.5q0 195 83.5 403.5t212.5 327.5l150 -20q-127 -104 -210 -306t-83 -412t100.5 -377t289 -260t445.5 -93t444 82t286.5 229.5t99.5 321.5t-56.5 269t-161.5 95t-172 -75.5
t-67 -192.5v-332h-143v936h-438v-936h-146v1051h1098l16 -115h-387v-313q96 102 238 102q174 0 274.5 -132t100.5 -350z" />
    <glyph glyph-name="tm_RrU" horiz-adv-x="2211" 
d="M496 -301q-164 0 -164 -107q0 -76 84 -117.5t254 -41.5t315 68.5t246 197.5h-735zM557 1087q186 0 285 -182q49 86 131 134t184 48q215 0 328.5 -167.5t113.5 -446.5q0 -383 -129 -659h406v1237h145v-1352h-614q-121 -188 -311 -290.5t-426 -102.5t-364 76.5t-128 209.5
q0 106 80 164t238 58h809q141 258 141 659q0 225 -68.5 356.5t-218.5 131.5q-98 0 -166.5 -69t-68.5 -204v-688h-146v641q0 145 -59.5 232.5t-173.5 87.5q-213 0 -213 -297v-664h-144v664q0 205 91.5 314t277.5 109z" />
    <glyph glyph-name="tm_LU" horiz-adv-x="2590" 
d="M489 -301q-174 0 -174 -117q0 -70 106.5 -109.5t319.5 -39.5t391.5 68.5t276.5 197.5h-920zM471 291q0 -92 59.5 -151.5t151.5 -59.5t152.5 59.5t60.5 151.5t-60.5 151.5t-152.5 59.5t-151.5 -59.5t-59.5 -151.5zM730 -694q-276 0 -422 74.5t-146 193.5t84 179.5
t243 60.5h986q27 63 41 153q-154 23 -234 141.5t-80 321.5v96q0 205 -120.5 320t-333.5 115q-147 0 -257 -60.5t-169.5 -167t-59.5 -244.5q0 -182 105 -292q-45 138 12 236.5t133 140.5t173 42t178 -42t126 -116.5t45 -166.5t-46 -167t-128 -118t-184 -43q-174 0 -302 69.5
t-196.5 189.5t-68.5 278t78.5 295t223.5 214.5t331 77.5t322 -68.5t210 -194.5t74 -298v-96q0 -168 58 -253t183 -85q244 0 244 385q0 131 -43 295t-125 279l145 28q86 -141 130.5 -305t44.5 -295q0 -217 -80 -350t-240 -160q-8 -82 -37 -155h627v1237h145v-1352h-827
q-115 -184 -341 -288.5t-502 -104.5z" />
    <glyph glyph-name="tm_LlU" horiz-adv-x="3301" 
d="M977 291q0 -92 60.5 -151.5t152.5 -59.5t151.5 59.5t59.5 151.5t-59.5 151.5t-151.5 59.5t-152.5 -59.5t-60.5 -151.5zM3193 230q0 -230 -132 -404t-377 -262t-579 -88h-776q-362 0 -628.5 107.5t-408.5 304t-142 460.5q0 195 83.5 398.5t212.5 324.5l150 -20
q-127 -104 -210 -303t-83 -413t124 -383t356.5 -263.5t545.5 -98.5h776q285 0 495 75t324.5 222.5t114.5 362.5q0 160 -56 255t-167 95q-82 0 -142.5 -53t-80.5 -139v-408h-146v936h-512v-936h-145v467q0 141 -66.5 254t-183 176.5t-266.5 63.5t-265.5 -60.5t-178 -168
t-62.5 -267.5t102 -268q-16 49 -16 119t43 144.5t120 116t174 41.5t178 -41.5t126 -116.5t45 -168t-46 -169t-128 -118t-184 -42q-174 0 -302 68.5t-197 187.5t-69 279t82 298t233 214.5t331 76.5q351 0 530 -251v215h1173l17 -115h-387v-303q92 92 227 92
q174 0 273.5 -132.5t99.5 -362.5z" />
    <glyph glyph-name="tm_LllU" horiz-adv-x="2293" 
d="M1751 117q281 -1 281 383q0 192 -78 326.5t-221 134.5q-102 0 -162 -68t-60 -205v-571h240zM1366 -25v25h-582v1051l146 10v-944h436v567q0 197 98 300t252 103t257.5 -78.5t157.5 -218.5t54 -336t-110.5 -325t-323.5 -129h-240v-16q0 -66 34 -112t95 -46h334l17 -115
h-340q-72 -109 -234 -172t-364 -63q-276 0 -481 108.5t-313.5 301t-108.5 418.5t72.5 433t187.5 334l147 -20q-111 -115 -182.5 -318t-71.5 -411.5t89 -372.5t258 -255t403 -91q317 0 438 135q-125 57 -125 237z" />
    <glyph glyph-name="tm_KUu" horiz-adv-x="2234" 
d="M1243 219q0 -57 30 -94t76 -37t75.5 37t29.5 101t-29.5 123t-83.5 95q-98 -85 -98 -225zM512 496q-129 0 -199.5 -56.5t-70.5 -147.5t69.5 -146.5t184.5 -55.5q158 0 246.5 89t88.5 241v76h-319zM481 610h350v326h-350v-326zM1597 219q0 -111 -70.5 -183.5t-178.5 -72.5
t-178 71.5t-70 184.5q0 160 100 277h-223v-76q0 -135 -58.5 -238.5t-168 -161t-241.5 -57.5t-225.5 42t-144.5 116.5t-51 174.5t64.5 179.5t183.5 112.5v463h979l18 -115h-356v-326h215q70 0 131 -18q99 53 217 53t201.5 -45t128.5 -124t45 -172t-25 -187h324v-117h-524
q71 142 71 297q0 102 -56 161.5t-153 59.5q-37 0 -82 -10q127 -114 127 -289z" />
    <glyph glyph-name="tm_NgUu" horiz-adv-x="2430" 
d="M1442 390q0 -169 -129 -273h360v934h146v-985q93 98 245 98t249 -101.5t97 -268.5t-97 -289.5t-272 -187.5t-403 -65h-1046q-213 0 -341 69t-128 185t79 185t201 69h1080v-114h-1080q-57 0 -92 -37t-35 -101t86.5 -102.5t229.5 -38.5h1046q182 0 322.5 50.5t218.5 148.5
t78 216t-57.5 186.5t-155.5 68.5t-161.5 -70.5t-63.5 -179.5v-178h-146v391h-968v117h278q150 0 227.5 77.5t77.5 191.5t-54 179.5t-154 65.5t-165 -71t-65 -179v-70h-145v625h-371v-936h-144v1051h1031l16 -115h-387v-274q98 94 251 94t247 -98.5t94 -267.5z" />
    <glyph glyph-name="tm_CUu" horiz-adv-x="2527" 
d="M1069 496q-131 0 -200.5 -56.5t-69.5 -147.5t69.5 -146.5t184.5 -55.5q158 0 245.5 89t87.5 241v76h-317zM1038 610h348v326h-348v-326zM2419 20q0 -160 -129 -286.5t-370 -192t-589 -65.5t-619.5 106.5t-416.5 303t-145 462.5q0 195 83.5 398.5t212.5 324.5l150 -20
q-127 -104 -210 -303t-83 -416t127 -384t364.5 -256t536.5 -89t505 50t318.5 147.5t112.5 236.5q0 90 -44 148.5t-120 58.5t-129 -56.5t-53 -144.5v-43h-145v496h-242v-76q0 -135 -58.5 -238.5t-168 -161t-242.5 -57.5t-226.5 42t-144.5 116.5t-51 174.5t64.5 179.5
t183.5 112.5v463h981l16 -115h-354v-326h604l8 -114h-225v-199q76 70 202 70t211 -93.5t85 -253.5z" />
    <glyph glyph-name="tm_TtUu" horiz-adv-x="1802" 
d="M1477 1126q-45 0 -75 -29.5t-30 -73.5t30 -73.5t75 -29.5t74.5 29.5t29.5 73.5t-29.5 73.5t-74.5 29.5zM1470 1231q39 0 66 -8q-59 123 -196.5 193.5t-345.5 70.5t-367.5 -131t-241.5 -356.5t-82 -500t70.5 -477t206 -311t315.5 -108.5t302 74.5t184.5 208.5t62.5 306
t-58.5 288t-165.5 116t-170 -73.5t-63 -190.5v-332h-145v1051h145v-424q87 98 219 98t216.5 -71.5t129.5 -192.5t45 -266q0 -211 -81.5 -374t-239.5 -254t-382 -91t-393 126t-260 358.5t-91 543.5t102 563t295.5 399.5t458.5 147.5q199 0 355.5 -75t244.5 -204t88 -286
q0 -100 -61.5 -166t-156.5 -66t-160 59.5t-65 149.5t61.5 147.5t157.5 57.5z" />
    <glyph glyph-name="tm_PUu" horiz-adv-x="1892" 
d="M1872 -205q0 -168 -97.5 -290.5t-272.5 -187.5t-402 -65h-508q-213 0 -341 69t-128 185t79 185t201 69h541v-114h-541q-57 0 -92 -37t-35 -101t86.5 -102.5t229.5 -38.5h508q281 0 449.5 113.5t168.5 320.5q0 100 -57 168t-155 68t-162 -70.5t-64 -179.5v-178h-145v391
h-945v1051l144 10v-944h801v934h145v-985q94 98 246 98t249 -100.5t97 -268.5z" />
    <glyph glyph-name="tm_MUu" horiz-adv-x="2590" 
d="M2329 500q0 192 -77 326.5t-222 134.5q-102 0 -162 -68t-60 -205v-571h242q143 0 211 95.5t68 287.5zM696 971q-54 0 -88.5 -34t-34.5 -87t35 -87t88 -34t86 34t33 87t-32.5 87t-86.5 34zM2484 456q0 -198 -110.5 -327t-323.5 -129h-248q-25 -156 -123 -274.5
t-263.5 -184t-407.5 -65.5t-442.5 110.5t-308 310t-107.5 459.5q0 199 70.5 367t194.5 266t254 98t199.5 -66.5t69.5 -168.5t-68 -168t-172 -66t-170.5 65t-66.5 165v10q-76 -82 -117 -214t-41 -288q0 -223 87 -394t253.5 -265t410.5 -94t408 108.5t195 288.5h-576v1051
l146 10v-944h436v567q0 197 98.5 300t252.5 103t258 -78.5t158 -216.5t54 -336z" />
    <glyph glyph-name="tm_YUu" horiz-adv-x="2316" 
d="M170 387v664l143 10v-674q0 -297 232 -297q127 0 194.5 89t67.5 237v635h145v-934h607v934h145v-985q94 98 246 98t249 -100.5t97 -268.5t-97.5 -290.5t-272.5 -187.5t-402 -65h-932q-213 0 -341 69t-128 185t79 185t201 69h965v-114h-965q-57 0 -92 -37t-35 -101
t86.5 -102.5t229.5 -38.5h932q281 0 449.5 113.5t168.5 320.5q0 100 -57 168t-155 68t-162 -70.5t-64 -179.5v-178h-145v391h-752v86q-102 -123 -268 -123t-267.5 108.5t-101.5 315.5z" />
    <glyph glyph-name="tm_RUu" horiz-adv-x="2527" 
d="M696 971q-54 0 -88.5 -34t-34.5 -87t35 -87t88 -34t86 34t33 87t-32.5 87t-86.5 34zM2421 244q0 -217 -135.5 -393.5t-387 -275.5t-593.5 -99t-605.5 114.5t-406.5 323.5t-143 483q0 184 71.5 343t196.5 253t280 94q104 0 172 -66.5t68 -168.5t-68 -168t-172 -66
t-170.5 65t-66.5 165v16q-76 -80 -117 -202.5t-41 -264.5q0 -238 124 -418t351.5 -278t526.5 -98t515 83t331.5 229.5t115.5 320.5t-56.5 269t-162.5 95t-172 -75.5t-66 -192.5v-332h-145v936h-438v-936h-146v1051h1098l19 -115h-388v-313q96 102 238 102q174 0 273.5 -132
t99.5 -349z" />
    <glyph glyph-name="tm_LlUu" horiz-adv-x="3672" 
d="M1350 291q0 -92 59 -151.5t151.5 -59.5t153 59.5t60.5 151.5t-60.5 151.5t-153 59.5t-151.5 -59.5t-59 -151.5zM696 971q-54 0 -88.5 -34t-34.5 -87t35 -87t88 -34t86 34t33 87t-32.5 87t-86.5 34zM303 315q0 -221 122 -384.5t349 -252t537 -88.5h1165q285 0 496 75
t325.5 222.5t114.5 362.5q0 160 -57.5 255t-167.5 95q-80 0 -139.5 -50t-81.5 -134v-416h-146v936h-512v-936h-145v467q0 141 -66.5 254t-182.5 176.5t-266 63.5t-266 -60.5t-178.5 -168t-62.5 -267.5t102 -268q-16 49 -16 119t43 144.5t119.5 116t174.5 41.5t178.5 -41.5
t125.5 -116.5t45 -168t-46 -168t-128 -118t-185 -43q-174 0 -302 68.5t-196.5 187.5t-68.5 279t82 298t233.5 214.5t331.5 76.5q351 0 529 -251v215h1171l17 -115h-385v-301q90 90 225 90q174 0 274.5 -132.5t100.5 -362.5t-133.5 -404t-378 -262t-578.5 -88h-1165
q-354 0 -616.5 102.5t-403.5 291t-141 428.5t70.5 416.5t195.5 274.5t282 98q104 0 172 -66.5t68 -168.5t-68 -168t-172 -66t-170.5 65t-66.5 165v10q-158 -179 -158 -543z" />
    <glyph glyph-name="tm_LllUu" horiz-adv-x="2590" 
d="M2050 117q143 0 211 95.5t68 287.5t-77 326.5t-222 134.5q-102 0 -162 -68t-60 -205v-571h242zM707 971q-53 0 -88 -34t-35 -87t34 -87t88 -34t86.5 34t32.5 87t-32.5 87t-85.5 34zM1808 -16q0 -158 129 -158h334l17 -115h-338q-94 -106 -289 -170.5t-442 -64.5
q-315 0 -558 115.5t-377 320.5t-134 465q0 188 73.5 352t199.5 261t256 97t199.5 -66.5t69.5 -168.5t-68.5 -168t-171.5 -66t-170 65t-67 165v16q-78 -84 -123 -212t-45 -275q0 -223 114.5 -399.5t322.5 -275.5t479 -99q398 0 569 135q-125 57 -125 237v25h-582v1051l146 10
v-944h436v567q0 197 98.5 300t252.5 103t258 -78.5t158 -216.5t54 -336t-110.5 -327t-323.5 -129h-242v-16z" />
    <glyph glyph-name="tm_VUu" horiz-adv-x="2537" 
d="M471 291q0 -92 59.5 -151.5t151.5 -59.5t152.5 59.5t60.5 151.5t-60.5 151.5t-152.5 59.5t-151.5 -59.5t-59.5 -151.5zM1430 522q0 -224 -127 -405h477v934h145v-985q93 98 245 98t249.5 -100.5t97.5 -268.5t-97.5 -290.5t-272.5 -187.5t-402 -65h-1153q-213 0 -341 69
t-128 185t79 185t201 69h1186v-114h-1186q-57 0 -92 -37t-35 -101t86.5 -102.5t229.5 -38.5h1153q281 0 449.5 113.5t168.5 320.5q0 100 -57.5 168t-155.5 68t-161.5 -70.5t-63.5 -179.5v-178h-145v391h-650l3 117q141 171 141 405q0 127 -60.5 226.5t-172 156t-264.5 56.5
t-271.5 -60.5t-181 -168t-62.5 -247.5q0 -180 103 -288q-45 139 12 238.5t134 141t174 41.5t178 -41.5t126 -116.5t45 -168t-46 -168t-128 -118t-184 -43q-174 0 -302 68.5t-196.5 187.5t-68.5 279t82.5 298t235.5 214.5t348 76.5t343 -72.5t230 -201.5t82 -291z" />
    <glyph glyph-name="tm_KSsa" horiz-adv-x="3211" 
d="M1243 219q0 -57 30 -94t76 -37t75.5 37t29.5 101.5t-29.5 123t-83.5 94.5q-98 -85 -98 -225zM512 496q-129 0 -199.5 -56.5t-70.5 -147.5t69.5 -146.5t184.5 -55.5q158 0 246.5 89t88.5 241v76h-319zM2601 117h276v571q-117 -152 -276 -223v-348zM481 610h350v326h-350
v-326zM2456 745q0 98 -52.5 157t-144.5 59t-143.5 -56.5t-51.5 -150.5t72 -156.5t188 -62.5q71 0 132 18v192zM1597 219q0 -111 -70.5 -183.5t-178 -72.5t-178 71.5t-70.5 184.5q0 160 100 277h-223v-76q0 -135 -58.5 -238.5t-168 -161t-241.5 -57.5t-225.5 42t-144.5 116
t-51 174.5t64.5 180t183.5 112.5v463h979l18 -115h-356v-326h215q70 0 131 -18q100 53 217.5 53t201 -45t128.5 -124t45 -179t-27 -180h568v303q-61 -12 -157 -12t-189 45t-146 124.5t-53 178.5q0 147 94 239t253 92t251 -91t92 -240v-138q164 106 276 318h146v-936h-422
v-498h-145v498h-766q71 142 71 297q0 102 -56 161.5t-153 59.5q-37 0 -82 -10q127 -114 127 -289z" />
    <glyph glyph-name="tm_TtI" horiz-adv-x="1685" 
d="M1233 645q0 141 -59.5 228.5t-177.5 87.5t-186.5 -104.5t-68.5 -256.5t47.5 -258t130 -165.5t185.5 -59.5h129v528zM993 1087q184 0 284.5 -122.5t100.5 -319.5v-528h273l14 -117h-287v-498h-145v498h-1043v1051l144 10v-944h452q-192 159 -196 465q0 227 109.5 366
t293.5 139z" />
    <glyph glyph-name="tm_TtIi" horiz-adv-x="1603" 
d="M1364 457q0 43 -28.5 71.5t-72.5 28.5t-72 -28.5t-28 -71.5t28 -72t72 -29t72.5 29t28.5 72zM565 428q0 125 61.5 223.5t169 154.5t236.5 56t230.5 -53t162 -141t60.5 -188t-63.5 -165t-160 -65t-161 58.5t-64.5 148.5t62.5 149.5t158.5 59.5h9q-86 70 -225.5 69.5
t-230.5 -87.5t-91 -221t73.5 -222t190.5 -88h584l16 -117h-1393v1051l144 10v-944h358q-127 115 -127 311z" />
    <glyph glyph-name="tm_Shree" horiz-adv-x="3708" 
d="M3412 1393q0 43 -28.5 70.5t-72.5 27.5t-72 -27.5t-28 -70.5t28 -72t72 -29t72.5 29t28.5 72zM2613 1364q0 125 61.5 223.5t169 154.5t236.5 56t230.5 -53t161 -141t59.5 -188.5t-62.5 -165t-159 -64.5t-161 58.5t-64.5 148.5t61.5 148t159.5 58h13q-92 72 -232 72
t-229.5 -87t-89.5 -222t73.5 -223t190.5 -88h330l16 -115h-387v-313q96 102 238 102q174 0 273 -132.5t99 -362.5t-132 -404t-376.5 -262t-580.5 -88h-1182q-362 0 -628.5 107.5t-408.5 304t-142 460.5q0 195 83.5 398.5t212.5 324.5l150 -20q-127 -104 -210 -303t-83 -413
t124 -384t356.5 -264.5t545.5 -96.5h1182q285 0 495.5 75t325.5 222.5t115 362.5q0 160 -56.5 255t-162.5 95t-172 -75.5t-66 -192.5v-332h-145v936h-475v-936h-144v635q0 147 -67.5 236.5t-194.5 89.5q-231 0 -231 -297v-664h-981v1051l145 10v-944h690v547
q0 209 101.5 316t268.5 107t269 -124v88h516q-129 121 -129 313z" />
    </font>
</defs>
</svg>
