<?xml version="1.0" encoding="utf-8"?>
<!-- Generator: Adobe Illustrator 16.0.0, SVG Export Plug-In . SVG Version: 6.00 Build 0)  -->
<!DOCTYPE svg PUBLIC "-//W3C//DTD SVG 1.1//EN" "http://www.w3.org/Graphics/SVG/1.1/DTD/svg11.dtd">
<svg version="1.1" xmlns="http://www.w3.org/2000/svg" xmlns:xlink="http://www.w3.org/1999/xlink" x="0px" y="0px"
	 width="228.959px" height="229.958px" viewBox="0 0 228.959 229.958" enable-background="new 0 0 228.959 229.958"
	 xml:space="preserve">
<g id="Layer_1" display="none">
	<path display="inline" fill="#3057E0" d="M114.657,73.622c-22.571,0-40.933,18.365-40.933,40.943
		c0,22.571,18.362,40.937,40.933,40.937c22.581,0,40.96-18.366,40.96-40.937C155.617,91.987,137.238,73.622,114.657,73.622
		 M114.657,166.503c-28.629,0-51.925-23.299-51.925-51.938c0-28.646,23.296-51.938,51.925-51.938
		c28.643,0,51.949,23.292,51.949,51.938C166.605,143.204,143.3,166.503,114.657,166.503"/>
	<path display="inline" fill="#3057E0" d="M171.265,46.578c-4.179,0-7.577,3.398-7.577,7.57c0,4.179,3.398,7.57,7.577,7.57
		c4.166,0,7.557-3.391,7.557-7.57C178.822,49.976,175.431,46.578,171.265,46.578 M171.265,71.479
		c-9.547,0-17.324-7.777-17.324-17.331s7.777-17.324,17.324-17.324c9.546,0,17.317,7.771,17.317,17.324
		S180.812,71.479,171.265,71.479"/>
	<path display="inline" fill="#3057E0" d="M205.445,164.22c0,22.671-18.445,41.123-41.117,41.123h-99.32
		c-22.675,0-41.12-18.452-41.12-41.123V64.896c0-22.671,18.445-41.113,41.12-41.113h99.32c22.671,0,41.117,18.442,41.117,41.113
		V164.22z M166.011,14.76H63.326c-26.72,0-48.46,21.736-48.46,48.454v102.688c0,26.717,21.74,48.454,48.46,48.454h102.686
		c26.717,0,48.447-21.736,48.447-48.454V63.214C214.458,36.497,192.728,14.76,166.011,14.76"/>
</g>
<g id="Layer_2">
	<path fill="#3057E0" d="M49.84,20c-16.756,0-30.383,13.63-30.383,30.383v126.544c0,16.759,13.627,30.39,30.383,30.39h126.547
		c16.752,0,30.384-13.631,30.384-30.39V50.383C206.771,33.63,193.14,20,176.388,20H49.84z M176.388,215.998H49.84
		c-21.545,0-39.071-17.525-39.071-39.071V50.383c0-21.545,17.526-39.071,39.071-39.071h126.547
		c21.538,0,39.065,17.526,39.065,39.071v126.544C215.453,198.472,197.926,215.998,176.388,215.998"/>
	<path fill="#3057E0" d="M139.651,135.035h25.468l4.498-34.819h-29.965v-16.65c0-8.031,1.917-12.111,12.377-12.111l18.293-0.007
		V40.093l-2.136-0.281c-2.937-0.39-12.529-1.198-23.4-1.198c-25.249,0-40.926,16.096-40.926,42.001v19.601H78.025v34.819h25.834
		l-0.017,76.759h4.922v-81.668H82.931v-25.002h25.834V80.615c0-23.229,13.47-37.092,36.021-37.092
		c8.708,0,16.526,0.527,20.621,0.917v22.106l-13.378,0.007c-15.225,0-17.279,8.599-17.279,17.013v21.558h29.273l-3.217,25.002
		H134.75v81.668h4.901V135.035z"/>
</g>
</svg>
