<?xml version="1.0" encoding="utf-8"?>
<!-- Generator: Adobe Illustrator 16.0.0, SVG Export Plug-In . SVG Version: 6.00 Build 0)  -->
<!DOCTYPE svg PUBLIC "-//W3C//DTD SVG 1.1//EN" "http://www.w3.org/Graphics/SVG/1.1/DTD/svg11.dtd">
<svg version="1.1" id="Layer_1" xmlns="http://www.w3.org/2000/svg" xmlns:xlink="http://www.w3.org/1999/xlink" x="0px" y="0px"
	 width="228.959px" height="229.958px" viewBox="0 0 228.959 229.958" enable-background="new 0 0 228.959 229.958"
	 xml:space="preserve">
<path fill="#3057E0" d="M114.657,73.622c-22.571,0-40.933,18.365-40.933,40.943c0,22.571,18.362,40.937,40.933,40.937
	c22.581,0,40.96-18.366,40.96-40.937C155.617,91.987,137.238,73.622,114.657,73.622 M114.657,166.503
	c-28.629,0-51.925-23.299-51.925-51.938c0-28.646,23.296-51.938,51.925-51.938c28.643,0,51.949,23.292,51.949,51.938
	C166.605,143.204,143.3,166.503,114.657,166.503"/>
<path fill="#3057E0" d="M171.265,46.578c-4.179,0-7.577,3.398-7.577,7.57c0,4.179,3.398,7.57,7.577,7.57
	c4.166,0,7.557-3.391,7.557-7.57C178.822,49.976,175.431,46.578,171.265,46.578 M171.265,71.479
	c-9.547,0-17.324-7.777-17.324-17.331s7.777-17.324,17.324-17.324c9.546,0,17.317,7.771,17.317,17.324
	S180.812,71.479,171.265,71.479"/>
<path fill="#3057E0" d="M205.445,164.22c0,22.671-18.445,41.123-41.117,41.123h-99.32c-22.675,0-41.12-18.452-41.12-41.123V64.896
	c0-22.671,18.445-41.113,41.12-41.113h99.32c22.671,0,41.117,18.442,41.117,41.113V164.22z M166.011,14.76H63.326
	c-26.72,0-48.46,21.736-48.46,48.454v102.688c0,26.717,21.74,48.454,48.46,48.454h102.686c26.717,0,48.447-21.736,48.447-48.454
	V63.214C214.458,36.497,192.728,14.76,166.011,14.76"/>
</svg>
