<?xml version="1.0" encoding="utf-8"?>
<!-- Generator: Adobe Illustrator 16.0.0, SVG Export Plug-In . SVG Version: 6.00 Build 0)  -->
<!DOCTYPE svg PUBLIC "-//W3C//DTD SVG 1.1//EN" "http://www.w3.org/Graphics/SVG/1.1/DTD/svg11.dtd">
<svg version="1.1" xmlns="http://www.w3.org/2000/svg" xmlns:xlink="http://www.w3.org/1999/xlink" x="0px" y="0px"
	 width="421.947px" height="178.5px" viewBox="0 0 421.947 178.5" enable-background="new 0 0 421.947 178.5" xml:space="preserve">
<g id="Layer_1">
	<path fill="#0055E6" stroke="#0055E6" d="M159.946,132.577c0.001,0,0.103,0.038,0.107,0.038c0.011,0,0.074,0.006,0.106,0.002
		l17.688-5.906c0.092-0.03,4.609-27.632,4.609-27.632c0.031-0.191-0.091-0.379-0.273-0.422l-9.046-2.141
		c2.275-1.207,3.505-2.944,3.456-5.098c-0.101-2.993-4.452-5.089-10.59-5.089l-0.36,0.002c-2.458,0.031-5.188,0.414-7.799,1.236
		l-3.292-7.771l5.357,3.007c0.004,0.002,0.129,0.048,0.134,0.048h0.001c0.015,0,0.093,0.009,0.135,0.001l22.188-7.406
		c0.114-0.039,5.78-34.662,5.78-34.662c0.04-0.24-0.114-0.473-0.34-0.528l-27.03-6.396c-0.224-0.052-0.41-0.212-0.502-0.431
		L149.669,8.396c-0.074-0.171-0.239-0.265-0.49-0.273l-25.947,1.351c-0.139,0.007-0.269,0.084-0.349,0.204
		c-0.074,0.116-0.094,0.274-0.052,0.413l8.739,26.604c0.034,0.105,0.045,0.218,0.034,0.328c-0.005,0.04-0.003,0.077,0,0.11
		l5.129,32.457c0.023,0.137,0.11,0.265,0.229,0.333l6.304,3.539l-12.561,0.652c-0.11,0.005-0.215,0.068-0.279,0.164
		c-0.06,0.093-0.077,0.218-0.04,0.33l6.965,21.211c0.025,0.082,0.036,0.172,0.025,0.26c-0.002,0.032-0.002,0.063,0,0.089
		l4.091,25.876c0.019,0.108,0.087,0.21,0.184,0.264l4.014,2.251l-9.208,0.481c-0.09,0.002-0.173,0.054-0.225,0.13
		c-0.048,0.075-0.059,0.179-0.033,0.267l5.612,17.092c0.024,0.065,0.032,0.139,0.024,0.207c-0.002,0.027-0.002,0.05,0,0.071
		l3.294,20.851c0.015,0.088,0.071,0.171,0.148,0.214l14.737,8.273c0.005,0.001,0.085,0.03,0.089,0.033v-0.003
		c0.009,0,0.06,0.007,0.086,0.003l14.254-4.76c0.071-0.021,3.712-22.263,3.712-22.263c0.023-0.154-0.074-0.303-0.221-0.339
		l-7.833-1.857c1.265-0.905,1.934-2.098,1.9-3.515c-0.078-2.363-3.511-4.011-8.348-4.011h-0.283c-1.569,0.02-3.28,0.222-4.966,0.641
		l-2.423-5.721L159.946,132.577z M186.646,41.805c0.179,0.171,0.264,0.424,0.223,0.674l-4.988,31.153
		c-0.149,1.058-1.511,1.522-1.666,1.572l-18.705,6.239c-0.072,0.024-0.15,0.035-0.221,0.035c-0.152,0-0.302-0.048-0.426-0.144
		c-0.188-0.141-0.298-0.367-0.298-0.608l0.026-32.04c0-0.346,0.228-0.647,0.55-0.728l24.843-6.334
		C186.219,41.564,186.468,41.63,186.646,41.805z M183.911,40.103c0.972,0.266,0.945,0.742-0.065,1.024
		c-5.485,1.541-23.197,5.82-23.197,5.82l-0.151-12.387C160.498,34.561,178.474,38.61,183.911,40.103z M159.719,104.042
		c0,0-6.688-2.427-12.403-4.557c0.142-1.433,0.517-2.783,1.131-4.027l0.106-0.215l0.209,0.103c0.429,0.206,0.875,0.403,1.341,0.596
		c2.812,1.148,6.176,1.931,9.595,2.267L159.719,104.042z M160.416,94.114c0,0,5.697,1.286,10.993,2.53
		c-1.972,0.719-4.341,1.091-6.655,1.185c-0.445,0.018-0.895,0.025-1.346,0.025h0c-0.977,0-1.964-0.049-2.949-0.128L160.416,94.114z
		 M159.224,93.271c-0.094,0.167-0.256,0.277-0.439,0.296l-9.876,1.046l0.056-0.092c1.882-3.053,5.007-5.04,8.413-6.221l1.876,4.429
		C159.326,92.902,159.314,93.104,159.224,93.271z M159.683,94.114l0.013,3.548c-3.349-0.337-6.642-1.106-9.398-2.232
		c-0.266-0.11-0.514-0.228-0.768-0.342C154.611,94.576,159.683,94.114,159.683,94.114z M147.945,95.251
		c-0.608,1.25-0.991,2.602-1.146,4.04c-2.712-1.012-5.149-1.939-6.458-2.479c-0.648-0.267-0.595-0.591,0.113-0.698
		C141.982,95.887,144.866,95.567,147.945,95.251z M181.261,99.891c0.143,0.138,0.208,0.34,0.175,0.538l-3.976,24.836
		c-0.121,0.843-1.204,1.212-1.327,1.252l-14.914,4.974c-0.058,0.021-0.118,0.029-0.176,0.029c-0.12,0-0.241-0.042-0.338-0.115
		c-0.15-0.111-0.237-0.292-0.237-0.483l0.021-25.542c0-0.278,0.181-0.517,0.439-0.581l19.803-5.049
		C180.92,99.7,181.12,99.753,181.261,99.891z M179.082,98.533c0.771,0.213,0.751,0.593-0.053,0.818
		c-4.374,1.227-18.493,4.64-18.493,4.64l-0.07-5.712c1.445,0.114,2.896,0.156,4.309,0.099c3.104-0.122,5.67-0.647,7.616-1.5
		C175.126,97.526,177.649,98.142,179.082,98.533z M165.652,86.881l0.351-0.001c5.833,0,9.97,1.874,10.058,4.557
		c0.053,2.276-1.518,3.849-3.812,4.87l-11.613-2.75c-0.178-0.041-0.324-0.168-0.4-0.343l-2.176-5.138
		C160.603,87.283,163.26,86.914,165.652,86.881z M157.163,87.791c-3.535,1.232-6.776,3.317-8.713,6.528l-0.119,0.196l-0.196-0.106
		c-3.323-1.802-5.142-4.072-5.269-6.557c-0.127-2.49,0.662-4.706,2.331-6.587c1.374-1.548,3.253-2.766,5.332-3.727l3.005,1.687
		L157.163,87.791z M159.626,47.01c0,0-19.14-6.939-24.308-9.066c-0.811-0.335-0.746-0.745,0.145-0.876
		c5.375-0.802,24.117-2.507,24.117-2.507L159.626,47.01z M132.306,36.058l-8.129-24.745c-0.072-0.224-0.04-0.47,0.087-0.665
		c0.127-0.196,0.335-0.317,0.563-0.328l23.654-1.23c0.303-0.018,0.577,0.163,0.698,0.448l9.86,23.282
		c0.094,0.222,0.08,0.475-0.036,0.682c-0.116,0.209-0.322,0.347-0.552,0.371l-25.39,2.691c-0.023,0.002-0.048,0.003-0.072,0.003
		C132.681,36.566,132.404,36.363,132.306,36.058z M137.601,68.415l-4.716-29.353c-0.042-0.263,0.054-0.532,0.251-0.702
		c0.198-0.173,0.469-0.218,0.71-0.128l25.341,9.634c0.284,0.109,0.475,0.391,0.475,0.705l0.011,31.786
		c0,0.264-0.134,0.51-0.355,0.645c-0.111,0.071-0.241,0.108-0.37,0.108c-0.117,0-0.236-0.032-0.344-0.09L139.11,70.074
		C138.852,69.904,137.799,69.165,137.601,68.415z M137.938,95.31l-6.478-19.727c-0.06-0.178-0.034-0.374,0.067-0.53
		c0.104-0.156,0.267-0.252,0.448-0.263l12.501-0.649l5.448,3.058c-1.978,0.965-3.768,2.173-5.116,3.692
		c-1.775,1.995-2.604,4.347-2.472,6.99c0.134,2.617,1.962,4.986,5.291,6.867l-9.086,0.964c-0.018,0.001-0.039,0.003-0.058,0.003
		C138.238,95.715,138.019,95.555,137.938,95.31z M142.158,121.106l-3.755-23.402c-0.035-0.211,0.04-0.425,0.199-0.559
		c0.159-0.138,0.375-0.174,0.567-0.103l20.201,7.681c0.227,0.088,0.377,0.313,0.377,0.563l0.01,25.338
		c0,0.212-0.108,0.408-0.28,0.514c-0.091,0.06-0.194,0.086-0.296,0.086c-0.093,0-0.188-0.024-0.275-0.072l-15.542-8.724
		C143.159,122.292,142.318,121.701,142.158,121.106z M142.286,142.119l-5.222-15.896c-0.045-0.144-0.025-0.304,0.055-0.429
		c0.084-0.126,0.217-0.203,0.364-0.21l9.16-0.476l5.005,2.81c-1.824,0.809-3.493,1.855-4.709,3.223
		c-1.396,1.574-2.05,3.427-1.944,5.512c0.098,1.945,1.399,3.716,3.747,5.155l-5.968,0.633c-0.016,0.003-0.034,0.003-0.047,0.003
		C142.53,142.443,142.351,142.313,142.286,142.119z M159.807,141.153l0.012,3.3c-3.026-0.188-6.062-0.832-8.546-1.849
		c-0.337-0.139-0.661-0.283-0.97-0.429l-0.172-0.085C154.658,141.624,159.807,141.153,159.807,141.153z M150.398,141.63
		c1.72-2.591,4.594-4.177,7.615-5.007l1.446,3.413c0.061,0.143,0.051,0.306-0.021,0.438c-0.079,0.133-0.209,0.223-0.355,0.235
		L150.398,141.63z M160.397,141.153c0,0,4.375,0.988,8.553,1.969c-1.709,0.86-4.029,1.286-6.281,1.375
		c-0.352,0.013-0.704,0.019-1.061,0.019c-0.389,0-0.78-0.012-1.171-0.027L160.397,141.153z M159.836,149.151
		c0,0-6.068-2.2-10.829-3.983c0.148-0.895,0.411-1.746,0.805-2.54l0.084-0.168l0.165,0.077c0.337,0.163,0.693,0.32,1.058,0.471
		c2.529,1.035,5.623,1.695,8.701,1.887L159.836,149.151z M149.516,142.266l-0.085,0.17c-0.397,0.808-0.668,1.675-0.825,2.582
		c-1.849-0.693-3.463-1.312-4.384-1.69c-0.523-0.215-0.479-0.477,0.093-0.562c1.064-0.158,2.945-0.375,5.035-0.593L149.516,142.266z
		 M159.641,170.985c-0.073,0.044-0.157,0.071-0.24,0.071c-0.074,0-0.149-0.019-0.219-0.059l-12.525-7.031
		c-0.164-0.109-0.842-0.586-0.97-1.065l-3.026-18.855c-0.027-0.17,0.031-0.34,0.162-0.453c0.125-0.108,0.3-0.139,0.456-0.077
		l16.276,6.188c0.184,0.068,0.305,0.251,0.305,0.452l0.008,20.417C159.868,170.742,159.781,170.899,159.641,170.985z
		 M177.195,145.808c0.115,0.111,0.167,0.273,0.141,0.431l-3.205,20.014c-0.095,0.681-0.97,0.978-1.069,1.01l-12.016,4.009
		c-0.046,0.015-0.093,0.023-0.141,0.023c-0.098,0-0.195-0.031-0.276-0.095c-0.119-0.089-0.188-0.233-0.188-0.392l0.016-20.576
		c0-0.225,0.147-0.418,0.352-0.47l15.958-4.07C176.919,145.653,177.079,145.697,177.195,145.808z M175.437,144.717
		c0.622,0.171,0.605,0.476-0.043,0.655c-3.523,0.99-14.899,3.74-14.899,3.74l-0.052-4.195c0.752,0.03,1.503,0.044,2.241,0.015
		c2.974-0.119,5.332-0.698,6.934-1.654C171.984,143.838,174.208,144.379,175.437,144.717z M163.378,135.865l0.277-0.002
		c4.6,0,7.859,1.479,7.929,3.595c0.036,1.471-0.792,2.567-2.083,3.36l-8.926-2.111c-0.144-0.038-0.263-0.141-0.326-0.277
		l-1.671-3.952C160.209,136.079,161.861,135.888,163.378,135.865z M157.843,136.219c-3.209,0.896-6.26,2.615-8.001,5.474
		l-0.389,0.041c-2.544-1.411-3.942-3.172-4.041-5.104c-0.099-1.96,0.521-3.712,1.838-5.194c1.232-1.389,2.981-2.438,4.892-3.24
		l3.02,1.694L157.843,136.219z"/>
	<polygon fill="#0055E6" stroke="#0055E6" stroke-miterlimit="10" points="53.557,74.803 5.649,74.803 5.649,76.77 28.453,76.77 
		28.453,139.766 30.753,139.766 30.753,76.77 53.557,76.77 	"/>
	<polygon fill="#0055E6" stroke="#0055E6" stroke-miterlimit="10" points="247.437,140.408 247.437,74.803 245.34,74.803 
		245.34,138.199 204.776,74.803 201.283,74.803 201.283,139.766 203.376,139.766 203.376,76.474 244.251,140.408 	"/>
	<polygon fill="#0055E6" stroke="#0055E6" stroke-miterlimit="10" points="270.508,107.747 303.235,139.766 306.041,139.766 
		273.013,107.248 305.436,74.803 302.621,74.803 270.222,107.212 270.829,107.212 270.728,106.155 270.728,74.803 268.426,74.803 
		268.426,139.766 270.728,139.766 270.728,107.463 270.11,107.463 	"/>
	<polygon fill="#0055E6" stroke="#0055E6" stroke-miterlimit="10" points="355.472,76.77 355.472,74.803 320.566,74.803 
		320.566,139.766 355.472,139.766 355.472,137.799 322.867,137.799 322.867,108.213 350.104,108.213 350.104,106.248 
		322.867,106.248 322.867,76.77 	"/>
	<path fill="#0055E6" stroke="#0055E6" stroke-miterlimit="10" d="M400.381,139.803h2.738c0,0-16.002-28.057-17.798-31.528
		c20.716-3.198,21.604-33.431-6.343-33.431h-14.255v64.959h2.299l0.018-31.472l15.688,0.047L400.381,139.803z M367.108,106.084
		l-0.089-29.276h11.479c27.601,0,24.68,29.276,2.137,29.276H367.108z"/>
	<rect x="405.144" y="125.376" fill="none" width="33.606" height="31.124"/>
	<text transform="matrix(1 0 0 1 405.1436 139.5762)" fill="#0055E6" font-family="'Lato-Regular'" font-size="20">®</text>
	<rect x="111.514" y="74.803" fill="#0055E6" stroke="#0055E6" stroke-miterlimit="10" width="2.301" height="64.963"/>
	<rect x="66.938" y="74.802" fill="#0055E6" stroke="#0055E6" stroke-miterlimit="10" width="2.301" height="64.963"/>
	<rect x="89.764" y="90.15" fill="#0055E6" stroke="#0055E6" stroke-miterlimit="10" width="1.225" height="34.596"/>
	<rect x="73.078" y="106.673" fill="#0055E6" stroke="#0055E6" stroke-miterlimit="10" width="34.596" height="1.225"/>
</g>
<g id="Layer_2" display="none">
	<rect x="4" y="181.5" display="inline" fill="none" width="428.5" height="52"/>
	<text transform="matrix(1 0 0 1 4 190.0195)" display="inline" fill="#0055E6" font-family="'Lato-Light'" font-size="12">IF WE CAN DO THINKS WITH HANDS WE CAN MAKE MIRACLE WITH HEADS</text>
</g>
</svg>
